<?xml version="1.0" standalone="no"?>
<!DOCTYPE svg PUBLIC "-//W3C//DTD SVG 20010904//EN"
 "http://www.w3.org/TR/2001/REC-SVG-20010904/DTD/svg10.dtd">
<svg version="1.0" xmlns="http://www.w3.org/2000/svg"
 width="1042.000000pt" height="1042.000000pt" viewBox="0 0 1042.000000 1042.000000"
 preserveAspectRatio="xMidYMid meet">
<metadata>
Created by potrace 1.15, written by Peter Selinger 2001-2017
</metadata>
<g transform="translate(0.000000,1042.000000) scale(0.100000,-0.100000)"
fill="#000000" stroke="none">
<path d="M5250 7460 l0 -280 70 0 70 0 0 280 0 280 -70 0 -70 0 0 -280z"/>
<path d="M3933 7367 c-29 -18 -53 -36 -53 -41 0 -9 243 -438 263 -463 7 -10
20 -6 56 14 81 46 86 26 -64 284 -74 129 -139 235 -143 236 -4 0 -31 -13 -59
-30z"/>
<path d="M6513 7173 c-73 -126 -133 -234 -135 -242 -4 -17 103 -83 115 -71 15
14 267 454 267 466 0 8 -62 49 -110 72 -4 1 -65 -100 -137 -225z"/>
<path d="M5199 6946 c-125 -35 -241 -130 -295 -244 -15 -31 -29 -59 -31 -61
-1 -2 -18 8 -38 23 -220 168 -560 94 -688 -151 -44 -86 -61 -160 -55 -253 l4
-72 -53 5 c-233 24 -455 -137 -504 -364 -26 -121 5 -271 75 -370 l33 -45 -73
-38 c-220 -113 -310 -386 -204 -614 39 -84 134 -179 217 -217 l61 -28 -23 -31
c-138 -185 -125 -436 31 -605 94 -102 246 -160 379 -146 l60 6 -3 -74 c-7
-138 32 -247 125 -347 102 -110 260 -165 407 -141 77 13 161 47 214 87 18 14
34 24 35 23 1 -2 17 -34 35 -71 55 -111 167 -201 287 -232 216 -57 442 41 537
232 18 37 34 69 35 71 1 1 17 -9 35 -23 53 -40 137 -74 216 -87 236 -39 472
124 523 361 6 29 9 86 7 127 l-3 74 55 -6 c173 -20 360 77 453 235 85 145 73
361 -27 500 l-33 46 58 27 c32 15 85 52 118 83 234 216 179 610 -104 750 l-73
36 35 49 c19 27 44 73 55 102 25 64 34 195 19 266 -49 231 -275 392 -507 362
l-50 -7 4 76 c8 144 -34 257 -132 356 -162 162 -411 184 -600 55 -26 -18 -48
-31 -50 -29 -1 1 -13 28 -26 58 -50 111 -187 221 -311 249 -59 14 -174 12
-230 -3z m252 -155 c74 -35 125 -85 161 -158 29 -60 32 -73 31 -153 l-1 -87
59 -18 c32 -10 60 -16 62 -14 1 2 17 35 36 73 129 258 494 232 593 -42 35 -95
16 -214 -48 -298 l-36 -46 43 -44 c24 -24 47 -44 52 -44 5 0 28 14 53 30 133
92 300 81 412 -28 73 -72 97 -129 97 -232 0 -73 -4 -93 -28 -142 -33 -67 -90
-121 -162 -154 l-53 -25 17 -62 18 -61 84 -1 c75 0 92 -4 151 -33 163 -80 228
-266 149 -426 -39 -79 -101 -137 -180 -167 -47 -18 -70 -20 -142 -16 l-87 6
-5 -47 c-2 -26 -8 -54 -11 -63 -5 -11 7 -21 49 -38 68 -28 142 -98 175 -166
20 -41 25 -66 25 -135 0 -73 -4 -93 -28 -142 -92 -187 -327 -240 -495 -112
l-34 26 -44 -43 c-24 -24 -44 -47 -44 -52 0 -5 13 -27 29 -51 119 -173 56
-395 -138 -484 -156 -72 -345 3 -423 167 -11 25 -22 47 -23 49 -2 2 -32 -5
-69 -14 -63 -17 -65 -19 -58 -44 16 -59 4 -142 -30 -209 -123 -242 -459 -240
-578 3 -32 65 -43 150 -28 207 8 26 6 27 -57 43 -35 9 -66 16 -68 16 -2 0 -13
-22 -25 -48 -34 -75 -85 -127 -159 -164 -56 -27 -77 -32 -138 -32 -61 0 -82 5
-138 32 -187 92 -243 317 -121 483 l33 46 -48 47 -49 48 -34 -25 c-105 -81
-228 -94 -341 -39 -72 36 -123 87 -159 161 -33 67 -32 196 2 266 32 66 108
139 167 161 26 10 49 18 50 19 1 1 -6 30 -15 65 l-18 63 -90 1 c-71 1 -98 6
-135 24 -73 36 -125 87 -160 158 -27 53 -32 76 -32 132 1 130 73 246 188 302
42 21 65 25 141 25 l92 0 10 45 c6 25 13 52 17 61 4 12 -10 24 -59 48 -185 91
-242 316 -122 482 104 142 298 174 447 73 l52 -35 44 43 c24 23 43 46 43 51 0
5 -13 27 -29 50 -135 197 -27 460 207 506 142 28 288 -50 354 -188 11 -25 23
-48 24 -50 2 -2 33 5 69 14 59 16 65 20 59 39 -13 40 -6 131 14 182 36 95 105
163 202 198 61 22 170 16 231 -13z"/>
<path d="M5338 6096 c-104 -38 -135 -86 -154 -237 -7 -61 -19 -128 -25 -148
-19 -59 -67 -149 -110 -207 l-41 -54 -219 0 -219 0 0 -70 0 -70 254 0 255 0
61 78 c110 141 161 262 181 426 13 118 15 124 49 141 41 21 58 19 91 -14 28
-28 29 -33 29 -119 0 -147 -29 -238 -131 -408 -27 -45 -49 -87 -49 -93 0 -8
106 -11 373 -11 l374 0 21 -23 c31 -33 28 -72 -7 -108 -28 -28 -34 -29 -115
-29 l-86 0 0 -70 0 -70 81 0 c80 0 113 -9 136 -39 19 -24 15 -65 -8 -95 -19
-25 -25 -26 -115 -26 l-94 0 0 -69 0 -69 91 -4 c85 -3 92 -5 115 -31 26 -30
31 -72 11 -98 -23 -30 -56 -39 -136 -39 l-81 0 0 -70 0 -70 45 0 c57 0 95 -32
95 -80 0 -19 -9 -40 -25 -55 l-24 -25 -343 0 -343 0 -105 48 -105 47 -302 3
-303 3 0 -70 0 -70 288 -3 287 -3 90 -45 90 -45 375 -3 c254 -2 387 0 413 8
49 14 106 65 128 115 20 44 25 129 9 171 -10 24 -7 30 30 64 49 45 70 94 70
162 0 53 -27 129 -50 143 -8 5 -7 11 4 24 51 57 61 170 21 246 l-25 47 26 54
c54 110 17 237 -85 291 -43 22 -51 23 -314 23 -253 0 -269 1 -261 18 4 9 21
55 37 102 25 72 30 105 35 217 4 109 2 141 -12 176 -18 48 -64 100 -109 124
-42 21 -125 26 -169 9z"/>
<path d="M4710 4520 l0 -70 70 0 70 0 0 70 0 70 -70 0 -70 0 0 -70z"/>
<path d="M4970 4520 l0 -70 70 0 70 0 0 70 0 70 -70 0 -70 0 0 -70z"/>
<path d="M2921 6355 c-17 -30 -31 -58 -31 -62 0 -9 454 -273 469 -273 15 0 75
111 65 120 -11 9 -461 270 -468 270 -2 0 -18 -25 -35 -55z"/>
<path d="M7448 6277 c-125 -73 -230 -135 -233 -139 -9 -9 53 -118 66 -118 16
0 469 264 469 272 0 13 -61 118 -68 117 -4 0 -109 -60 -234 -132z"/>
<path d="M2550 4960 l0 -70 275 0 275 0 0 70 0 70 -275 0 -275 0 0 -70z"/>
<path d="M7540 4960 l0 -70 275 0 275 0 0 70 0 70 -275 0 -275 0 0 -70z"/>
<path d="M3125 3780 c-121 -71 -224 -131 -230 -133 -9 -4 34 -97 55 -120 7 -8
448 238 474 263 11 10 -51 120 -67 119 -7 0 -111 -58 -232 -129z"/>
<path d="M7240 3854 c-18 -31 -29 -59 -24 -64 20 -19 465 -270 472 -266 11 7
67 114 62 119 -14 13 -461 267 -469 267 -5 0 -24 -25 -41 -56z"/>
<path d="M4102 2998 c-123 -211 -222 -385 -222 -394 0 -14 112 -76 120 -67 4
4 67 111 140 238 l132 230 -23 15 c-12 8 -39 25 -60 38 l-38 22 -49 -82z"/>
<path d="M6433 3046 c-28 -17 -54 -34 -57 -37 -7 -7 261 -474 272 -474 16 0
112 59 112 69 0 12 -254 454 -267 466 -4 4 -31 -7 -60 -24z"/>
<path d="M5250 2470 l0 -280 70 0 70 0 0 280 0 280 -70 0 -70 0 0 -280z"/>
</g>
</svg>
