<svg width="40px" height="40px" viewBox="0 0 38 36" version="1.1" xmlns="http://www.w3.org/2000/svg" xmlns:xlink="http://www.w3.org/1999/xlink">
              <!-- Generator: Sketch 48.2 (47327) - http://www.bohemiancoding.com/sketch -->
              <desc>Created with Sketch.</desc>
              <defs></defs>
              <g id="Page-1" stroke="none" stroke-width="1" fill="none" fill-rule="evenodd">
                  <g id="1--Saudi-Arabia-at-A-Glance" transform="translate(-704.000000, -560.000000)" fill="#3D3D3B" fill-rule="nonzero">
                      <g id="Group-6" transform="translate(704.000000, 560.000000)">
                          <path d="M37.3666667,33.8833333 L37.3666667,9.18333333 L29.7666667,9.18333333 L29.7666667,33.8833333 L27.8666667,33.8833333 L27.8666667,14.25 L20.2666667,14.25 L20.2666667,33.8833333 L18.3666667,33.8833333 L18.3666667,19.3166667 L10.7666667,19.3166667 L10.7666667,33.8833333 L8.86666667,33.8833333 L8.86666667,25.0166667 L1.26666667,25.0166667 L1.26666667,33.8833333 L0.633333333,33.8833333 C0.283733333,33.8833333 0,34.1664333 0,34.5166667 C0,34.8669 0.283733333,35.15 0.633333333,35.15 L1.26666667,35.15 L8.86666667,35.15 L10.7666667,35.15 L18.3666667,35.15 L20.2666667,35.15 L27.8666667,35.15 L29.7666667,35.15 L37.3666667,35.15 C37.7162667,35.15 38,34.8669 38,34.5166667 C38,34.1664333 37.7162667,33.8833333 37.3666667,33.8833333 Z M2.53333333,33.8833333 L2.53333333,26.2833333 L7.6,26.2833333 L7.6,33.8833333 L2.53333333,33.8833333 Z M12.0333333,33.8833333 L12.0333333,20.5833333 L17.1,20.5833333 L17.1,33.8833333 L12.0333333,33.8833333 Z M21.5333333,33.8833333 L21.5333333,15.5166667 L26.6,15.5166667 L26.6,33.8833333 L21.5333333,33.8833333 Z M31.0333333,33.8833333 L31.0333333,10.45 L36.1,10.45 L36.1,33.8833333 L31.0333333,33.8833333 Z" id="Shape"></path>
                          <path d="M5.08566667,16.359 C5.1927,16.359 5.30226667,16.3317667 5.4017,16.2741333 L28.3720667,3.01213333 L26.9344,6.17246667 C26.7893667,6.49103333 26.9299667,6.8666 27.2485333,7.011 C27.3334,7.05026667 27.4227,7.068 27.5107333,7.068 C27.7514,7.068 27.9813,6.92993333 28.0877,6.69686667 L30.3436333,1.73786667 C30.3506,1.72203333 30.3493333,1.70493333 30.3550333,1.68846667 C30.3670667,1.6549 30.3765667,1.6226 30.3829,1.58713333 C30.3860667,1.5694 30.3962,1.55483333 30.3974667,1.53646667 C30.3981,1.52886667 30.3949333,1.52253333 30.3955667,1.51493333 C30.3968333,1.49086667 30.3943,1.4687 30.3930333,1.44463333 C30.3911333,1.4098 30.3854333,1.37686667 30.3778333,1.34203333 C30.3727667,1.31796667 30.3715,1.29326667 30.3632667,1.26983333 C30.3556667,1.24703333 30.3423667,1.22803333 30.3322333,1.20586667 C30.324,1.1913 30.324,1.1742 30.3151333,1.159 C30.3062667,1.1438 30.2910667,1.13493333 30.2809333,1.12036667 C30.2676333,1.10073333 30.2575,1.07983333 30.2416667,1.0621 C30.2252,1.0431 30.2043,1.0298 30.1853,1.0127 C30.1593333,0.989266667 30.1333667,0.967733333 30.1042333,0.948733333 C30.0846,0.936066667 30.0668667,0.922133333 30.0453333,0.911366667 C30.0383667,0.9082 30.0345667,0.901866667 30.0276,0.8987 C30.0117667,0.891733333 29.9946667,0.893 29.9788333,0.8873 C29.944,0.874633333 29.9098,0.865766667 29.8737,0.859433333 C29.8572333,0.856266667 29.8439333,0.846766667 29.8268333,0.8455 L24.4042333,0.319833333 C24.0527333,0.284366667 23.7462,0.5415 23.7126333,0.888566667 C23.6784333,1.2369 23.9336667,1.5466 24.2813667,1.58016667 L27.7368333,1.9152 L4.76836667,15.1772 C4.465,15.352 4.36176667,15.7396 4.53656667,16.0423333 C4.65373333,16.2456333 4.86653333,16.359 5.08566667,16.359 Z" id="Shape"></path>
                      </g>
                  </g>
              </g>
          </svg>