<svg width="40px" height="40px" viewBox="0 0 38 42" version="1.1" xmlns="http://www.w3.org/2000/svg" xmlns:xlink="http://www.w3.org/1999/xlink">
  <desc></desc>
  <defs></defs>
  <g id="Page-1" stroke="none" stroke-width="1" fill="none" fill-rule="evenodd">
    <g id="1--Saudi-Arabia-at-A-Glance" transform="translate(-382.000000, -554.000000)" fill="#3D3D3B" fill-rule="nonzero">
      <g id="Group-4" transform="translate(382.000000, 554.000000)">
        <path d="M18.6541538,28.3084701 C20.1177222,28.3084701 21.3084701,27.1178034 21.3084701,25.6543162 C21.3084701,24.1907479 20.1178034,23 18.6541538,23 C17.1906667,23 16,24.1906667 16,25.6543162 C16.0000812,27.1178034 17.1907479,28.3084701 18.6541538,28.3084701 Z M18.6541538,24.2180299 C19.4461453,24.2180299 20.0904402,24.8623248 20.0904402,25.6543162 C20.0904402,26.4462265 19.4461453,27.0904402 18.6541538,27.0904402 C17.8622436,27.0904402 17.2180299,26.4461453 17.2180299,25.6543162 C17.2180299,24.862406 17.8622436,24.2180299 18.6541538,24.2180299 Z" id="Shape"></path>
        <path d="M30.3985812,8.79748718 C32.8240855,8.79748718 34.797406,6.82424786 34.797406,4.39882479 C34.7974872,1.97323932 32.8240855,0 30.3985812,0 C27.9731581,0 26,1.97323932 26,4.39874359 C26,6.82416667 27.9732393,8.79748718 30.3985812,8.79748718 Z M30.3985812,1.21802991 C32.1525085,1.21802991 33.5793761,2.64489744 33.5793761,4.39874359 C33.5793761,6.15258974 32.1525085,7.57937607 30.3985812,7.57937607 C28.6448162,7.57937607 27.2180299,6.15258974 27.2180299,4.39874359 C27.2180299,2.64489744 28.6448162,1.21802991 30.3985812,1.21802991 Z" id="Shape"></path>
        <path d="M36.6432179,15.2614744 C36.3068205,15.2614744 36.0342436,15.5340513 36.0342436,15.8704487 L36.0342436,24.2036538 C36.0342436,24.4205299 35.8578034,24.5969701 35.6410085,24.5969701 L34.1551111,24.5969701 L34.1551111,13.8471923 C34.1551111,13.5107949 33.8825342,13.2382179 33.5461368,13.2382179 C33.2097393,13.2382179 32.9371624,13.5107949 32.9371624,13.8471923 L32.9371624,39.6551197 C32.9371624,39.8719145 32.7607222,40.0483547 32.5439274,40.0483547 L31.1285897,40.0483547 C30.9117137,40.0483547 30.7352735,39.8719145 30.7352735,39.6551197 L30.7352735,29.9667436 C30.7352735,29.6304274 30.4626966,29.3577692 30.1262991,29.3577692 C29.7899017,29.3577692 29.5173248,29.6304274 29.5173248,29.9667436 L29.5173248,39.6551197 C29.5173248,39.8719145 29.3408846,40.0483547 29.1240897,40.0483547 L27.7087521,40.0483547 C27.4919573,40.0483547 27.3155171,39.8719145 27.3155171,39.6551197 L27.3155171,13.8471923 C27.3155171,13.5107949 27.0429402,13.2382179 26.7065427,13.2382179 C26.3701453,13.2382179 26.0975684,13.5107949 26.0975684,13.8471923 L26.0975684,24.5970513 L24.6116709,24.5970513 C24.3949573,24.5970513 24.2185171,24.4206923 24.2184359,24.2042222 L24.2184359,13.8453248 C24.2184359,11.8452094 25.8456154,10.2180299 27.8457308,10.2180299 L32.4071923,10.2180299 C34.4073077,10.2180299 36.0344872,11.8452094 36.0344872,13.8453248 C36.0344872,14.1817222 36.3070641,14.4542991 36.6434615,14.4542991 C36.979859,14.4542991 37.2524359,14.1817222 37.2524359,13.8453248 C37.2524359,11.1736325 35.0788034,9 32.4071111,9 L27.8453248,9 C25.1736325,9 23,11.1736325 23,13.8453248 L23,24.2044658 C23.000406,25.0926752 23.7232179,25.8150812 24.611265,25.8150812 L26.0971624,25.8150812 L26.0971624,39.6551197 C26.0971624,40.5435726 26.8199744,41.2663846 27.7084274,41.2663846 L29.123765,41.2663846 C29.502547,41.2663846 29.8506368,41.1341154 30.1260556,40.9144786 C30.4014744,41.1341154 30.7495641,41.2663846 31.1284274,41.2663846 L32.543765,41.2663846 C33.4322179,41.2663846 34.1550299,40.5436538 34.1550299,39.6551197 L34.1550299,25.815 L35.6409274,25.815 C36.5293803,25.815 37.2521923,25.0921068 37.2521923,24.2036538 L37.2521923,15.8704487 C37.2522735,15.5340513 36.9796154,15.2614744 36.6432179,15.2614744 Z" id="Shape"></path>
        <path d="M6.3985812,12.797406 C8.82408547,12.797406 10.797406,10.8241667 10.797406,8.39874359 C10.797406,5.97323932 8.82408547,4 6.3985812,4 C3.97315812,4 2,5.97323932 2,8.39874359 C2.0000812,10.8241667 3.97315812,12.797406 6.3985812,12.797406 Z M6.3985812,5.21802991 C8.15250855,5.21802991 9.57937607,6.64489744 9.57937607,8.39874359 C9.57937607,10.1525897 8.15250855,11.5793761 6.3985812,11.5793761 C4.64481624,11.5793761 3.21802991,10.1525897 3.21802991,8.39874359 C3.21811111,6.64489744 4.64489744,5.21802991 6.3985812,5.21802991 Z" id="Shape"></path>
        <path d="M8.33417949,13 L4.32883333,13 C1.94189744,13 0,14.9418974 0,17.3288333 L0,26.4248803 C0.000243589744,27.2456154 0.668166667,27.9132949 1.4890641,27.9132949 L1.50749573,27.9132949 L1.08592308,31.7501581 C1.06708547,31.9222137 1.12221795,32.094188 1.23767949,32.223047 C1.35322222,32.3519872 1.51813248,32.4256325 1.69124359,32.4256325 L2.71959829,32.4256325 L2.71959829,39.9917735 C2.71959829,40.8128333 3.38768376,41.4808376 4.20866239,41.4808376 L5.45145726,41.4808376 C5.78087179,41.4808376 6.08462821,41.3720342 6.33154701,41.190235 C6.57846581,41.3720342 6.88214103,41.4808376 7.21171795,41.4808376 L8.45451282,41.4808376 C9.27557265,41.4808376 9.94357692,40.8128333 9.94357692,39.9917735 L9.94357692,36.6290171 C9.94357692,36.2926197 9.671,36.0200427 9.33460256,36.0200427 C8.99820513,36.0200427 8.72562821,36.2926197 8.72562821,36.6290171 L8.72562821,39.9917735 C8.72562821,40.1412564 8.60407692,40.2628077 8.45459402,40.2628077 L7.21179915,40.2628077 C7.06231624,40.2628077 6.94068376,40.1412564 6.94068376,39.9917735 L6.94068376,33.4870342 C6.94068376,33.1506368 6.66810684,32.8780598 6.3317094,32.8780598 C5.99531197,32.8780598 5.72273504,33.1506368 5.72273504,33.4870342 L5.72273504,39.9917735 C5.72273504,40.1412564 5.60118376,40.2628077 5.45170085,40.2628077 L4.2085812,40.2628077 C4.05909829,40.2628077 3.93754701,40.1412564 3.93754701,39.9917735 L3.93754701,32.4256325 L8.72538462,32.4256325 L8.72538462,34.6796496 C8.72538462,35.0159658 8.99796154,35.2886239 9.33435897,35.2886239 C9.67075641,35.2886239 9.94333333,35.0159658 9.94333333,34.6796496 L9.94333333,32.4256325 L10.9716068,32.4256325 C11.1447179,32.4256325 11.3096282,32.3519872 11.4250897,32.223047 C11.5406325,32.094188 11.595765,31.9222137 11.5769274,31.7501581 L11.1553547,27.9132949 L11.1737863,27.9132949 C11.9948462,27.9132949 12.6628504,27.245453 12.6628504,26.424312 L12.6628504,17.3287521 C12.6628504,14.9418974 10.720953,13 8.33417949,13 Z M11.4449017,26.4242308 C11.4448205,26.5736325 11.3232692,26.6951838 11.1737863,26.6951838 L11.0215427,26.6951838 L9.90663248,16.5491838 C9.86985043,16.2149786 9.5689359,15.9746368 9.23473077,16.0103632 C8.90044444,16.0470641 8.6592094,16.3478974 8.69591026,16.6821838 L10.2920726,31.2075214 L9.71890598,31.2075214 L9.33444017,31.2075214 L3.32857265,31.2075214 L2.82840171,31.2075214 L2.37085897,31.2075214 L3.96702137,16.6821838 C4.00372222,16.3478974 3.76248718,16.0470641 3.42820085,16.0103632 C3.09326496,15.9745556 2.793,16.2149786 2.75629915,16.5491838 L1.64138889,26.6951838 L1.4891453,26.6951838 C1.33974359,26.6951838 1.21819231,26.5737137 1.21811111,26.4245556 L1.21811111,17.3287521 C1.21811111,15.6134744 2.61363675,14.2179487 4.32891453,14.2179487 L8.33417949,14.2179487 C10.0493761,14.2179487 11.4449017,15.6134744 11.4449017,17.3287521 L11.4449017,26.4242308 Z" id="Shape"></path>
        <path d="M23.8537946,26.0007327 C23.4180126,26.0144549 23.0134912,26.197066 22.715175,26.5148694 L20.4439442,28.9335532 L18.0928972,28.9335532 L15.8215852,26.5147882 C15.2053844,25.8588823 14.1704528,25.8263224 13.5140596,26.4423609 C12.8581536,27.0584806 12.8255126,28.0934934 13.4414699,28.7497241 L16.0747562,31.5539293 L16.0747562,39.6125276 C16.0747562,40.4901002 16.7887177,41.2039806 17.6662904,41.2039806 L20.8703887,41.2039806 C21.7479613,41.2039806 22.4617605,40.4901002 22.4617605,39.6125276 L22.4617605,36.2705575 C22.4617605,35.93416 22.1891835,35.6615831 21.8527861,35.6615831 C21.5163887,35.6615831 21.2438117,35.93416 21.2438117,36.2705575 L21.2438117,39.6125276 C21.2438117,39.8184421 21.0763032,39.9859506 20.8704699,39.9859506 L19.8486921,39.9859506 L19.8486921,34.9064549 C19.8486921,34.5700575 19.5761152,34.2974806 19.2397177,34.2974806 C18.9034015,34.2974806 18.6307434,34.5700575 18.6307434,34.9064549 L18.6307434,39.9859506 L17.6663716,39.9859506 C17.460457,39.9859506 17.2928673,39.8184421 17.2928673,39.6125276 L17.2928673,31.3127754 C17.2928673,31.1579335 17.2338374,31.0088566 17.1278758,30.8959122 L14.3296793,27.9160788 C14.1732946,27.7494635 14.1815767,27.4867113 14.3480297,27.3303267 C14.5146451,27.1739421 14.7773972,27.1823053 14.9337818,27.3487583 L17.3853502,29.9595532 C17.500487,30.08216 17.6610938,30.1516643 17.8293331,30.1516643 L20.7075083,30.1516643 C20.8756664,30.1516643 21.0363545,30.0820788 21.1514912,29.9595532 L23.6030596,27.3487583 C23.7595254,27.1821429 24.0222776,27.1740233 24.1886493,27.3302455 C24.3552647,27.4867113 24.3634656,27.7494635 24.2071622,27.9159976 L21.4088032,30.895831 C21.3026793,31.0087754 21.2437305,31.1578524 21.2437305,31.3126942 L21.2437305,34.2403994 C21.2437305,34.5767156 21.5163075,34.8493737 21.8527049,34.8493737 C22.1891023,34.8493737 22.4616793,34.5767156 22.4616793,34.2403994 L22.4616793,31.5538481 L25.0950468,28.7497241 C25.7110852,28.0935746 25.6784442,27.0585618 25.0223758,26.4422797 C24.7047348,26.1438823 24.2900639,25.9879036 23.8537946,26.0007327 Z" id="Shape"></path>
      </g>
    </g>
  </g>
</svg>