<svg width="40px" height="40px" viewBox="0 0 38 39" version="1.1" xmlns="http://www.w3.org/2000/svg" xmlns:xlink="http://www.w3.org/1999/xlink">
                <!-- Generator: Sketch 48.2 (47327) - http://www.bohemiancoding.com/sketch -->
                <desc>Created with Sketch.</desc>
                <defs></defs>
                <g id="Page-1" stroke="none" stroke-width="1" fill="none" fill-rule="evenodd">
                    <g id="1--Saudi-Arabia-at-A-Glance" transform="translate(-541.000000, -552.000000)" fill="#3D3D3B" fill-rule="nonzero">
                        <g id="Group-5" transform="translate(541.000000, 552.000000)">
                        <path d="M17.8744836,2.42242213 C13.1019795,2.42242213 8.61509836,4.28091803 5.24041803,7.65552049 C1.86589344,11.0300451 0.00739754098,15.5167705 0.00739754098,20.2891967 C0.00739754098,25.061623 1.86589344,29.5482705 5.24041803,32.9227951 C8.61494262,36.2973197 13.1018238,38.1557377 17.8744836,38.1557377 C18.3045533,38.1557377 18.6531721,37.8071189 18.6531721,37.3770492 L18.6531721,3.20111066 C18.6531721,2.77104098 18.3046311,2.42242213 17.8744836,2.42242213 Z M17.0957951,36.5799836 C8.46317623,36.171873 1.56477459,29.0207869 1.56477459,20.2891967 C1.56477459,11.5574508 8.46317623,4.40636475 17.0957951,3.9982541 L17.0957951,36.5799836 Z" id="Shape"></path>
                        <path d="M22.2327254,16.3679549 C22.3674385,16.4658361 22.5279262,16.5166844 22.6905164,16.5166844 C22.7711107,16.5166844 22.8523279,16.5041475 22.9309754,16.4786066 L37.1584713,11.8557664 C37.3549344,11.7919139 37.5179918,11.6526844 37.611668,11.4686025 C37.7055,11.2845984 37.7222418,11.0708484 37.6583893,10.8744631 C35.511,4.26845902 29.6357172,0 22.6903607,0 C22.2603689,0 21.9116721,0.348618852 21.9116721,0.778688525 L21.9116721,15.737918 C21.9116721,15.9872541 22.0310451,16.2214057 22.2327254,16.3679549 Z M23.4690492,1.57738934 C29.127,1.86893033 33.8910164,5.32996721 35.9175533,10.6213893 L23.4690492,14.666209 L23.4690492,1.57738934 Z" id="Shape"></path>
                        <path d="M37.198418,16.7942869 C37.0654959,16.3853975 36.6262377,16.1616025 36.2172705,16.2945246 L21.7017377,21.011041 C21.3809959,21.1153074 21.1636639,21.4143238 21.1636639,21.7516516 L21.1636639,37.0144139 C21.1636639,37.4444836 21.5123607,37.7931025 21.9423525,37.7931025 C29.8535164,37.7931025 34.2909508,32.8515451 36.2362705,29.033791 C38.1819795,25.2157254 38.5235902,20.8690082 37.198418,16.7942869 Z M34.8487254,28.3266639 C33.0922377,31.7738402 29.1658566,35.7058279 22.7211189,36.2178934 L22.7211189,22.3173689 L35.9388893,18.0225902 C36.8656844,21.4814467 36.4870082,25.1117705 34.8487254,28.3266639 Z" id="Shape"></path>
                        </g>
                    </g>
                </g>
            </svg>