<svg width="41px" height="40px" viewBox="0 0 41 33" version="1.1" xmlns="http://www.w3.org/2000/svg" xmlns:xlink="http://www.w3.org/1999/xlink">
  <!-- Generator: Sketch 48.2 (47327) - http://www.bohemiancoding.com/sketch -->
  <desc>Created with Sketch.</desc>
  <defs></defs>
  <g id="Page-1" stroke="none" stroke-width="1" fill="none" fill-rule="evenodd">
    <g id="1--Saudi-Arabia-at-A-Glance" transform="translate(-1103.000000, -842.000000)" fill="#343A4A" fill-rule="nonzero">
      <g id="Group-17" transform="translate(1103.000000, 842.000000)">
        <circle id="Oval" cx="24.9451613" cy="2.35967742" r="1"></circle>
        <circle id="Oval" cx="24.9451613" cy="6.40483871" r="1"></circle>
        <circle id="Oval" cx="26.9677419" cy="4.38225806" r="1"></circle>
        <circle id="Oval" cx="26.9677419" cy="8.42741935" r="1"></circle>
        <circle id="Oval" cx="22.9225806" cy="4.38225806" r="1"></circle>
        <circle id="Oval" cx="22.9225806" cy="8.42741935" r="1"></circle>
        <circle id="Oval" cx="24.9451613" cy="10.45" r="1"></circle>
        <circle id="Oval" cx="24.9451613" cy="14.4951613" r="1"></circle>
        <circle id="Oval" cx="26.9677419" cy="12.4725806" r="1"></circle>
        <circle id="Oval" cx="26.9677419" cy="16.5177419" r="1"></circle>
        <circle id="Oval" cx="22.9225806" cy="12.4725806" r="1"></circle>
        <circle id="Oval" cx="22.9225806" cy="16.5177419" r="1"></circle>
        <circle id="Oval" cx="24.9451613" cy="18.5403226" r="1"></circle>
        <circle id="Oval" cx="24.9451613" cy="22.5854839" r="1"></circle>
        <circle id="Oval" cx="26.9677419" cy="20.5629032" r="1"></circle>
        <circle id="Oval" cx="26.9677419" cy="24.6080645" r="1"></circle>
        <circle id="Oval" cx="22.9225806" cy="20.5629032" r="1"></circle>
        <circle id="Oval" cx="22.9225806" cy="24.6080645" r="1"></circle>
        <circle id="Oval" cx="24.9451613" cy="26.6306452" r="1"></circle>
        <circle id="Oval" cx="26.9677419" cy="28.6532258" r="1"></circle>
        <circle id="Oval" cx="22.9225806" cy="28.6532258" r="1"></circle>
        <path d="M39.7774194,30.6758065 L39.1032258,30.6758065 L39.1032258,5.73064516 L31.0129032,5.73064516 L31.0129032,30.6758065 L28.9903226,30.6758065 L28.9903226,0.337096774 L20.9,0.337096774 L20.9,30.6758065 L18.8774194,30.6758065 L18.8774194,21.2370968 L10.7870968,21.2370968 L10.7870968,30.6758065 L8.76451613,30.6758065 L8.76451613,15.1693548 L0.674193548,15.1693548 L0.674193548,30.6758065 C0.30203871,30.6758065 0,30.977171 0,31.35 C0,31.722829 0.30203871,32.0241935 0.674193548,32.0241935 L8.76451613,32.0241935 L10.7870968,32.0241935 L18.8774194,32.0241935 L20.9,32.0241935 L28.9903226,32.0241935 L31.0129032,32.0241935 L39.1032258,32.0241935 L39.7774194,32.0241935 C40.1495742,32.0241935 40.4516129,31.722829 40.4516129,31.35 C40.4516129,30.977171 40.1495742,30.6758065 39.7774194,30.6758065 Z M2.02258065,30.6758065 L2.02258065,16.5177419 L7.41612903,16.5177419 L7.41612903,30.6758065 L2.02258065,30.6758065 Z M12.1354839,30.6758065 L12.1354839,22.5854839 L17.5290323,22.5854839 L17.5290323,30.6758065 L12.1354839,30.6758065 Z M25.6193548,30.6758065 C25.6193548,30.3036516 25.3173161,30.0016129 24.9451613,30.0016129 C24.5730065,30.0016129 24.2709677,30.3036516 24.2709677,30.6758065 L22.2483871,30.6758065 L22.2483871,28.6532258 L22.2483871,24.6080645 L22.2483871,20.5629032 L22.2483871,16.5177419 L22.2483871,12.4725806 L22.2483871,8.42741935 L22.2483871,4.38225806 L22.2483871,1.68548387 L24.9451613,1.68548387 L27.6419355,1.68548387 L27.6419355,4.38225806 L27.6419355,8.42741935 L27.6419355,12.4725806 L27.6419355,16.5177419 L27.6419355,20.5629032 L27.6419355,24.6080645 L27.6419355,28.6532258 L27.6419355,30.6758065 L25.6193548,30.6758065 Z M32.3612903,30.6758065 L32.3612903,7.07903226 L37.7548387,7.07903226 L37.7548387,30.6758065 L32.3612903,30.6758065 Z" id="Shape"></path>
      </g>
    </g>
  </g>
</svg>