<?xml version="1.0" standalone="no"?>
<!DOCTYPE svg PUBLIC "-//W3C//DTD SVG 20010904//EN"
 "http://www.w3.org/TR/2001/REC-SVG-20010904/DTD/svg10.dtd">
<svg version="1.0" xmlns="http://www.w3.org/2000/svg"
 width="1042.000000pt" height="1042.000000pt" viewBox="0 0 1042.000000 1042.000000"
 preserveAspectRatio="xMidYMid meet">
<metadata>
Created by potrace 1.15, written by Peter Selinger 2001-2017
</metadata>
<g transform="translate(0.000000,1042.000000) scale(0.100000,-0.100000)"
fill="#000000" stroke="none">
<path d="M2610 7729 c-138 -23 -264 -118 -328 -248 l-37 -75 0 -1825 0 -1826
31 -65 c57 -119 153 -203 275 -241 58 -18 109 -19 1120 -19 l1059 0 0 -264 0
-265 -302 -3 -303 -3 -68 -32 c-128 -61 -222 -180 -247 -312 -5 -29 -10 -123
-10 -207 l0 -154 1425 0 1425 0 0 153 c0 172 -15 262 -56 337 -33 60 -114 139
-175 170 -87 45 -127 50 -436 50 l-293 0 0 265 0 265 1059 0 c1190 0 1116 -4
1235 75 71 47 116 101 158 191 l33 69 3 1785 c2 1193 -1 1801 -8 1833 -37 175
-190 318 -370 347 -83 13 -5111 12 -5190 -1z m5203 -195 c63 -21 129 -82 158
-146 l24 -53 0 -1755 0 -1755 -28 -57 c-30 -61 -64 -95 -131 -131 l-41 -22
-2565 -3 c-2906 -3 -2633 -11 -2725 82 -93 92 -85 -77 -85 1892 0 1706 0 1734
20 1786 28 76 102 145 179 169 14 4 1178 8 2587 8 2305 1 2565 -1 2607 -15z
m-2303 -4369 l0 -265 -300 0 -300 0 0 265 0 265 300 0 300 0 0 -265z m805
-474 c51 -23 118 -98 133 -149 7 -22 12 -67 12 -101 l0 -61 -1236 0 -1237 0 5
83 c3 49 11 95 21 113 24 45 75 94 122 115 38 18 94 19 1090 19 997 0 1052 -1
1090 -19z"/>
<path d="M6754 7031 c-155 -70 -166 -311 -17 -398 157 -92 346 13 346 192 0
91 -45 165 -125 206 -49 25 -148 25 -204 0z"/>
<path d="M4284 6830 c-31 -12 -54 -45 -236 -345 -377 -618 -968 -1629 -1245
-2128 -107 -195 -115 -227 -62 -271 l31 -26 2428 0 2428 0 32 27 c29 24 31 31
28 72 -3 43 -52 112 -757 1076 -414 567 -762 1038 -773 1048 -27 22 -79 22
-109 -2 -13 -10 -186 -246 -384 -524 -198 -278 -362 -506 -365 -506 -3 -1
-209 351 -459 780 -406 698 -458 783 -488 795 -37 16 -40 16 -69 4z m146 -468
c45 -79 80 -145 77 -148 -3 -3 -37 -10 -76 -14 -38 -5 -105 -18 -149 -29 -43
-11 -111 -24 -152 -27 l-73 -7 24 39 c13 22 71 117 129 211 l104 171 16 -26
c9 -15 54 -91 100 -170z m1843 -548 c81 -111 147 -204 147 -207 0 -3 -48 9
-107 26 -102 29 -118 31 -294 31 l-187 1 21 30 c51 72 202 283 224 313 21 28
28 31 38 20 6 -7 78 -104 158 -214z m-1633 179 c27 -34 1013 -1734 1008 -1738
-3 -3 -608 -4 -1345 -3 l-1340 3 109 195 c145 256 413 719 673 1160 l209 355
140 0 c112 0 160 5 231 22 50 12 99 24 110 27 11 3 58 4 104 2 70 -2 87 -6
101 -23z m1645 -548 c110 -29 154 -36 209 -33 l70 3 413 -565 c228 -311 418
-573 424 -582 9 -17 -30 -18 -758 -18 l-768 1 -234 403 c-129 222 -235 406
-235 409 -1 3 57 86 128 186 114 159 134 182 165 191 223 60 369 61 586 5z"/>
</g>
</svg>
