<?xml version="1.0" standalone="no"?>
<!DOCTYPE svg PUBLIC "-//W3C//DTD SVG 20010904//EN"
 "http://www.w3.org/TR/2001/REC-SVG-20010904/DTD/svg10.dtd">
<svg version="1.0" xmlns="http://www.w3.org/2000/svg"
 width="1042.000000pt" height="1042.000000pt" viewBox="0 0 1042.000000 1042.000000"
 preserveAspectRatio="xMidYMid meet">
<metadata>
Created by potrace 1.15, written by Peter Selinger 2001-2017
</metadata>
<g transform="translate(0.000000,1042.000000) scale(0.100000,-0.100000)"
fill="#000000" stroke="none">
<path d="M2530 5130 l0 -2600 1955 0 1955 0 0 243 0 243 -68 67 c-37 37 -71
67 -75 67 -4 0 -7 -106 -7 -235 l0 -235 -1805 0 -1805 0 0 2450 0 2450 1805 0
1805 0 0 -1096 0 -1096 75 -74 75 -74 0 1245 0 1245 -1955 0 -1955 0 0 -2600z"/>
<path d="M5570 6875 c-156 -34 -286 -66 -287 -71 -2 -5 -59 -115 -128 -244
l-124 -235 -288 -5 -288 -5 -223 -168 -222 -168 -233 26 c-127 14 -246 27
-263 28 -29 2 -46 -15 -243 -243 -117 -135 -215 -251 -218 -258 -6 -14 82
-101 103 -102 5 0 97 101 203 225 175 202 196 224 220 219 14 -2 114 -13 221
-24 107 -11 209 -22 226 -25 28 -5 54 13 262 170 l231 175 303 0 303 0 134
255 133 254 67 15 c36 8 156 34 266 57 110 24 201 43 201 43 1 1 -5 34 -14 74
-13 62 -18 72 -36 71 -12 0 -149 -29 -306 -64z"/>
<path d="M5370 5496 c-159 -34 -302 -101 -429 -203 -223 -178 -354 -435 -368
-724 -24 -488 276 -901 747 -1027 83 -22 115 -25 250 -25 134 0 168 4 251 26
118 31 241 89 334 156 l70 51 76 -76 77 -76 -21 -47 c-27 -61 -29 -167 -3
-236 16 -44 81 -113 529 -562 572 -573 551 -556 687 -556 98 0 162 27 228 97
62 65 87 129 87 221 0 137 19 113 -539 673 -551 553 -548 551 -674 559 -51 4
-81 0 -127 -15 l-60 -21 -75 75 c-56 55 -72 77 -65 87 92 121 159 257 197 395
29 107 31 351 4 467 -82 358 -362 651 -711 746 -102 27 -364 36 -465 15z m403
-160 c295 -75 523 -295 613 -591 24 -78 27 -108 28 -225 0 -157 -14 -228 -75
-358 -110 -239 -308 -405 -564 -473 -62 -17 -109 -22 -205 -22 -96 0 -143 5
-205 22 -325 87 -568 346 -629 670 -84 446 209 887 656 985 107 24 270 20 381
-8z m942 -1755 c58 -27 989 -962 1010 -1015 30 -72 -8 -161 -86 -202 -36 -18
-102 -18 -137 0 -15 8 -246 234 -514 503 -520 522 -516 517 -498 597 11 50 44
91 92 115 53 26 81 26 133 2z"/>
<path d="M5770 4565 l0 -435 80 0 80 0 0 435 0 435 -80 0 -80 0 0 -435z"/>
<path d="M5460 4455 l0 -325 75 0 75 0 0 325 0 325 -75 0 -75 0 0 -325z"/>
<path d="M5150 4350 l0 -220 75 0 75 0 0 220 0 220 -75 0 -75 0 0 -220z"/>
<path d="M3050 4295 l0 -75 615 0 615 0 0 75 0 75 -615 0 -615 0 0 -75z"/>
<path d="M3050 3915 l0 -75 450 0 450 0 0 75 0 75 -450 0 -450 0 0 -75z"/>
<path d="M3050 3545 l0 -75 730 0 730 0 0 75 0 75 -730 0 -730 0 0 -75z"/>
<path d="M3050 3165 l0 -75 570 0 570 0 0 75 0 75 -570 0 -570 0 0 -75z"/>
</g>
</svg>
