<?xml version="1.0" standalone="no"?>
<!DOCTYPE svg PUBLIC "-//W3C//DTD SVG 20010904//EN"
 "http://www.w3.org/TR/2001/REC-SVG-20010904/DTD/svg10.dtd">
<svg version="1.0" xmlns="http://www.w3.org/2000/svg"
 width="1042.000000pt" height="1042.000000pt" viewBox="0 0 1042.000000 1042.000000"
 preserveAspectRatio="xMidYMid meet">
<metadata>
Created by potrace 1.15, written by Peter Selinger 2001-2017
</metadata>
<g transform="translate(0.000000,1042.000000) scale(0.100000,-0.100000)"
fill="#000000" stroke="none">
<path d="M6156 7553 l-216 -188 0 -145 c0 -157 4 -170 50 -170 45 0 50 15 50
144 l1 121 174 150 c96 83 177 149 181 149 3 -1 82 -69 174 -150 l169 -149 0
-602 1 -603 -130 0 -130 0 0 314 c0 273 -2 317 -16 330 -12 13 -41 16 -145 16
l-129 0 0 78 c0 47 -5 83 -12 90 -17 17 -349 17 -366 0 -8 -8 -12 -65 -12
-190 l0 -178 -95 0 -95 0 0 50 c0 38 -4 52 -19 60 -29 15 -344 13 -359 -2 -8
-8 -12 -59 -12 -165 l0 -153 -134 0 c-96 0 -137 -4 -144 -13 -6 -7 -12 -34
-14 -61 l-3 -49 -157 142 -156 141 -771 0 -771 0 0 -200 0 -200 -195 0 -195 0
0 -1580 0 -1580 1470 0 1469 0 14 -27 c14 -25 11 -31 -57 -130 l-70 -103 147
-147 147 -147 102 70 103 71 80 -38 c44 -21 101 -44 127 -50 52 -14 52 -13 68
-109 6 -36 16 -86 22 -112 l10 -48 204 0 c203 0 204 0 209 22 3 13 14 70 25
127 11 57 21 105 22 106 2 1 23 7 48 14 25 7 81 30 126 50 l80 38 100 -68 c54
-38 103 -69 109 -69 14 0 285 273 285 287 0 6 -29 54 -65 106 -36 52 -65 100
-65 106 0 7 13 37 29 69 15 31 36 82 46 112 10 30 22 60 26 66 5 6 40 16 79
23 38 6 92 16 120 22 l50 11 -2 206 -3 206 -117 21 c-65 12 -121 24 -124 28
-3 3 -16 34 -28 69 -13 35 -36 91 -53 123 l-30 60 68 99 c38 55 69 104 69 110
0 14 -272 286 -286 286 -6 0 -56 -31 -111 -69 l-99 -68 -38 19 c-26 13 -36 24
-32 36 25 89 216 821 216 830 0 9 -28 12 -100 12 l-100 0 0 465 0 465 -65 0
-65 0 0 624 0 624 -52 50 c-185 174 -372 332 -393 332 -16 0 -93 -61 -239
-187z m-66 -1073 l0 -370 -95 0 -95 0 0 370 0 370 95 0 95 0 0 -370z m290 -90
l0 -280 -95 0 -95 0 0 280 0 280 95 0 95 0 0 -280z m-870 -40 l0 -240 -95 0
-95 0 0 240 0 240 95 0 95 0 0 -240z m290 -60 l0 -180 -95 0 -95 0 0 180 0
180 95 0 95 0 0 -180z m-1085 -37 c83 -75 183 -165 224 -200 l74 -63 919 0
918 0 0 -405 0 -405 -135 0 -135 0 0 270 0 270 -957 0 -958 1 -220 199 -220
199 -512 1 -513 0 0 135 0 135 683 0 682 -1 150 -136z m505 -68 l0 -75 -77 0
c-74 0 -80 2 -114 33 -19 17 -27 26 -17 18 17 -13 18 -11 18 42 l0 57 95 0 95
0 0 -75z m-832 -390 l227 -204 918 -1 917 0 0 -205 0 -205 -1602 -2 -1601 -3
-218 -820 c-120 -451 -220 -827 -222 -835 -3 -8 -5 546 -6 1233 l-1 1247 681
0 680 0 227 -205z m2618 -762 c-3 -10 -42 -155 -86 -323 -45 -168 -83 -312
-86 -321 -5 -18 -49 -15 -61 5 -4 6 -17 63 -28 126 l-21 115 -206 3 c-190 2
-207 1 -211 -15 -3 -10 -13 -63 -23 -118 -9 -55 -21 -105 -26 -111 -4 -7 -22
-14 -39 -18 -17 -3 -69 -24 -116 -46 -47 -22 -90 -40 -96 -40 -5 0 -51 29
-103 65 -52 36 -100 65 -106 65 -15 0 -288 -270 -288 -285 0 -6 31 -55 69
-110 l69 -100 -33 -65 c-18 -36 -41 -91 -51 -124 -21 -68 -24 -69 -149 -91
-49 -9 -98 -18 -107 -21 -16 -5 -18 -24 -18 -209 l0 -203 48 -10 c26 -6 81
-16 122 -23 41 -6 78 -15 81 -18 4 -3 10 -21 14 -38 l7 -33 -1366 0 c-751 0
-1366 3 -1366 8 0 4 116 445 257 979 l258 973 1833 0 c1741 0 1833 -1 1828
-17z m-371 -620 c22 -127 24 -133 42 -133 36 0 204 -65 276 -106 l77 -45 93
65 93 65 71 -71 72 -71 -65 -92 -64 -92 59 -114 c32 -63 67 -147 77 -187 11
-44 24 -74 34 -76 8 -3 59 -12 113 -21 l97 -17 0 -102 0 -102 -112 -20 -112
-19 -27 -90 c-32 -109 -51 -153 -95 -222 -19 -29 -34 -55 -34 -57 0 -2 29 -46
64 -98 l65 -93 -71 -72 -71 -71 -95 66 c-94 65 -94 65 -121 48 -58 -38 -210
-106 -273 -121 -37 -10 -69 -22 -71 -29 -2 -6 -12 -57 -22 -113 l-18 -103
-102 0 -101 0 -19 111 c-16 93 -23 113 -40 119 -11 4 -54 18 -95 30 -70 21
-170 67 -231 106 -26 17 -27 16 -121 -49 l-94 -66 -72 72 -71 72 66 94 65 94
-22 36 c-45 76 -94 186 -114 260 l-22 76 -112 20 -112 19 0 102 0 102 98 17
c53 9 104 19 113 21 11 3 23 29 35 77 10 40 44 123 76 186 l57 114 -63 92 -64
92 71 71 72 71 93 -65 c52 -35 96 -64 97 -64 2 0 24 14 49 30 61 42 125 69
231 100 l90 26 19 112 19 112 102 0 103 0 17 -97z"/>
<path d="M3280 3415 l0 -65 65 0 65 0 0 65 0 65 -65 0 -65 0 0 -65z"/>
<path d="M3590 3415 l0 -65 65 0 65 0 0 65 0 65 -65 0 -65 0 0 -65z"/>
<path d="M3900 3415 l0 -65 60 0 60 0 0 65 0 65 -60 0 -60 0 0 -65z"/>
<path d="M4210 3415 l0 -65 60 0 60 0 0 65 0 65 -60 0 -60 0 0 -65z"/>
<path d="M6350 4034 c-142 -37 -288 -143 -369 -268 -64 -97 -93 -191 -99 -313
-6 -133 8 -205 65 -322 104 -218 321 -351 568 -351 107 0 194 19 277 60 156
78 261 193 324 355 36 92 45 275 20 375 -56 225 -239 408 -461 465 -75 19
-251 19 -325 -1z m279 -119 c240 -57 417 -292 397 -530 -20 -248 -195 -436
-443 -475 -95 -16 -188 0 -288 49 -319 157 -389 566 -139 817 126 127 303 179
473 139z"/>
</g>
</svg>
