<?xml version="1.0" encoding="UTF-8"?>
<svg width="99px" height="40px" viewBox="0 0 99 40" version="1.1" xmlns="http://www.w3.org/2000/svg" xmlns:xlink="http://www.w3.org/1999/xlink">
    <!-- Generator: Sketch 48.2 (47327) - http://www.bohemiancoding.com/sketch -->
    <title>Group 58</title>
    <desc>Created with Sketch.</desc>
    <defs></defs>
    <g id="Page-1" stroke="none" stroke-width="1" fill="none" fill-rule="evenodd">
        <g id="Group-58">
            <polygon id="Fill-1" fill="#FFFFFF" points="0 20.003352 2.25027933 20.003352 2.25027933 5.16804469 0 5.16804469"></polygon>
            <polygon id="Fill-2" fill="#FFFFFF" points="15.4988827 20.0035307 8.35027933 9.56464804 8.35027933 20.0035307 6.1 20.0035307 6.1 5.16822346 8.1627933 5.16822346 15.3113966 15.586324 15.3113966 5.16822346 17.561676 5.16822346 17.561676 20.0035307"></polygon>
            <polygon id="Fill-3" fill="#FFFFFF" points="34.917743 20.0035307 34.917743 5.16822346 45.5651173 5.16822346 45.5651173 7.18922905 37.1680223 7.18922905 37.1680223 11.5233073 44.502324 11.5233073 44.502324 13.5235307 37.1680223 13.5235307 37.1680223 17.9825251 45.5651173 17.9825251 45.5651173 20.0035307"></polygon>
            <path d="M52.9387709,20.128581 C50.7090503,20.128581 49.1048045,19.6076872 47.6880447,18.1699218 L49.1881564,16.6905922 C50.2717318,17.7741676 51.4592179,18.1075754 52.9803352,18.1075754 C54.9179888,18.1075754 56.0431285,17.2740559 56.0431285,15.8362905 C56.0431285,15.190257 55.8556425,14.648581 55.4598883,14.2943911 C55.0849162,13.9402011 54.7097207,13.7945028 53.8346369,13.6693631 L52.0844693,13.4193073 C50.8759777,13.2526034 49.9173184,12.8358436 49.2715084,12.2315978 C48.5423464,11.5442235 48.1881564,10.6065698 48.1881564,9.39807821 C48.1881564,6.8141676 50.0634637,5.04321788 53.1470391,5.04321788 C55.1056983,5.04321788 56.4808939,5.54310615 57.7519553,6.73103911 L56.3141899,8.14779888 C55.3975419,7.27249162 54.3347486,7.00165363 53.0844693,7.00165363 C51.3343017,7.00165363 50.3758659,8.00187709 50.3758659,9.31450279 C50.3758659,9.85617877 50.5425698,10.3357318 50.938324,10.6896983 C51.3135196,11.0231061 51.9177654,11.273162 52.6053631,11.3772961 L54.2931844,11.627352 C55.6681564,11.8358436 56.4393296,12.1692514 57.0641341,12.7317095 C57.877095,13.4400894 58.2728492,14.5028827 58.2728492,15.7737207 C58.2728492,18.5033296 56.0431285,20.128581 52.9387709,20.128581" id="Fill-4" fill="#FFFFFF"></path>
            <polygon id="Fill-6" fill="#FFFFFF" points="65.1244693 7.1892514 65.1244693 20.0035531 62.8741899 20.0035531 62.8741899 7.1892514 58.7903911 7.1892514 58.7903911 5.16824581 69.2082682 5.16824581 69.2082682 7.1892514"></polygon>
            <path d="M13.5204469,39.9068156 C11.2909497,39.9068156 9.68670391,39.3859218 8.26972067,37.9481564 L9.77005587,36.4688268 C10.8534078,37.5524022 12.0411173,37.8858101 13.5622346,37.8858101 C15.4998883,37.8858101 16.6250279,37.0522905 16.6250279,35.6145251 C16.6250279,34.9684916 16.4375419,34.4268156 16.0415642,34.0726257 C15.6665922,33.7184358 15.2916201,33.5727374 14.4165363,33.4475978 L12.6661453,33.1975419 C11.4576536,33.030838 10.4992179,32.6140782 9.85340782,32.0098324 C9.12402235,31.3224581 8.7698324,30.384581 8.7698324,29.1763128 C8.7698324,26.5924022 10.6451397,24.8214525 13.7287151,24.8214525 C15.6873743,24.8214525 17.0625698,25.3213408 18.3336313,26.5092737 L16.8960894,27.9260335 C15.9792179,27.0507263 14.9164246,26.7798883 13.6663687,26.7798883 C11.9162011,26.7798883 10.9575419,27.7801117 10.9575419,29.0927374 C10.9575419,29.6344134 11.1242458,30.1139665 11.5202235,30.467933 C11.8951955,30.8013408 12.4994413,31.0513966 13.1870391,31.1555307 L14.8748603,31.4055866 C16.2500559,31.6140782 17.0210056,31.947486 17.6460335,32.5099441 C18.4587709,33.218324 18.8545251,34.2811173 18.8545251,35.5519553 C18.8545251,38.2815642 16.6250279,39.9068156 13.5204469,39.9068156" id="Fill-8" fill="#FFFFFF"></path>
            <path d="M39.9375196,39.9068156 C36.916067,39.9068156 34.6242235,37.8440223 34.6242235,34.7810056 L34.6242235,24.9463687 L36.8745028,24.9463687 L36.8745028,34.6768715 C36.8745028,36.6565363 38.0829944,37.8858101 39.9375196,37.8858101 C41.7918212,37.8858101 43.021095,36.6565363 43.021095,34.6768715 L43.021095,24.9463687 L45.2715978,24.9463687 L45.2715978,34.7810056 C45.2715978,37.8440223 42.9587486,39.9068156 39.9375196,39.9068156" id="Fill-10" fill="#FFFFFF"></path>
            <path d="M56.2611844,27.9675754 C55.6361564,27.2799777 54.8026369,26.9675754 53.740067,26.9675754 L51.0104581,26.9675754 L51.0104581,37.760648 L53.740067,37.760648 C54.8026369,37.760648 55.6361564,37.4482458 56.2611844,36.760648 C57.0321341,35.9063464 57.0529162,34.3018771 57.0529162,32.2600894 C57.0529162,30.2178547 57.0321341,28.8218771 56.2611844,27.9675754 M57.8030838,38.3858994 C56.8654302,39.3235531 55.5110168,39.7816536 53.9691173,39.7816536 L48.7601788,39.7816536 L48.7601788,24.9463464 L53.9691173,24.9463464 C55.5110168,24.9463464 56.8654302,25.4046704 57.8030838,26.342324 C59.4073296,27.9467933 59.3031955,30.1139441 59.3031955,32.2600894 C59.3031955,34.4062346 59.4073296,36.7814302 57.8030838,38.3858994" id="Fill-12" fill="#FFFFFF"></path>
            <polygon id="Fill-14" fill="#FFFFFF" points="62.8741899 39.781676 65.1244693 39.781676 65.1244693 24.9463687 62.8741899 24.9463687"></polygon>
            <polygon id="Fill-16" fill="#FFFFFF" points="27.693095 24.9464358 25.2968939 24.9464358 20.1505251 39.781743 22.5465028 39.781743 26.4951061 28.3996201 30.443933 39.7810726 32.8392402 39.7810726"></polygon>
            <polygon id="Fill-17" fill="#FFFFFF" points="27.693095 20.0035307 25.2968939 20.0035307 20.1505251 5.16822346 22.5465028 5.16822346 26.4951061 16.5503464 30.443933 5.16889385 32.8392402 5.16889385"></polygon>
            <path d="M76.9650279,13.2942793 L76.8115084,13.5602011 C76.8396648,13.5602011 76.8680447,13.5622123 76.8959777,13.5622123 C79.6573184,13.5622123 82.3344134,14.102324 84.8528492,15.1675754 C84.9527374,15.2098101 85.0521788,15.253162 85.1513966,15.2969609 C85.6468156,15.2634413 86.1453631,15.2464581 86.6461453,15.2464581 C89.3634637,15.2464581 92.0083799,15.7416536 94.5131844,16.7184134 L94.9160894,16.6652291 C91.9627933,14.1651173 88.5011173,12.246905 84.7084916,11.0871285 C82.0865922,11.6585251 79.5017877,12.3946145 76.9650279,13.2942793" id="Fill-18" fill="#B9BABA"></path>
            <path d="M87.9218324,21.2419218 L87.9218324,28.542257 L86.6460782,29.5154413 L85.370324,28.542257 L85.370324,21.2419218 C85.7906592,21.2066145 86.2163575,21.1896313 86.6460782,21.1896313 C87.0757989,21.1896313 87.5014972,21.2066145 87.9218324,21.2419218" id="Fill-19" fill="#EEF0EF"></path>
            <path d="M89.2089609,39.7817654 L93.2509721,39.7817654 C88.7066145,33.6530503 82.4433743,28.8751732 75.1756648,26.1556201 L74.3919777,27.0631061 C80.4147709,29.9089162 85.6489609,34.2067933 89.2089609,39.7817654" id="Fill-20" fill="#DDDDDD"></path>
            <path d="M96.4806927,6.09119553 C96.4527598,6.09119553 96.4241564,6.09030168 96.396,6.09030168 C93.6346592,6.09030168 90.9577877,5.55018994 88.439352,4.48493855 C88.3392402,4.44270391 88.2397989,4.39935196 88.140581,4.35555307 C87.645162,4.38907263 87.146838,4.40605587 86.6460559,4.40605587 C83.9287374,4.40605587 81.2838212,3.91086034 78.7787933,2.93410056 L78.3761117,2.98728492 C83.4149944,7.25298324 89.9327598,9.82549721 97.0518659,9.82549721 C97.0898547,9.82549721 97.1276201,9.82527374 97.1656089,9.82505028 L96.4806927,6.09119553 Z" id="Fill-24" fill="#9A9A9A"></path>
            <g id="Group-57" transform="translate(75.897436, 0.000000)" fill="#FFFFFF">
                <path d="M8.18575963,39.7817654 L4.14374846,39.7817654 C8.688106,33.6530503 14.9513462,28.8751732 22.2192792,26.1556201 L23.0027429,27.0631061 C16.9799496,29.9089162 11.7457596,34.2067933 8.18575963,39.7817654" id="Fill-21"></path>
                <path d="M21.0294468,9.62636872 C17.6151451,9.61184358 14.2770445,9.00424581 11.1060948,7.8196648 C10.6482177,7.64871508 10.1959272,7.46614525 9.74877639,7.27284916 C6.48665349,7.8972067 3.30721215,8.75463687 0.228999857,9.82748603 L0.914139522,13.5602235 C7.29134623,11.2719553 14.1369328,9.96469274 21.268106,9.82502793 L21.0294468,9.62636872 Z" id="Fill-22"></path>
                <path d="M2.4788993,16.6654078 L6.1662736,19.4292067 C7.62973729,19.0466369 9.16537975,18.842838 10.74862,18.842838 C12.3318602,18.842838 13.8679496,19.0464134 15.3311898,19.4287598 L19.0187876,16.6651844 C16.4675027,15.6222793 13.6751004,15.0475307 10.74862,15.0475307 C7.82213952,15.0475307 5.02996075,15.6225028 2.4788993,16.6654078" id="Fill-23"></path>
                <path d="M19.0183853,2.98712849 L15.331011,0.223329609 C13.8675473,0.605899441 12.3319049,0.809698324 10.7486647,0.809698324 C9.16542444,0.809698324 7.62933505,0.606122905 6.16609483,0.223776536 L2.47849706,2.98735196 C5.02978198,4.03025698 7.82218421,4.60500559 10.7486647,4.60500559 C13.6751451,4.60500559 16.4673239,4.03003352 19.0183853,2.98712849" id="Fill-25"></path>
            </g>
        </g>
    </g>
</svg>