<?xml version="1.0" encoding="utf-8"?>
<!-- Generator: Adobe Illustrator 16.0.4, SVG Export Plug-In . SVG Version: 6.00 Build 0)  -->
<!DOCTYPE svg PUBLIC "-//W3C//DTD SVG 1.1//EN" "http://www.w3.org/Graphics/SVG/1.1/DTD/svg11.dtd">
<svg version="1.1" id="Ebene_1" xmlns="http://www.w3.org/2000/svg" xmlns:xlink="http://www.w3.org/1999/xlink" x="0px" y="0px"
	 width="191.5px" height="23px" viewBox="0 0 191.5 23" style="enable-background:new 0 0 191.5 23;" xml:space="preserve">
<g>
	<path d="M39.8,3.6c2,0,3,0.3,4,1.2C44.6,5.6,45,6.5,45,7.7c0,1.1-0.4,2-1.1,2.7c-0.5,0.4-0.7,0.6-1.5,0.8c2,0.6,3.2,2,3.2,4.1
		c0,2.2-1.4,4.3-4.2,4.5c-0.5,0-1.2,0-2.1,0h-5.1V3.6H39.8z M37.5,10.1h1.9c0.8,0,1.1-0.1,1.4-0.2c0.4-0.2,0.8-1,0.8-1.7
		c0-0.7-0.3-1.4-0.9-1.6c-0.3-0.1-0.6-0.2-1.3-0.2h-1.9V10.1z M37.5,17.1h2.1c0.7,0,1.2-0.1,1.5-0.4c0.5-0.4,0.8-1.1,0.8-1.9
		c0-0.9-0.5-1.8-1.2-2c-0.4-0.1-0.7-0.1-1.3-0.1h-2V17.1z"/>
	<path d="M57.5,19.8h-9.7v-2.8c0.8-0.4,1-0.4,2.4-1.2c3.2-1.8,4-2.9,4-3.9c0-1-0.8-1.6-1.9-1.6c-1,0-1.9,0.4-3.2,1.5l-1.9-1.9
		c1.7-1.5,3.5-2.3,5.9-2.3c2.8,0,4.5,1.5,4.5,3.8c0,1.7-0.9,2.8-2.2,3.8c-0.8,0.6-2.3,1.3-3.2,1.9c-0.1,0.1-0.4,0.2-0.6,0.3
		c0.5-0.1,1.5-0.1,2.3-0.1h4.2L57.5,19.8z"/>
	<path d="M66.5,3.6c2,0,3,0.3,4,1.2c0.9,0.8,1.3,1.7,1.3,2.9c0,1.1-0.4,2-1.1,2.7c-0.5,0.4-0.7,0.6-1.5,0.8c2,0.6,3.2,2,3.2,4.1
		c0,2.2-1.4,4.3-4.2,4.5c-0.5,0-1.2,0-2.1,0h-5.1V3.6H66.5z M64.3,10.1h1.9c0.8,0,1.1-0.1,1.4-0.2c0.4-0.2,0.8-1,0.8-1.7
		c0-0.7-0.3-1.4-0.9-1.6c-0.3-0.1-0.6-0.2-1.3-0.2h-1.9V10.1z M64.3,17.1h2.1c0.7,0,1.2-0.1,1.5-0.4c0.5-0.4,0.8-1.1,0.8-1.9
		c0-0.9-0.5-1.8-1.2-2c-0.4-0.1-0.7-0.1-1.3-0.1h-2V17.1z"/>
	<path d="M87.1,3.6l5.1,16.2h-3.5l-1.1-3.8h-4.7l-1.1,3.8h-3.4l5.3-16.2H87.1z M86.8,13.2c0,0-0.5-1.7-0.9-3.3
		c-0.2-0.7-0.7-2.9-0.7-2.9s-0.5,1.9-0.8,3.1c-0.3,1.2-0.5,1.9-0.9,3H86.8z"/>
	<path d="M100.2,10.9c-0.6-0.6-1.3-0.9-1.9-0.9c-1.4,0-2,1.2-2,4c0,1.6,0.2,2.5,0.6,3c0.3,0.4,0.9,0.7,1.4,0.7c0.7,0,1.4-0.3,2.1-1
		l0.2-0.2l1.4,1.9c-0.5,0.5-0.7,0.6-1.1,0.9c-0.8,0.5-1.8,0.7-2.9,0.7c-3.3,0-5.2-2.3-5.2-6.1c0-2.7,1-4.6,2.4-5.5
		c0.8-0.5,2-0.9,3-0.9c0.8,0,1.7,0.2,2.3,0.5c0.4,0.2,0.7,0.4,1.2,0.8L100.2,10.9z"/>
	<path d="M110.4,10.9c-0.6-0.6-1.3-0.9-1.9-0.9c-1.4,0-2,1.2-2,4c0,1.6,0.2,2.5,0.6,3c0.3,0.4,0.9,0.7,1.4,0.7c0.7,0,1.4-0.3,2.1-1
		l0.2-0.2l1.4,1.9c-0.5,0.5-0.7,0.6-1.1,0.9c-0.8,0.5-1.8,0.7-2.9,0.7c-3.3,0-5.2-2.3-5.2-6.1c0-2.7,1-4.6,2.4-5.5
		c0.8-0.5,2-0.9,3-0.9c0.8,0,1.7,0.2,2.3,0.5c0.4,0.2,0.7,0.4,1.2,0.8L110.4,10.9z"/>
	<path d="M123.4,18.5c-1.4,1.1-2.8,1.6-4.5,1.6c-3.4,0-5.6-2.4-5.6-6.2c0-2.1,0.4-3.6,1.5-4.7c1-1.1,2.2-1.6,3.7-1.6
		c1.4,0,2.7,0.5,3.4,1.3c1.1,1.1,1.6,2.7,1.6,5.2c0,0.3,0,0.5,0,0.7h-6.9v0.1c0,1.8,0.9,2.9,2.5,2.9c1.1,0,2.1-0.4,3-1.2L123.4,18.5
		z M120.3,12.5v-0.1c0-0.9-0.1-1.3-0.4-1.8c-0.3-0.5-0.7-0.7-1.4-0.7c-1.2,0-1.9,0.9-1.9,2.6v0H120.3z"/>
	<path d="M128.9,5.7v9.3c0,2,0,2.3,0.2,2.6c0.1,0.2,0.4,0.3,0.6,0.3c0.1,0,0.2,0,0.3,0l0.5,1.9c-0.5,0.2-1.2,0.3-1.9,0.3
		c-1.3,0-2.4-0.6-2.8-1.6c-0.2-0.6-0.3-1-0.3-2.7V6.9c0-1.6,0-2.5-0.2-3.6l3.2-0.7C128.9,3.2,128.9,4,128.9,5.7z"/>
	<path d="M142.3,18.5c-1.4,1.1-2.8,1.6-4.5,1.6c-3.4,0-5.6-2.4-5.6-6.2c0-2.1,0.4-3.6,1.5-4.7c1-1.1,2.2-1.6,3.7-1.6
		c1.4,0,2.7,0.5,3.4,1.3c1.1,1.1,1.6,2.7,1.6,5.2c0,0.3,0,0.5,0,0.7h-6.9v0.1c0,1.8,0.9,2.9,2.5,2.9c1.1,0,2.1-0.4,3-1.2L142.3,18.5
		z M139.2,12.5v-0.1c0-0.9-0.1-1.3-0.4-1.8c-0.3-0.5-0.7-0.7-1.4-0.7c-1.2,0-1.9,0.9-1.9,2.6v0H139.2z"/>
	<path d="M147.2,7.6c0.3,0.5,0.4,1,0.5,1.7c0.4-0.6,1.2-1.3,1.8-1.5c0.3-0.1,0.7-0.2,1-0.2c0.5,0,0.7,0,1.2,0.3l-0.9,2.7
		c-0.3-0.2-0.6-0.2-0.9-0.2c-0.7,0-1.3,0.3-1.9,1v8.4h-3.1v-7.9c0-1.6-0.2-2.8-0.4-3.5L147.2,7.6z"/>
	<path d="M154.2,8.3c1.2-0.5,2.2-0.7,3.3-0.7c2,0,3.4,0.7,3.8,2.1c0.2,0.5,0.2,0.9,0.2,2.1l-0.1,4c0,0.1,0,0.1,0,0.2
		c0,1.3,0.2,1.8,1.1,2.4l-1.7,1.9c-0.7-0.3-1.4-0.8-1.7-1.4c-0.2,0.2-0.5,0.5-0.7,0.6c-0.6,0.4-1.4,0.7-2.4,0.7
		c-2.6,0-4.1-1.3-4.1-3.7c0-2.8,1.9-4.1,5.7-4.1c0.2,0,0.4,0,0.7,0v-0.5c0-1.3-0.3-1.8-1.4-1.8c-1,0-2.2,0.5-3.4,1.3l-1.3-2.2
		C152.9,8.9,153.4,8.7,154.2,8.3z M158.2,14.6c-2.2,0-2.9,0.4-2.9,1.8c0,0.9,0.6,1.6,1.4,1.6c0.6,0,1.2-0.3,1.6-0.8l0-2.6H158.2z"/>
	<path d="M169.7,10h-2v6c0,1.5,0.3,1.9,1.3,1.9c0.3,0,0.6-0.1,1.1-0.2l0.4,1.9c-0.9,0.4-1.7,0.5-2.5,0.5c-1.6,0-2.8-0.7-3.2-1.7
		c-0.2-0.5-0.2-0.7-0.2-1.8V10h-1.2V7.9h1.2c0-1.2,0-1.9,0.1-2.8l3.2-0.8c-0.1,1.1-0.2,2.4-0.2,3.6h2.8L169.7,10z"/>
	<path d="M181,9.4c1,1.1,1.4,2.4,1.4,4.3c0,2-0.5,3.4-1.5,4.6c-0.9,1-2.1,1.6-3.9,1.6c-3.2,0-5.3-2.4-5.3-6.2c0-3.7,2.1-6.2,5.3-6.2
		C178.7,7.6,180,8.2,181,9.4z M175.4,11.2c-0.2,0.6-0.3,1.5-0.3,2.7c0,1.4,0.1,2.4,0.4,3c0.3,0.7,1,1,1.6,1c1.3,0,1.9-1.2,1.9-4
		c0-1.6-0.2-2.6-0.6-3.2c-0.3-0.4-0.8-0.6-1.3-0.6C176.3,9.9,175.7,10.4,175.4,11.2z"/>
	<path d="M187.1,7.6c0.3,0.5,0.4,1,0.5,1.7c0.4-0.6,1.2-1.3,1.8-1.5c0.3-0.1,0.7-0.2,1-0.2c0.5,0,0.7,0,1.2,0.3l-0.9,2.7
		c-0.3-0.2-0.6-0.2-0.9-0.2c-0.7,0-1.3,0.3-1.9,1v8.4h-3.1v-7.9c0-1.6-0.2-2.8-0.4-3.5L187.1,7.6z"/>
</g>
<g>
	<path d="M2.7,11.6c0-4,0.8-7.2,1.3-8.7l3.4-0.2V0L2.1,0.3L1.8,1.1C1.7,1.2,0,5.5,0,11.6c0,6,1.7,10.3,1.8,10.5l0.3,0.8L7.4,23v-2.7
		L4,20.2C3.6,18.8,2.7,15.6,2.7,11.6z"/>
	<path d="M11.7,13.6c0.2-0.4,0.3-0.7,0.5-1.1c1.1-2.5,2-5.1,2.1-5.6l-2.9-0.1c-0.3,0.8-0.7,2.1-1.3,3.4C9.6,9,9.2,7.7,8.9,6.9L6.1,7
		c0.2,0.6,1,3.2,2,5.6c0.7,1.6,1.6,3.3,2.2,4.4l3.1-0.1C13.4,16.9,12.6,15.4,11.7,13.6z"/>
	<path d="M18.9,1.1l-0.3-0.8L13.2,0v2.7l3.4,0.2c0.5,1.4,1.3,4.6,1.3,8.7c0,4-0.8,7.2-1.3,8.6l-3.4,0.1V23l5.3-0.1l0.3-0.8
		c0.1-0.2,1.8-4.5,1.8-10.5C20.7,5.5,19,1.2,18.9,1.1z"/>
</g>
</svg>
