<?xml version="1.0" standalone="no"?>
<!DOCTYPE svg PUBLIC "-//W3C//DTD SVG 20010904//EN"
 "http://www.w3.org/TR/2001/REC-SVG-20010904/DTD/svg10.dtd">
<svg version="1.0" xmlns="http://www.w3.org/2000/svg"
 width="1042.000000pt" height="1042.000000pt" viewBox="0 0 1042.000000 1042.000000"
 preserveAspectRatio="xMidYMid meet">
<metadata>
Created by potrace 1.15, written by Peter Selinger 2001-2017
</metadata>
<g transform="translate(0.000000,1042.000000) scale(0.100000,-0.100000)"
fill="#000000" stroke="none">
<path d="M4407 8666 c-9 -9 -23 -16 -32 -16 -9 0 -13 -5 -10 -11 4 -6 -2 -13
-14 -16 -12 -3 -21 -9 -21 -14 0 -5 -9 -9 -21 -9 -11 0 -18 -4 -15 -8 6 -10
-29 -42 -45 -42 -5 0 -20 -11 -33 -25 -13 -14 -28 -25 -35 -25 -6 0 -11 -7
-11 -15 0 -8 -7 -15 -15 -15 -8 0 -15 -4 -15 -10 0 -5 -9 -10 -20 -10 -11 0
-20 -7 -20 -15 0 -8 -7 -15 -15 -15 -8 0 -15 -4 -15 -10 0 -5 -6 -10 -14 -10
-8 0 -16 -7 -20 -15 -3 -8 -12 -15 -21 -15 -8 0 -15 -4 -15 -10 0 -5 -7 -10
-15 -10 -8 0 -15 -7 -15 -15 0 -8 -7 -15 -15 -15 -8 0 -15 -4 -15 -10 0 -5 -9
-10 -21 -10 -11 0 -18 -4 -15 -8 7 -11 -30 -42 -50 -42 -8 0 -12 -5 -9 -11 4
-6 -2 -13 -14 -16 -12 -3 -21 -10 -21 -15 0 -5 -4 -6 -10 -3 -6 4 -10 -6 -10
-23 0 -22 6 -31 21 -35 12 -3 18 -10 14 -16 -3 -6 1 -11 9 -11 9 0 16 -4 16
-10 0 -5 7 -10 15 -10 9 0 18 -7 21 -15 4 -8 12 -15 20 -15 8 0 14 -4 14 -10
0 -5 7 -10 15 -10 8 0 15 -7 15 -15 0 -8 7 -15 15 -15 8 0 15 -4 15 -10 0 -5
7 -10 15 -10 9 0 18 -7 21 -15 4 -8 12 -15 20 -15 8 0 14 -4 14 -9 0 -5 9 -11
21 -14 12 -3 18 -10 14 -16 -3 -7 2 -11 14 -11 12 0 21 -4 21 -10 0 -5 7 -10
15 -10 8 0 15 -7 15 -15 0 -8 9 -15 20 -15 11 0 20 -4 20 -9 0 -5 9 -11 21
-14 12 -3 18 -10 14 -16 -3 -6 0 -11 7 -11 24 0 68 -24 68 -37 0 -7 9 -13 20
-13 11 0 20 -4 20 -10 0 -5 7 -10 15 -10 9 0 18 -7 21 -15 4 -8 15 -15 25 -15
10 0 19 -4 19 -9 0 -5 10 -11 23 -13 12 -2 21 -9 20 -16 -2 -6 3 -12 10 -12
23 0 78 -31 72 -41 -4 -5 5 -9 19 -9 14 0 26 -4 26 -10 0 -5 9 -10 20 -10 11
0 23 -7 26 -15 4 -8 17 -15 30 -15 13 0 24 -4 24 -10 0 -5 7 -10 15 -10 9 0
18 -7 21 -15 4 -8 17 -15 30 -15 13 0 24 -4 24 -10 0 -5 9 -10 20 -10 11 0 23
-7 26 -15 4 -9 19 -15 35 -15 16 0 29 -4 29 -10 0 -5 8 -10 18 -10 11 0 8 -5
-12 -15 -15 -8 -50 -15 -77 -15 -27 0 -49 -4 -49 -10 0 -6 -27 -10 -60 -10
-43 0 -59 -4 -57 -12 1 -9 -15 -14 -50 -16 -29 -2 -53 -7 -53 -13 0 -5 -25 -9
-55 -9 -39 0 -54 -4 -52 -12 1 -9 -15 -14 -50 -16 -29 -2 -53 -7 -53 -13 0 -5
-20 -9 -44 -9 -30 0 -46 -5 -50 -15 -3 -10 -19 -15 -46 -15 -22 0 -40 -4 -40
-10 0 -5 -23 -10 -51 -10 -27 0 -48 -4 -45 -9 7 -11 -18 -21 -55 -21 -16 0
-29 -4 -29 -10 0 -5 -20 -10 -45 -10 -31 0 -44 -4 -42 -12 1 -9 -13 -14 -40
-16 -24 -2 -43 -7 -43 -13 0 -5 -18 -9 -39 -9 -25 0 -41 -5 -45 -15 -3 -9 -19
-15 -41 -15 -19 0 -35 -4 -35 -10 0 -5 -18 -10 -40 -10 -27 0 -39 -4 -38 -12
2 -8 -11 -14 -34 -16 -21 -2 -38 -7 -38 -13 0 -5 -18 -9 -40 -9 -27 0 -39 -4
-38 -12 2 -8 -9 -14 -24 -16 l-28 -3 0 -85 c0 -49 4 -84 10 -84 6 0 10 -27 10
-61 0 -40 5 -65 15 -75 10 -11 15 -36 15 -80 0 -36 4 -64 10 -64 6 0 10 -29
10 -66 0 -36 4 -63 9 -60 11 7 21 -28 21 -81 l0 -43 130 0 c80 0 130 -4 130
-10 0 -6 46 -10 119 -10 121 0 155 -5 145 -21 -3 -5 33 -9 80 -9 48 0 86 -4
86 -10 0 -5 28 -10 63 -12 43 -2 61 -7 59 -15 -1 -9 14 -13 53 -13 30 0 55 -4
55 -9 0 -6 21 -11 48 -13 31 -2 46 -7 44 -15 -1 -9 12 -13 43 -13 25 0 45 -4
45 -9 0 -6 17 -11 38 -13 23 -2 36 -8 34 -15 -1 -9 11 -13 38 -13 22 0 40 -4
40 -10 0 -5 11 -10 24 -10 31 0 56 -10 56 -21 0 -5 -38 -9 -85 -9 -50 0 -85
-4 -85 -10 0 -6 -32 -10 -75 -10 -55 0 -74 -3 -73 -12 2 -9 -15 -14 -54 -16
-32 -2 -58 -7 -58 -12 0 -6 -25 -10 -55 -10 -39 0 -54 -4 -53 -12 2 -9 -12
-14 -39 -16 -24 -2 -43 -7 -43 -13 0 -5 -20 -9 -45 -9 -31 0 -44 -4 -43 -12 2
-9 -12 -14 -39 -16 -24 -2 -43 -7 -43 -13 0 -5 -16 -9 -35 -9 -22 0 -34 -4
-33 -12 2 -7 -8 -14 -22 -16 -14 -1 -34 -7 -45 -12 -11 -5 -33 -11 -50 -12
-27 -3 -30 -7 -33 -40 -3 -35 -1 -38 22 -38 14 0 26 -4 26 -10 0 -5 7 -10 15
-10 8 0 15 -7 15 -15 0 -8 5 -15 11 -15 7 0 22 -11 35 -25 13 -14 28 -25 34
-25 5 0 10 -4 10 -9 0 -5 9 -11 21 -14 12 -3 18 -10 14 -16 -3 -7 2 -11 14
-11 12 0 21 -4 21 -9 0 -5 9 -11 21 -14 12 -3 18 -10 14 -16 -3 -6 1 -11 9
-11 20 0 57 -31 50 -42 -3 -4 4 -8 15 -8 12 0 21 -4 21 -10 0 -5 7 -10 15 -10
8 0 15 -6 15 -13 0 -6 14 -18 30 -25 17 -8 30 -20 30 -28 0 -8 9 -14 20 -14
11 0 20 -4 20 -10 0 -5 7 -10 15 -10 8 0 15 -7 15 -15 0 -8 7 -15 15 -15 8 0
15 -4 15 -10 0 -5 9 -10 20 -10 11 0 20 -7 20 -15 0 -8 7 -15 15 -15 8 0 15
-4 15 -10 0 -5 18 -10 39 -10 22 0 43 5 46 10 3 6 33 10 66 10 42 0 58 4 56
13 -1 8 19 13 71 15 39 2 72 7 72 12 0 6 48 10 114 10 92 0 115 3 120 15 4 13
39 15 226 15 187 0 222 -2 226 -15 5 -12 28 -15 118 -15 62 0 116 -4 122 -9 5
-6 38 -11 74 -13 45 -2 64 -7 63 -15 -2 -9 15 -13 62 -13 37 0 65 -4 65 -10 0
-5 18 -10 40 -10 22 0 40 5 40 10 0 6 9 10 21 10 12 0 17 4 14 11 -4 6 2 13
14 16 12 3 21 9 21 14 0 5 7 9 15 9 8 0 15 7 15 15 0 8 7 15 15 15 8 0 15 5
15 10 0 6 9 10 21 10 12 0 17 4 14 11 -4 6 2 13 14 16 12 3 21 9 21 14 0 5 7
9 15 9 8 0 15 7 15 15 0 8 7 15 15 15 8 0 15 5 15 10 0 6 9 10 21 10 11 0 18
4 15 8 -7 11 30 42 50 42 8 0 12 5 9 11 -4 6 2 13 14 16 12 3 21 9 21 14 0 5
9 9 20 9 11 0 19 5 17 10 -1 6 11 18 27 28 17 9 40 27 52 40 12 12 24 22 28
22 4 0 17 11 30 25 13 14 33 25 45 25 18 0 21 6 21 40 0 33 -3 40 -20 40 -11
0 -20 4 -20 9 0 5 -9 11 -21 14 -12 3 -18 10 -14 16 3 6 -1 11 -9 11 -20 0
-57 31 -50 42 3 4 -4 8 -15 8 -12 0 -21 5 -21 10 0 6 -7 10 -15 10 -8 0 -15 6
-15 13 0 6 -15 19 -33 28 -17 9 -31 22 -30 28 2 6 -6 11 -17 11 -11 0 -20 4
-20 9 0 5 -9 11 -21 14 -12 3 -18 10 -14 16 3 6 -1 11 -10 11 -22 0 -66 30
-59 41 3 5 -6 9 -20 9 -14 0 -26 5 -26 10 0 6 -7 10 -15 10 -8 0 -15 7 -15 15
0 8 -9 15 -20 15 -11 0 -20 5 -20 10 0 6 -9 10 -20 10 -11 0 -20 7 -20 15 0 8
-9 15 -20 15 -11 0 -20 5 -20 10 0 6 -7 10 -15 10 -9 0 -18 7 -21 15 -4 8 -15
15 -25 15 -10 0 -19 5 -19 10 0 6 -9 10 -20 10 -11 0 -23 7 -26 15 -4 8 -15
15 -25 15 -10 0 -19 4 -19 9 0 5 -10 11 -22 13 -13 2 -22 9 -20 16 1 7 -9 12
-23 12 -14 0 -25 4 -25 9 0 5 -10 11 -22 13 -13 2 -22 9 -20 16 1 7 -9 12 -23
12 -14 0 -25 5 -25 10 0 6 -11 10 -25 10 -16 0 -25 6 -25 15 0 9 -9 15 -25 15
-14 0 -25 4 -25 9 0 5 -12 11 -27 13 -16 2 -27 8 -25 16 1 7 -9 12 -28 12 -16
0 -30 4 -30 9 0 5 -12 11 -27 13 -16 2 -27 8 -25 16 1 7 -9 12 -28 12 -16 0
-30 5 -30 10 0 6 -13 10 -30 10 -20 0 -30 5 -30 15 0 10 -10 15 -30 15 -16 0
-30 5 -30 10 0 6 -14 10 -30 10 -18 0 -33 6 -36 15 -4 9 -19 15 -35 15 -16 0
-29 5 -29 10 0 6 -12 10 -27 10 -16 1 -39 7 -53 15 l-25 14 27 1 c15 0 30 5
33 10 3 6 39 10 78 10 43 0 67 4 59 9 -21 13 10 21 79 21 33 0 59 4 59 10 0 6
32 10 75 10 60 0 75 3 75 15 0 12 16 15 85 15 50 0 85 4 85 10 0 6 38 10 95
10 71 0 94 3 93 13 -2 9 25 13 105 15 60 1 107 7 107 12 0 6 57 10 140 10 107
0 139 3 138 13 -2 9 43 13 195 15 116 1 197 6 197 12 0 6 68 11 163 12 l162 3
-4 85 c-2 47 -7 87 -12 88 -5 2 -9 33 -9 68 0 36 -4 63 -9 60 -12 -8 -21 29
-21 92 0 28 -4 52 -10 52 -6 0 -10 27 -10 61 0 40 -5 65 -15 75 -9 10 -15 34
-15 64 l0 50 -172 2 c-132 2 -172 6 -170 16 1 9 -26 12 -113 12 -66 0 -115 4
-115 10 0 5 -33 10 -72 12 -52 2 -72 7 -70 16 1 8 -16 12 -63 12 -37 0 -65 4
-65 10 0 6 -18 10 -39 10 -46 0 -73 9 -65 21 3 5 -15 9 -40 9 -25 0 -46 5 -46
10 0 6 -18 10 -40 10 -27 0 -43 5 -46 15 -4 9 -19 15 -39 15 -19 0 -37 5 -40
10 -3 6 -17 10 -31 10 -14 0 -27 7 -30 15 -4 9 -19 15 -38 16 -26 0 -28 2 -11
9 11 5 59 9 107 9 65 1 87 4 85 14 -1 8 17 13 61 15 34 2 62 7 62 12 0 6 27
10 60 10 43 0 59 4 58 13 -2 8 14 13 50 15 28 2 52 7 52 13 0 5 20 9 44 9 30
0 46 5 50 15 3 9 19 15 41 15 19 0 35 5 35 10 0 6 18 10 40 10 27 0 39 4 38
13 -2 7 11 13 35 15 20 2 37 7 37 13 0 5 16 9 35 9 23 0 34 4 33 13 -2 7 10
13 30 15 29 3 32 6 32 37 0 29 -4 34 -25 37 -14 2 -25 7 -25 11 1 5 -14 17
-32 27 -18 10 -32 23 -30 29 1 6 -7 11 -18 11 -11 0 -20 5 -20 10 0 6 -7 10
-15 10 -8 0 -15 7 -15 15 0 8 -7 15 -15 15 -8 0 -15 5 -15 10 0 6 -7 10 -15
10 -9 0 -18 7 -21 15 -4 8 -12 15 -20 15 -8 0 -14 5 -14 10 0 6 -7 10 -15 10
-8 0 -15 7 -15 15 0 8 -7 15 -16 15 -9 0 -27 11 -40 25 -13 14 -26 25 -30 25
-4 0 -16 10 -28 23 -12 12 -35 30 -52 39 -16 10 -28 22 -26 28 1 5 -7 10 -18
10 -11 0 -20 4 -20 9 0 5 -9 11 -21 14 -12 3 -18 10 -14 16 3 6 -1 11 -10 11
-9 0 -23 7 -32 16 -13 12 -30 14 -97 8 -44 -4 -82 -11 -84 -15 -2 -5 -35 -9
-73 -9 -50 0 -68 -3 -66 -12 1 -10 -23 -14 -88 -16 -49 -2 -94 -7 -99 -12 -14
-14 -626 -13 -626 0 0 6 -38 10 -95 10 -78 0 -95 3 -95 15 0 12 -14 15 -69 15
-38 0 -71 4 -73 9 -1 4 -40 11 -84 15 -67 6 -84 4 -97 -8z"/>
<path d="M5126 5035 c-4 -11 -22 -15 -71 -15 l-65 0 0 -660 c0 -580 2 -660 15
-660 8 0 15 -7 15 -15 0 -8 7 -15 15 -15 8 0 15 -4 15 -9 0 -5 9 -11 21 -14
12 -3 18 -10 14 -16 -3 -7 2 -11 14 -11 12 0 21 -4 21 -10 0 -5 7 -10 15 -10
8 0 15 -7 15 -15 0 -8 7 -15 15 -15 8 0 15 -4 15 -9 0 -5 9 -13 20 -16 11 -4
18 -11 15 -16 -4 -5 6 -9 20 -9 14 0 24 4 21 8 -6 9 29 42 44 42 6 0 10 7 10
15 0 8 7 15 15 15 8 0 15 5 15 10 0 6 7 10 15 10 9 0 26 11 39 25 13 14 28 25
35 25 6 0 11 7 11 15 0 8 7 15 15 15 13 0 15 80 15 660 l0 660 -65 0 c-49 0
-67 4 -71 15 -5 12 -26 15 -104 15 -78 0 -99 -3 -104 -15z"/>
<path d="M3195 4150 c-3 -11 -17 -28 -31 -39 -13 -10 -24 -22 -24 -25 0 -3
-13 -20 -30 -38 -21 -22 -30 -41 -30 -64 0 -31 3 -34 30 -34 18 0 33 -6 36
-15 4 -8 15 -15 25 -15 11 0 27 -4 37 -9 9 -5 25 -12 35 -15 10 -3 15 -10 12
-16 -3 -5 3 -10 15 -10 11 0 28 -4 38 -9 9 -5 25 -12 35 -15 10 -3 15 -10 12
-16 -3 -5 3 -10 15 -10 11 0 28 -4 38 -9 9 -5 25 -12 35 -15 10 -3 15 -10 12
-16 -4 -6 5 -10 19 -10 14 0 26 -4 26 -10 0 -5 9 -10 20 -10 11 0 20 -7 20
-15 0 -9 9 -15 25 -15 14 0 25 -4 25 -10 0 -5 7 -10 15 -10 9 0 18 -7 21 -15
4 -8 15 -15 25 -15 10 0 19 -4 19 -10 0 -5 9 -10 20 -10 11 0 23 -7 26 -15 4
-8 15 -15 25 -15 10 0 19 -4 19 -9 0 -5 9 -11 21 -14 12 -3 18 -10 14 -16 -4
-7 4 -11 19 -11 14 0 26 -4 26 -9 0 -5 9 -11 21 -14 12 -3 18 -10 14 -16 -4
-7 4 -11 19 -11 14 0 26 -4 26 -10 0 -5 7 -10 15 -10 8 0 15 -7 15 -15 0 -8 9
-15 20 -15 11 0 20 -4 20 -9 0 -5 9 -11 21 -14 12 -3 18 -10 14 -16 -3 -6 1
-11 10 -11 22 0 66 -30 59 -41 -3 -5 4 -9 15 -9 12 0 21 -4 21 -10 0 -5 7 -10
15 -10 9 0 18 -7 21 -15 4 -8 11 -15 16 -15 6 0 21 -11 34 -25 13 -14 28 -25
34 -25 5 0 10 -4 10 -9 0 -5 9 -11 21 -14 12 -3 18 -10 14 -16 -3 -6 1 -11 11
-11 9 0 27 -11 40 -25 13 -14 28 -25 34 -25 5 0 10 -4 10 -10 0 -5 7 -10 15
-10 8 0 15 -7 15 -15 0 -8 5 -15 11 -15 7 0 22 -11 35 -25 13 -14 29 -25 37
-25 7 0 20 -11 27 -25 7 -14 17 -25 22 -25 14 0 47 -33 42 -42 -3 -4 0 -8 7
-8 6 0 22 -11 34 -24 12 -13 33 -31 48 -41 15 -9 24 -21 21 -26 -3 -5 0 -9 6
-9 14 0 40 -25 40 -39 0 -6 5 -11 11 -11 14 0 39 -25 39 -39 0 -6 5 -11 11
-11 13 0 39 -25 39 -38 0 -5 10 -13 23 -17 13 -4 17 -8 10 -12 -7 -2 -13 -10
-13 -17 0 -7 -11 -19 -25 -26 -14 -7 -25 -19 -25 -27 0 -7 -7 -13 -15 -13 -8
0 -15 -4 -15 -10 0 -5 -7 -10 -16 -10 -8 0 -13 -4 -10 -8 6 -10 -29 -42 -45
-42 -5 0 -8 -4 -5 -9 3 -5 -6 -17 -19 -27 -14 -10 -25 -24 -25 -30 0 -6 -11
-17 -25 -24 -14 -7 -25 -19 -25 -25 0 -6 -11 -18 -25 -25 -14 -7 -25 -17 -25
-22 0 -13 -26 -38 -39 -38 -6 0 -11 -5 -11 -11 0 -14 -25 -39 -39 -39 -6 0
-11 -5 -11 -11 0 -14 -26 -39 -40 -39 -6 0 -9 -4 -5 -10 3 -5 -3 -18 -15 -30
-11 -11 -20 -22 -20 -25 0 -3 -21 -28 -47 -54 -62 -62 -83 -89 -83 -102 0 -5
-4 -7 -10 -4 -5 3 -10 -1 -10 -9 0 -9 -4 -16 -10 -16 -5 0 -10 -5 -10 -11 0
-13 -25 -39 -38 -39 -5 0 -13 -11 -16 -25 -4 -14 -11 -25 -16 -25 -6 0 -10 -5
-10 -10 0 -6 -11 -22 -25 -36 -14 -14 -25 -29 -25 -35 0 -5 -11 -22 -25 -37
-49 -53 -56 -52 361 -52 401 0 413 1 414 42 1 18 25 48 39 48 6 0 11 11 11 25
0 16 6 25 16 25 8 0 12 5 9 10 -3 6 1 13 9 16 9 3 16 14 16 23 1 20 23 51 38
51 5 0 13 11 16 25 4 14 11 23 17 19 6 -3 9 0 7 8 -2 8 9 26 25 41 15 16 27
34 27 42 0 8 5 15 10 15 6 0 10 5 10 11 0 14 25 39 39 39 6 0 10 3 10 8 -4 24
3 42 16 42 8 0 14 4 13 8 -2 4 9 20 25 35 15 15 27 34 27 42 0 8 5 15 10 15 6
0 10 -7 10 -15 0 -8 18 -32 40 -54 22 -22 40 -44 40 -50 0 -6 5 -11 11 -11 5
0 8 -4 5 -8 -3 -5 4 -15 15 -22 10 -8 19 -20 19 -27 0 -7 5 -13 10 -13 6 0 10
-5 10 -10 0 -12 15 -32 42 -57 9 -9 15 -20 12 -25 -3 -4 2 -8 10 -8 10 0 16
-9 16 -25 0 -14 5 -25 11 -25 17 0 39 -27 39 -48 0 -11 7 -23 16 -26 8 -3 12
-10 9 -16 -3 -5 1 -10 9 -10 10 0 16 -9 16 -23 0 -15 9 -29 25 -37 14 -7 25
-22 25 -32 0 -48 4 -48 414 -48 331 0 386 2 386 15 0 7 -6 18 -12 22 -7 4 -22
24 -32 43 -11 19 -28 42 -38 51 -10 9 -18 21 -18 28 0 6 -4 11 -10 11 -5 0
-12 11 -16 25 -3 14 -11 25 -16 25 -13 0 -38 26 -38 39 0 6 -4 11 -10 11 -5 0
-10 7 -10 15 0 8 -5 14 -11 12 -6 -1 -13 6 -14 15 -2 9 -19 32 -39 51 -20 20
-36 40 -36 46 0 6 -7 11 -15 11 -8 0 -15 4 -15 9 0 5 -11 19 -25 32 -13 13
-25 32 -25 42 0 9 -5 17 -11 17 -14 0 -39 25 -39 39 0 6 -5 11 -11 11 -11 0
-39 25 -39 35 0 10 -28 35 -39 35 -6 0 -11 6 -11 13 0 8 -11 20 -25 27 -14 7
-25 18 -25 24 0 6 -11 20 -25 30 -13 10 -22 22 -19 27 3 5 0 9 -5 9 -16 0 -51
32 -45 42 3 4 0 8 -5 8 -16 0 -51 32 -45 42 3 4 0 8 -5 8 -16 0 -51 32 -45 42
3 4 -2 8 -11 8 -18 0 -45 23 -45 38 0 6 -6 13 -12 15 -8 4 -4 8 10 12 12 4 22
12 22 17 0 13 26 38 39 38 6 0 11 5 11 11 0 14 25 39 39 39 6 0 11 5 11 11 0
14 25 39 39 39 6 0 11 7 11 15 0 8 5 15 11 15 6 0 25 16 43 35 19 19 39 35 45
35 7 0 10 4 7 8 -5 8 28 42 39 42 3 0 14 8 24 18 73 66 92 82 101 82 5 0 10 7
10 15 0 8 7 15 15 15 8 0 15 5 15 10 0 6 9 10 20 10 11 0 19 5 18 11 -2 6 11
18 27 27 17 10 31 21 32 26 0 5 14 16 29 25 15 9 38 26 50 39 12 12 29 22 38
22 10 0 14 5 11 11 -4 6 2 13 14 16 12 3 21 9 21 14 0 5 9 9 21 9 12 0 17 4
14 11 -4 6 2 13 14 16 12 3 21 9 21 14 0 5 9 9 21 9 12 0 17 4 14 11 -4 6 2
13 14 16 12 3 21 9 21 14 0 5 9 9 20 9 11 0 20 6 20 13 0 13 44 37 68 37 7 0
11 4 7 9 -6 10 49 41 72 41 8 0 11 5 8 11 -4 6 2 13 14 16 12 3 21 9 21 14 0
5 9 9 19 9 10 0 21 7 25 15 3 8 15 15 26 15 11 0 20 5 20 10 0 6 9 10 20 10
11 0 20 4 20 9 0 11 56 41 77 41 7 0 13 7 13 15 0 8 9 15 20 15 11 0 20 5 20
10 0 6 11 10 25 10 16 0 25 6 25 15 0 8 9 15 19 15 11 0 23 5 26 10 3 6 17 10
31 10 14 0 23 4 19 10 -3 6 2 13 12 16 10 3 26 10 35 15 10 5 27 9 38 9 12 0
18 5 15 10 -3 6 2 13 12 16 10 3 26 10 35 15 10 5 29 9 43 9 15 0 24 5 22 13
-1 7 11 13 31 15 29 3 32 6 32 35 0 31 -6 40 -75 120 -14 16 -22 33 -19 38 3
5 -2 9 -10 9 -9 0 -16 5 -16 10 0 6 -11 10 -25 10 -14 0 -25 -4 -25 -10 0 -5
-13 -10 -29 -10 -16 0 -31 -6 -35 -15 -3 -8 -16 -15 -30 -15 -14 0 -28 -4 -31
-10 -3 -5 -19 -10 -36 -10 -18 0 -28 -5 -26 -12 1 -8 -10 -14 -25 -16 -16 -2
-28 -8 -28 -13 0 -5 -16 -9 -35 -9 -23 0 -34 -4 -32 -12 1 -8 -10 -14 -25 -16
-16 -2 -28 -8 -28 -13 0 -5 -13 -9 -30 -9 -19 0 -29 -5 -27 -12 1 -8 -10 -14
-25 -16 -16 -2 -28 -8 -28 -13 0 -5 -13 -9 -30 -9 -18 0 -29 -5 -27 -12 1 -7
-8 -14 -20 -16 -13 -2 -23 -8 -23 -13 0 -5 -13 -9 -30 -9 -18 0 -29 -5 -27
-12 1 -7 -8 -14 -20 -16 -13 -2 -23 -8 -23 -13 0 -5 -13 -9 -30 -9 -18 0 -29
-5 -27 -12 1 -7 -8 -14 -20 -16 -13 -2 -23 -8 -23 -13 0 -5 -11 -9 -25 -9 -16
0 -25 -6 -25 -15 0 -8 -9 -15 -20 -15 -11 0 -20 -4 -20 -10 0 -5 -14 -10 -30
-10 -18 0 -29 -5 -28 -12 2 -7 -7 -14 -19 -16 -13 -2 -23 -8 -23 -13 0 -5 -9
-9 -19 -9 -10 0 -21 -7 -25 -15 -3 -8 -12 -15 -21 -15 -8 0 -15 -4 -15 -10 0
-5 -12 -10 -26 -10 -15 0 -23 -4 -19 -11 4 -6 -2 -13 -14 -16 -12 -3 -21 -9
-21 -14 0 -5 -11 -9 -25 -9 -16 0 -25 -6 -25 -15 0 -8 -9 -15 -20 -15 -11 0
-20 -4 -20 -10 0 -5 -9 -10 -20 -10 -11 0 -19 -6 -18 -12 2 -7 -7 -14 -19 -16
-13 -2 -23 -8 -23 -13 0 -5 -9 -9 -21 -9 -12 0 -17 -4 -14 -11 4 -6 -2 -13
-14 -16 -12 -3 -21 -9 -21 -14 0 -5 -12 -9 -26 -9 -15 0 -23 -4 -19 -11 4 -6
-2 -13 -14 -16 -12 -3 -21 -9 -21 -14 0 -5 -9 -9 -21 -9 -12 0 -17 -4 -14 -11
4 -6 -2 -13 -14 -16 -12 -3 -21 -9 -21 -14 0 -5 -9 -9 -21 -9 -12 0 -17 -4
-14 -11 4 -6 -2 -13 -14 -16 -12 -3 -21 -9 -21 -14 0 -5 -9 -9 -20 -9 -11 0
-20 -7 -20 -15 0 -8 -7 -15 -15 -15 -8 0 -15 -4 -15 -10 0 -5 -9 -10 -21 -10
-12 0 -17 -4 -14 -11 4 -6 -2 -13 -14 -16 -12 -3 -21 -9 -21 -14 0 -5 -9 -9
-20 -9 -11 0 -19 -5 -18 -11 2 -6 -12 -19 -29 -28 -18 -10 -29 -21 -26 -25 4
-4 -3 -9 -15 -13 -12 -3 -22 -9 -22 -14 0 -5 -9 -9 -21 -9 -11 0 -18 -4 -15
-8 5 -8 -28 -42 -40 -42 -3 0 -16 -12 -29 -26 l-25 -27 -23 25 c-13 14 -35 33
-50 43 -15 9 -24 21 -21 26 3 5 -4 9 -15 9 -12 0 -21 5 -21 10 0 6 -7 10 -15
10 -8 0 -15 7 -15 15 0 8 -7 15 -15 15 -8 0 -15 4 -15 9 0 5 -9 11 -21 14 -12
3 -18 10 -14 16 3 7 -2 11 -14 11 -12 0 -21 5 -21 10 0 6 -7 10 -15 10 -8 0
-15 7 -15 15 0 8 -9 15 -20 15 -11 0 -20 5 -20 10 0 6 -7 10 -15 10 -8 0 -15
7 -15 15 0 8 -7 15 -16 15 -9 0 -27 11 -40 25 -13 14 -28 25 -35 25 -6 0 -22
11 -35 25 -13 14 -30 25 -39 25 -8 0 -15 4 -15 9 0 5 -9 11 -21 14 -12 3 -18
10 -14 16 3 7 -3 11 -16 11 -12 0 -32 11 -45 25 -13 14 -30 25 -39 25 -8 0
-15 5 -15 10 0 6 -7 10 -15 10 -9 0 -18 7 -21 15 -4 8 -15 15 -25 15 -10 0
-19 5 -19 10 0 6 -9 10 -20 10 -11 0 -20 7 -20 15 0 8 -9 15 -20 15 -11 0 -20
5 -20 10 0 6 -9 10 -20 10 -11 0 -20 7 -20 15 0 9 -9 15 -25 15 -14 0 -25 5
-25 10 0 6 -7 10 -15 10 -9 0 -18 7 -21 15 -4 8 -12 15 -19 15 -22 0 -75 31
-70 41 4 5 -5 9 -19 9 -14 0 -26 5 -26 10 0 6 -11 10 -25 10 -16 0 -25 6 -25
15 0 9 -9 15 -25 15 -14 0 -25 4 -25 9 0 5 -10 11 -22 13 -13 2 -22 9 -20 16
1 7 -10 12 -28 12 -16 0 -30 4 -30 9 0 5 -10 11 -22 13 -13 2 -22 9 -20 16 1
7 -10 12 -28 12 -16 0 -30 4 -30 9 0 5 -10 11 -22 13 -13 2 -22 9 -20 16 1 7
-10 12 -28 12 -16 0 -30 5 -30 10 0 6 -11 10 -25 10 -16 0 -25 6 -25 15 0 10
-10 15 -30 15 -16 0 -30 4 -30 9 0 5 -12 11 -27 13 -16 2 -27 8 -25 16 1 7 -9
12 -26 12 -15 0 -32 4 -37 9 -6 5 -21 11 -35 13 -14 2 -24 9 -22 16 1 7 -9 12
-27 12 -17 0 -33 5 -36 10 -3 6 -17 10 -31 10 -14 0 -27 7 -30 15 -4 9 -19 15
-35 15 -16 0 -29 5 -29 10 0 19 -48 11 -55 -10z"/>
</g>
</svg>
