<?xml version="1.0" standalone="no"?>
<!DOCTYPE svg PUBLIC "-//W3C//DTD SVG 20010904//EN"
 "http://www.w3.org/TR/2001/REC-SVG-20010904/DTD/svg10.dtd">
<svg version="1.0" xmlns="http://www.w3.org/2000/svg"
 width="1042.000000pt" height="1042.000000pt" viewBox="0 0 1042.000000 1042.000000"
 preserveAspectRatio="xMidYMid meet">
<metadata>
Created by potrace 1.15, written by Peter Selinger 2001-2017
</metadata>
<g transform="translate(0.000000,1042.000000) scale(0.100000,-0.100000)"
fill="#000000" stroke="none">
<path d="M5151 7730 c-49 -12 -83 -40 -108 -90 -20 -38 -23 -60 -23 -162 l0
-118 -1362 -2 -1363 -3 -49 -24 c-206 -102 -206 -348 1 -455 l33 -17 0 -1730
c0 -1168 3 -1737 10 -1750 28 -51 -37 -49 1435 -49 l1365 0 0 -158 0 -157
-907 -309 c-683 -232 -915 -315 -935 -334 -65 -60 -16 -162 76 -162 33 0 290
84 958 311 502 172 920 312 928 311 8 0 425 -140 927 -311 533 -182 927 -311
948 -311 97 0 150 88 92 155 -24 29 4 19 -1204 430 l-643 219 0 158 0 158
1371 0 1371 0 34 34 34 34 0 1735 0 1735 23 6 c35 8 115 83 137 127 25 47 27
144 4 197 -20 50 -68 98 -129 130 l-50 27 -1377 3 -1378 2 0 126 c0 138 -7
163 -60 207 -17 15 -47 31 -68 37 -41 11 -44 11 -91 0z m2749 -2545 l0 -1655
-2695 0 -2695 0 0 1655 0 1655 2695 0 2695 0 0 -1655z"/>
<path d="M4463 6537 c-67 -51 -122 -95 -123 -99 0 -4 15 -15 33 -24 17 -9 34
-18 35 -19 3 -3 -369 -561 -414 -623 -1 -2 -103 70 -228 158 l-226 162 -88
-84 c-49 -45 -186 -175 -305 -288 l-216 -205 -1 -84 0 -84 29 24 c17 13 156
145 310 292 188 180 285 266 293 261 7 -4 109 -77 227 -162 117 -84 219 -156
226 -158 8 -3 105 132 255 355 133 199 246 364 251 366 5 3 22 -1 38 -10 17
-8 35 -15 41 -15 6 0 10 56 10 165 0 126 -3 165 -12 164 -7 0 -68 -42 -135
-92z"/>
<path d="M6163 6319 c-228 -29 -489 -153 -628 -299 l-29 -30 34 -34 c58 -57
735 -666 740 -666 9 0 223 1010 216 1017 -19 20 -220 27 -333 12z"/>
<path d="M6585 6278 c-8 -25 -225 -1041 -223 -1043 15 -9 1051 -225 1056 -220
4 4 7 91 6 193 0 169 -3 196 -26 284 -98 362 -371 655 -722 774 -80 28 -85 28
-91 12z"/>
<path d="M4320 5320 l0 -610 150 0 150 0 0 610 0 610 -150 0 -150 0 0 -610z"/>
<path d="M5394 5858 c-87 -118 -160 -288 -188 -438 -20 -106 -21 -323 -1 -427
43 -225 135 -400 298 -570 217 -225 495 -343 808 -343 289 0 562 109 769 307
100 95 167 182 224 293 40 77 102 238 94 245 -2 1 -253 57 -558 124 -305 67
-563 125 -572 129 -9 4 -195 171 -413 372 -218 201 -401 366 -405 368 -5 2
-30 -25 -56 -60z"/>
<path d="M3400 5170 l0 -460 150 0 150 0 0 460 0 460 -150 0 -150 0 0 -460z"/>
<path d="M3860 5045 l0 -335 150 0 150 0 0 335 0 335 -150 0 -150 0 0 -335z"/>
<path d="M2930 4880 l0 -170 150 0 150 0 0 170 0 170 -150 0 -150 0 0 -170z"/>
<path d="M2950 4393 c-26 -33 -21 -79 11 -105 20 -17 73 -18 809 -18 736 0
789 1 809 18 32 26 37 72 11 105 l-21 27 -799 0 -799 0 -21 -27z"/>
<path d="M2950 3993 c-26 -33 -21 -79 11 -105 20 -17 73 -18 809 -18 736 0
789 1 809 18 32 26 37 72 11 105 l-21 27 -799 0 -799 0 -21 -27z"/>
</g>
</svg>
