<svg version="1.1" xmlns="http://www.w3.org/2000/svg" xmlns:xlink="http://www.w3.org/1999/xlink" x="0px" y="0px" width="24px" height="24px" viewBox="0 0 24 24" enable-background="new 0 0 24 24" xml:space="preserve">
<path fill="#5CC83B" d="M12,0c6.627,0,12,5.373,12,12c0,6.627-5.373,12-12,12C5.373,24,0,18.627,0,12C0,5.373,5.373,0,12,0z"></path>
<path fill="#32465A" d="M21.086,19.824C18.885,22.377,15.635,24,12,24c-3.567,0-6.761-1.565-8.959-4.036
    c0.846-0.884,3.309-2.132,6.244-3.323v-1.8c-0.166-0.118-0.343-0.292-0.512-0.533c-0.39-0.555-0.63-1.336-0.674-2.375
    c-0.441-0.247-0.715-0.847-0.765-1.503C7.283,9.754,7.492,9.163,7.95,8.892C7.891,8.751,7.81,8.56,7.776,8.472
    C7.683,8.241,7.609,8.032,7.549,7.83C7.363,7.21,7.538,6.796,7.735,6.394c0.226-0.459,0.395-0.961,1.033-0.912
    c1.205-2.449,6.619-2.044,7.297,0.671c0.204,0.815,0.776,1.56,0.44,2.416c-0.039,0.097-0.079,0.191-0.125,0.296
    c0.424,0.312,0.615,0.901,0.56,1.568c-0.056,0.656-0.329,1.252-0.769,1.499c-0.043,1.04-0.284,1.821-0.674,2.375
    c-0.168,0.241-0.346,0.415-0.512,0.533v1.8C17.771,17.771,20.128,18.951,21.086,19.824z"></path>
</svg>