<svg version="1.1" xmlns="http://www.w3.org/2000/svg" xmlns:xlink="http://www.w3.org/1999/xlink" x="0px" y="0px"
	 width="32px" height="32px" viewBox="0 0 32 32" enable-background="new 0 0 32 32" xml:space="preserve">
<path fill="#1C242C" d="M28.5,25h-24C4.224,25,4,24.776,4,24.5v-16C4,8.224,4.224,8,4.5,8h24C28.776,8,29,8.224,29,8.5v16
	C29,24.776,28.776,25,28.5,25z M5,24h23V9H5V24z M12.789,16.781c0.484-0.465,0.79-1.115,0.79-1.837c0-1.406-1.144-2.55-2.55-2.55
	c-1.407,0-2.551,1.144-2.551,2.55c0,0.722,0.305,1.372,0.79,1.837c-1.452,0.512-2.328,1.689-2.328,3.289v0.5h8.178v-0.5
	C15.117,18.471,14.241,17.293,12.789,16.781z M11.028,13.394c0.855,0,1.55,0.695,1.55,1.55c0,0.854-0.695,1.55-1.55,1.55
	c-0.855,0-1.551-0.695-1.551-1.55C9.477,14.089,10.173,13.394,11.028,13.394z M7.979,19.57c0.219-1.31,1.324-2.075,3.049-2.075
	s2.83,0.766,3.049,2.075H7.979z M21.5,13.5h-4v1h4V13.5z M25,15h-8v1h8V15z M25,17h-8v1h8V17z M25,19h-8v1h8V19z"/>
</svg>
