<svg version="1.1" id="Layer_1" xmlns="http://www.w3.org/2000/svg" xmlns:xlink="http://www.w3.org/1999/xlink" x="0px" y="0px"
	 viewBox="0 0 70 62" style="enable-background:new 0 0 70 62;" xml:space="preserve">
<path id="Combined-Shape" fill="#666666" d="M54,36.4c5.1-0.5,10.1-1.3,15-2.2V17c0-1.1-0.9-2-2-2H3c-1.1,0-2,0.9-2,2v17.9
	c5.3,0.9,10.6,1.5,16,2l0-2.9c0-0.6,0.4-1,1-1h3c0.6,0,1,0.4,1,1v3.2c3.6,0.2,7.3,0.3,11,0.3c5.4,0,10.7-0.2,16-0.6V34
	c0-0.6,0.4-1,1-1h3c0.6,0,1,0.4,1,1L54,36.4L54,36.4z M54,37.4V40c0,0.6-0.4,1-1,1h-3c-0.6,0-1-0.4-1-1v-2.1
	c-5.3,0.4-10.6,0.6-16,0.6c-3.7,0-7.4-0.1-11-0.3V40c0,0.6-0.4,1-1,1h-3c-0.6,0-1-0.4-1-1v-2.1c-5.4-0.4-10.7-1.1-16-2V59
	c0,1.1,0.9,2,2,2h64c1.1,0,2-0.9,2-2V35.2C64.1,36.1,59.1,36.9,54,37.4z M48.5,14H67c1.7,0,3,1.3,3,3v42c0,1.7-1.3,3-3,3H3
	c-1.7,0-3-1.3-3-3V17c0-1.7,1.3-3,3-3h18.5c0-7.5,6-13.5,13.5-13.5S48.5,6.5,48.5,14z M47.5,14c0-6.9-5.6-12.5-12.5-12.5
	S22.5,7.1,22.5,14H47.5z M18,34v6h3v-6H18z M50,34v6h3v-6H50z"/>
</svg>
