<svg version="1" xmlns="http://www.w3.org/2000/svg" width="24" height="24" viewBox="0 0 24 24"><path class="iconElement-colorSecondary_fill" d="M2 21.636c0 1.205.99 2.183 2.21 2.183h16.58c1.22 0 2.21-.978 2.21-2.183v-14.636h-21v14.636z"/><path fill="#fff" d="M19.5 22.912c0-.661-2.171-1.883-4.879-3.034v-1.401c.149-.117.278-.258.381-.416.289-.433.469-1.043.501-1.853.326-.192.53-.656.571-1.168.042-.519-.102-.978-.416-1.222l.093-.23c.25-.668.341-1.285.19-1.92-.506-2.116-4.99-2.22-5.885-.312-.476-.038-.818.114-.986.472-.147.313-.12.701.018 1.184.049.17.105.336.169.5l.13.327c-.341.211-.496.672-.458 1.198.037.512.241.979.569 1.172.032.809.212 1.418.502 1.852.103.158.231.3.38.416v1.402c-2.709 1.15-4.88 2.373-4.88 3.034v.905h14v-.906z"/><path class="iconElement-colorPrimary_fill" d="M2 2h21v5h-21z"/><path class="iconElement-colorSecondary_fill" d="M20.165 2c-.097-1.393-1.261-2.5-2.692-2.5s-2.594 1.107-2.69 2.5h1c.094-.841.812-1.5 1.69-1.5.88 0 1.599.659 1.692 1.5l.019.182c0 .928-.767 1.682-1.709 1.682-.276 0-.5.224-.5.5s.224.5.5.5c1.494 0 2.709-1.203 2.709-2.682l-.019-.182zM10.217 2c-.097-1.393-1.26-2.5-2.691-2.5s-2.595 1.107-2.692 2.5h1c.094-.841.812-1.5 1.691-1.5s1.599.659 1.692 1.5l.019.182c0 .928-.767 1.682-1.71 1.682-.276 0-.5.224-.5.5s.224.5.5.5c1.494 0 2.71-1.203 2.71-2.682l-.019-.182z"/></svg>