<svg xmlns="http://www.w3.org/2000/svg" width="24" height="24" viewBox="0 0 24 24">
    <g fill="none" fill-rule="evenodd">
        <g transform="rotate(-90 12 12)">
            <path fill="#32465A" d="M0 1h24v16a3 3 0 0 1-3 3H3a3 3 0 0 1-3-3V1z"/>
            <path fill="#5CC83B" d="M0 1h24v4H0z"/>
            <path fill="#5CC83B" d="M4 1h5v1H4zM14 1h5v1h-5z"/>
            <rect width="1" height="3" x="20" fill="#32465A" rx=".5"/>
            <rect width="1" height="3" x="16" fill="#32465A" rx=".5"/>
            <rect width="1" height="3" x="12" fill="#32465A" rx=".5"/>
            <rect width="1" height="3" x="8" fill="#32465A" rx=".5"/>
            <rect width="1" height="3" x="4" fill="#32465A" rx=".5"/>
        </g>
        <path fill="#FFF" d="M7 8h11v1H7zM7 11h11v1H7zM7 14h6v1H7z"/>
    </g>
</svg>
