<svg version="1.1" xmlns="http://www.w3.org/2000/svg" xmlns:xlink="http://www.w3.org/1999/xlink" x="0px" y="0px"  width="54px" height="44px" viewBox="0 0 54 44" enable-background="new 0 0 54 44" xml:space="preserve">

<path fill="#6DC452" d="M11,6h32c0.553,0,1,0.448,1,1v21c0,1.104-0.896,2-2,2H12c-1.104,0-2-0.896-2-2V7C10,6.448,10.448,6,11,6z"/>
<path fill="#5cc83b" d="M11,6h32c0.553,0,1,0.448,1,1v21c0,1.104-0.896,2-2,2H12c-1.104,0-2-0.896-2-2V7C10,6.448,10.448,6,11,6z"/>
<path fill="#1C242C" d="M11.027,6h31.95c0.552,0,1,0.447,1,1c0,0.273-0.112,0.535-0.311,0.724l-14.62,13.91
	c-0.748,0.712-1.916,0.737-2.694,0.058L10.37,7.754C9.954,7.391,9.91,6.76,10.273,6.343C10.463,6.125,10.738,6,11.027,6z"/>
</svg>
