<svg version="1.1" xmlns="http://www.w3.org/2000/svg" xmlns:xlink="http://www.w3.org/1999/xlink" x="0px" y="0px" width="48px" height="48px" viewBox="0 0 48 48" enable-background="new 0 0 48 48" xml:space="preserve">
<path fill="#E6E6ED" d="M24,0C10.745,0,0,10.745,0,24c0,6.121,2.295,11.703,6.066,15.942C10.462,44.884,16.866,48,24,48c7.27,0,13.779-3.236,18.18-8.342C45.804,35.455,48,29.985,48,24C48,10.745,37.255,0,24,0z"/>
<path fill="#5CC83B" d="M24,48c7.27,0,13.779-3.236,18.18-8.342c-1.908-1.747-6.629-4.112-12.207-6.376v-3.601c0.334-0.238,0.687-0.584,1.023-1.065c0.779-1.11,1.261-2.673,1.347-4.752c0.878-0.492,1.427-1.685,1.538-2.997c0.112-1.333-0.273-2.511-1.121-3.135c0.094-0.211,0.172-0.399,0.25-0.594c0.676-1.711-0.472-3.202-0.88-4.832c-1.354-5.429-12.184-6.24-14.594-1.341c-1.276-0.099-1.614,0.905-2.066,1.823c-0.395,0.803-0.744,1.633-0.372,2.873c0.119,0.403,0.268,0.82,0.454,1.283c0.069,0.176,0.23,0.559,0.347,0.839c-0.915,0.542-1.333,1.726-1.23,3.076c0.1,1.312,0.648,2.511,1.53,3.005c0.087,2.079,0.568,3.642,1.348,4.752c0.279,0.41,0.625,0.771,1.023,1.067v3.6c-5.887,2.387-10.825,4.891-12.503,6.659C10.462,44.884,16.866,48,24,48z"/>
<path fill="#32465A" d="M33.98,16.944v-0.233c0-5.455-4.44-9.894-9.896-9.894c-5.455,0-9.894,4.44-9.894,9.894v0.225c-0.917,0.138-1.598,0.924-1.602,1.852v4.46c0,0.856,0.58,1.572,1.366,1.8v0.081c0.001,2.549,2.066,4.614,4.615,4.617h2.578c0.189,0.578,0.727,0.97,1.335,0.972h2.685c0.776,0,1.411-0.637,1.411-1.413v-0.15c0-0.778-0.635-1.412-1.411-1.412h-2.685c-0.624,0-1.15,0.408-1.335,0.971h-2.578c-1.978-0.003-3.579-1.606-3.581-3.584v-0.08c0.804-0.23,1.36-0.963,1.364-1.8v-4.461c0-0.593-0.283-1.116-0.715-1.461v-0.616c0-4.659,3.79-8.447,8.447-8.447c4.658,0,8.45,3.788,8.45,8.447v0.548c-0.479,0.343-0.798,0.899-0.798,1.529v4.46c0,1.036,0.849,1.881,1.882,1.881h0.002c1.036,0,1.881-0.845,1.881-1.88v-4.461C35.501,17.877,34.844,17.114,33.98,16.944"/>
</svg>
