<svg xmlns="http://www.w3.org/2000/svg" width="64" height="38"><g fill="none" fill-rule="evenodd"><rect width="64" height="38" fill="#26337A" rx="1.667"/><path fill="#FFFFFE" d="M26.211 25.046l1.943-12.08h3.105l-1.943 12.08h-3.105M40.58 13.263a7.66 7.66 0 0 0-2.783-.507c-3.07 0-5.23 1.639-5.249 3.986-.02 1.737 1.542 2.705 2.72 3.282 1.21.592 1.616.97 1.611 1.5-.008.809-.966 1.18-1.858 1.18-1.244 0-1.904-.183-2.925-.634l-.4-.193-.434 2.705c.724.336 2.067.628 3.46.643 3.262 0 5.382-1.62 5.407-4.126.01-1.377-.816-2.42-2.608-3.282-1.085-.56-1.751-.931-1.744-1.498.001-.502.563-1.04 1.779-1.04a5.435 5.435 0 0 1 2.324.464l.279.138.42-2.618m4.135 7.5c.257-.694 1.236-3.376 1.236-3.376-.018.032.256-.7.413-1.153l.21 1.042s.596 2.883.718 3.487h-2.577zm3.83-7.785h-2.4c-.744 0-1.3.214-1.627 1.002l-4.61 11.07h3.26s.532-1.489.653-1.816l3.977.007c.093.421.378 1.81.378 1.81h2.882l-2.513-12.073zm-24.938-.002l-3.039 8.236-.325-1.674c-.566-1.929-2.33-4.02-4.301-5.067l2.78 10.565 3.286-.002 4.89-12.058h-3.29"/><path fill="#EC982D" d="M17.746 12.968H12.74l-.041.25c3.896 1.001 6.474 3.416 7.544 6.32l-1.088-5.55c-.188-.766-.734-.993-1.408-1.02"/></g></svg>