<svg xmlns="http://www.w3.org/2000/svg" width="64" height="38"><g fill="none" fill-rule="evenodd"><rect width="64" height="38" fill="#006" rx="1.667"/><path fill="#C00" d="M35.46 19.307c0 6.827-5.52 12.36-12.33 12.36-6.808 0-12.328-5.533-12.328-12.36 0-6.826 5.52-12.36 12.329-12.36 6.809 0 12.328 5.534 12.328 12.36"/><path fill="#F90" d="M39.683 6.948a12.268 12.268 0 0 0-8.277 3.199c-.445.405-.86.843-1.244 1.308h2.49c.34.416.654.852.94 1.31h-4.37c-.262.42-.5.856-.71 1.308h5.79c.198.424.372.86.522 1.309H27.99c-.142.426-.262.863-.358 1.308h7.551a12.48 12.48 0 0 1-.358 6.544H27.99c.15.448.324.885.522 1.309h5.791a12.39 12.39 0 0 1-.71 1.309h-4.37c.285.456.599.893.94 1.307h2.49c-.383.467-.8.904-1.246 1.31a12.266 12.266 0 0 0 8.277 3.198c6.809 0 12.328-5.533 12.328-12.36 0-6.825-5.52-12.36-12.328-12.36"/><path fill="#006" d="M20.252 20.66a2.297 2.297 0 0 0-.299-.02c-.759 0-1.142.26-1.142.776 0 .317.187.52.48.52.545 0 .938-.521.96-1.275zm.973 2.272h-1.109l.026-.528c-.339.417-.79.616-1.403.616-.725 0-1.223-.567-1.223-1.392 0-1.242.865-1.966 2.35-1.966.152 0 .347.014.546.04.041-.169.052-.24.052-.331 0-.338-.233-.464-.858-.464a4.453 4.453 0 0 0-1.417.23l.185-1.147c.667-.197 1.107-.27 1.602-.27 1.15 0 1.759.517 1.757 1.495.003.262-.04.585-.108 1.01-.116.739-.366 2.322-.4 2.707zm-4.269 0h-1.339l.768-4.819-1.713 4.82h-.912l-.113-4.793-.805 4.792h-1.253l1.046-6.269h1.925l.116 3.51 1.175-3.51h2.14l-1.035 6.27m24.381-2.273a2.286 2.286 0 0 0-.298-.02c-.76 0-1.143.26-1.143.776 0 .317.187.52.48.52.545 0 .938-.521.96-1.275zm.974 2.272H41.2l.026-.528c-.338.417-.79.616-1.402.616-.726 0-1.223-.567-1.223-1.392 0-1.242.865-1.966 2.35-1.966.151 0 .345.014.545.04.041-.169.052-.24.052-.331 0-.338-.233-.464-.858-.464a4.462 4.462 0 0 0-1.418.23c.015-.085.187-1.147.187-1.147.666-.197 1.107-.27 1.601-.27 1.15 0 1.758.517 1.757 1.495.003.262-.04.585-.108 1.01-.116.739-.366 2.322-.4 2.707zm-15.137-.077a3.052 3.052 0 0 1-.962.165c-.684 0-1.058-.394-1.058-1.12-.01-.225.099-.818.184-1.359.077-.476.58-3.479.58-3.479h1.33l-.155.772h.804l-.182 1.225h-.806c-.154.97-.375 2.178-.377 2.338 0 .263.14.378.458.378.153 0 .27-.016.361-.049l-.177 1.129m4.079-.041c-.457.14-.898.208-1.365.206-1.49-.002-2.266-.78-2.266-2.274 0-1.743.987-3.026 2.328-3.026 1.097 0 1.798.718 1.798 1.845 0 .374-.048.739-.164 1.254h-2.65c-.09.74.383 1.048 1.157 1.048a3.15 3.15 0 0 0 1.383-.321l-.221 1.268zm-.748-3.023c.007-.106.14-.91-.62-.91-.423 0-.726.324-.85.91h1.47zm-8.477-.345c0 .644.312 1.089 1.02 1.423.541.256.625.331.625.563 0 .317-.239.461-.768.461-.4 0-.771-.062-1.2-.201l-.184 1.178c.305.066.576.127 1.393.15 1.412 0 2.065-.539 2.065-1.704 0-.7-.273-1.111-.944-1.42-.56-.259-.625-.316-.625-.554 0-.276.222-.417.655-.417.262 0 .621.028.961.077l.19-1.183a9.014 9.014 0 0 0-1.177-.099c-1.497 0-2.016.784-2.01 1.726m15.733-1.591c.372 0 .72.097 1.196.338l.22-1.36c-.197-.078-.887-.531-1.472-.531-.895 0-1.653.446-2.185 1.18-.777-.257-1.097.264-1.488.783l-.348.082c.026-.171.05-.341.043-.513h-1.23c-.168 1.578-.465 3.176-.698 4.755l-.06.343h1.338a84.67 84.67 0 0 0 .42-3.019l.505-.28c.075-.281.31-.376.784-.364a5.725 5.725 0 0 0-.096 1.045c0 1.668.9 2.706 2.34 2.706.37 0 .69-.048 1.183-.183l.234-1.429c-.443.219-.807.322-1.136.322-.778 0-1.25-.576-1.25-1.528 0-1.38.7-2.347 1.7-2.347m11.332-1.192l-.298 1.811c-.365-.482-.758-.832-1.277-.832-.675 0-1.29.513-1.693 1.27-.56-.117-1.14-.316-1.14-.316v.005c.045-.422.064-.68.06-.767h-1.23c-.167 1.578-.465 3.176-.698 4.755l-.061.343h1.34c.18-1.176.318-2.154.42-2.929.458-.415.687-.776 1.148-.752a4.38 4.38 0 0 0-.324 1.654c0 1.274.643 2.115 1.616 2.115.49 0 .867-.17 1.234-.562l-.063.474h1.267l1.02-6.269h-1.321zm-1.674 5.092c-.455 0-.686-.34-.686-1.006 0-1.002.431-1.712 1.038-1.712.46 0 .71.35.71.998 0 1.011-.439 1.72-1.062 1.72z"/><path fill="#FFF" d="M17.341 22.56h-1.338l.767-4.819-1.712 4.82h-.913l-.112-4.792-.806 4.791h-1.253l1.047-6.268h1.924l.054 3.88 1.299-3.88h2.078l-1.035 6.268m3.296-2.27a2.22 2.22 0 0 0-.299-.022c-.758 0-1.142.261-1.142.776 0 .317.187.52.48.52.545 0 .938-.52.961-1.275zm.973 2.27h-1.108l.025-.528c-.338.417-.79.617-1.403.617-.725 0-1.222-.569-1.222-1.393 0-1.242.865-1.965 2.35-1.965.151 0 .346.014.545.04a1.29 1.29 0 0 0 .052-.332c0-.338-.233-.463-.858-.463a4.436 4.436 0 0 0-1.417.228l.186-1.146c.667-.196 1.107-.27 1.602-.27 1.149 0 1.758.518 1.757 1.495.002.262-.041.586-.109 1.01-.116.738-.365 2.322-.4 2.707zm17.952-6.1l-.219 1.36c-.478-.24-.824-.337-1.195-.337-1 0-1.7.968-1.7 2.349 0 .951.47 1.526 1.249 1.526.33 0 .693-.102 1.136-.322l-.235 1.429c-.493.135-.811.184-1.182.184-1.442 0-2.34-1.039-2.34-2.707 0-2.24 1.242-3.807 3.015-3.807.585 0 1.275.248 1.471.325m2.16 3.83a2.203 2.203 0 0 0-.298-.022c-.759 0-1.143.261-1.143.776 0 .317.188.52.48.52.545 0 .938-.52.96-1.275zm.974 2.27h-1.11l.026-.528c-.338.417-.79.617-1.402.617-.726 0-1.223-.569-1.223-1.393 0-1.242.864-1.965 2.35-1.965.151 0 .345.014.544.04.042-.17.053-.241.053-.332 0-.338-.233-.463-.858-.463a4.439 4.439 0 0 0-1.417.228l.186-1.146c.667-.196 1.106-.27 1.601-.27 1.15 0 1.759.518 1.757 1.495.003.262-.04.586-.108 1.01-.116.738-.365 2.322-.4 2.707zm-15.137-.077a3.05 3.05 0 0 1-.962.166c-.684 0-1.058-.395-1.058-1.12-.009-.226.1-.818.184-1.359.077-.477.58-3.48.58-3.48h1.331l-.156.772h.683l-.182 1.225h-.685c-.154.97-.375 2.178-.377 2.338 0 .264.14.378.458.378.153 0 .27-.015.361-.049l-.177 1.129m4.079-.041c-.457.14-.898.207-1.365.207-1.49-.001-2.266-.782-2.266-2.275 0-1.743.988-3.026 2.328-3.026 1.098 0 1.798.718 1.798 1.846 0 .374-.049.738-.164 1.253h-2.65c-.09.74.383 1.049 1.157 1.049.476 0 .906-.1 1.384-.322l-.222 1.268zm-.748-3.023c.008-.107.142-.91-.619-.91-.423 0-.727.325-.85.91h1.47zm-8.477-.345c0 .645.312 1.09 1.02 1.424.542.255.626.33.626.562 0 .318-.24.462-.77.462-.399 0-.77-.063-1.199-.201l-.183 1.176c.304.067.575.128 1.392.152 1.413 0 2.065-.54 2.065-1.704 0-.701-.273-1.112-.944-1.42-.56-.26-.625-.317-.625-.555 0-.275.222-.417.655-.417.262 0 .621.029.962.077l.19-1.182a9.089 9.089 0 0 0-1.178-.1c-1.497 0-2.015.784-2.01 1.726M49.78 22.56h-1.266l.062-.474c-.367.393-.743.563-1.234.563-.972 0-1.616-.84-1.616-2.116 0-1.696.998-3.125 2.178-3.125.52 0 .912.212 1.278.695l.297-1.811h1.32l-1.02 6.268zm-1.975-1.178c.624 0 1.061-.708 1.061-1.718 0-.647-.249-1-.709-1-.607 0-1.038.711-1.038 1.714 0 .667.231 1.004.686 1.004zm-3.904-3.92c-.167 1.578-.465 3.176-.698 4.755l-.06.343h1.338c.479-3.117.594-3.726 1.345-3.65.12-.638.343-1.197.508-1.478-.56-.118-.873.2-1.284.804.033-.262.092-.515.081-.774h-1.23m-11.017 0c-.168 1.578-.466 3.176-.699 4.755l-.06.343h1.338c.48-3.117.594-3.726 1.344-3.65.12-.638.344-1.197.51-1.478-.56-.118-.875.2-1.284.804.032-.262.092-.515.08-.774h-1.23"/></g></svg>