<svg xmlns="http://www.w3.org/2000/svg" width="64" height="38"><g fill="none" fill-rule="evenodd"><rect width="64" height="38" fill="#12438C" rx="4"/><path fill="#FFF" d="M40.208 19.513h2.467a1.4 1.4 0 0 1 .163.012 1.734 1.734 0 0 1 .107.016l.016.004a1 1 0 0 1 .244.09 1.073 1.073 0 0 1 .408.358 1.099 1.099 0 0 1 .192.635 1.178 1.178 0 0 1-.11.495 1.087 1.087 0 0 1-.734.587l-.016.004a.519.519 0 0 1-.066.011 1.73 1.73 0 0 1-.204.017H40.21v-2.229zm3.283-2.522a1.107 1.107 0 0 1-.082.707.969.969 0 0 1-.448.444 1.067 1.067 0 0 1-.285.094l-.01.002a.676.676 0 0 1-.072.009 2.26 2.26 0 0 1-.163.01h-2.223V16.2h2.24l.024.001a1.741 1.741 0 0 1 .194.017l.01.002a1.022 1.022 0 0 1 .326.116 1.069 1.069 0 0 1 .244.19.962.962 0 0 1 .245.465zm5.055-10.664h.017v21.121a4.273 4.273 0 0 1-.384 1.761 4.282 4.282 0 0 1-.57.914 4.72 4.72 0 0 1-.041.049l-.041.047a4.39 4.39 0 0 1-.122.135l-.041.042-.04.042-.042.04-.04.039a4.326 4.326 0 0 1-.245.214l-.04.033-.042.032-.04.03-.041.03-.041.03-.04.03-.042.027-.04.028-.041.027a3.948 3.948 0 0 1-.122.076l-.041.024-.04.023-.042.023-.04.023-.041.021-.041.022-.04.02-.042.02-.04.02-.041.019-.04.018-.042.018-.04.018-.041.016-.04.017-.042.016a3.9 3.9 0 0 1-.04.015l-.041.015-.041.015-.04.014-.042.013-.04.013-.041.013-.04.012-.042.012-.04.011-.041.011-.041.01-.04.01-.042.01-.04.009-.041.009-.04.008-.042.008-.04.007-.041.007-.04.007-.042.006-.04.006-.041.006-.041.004-.04.005-.042.004-.04.004c-.014 0-.028.002-.041.003l-.04.003-.042.003-.04.002-.041.002-.041.001-.04.001h-.041l-.041.001h-6.204v-8.611h6.611l.041-.002h.041l.04-.002.042-.002.04-.003.041-.002.04-.004.042-.003.04-.004.041-.005.04-.005.042-.005.04-.006.041-.007.041-.006.04-.008.042-.007.04-.009.041-.009.04-.009.042-.01a3.123 3.123 0 0 0 .163-.045l.04-.013a2.613 2.613 0 0 0 .123-.042l.04-.015.041-.016.041-.017a2.595 2.595 0 0 0 .693-.433 2.07 2.07 0 0 0 .326-.38 1.906 1.906 0 0 0 .204-.418 1.852 1.852 0 0 0 .082-.352 2.042 2.042 0 0 0 0-.536 1.794 1.794 0 0 0-.204-.612 1.76 1.76 0 0 0-.326-.423 2.007 2.007 0 0 0-.326-.26 2.399 2.399 0 0 0-.408-.217 3.128 3.128 0 0 0-.04-.017l-.042-.017a3.083 3.083 0 0 0-.04-.015l-.041-.015a3.61 3.61 0 0 0-.163-.054l-.041-.012-.04-.012a3.134 3.134 0 0 0-.205-.048l-.04-.009-.041-.008-.041-.007a3.108 3.108 0 0 0-.04-.007l-.042-.006a3.198 3.198 0 0 0-.04-.006l-.041-.006-.04-.005-.042-.004-.04-.005-.041-.003-.04-.004-.039-.003v-.049l.038-.005.04-.007.042-.007.04-.008.041-.009.04-.008a2.882 2.882 0 0 0 .49-.159 2.359 2.359 0 0 0 .53-.323 2.046 2.046 0 0 0 .286-.295 1.807 1.807 0 0 0 .367-1.322 1.877 1.877 0 0 0-.123-.503 1.669 1.669 0 0 0-.448-.63 1.968 1.968 0 0 0-.408-.284 2.444 2.444 0 0 0-.448-.189 2.875 2.875 0 0 0-.041-.012l-.041-.013a3.002 3.002 0 0 0-.082-.022l-.04-.01a2.994 2.994 0 0 0-.082-.02l-.04-.008-.041-.008-.041-.008-.04-.007-.042-.007-.04-.006-.041-.006-.041-.005-.04-.005-.042-.004-.04-.004-.041-.004-.04-.003-.042-.003-.04-.002-.017-.001-.024-.002-.041-.002-.04-.002-.041-.002-.041-.002-.041-.002-.04-.002h-.042l-.04-.002h-6.041v-4.387a4.243 4.243 0 0 1 .496-1.987 4.064 4.064 0 0 1 .244-.402l.041-.059.04-.056.042-.054.04-.053.041-.05.04-.05.042-.048.04-.047.041-.045a4.526 4.526 0 0 1 .163-.168l.041-.04.04-.038.042-.038.04-.036.041-.035a4.386 4.386 0 0 1 .122-.102l.041-.032.041-.03a4.408 4.408 0 0 1 .082-.061l.04-.029.041-.028.04-.028.042-.027.04-.026.041-.025.041-.026.04-.024.042-.024.04-.022.041-.023.04-.022.042-.021.04-.02.041-.021.04-.02.042-.019.04-.019.041-.018.041-.017.04-.017.042-.017.04-.016.041-.015.04-.016.042-.014.04-.014.041-.014.041-.013.04-.013.041-.012.041-.012.041-.011.04-.011.042-.011.04-.01.041-.01.04-.009.042-.009.04-.008.041-.008.041-.008.04-.007.042-.006.04-.007.041-.006.04-.005.042-.005.04-.005.041-.004.04-.004.042-.004.04-.003.041-.002.041-.003c.014 0 .027 0 .04-.002l.042-.001.04-.001h.041l.04-.001h6.199zM14.858 21.026l-.088-.042V10.552a4.242 4.242 0 0 1 .495-1.985 4.277 4.277 0 0 1 .244-.402l.04-.059.041-.055.041-.055.04-.053.041-.05a4.058 4.058 0 0 1 .082-.098l.04-.046.041-.046.041-.043a4.053 4.053 0 0 1 .081-.085l.041-.04.04-.04.041-.038.041-.037.04-.037.042-.035.04-.035a3.92 3.92 0 0 1 .204-.16l.04-.03a3.862 3.862 0 0 1 .163-.111l.041-.027.04-.025.041-.025.041-.024.04-.024.041-.023.041-.023.04-.022.042-.021a4.18 4.18 0 0 1 .04-.02l.041-.021.04-.02.041-.019.041-.019.04-.018.041-.017.041-.017.04-.017.042-.016.04-.016.04-.015.042-.014.04-.015.041-.013.04-.013c.014-.005.028-.01.041-.013l.041-.013.04-.012.042-.01.04-.012.04-.01.042-.01.04-.01.041-.01.04-.008.041-.009.041-.008.04-.008.042-.007.04-.006.04-.007.042-.006.04-.005.041-.005.04-.005.041-.005.041-.003.04-.004.042-.003.04-.003.04-.002.042-.002.04-.002.041-.001h.04l.041-.001h6.222v21.12a4.267 4.267 0 0 1-.278 1.512 4.259 4.259 0 0 1-.652 1.132l-.04.05-.041.049a4.126 4.126 0 0 1-.04.047l-.041.046-.041.043-.04.044a4.303 4.303 0 0 1-.164.16l-.04.038-.041.037-.04.036-.041.034-.041.035-.04.032-.042.033-.04.031-.04.031-.042.03-.04.03-.041.028-.04.028-.041.026-.041.027-.04.026-.042.025-.04.024-.04.024-.042.023a3.678 3.678 0 0 1-.081.045l-.04.022-.041.02-.041.021-.04.02-.041.02-.041.018-.04.018-.042.018-.04.017-.041.017-.04.016-.041.016-.041.015-.04.015-.041.014-.041.014-.04.014-.042.013-.04.012-.041.012-.04.012-.041.01-.041.012-.04.01-.041.01-.041.009-.04.009-.042.009-.04.007-.041.008-.04.008-.041.006-.041.007-.04.006-.041.006-.041.005-.04.005-.042.004-.04.004-.041.004c-.014 0-.027.002-.04.003l-.041.003-.041.002-.04.003-.041.001-.041.002h-.04l-.042.001H14.77V22.77s.03.009.088.023l.04.01.041.01.04.01.042.01.04.009.041.01.04.009.041.009.041.008.04.01.041.008.041.009.04.008.042.008.04.009.041.008.04.008.041.008.041.008.04.007.041.008.041.007.04.008.042.007.04.007.041.008.04.007.041.007.041.006.04.007.041.007.041.007.04.006.042.006.04.007.041.006.04.006.041.006.041.006.04.006.041.006.041.005.04.006.042.006.04.005.041.005.04.006.041.005.041.005.04.005.041.005.041.005.04.004.042.005.04.004.041.005.04.004.041.005.041.004.04.004.041.004.041.004.04.004.042.003.04.004.04.004.042.003.04.004.041.003.04.003.041.003.041.003.04.003.042.003.04.003.04.003.042.002.04.003.041.002.04.003.041.002.041.002.04.002.042.002.04.002.04.002.042.001.04.002.041.002.04.001.041.001.041.002h.04l.042.002h.04l.04.002h.042l.04.001h.041l.04.001h.122l.042.001h.162l.041-.001h.04l.041-.002h.041l.04-.001.042-.001.04-.001.04-.002h.042l.04-.002.041-.002.04-.002.041-.002.041-.001.04-.003.042-.002.04-.002.04-.003.042-.002.04-.003.041-.003.04-.003.041-.003.041-.004.04-.003.042-.004.04-.004.04-.004.042-.004.04-.004.041-.005.04-.005.041-.004.041-.005.04-.005.042-.006.04-.005.04-.006.042-.006.04-.006.041-.006.04-.007.041-.007.041-.006.04-.007.042-.008.04-.007.04-.008.042-.008.04-.008.041-.009.04-.008.041-.01.041-.009.04-.009.042-.01.04-.01.04-.01.042-.01.04-.011.041-.011.04-.012.041-.012.041-.011.04-.013.042-.013.04-.012.04-.014.042-.014.04-.013.041-.015.04-.015.041-.015.041-.016.04-.016.042-.017.04-.017c.014-.005.028-.01.04-.017l.042-.018.04-.018.041-.02.04-.019.041-.02.041-.02.04-.021.042-.022a3.854 3.854 0 0 0 .122-.07l.04-.024.041-.026.04-.025.041-.027.041-.028.04-.029.041-.03.041-.03a3.014 3.014 0 0 0 .122-.098l.041-.035.04-.037.041-.038a2.67 2.67 0 0 0 .082-.08l.04-.043.041-.046a2.63 2.63 0 0 0 .448-.7 2.84 2.84 0 0 0 .163-.486 3.325 3.325 0 0 0 .081-.483 4.16 4.16 0 0 0 .02-.42v-4.901h-3.632v4.9a2.579 2.579 0 0 1-.05.503 2.181 2.181 0 0 1-.164.48 1.87 1.87 0 0 1-.447.585 1.816 1.816 0 0 1-.367.249 1.917 1.917 0 0 1-.285.124 2.136 2.136 0 0 1-.162.052l-.041.01a2.47 2.47 0 0 1-.244.051l-.041.007a3.027 3.027 0 0 1-.081.01l-.041.005-.04.004c-.014 0-.028.002-.041.003a3.117 3.117 0 0 1-.082.005l-.04.002-.041.002h-.041l-.04.001h-.122l-.041-.002h-.041l-.04-.002-.042-.002-.04-.002-.041-.002-.04-.002-.041-.003-.041-.003-.04-.003-.041-.003-.041-.004-.04-.004-.042-.004-.04-.004-.041-.005-.04-.005-.041-.005-.041-.005-.04-.006-.041-.006-.041-.006-.04-.006-.042-.007-.04-.007-.041-.007-.04-.007-.041-.008-.041-.008-.04-.008-.041-.008-.041-.008-.04-.01-.042-.008-.04-.01-.041-.009-.04-.01-.041-.01-.041-.01-.04-.01-.041-.01-.041-.01-.04-.012-.042-.01-.04-.012-.04-.012-.042-.012-.04-.012-.041-.012-.04-.012-.041-.013-.041-.013-.04-.013-.042-.013-.04-.014-.04-.014-.042-.014-.04-.014-.041-.014-.04-.015-.041-.014-.041-.015-.04-.016-.042-.015-.04-.015-.04-.016-.042-.016-.04-.016-.041-.016-.04-.017-.041-.017-.041-.017-.04-.017-.042-.017-.04-.017-.04-.018-.042-.018-.04-.018-.041-.018-.04-.018-.041-.019-.041-.019-.04-.018-.042-.02-.04-.019zm11.686-5.016a3.83 3.83 0 0 0-.087.072v-5.53a4.243 4.243 0 0 1 .494-1.984 4.277 4.277 0 0 1 .245-.402l.04-.06.04-.055.042-.054.04-.053.041-.051a4.107 4.107 0 0 1 .081-.098l.041-.046.04-.045a4.146 4.146 0 0 1 .082-.087l.04-.041.042-.04.04-.04.041-.038.04-.038.041-.036a3.7 3.7 0 0 1 .041-.036l.04-.034a4.907 4.907 0 0 1 .286-.22 4.845 4.845 0 0 1 .081-.055l.04-.027.042-.026c.013-.01.027-.017.04-.026l.04-.025.042-.024.04-.024.041-.023.04-.023.041-.021.041-.022.04-.02.042-.02.04-.02.041-.02.04-.019.041-.017.041-.018.04-.017.041-.017.041-.016.04-.015.042-.016.04-.014.041-.015.04-.013.041-.013c.014-.005.027-.01.041-.013l.04-.012.042-.013.04-.01.04-.012.042-.01.04-.01.041-.01.04-.01.041-.008.041-.009.04-.008.041-.008.041-.007.04-.006.042-.007.04-.006.041-.005.04-.005.041-.005.041-.005.04-.003.042-.004.04-.003.04-.003.042-.002.04-.002.041-.002.04-.001h.041l.041-.001h6.221v21.12a4.262 4.262 0 0 1-.32 1.614 4.233 4.233 0 0 1-.365.694l-.041.061a4.42 4.42 0 0 1-.204.275l-.04.05-.041.049a4.122 4.122 0 0 1-.04.046l-.041.046-.041.044-.04.044-.042.041a4.208 4.208 0 0 1-.081.08l-.04.04-.041.037-.041.037-.04.036-.041.034-.041.035-.04.032-.042.033-.04.031-.041.031-.04.03-.041.03-.041.027-.04.029-.041.026-.041.027-.04.026-.042.025-.04.024-.041.024a4.362 4.362 0 0 1-.04.023l-.041.023-.041.022-.04.022-.041.02c-.014.008-.028.014-.041.02l-.04.021-.042.02-.04.018-.041.018-.04.018-.041.017-.041.017-.04.016-.042.016-.04.015-.04.015-.042.014-.04.014c-.014.005-.027.01-.041.013l-.04.014-.041.012-.041.012-.04.012a3.451 3.451 0 0 1-.042.01l-.04.012-.04.01-.042.01-.04.009-.041.009-.04.009-.041.007-.041.008-.04.008-.042.006-.04.007-.04.006-.042.006-.04.005-.041.005-.04.004-.041.004-.041.004-.04.003-.042.003-.04.003-.041.002-.04.001-.041.002h-.041l-.04.001h-6.235V21.92a3.919 3.919 0 0 0 .169.137l.04.031.041.03a4.176 4.176 0 0 0 .082.058l.04.028.04.027.042.026a4 4 0 0 0 .04.026l.041.026.04.024.041.025.041.023.04.023.042.023.04.022.04.022.042.02.04.021.041.02.04.02.041.02.041.018.04.019.042.018.04.018.04.017.042.017.04.017.041.016.04.016.041.016.041.015.04.015.042.015.04.014.04.014.042.014.04.013.041.013.04.013.041.013.041.012.04.012.042.012.04.012.04.011.042.011.04.011.041.01.04.011.041.01.041.01.04.01.042.01.04.009.041.009.04.009.041.009.041.008.04.008.041.008.041.008.04.008.042.007.04.008.041.007.04.007.041.007.041.006.04.007.042.006.04.006.04.006.042.006.04.006.041.005.04.006.041.005.041.005.04.005.041.004.041.005.04.004.042.005.04.004.041.004.04.004.041.004.041.003.04.004.042.003.04.003.04.003.042.003.04.003.041.003.04.003.041.002.041.002.04.003.042.002.04.002.04.002.042.001.04.002.041.002h.04l.041.002.041.002h.04l.042.002h.04l.041.001.04.001h.041l.041.001h.081l.041.001h.245l.041-.001h.04l.041-.001.041-.001.04-.001h.042l.04-.002.041-.001.04-.001.041-.001.041-.002.04-.001.041-.002.041-.001.04-.002.042-.002h.02l.02-.002.041-.001.04-.003.041-.002.041-.002.04-.003.042-.003.04-.002.04-.003.042-.003.04-.004.041-.003.04-.003.041-.004.041-.004.04-.004.042-.003.04-.005.041-.004.04-.004.041-.004.041-.005.04-.004.041-.005.041-.005.04-.005.042-.005.04-.005.041-.005.04-.005.041-.006.041-.005.04-.006.041-.005.041-.006.04-.006.042-.006.04-.006.041-.006.04-.006.041-.007.041-.006.04-.007.041-.006.041-.007.04-.007.042-.006.04-.007.041-.007.04-.007.041-.007.041-.008.04-.007.042-.007.04-.008.04-.007.042-.008.04-.008.041-.007.04-.008.041-.008.041-.008.04-.008.042-.008.04-.009.04-.008.042-.008.04-.009.041-.008.04-.01.041-.008.041-.009.04-.009.042-.009.04-.009.04-.009.042-.01.04-.009.041-.01.04-.009.041-.01.04-.01v-1.787l-.04.02-.04.02-.041.02-.04.02-.041.02-.041.02-.04.018-.041.02-.041.018-.04.019-.042.018-.04.018-.041.018-.04.018-.041.017-.041.018-.04.017-.041.017-.041.016-.04.017-.042.016-.04.016-.041.016-.04.015-.041.015-.041.016-.04.014-.041.015-.041.014-.04.015-.042.013-.04.014-.041.014-.04.013-.041.013-.041.013-.04.012-.042.012-.04.013-.04.011-.042.012-.04.011-.041.011-.04.011-.041.011-.041.01-.04.01-.042.01-.04.01-.04.01-.042.01-.04.008-.041.01-.04.008-.041.008-.041.008-.04.008-.042.008-.04.007-.04.008-.042.007-.04.007-.041.006-.04.007-.041.006-.041.006-.04.005-.042.006-.04.005-.041.005-.04.005-.041.005-.041.004-.04.004-.041.004-.041.004-.04.003-.042.004-.024.002h-.016l-.041.004-.04.002-.041.002-.041.002-.04.002-.042.002-.04.001h-.04l-.042.002h-.162l-.041-.002h-.04l-.042-.002-.04-.002-.04-.002-.042-.003-.04-.003-.041-.003-.04-.003-.041-.004-.041-.004-.04-.005-.042-.005-.04-.005-.04-.006-.042-.006-.04-.007-.041-.007-.04-.007-.041-.008-.041-.008-.04-.009-.042-.01-.04-.009-.04-.01-.042-.01-.04-.012-.041-.012a3.576 3.576 0 0 1-.122-.038l-.04-.014-.042-.015-.04-.015-.041-.016-.04-.016-.041-.017-.041-.018-.04-.018-.041-.02a3.038 3.038 0 0 1-.082-.04l-.04-.022-.041-.023-.041-.024a3.02 3.02 0 0 1-.081-.05l-.041-.026-.04-.028a2.513 2.513 0 0 1-.082-.058l-.04-.032a2.722 2.722 0 0 1-.042-.032l-.04-.034a2.423 2.423 0 0 1-.407-.446 2.422 2.422 0 0 1-.285-.527 2.779 2.779 0 0 1-.122-.383 3.205 3.205 0 0 1-.082-.492 3.962 3.962 0 0 1 .041-1.03 3.215 3.215 0 0 1 .122-.467 2.8 2.8 0 0 1 .163-.372 2.533 2.533 0 0 1 .366-.515 2.44 2.44 0 0 1 .163-.16l.04-.036.041-.033a2.723 2.723 0 0 1 .082-.065l.04-.03.041-.028.04-.028.042-.026a2.497 2.497 0 0 1 .081-.05l.04-.024.041-.023.041-.021a3.069 3.069 0 0 1 .082-.041l.04-.02.04-.018.042-.018.04-.017.041-.016.04-.016.041-.015.041-.015.04-.014a3.59 3.59 0 0 1 .123-.038l.04-.012.041-.011.041-.01.04-.011.041-.01.041-.009.04-.009.042-.008.04-.008.041-.007.04-.007.041-.007.041-.006.04-.006.041-.005.041-.005.04-.005.042-.004.04-.004.041-.003.04-.003.041-.003.041-.003.04-.002.041-.002.041-.001.04-.001.042-.001h.081l.04-.001h.041l.041.001h.04l.041.002.041.002.04.001.042.003.04.002.041.002.04.003.017.001.024.002.041.003.04.004.042.004.04.004.04.004.042.004.04.005.041.004.04.005.041.006.041.005.04.006.042.005.04.006.041.007.04.006.041.007.041.007.04.007.041.008.041.007.04.008.042.008.04.008.041.009.04.009.041.009.041.009.04.01.041.01.041.01.04.01.042.01.04.01.041.011.04.011.041.012.041.011.04.012.041.012.041.012.04.013.042.013.04.013.041.013.04.013.041.014.041.014.04.014.042.015.04.014.04.015.042.015.04.016.041.015.04.016.041.016.041.016.04.017.042.017.04.017.04.017.042.017.04.018.041.018.04.018.041.018.041.019.04.018.042.02.04.019.04.019.042.02.04.02.041.02.04.02.041.02.04.02V15.23l-.04-.01-.04-.01-.041-.01-.04-.01-.041-.009-.041-.009-.04-.01-.041-.008-.041-.01-.04-.008-.042-.01-.04-.008-.041-.009-.04-.008-.041-.009-.041-.008-.04-.008-.041-.009-.041-.008-.04-.008-.042-.008-.04-.008-.041-.008-.04-.007-.041-.008-.041-.008-.04-.007-.041-.008-.041-.007-.04-.007-.042-.008-.04-.007-.041-.007-.04-.007-.041-.007-.041-.006-.04-.007-.042-.007-.04-.006-.04-.007-.042-.006-.04-.006-.041-.007-.04-.006-.041-.006-.041-.006-.04-.005-.042-.006-.04-.006-.04-.005-.042-.006-.04-.005-.041-.006-.04-.005-.041-.005-.041-.005-.04-.005-.042-.005-.04-.004-.04-.005-.042-.004-.04-.005-.041-.004-.04-.004-.041-.004-.041-.004-.04-.004-.042-.003-.04-.004-.041-.003-.04-.004-.041-.003-.041-.003-.04-.003-.041-.003-.041-.002-.04-.003-.042-.002-.04-.003-.041-.002-.04-.002h-.022l-.02-.002-.04-.001-.04-.002-.042-.002-.04-.001-.04-.001-.042-.002-.04-.001-.041-.001-.04-.001-.041-.001-.041-.001-.04-.001h-.042l-.04-.001h-.04l-.042-.001h-.04l-.041-.001h-.284l-.042.001h-.04l-.041.002h-.04l-.041.001-.041.001-.04.001-.042.002h-.04l-.04.002-.042.002-.04.002-.041.001-.04.002-.041.002-.041.002-.04.003-.042.002-.04.002-.041.003-.04.003-.041.003-.041.003-.04.003-.041.003-.041.003-.04.004-.042.003-.04.004-.041.004-.04.004-.041.004-.041.004-.04.005-.042.005-.04.004-.04.005-.042.005-.04.005-.041.006-.04.005-.041.006-.041.006-.04.006-.041.006-.041.006-.04.007-.042.006-.04.007-.041.007-.04.007-.041.008-.041.007-.04.008-.042.008-.04.008-.04.008-.042.009-.04.008-.041.01-.04.008-.041.01-.041.009-.04.01-.042.01-.04.01-.04.01-.042.011-.04.01-.041.012-.04.011-.041.012-.041.012-.04.012-.042.012-.04.013-.041.013-.04.013-.041.014-.041.013-.04.014-.041.015-.041.014-.04.015-.042.016-.04.015-.041.016-.04.017-.041.016-.041.017-.04.018-.041.017-.041.018-.04.019-.042.019-.04.02-.041.019-.04.02-.041.02-.041.022-.04.022-.041.022-.041.022a4.264 4.264 0 0 0-.04.023l-.042.024a4.782 4.782 0 0 0-.081.049l-.04.025a4.688 4.688 0 0 0-.041.026l-.041.027-.04.027-.041.028a4.799 4.799 0 0 0-.082.058l-.04.03a4.292 4.292 0 0 0-.123.095z"/></g></svg>