
<svg version="1.1" xmlns="http://www.w3.org/2000/svg" xmlns:xlink="http://www.w3.org/1999/xlink" x="0px" y="0px" width="18px" height="18px" viewBox="0 0 18 18" enable-background="new 0 0 18 18" xml:space="preserve">
	<path d="M9,17.5c-4.687,0-8.5-3.813-8.5-8.5c0-4.687,3.813-8.5,8.5-8.5c4.687,0,8.5,3.813,8.5,8.5C17.5,13.687,13.687,17.5,9,17.5z M9,1.5C4.864,1.5,1.5,4.864,1.5,9s3.364,7.5,7.5,7.5s7.5-3.364,7.5-7.5S13.136,1.5,9,1.5z M11.813,12.812c-0.268,0-0.519-0.104-0.707-0.292l-1.949-1.949l-1.95,1.949c-0.378,0.377-1.037,0.377-1.414,0c-0.189-0.188-0.293-0.439-0.293-0.707s0.104-0.519,0.293-0.707l1.949-1.949l-1.95-1.95c-0.39-0.39-0.39-1.024,0-1.414c0.377-0.377,1.037-0.377,1.414,0l1.95,1.95l1.949-1.95c0.377-0.377,1.039-0.377,1.414,0c0.389,0.39,0.389,1.023,0,1.413l-1.95,1.95l1.95,1.949c0.39,0.392,0.389,1.025,0,1.414C12.332,12.709,12.081,12.812,11.813,12.812z"/>
</svg>
