<svg version="1.1" xmlns="http://www.w3.org/2000/svg" xmlns:xlink="http://www.w3.org/1999/xlink" x="0px" y="0px" width="48.584px" height="57px" viewBox="-273.208 449 48.584 57" enable-background="new -273.208 449 48.584 57"
	 xml:space="preserve">
	
	<path fill="#5CC83B" d="M-267.22,449v50.602h30.623c0,3.543,2.672,6.398,5.984,6.398c3.316,0,5.988-2.855,5.988-6.398V449H-267.22z"/>
	<path fill="#FFFFFF" d="M-227.496,489.871v-2.473h-5.59v-5.59h-2.474v5.59h-5.59v2.473h5.59v5.541h2.474v-5.54L-227.496,489.871z"/>
	<path fill="#FFFFFF" d="M-236.598,500.014c0-0.742,0.147-1.435,0.396-2.128h-37.007v2.078c0,3.315,2.721,6.036,6.036,6.036h36.562c-3.302,0.006-5.98-2.664-5.986-5.964C-236.596,500.027-236.596,500.021-236.598,500.014L-236.598,500.014z M-259.306,457.583h26.814v2.177h-26.814V457.583z M-259.306,464.213h26.814v2.178h-26.814V464.213z M-259.306,470.842h26.814v2.178h-26.814V470.842z"/>
	<g class="normal">
		<path fill="#1C242C" d="M-236.595,500.014c0-0.742,0.146-1.435,0.395-2.127h-37.006v2.077c0,3.315,2.721,6.036,6.035,6.036h36.562c-3.303,0.006-5.98-2.664-5.986-5.964C-236.595,500.029-236.595,500.021-236.595,500.014z"/>
	</g>
</svg>
