<svg version="1.1" xmlns="http://www.w3.org/2000/svg" xmlns:xlink="http://www.w3.org/1999/xlink" x="0px" y="0px" width="33px" height="36px" viewBox="0 0 33 36" enable-background="new 0 0 33 36" xml:space="preserve">
<path class="iconElement-colorPrimary_fill" d="M23.936,31.718H3.096V0h26.431v21.35l-2.592-2.593l-8.472,8.472l4.243,4.242l1.229-1.228V31.718zM19.652,34.966H0.096V7l1.4,1.584v24.982h16.756L19.652,34.966z M7.396,7.462h17.26v-1.4H7.395L7.396,7.462L7.396,7.462zM7.396,12.344h17.26v-1.4H7.395L7.396,12.344L7.396,12.344z M7.396,17.7h17.26v-1.4H7.396V17.7z M7.396,22.7h11.4v-1.4h-11.4V22.7z"/>
<path class="iconElement-colorSecondary_fill" d="M27.936,25.414v9.648h-2v-9.648l-3.229,3.229l-1.414-1.414l5.643-5.643l5.643,5.643l-1.414,1.414L27.936,25.414z"/>
</svg>
