<svg xmlns="http://www.w3.org/2000/svg" width="23.265" height="24" viewBox="0 0 23.265 24">
  <g id="Download" transform="translate(-465.44 -1494.127)">
    <path id="Path_1894" data-name="Path 1894" d="M487.935,1509.231a.769.769,0,0,0-.77.77v10.064H466.98V1510a.77.77,0,0,0-1.54,0v11.6H488.7V1510A.769.769,0,0,0,487.935,1509.231Z" transform="translate(0 -3.477)" fill="#00a6be"/>
    <path id="Path_1895" data-name="Path 1895" d="M473.908,1504.419l4.042,4.043V1494.9a.77.77,0,0,1,1.54,0v13.562l4.039-4.04a.77.77,0,1,1,1.088,1.089l-5.9,5.9-5.9-5.9a.77.77,0,0,1,1.089-1.089Z" transform="translate(-1.647 0)" fill="#00a6be"/>
  </g>
</svg>
