<svg version="1.1" xmlns="http://www.w3.org/2000/svg" xmlns:xlink="http://www.w3.org/1999/xlink" x="0px" y="0px" width="100px" height="100px" viewBox="0 0 100 100" enable-background="new 0 0 100 100" xml:space="preserve">
    <path id="path-1_1_" d="M7.987,100c0-3.785,13.03-10.777,29.288-17.373v-8.031c-0.74-0.529-1.53-1.307-2.286-2.385
    c-1.737-2.475-2.812-5.963-3.008-10.602c-1.971-1.104-3.192-3.777-3.414-6.709c-0.229-3.01,0.703-5.658,2.748-6.865
    c-0.264-0.627-0.621-1.479-0.777-1.873c-0.412-1.031-0.746-1.965-1.016-2.865c-0.83-2.764-0.99-4.986-0.109-6.777
    c1.009-2.049,3.063-2.922,5.917-2.703c5.374-10.93,32.29-10.334,35.318,1.785c0.91,3.637,0.363,7.172-1.141,10.994
    c-0.172,0.434-0.35,0.855-0.553,1.328c1.882,1.389,2.744,4.02,2.498,6.994c-0.252,2.93-1.473,5.594-3.435,6.689
    c-0.189,4.641-1.269,8.129-3.005,10.604c-0.757,1.078-1.547,1.855-2.286,2.385v8.031C78.981,89.219,92.013,96.215,92.013,100H7.987z"></path>
</svg>