<svg xmlns="http://www.w3.org/2000/svg" width="23.085" height="26.089" viewBox="0 0 23.085 26.089">
  <g id="edite-icon" transform="translate(-709.429 -1490.767)">
    <g id="Group_1112" data-name="Group 1112" transform="translate(710.436 1491.776)">
      <g id="Group_1111" data-name="Group 1111">
        <path id="Path_1961" data-name="Path 1961" d="M730.078,1492.859a3.615,3.615,0,0,1,.6,4.8l-12.7,15.059a5.089,5.089,0,0,1-1.052.9,25.644,25.644,0,0,1-5.127,2.107s-.667.264-.972-.037l-.166-.14s-.321-.221-.187-.988c0,0,.823-5.062,1.821-6.245l13.236-15.631S727.524,1490.529,730.078,1492.859Z" transform="translate(-710.436 -1491.776)" fill="none" stroke="#00a6be" stroke-linecap="round" stroke-linejoin="round" stroke-width="2"/>
        <line id="Line_114" data-name="Line 114" x2="4.635" y2="3.912" transform="translate(14.288 2.344)" fill="none" stroke="#00a6be" stroke-linecap="round" stroke-linejoin="round" stroke-width="2"/>
        <line id="Line_115" data-name="Line 115" x2="4.216" y2="3.556" transform="translate(2.943 16.527)" fill="none" stroke="#00a6be" stroke-linecap="round" stroke-linejoin="round" stroke-width="2"/>
      </g>
      <line id="Line_116" data-name="Line 116" x2="20.158" transform="translate(0.718 24.055)" fill="none" stroke="#00a6be" stroke-linecap="round" stroke-linejoin="round" stroke-width="2"/>
    </g>
  </g>
</svg>
