<svg version="1.1" xmlns="http://www.w3.org/2000/svg" xmlns:xlink="http://www.w3.org/1999/xlink" x="0px" y="0px" width="38px" height="38px" viewBox="0 0 38 38" enable-background="new 0 0 38 38" xml:space="preserve">
<path class="iconElement-colorPrimary_fill" d="M23.795,19.35v1.219c-1.397,0.037-2.773,0.139-4.061,0.305C21.491,20.511,22.927,20.001,23.795,19.35z M1.157,19.496v3.401c0.651,1.054,4.877,2.376,11.222,2.376h0.287v-1.075c0-1.381,2.062-2.378,4.976-2.978c-1.655,0.215-3.461,0.326-5.264,0.326C7.81,21.547,3.203,20.848,1.157,19.496z M12.378,20.547c6.91,0,11.32-1.571,11.32-2.653v-3.196c-1.991,1.396-6.674,2.121-11.32,2.121c-4.568,0-9.175-0.7-11.221-2.051v3.399C1.805,19.222,6.032,20.547,12.378,20.547z M1.157,24.225v3.127c0,1.081,4.41,2.65,11.32,2.65h0.189v-1.076v-2.652h-0.287C7.811,26.273,3.203,25.574,1.157,24.225zM12.378,11.091c6.91,0,11.32-1.57,11.32-2.651V8.439V5.236c-1.987,1.399-6.669,2.127-11.32,2.127c-4.568,0-9.175-0.7-11.221-2.051v3.401C1.805,9.766,6.032,11.09,12.378,11.091z M12.378,15.819c6.91,0,11.32-1.571,11.32-2.653V9.971c-1.991,1.396-6.674,2.12-11.32,2.12c-4.568-0.001-9.175-0.7-11.221-2.051v3.399C1.805,14.494,6.032,15.819,12.378,15.819z M12.378,6.363c6.91,0,11.32-1.571,11.32-2.653c0-0.01,0-0.02,0.001-0.029c-0.08-1.08-4.472-2.621-11.319-2.621c-0.402,0-0.794,0.006-1.179,0.017C5.029,1.256,1.157,2.699,1.157,3.711v0.272C1.805,5.038,6.032,6.363,12.378,6.363z"/>
<path class="iconElement-colorSecondary_fill"  d="M13.666,24.198c0-1.081,4.41-2.651,11.32-2.651s11.32,1.57,11.32,2.651s-4.41,2.651-11.32,2.651S13.666,25.279,13.666,24.198z M24.986,27.85c-4.646,0-9.329-0.724-11.32-2.12v3.196c0,1.081,4.41,2.652,11.32,2.652s11.32-1.571,11.32-2.652v-3.196C34.315,27.126,29.632,27.85,24.986,27.85z M13.666,30.457v3.197c0,1.081,4.41,2.652,11.32,2.652s11.32-1.571,11.32-2.652v-3.197c-1.991,1.396-6.675,2.121-11.32,2.121C20.34,32.578,15.657,31.854,13.666,30.457z"/>
</svg>
