<svg width="24" height="24" xmlns="http://www.w3.org/2000/svg"><g fill="none" fill-rule="evenodd"><path d="M18.147 11.781v3.17a.274.274 0 0 1-.275.274H7.309a.274.274 0 0 1-.275-.274v-3.17c0-.5 1.724-1.425 3.874-2.297V8.42a1.288 1.288 0 0 1-.302-.315c-.23-.328-.372-.789-.398-1.402-.26-.146-.422-.5-.451-.888-.03-.397.092-.748.364-.907a9.99 9.99 0 0 1-.104-.248 4.638 4.638 0 0 1-.134-.378c-.11-.366-.131-.66-.015-.898.134-.27.406-.386.783-.357.71-1.445 4.27-1.367 4.671.236.12.481.048.948-.151 1.454l-.073.176c.248.183.362.531.33.924-.033.388-.195.74-.454.886-.026.613-.168 1.074-.398 1.402-.1.142-.204.245-.302.315v1.063c2.15.872 3.873 1.796 3.873 2.297" fill="#5CC83B"/><path d="M11.001 18.042v3.17a.274.274 0 0 1-.275.273H.164a.274.274 0 0 1-.275-.274v-3.17c0-.5 1.724-1.425 3.874-2.297v-1.062a1.288 1.288 0 0 1-.302-.315c-.23-.328-.373-.79-.398-1.403-.262-.146-.423-.499-.452-.887-.03-.398.093-.748.363-.908a14.858 14.858 0 0 1-.102-.248 4.638 4.638 0 0 1-.135-.378c-.11-.366-.13-.66-.015-.897.134-.271.405-.386.783-.358.711-1.445 4.27-1.366 4.671.237.12.48.048.948-.15 1.454l-.074.175c.249.184.363.532.33.925-.033.388-.194.74-.454.885-.025.614-.168 1.075-.398 1.403-.1.142-.204.244-.302.315v1.062c2.15.872 3.873 1.797 3.873 2.298M24.403 18.042v3.17a.274.274 0 0 1-.274.273H13.566a.274.274 0 0 1-.275-.274v-3.17c0-.5 1.724-1.425 3.874-2.297v-1.062a1.307 1.307 0 0 1-.302-.315c-.23-.328-.373-.79-.398-1.403-.26-.146-.422-.499-.452-.887-.03-.398.093-.748.364-.908a9.99 9.99 0 0 1-.103-.248 4.638 4.638 0 0 1-.135-.378c-.11-.366-.13-.66-.015-.897.134-.271.406-.386.783-.358.711-1.445 4.27-1.366 4.671.237.121.48.048.948-.15 1.454a5.352 5.352 0 0 1-.074.175c.249.184.364.532.33.925-.032.388-.194.74-.454.885-.025.614-.167 1.075-.398 1.403-.099.142-.203.244-.302.315v1.062c2.15.872 3.873 1.797 3.873 2.298" fill="#32465A"/></g></svg>