<svg xmlns="http://www.w3.org/2000/svg" width="24" height="24" viewBox="0 0 24 24"><g fill="#5CC83B" fill-rule="evenodd"><path d="M11.956 21.702c-5.375 0-9.746-4.371-9.746-9.746s4.37-9.746 9.746-9.746c5.375 0 9.746 4.37 9.746 9.746 0 5.375-4.371 9.746-9.746 9.746zm0-21.702c-6.58 0-11.956 5.375-11.956 11.956 0 6.58 5.375 11.906 11.956 11.906 6.58 0 11.906-5.325 11.906-11.906 0-6.58-5.325-11.956-11.906-11.956zM13.387 16.213l-1.005.452 1.306-6.681c.15-.703-.603-1.457-1.407-1.005l-2.461 1.357c-.452.25-.603.853-.352 1.306.251.452.854.602 1.306.351l.603-.301-1.256 6.38c-.1.552.352 1.155.955 1.155.15 0 .301-.05.402-.1l2.662-1.156c.503-.2.703-.753.503-1.256-.201-.502-.754-.703-1.256-.502m-.662-8.953a1.35 1.35 0 0 0 1.356-1.356 1.35 1.35 0 0 0-1.356-1.357 1.35 1.35 0 0 0-1.357 1.357 1.35 1.35 0 0 0 1.357 1.356"/></g></svg>