<svg version="1.1" xmlns="http://www.w3.org/2000/svg" xmlns:xlink="http://www.w3.org/1999/xlink" x="0px" y="0px" width="32px" height="32px" viewBox="0 0 32 32" enable-background="new 0 0 32 32" xml:space="preserve">
<path fill="#1C242C" d="M17,12.5c-2.481,0-4.5,2.019-4.5,4.5s2.019,4.5,4.5,4.5s4.5-2.019,4.5-4.5S19.481,12.5,17,12.5z M17,20.5
	c-1.93,0-3.5-1.57-3.5-3.5s1.57-3.5,3.5-3.5s3.5,1.57,3.5,3.5S18.93,20.5,17,20.5z M29,16.5h-2.525
	c-0.254-4.839-4.136-8.721-8.975-8.975V5c0-0.276-0.224-0.5-0.5-0.5S16.5,4.724,16.5,5v2.525c-4.839,0.254-8.721,4.136-8.975,8.975
	H5c-0.276,0-0.5,0.224-0.5,0.5s0.224,0.5,0.5,0.5h2.525c0.254,4.839,4.136,8.721,8.975,8.975V29c0,0.276,0.224,0.5,0.5,0.5
	s0.5-0.224,0.5-0.5v-2.525c4.839-0.254,8.721-4.136,8.975-8.975H29c0.276,0,0.5-0.224,0.5-0.5S29.276,16.5,29,16.5z M17,25.5
	c-4.687,0-8.5-3.813-8.5-8.5c0-4.687,3.813-8.5,8.5-8.5c4.687,0,8.5,3.813,8.5,8.5C25.5,21.687,21.687,25.5,17,25.5z"/>
</svg>
