<svg xmlns="http://www.w3.org/2000/svg" xmlns:xlink="http://www.w3.org/1999/xlink" width="70.879" height="77.078" viewBox="0 0 70.879 77.078">
  <defs>
    <clipPath id="clip-path">
      <rect id="Rectangle_1204" data-name="Rectangle 1204" width="70" height="70" fill="none" stroke="#00a6be" stroke-width="2"/>
    </clipPath>
  </defs>
  <g id="Cancellation_Letter_issuance" data-name="Cancellation Letter issuance" transform="translate(0.879 3.954)">
    <g id="Group_1675" data-name="Group 1675" transform="translate(0.121 0.121)">
      <g id="Group_1679" data-name="Group 1679">
        <path id="Path_2291" data-name="Path 2291" d="M42.944.5H.5V76.408" transform="translate(-0.5 -3.575)" fill="none" stroke="#00a6be" stroke-miterlimit="10" stroke-width="2"/>
        <path id="Path_2292" data-name="Path 2292" d="M192.658.5h8.462l10.749,11.327V34.907" transform="translate(-146.307 -0.5)" fill="none" stroke="#00a6be" stroke-miterlimit="10" stroke-width="2"/>
        <path id="Path_2293" data-name="Path 2293" d="M227.647,1.239V12.3h10.687" transform="translate(-172.856 -1.061)" fill="none" stroke="#00a6be" stroke-miterlimit="10" stroke-width="2"/>
        <path id="Path_2294" data-name="Path 2294" d="M.5,327.068v14.365H66.493v-8.907" transform="translate(-0.5 -269.43)" fill="none" stroke="#00a6be" stroke-miterlimit="10" stroke-width="2"/>
      </g>
    </g>
    <line id="Line_499" data-name="Line 499" x2="8.21" transform="translate(4.814 5.201)" fill="none" stroke="#00a6be" stroke-miterlimit="10" stroke-width="2"/>
    <line id="Line_500" data-name="Line 500" x2="2.546" transform="translate(14.044 5.201)" fill="none" stroke="#00a6be" stroke-miterlimit="10" stroke-width="2"/>
    <line id="Line_501" data-name="Line 501" x2="2.71" transform="translate(29.197 17.324)" fill="none" stroke="#00a6be" stroke-miterlimit="10" stroke-width="2"/>
    <line id="Line_502" data-name="Line 502" x2="2.805" transform="translate(34.026 17.324)" fill="none" stroke="#00a6be" stroke-miterlimit="10" stroke-width="2"/>
    <line id="Line_503" data-name="Line 503" x2="13.919" transform="translate(38.073 17.324)" fill="none" stroke="#00a6be" stroke-miterlimit="10" stroke-width="2"/>
    <line id="Line_504" data-name="Line 504" x2="31.488" transform="translate(7.084 18.412)" fill="none" stroke="#00a6be" stroke-miterlimit="10" stroke-width="2"/>
    <line id="Line_505" data-name="Line 505" x2="16.363" transform="translate(35.736 18.412)" fill="none" stroke="#00a6be" stroke-miterlimit="10" stroke-width="2"/>
    <line id="Line_506" data-name="Line 506" x2="50.687" transform="translate(7.084 23.741)" fill="none" stroke="#00a6be" stroke-miterlimit="10" stroke-width="2"/>
    <line id="Line_507" data-name="Line 507" x2="21.555" transform="translate(6.932 34.335)" fill="none" stroke="#00a6be" stroke-miterlimit="10" stroke-width="2"/>
    <line id="Line_508" data-name="Line 508" x2="8.475" transform="translate(6.932 39.698)" fill="none" stroke="#00a6be" stroke-miterlimit="10" stroke-width="2"/>
    <line id="Line_509" data-name="Line 509" x2="10.123" transform="translate(16.078 39.698)" fill="none" stroke="#00a6be" stroke-miterlimit="10" stroke-width="2"/>
    <line id="Line_510" data-name="Line 510" x2="2.704" transform="translate(6.932 45.06)" fill="none" stroke="#00a6be" stroke-miterlimit="10" stroke-width="2"/>
    <line id="Line_511" data-name="Line 511" x2="15.894" transform="translate(10.88 45.06)" fill="none" stroke="#00a6be" stroke-miterlimit="10" stroke-width="2"/>
    <line id="Line_512" data-name="Line 512" x2="2.704" transform="translate(6.932 50.326)" fill="none" stroke="#00a6be" stroke-miterlimit="10" stroke-width="2"/>
    <line id="Line_513" data-name="Line 513" x2="15.894" transform="translate(10.88 50.326)" fill="none" stroke="#00a6be" stroke-miterlimit="10" stroke-width="2"/>
    <g id="Group_1677" data-name="Group 1677">
      <g id="Group_1676" data-name="Group 1676" clip-path="url(#clip-path)">
        <ellipse id="Ellipse_157" data-name="Ellipse 157" cx="19.991" cy="17.223" rx="19.991" ry="17.223" transform="translate(29.91 27.703)" fill="none" stroke="#00a6be" stroke-miterlimit="10" stroke-width="2"/>
        <path id="Path_2295" data-name="Path 2295" d="M210.8,202.1a11.658,11.658,0,0,1,2.851,7.56c0,7.1-6.682,12.857-14.924,12.857a16.538,16.538,0,0,1-8.628-2.365" transform="translate(-149.217 -164.653)" fill="none" stroke="#00a6be" stroke-miterlimit="10" stroke-width="2"/>
        <path id="Path_2296" data-name="Path 2296" d="M163.863,194.137l-.089-.1a11.68,11.68,0,0,1-2.949-7.675c0-7.1,6.682-12.857,14.924-12.857a16.471,16.471,0,0,1,9,2.6" transform="translate(-126.238 -141.357)" fill="none" stroke="#00a6be" stroke-miterlimit="10" stroke-width="2"/>
        <line id="Line_514" data-name="Line 514" x1="9.492" y2="8.177" transform="translate(37.555 44.517)" fill="none" stroke="#00a6be" stroke-miterlimit="10" stroke-width="2"/>
        <line id="Line_515" data-name="Line 515" x1="9.591" y2="8.263" transform="translate(48.849 34.701)" fill="none" stroke="#00a6be" stroke-miterlimit="10" stroke-width="2"/>
        <line id="Line_516" data-name="Line 516" y1="17.934" x2="20.816" transform="translate(40.929 37.46)" fill="none" stroke="#00a6be" stroke-miterlimit="10" stroke-width="2"/>
      </g>
    </g>
  </g>
</svg>
