<svg xmlns="http://www.w3.org/2000/svg" xmlns:xlink="http://www.w3.org/1999/xlink" width="45.12" height="45.083" viewBox="0 0 45.12 45.083">
  <defs>
    <clipPath id="clip-path">
      <rect id="Rectangle_1009" data-name="Rectangle 1009" width="45" height="45" fill="rgba(0,0,0,0)" stroke="#00a6be" stroke-width="1"/>
    </clipPath>
  </defs>
  <g id="Request_Cancellation" data-name="Request Cancellation" transform="translate(0.073)">
    <g id="Group_1409" data-name="Group 1409">
      <g id="Group_1408" data-name="Group 1408" clip-path="url(#clip-path)">
        <path id="Path_2274" data-name="Path 2274" d="M49.238,25.318V1H18.971V15.915" transform="translate(-10.386 -0.583)" fill="rgba(0,0,0,0)" stroke="#00a6be" stroke-miterlimit="10" stroke-width="1"/>
      </g>
    </g>
    <path id="Path_2275" data-name="Path 2275" d="M39.7,87.855H18.972V81.708" transform="translate(-10.387 -47.617)" fill="rgba(0,0,0,0)" stroke="#00a6be" stroke-miterlimit="10" stroke-width="1"/>
    <g id="Group_1411" data-name="Group 1411" transform="translate(0.452 4.099)">
      <g id="Group_1413" data-name="Group 1413">
        <rect id="Rectangle_1010" data-name="Rectangle 1010" width="11.368" height="4.062" rx="2.031" transform="translate(23.069)" fill="rgba(0,0,0,0)" stroke="#00a6be" stroke-miterlimit="10" stroke-width="1"/>
        <rect id="Rectangle_1011" data-name="Rectangle 1011" width="12.036" height="1.56" rx="0.78" transform="translate(22.675 6.201)" fill="rgba(0,0,0,0)" stroke="#00a6be" stroke-miterlimit="10" stroke-width="1"/>
        <path id="Rectangle_1012" data-name="Rectangle 1012" d="M.78,0h13.9a.779.779,0,0,1,.779.779v0a.78.78,0,0,1-.78.78H.78A.78.78,0,0,1,0,.78v0A.78.78,0,0,1,.78,0Z" transform="translate(19.256 12.04)" fill="rgba(0,0,0,0)" stroke="#00a6be" stroke-miterlimit="10" stroke-width="1"/>
        <path id="Rectangle_1013" data-name="Rectangle 1013" d="M.78,0h13.9a.779.779,0,0,1,.779.779v0a.78.78,0,0,1-.78.78H.78A.78.78,0,0,1,0,.78v0A.78.78,0,0,1,.78,0Z" transform="translate(19.256 15.663)" fill="rgba(0,0,0,0)" stroke="#00a6be" stroke-miterlimit="10" stroke-width="1"/>
        <path id="Rectangle_1014" data-name="Rectangle 1014" d="M.78,0h13.9a.779.779,0,0,1,.779.779v0a.78.78,0,0,1-.78.78H.78A.78.78,0,0,1,0,.78v0A.78.78,0,0,1,.78,0Z" transform="translate(19.256 19.076)" fill="rgba(0,0,0,0)" stroke="#00a6be" stroke-miterlimit="10" stroke-width="1"/>
        <path id="Rectangle_1015" data-name="Rectangle 1015" d="M.78,0h13.9a.779.779,0,0,1,.779.779v0a.78.78,0,0,1-.78.78H.78A.78.78,0,0,1,0,.78v0A.78.78,0,0,1,.78,0Z" transform="translate(19.256 22.596)" fill="rgba(0,0,0,0)" stroke="#00a6be" stroke-miterlimit="10" stroke-width="1"/>
        <rect id="Rectangle_1016" data-name="Rectangle 1016" width="8.581" height="1.56" rx="0.78" transform="translate(19.256 27.368)" fill="rgba(0,0,0,0)" stroke="#00a6be" stroke-miterlimit="10" stroke-width="1"/>
        <path id="Path_2276" data-name="Path 2276" d="M29.477,12.8a.888.888,0,1,1-.885-.816A.853.853,0,0,1,29.477,12.8Z" transform="translate(-15.622 -11.083)" fill="rgba(0,0,0,0)" stroke="#00a6be" stroke-miterlimit="10" stroke-width="1"/>
        <path id="Path_2277" data-name="Path 2277" d="M36.009,10.845a.888.888,0,1,1-.885-.816A.853.853,0,0,1,36.009,10.845Z" transform="translate(-19.198 -9.943)" fill="rgba(0,0,0,0)" stroke="#00a6be" stroke-miterlimit="10" stroke-width="1"/>
        <path id="Path_2278" data-name="Path 2278" d="M42.552,12.8a.888.888,0,1,1-.885-.816A.853.853,0,0,1,42.552,12.8Z" transform="translate(-22.78 -11.083)" fill="rgba(0,0,0,0)" stroke="#00a6be" stroke-miterlimit="10" stroke-width="1"/>
        <path id="Path_2279" data-name="Path 2279" d="M30.358,21.974l-1.347-3.5a5.35,5.35,0,0,1,6.519,0l-1.042,3.5Z" transform="translate(-16.336 -14.214)" fill="rgba(0,0,0,0)" stroke="#00a6be" stroke-miterlimit="10" stroke-width="1"/>
        <path id="Path_2280" data-name="Path 2280" d="M14.193,53.63a3.374,3.374,0,1,1,.287-6.735,3.384,3.384,0,1,1,0,6.745q-.145,0-.287-.01" transform="translate(-6.377 -31.427)" fill="rgba(0,0,0,0)" stroke="#00a6be" stroke-miterlimit="10" stroke-width="1"/>
        <path id="Path_2281" data-name="Path 2281" d="M11.388,38.039l.564,1.054a2.513,2.513,0,0,0,1.894,1.269l1.261.169A2.277,2.277,0,0,1,16.5,44.487l-.912.82a2.212,2.212,0,0,0-.724,2.054l.215,1.158a2.479,2.479,0,0,1-3.65,2.445L10.3,50.418a2.7,2.7,0,0,0-2.342,0l-1.128.547a2.479,2.479,0,0,1-3.65-2.445L3.4,47.361a2.212,2.212,0,0,0-.724-2.054l-.913-.82A2.277,2.277,0,0,1,3.157,40.53l1.261-.169a2.512,2.512,0,0,0,1.894-1.269l.564-1.054A2.615,2.615,0,0,1,11.388,38.039Z" transform="translate(-1 -25.513)" fill="rgba(0,0,0,0)" stroke="#00a6be" stroke-miterlimit="10" stroke-width="1"/>
        <path id="Path_2282" data-name="Path 2282" d="M18.971,75.454l3.945,2.43v-6.41" transform="translate(-10.839 -45.751)" fill="rgba(0,0,0,0)" stroke="#00a6be" stroke-miterlimit="10" stroke-width="1"/>
        <path id="Path_2283" data-name="Path 2283" d="M11.757,71.277v6.492l3.265-2.43" transform="translate(-6.889 -45.636)" fill="rgba(0,0,0,0)" stroke="#00a6be" stroke-miterlimit="10" stroke-width="1"/>
        <ellipse id="Ellipse_147" data-name="Ellipse 147" cx="0.846" cy="0.78" rx="0.846" ry="0.78" transform="translate(37.543 22.596)" fill="rgba(0,0,0,0)" stroke="#00a6be" stroke-miterlimit="10" stroke-width="1"/>
        <line id="Line_438" data-name="Line 438" y1="0.393" transform="translate(8.132 29.671)" fill="none" stroke="#00a6be" stroke-miterlimit="10" stroke-width="1"/>
        <path id="Path_2285" data-name="Path 2285" d="M0,0,.137.007l0,.065L0,.067Z" transform="matrix(0.707, -0.707, 0.707, 0.707, 8.027, 29.788)" fill="none" stroke="#00a6be" stroke-width="1"/>
        <ellipse id="Ellipse_148" data-name="Ellipse 148" cx="8.049" cy="7.422" rx="8.049" ry="7.422" transform="translate(27.996 25.641)" fill="rgba(0,0,0,0)" stroke="#00a6be" stroke-miterlimit="10" stroke-width="1"/>
        <path id="Path_2284" data-name="Path 2284" d="M78.483,86.722l-1.2-1.466c-.489-.56-.8-.925-1.089-1.308h-.028a16.136,16.136,0,0,1-1.019,1.318l-1.131,1.456h-1.4l2.876-3.354-2.764-3.276h1.41l1.243,1.554c.349.433.614.767.865,1.121h.042a13.717,13.717,0,0,1,.852-1.121l1.285-1.554h1.4l-2.862,3.226,2.932,3.4Z" transform="translate(-40.211 -50.773)" fill="#00a6be" stroke="#00a6be" stroke-width="1"/>
      </g>
    </g>
  </g>
</svg>
