<svg version="1.1" xmlns="http://www.w3.org/2000/svg" xmlns:xlink="http://www.w3.org/1999/xlink" x="0px" y="0px" width="61px" height="71px" viewBox="0 0 61 71" enable-background="new 0 0 61 71" xml:space="preserve">
<path fill="#1C242C" d="M26.664,53.893L16.422,70.72l-4.23-11.483L0,61.277l8.416-14.073c0.845,1.015,2.135,1.548,3.45,1.428l3.545-0.313l1.042,3.248c0.748,2.33,3.443,3.437,5.647,2.315l3.169-1.612L26.664,53.893z M52.878,47.084l7.835,13.973l-12.191-2.039l-4.23,11.483l-9.529-16.869l1.17-1.36l3.166,1.61c2.202,1.12,4.897,0.017,5.646-2.313l1.045-3.25l3.543,0.313C50.701,48.758,52.039,48.174,52.878,47.084z"/>
<path fill="#5CC83B" d="M52.398,30.39l5.201-4.205l-5.201-4.203l3.145-5.818l-6.464-1.953l0.61-6.543l-6.742,0.597l-2.016-6.273l-5.994,3.052L30.601,0l-4.338,5.044l-5.997-3.052l-2.011,6.273l-6.746-0.597l0.612,6.543l-6.462,1.953l3.144,5.818L3.6,26.185l5.203,4.206l-3.144,5.815l6.462,1.955l-0.612,6.541l6.746-0.597l2.011,6.271l5.997-3.05l4.338,5.047l4.336-5.047l5.994,3.05l2.016-6.271l6.742,0.597l-0.61-6.54l6.464-1.956L52.398,30.39z M28.129,36.12c-0.357,0-0.716-0.127-1.003-0.385l-8.33-7.496c-0.616-0.554-0.666-1.503-0.112-2.119c0.554-0.615,1.503-0.666,2.119-0.112l7.218,6.496l13.366-14.771c0.556-0.616,1.505-0.661,2.119-0.106c0.614,0.556,0.661,1.504,0.105,2.119l-14.37,15.88C28.946,35.954,28.539,36.12,28.129,36.12z"/>
</svg>
