<svg xmlns="http://www.w3.org/2000/svg" xmlns:xlink="http://www.w3.org/1999/xlink" width="70" height="70" viewBox="0 0 70 70">
  <defs>
    <clipPath id="clip-path">
      <rect id="Rectangle_1002" data-name="Rectangle 1002" width="70" height="70" fill="none" stroke="#00a6be" stroke-width="1"/>
    </clipPath>
  </defs>
  <g id="Government-Documents" transform="translate(0 0)">
    <g id="Group_1394" data-name="Group 1394" transform="translate(0 0)">
      <g id="Group_1393" data-name="Group 1393" clip-path="url(#clip-path)">
        <path id="Path_2234" data-name="Path 2234" d="M16.746,20.322V1h49.5V69.505h-49.5v-.129" transform="translate(-3.321 -0.253)" fill="none" stroke="#00a6be" stroke-miterlimit="10" stroke-width="2"/>
      </g>
    </g>
    <line id="Line_367" data-name="Line 367" y1="0.222" transform="translate(16.746 45.535)" fill="none" stroke="#00a6be" stroke-miterlimit="10" stroke-width="2"/>
    <line id="Line_368" data-name="Line 368" y1="6.2" transform="translate(16.746 52.45)" fill="none" stroke="#00a6be" stroke-miterlimit="10" stroke-width="2"/>
    <g id="Group_1396" data-name="Group 1396" transform="translate(0 0)">
      <g id="Group_1395" data-name="Group 1395" clip-path="url(#clip-path)">
        <ellipse id="Ellipse_146" data-name="Ellipse 146" cx="11.021" cy="10.271" rx="11.021" ry="10.271" transform="translate(27.162 6.786)" fill="none" stroke="#00a6be" stroke-miterlimit="10" stroke-width="2"/>
        <path id="Path_2235" data-name="Path 2235" d="M41.842,21.185,45.72,24.8l5.891-5.307" transform="translate(-8.299 -4.928)" fill="none" stroke="#00a6be" stroke-miterlimit="10" stroke-width="2"/>
        <path id="Path_2236" data-name="Path 2236" d="M20.55,34.836H11.37a4.059,4.059,0,1,1,0-8.1h9.18a4.059,4.059,0,1,1,0,8.1Z" transform="translate(-1.393 -6.76)" fill="none" stroke="#00a6be" stroke-miterlimit="10" stroke-width="2"/>
        <path id="Path_2237" data-name="Path 2237" d="M16.746,61.214h5.732a4.059,4.059,0,1,1,0,8.1H16.746" transform="translate(-3.321 -15.476)" fill="none" stroke="#00a6be" stroke-miterlimit="10" stroke-width="2"/>
        <path id="Path_2238" data-name="Path 2238" d="M14.818,69.312H11.37a4.059,4.059,0,1,1,0-8.1h3.448" transform="translate(-1.393 -15.477)" fill="none" stroke="#00a6be" stroke-miterlimit="10" stroke-width="2"/>
        <path id="Path_2239" data-name="Path 2239" d="M15.539,42.312H21.2a1.457,1.457,0,0,1,1.506,1.4v8.418a1.457,1.457,0,0,1-1.506,1.4H12.165a1.457,1.457,0,0,1-1.506-1.4V43.715a1.457,1.457,0,0,1,1.506-1.4h3.374" transform="translate(-2.114 -10.697)" fill="none" stroke="#00a6be" stroke-miterlimit="10" stroke-width="2"/>
        <line id="Line_369" data-name="Line 369" y2="3.538" transform="translate(9.977 28.076)" fill="none" stroke="#00a6be" stroke-miterlimit="10" stroke-width="2"/>
        <line id="Line_370" data-name="Line 370" y2="3.538" transform="translate(19.157 28.076)" fill="none" stroke="#00a6be" stroke-miterlimit="10" stroke-width="2"/>
        <line id="Line_371" data-name="Line 371" y2="2.926" transform="translate(19.157 42.839)" fill="none" stroke="#00a6be" stroke-miterlimit="10" stroke-width="2"/>
        <line id="Line_372" data-name="Line 372" y2="2.899" transform="translate(10.051 42.839)" fill="none" stroke="#00a6be" stroke-miterlimit="10" stroke-width="2"/>
        <path id="Path_2240" data-name="Path 2240" d="M36.072,51.939h0a2.692,2.692,0,0,1-2.782-2.593V47.272a2.789,2.789,0,0,1,5.564,0v2.074A2.692,2.692,0,0,1,36.072,51.939Z" transform="translate(-6.602 -11.296)" fill="none" stroke="#00a6be" stroke-miterlimit="10" stroke-width="2"/>
        <line id="Line_373" data-name="Line 373" x2="6.099" transform="translate(20.588 35)" fill="none" stroke="#00a6be" stroke-miterlimit="10" stroke-width="2"/>
        <line id="Line_374" data-name="Line 374" x2="6.125" transform="translate(20.588 39.453)" fill="none" stroke="#00a6be" stroke-miterlimit="10" stroke-width="2"/>
        <line id="Line_375" data-name="Line 375" x2="9.032" transform="translate(32.251 35.031)" fill="none" stroke="#00a6be" stroke-miterlimit="10" stroke-width="2"/>
        <line id="Line_376" data-name="Line 376" x2="9.032" transform="translate(32.251 39.453)" fill="none" stroke="#00a6be" stroke-miterlimit="10" stroke-width="2"/>
        <path id="Path_2241" data-name="Path 2241" d="M65.621,43.945H77.68a4.235,4.235,0,1,1,0,8.449H65.654" transform="translate(-13.015 -11.11)" fill="none" stroke="#00a6be" stroke-miterlimit="10" stroke-width="2"/>
        <path id="Path_2242" data-name="Path 2242" d="M64.5,52.4h-13V43.98h8.145" transform="translate(-10.213 -11.119)" fill="none" stroke="#00a6be" stroke-miterlimit="10" stroke-width="2"/>
        <line id="Line_377" data-name="Line 377" x2="21.861" transform="translate(32.905 45.738)" fill="none" stroke="#00a6be" stroke-miterlimit="10" stroke-width="2"/>
        <line id="Line_378" data-name="Line 378" x2="7.92" transform="translate(32.905 50.51)" fill="none" stroke="#00a6be" stroke-miterlimit="10" stroke-width="2"/>
        <line id="Line_379" data-name="Line 379" x2="12.362" transform="translate(42.404 50.51)" fill="none" stroke="#00a6be" stroke-miterlimit="10" stroke-width="2"/>
        <line id="Line_380" data-name="Line 380" x2="22.057" transform="translate(32.709 55.421)" fill="none" stroke="#00a6be" stroke-miterlimit="10" stroke-width="2"/>
        <line id="Line_381" data-name="Line 381" x2="13.548" transform="translate(32.709 60.362)" fill="none" stroke="#00a6be" stroke-miterlimit="10" stroke-width="2"/>
        <line id="Line_382" data-name="Line 382" x2="7.233" transform="translate(47.534 60.362)" fill="none" stroke="#00a6be" stroke-miterlimit="10" stroke-width="2"/>
        <path id="Path_2243" data-name="Path 2243" d="M13.517,83.909h13.3a1.948,1.948,0,0,1,2.013,1.876v2.806a1.948,1.948,0,0,1-2.013,1.876H3.012A1.948,1.948,0,0,1,1,88.591V85.785a1.948,1.948,0,0,1,2.012-1.876h7.044" transform="translate(-0.198 -21.214)" fill="none" stroke="#00a6be" stroke-miterlimit="10" stroke-width="2"/>
        <path id="Path_2244" data-name="Path 2244" d="M10.682,82.446H5.356a1.164,1.164,0,0,1-1.2-1.121V79.244a1.164,1.164,0,0,1,1.2-1.121H25.04a1.164,1.164,0,0,1,1.2,1.121v2.082a1.164,1.164,0,0,1-1.2,1.121h-10.9" transform="translate(-0.824 -19.751)" fill="none" stroke="#00a6be" stroke-miterlimit="10" stroke-width="2"/>
      </g>
    </g>
  </g>
</svg>
