<svg xmlns="http://www.w3.org/2000/svg" width="33" height="36" viewBox="0 0 33 36">
    <path fill="#FFF" fill-rule="evenodd" d="M23.936 31.718H3.096V0h26.432v21.35l-2.592-2.593-8.472 8.471 4.243 4.243 1.229-1.228v1.475zm-4.284 3.248H.096V7l1.4 1.584v24.982h16.756l1.4 1.4zM7.396 7.462h17.26v-1.4H7.395v1.4zm0 4.882h17.26v-1.4H7.395v1.4zm0 5.356h17.26v-1.4H7.396v1.4zm0 5v-1.4h11.4v1.4h-11.4zm20.54 2.714v9.649h-2v-9.649l-3.229 3.229-1.414-1.415 5.643-5.642 5.642 5.642-1.414 1.415-3.228-3.229z"/>
</svg>
