<svg xmlns="http://www.w3.org/2000/svg" viewBox="0 0 72 72"><path d="M42.1 6c0 3.3-2.7 6-6 6s-6-2.7-6-6 2.7-6 6-6 6 2.7 6 6z" opacity=".8" fill="#006ABE"/><path d="M61.5 19c-2.3 2.3-6.1 2.3-8.5 0-2.3-2.3-2.3-6.1 0-8.5 2.3-2.3 6.1-2.3 8.5 0 2.4 2.4 2.4 6.2 0 8.5z" opacity=".9" fill="#006ABE"/><path d="M66.1 42c-3.3 0-6-2.7-6-6s2.7-6 6-6 6 2.7 6 6-2.7 6-6 6z" fill="#006ABE"/><path d="M53 61.5c-2.3-2.3-2.3-6.1 0-8.5 2.3-2.3 6.1-2.3 8.5 0 2.3 2.3 2.3 6.1 0 8.5-2.3 2.3-6.1 2.3-8.5 0z" opacity=".3" fill="#006ABE"/><path d="M30 66c0-3.3 2.7-6 6-6s6 2.7 6 6-2.7 6-6 6-6-2.7-6-6z" opacity=".4" fill="#006ABE"/><path d="M10.6 53c2.3-2.3 6.1-2.3 8.5 0 2.3 2.3 2.3 6.1 0 8.5-2.3 2.3-6.1 2.3-8.5 0-2.3-2.4-2.3-6.2 0-8.5z" opacity=".5" fill="#006ABE"/><path d="M6.1 30c3.3 0 6 2.7 6 6s-2.7 6-6 6-6-2.7-6-6 2.6-6 6-6z" opacity=".6" fill="#006ABE"/><path d="M19.1 10.5c2.3 2.3 2.3 6.1 0 8.5-2.3 2.3-6.1 2.3-8.5 0-2.3-2.3-2.3-6.1 0-8.5 2.3-2.3 6.1-2.3 8.5 0z" opacity=".7" fill="#006ABE"/></svg>
