<svg xmlns="http://www.w3.org/2000/svg" width="72" height="72" viewBox="0 0 72 72"><g transform="translate(-0.1)"><path d="M42.1,6a6,6,0,1,1-6-6A6.018,6.018,0,0,1,42.1,6Z" fill="#00a6be" opacity="0.8"/><path d="M61.5,19A6.01,6.01,0,0,1,53,10.5a6.1,6.1,0,0,1,8.5,0A5.917,5.917,0,0,1,61.5,19Z" fill="#00a6be" opacity="0.9"/><path d="M66.1,42a6,6,0,1,1,6-6A6.018,6.018,0,0,1,66.1,42Z" fill="#00a6be"/><path d="M53,61.5a6.01,6.01,0,1,1,8.5,0A6.1,6.1,0,0,1,53,61.5Z" fill="#00a6be" opacity="0.3"/><path d="M30,66a6,6,0,1,1,6,6A6.018,6.018,0,0,1,30,66Z" fill="#00a6be" opacity="0.4"/><path d="M10.6,53a6.01,6.01,0,1,1,0,8.5A6.1,6.1,0,0,1,10.6,53Z" fill="#00a6be" opacity="0.5"/><path d="M6.1,30a6,6,0,1,1-6,6,5.954,5.954,0,0,1,6-6Z" fill="#00a6be" opacity="0.6"/><path d="M19.1,10.5A6.01,6.01,0,0,1,10.6,19a6.01,6.01,0,0,1,8.5-8.5Z" fill="#00a6be" opacity="0.7"/></g></svg>