<svg version="1.1" xmlns="http://www.w3.org/2000/svg" xmlns:xlink="http://www.w3.org/1999/xlink" x="0px" y="0px" width="18px" height="18px" viewBox="0 0 18 18" enable-background="new 0 0 18 18" xml:space="preserve">
<path d="M9,17.5c-0.142,0-0.277-0.061-0.372-0.166C4.504,12.738,2.5,9.358,2.5,7c0-3.584,2.916-6.5,6.5-6.5s6.5,2.916,6.5,6.5
	c0,2.358-2.005,5.738-6.128,10.334C9.277,17.439,9.142,17.5,9,17.5z M9,1.5C5.967,1.5,3.5,3.967,3.5,7c0,2.004,1.85,5.114,5.5,9.248
	c3.65-4.134,5.5-7.244,5.5-9.248C14.5,3.967,12.032,1.5,9,1.5z M9,10.227c-1.779,0-3.227-1.447-3.227-3.227S7.221,3.773,9,3.773
	S12.227,5.221,12.227,7S10.779,10.227,9,10.227z M9,4.773C7.772,4.773,6.773,5.772,6.773,7c0,1.228,0.999,2.227,2.227,2.227
	c1.228,0,2.227-0.999,2.227-2.227C11.227,5.772,10.228,4.773,9,4.773z"/>
</svg>
