<svg width="32" height="32" viewBox="0 0 32 32" xmlns="http://www.w3.org/2000/svg"><g fill="none"><path d="M26.028 27.207v3.747c0 .355-.285.642-.636.642h-24.481c-.351 0-.636-.288-.636-.642v-7.417c0-1.172 3.994-3.337 8.977-5.378v-2.487c-.227-.164-.469-.404-.701-.738-.532-.766-.862-1.846-.922-3.282-.604-.341-.978-1.169-1.046-2.077-.07-.932.215-1.751.842-2.124l-.238-.58c-.126-.32-.229-.609-.312-.887-.254-.856-.304-1.544-.033-2.098.309-.634.938-.905 1.813-.837 1.648-3.383 9.898-3.198 10.827.553.278 1.126.11 2.22-.351 3.403l-.17.411c.578.43.842 1.244.765 2.165-.076.907-.45 1.731-1.051 2.071-.059 1.436-.389 2.516-.922 3.282-.232.333-.474.574-.701.738v2.487c.55.225 1.089.452 1.611.679v4.26h4.109v4.109h3.256z" fill="currentColor" fill-rule="nonzero"/><path fill="#32465A" d="M26.646 19.225v-4.109h-1.874v4.109h-4.109v1.874h4.109v4.109h1.874v-4.109h4.109v-1.874z"/></g></svg>