<svg version="1.1" xmlns="http://www.w3.org/2000/svg" xmlns:xlink="http://www.w3.org/1999/xlink" x="0px" y="0px"
	 width="32px" height="32px" viewBox="0 0 32 32" enable-background="new 0 0 32 32" xml:space="preserve">
<path d="M20.264,31.95H0.657C0.294,31.95,0,31.652,0,31.287v-7.656c0-1.21,4.123-3.445,9.266-5.551v-2.567
	c-0.234-0.169-0.484-0.417-0.723-0.762c-0.549-0.791-0.89-1.905-0.951-3.387c-0.623-0.352-1.01-1.207-1.08-2.145
	C6.44,8.258,6.734,7.413,7.381,7.027L7.135,6.429c-0.131-0.33-0.236-0.628-0.322-0.916C6.551,4.629,6.5,3.919,6.778,3.347
	C7.097,2.692,7.747,2.413,8.65,2.483c1.701-3.492,10.217-3.301,11.176,0.571c0.287,1.162,0.113,2.292-0.362,3.513l-0.175,0.424
	c0.598,0.444,0.869,1.284,0.79,2.235c-0.078,0.937-0.466,1.786-1.085,2.138c-0.061,1.482-0.402,2.597-0.951,3.388
	c-0.238,0.344-0.488,0.592-0.723,0.762v0.307c-0.357,0.149-0.721,0.343-1.09,0.585c-0.559,0.365-0.881,0.955-0.928,1.57
	c-0.144,0.037-0.289,0.088-0.435,0.156c-0.799,0.377-1.211,1.066-1.359,1.903l-0.069,0.415c-0.035,0.312-0.027,0.619,0.057,0.954
	c0.162,0.645,0.54,1.131,1.05,1.469c0.318,0.668,0.628,1.124,1.327,2.046c0.832,1.098,1.057,1.516,1.084,2.055
	c0.05,1.021,0.751,1.907,1.576,2.361l0.064,0.114l0.062,0.112l0.156,0.27l0.132,0.212c0.202,0.32,0.926,1.354,1.317,1.908
	L20.264,31.95z"/>
<path fill="#32465A" d="M30.818,25.448c-1.775-0.167-2.467-1.427-3.102-2.833c-0.469-1.045-1.605-2.549-2.918-2.494
	c-1.16,0.048-1.965-0.471-2.762-1.153c-1.383-1.184-2.833-2.045-4.678-0.837c0.588,0.812,0.084,1.744-1.05,1.859
	c-0.323,0.031-0.662-0.203-0.761,0.359c-0.072,0.4-0.189,0.689,0.327,0.897c0.237,0.098,0.401,0.457,0.529,0.728
	c0.792,1.67,2.507,2.84,2.614,4.89c0.012,0.243,0.314,0.571,0.562,0.687c0.551,0.254,0.719,0.749,0.997,1.205
	c0.409,0.672,0.89,1.301,1.627,2.364c-0.17-1.435,0.544-1.185,1.084-1.172c0.532,0.012,1.101,0,1.587,0.176
	c0.418,0.153,0.645,0.12,0.844-0.233c0.454-0.807,1.254-1.031,2.055-1.066c1.145-0.049,2.16-0.49,3.213-0.828
	c0.931-0.299,0.91-1.184,0.964-1.887c0.055-0.699-0.7-0.623-1.134-0.661H30.818z"/>
</svg>
