<svg xmlns="http://www.w3.org/2000/svg" width="61" height="71" viewBox="0 0 61 71"><g fill="none" fill-rule="evenodd"><path d="M26.664 53.893L16.422 70.72l-4.23-11.484L0 61.277l8.416-14.073a4.013 4.013 0 0 0 3.45 1.428l3.545-.314 1.042 3.248c.748 2.331 3.443 3.437 5.647 2.316l3.169-1.612 1.395 1.623zm26.214-6.809l7.835 13.972-12.192-2.039-4.23 11.484-9.529-16.869 1.17-1.36 3.165 1.61c2.203 1.12 4.898.016 5.647-2.314l1.045-3.25 3.543.314a4.013 4.013 0 0 0 3.546-1.548z" fill="#1C242C"/><path fill="#5CC83B" d="M52.399 30.39l5.201-4.205-5.201-4.203 3.144-5.818-6.464-1.953.61-6.543-6.742.597-2.016-6.273-5.994 3.052L30.601 0l-4.338 5.044-5.997-3.052-2.011 6.273-6.746-.597.612 6.543-6.462 1.953 3.144 5.818L3.6 26.185l5.203 4.206-3.144 5.815 6.462 1.955-.612 6.541 6.746-.596 2.011 6.27 5.997-3.05 4.338 5.047 4.336-5.047 5.994 3.05 2.016-6.27 6.742.596-.61-6.54 6.464-1.956z"/><path stroke="#FFF" stroke-linecap="round" stroke-linejoin="round" stroke-width="3" d="M42.5 18.74L28.13 34.62l-8.33-7.496"/></g></svg>