<svg width="24" height="24" xmlns="http://www.w3.org/2000/svg"><g fill="none" fill-rule="evenodd" stroke-linejoin="round"><g fill-rule="nonzero" stroke-linecap="round"><path d="M7.59 21.433l-4.514 1.733c-.499.192-1.04-.012-1.21-.454-.17-.442.096-.956.595-1.147l4.514-1.733.615 1.601z" stroke="#5CC83B" fill="#5CC83B"/><path d="M7.747 19.501l.638 1.662c.073.192-.042.415-.259.498-.216.083-.451-.006-.525-.197l-.638-1.662c-.073-.192.042-.415.259-.498.216-.083.451.005.525.197z" stroke="#32465A"/><path d="M7.793 19.622l12.714-4.88s-.867 1.926-2.153 2.455c-2.48 1.02-10.016 3.845-10.016 3.845l-.545-1.42z" stroke="#32465A" fill="#32465A"/><g><path d="M16.567 21.433l4.514 1.733c.499.192 1.04-.012 1.21-.454.17-.442-.096-.956-.595-1.147l-4.514-1.733-.615 1.601z" stroke="#5CC83B" fill="#5CC83B"/><path d="M16.41 19.501l-.638 1.662c-.073.192.042.415.259.498.216.083.451-.006.525-.197l.638-1.662c.073-.192-.042-.415-.259-.498-.216-.083-.451.005-.525.197z" stroke="#32465A"/><path d="M16.364 19.622l-12.715-4.88s.868 1.926 2.154 2.455c2.48 1.02 10.016 3.845 10.016 3.845l.545-1.42z" stroke="#32465A" fill="#32465A"/></g></g><path stroke="#32465A" fill="#32465A" stroke-linecap="round" d="M12.5 3.5l-2 11h4z"/><g fill="#5CC83B" stroke="#5CC83B"><path d="M18.469 9.966L13 6.126A5.18 5.18 0 0 1 14.139 6c1.023 0 2.018.303 2.801.853 1.103.775 1.663 1.936 1.529 3.113zM18.751 5.299l-6.68-.126a5.18 5.18 0 0 1 .873-.74c.848-.573 1.842-.878 2.8-.86 1.347.025 2.46.675 3.007 1.726z"/><path d="M17.597 1.375L12.117 5.2a5.18 5.18 0 0 1 .273-1.113c.35-.961.974-1.792 1.76-2.34 1.104-.772 2.387-.9 3.447-.372z"/></g><g fill="#5CC83B" stroke="#5CC83B"><path d="M6.531 9.966L12 6.126A5.18 5.18 0 0 0 10.861 6c-1.023 0-2.018.303-2.801.853-1.103.775-1.663 1.936-1.529 3.113zM6.249 5.299l6.68-.126a5.18 5.18 0 0 0-.873-.74c-.848-.573-1.842-.878-2.8-.86-1.347.025-2.46.675-3.007 1.726z"/><path d="M7.403 1.375l5.48 3.825a5.18 5.18 0 0 0-.273-1.113c-.35-.961-.974-1.792-1.76-2.34-1.104-.772-2.387-.9-3.447-.372z"/></g></g></svg>
