<svg width="22" height="15" xmlns="http://www.w3.org/2000/svg" viewBox="0 0 22 15"><defs><radialGradient cx="43.823%" cy="41.328%" fx="43.823%" fy="41.328%" r="86.375%" gradientTransform="scale(.68182 1) rotate(35.849 .54 .73)" id="a"><stop stop-color="#7ACC61" offset="0%"/><stop stop-color="#73C859" offset="74.253%"/><stop stop-color="#6DC452" offset="100%"/></radialGradient></defs><g fill="none" fill-rule="evenodd"><path d="M1 0h20a1 1 0 0 1 1 1v12a2 2 0 0 1-2 2H2a2 2 0 0 1-2-2V1a1 1 0 0 1 1-1z" fill="url(#a)"/><path d="M1.001 0h20.018a1 1 0 0 1 .631 1.776l-8.904 7.247a2 2 0 0 1-2.448.06L.408 1.804A1 1 0 0 1 1.001 0z" fill="#1C242C"/></g></svg>