<svg xmlns="http://www.w3.org/2000/svg" width="111" height="66"><g fill="none" fill-rule="evenodd"><path stroke="#333A4B" stroke-linecap="square" stroke-width="2.922" d="M26.79 54.553l11.209-1.03A18.783 18.783 0 0 0 49.34 48.32l18.702-18.092c-3.247-3.138-8.585-3.064-11.924.165l-8.278 8.009"/><path stroke="#333A4B" stroke-width="2.922" d="M11.363 37.167l20.06-19.201a12.522 12.522 0 0 1 8.658-3.476h3.193"/><path fill="#5BC83A" d="M0 31.206l13.626-6.081 16.818 34.52-13.625 6.08zM72.22 30.2c-5.93-6.876-13.322-7.047-20.267.179l-5.386 5.215h-.654a4.18 4.18 0 0 1-4.174-4.188V4.188A4.18 4.18 0 0 1 45.913 0h45.913A4.18 4.18 0 0 1 96 4.188v27.218a4.18 4.18 0 0 1-4.174 4.188H66.65l5.57-5.393z"/><path stroke="#FFF" stroke-linecap="square" stroke-width="2.922" d="M77.843 28.684h11.27"/><path fill="#FFF" d="M41.739 10.469H96v4.188H41.739z"/><path fill="#FFF" d="M96 23c-6.075 0-11-4.925-11-11S89.925 1 96 1s11 4.925 11 11-4.925 11-11 11z"/><path fill="#32465A" fill-rule="nonzero" d="M96 21a9 9 0 1 0 0-18 9 9 0 0 0 0 18z"/><path fill="#FFF" fill-rule="nonzero" d="M106.34 2.177a2.5 2.5 0 0 1 3.42 3.646L98.186 16.68a2.5 2.5 0 0 1-3.591-.177l-4.026-4.598a2.5 2.5 0 1 1 3.762-3.294l2.322 2.652 9.686-9.085z"/><path fill="#5CC83B" fill-rule="nonzero" d="M96.547 13.418L107.365 3.27a1 1 0 1 1 1.368 1.458L97.16 15.584a1 1 0 0 1-1.436-.07l-4.026-4.598a1 1 0 0 1 1.504-1.318l3.345 3.82z"/></g></svg>