<svg id="PDF-Docments" xmlns="http://www.w3.org/2000/svg" xmlns:xlink="http://www.w3.org/1999/xlink" width="59.572" height="78.222" viewBox="0 0 59.572 78.222">
  <defs>
    <clipPath id="clip-path">
      <rect id="Rectangle_1212" data-name="Rectangle 1212" width="59.572" height="78.222" fill="none" stroke="#00a6be" stroke-width="2"/>
    </clipPath>
  </defs>
  <g id="Group_1696" data-name="Group 1696" clip-path="url(#clip-path)">
    <path id="Path_2326" data-name="Path 2326" d="M59.65,16.758V74.667a3.371,3.371,0,0,1-3.089,3.6H3.589A3.371,3.371,0,0,1,.5,74.667V4.127A3.371,3.371,0,0,1,3.589.531H44.222" transform="translate(-0.296 -0.279)" fill="none" stroke="#00a6be" stroke-miterlimit="10" stroke-width="2"/>
    <path id="Path_2327" data-name="Path 2327" d="M123.109,16.855,108.186,1.128V17.008Z" transform="translate(-64.06 -0.592)" fill="none" stroke="#00a6be" stroke-miterlimit="10" stroke-width="2"/>
    <line id="Line_552" data-name="Line 552" x2="59.15" transform="translate(0.204 54.875)" fill="none" stroke="#00a6be" stroke-miterlimit="10" stroke-width="2"/>
    <path id="Path_2328" data-name="Path 2328" d="M52.169,31.25s-2.985-5.777,0-8.08a3.489,3.489,0,0,1,2.273,4.323s-5.4,23.17-11.333,29.17c0,0-2.747,1.53-3.788-.53a2.97,2.97,0,0,1,1.705-3.273s16.349-9.893,26.52-8.964c0,0,2.155,1.511.282,3.313,0,0-1.977.429-5.363-1.312a6.206,6.206,0,0,1-.621-.313C60.991,45.019,58.532,43.632,52.169,31.25Z" transform="translate(-23.258 -12.171)" fill="none" stroke="#00a6be" stroke-miterlimit="10" stroke-width="2"/>
    <path id="Path_2329" data-name="Path 2329" d="M33.02,124.42a20.365,20.365,0,0,1,3.537-.289,5.675,5.675,0,0,1,4,1.246,4.129,4.129,0,0,1,1.25,3.137,4.545,4.545,0,0,1-1.1,3.2,5.752,5.752,0,0,1-4.363,1.646,6.033,6.033,0,0,1-1.483-.133v6.006H33.02Zm1.843,7.229a5.9,5.9,0,0,0,1.525.156c2.224,0,3.579-1.135,3.579-3.2,0-1.98-1.334-2.936-3.367-2.936a7.368,7.368,0,0,0-1.737.155Z" transform="translate(-19.552 -65.204)" fill="#00a6be"/>
    <path id="Path_2330" data-name="Path 2330" d="M60.643,124.442a25.216,25.216,0,0,1,3.918-.311c2.647,0,4.532.645,5.782,1.868a7.087,7.087,0,0,1,2.012,5.383,8.159,8.159,0,0,1-2.054,5.828c-1.335,1.4-3.537,2.158-6.311,2.158a28.366,28.366,0,0,1-3.347-.178ZM62.486,137.7a11.111,11.111,0,0,0,1.864.111c3.94,0,6.078-2.313,6.078-6.362.021-3.537-1.885-5.783-5.782-5.783a9.994,9.994,0,0,0-2.16.2Z" transform="translate(-35.909 -65.204)" fill="#00a6be"/>
    <path id="Path_2331" data-name="Path 2331" d="M95.224,124.365h7.688v1.624H97.067v4.983h5.4v1.6h-5.4v6.785H95.224Z" transform="translate(-56.385 -65.327)" fill="#00a6be"/>
  </g>
</svg>
