<svg version="1.1" xmlns="http://www.w3.org/2000/svg" xmlns:xlink="http://www.w3.org/1999/xlink" x="0px" y="0px" width="24px" height="24px" viewBox="0 0 24 24" enable-background="new 0 0 24 24" xml:space="preserve">
<path fill="#1C242C" d="M23,21.636c0,1.205-0.99,2.183-2.21,2.183H4.21c-1.22,0-2.21-0.978-2.21-2.183V2h21V21.636z"/>
<path fill="#FFFFFF" d="M19.5,22.913V24h-14v-1.087c0-0.661,2.171-1.883,4.88-3.034v-1.402c-0.149-0.116-0.277-0.258-0.38-0.416
	c-0.29-0.434-0.47-1.043-0.502-1.852c-0.328-0.193-0.532-0.66-0.569-1.172c-0.038-0.526,0.117-0.987,0.458-1.198
	c-0.044-0.108-0.087-0.218-0.13-0.327c-0.063-0.164-0.12-0.33-0.169-0.5c-0.138-0.482-0.165-0.871-0.018-1.184
	c0.168-0.358,0.51-0.51,0.986-0.472c0.895-1.908,5.379-1.804,5.885,0.312c0.15,0.635,0.06,1.252-0.19,1.92l-0.093,0.23
	c0.314,0.244,0.458,0.703,0.416,1.222c-0.041,0.512-0.245,0.976-0.571,1.168c-0.032,0.81-0.212,1.42-0.501,1.853
	c-0.103,0.158-0.231,0.299-0.381,0.416v1.401C17.329,21.029,19.5,22.251,19.5,22.913L19.5,22.913z"/>
<path fill="#5CC83B" d="M2,2h21v5H2V2z"/>
<path fill="#1C242C" d="M10.236,2.182c0,1.479-1.216,2.682-2.71,2.682c-0.276,0-0.5-0.224-0.5-0.5s0.224-0.5,0.5-0.5
	c0.943,0,1.71-0.754,1.71-1.682S8.469,0.5,7.526,0.5C6.646,0.5,5.928,1.159,5.834,2h-1c0.097-1.393,1.26-2.5,2.691-2.5
	C9.02-0.5,10.236,0.703,10.236,2.182z"/>
<path fill="#1C242C" d="M20.184,2.182c0,1.479-1.215,2.682-2.709,2.682c-0.276,0-0.5-0.224-0.5-0.5s0.224-0.5,0.5-0.5
	c0.942,0,1.709-0.754,1.709-1.682S18.416,0.5,17.473,0.5c-0.879,0-1.597,0.659-1.69,1.5h-1c0.097-1.393,1.259-2.5,2.69-2.5
	C18.968-0.5,20.184,0.703,20.184,2.182z"/>
</svg>
