<svg xmlns="http://www.w3.org/2000/svg" width="24" height="24" viewBox="0 0 24 24"><path fill="#32465A" d="M20.5 17.271v5.272a.445.445 0 0 1-.432.457h-16.636a.445.445 0 0 1-.432-.457v-5.272c0-.833 2.714-2.371 6.1-3.822v-1.767a2.126 2.126 0 0 1-.476-.525c-.362-.544-.586-1.312-.627-2.332-.41-.243-.664-.831-.71-1.476-.048-.663.146-1.245.572-1.51l-.162-.412a7.828 7.828 0 0 1-.212-.63c-.172-.61-.206-1.098-.023-1.492.21-.45.638-.643 1.233-.595 1.12-2.404 6.725-2.273 7.355.393.19.8.075 1.578-.238 2.419a8.931 8.931 0 0 1-.115.292c.392.306.572.884.52 1.538-.052.645-.306 1.23-.715 1.473-.04 1.02-.264 1.788-.626 2.332a2.126 2.126 0 0 1-.476.525v1.767c3.385 1.45 6.099 2.99 6.099 3.822z"/></svg>