<svg version="1" xmlns="http://www.w3.org/2000/svg" width="24" height="24" viewBox="0 0 24 24"><path fill="#5CC83B" d="M13.957 12.765l4.235 4.235h1.808v-1.571l-4.354-4.354z"/><path fill="#fff" d="M4 2v13.222l5.5-5.5 7.278 7.278h1.414l-4.235-4.235 1.689-1.689 4.354 4.353v-13.429h-16zm4 6.035c-1.104-.019-1.984-.931-1.965-2.035.02-1.104.93-1.984 2.035-1.965 1.104.02 1.984.93 1.965 2.035s-.931 1.984-2.035 1.965z"/><path fill="#5CC83B" d="M9.5 9.722l-5.5 5.5v1.778h12.778z"/><path fill="#32465A" d="M2 0v24h20v-24h-20zm18 17h-16v-15h16v15z"/><circle fill="#32465A" cx="8.035" cy="6.035" r="2"/></svg>