<svg version="1.1" xmlns="http://www.w3.org/2000/svg" xmlns:xlink="http://www.w3.org/1999/xlink" x="0px" y="0px" width="32px" height="32px" viewBox="0 0 18 18" enable-background="new 0 0 18 18" xml:space="preserve"> 
	<path fill="#00A6BE" d="M12.983,17.5H4.916c-0.261,0-0.479-0.201-0.499-0.462l-0.916-12C3.491,4.899,3.539,4.762,3.633,4.66S3.861,4.5,4,4.5h10c0.14,0,0.273,0.059,0.368,0.162s0.142,0.241,0.13,0.38l-1.017,12C13.46,17.301,13.243,17.5,12.983,17.5zM5.379,16.5h7.146l0.932-11H4.54L5.379,16.5z M7.5,15V7c0-0.276-0.224-0.5-0.5-0.5S6.5,6.724,6.5,7v8c0,0.276,0.224,0.5,0.5,0.5S7.5,15.276,7.5,15z M9.5,15V7c0-0.276-0.224-0.5-0.5-0.5S8.5,6.724,8.5,7v8c0,0.276,0.224,0.5,0.5,0.5S9.5,15.276,9.5,15z M11.5,15V7c0-0.276-0.224-0.5-0.5-0.5S10.5,6.724,10.5,7v8c0,0.276,0.224,0.5,0.5,0.5S11.5,15.276,11.5,15z M14.5,3c0-0.276-0.224-0.5-0.5-0.5H4C3.724,2.5,3.5,2.724,3.5,3S3.724,3.5,4,3.5h10C14.276,3.5,14.5,3.276,14.5,3z M11.5,3c0-1.378-1.121-2.5-2.5-2.5C7.622,0.5,6.5,1.622,6.5,3c0,0.276,0.224,0.5,0.5,0.5S7.5,3.276,7.5,3c0-0.827,0.673-1.5,1.5-1.5s1.5,0.673,1.5,1.5c0,0.276,0.224,0.5,0.5,0.5S11.5,3.276,11.5,3z"/>
</svg>