<svg xmlns="http://www.w3.org/2000/svg" id="Layer_1" viewBox="0 0 378.6 135.5"><path fill="#f07622" d="M0 99.7l8.8-21.5H60s6.2.2 8.4-3.9c1.5-3.9 4.2-15-.4-15-4.9.1-33.5 0-33.5 0L42 39.5l35.7-.4c4.5.3 18.6 4.6 12.7 24.5-.9 3.2-7.9 36.3-36.8 36.3C38 99.5 0 99.7 0 99.7z"/><path fill="#939598" d="M132.9.3L96.5 99.4h14.9s5.4 1.4 9.7-10.3S153.5 0 153.5 0s-20.3 0-20.6.3z"/><path fill="#f07622" d="M136 98.5h200.8s19.2-.6 27.5-16.6 14.3-32.6 14.3-32.6h-20l-10.3 24.3s-1.4 5.4-7.7 5.4h-13.7l12.6-30.6h-19.8l-10 24.8s-2.4 5.6-6.6 5.8h-15.2L301 48.7h-20.3l-10 24.1s-.6 6.3-9.2 6.3h-62.1s22.6-30.6-5.2-39.2c-9.2 0-26.1-.3-26.1-.3l-8.6 18.9h21.8s8.9-.9 5.4 9.2c-2.5 6.8-3.2 11.6-12.9 11.6s-30.9.1-30.9.1L136 98.5z"/><path fill="#939598" d="M126.2 132c.8.5 2 .9 3.3.9 1.2 0 2.2-.5 2.2-1.7 0-.8-.6-1.3-1.9-2-1.5-.8-2.9-1.9-2.9-3.8 0-2.9 2.5-4.6 5.5-4.6 1.7 0 2.7.4 3.3.7l-.9 2.5c-.5-.3-1.5-.7-2.6-.6-1.4 0-2.1.7-2.1 1.5s.9 1.3 2 2c1.7.9 2.8 2.1 2.8 3.7 0 3.2-2.6 4.8-5.7 4.8-1.9 0-3.3-.5-4-1l1-2.4zM139.9 131.6l-1.7 3.7H135l6.8-14.2h3.8l1.6 14.2h-3.1l-.3-3.7h-3.9zm3.9-2.3l-.3-3.1c-.1-.8-.1-1.9-.2-2.8-.4.9-.7 2-1.1 2.8l-1.4 3.1h3zM151.5 121.3c1.2-.2 2.5-.3 3.9-.3 2.2 0 3.9.5 5.1 1.5 1.1.9 1.8 2.4 1.8 4.4 0 2.7-1.1 5.1-2.9 6.5-1.6 1.3-3.7 1.9-6.7 1.9-1.7 0-3.1-.1-3.8-.3l2.6-13.7zm.8 11.6c.4.1.8.1 1.3.1 1.6 0 3-.6 4-1.7s1.5-2.6 1.5-4.3c0-2.2-1.2-3.6-3.7-3.6-.5 0-1 0-1.3.1l-1.8 9.4zM166.5 131.6l-1.7 3.7h-3.2l6.8-14.2h3.8l1.6 14.2h-3.1l-.3-3.7h-3.9zm3.9-2.3l-.3-3.1c-.1-.8-.1-1.9-.2-2.8-.4.9-.7 2-1.1 2.8l-1.4 3.1h3zM178.1 121.3c1.2-.2 2.5-.3 3.9-.3 2.2 0 3.9.5 5.1 1.5 1.1.9 1.8 2.4 1.8 4.4 0 2.7-1.1 5.1-2.9 6.5-1.6 1.3-3.7 1.9-6.7 1.9-1.7 0-3.1-.1-3.8-.3l2.6-13.7zm.8 11.6c.4.1.8.1 1.3.1 1.6 0 3-.6 4-1.7s1.5-2.6 1.5-4.3c0-2.2-1.2-3.6-3.7-3.6-.5 0-1 0-1.3.1l-1.8 9.4zM196 121.4c.9-.2 2.3-.4 3.6-.4 1.2 0 2.7.2 3.7.9.9.7 1.5 1.6 1.5 3 0 1.8-.8 3.1-1.9 4-1.1.9-2.8 1.3-4.5 1.3-.5 0-.9 0-1.2-.1l-1 5.1h-2.9l2.7-13.8zm1.7 6.3c.3.1.6.1 1.1.1 1.8 0 3-1.2 3-2.6 0-1.4-1-1.8-2.1-1.8-.6 0-1 0-1.2.1l-.8 4.2zM207.6 131.6l-1.7 3.7h-3.2l6.8-14.2h3.8l1.6 14.2h-3.1l-.3-3.7h-3.9zm3.9-2.3l-.3-3.1c-.1-.8-.1-1.9-.2-2.8-.4.9-.7 2-1.1 2.8l-1.4 3.1h3zM217.9 135.3l1.1-5.8-2.7-8.4h3.2l.9 3.6c.2 1.2.4 1.9.5 2.6.4-.8.8-1.6 1.4-2.6l2.1-3.6h3.6l-6 8.3-1.1 5.9h-3zM238.2 135.3l.8-5.9c.2-1.5.5-3.5.9-5.5h.1c-.8 1.8-1.6 3.8-2.4 5.3l-2.9 5.8h-2.3l-.5-5.7c-.1-1.6-.2-3.5-.3-5.4-.4 1.9-.8 4-1.2 5.5l-1.4 5.9h-2.7l3.5-14.2h4l.4 5.4c.1 1.3.2 2.9.2 4.5h.1c.5-1.6 1.3-3.2 1.9-4.5l2.6-5.4h4l-1.9 14.2h-2.9zM252.7 129.3h-5l-.6 3.4h5.6l-.5 2.6h-8.6l2.7-14.2h8.3l-.5 2.6h-5.3l-.6 3h5l-.5 2.6zM254.3 135.3l2.7-14.2h3.5l1.8 5.4c.6 1.8.9 3.3 1.3 4.8h.1c.1-1.5.2-3 .6-5.1l1-5.2h2.8l-2.6 14.2h-3.1l-1.9-5.7c-.6-1.9-1-3.2-1.4-4.9h-.1c-.2 1.4-.5 3.4-.9 5.6l-.9 5h-2.9zM272.8 123.8h-3.7l.5-2.7H280l-.5 2.7h-3.7l-2.1 11.5h-3l2.1-11.5zM283.4 132c.8.5 2 .9 3.3.9 1.2 0 2.2-.5 2.2-1.7 0-.8-.6-1.3-1.9-2-1.5-.8-2.9-1.9-2.9-3.8 0-2.9 2.5-4.6 5.5-4.6 1.7 0 2.7.4 3.3.7l-.9 2.5c-.5-.3-1.4-.7-2.6-.6-1.4 0-2.1.7-2.1 1.5s.9 1.3 2 2c1.7.9 2.8 2.1 2.8 3.7 0 3.2-2.6 4.8-5.7 4.8-1.9 0-3.3-.5-4-1l1-2.4zM296.1 135.3l1.1-5.8-2.7-8.4h3.2l.9 3.6c.2 1.2.4 1.9.5 2.6.4-.8.8-1.6 1.4-2.6l2.1-3.6h3.6l-6 8.3-1.1 5.9h-3zM305.4 132c.8.5 2 .9 3.3.9 1.2 0 2.2-.5 2.2-1.7 0-.8-.6-1.3-1.9-2-1.5-.8-2.9-1.9-2.9-3.8 0-2.9 2.5-4.6 5.5-4.6 1.7 0 2.7.4 3.3.7l-.9 2.5c-.5-.3-1.4-.7-2.6-.6-1.4 0-2.1.7-2.1 1.5s.9 1.3 2 2c1.7.9 2.8 2.1 2.8 3.7 0 3.2-2.6 4.8-5.7 4.8-1.9 0-3.3-.5-4-1l1-2.4zM320 123.8h-3.7l.5-2.7h10.4l-.5 2.7H323l-2.1 11.5h-3l2.1-11.5zM335.3 129.3h-5l-.6 3.4h5.6l-.5 2.6h-8.6l2.7-14.2h8.3l-.5 2.6h-5.3l-.6 3h5l-.5 2.6zM348.6 135.3l.8-5.9c.2-1.5.5-3.5.9-5.5h-.1c-.8 1.8-1.6 3.8-2.4 5.3l-2.9 5.8h-2.3l-.5-5.7c-.1-1.6-.2-3.5-.3-5.4-.4 1.9-.8 4-1.2 5.5l-1.4 5.9h-2.7l3.5-14.2h4l.4 5.4c.1 1.3.2 2.9.2 4.5h.1c.5-1.6 1.3-3.2 1.9-4.5l2.6-5.4h4l-1.9 14.2h-2.7z"/></svg>