<svg version="1.1" id="Ebene_1" xmlns="http://www.w3.org/2000/svg" xmlns:xlink="http://www.w3.org/1999/xlink" x="0px" y="0px"
	 width="25px" height="25px" viewBox="0 0 25 25" enable-background="new 0 0 25 25" xml:space="preserve">
<path fill="#32465A" d="M20.871,14.398c-0.139-0.147-0.356-0.195-0.542-0.123L7.986,19.013c-0.249-0.216-0.619-0.3-0.942-0.176
	c-0.235,0.09-0.427,0.269-0.527,0.491c-0.023,0.051-0.024,0.105-0.037,0.158l-4.199,1.611c-0.755,0.29-1.151,1.094-0.883,1.794
	c0.198,0.514,0.706,0.847,1.293,0.847c0.192,0,0.381-0.036,0.563-0.105l4.184-1.605c0.147,0.104,0.327,0.164,0.521,0.164
	c0.119,0,0.236-0.021,0.344-0.063c0.235-0.089,0.427-0.269,0.527-0.491c0.039-0.087,0.054-0.179,0.063-0.27
	c1.557-0.585,7.51-2.826,9.65-3.707c1.454-0.599,2.381-2.627,2.42-2.713C21.047,14.763,21.011,14.546,20.871,14.398z M2.896,22.699
	c-0.233,0.088-0.497,0.008-0.564-0.166c-0.069-0.182,0.072-0.411,0.308-0.502l4.047-1.554l0.128,0.334l0.128,0.334L2.896,22.699z
	 M18.163,16.735c-2.088,0.859-7.855,3.032-9.536,3.664l-0.074-0.193L8.439,19.91l10.885-4.178
	C18.999,16.155,18.598,16.557,18.163,16.735z"/>
<path fill="#F6F6F6" d="M16.363,19.622l-12.714-4.88c0,0,0.867,1.926,2.153,2.455c2.48,1.021,10.016,3.845,10.016,3.845
	L16.363,19.622z"/>
<path fill="#32465A" d="M22.688,21.814c-0.169-0.326-0.457-0.58-0.813-0.717l-4.198-1.611c-0.013-0.053-0.015-0.107-0.037-0.158
	c-0.1-0.223-0.292-0.402-0.523-0.489c-0.332-0.131-0.701-0.046-0.947,0.173l-12.34-4.736c-0.188-0.072-0.403-0.023-0.542,0.123
	c-0.139,0.147-0.176,0.364-0.093,0.549c0.039,0.086,0.966,2.114,2.419,2.712c2.141,0.882,8.096,3.124,9.651,3.708
	c0.01,0.092,0.024,0.184,0.063,0.271c0.101,0.223,0.293,0.401,0.522,0.488c0.112,0.044,0.229,0.065,0.349,0.065
	c0.194,0,0.374-0.061,0.521-0.164l4.184,1.605c0.182,0.069,0.371,0.105,0.562,0.105c0.588,0,1.096-0.333,1.293-0.847
	C22.892,22.542,22.867,22.159,22.688,21.814z M4.835,15.732l10.883,4.178l-0.045,0.117l-0.144,0.372
	c-1.681-0.632-7.447-2.805-9.536-3.664C5.562,16.558,5.16,16.156,4.835,15.732z M21.824,22.532
	c-0.048,0.125-0.188,0.206-0.359,0.206c-0.068,0-0.137-0.014-0.204-0.039l-4.048-1.554l0.129-0.334l0.128-0.334l4.048,1.554
	c0.125,0.048,0.228,0.137,0.283,0.243C21.833,22.336,21.863,22.432,21.824,22.532z"/>
<path fill="#32465A" d="M18.752,5.799c0.173,0,0.334-0.089,0.425-0.237c0.093-0.15,0.101-0.337,0.019-0.494
	c-0.589-1.132-1.743-1.848-3.192-1.97l1.881-1.313c0.145-0.101,0.226-0.271,0.213-0.447c-0.014-0.176-0.118-0.332-0.276-0.411
	c-1.219-0.607-2.724-0.45-3.957,0.41C13.327,1.711,12.87,2.214,12.5,2.785c-0.371-0.571-0.827-1.073-1.363-1.448
	c-1.234-0.861-2.74-1.016-3.957-0.41C7.022,1.005,6.917,1.162,6.904,1.338C6.891,1.514,6.972,1.684,7.117,1.785l1.875,1.309
	C7.585,3.197,6.403,3.917,5.805,5.068C5.724,5.225,5.73,5.412,5.824,5.562c0.091,0.147,0.252,0.236,0.425,0.236
	c0.003,0,0.006,0,0.009,0l2.994-0.057C8.716,5.901,8.212,6.135,7.773,6.444c-1.244,0.874-1.894,2.211-1.738,3.579
	c0.02,0.175,0.13,0.327,0.292,0.399c0.065,0.029,0.135,0.044,0.205,0.044c0.101,0,0.202-0.031,0.287-0.091l4.691-3.294l-1.501,8.044
	c-0.05,0.271,0.128,0.532,0.4,0.583c0.031,0.006,0.062,0.009,0.092,0.009c0.236,0,0.446-0.168,0.491-0.408L12.5,7.226l1.509,8.083
	c0.045,0.24,0.255,0.408,0.49,0.408c0.031,0,0.062-0.003,0.093-0.009C14.832,15.663,15,15.453,15,15.217
	c0-0.03-0.003-0.061-0.009-0.092L13.49,7.081l4.691,3.294c0.085,0.06,0.186,0.091,0.287,0.091c0.069,0,0.14-0.015,0.205-0.044
	c0.161-0.072,0.271-0.224,0.292-0.399c0.155-1.368-0.495-2.706-1.739-3.579c-0.439-0.309-0.944-0.543-1.479-0.702l2.995,0.057
	C18.746,5.799,18.749,5.799,18.752,5.799z M14.436,2.157c0.563-0.394,1.185-0.602,1.796-0.602c0.074,0,0.147,0.003,0.221,0.009
	l-2.739,1.912c-0.219,0.088-0.431,0.19-0.64,0.306C13.4,3.123,13.868,2.554,14.436,2.157z M8.548,1.564
	c0.668-0.054,1.383,0.151,2.016,0.593c0.568,0.396,1.035,0.966,1.362,1.626c-0.205-0.114-0.415-0.214-0.632-0.302L8.548,1.564z
	 M7.104,8.953c0.178-0.648,0.609-1.245,1.244-1.691c0.629-0.442,1.415-0.706,2.237-0.754L7.104,8.953z M7.292,4.779
	c0.515-0.438,1.221-0.692,2.045-0.707c0.485,0,0.979,0.103,1.456,0.279l0.504,0.352L7.292,4.779z M16.652,7.262
	c0.636,0.446,1.066,1.042,1.244,1.691l-3.481-2.445C15.237,6.557,16.022,6.82,16.652,7.262z M13.703,4.703l0.498-0.348
	c0.486-0.179,1-0.282,1.53-0.282c0.001,0,0.002,0,0.003,0c0.776,0.015,1.468,0.268,1.978,0.706L13.703,4.703z"/>
</svg>
