<svg width="24px" height="24px" viewBox="0 0 24 24" version="1.1" xmlns="http://www.w3.org/2000/svg" xmlns:xlink="http://www.w3.org/1999/xlink">
    <g stroke="none" stroke-width="1" fill="none" fill-rule="evenodd" stroke-linecap="round" stroke-linejoin="round">
        <path d="M9.08094545,16.7727273 C9.08094545,17.6229091 8.39294545,18.3109091 7.54276364,18.3109091 C6.69330909,18.3109091 6.00458182,17.6229091 6.00458182,16.7727273 C6.00458182,15.924 6.69330909,15.2345455 7.54276364,15.2345455 C8.39294545,15.2345455 9.08094545,15.924 9.08094545,16.7727273 Z" id="Stroke-3" stroke="#5CC83B" fill="#5CC83B"></path>
        <path d="M17.1992,8.37781818 L21.3795636,3.03890909" id="Stroke-5" stroke="#5CC83B"></path>
        <path d="M10.0372364,7.50356364 L14.7739636,9.19447273" id="Stroke-7" stroke="#5CC83B"></path>
        <path d="M0.363636364,11.9332364 L7.25381818,7.82632727" id="Stroke-9" stroke="#5CC83B"></path>
        <path d="M16.5664,16.0056727 L21.0842182,13.4464" id="Stroke-11" stroke="#5CC83B"></path>
        <path d="M9.08094545,16.7727273 L13.6962182,16.7727273" id="Stroke-13" stroke="#5CC83B"></path>
        <path d="M0.363636364,21.3877818 L6.22181818,17.5579636" id="Stroke-15" stroke="#5CC83B"></path>
        <path d="M10.1065455,7.02981818 C10.1065455,7.88 9.41709091,8.568 8.56836364,8.568 C7.71890909,8.568 7.03018182,7.88 7.03018182,7.02981818 C7.03018182,6.18036364 7.71890909,5.49163636 8.56836364,5.49163636 C9.41709091,5.49163636 10.1065455,6.18036364 10.1065455,7.02981818 Z" id="Stroke-17" stroke="#5CC83B" fill="#5CC83B"></path>
        <polyline id="Stroke-1" stroke="#32465A" points="23.9517091 23.9517091 0.363345455 23.9517091 0.363345455 0.363345455"></polyline>
        <path d="M17.7982545,9.59374545 C17.7982545,10.4439273 17.1088,11.1319273 16.2600727,11.1319273 C15.4106182,11.1319273 14.7218909,10.4439273 14.7218909,9.59374545 C14.7218909,8.74429091 15.4106182,8.05556364 16.2600727,8.05556364 C17.1088,8.05556364 17.7982545,8.74429091 17.7982545,9.59374545 Z" id="Stroke-19" stroke="#5CC83B" fill="#5CC83B"></path>
        <path d="M23.9517091,1.90196364 C23.9517091,2.75214545 23.2622545,3.44014545 22.4135273,3.44014545 C21.5640727,3.44014545 20.8753455,2.75214545 20.8753455,1.90196364 C20.8753455,1.05250909 21.5640727,0.363781818 22.4135273,0.363781818 C23.2622545,0.363781818 23.9517091,1.05250909 23.9517091,1.90196364 Z" id="Stroke-21" stroke="#5CC83B" fill="#5CC83B"></path>
        <path d="M23.9517091,12.6704727 C23.9517091,13.5206545 23.2622545,14.2086545 22.4135273,14.2086545 C21.5640727,14.2086545 20.8753455,13.5206545 20.8753455,12.6704727 C20.8753455,11.8210182 21.5640727,11.1322909 22.4135273,11.1322909 C23.2622545,11.1322909 23.9517091,11.8210182 23.9517091,12.6704727 Z" id="Stroke-23" stroke="#5CC83B" fill="#5CC83B"></path>
        <path d="M16.7727273,16.7727273 C16.7727273,17.6229091 16.0832727,18.3109091 15.2345455,18.3109091 C14.3850909,18.3109091 13.6963636,17.6229091 13.6963636,16.7727273 C13.6963636,15.9232727 14.3850909,15.2345455 15.2345455,15.2345455 C16.0832727,15.2345455 16.7727273,15.9232727 16.7727273,16.7727273 Z" id="Stroke-25" stroke="#5CC83B" fill="#5CC83B"></path>
    </g>
</svg>