<svg version="1.1" id="Ebene_1" xmlns="http://www.w3.org/2000/svg" xmlns:xlink="http://www.w3.org/1999/xlink" x="0px" y="0px"
	 width="18px" height="18px" viewBox="0 0 18 18" enable-background="new 0 0 18 18" xml:space="preserve">
<path fill="#FFFFFF" d="M17,17.5H3.63c-0.133,0-0.26-0.053-0.354-0.146l-2.629-2.629c-0.094-0.094-0.146-0.221-0.146-0.354L0.5,1
	c0-0.133,0.053-0.26,0.146-0.354S0.867,0.5,1,0.5h16c0.276,0,0.5,0.224,0.5,0.5v16C17.5,17.276,17.276,17.5,17,17.5z M13.251,16.5
	H16.5v-15h-1.893v6.71c0,0.276-0.224,0.5-0.5,0.5H3.893c-0.276,0-0.5-0.224-0.5-0.5V1.5H1.5l0.001,12.664L3.837,16.5h0.914v-4
	c0-0.276,0.224-0.5,0.5-0.5h7.5c0.276,0,0.5,0.224,0.5,0.5V16.5z M7.969,16.5h4.282V13h-6.5v3.5h1.218v-2c0-0.276,0.224-0.5,0.5-0.5
	s0.5,0.224,0.5,0.5V16.5z M4.393,7.71h9.214V1.5H4.393V7.71z"/>
</svg>
