<svg version="1.1" id="Ebene_1" xmlns="http://www.w3.org/2000/svg" xmlns:xlink="http://www.w3.org/1999/xlink" x="0px" y="0px"
	 width="32px" height="32px" viewBox="0 0 32 32" enable-background="new 0 0 32 32" xml:space="preserve">
<path d="M26.273,25.614l-5.899-5.9c2.994-3.151,2.953-8.146-0.138-11.238c-1.521-1.521-3.545-2.359-5.696-2.359
	s-4.173,0.838-5.695,2.359c-3.14,3.14-3.14,8.25,0,11.39c1.521,1.521,3.544,2.359,5.695,2.359c1.884,0,3.669-0.643,5.106-1.825
	l5.92,5.921L26.273,25.614z M9.553,19.159c-2.75-2.75-2.75-7.226,0-9.976c1.333-1.332,3.104-2.066,4.988-2.066
	c1.884,0,3.656,0.734,4.989,2.066c2.749,2.75,2.749,7.226,0,9.976c-1.333,1.332-3.104,2.066-4.989,2.066
	C12.657,21.226,10.885,20.491,9.553,19.159z"/>
</svg>
