<svg version="1.1" xmlns="http://www.w3.org/2000/svg" xmlns:xlink="http://www.w3.org/1999/xlink" x="0px" y="0px" width="32px" height="32px" viewBox="0 0 32 32" enable-background="new 0 0 32 32" xml:space="preserve">
<path fill="#1C242C" d="M25,25.5H7c-0.133,0-0.26-0.053-0.354-0.146l-2-2c-0.143-0.143-0.186-0.358-0.108-0.545
	C4.615,22.622,4.798,22.5,5,22.5h22c0.202,0,0.385,0.122,0.462,0.309s0.034,0.402-0.108,0.545l-2,2
	C25.26,25.447,25.133,25.5,25,25.5z M7.207,24.5h17.586l1-1H6.207L7.207,24.5z M28,20.5h-2.121
	c-0.082-4.725-3.547-8.632-8.073-9.409c0.242-0.335,0.39-0.744,0.39-1.189c0-1.124-0.914-2.038-2.038-2.038
	c-1.124,0-2.038,0.914-2.038,2.038c0,0.445,0.147,0.854,0.39,1.189c-4.526,0.777-7.991,4.684-8.073,9.409H4
	c-0.276,0-0.5,0.224-0.5,0.5s0.224,0.5,0.5,0.5h24c0.276,0,0.5-0.224,0.5-0.5S28.276,20.5,28,20.5z M16.158,8.864
	c0.572,0,1.038,0.466,1.038,1.038c0,0.573-0.466,1.039-1.038,1.039c-0.572,0-1.038-0.466-1.038-1.039
	C15.12,9.33,15.585,8.864,16.158,8.864z M16.157,11.94c4.757,0,8.63,3.825,8.722,8.56H7.437C7.528,15.766,11.401,11.94,16.157,11.94
	z M10.961,17.351c1.14-1.782,3.083-2.846,5.197-2.846c0.276,0,0.5-0.224,0.5-0.5s-0.224-0.5-0.5-0.5
	c-2.458,0-4.715,1.236-6.04,3.307c-0.148,0.232-0.081,0.542,0.152,0.69c0.083,0.054,0.177,0.079,0.269,0.079
	C10.704,17.581,10.865,17.5,10.961,17.351z"/>
</svg>
