<svg xmlns="http://www.w3.org/2000/svg" width="66" height="52" viewBox="0 0 66 52">
    <g fill="none" fill-rule="evenodd">
        <path fill="#1C242C" d="M19.785 32.826h-5.192a2 2 0 0 1-2-2v-.26a2 2 0 0 1 2-2h49.024a2 2 0 0 1 2 2v.26a2 2 0 0 1-2 2H19.785zM41.658 4.334h-4.9l.004-1.621a2.448 2.448 0 1 1 4.896 0v1.62z"/>
        <path fill="#5CC83B" d="M16.439 35.016c5.027-4.37 9.129-4.76 14.811-3.04 2.617.792 2.84.85 3.59.85h6.838a3.388 3.388 0 0 1 3.367 3.765l6.271-3.195a3.243 3.243 0 0 1 3.042 5.726L41.45 46.265a1 1 0 0 1-.484.125h-13.72a2.044 2.044 0 0 1-.584 1.7l-3.268 3.267c-.383.385-.905.6-1.448.6v-1 1H2.05c-1.824 0-2.738-2.205-1.448-3.494l13.216-13.217a2.048 2.048 0 0 1 2.62-.23zm1.441 1.397l7.977 7.977h14.85l12.683-7.018a1.242 1.242 0 0 0-1.166-2.194l-8.467 4.314a1 1 0 0 1-.454.109H32.291a1 1 0 1 1 0-2h9.404a1.388 1.388 0 0 0-.017-2.775H34.84c-1.048 0-1.255-.054-4.169-.936-5.028-1.522-8.417-1.23-12.791 2.523zm-2.812-11.08h48.284c.14 1.057.213 2.137.213 3.233h-48.71c0-1.096.073-2.176.213-3.233zm.35-2C17.814 12.397 27.556 4.21 39.21 4.21c11.655 0 21.397 8.186 23.791 19.122H15.42z"/>
    </g>
</svg>
