<svg id="Group_1304" data-name="Group 1304" xmlns="http://www.w3.org/2000/svg" xmlns:xlink="http://www.w3.org/1999/xlink" width="159.579" height="159.735" viewBox="0 0 159.579 159.735">
  <defs>
    <clipPath id="clip-path">
      <rect id="Rectangle_831" data-name="Rectangle 831" width="159.579" height="159.735" fill="#57b53c"/>
    </clipPath>
  </defs>
  <g id="Group_1297" data-name="Group 1297" clip-path="url(#clip-path)">
    <path id="Path_2140" data-name="Path 2140" d="M75.06,159.735c-3.029-.4-6.075-.711-9.084-1.23a77.856,77.856,0,0,1-43.018-22.526A76.447,76.447,0,0,1,1.376,94.985C-6.7,49.775,21.8,11.892,60.544,2.449c23-5.606,44.508-1.523,64.255,11.58a6.166,6.166,0,0,1,1.984,8.6,6.1,6.1,0,0,1-8.6,1.888A71.212,71.212,0,0,0,100.63,15.9c-21.432-6.517-41.521-3.71-59.884,9.24a64.635,64.635,0,0,0-26.17,37.9c-4.878,19.3-1.951,37.526,9.13,54.064,11.049,16.49,26.6,26.471,46.316,29.42a65.751,65.751,0,0,0,42.7-7.923,25.169,25.169,0,0,1,2.9-1.507,6.186,6.186,0,0,1,7.713,2.935,5.979,5.979,0,0,1-2.183,8.05,100.009,100.009,0,0,1-10.518,5.383,76.512,76.512,0,0,1-25.006,6.026,9.276,9.276,0,0,0-1.209.248Z" transform="translate(0 0)" fill="#57b53c"/>
    <path id="Path_2141" data-name="Path 2141" d="M156.966,138.761c-5.242-.027-9.1-1.584-12.334-4.643q-16.076-15.214-32.12-30.46c-2.859-2.721-3-6.56-.454-9.146s6.246-2.516,9.17.251q15.624,14.784,31.219,29.6c2.821,2.677,4.679,2.582,7.093-.421q31.637-39.348,63.269-78.7c1.267-1.576,2.436-3.243,4.571-3.805a6.287,6.287,0,0,1,6.569,2.115,6.123,6.123,0,0,1,.539,6.871,12.665,12.665,0,0,1-1.168,1.649q-32.362,40.265-64.734,80.522a15.675,15.675,0,0,1-11.621,6.17" transform="translate(-75.74 -28.313)" fill="#57b53c"/>
    <path id="Path_2142" data-name="Path 2142" d="M455.044,200.546c-.316,17.222-4.777,31.49-13.249,44.52-2.123,3.265-5.768,4.143-8.917,2.166a6.149,6.149,0,0,1-1.692-8.649,71.258,71.258,0,0,0,9.452-21.561,67.277,67.277,0,0,0-.062-32.084c-.558-2.305-.372-4.469,1.294-6.273a5.9,5.9,0,0,1,5.926-1.908,5.97,5.97,0,0,1,4.736,4.641,78.542,78.542,0,0,1,2.512,19.15" transform="translate(-295.467 -121.306)" fill="#57b53c"/>
  </g>
</svg>
