<svg version="1.0" xmlns="http://www.w3.org/2000/svg" xmlns:xlink="http://www.w3.org/1999/xlink" x="0px" y="0px"
	 width="44px" height="17px" viewBox="-0.5 0 44 17" enable-background="new -0.5 0 44 17" xml:space="preserve">
<g>
	<path fill="none" stroke="#7B838C" d="M8.5,0.5h26c4.418,0,8,3.582,8,8l0,0c0,4.418-3.582,8-8,8h-26c-4.418,0-8-3.582-8-8l0,0
		C0.5,4.082,4.082,0.5,8.5,0.5z"/>
	<path fill="#32465A" d="M14.781,3.686c0.113,0,0.196,0.014,0.25,0.042c0.072,0.044,0.135,0.103,0.185,0.172l5.396,7.02
		c-0.013-0.109-0.021-0.219-0.026-0.328c-0.004-0.103-0.007-0.205-0.007-0.309V3.686h1.105V13h-0.637
		c-0.086,0.003-0.172-0.016-0.25-0.052c-0.078-0.044-0.145-0.104-0.198-0.175L15.21,5.759c0.016,0.201,0.024,0.403,0.026,0.604V13
		h-1.105V3.686H14.781z M26.441,6.31c0.481,0,0.916,0.08,1.304,0.241c0.388,0.16,0.717,0.388,0.987,0.683
		c0.271,0.294,0.48,0.65,0.625,1.069c0.145,0.418,0.218,0.884,0.218,1.4c0,0.52-0.073,0.988-0.218,1.404
		c-0.133,0.395-0.346,0.757-0.625,1.065c-0.27,0.295-0.6,0.522-0.987,0.681c-0.415,0.162-0.857,0.243-1.304,0.236
		c-0.48,0-0.914-0.08-1.303-0.236c-0.376-0.151-0.715-0.383-0.99-0.681c-0.281-0.308-0.496-0.671-0.631-1.065
		c-0.154-0.452-0.229-0.928-0.222-1.404c0-0.516,0.074-0.982,0.222-1.4c0.146-0.418,0.356-0.775,0.629-1.07
		c0.277-0.297,0.616-0.53,0.992-0.682C25.527,6.391,25.961,6.311,26.441,6.31L26.441,6.31z M26.441,12.188
		c0.65,0,1.136-0.219,1.457-0.654c0.319-0.436,0.48-1.043,0.48-1.823c0-0.784-0.16-1.395-0.48-1.833S27.092,7.22,26.441,7.22
		c-0.33,0-0.614,0.057-0.857,0.17c-0.24,0.11-0.448,0.277-0.607,0.487c-0.174,0.234-0.297,0.5-0.365,0.783
		c-0.079,0.31-0.119,0.66-0.119,1.05s0.04,0.739,0.119,1.046c0.08,0.309,0.203,0.567,0.365,0.777s0.364,0.371,0.607,0.484
		C25.827,12.13,26.113,12.188,26.441,12.188z"/>
</g>
</svg>
