<svg xmlns="http://www.w3.org/2000/svg" width="36.582" height="36.596" viewBox="0 0 36.582 36.596">
  <g id="My_Services_Requests_Over-view" data-name="My Services Requests Over-view" transform="translate(0.283 0.881)">
    <g id="Group_1690" data-name="Group 1690" transform="translate(0.217 0.214)">
      <path id="Path_2297" data-name="Path 2297" d="M90.926,8.273V3.661A2.678,2.678,0,0,1,93.621,1h18.258" transform="translate(-84.07 -1)" fill="none" stroke="#00a6be" stroke-miterlimit="10" stroke-width="1"/>
      <path id="Path_2298" data-name="Path 2298" d="M119.07,99.2v24.946a2.678,2.678,0,0,1-2.695,2.661H93.621a2.678,2.678,0,0,1-2.695-2.661v-4.865" transform="translate(-84.07 -91.809)" fill="none" stroke="#00a6be" stroke-miterlimit="10" stroke-width="1"/>
      <path id="Path_2299" data-name="Path 2299" d="M365.537,2.736l7.1,7.262h-7.1Z" transform="translate(-337.745 -2.605)" fill="none" stroke="#00a6be" stroke-miterlimit="10" stroke-width="1"/>
      <line id="Line_517" data-name="Line 517" x2="14.586" transform="translate(9.986 3.762)" fill="none" stroke="#00a6be" stroke-miterlimit="10" stroke-width="1"/>
      <line id="Line_518" data-name="Line 518" x2="6.099" transform="translate(18.472 7.393)" fill="none" stroke="#00a6be" stroke-miterlimit="10" stroke-width="1"/>
      <line id="Line_519" data-name="Line 519" x2="10.394" transform="translate(21.522 11.064)" fill="none" stroke="#00a6be" stroke-miterlimit="10" stroke-width="1"/>
      <line id="Line_520" data-name="Line 520" x2="8.565" transform="translate(23.352 14.549)" fill="none" stroke="#00a6be" stroke-miterlimit="10" stroke-width="1"/>
      <line id="Line_521" data-name="Line 521" x2="8.565" transform="translate(23.352 18.24)" fill="none" stroke="#00a6be" stroke-miterlimit="10" stroke-width="1"/>
      <line id="Line_522" data-name="Line 522" x2="9.11" transform="translate(22.807 21.828)" fill="none" stroke="#00a6be" stroke-miterlimit="10" stroke-width="1"/>
      <line id="Line_523" data-name="Line 523" x2="6.722" transform="translate(25.194 25.493)" fill="none" stroke="#00a6be" stroke-miterlimit="10" stroke-width="1"/>
      <path id="Path_2300" data-name="Path 2300" d="M377.623,379.45v3.527a.706.706,0,0,1-.71.7h-3.572" transform="translate(-344.954 -350.959)" fill="none" stroke="#00a6be" stroke-miterlimit="10" stroke-width="1"/>
      <line id="Line_524" data-name="Line 524" x2="5.256" transform="translate(8.234 14.037)" fill="none" stroke="#00a6be" stroke-miterlimit="10" stroke-width="1"/>
      <line id="Line_525" data-name="Line 525" x2="10.258" transform="translate(5.703 17.612)" fill="none" stroke="#00a6be" stroke-miterlimit="10" stroke-width="1"/>
      <line id="Line_526" data-name="Line 526" x2="5.256" transform="translate(8.234 21.206)" fill="none" stroke="#00a6be" stroke-miterlimit="10" stroke-width="1"/>
      <ellipse id="Ellipse_158" data-name="Ellipse 158" cx="11.037" cy="10.899" rx="11.037" ry="10.899" transform="translate(0 6.463)" fill="none" stroke="#00a6be" stroke-miterlimit="10" stroke-width="1"/>
      <path id="Path_2301" data-name="Path 2301" d="M37.887,135.182a8.574,8.574,0,1,1,4.174,1.073,8.6,8.6,0,0,1-4.174-1.073" transform="translate(-31.031 -110.454)" fill="none" stroke="#00a6be" stroke-miterlimit="10" stroke-width="1"/>
      <path id="Path_2302" data-name="Path 2302" d="M222.724,312.291l5.6,5.529a2.476,2.476,0,0,0,3.47,0,2.4,2.4,0,0,0,0-3.427l-5.589-5.519" transform="translate(-205.82 -285.696)" fill="none" stroke="#00a6be" stroke-miterlimit="10" stroke-width="1"/>
    </g>
  </g>
</svg>
