<svg version="1.1" xmlns="http://www.w3.org/2000/svg" xmlns:xlink="http://www.w3.org/1999/xlink" x="0px" y="0px" width="21px" height="24px" viewBox="0 0 21 24" enable-background="new 0 0 21 24" xml:space="preserve">
    <path fill="#5CC83B" d="M18.098,13.83c-1.061-1.364-2.716-2.241-4.576-2.241c-3.201,0-5.795,2.594-5.795,5.794c0,2.099,1.116,3.937,2.787,4.954l-1.294,1.451H0V0h19.824v11.894L18.098,13.83z M16.458,4.484H3.163v1.4h13.295V4.484zM16.458,8.475H3.163v1.4h13.295V8.475z M6.8,12.338H3.163v1.4H6.8V12.338z M5.834,16.2H3.163v1.4h2.671V16.2z"></path>
    <path fill="#1C242C" d="M13.521,21.947c-2.517,0-4.564-2.047-4.564-4.563s2.047-4.563,4.564-4.563c2.516,0,4.562,2.047,4.562,4.563S16.037,21.947,13.521,21.947z M13.521,14.221c-1.744,0-3.164,1.419-3.164,3.163s1.419,3.163,3.164,3.163s3.162-1.419,3.162-3.163S15.266,14.221,13.521,14.221z"></path>
    <path fill="#1C242C" d="M18.805,23.685l-3.444-3.638l1.017-0.962l3.444,3.638L18.805,23.685z"></path>
</svg>