<svg version="1.1" xmlns="http://www.w3.org/2000/svg" xmlns:xlink="http://www.w3.org/1999/xlink" x="0px" y="0px" width="24px" height="24px" viewBox="0 0 24 24" enable-background="new 0 0 24 24" xml:space="preserve">
	<path fill="#32465A" d="M16.828,8.362c0-1.184,0.887-2.145,1.98-2.145V3H0v2.681c1.093,0,1.98,0.96,1.98,2.145C1.98,9.01,1.093,9.97,0,9.97v2.681h18.809v-2.145C17.715,10.506,16.828,9.545,16.828,8.362"></path>
	<path fill="#5CC83B" d="M21.777,15.869c0-1.184,0.888-2.145,1.98-2.145v-3.218H4.949v2.681c1.093,0,1.98,0.961,1.98,2.145s-0.887,2.145-1.98,2.145v2.682h18.809v-2.145C22.665,18.014,21.777,17.053,21.777,15.869"></path>
</svg>