<svg width="38px" height="53px" viewBox="0 0 38 48" version="1.1" xmlns="http://www.w3.org/2000/svg" xmlns:xlink="http://www.w3.org/1999/xlink">
  <!-- Generator: Sketch 48.2 (47327) - http://www.bohemiancoding.com/sketch -->
  <desc>Created with Sketch.</desc>
  <defs></defs>
  <g id="Page-1" stroke="none" stroke-width="1" fill="none" fill-rule="evenodd">
    <g id="Home" transform="translate(-623.000000, -1326.000000)">
      <g id="Group-3" transform="translate(623.000000, 1326.000000)">
        <g>
          <path d="M32.8825344,30.8874768 C33.7802805,30.8874768 34.5067667,31.5987758 34.5067667,32.476989 C34.5067667,33.3559678 33.7802805,34.0680325 32.8825344,34.0680325 C31.9863523,34.0680325 31.2598661,33.3559678 31.2598661,32.476989 C31.2598661,31.5987758 31.9863523,30.8874768 32.8825344,30.8874768 M32.6925062,46.9946871 C30.1118772,44.9404187 26.6577443,43.4397231 22.7344061,42.7766607 C22.3168134,42.7054542 22.3129033,42.5967304 22.726586,42.5002571 C31.4803926,40.4949909 38,32.8039262 38,23.6213539 C38,19.7080606 36.8152567,16.0650456 34.7804697,13.0169492 C34.4567181,14.885162 32.7980774,16.3062288 30.7992629,16.3062288 C30.7859688,16.3062288 30.7726746,16.3054631 30.7601625,16.3054631 C32.0653352,18.4454856 32.8144996,20.9476657 32.8144996,23.6213539 C32.8144996,31.526038 26.2698679,37.9369175 18.194845,37.9369175 C15.1293704,37.9369175 12.2859864,37.0112334 9.93448593,35.4309091 C9.97280436,35.6192617 9.99548261,35.8145053 9.99548261,36.0158741 C9.99548261,37.5893075 8.69187393,38.8656643 7.08562784,38.8656643 C6.24653239,38.8656643 10.4482657,41.7659882 13.6584119,42.5025541 C14.0720945,42.597496 14.0705305,42.7062199 13.6513738,42.7766607 C9.72959962,43.4397231 6.27546672,44.9411843 3.69718368,46.9946871 C3.03482222,47.5191649 3.23970853,48 4.0889701,48 L32.2999378,48 C33.1499814,48 33.3533037,47.5191649 32.6925062,46.9946871" id="Fill-7" fill="#fff"></path>
          <path d="M33.8695652,12.6105586 C33.8695652,14.183529 32.5764614,15.4576271 30.9782609,15.4576271 C29.3824316,15.4576271 28.0869565,14.183529 28.0869565,12.6105586 C28.0869565,11.039145 29.3824316,9.76271186 30.9782609,9.76271186 C32.5764614,9.76271186 33.8695652,11.039145 33.8695652,12.6105586" id="Fill-3" fill="#fff"></path>
          <path d="M13.6833491,23.9720818 C13.8523575,24.1408552 14.1147841,24.4067797 14.3037597,24.4067797 C14.4157189,24.4067797 14.5283912,24.36565 14.613965,24.279845 L16.1179259,22.7842858 C16.2897868,22.6119668 16.5650494,22.6169307 16.7326316,22.7913772 L17.474985,23.5650401 C17.6404278,23.7401957 17.9199691,23.7465779 18.0946825,23.5799319 L18.893372,22.8239972 C19.0338558,22.6906804 19.035282,22.4708495 18.8990769,22.333278 L13.7175787,17.1807255 C13.5785211,17.0445722 13.368152,17.0545 13.2433568,17.2027086 L12.6479052,17.9019126 C12.4931591,18.0877052 12.5017165,18.3784493 12.6692987,18.5528957 L13.2740207,19.1861505 C13.4430291,19.360597 13.4387505,19.6399949 13.2676027,19.8108957 L11.6951827,21.3752407 C11.5218956,21.5454324 11.5218956,21.822703 11.6951827,21.9936038 L13.6833491,23.9720818 Z" id="Fill-5" fill="#fff"></path>
          <path d="M4.78946268,27.8982817 C4.7675713,27.8982817 4.74869942,28.0730938 4.74869942,28.289038 L4.74869942,35.7023333 C5.26352431,35.0608285 6.03651651,34.6502971 6.90311324,34.6502971 C7.40208575,34.6502971 7.8693535,34.7879319 8.27472148,35.0268153 L8.27472148,30.6280387 C8.27472148,30.4136764 8.41588314,30.3345759 8.58723981,30.4508536 L16.3752872,35.7395105 C16.5481537,35.8549971 16.75197,35.7901348 16.8327416,35.5915926 L17.3158617,34.3908476 C17.3958785,34.1923054 17.320391,33.938393 17.1482794,33.8213243 L0.97054905,22.8374342 C0.80070213,22.7203655 0.595376076,22.7868099 0.516869056,22.9861431 L0.0322391776,24.1868881 C-0.0477775935,24.3838482 0.026200176,24.6385517 0.198311721,24.7572024 L4.51997224,27.6894565 C4.68981916,27.8049432 4.81135406,27.8982817 4.78946268,27.8982817" id="Fill-9" fill="#fff"></path>
          <path d="M7.43546533,34.1694915 C6.52267337,34.1694915 5.7826087,34.8975103 5.7826087,35.7976185 C5.7826087,36.6943656 6.52267337,37.4237288 7.43546533,37.4237288 C8.34757456,37.4237288 9.08695652,36.6943656 9.08695652,35.7976185 C9.08695652,34.8975103 8.34757456,34.1694915 7.43546533,34.1694915" id="Fill-12" fill="#fff"></path>
          <path d="M35.5033553,6.69474709 L35.3162049,5.53798256 C35.2309981,5.00610939 35.0331968,4.43925502 34.8749558,4.27388937 L34.5881439,3.97495915 L35.052977,3.48919755 C35.1663323,3.37471364 35.1663323,3.18788226 35.052977,3.07419337 L32.6032839,0.515000921 C32.4937324,0.399721982 32.3149504,0.399721982 32.2053989,0.515000921 L31.7405659,0.999172465 C31.7405659,0.999172465 31.6371006,0.891048771 31.507769,0.757484207 C31.3807197,0.622329588 30.8649147,0.421982742 30.3589998,0.310678939 L29.0786168,0.0268542404 C28.5704196,-0.0844495629 27.8910482,0.160418804 27.557829,0.573037904 L14.960929,16.232688 C14.8300758,16.3980537 14.8407266,16.6564375 14.9867953,16.8090827 L20.5868546,22.6628677 C20.733684,22.816308 20.9718063,22.8186931 21.1239612,22.6692279 L26.9925738,16.8114678 L27.6316241,16.1420549 C26.8381366,15.3939343 26.3405902,14.3111073 26.3405902,13.1066412 C26.3405902,10.8503541 28.0918926,9.0217916 30.2494483,9.0217916 C31.4027821,9.0217916 32.4389566,9.54412445 33.1548452,10.3725428 L33.9490935,9.54412445 L35.0141775,8.37066436 C35.3694591,7.97951099 35.588562,7.22821032 35.5033553,6.69474709" id="Fill-14" fill="#fff"></path>
        </g>
      </g>
    </g>
  </g>
</svg>