<svg width="76px" height="53px" viewBox="0 0 76 38" version="1.1" xmlns="http://www.w3.org/2000/svg" xmlns:xlink="http://www.w3.org/1999/xlink">
  <!-- Generator: Sketch 48.2 (47327) - http://www.bohemiancoding.com/sketch -->
  <desc>Created with Sketch.</desc>
  <defs></defs>
  <g id="Page-1" stroke="none" stroke-width="1" fill="none" fill-rule="evenodd">
    <g id="1--Sectors-&amp;-Industries" transform="translate(-806.000000, -278.000000)">
      <g id="Group-5" transform="translate(806.000000, 278.000000)">
        <polygon id="Fill-1" fill="#fff" points="52.8292683 0 29.6585366 9.90266676 33.6256442 17.6097561 51.4013065 6.15954578"></polygon>
        <polygon id="Fill-2" fill="#fff" points="53.4739316 0 51.902439 3.53626458 70.7501344 15.7560976 72.2926829 15.1394238"></polygon>
        <path d="M3.39090948,13.2406247 L18.5694212,13.2406247 L18.5694212,15.8944919 L29.7221437,15.8944919 L29.7221437,10.2975751 L29.6195862,10.2975751 L29.653772,10.195122 L34.6090905,10.195122 C36.4746605,10.195122 38,11.7451391 38,13.6372175 L38,21.5822947 C38,23.4743731 36.4746605,25.0243902 34.6090905,25.0243902 L3.39090948,25.0243902 C1.5269674,25.0243902 0,23.4743731 0,21.5822947 L0,16.6827203 C0,14.7889893 1.5269674,13.2406247 3.39090948,13.2406247" id="Fill-3" fill="#fff"></path>
        <path d="M19.2559003,1.85365854 L26.6419821,1.85365854 C27.7041291,1.85365854 28.6243301,2.27318432 29.3079547,2.95087982 C29.9801583,3.61405326 30.4108907,4.53700999 30.5022582,5.54387187 L31.4909848,16.4160439 C31.5056689,16.566105 31.5121951,16.6693729 31.5121951,16.7274611 C31.5121951,17.7165738 31.0814627,18.6040322 30.4076276,19.2607514 C29.7729499,19.8771316 28.9049588,20.286976 27.9733368,20.3692676 C27.8134438,20.3837897 27.6976028,20.3902439 27.6323404,20.3902439 L20.5774657,20.3902439 C20.3718888,20.3902439 20.1532595,20.3708812 19.9264724,20.3337693 C19.1009019,20.1966166 18.3161205,19.79484 17.7336528,19.2252531 C17.0924489,18.597578 16.6829268,17.7633671 16.6829268,16.8275019 C16.6829268,16.6629187 16.6992425,16.4870406 16.7302421,16.2966404 C16.7742943,16.0465385 16.8216096,14.6459678 16.8656618,12.8662103 C16.9456083,9.71976697 17.0076077,5.55355323 17.028818,4.04003329 C17.0402389,3.28972756 17.1267117,2.85567973 17.6406538,2.3764522 C18.1660168,1.88592975 18.564118,1.85365854 19.2559003,1.85365854 Z M26.6419821,5.09207487 L20.2756267,5.09207487 C20.2462585,7.03641552 20.192417,10.3716455 20.1271545,12.9420477 C20.0782076,14.876707 20.021103,16.4402473 19.9542089,16.8275019 L19.9558405,16.8275019 C19.9558405,16.8242747 19.9558405,16.8226612 19.9558405,16.8275019 C19.9558405,16.8484782 19.9868402,16.8888172 20.0374186,16.9356104 C20.1451017,17.043719 20.2984685,17.1195564 20.4648879,17.1469869 C20.4909929,17.150214 20.5285188,17.1534411 20.5774657,17.1534411 L27.6323404,17.1534411 C27.700866,17.1534411 27.6649716,17.1582818 27.6927082,17.1566683 C27.8542328,17.1437598 28.0043365,17.069536 28.1185459,16.9582003 C28.1919662,16.8872036 28.2376499,16.804912 28.2376499,16.7274611 C28.2376499,16.6758272 28.2474393,16.7452103 28.2425446,16.7064848 L28.2425446,16.7016441 L27.2538179,5.82301787 C27.2342392,5.59066513 27.1396086,5.38412936 26.9943996,5.23890889 C26.9014005,5.14854949 26.7790334,5.09207487 26.6419821,5.09207487 Z M19.9542089,16.8275019 C19.9525774,16.8339561 19.9525774,16.830729 19.9558405,16.8275019 L19.9542089,16.8275019 Z" id="Fill-5" fill="#fff"></path>
        <path d="M10.6181224,25.9512195 L32.0176839,25.9512195 C33.6643147,25.9512195 35.1598938,26.6281173 36.2438151,27.7195105 C37.3277364,28.8109037 38,30.3167924 38,31.9747741 C38,33.6344272 37.3277364,35.1403158 36.2438151,36.2300377 C35.1598938,37.3231022 33.6643147,38 32.0176839,38 L10.6181224,38 C8.97149153,38 7.4759125,37.3231022 6.39033127,36.2300377 C5.30640995,35.1403158 4.63414634,33.6344272 4.63414634,31.9747741 C4.63414634,30.3167924 5.30640995,28.8109037 6.39033127,27.7195105 C7.4759125,26.6281173 8.97149153,25.9512195 10.6181224,25.9512195 M32.0176839,28.7122939 L10.6181224,28.7122939 C9.72841055,28.7122939 8.9183744,29.0799915 8.32910631,29.6716503 C7.74315803,30.2633091 7.3779778,31.0789291 7.3779778,31.9747741 C7.3779778,32.870619 7.74315803,33.6862391 8.32910631,34.2778979 C8.9183744,34.8695567 9.72841055,35.2372542 10.6181224,35.2372542 L32.0176839,35.2372542 C32.9073957,35.2372542 33.7157719,34.8695567 34.30504,34.2778979 C34.8926482,33.6862391 35.2578285,32.870619 35.2578285,31.9747741 C35.2578285,31.0789291 34.8926482,30.2633091 34.30504,29.6716503 C33.7157719,29.0799915 32.9073957,28.7122939 32.0176839,28.7122939" id="Fill-7" fill="#fff"></path>
        <path d="M74.3049386,17.977539 L75.0731707,21.6813598 L72.4585719,22.2439024 L71.6903398,18.5384222 C71.5565924,17.8912492 71.1716609,17.3552572 70.6611372,17.016736 C70.1506135,16.6782147 69.5144978,16.5371642 68.8783821,16.6748959 L59.8683735,18.6064583 L59.3170732,15.9464114 L68.3270818,14.0131895 C69.6857597,13.721132 71.0379134,14.0214866 72.1209413,14.7400146 C73.202338,15.4568831 74.017871,16.5952438 74.3049386,17.977539" id="Fill-9" fill="#fff"></path>
        <path d="M68.3927302,14.0133268 L64.8780488,14.800699 L65.41029,17.4804392 L68.9265461,16.6947387 C69.5406706,16.5559873 70.154795,16.6980821 70.6476692,17.0391096 C71.1405435,17.380137 71.5105928,17.9184254 71.6412911,18.5720614 L73.4773657,27.804878 L76,27.2398424 L74.1655,18.0070257 C73.8899314,16.6144969 73.1010177,15.4693803 72.0570061,14.7438611 C71.0098452,14.0216853 69.7044371,13.7207787 68.3927302,14.0133268" id="Fill-11" fill="#fff"></path>
        <polygon id="Fill-13" fill="#fff" points="64.8815927 14.8292683 54.6331254 9.52959184 49.1219512 3.47045505 52.2174752 2.7804878 65.804878 14.4619476"></polygon>
        <polygon id="Fill-15" fill="#fff" points="53.0119162 0.926829268 58.3902439 7.53162258 55.4254774 10.195122 50.0487805 3.59032864"></polygon>
        <polygon id="Fill-17" fill="#fff" points="16.6829268 27.804878 32.4390244 27.804878 32.4390244 20.3902439 16.6829268 20.3902439"></polygon>
        <polygon id="Fill-19" fill="#fff" points="10.195122 36.1463415 13.902439 36.1463415 13.902439 31.5121951 10.195122 31.5121951"></polygon>
        <polygon id="Fill-20" fill="#fff" points="16.6829268 36.1463415 20.3902439 36.1463415 20.3902439 31.5121951 16.6829268 31.5121951"></polygon>
        <polygon id="Fill-21" fill="#fff" points="22.2439024 36.1463415 25.9512195 36.1463415 25.9512195 31.5121951 22.2439024 31.5121951"></polygon>
        <polygon id="Fill-22" fill="#fff" points="28.7317073 36.1463415 32.4390244 36.1463415 32.4390244 31.5121951 28.7317073 31.5121951"></polygon>
      </g>
    </g>
  </g>
</svg>