<svg width="44px" height="53px" viewBox="0 0 44 43" version="1.1" xmlns="http://www.w3.org/2000/svg" xmlns:xlink="http://www.w3.org/1999/xlink">
  <!-- Generator: Sketch 48.2 (47327) - http://www.bohemiancoding.com/sketch -->
  <desc>Created with Sketch.</desc>
  <defs></defs>
  <g id="Page-1" stroke="none" stroke-width="1" fill="none" fill-rule="evenodd">
    <g id="1--Sectors-&amp;-Industries" transform="translate(-1056.000000, -274.000000)">
      <g id="Group-7" transform="translate(1056.000000, 274.000000)">
        <path d="M35.357638,13.3777778 L35.7259879,13.0080743 C36.1266841,12.6072866 36.3478261,12.0722416 36.3478261,11.5028056 C36.3478261,10.9327082 36.1266841,10.3983246 35.7259879,9.99621417 L33.0280553,7.29255057 C32.2233624,6.48766833 30.8245567,6.48766833 30.021184,7.29255057 L29.6521739,7.66159272 L35.357638,13.3777778 Z" id="Fill-1" fill="#fff"></path>
        <path d="M0.000631517304,37.4299309 C-0.0140187655,38.06655 0.226664453,38.6648606 0.677335058,39.1155089 L3.89063043,42.3243758 C4.32734838,42.7597007 4.907081,43 5.52309052,43 C6.21653724,42.9846766 6.80254855,42.7193025 7.23019728,42.2512412 L28.6956522,19.1887731 L23.8324559,14.3333333 L0.758958062,35.7736068 C0.283172686,36.2075386 0.0152818001,36.7940083 0.000631517304,37.4299309" id="Fill-3" fill="#fff"></path>
        <path d="M36.6205217,18.1555556 L33.4782609,21.1830236 C39.6361606,27.834481 43.7004327,37.1664287 43.7433677,37.2666667 C45.3086764,30.199537 39.311601,21.5797698 36.6205217,18.1555556" id="Fill-6" fill="#fff"></path>
        <path d="M25.826087,7.37137193 C22.7858458,4.98403609 15.6592063,0 9.13949242,0 C8.31154769,0 7.49412768,0.0799655732 6.69565217,0.256616794 C6.79177796,0.2980535 16.1370287,4.36175854 22.7956689,10.5111111 L25.826087,7.37137193 Z" id="Fill-8" fill="#fff"></path>
        <polygon id="Fill-11" fill="#fff" points="30.7897786 20.0666667 35.3913043 15.4639698 27.5423263 7.64444444 22.9565217 12.2628665"></polygon>
      </g>
    </g>
  </g>
</svg>