<?xml version="1.0" encoding="UTF-8"?>
<svg width="355px" height="150px" viewBox="0 0 355 150" version="1.1" xmlns="http://www.w3.org/2000/svg" xmlns:xlink="http://www.w3.org/1999/xlink">
    <!-- Generator: Sketch 48.2 (47327) - http://www.bohemiancoding.com/sketch -->
    <title>Group 18 Copy 6@1.5x</title>
    <desc>Created with Sketch.</desc>
    <defs>
        <linearGradient x1="91.5037146%" y1="100%" x2="6.69740253%" y2="7.35633764%" id="linearGradient-1">
            <stop stop-color="#EBEBEB" offset="0%"></stop>
            <stop stop-color="#E1E1E9" offset="100%"></stop>
        </linearGradient>
        <path d="M0,0 L275.009901,0 C292.683013,2.81472554e-14 307.009901,14.326888 307.009901,32 L307.009901,102 L32,102 C14.326888,102 2.164332e-15,87.673112 0,70 L0,0 Z" id="path-2"></path>
        <filter x="-12.7%" y="-32.4%" width="125.4%" height="176.5%" filterUnits="objectBoundingBox" id="filter-4">
            <feOffset dx="0" dy="6" in="SourceAlpha" result="shadowOffsetOuter1"></feOffset>
            <feGaussianBlur stdDeviation="12" in="shadowOffsetOuter1" result="shadowBlurOuter1"></feGaussianBlur>
            <feColorMatrix values="0 0 0 0 0   0 0 0 0 0   0 0 0 0 0  0 0 0 0.0827955163 0" type="matrix" in="shadowBlurOuter1"></feColorMatrix>
        </filter>
        <polygon id="path-5" points="0 42.7597765 106.31786 42.7597765 106.31786 0.100173184 0 0.100173184"></polygon>
    </defs>
    <g id="Page-1" stroke="none" stroke-width="1" fill="none" fill-rule="evenodd">
        <g id="Group" transform="translate(24.000000, 18.000000)">
            <g id="Group-18-Copy-6">
                <mask id="mask-3" fill="white">
                    <use xlink:href="#path-2"></use>
                </mask>
                <g id="Mask">
                    <use fill="black" fill-opacity="1" filter="url(#filter-4)" xlink:href="#path-2"></use>
                    <use fill="url(#linearGradient-1)" fill-rule="evenodd" xlink:href="#path-2"></use>
                </g>
                <g id="Page-1" opacity="0.551573822" style="mix-blend-mode: luminosity;" mask="url(#mask-3)">
                    <g transform="translate(97.000000, 31.000000)">
                        <polygon id="Fill-1" fill="#006A35" points="0 21.5036034 2.41905028 21.5036034 2.41905028 5.55564804 0 5.55564804"></polygon>
                        <polygon id="Fill-2" fill="#006A35" points="16.6612989 21.5037955 8.97655028 10.2819966 8.97655028 21.5037955 6.5575 21.5037955 6.5575 5.55584022 8.77500279 5.55584022 16.4597514 16.7552983 16.4597514 5.55584022 18.8788017 5.55584022 18.8788017 21.5037955"></polygon>
                        <polygon id="Fill-3" fill="#006A35" points="37.5365737 21.5037955 37.5365737 5.55584022 48.9825011 5.55584022 48.9825011 7.72842123 39.955624 7.72842123 39.955624 12.3875553 47.8399983 12.3875553 47.8399983 14.5377955 39.955624 14.5377955 39.955624 19.3312145 48.9825011 19.3312145 48.9825011 21.5037955"></polygon>
                        <g id="Group-26" stroke-width="1" fill="none" transform="translate(0.000000, 0.140050)">
                            <path d="M56.9091788,21.4981743 C54.5122291,21.4981743 52.7876648,20.9382134 51.264648,19.3926156 L52.8772682,17.8023363 C54.0421117,18.9671799 55.3186592,19.3255933 56.9538603,19.3255933 C59.036838,19.3255933 60.2463631,18.4295598 60.2463631,16.883962 C60.2463631,16.189476 60.0448156,15.6071743 59.6193799,15.2264201 C59.2162849,14.8456659 58.8129497,14.6890402 57.8722346,14.5545151 L55.9908045,14.285705 C54.691676,14.1064983 53.6611173,13.6584816 52.9668715,13.0089173 C52.1830223,12.2699899 51.8022682,11.2620123 51.8022682,9.9628838 C51.8022682,7.18517989 53.8182235,5.28140894 57.133067,5.28140894 C59.2386257,5.28140894 60.7169609,5.81878883 62.083352,7.09581676 L60.5377542,8.61883352 C59.5523575,7.67787821 58.4098547,7.38672737 57.0658045,7.38672737 C55.1843743,7.38672737 54.1540559,8.4619676 54.1540559,9.87304022 C54.1540559,10.4553419 54.3332626,10.9708615 54.7586983,11.3513754 C55.1620335,11.7097888 55.8115978,11.9785989 56.5507654,12.090543 L58.3651732,12.3593531 C59.8432682,12.5834816 60.6722793,12.941895 61.3439441,13.5465374 C62.2178771,14.3080458 62.6433128,15.4505486 62.6433128,16.8166994 C62.6433128,19.7510291 60.2463631,21.4981743 56.9091788,21.4981743" id="Fill-4" fill="#006A35"></path>
                            <polygon id="Fill-6" fill="#006A35" points="70.0088045 7.58839497 70.0088045 21.3637693 67.5897542 21.3637693 67.5897542 7.58839497 63.1996704 7.58839497 63.1996704 5.41581397 74.3988883 5.41581397 74.3988883 7.58839497"></polygon>
                            <path d="M14.5344804,42.7597765 C12.1377709,42.7597765 10.4132067,42.1998156 8.88994972,40.6542179 L10.5028101,39.0639385 C11.6674134,40.2287821 12.9442011,40.5871955 14.5794022,40.5871955 C16.6623799,40.5871955 17.871905,39.691162 17.871905,38.1455642 C17.871905,37.4510782 17.6703575,36.8687765 17.2446816,36.4880223 C16.8415866,36.1072682 16.4384916,35.9506425 15.4977765,35.8161173 L13.6161061,35.5473073 C12.3169777,35.3681006 11.2866592,34.9200838 10.5924134,34.2705196 C9.80832402,33.5315922 9.42756983,32.5233743 9.42756983,31.224486 C9.42756983,28.4467821 11.4435251,26.5430112 14.7583687,26.5430112 C16.8639274,26.5430112 18.3422626,27.0803911 19.7086536,28.357419 L18.1632961,29.8804358 C17.1776592,28.9394804 16.0351564,28.6483296 14.6913464,28.6483296 C12.8099162,28.6483296 11.7793575,29.7235698 11.7793575,31.1346425 C11.7793575,31.7169441 11.9585642,32.2324637 12.3842402,32.6129777 C12.7873352,32.9713911 13.4368994,33.2402011 14.176067,33.3521453 L15.9904749,33.6209553 C17.4688101,33.8450838 18.297581,34.2034972 18.969486,34.8081397 C19.8431788,35.569648 20.2686145,36.7121508 20.2686145,38.0783017 C20.2686145,41.0126313 17.871905,42.7597765 14.5344804,42.7597765" id="Fill-8" fill="#006A35"></path>
                            <path d="M42.9328335,42.7597765 C39.6847721,42.7597765 37.2210402,40.5422737 37.2210402,37.2495307 L37.2210402,26.6772961 L39.6400905,26.6772961 L39.6400905,37.1375866 C39.6400905,39.2657263 40.939219,40.5871955 42.9328335,40.5871955 C44.9262078,40.5871955 46.2476771,39.2657263 46.2476771,37.1375866 L46.2476771,26.6772961 L48.6669676,26.6772961 L48.6669676,37.2495307 C48.6669676,40.5422737 46.1806547,42.7597765 42.9328335,42.7597765" id="Fill-10" fill="#006A35"></path>
                            <path d="M60.4807732,29.9250933 C59.8088682,29.1859257 58.9128346,28.8500933 57.7705721,28.8500933 L54.8362425,28.8500933 L54.8362425,40.4526464 L57.7705721,40.4526464 C58.9128346,40.4526464 59.8088682,40.116814 60.4807732,39.3776464 C61.3095441,38.4592721 61.3318849,36.7344676 61.3318849,34.5395458 C61.3318849,32.3441436 61.3095441,30.8434676 60.4807732,29.9250933 M62.1383151,41.1247916 C61.1303374,42.1327693 59.674343,42.6252274 58.0168011,42.6252274 L52.4171922,42.6252274 L52.4171922,26.6772721 L58.0168011,26.6772721 C59.674343,26.6772721 61.1303374,27.1699704 62.1383151,28.177948 C63.8628793,29.9027525 63.7509352,32.2324397 63.7509352,34.5395458 C63.7509352,36.846652 63.8628793,39.3999872 62.1383151,41.1247916" id="Fill-12" fill="#006A35"></path>
                            <mask id="mask-6" fill="white">
                                <use xlink:href="#path-5"></use>
                            </mask>
                            <g id="Clip-15"></g>
                            <polygon id="Fill-14" fill="#006A35" mask="url(#mask-6)" points="67.5897542 42.6252514 70.0088045 42.6252514 70.0088045 26.6772961 67.5897542 26.6772961"></polygon>
                            <polygon id="Fill-16" fill="#006A35" mask="url(#mask-6)" points="29.7700771 26.6773682 27.1941609 26.6773682 21.6618145 42.6253235 24.2374905 42.6253235 28.4822391 30.3895413 32.7272279 42.6246028 35.3021832 42.6246028"></polygon>
                            <polygon id="Fill-17" fill="#006A35" mask="url(#mask-6)" points="29.7700771 21.3637453 27.1941609 21.3637453 21.6618145 5.41578994 24.2374905 5.41578994 28.4822391 17.6515721 32.7272279 5.41651061 35.3021832 5.41651061"></polygon>
                            <path d="M82.737405,14.1513 L82.5723715,14.4371659 C82.6026397,14.4371659 82.633148,14.4393279 82.663176,14.4393279 C85.6316173,14.4393279 88.5094944,15.019948 91.2168128,16.1650933 C91.3241927,16.2104955 91.4310922,16.2570989 91.5377514,16.3041827 C92.0703268,16.2681492 92.6062654,16.2498922 93.1446061,16.2498922 C96.0657235,16.2498922 98.9090084,16.7822274 101.601673,17.8322441 L102.034796,17.7750709 C98.8600028,15.0874508 95.1387011,13.0253726 91.0616285,11.7786128 C88.2430866,12.3928642 85.4644218,13.1841603 82.737405,14.1513" id="Fill-18" fill="#006A35" mask="url(#mask-6)"></path>
                            <path d="M94.5159698,22.6950156 L94.5159698,30.542876 L93.1445341,31.5890492 L91.7730983,30.542876 L91.7730983,22.6950156 C92.2249587,22.6570603 92.6825844,22.6388034 93.1445341,22.6388034 C93.6064838,22.6388034 94.0641095,22.6570603 94.5159698,22.6950156" id="Fill-19" fill="#006A35" mask="url(#mask-6)"></path>
                            <path d="M95.899633,42.6253475 L100.244795,42.6253475 C95.3596106,36.0369788 88.6266274,30.9007609 80.8138397,27.9772413 L79.971376,28.9527888 C86.4458788,32.0120346 92.072633,36.6322525 95.899633,42.6253475" id="Fill-20" fill="#006A35" mask="url(#mask-6)"></path>
                            <path d="M90.3894352,42.6253475 L86.0442732,42.6253475 C90.9294575,36.0369788 97.6624408,30.9007609 105.475469,27.9772413 L106.317692,28.9527888 C99.8431894,32.0120346 94.2164352,36.6322525 90.3894352,42.6253475" id="Fill-21" fill="#9ACE87" mask="url(#mask-6)"></path>
                            <path d="M104.196399,10.2082961 C100.526025,10.1926816 96.9375665,9.53951397 93.5287955,8.26608939 C93.0365777,8.08231844 92.5503654,7.88605587 92.0696782,7.67826257 C88.5628961,8.34944693 85.1449966,9.27118436 81.8359184,10.4244972 L82.5724436,14.4371899 C89.4279408,11.9773017 96.7869464,10.5719944 104.452958,10.4218547 L104.196399,10.2082961 Z" id="Fill-22" fill="#9ACE87" mask="url(#mask-6)"></path>
                            <path d="M84.2545603,17.7752631 L88.2184877,20.7463469 C89.7917112,20.3350844 91.4425268,20.1160006 93.1445101,20.1160006 C94.8464933,20.1160006 96.4977894,20.3348441 98.0707726,20.7458665 L102.03494,17.7750229 C99.2923089,16.6539 96.2904765,16.0360453 93.1445101,16.0360453 C89.9985436,16.0360453 86.9969514,16.6541402 84.2545603,17.7752631" id="Fill-23" fill="#9ACE87" mask="url(#mask-6)"></path>
                            <path d="M103.716745,6.40798492 C103.686717,6.40798492 103.655968,6.40702402 103.6257,6.40702402 C100.657259,6.40702402 97.7796218,5.82640391 95.0723034,4.68125866 C94.9646832,4.63585642 94.8577838,4.58925307 94.7511246,4.54216927 C94.2185492,4.57820279 93.6828508,4.59645978 93.1445101,4.59645978 C90.2233927,4.59645978 87.3801078,4.06412458 84.6872028,3.01410782 L84.2543201,3.07128101 C89.671119,7.6569067 96.6777168,10.4223592 104.330756,10.4223592 C104.371594,10.4223592 104.412192,10.422119 104.45303,10.4218788 L103.716745,6.40798492 Z" id="Fill-24" fill="#006A35" mask="url(#mask-6)"></path>
                            <path d="M102.034508,3.07111285 L98.0705804,0.10002905 C96.497357,0.51129162 94.8465413,0.730375419 93.1445581,0.730375419 C91.4425749,0.730375419 89.7912788,0.511531844 88.2182955,0.100509497 L84.2541279,3.07135307 C86.9967592,4.19247598 89.9985916,4.81033073 93.1445581,4.81033073 C96.2905246,4.81033073 99.2921168,4.19223575 102.034508,3.07111285" id="Fill-25" fill="#9ACE87" mask="url(#mask-6)"></path>
                        </g>
                    </g>
                </g>
            </g>
        </g>
    </g>
</svg>