<svg width="43px" height="53px" viewBox="0 0 43 44" version="1.1" xmlns="http://www.w3.org/2000/svg" xmlns:xlink="http://www.w3.org/1999/xlink">
  <!-- Generator: Sketch 48.2 (47327) - http://www.bohemiancoding.com/sketch -->
  <desc>Created with Sketch.</desc>
  <defs></defs>
  <g id="Page-1" stroke="none" stroke-width="1" fill="none" fill-rule="evenodd">
    <g id="1--Sectors-&amp;-Industries" transform="translate(-337.000000, -568.000000)">
      <g id="Group-7" transform="translate(337.000000, 568.000000)">
        <path d="M26.7291882,14.6666667 L24.6919732,14.6666667 C24.57838,14.6666667 24.4861111,14.7602494 24.4861111,14.87581 L24.4861111,19.3465135 C24.4861111,19.4619728 24.57838,19.5555556 24.6919732,19.5555556 L26.7291882,19.5555556 C26.8426174,19.5555556 26.9347222,19.4619728 26.9347222,19.3465135 L26.9347222,14.87581 C26.9347222,14.7602494 26.8426174,14.6666667 26.7291882,14.6666667" id="Fill-1" fill="#FFFFFF"></path>
        <path d="M31.6261919,14.6666667 L29.5891679,14.6666667 C29.4755899,14.6666667 29.3833333,14.7602494 29.3833333,14.87581 L29.3833333,19.3465135 C29.3833333,19.4619728 29.4755899,19.5555556 29.5891679,19.5555556 L31.6261919,19.5555556 C31.7398519,19.5555556 31.8319444,19.4619728 31.8319444,19.3465135 L31.8319444,14.87581 C31.8319444,14.7602494 31.7398519,14.6666667 31.6261919,14.6666667" id="Fill-3" fill="#FFFFFF"></path>
        <path d="M36.5236119,14.6666667 L34.4859462,14.6666667 C34.3722595,14.6666667 34.2805556,14.7602494 34.2805556,14.87581 L34.2805556,19.3465135 C34.2805556,19.4619728 34.3722595,19.5555556 34.4859462,19.5555556 L36.5236119,19.5555556 C36.6371346,19.5555556 36.7291667,19.4619728 36.7291667,19.3465135 L36.7291667,14.87581 C36.7291667,14.7602494 36.6371346,14.6666667 36.5236119,14.6666667" id="Fill-5" fill="#FFFFFF"></path>
        <path d="M26.7291882,20.7777778 L24.6919732,20.7777778 C24.57838,20.7777778 24.4861111,20.8714638 24.4861111,20.9868241 L24.4861111,25.4574178 C24.4861111,25.5732845 24.57838,25.6666667 24.6919732,25.6666667 L26.7291882,25.6666667 C26.8426174,25.6666667 26.9347222,25.5732845 26.9347222,25.4574178 L26.9347222,20.9868241 C26.9347222,20.8714638 26.8426174,20.7777778 26.7291882,20.7777778" id="Fill-7" fill="#FFFFFF"></path>
        <path d="M31.6261919,20.7777778 L29.5891679,20.7777778 C29.4755899,20.7777778 29.3833333,20.8714638 29.3833333,20.9868241 L29.3833333,25.4574178 C29.3833333,25.5732845 29.4755899,25.6666667 29.5891679,25.6666667 L31.6261919,25.6666667 C31.7398519,25.6666667 31.8319444,25.5732845 31.8319444,25.4574178 L31.8319444,20.9868241 C31.8319444,20.8714638 31.7398519,20.7777778 31.6261919,20.7777778" id="Fill-9" fill="#FFFFFF"></path>
        <path d="M36.5236119,20.7777778 L34.4859462,20.7777778 C34.3722595,20.7777778 34.2805556,20.8714638 34.2805556,20.9868241 L34.2805556,25.4574178 C34.2805556,25.5732845 34.3722595,25.6666667 34.4859462,25.6666667 L36.5236119,25.6666667 C36.6371346,25.6666667 36.7291667,25.5732845 36.7291667,25.4574178 L36.7291667,20.9868241 C36.7291667,20.8714638 36.6371346,20.7777778 36.5236119,20.7777778" id="Fill-11" fill="#FFFFFF"></path>
        <path d="M26.7291882,28.1111111 L24.6919732,28.1111111 C24.57838,28.1111111 24.4861111,28.2047932 24.4861111,28.3203513 L24.4861111,32.7909623 C24.4861111,32.9063179 24.57838,33 24.6919732,33 L26.7291882,33 C26.8426174,33 26.9347222,32.9063179 26.9347222,32.7909623 L26.9347222,28.3203513 C26.9347222,28.2047932 26.8426174,28.1111111 26.7291882,28.1111111" id="Fill-13" fill="#FFFFFF"></path>
        <path d="M31.6261919,28.1111111 L29.5891679,28.1111111 C29.4755899,28.1111111 29.3833333,28.2047932 29.3833333,28.3203513 L29.3833333,32.7909623 C29.3833333,32.9063179 29.4755899,33 29.5891679,33 L31.6261919,33 C31.7398519,33 31.8319444,32.9063179 31.8319444,32.7909623 L31.8319444,28.3203513 C31.8319444,28.2047932 31.7398519,28.1111111 31.6261919,28.1111111" id="Fill-15" fill="#FFFFFF"></path>
        <path d="M36.5236119,28.1111111 L34.4859462,28.1111111 C34.3722595,28.1111111 34.2805556,28.2047932 34.2805556,28.3203513 L34.2805556,32.7909623 C34.2805556,32.9063179 34.3722595,33 34.4859462,33 L36.5236119,33 C36.6371346,33 36.7291667,32.9063179 36.7291667,32.7909623 L36.7291667,28.3203513 C36.7291667,28.2047932 36.6371346,28.1111111 36.5236119,28.1111111" id="Fill-17" fill="#FFFFFF"></path>
        <path d="M26.7291882,34.2222222 L24.6919732,34.2222222 C24.57838,34.2222222 24.4861111,34.3158069 24.4861111,34.431066 L24.4861111,38.9017609 C24.4861111,39.0176277 24.57838,39.1111111 24.6919732,39.1111111 L26.7291882,39.1111111 C26.8426174,39.1111111 26.9347222,39.0176277 26.9347222,38.9017609 L26.9347222,34.431066 C26.9347222,34.3158069 26.8426174,34.2222222 26.7291882,34.2222222" id="Fill-19" fill="#FFFFFF"></path>
        <path d="M31.6261919,34.2222222 L29.5891679,34.2222222 C29.4755899,34.2222222 29.3833333,34.3158069 29.3833333,34.431066 L29.3833333,38.9017609 C29.3833333,39.0176277 29.4755899,39.1111111 29.5891679,39.1111111 L31.6261919,39.1111111 C31.7398519,39.1111111 31.8319444,39.0176277 31.8319444,38.9017609 L31.8319444,34.431066 C31.8319444,34.3158069 31.7398519,34.2222222 31.6261919,34.2222222" id="Fill-21" fill="#FFFFFF"></path>
        <path d="M36.5236119,34.2222222 L34.4859462,34.2222222 C34.3722595,34.2222222 34.2805556,34.3158069 34.2805556,34.431066 L34.2805556,38.9017609 C34.2805556,39.0176277 34.3722595,39.1111111 34.4859462,39.1111111 L36.5236119,39.1111111 C36.6371346,39.1111111 36.7291667,39.0176277 36.7291667,38.9017609 L36.7291667,34.431066 C36.7291667,34.3158069 36.6371346,34.2222222 36.5236119,34.2222222" id="Fill-23" fill="#FFFFFF"></path>
        <path d="M24.1410359,34.6522545 C24.1410359,34.5462043 24.2469854,34.4600968 24.377421,34.4600968 L26.7166922,34.4600968 C26.8468453,34.4600968 26.9526065,34.5462043 26.9526065,34.6522545 L26.9526065,38.7658459 C26.9526065,38.872362 26.8468453,38.9583763 26.7166922,38.9583763 L24.377421,38.9583763 C24.2469854,38.9583763 24.1410359,38.872362 24.1410359,38.7658459 L24.1410359,34.6522545 Z M24.1410359,28.0145197 C24.1410359,27.90819 24.2469854,27.8219892 24.377421,27.8219892 L26.7166922,27.8219892 C26.8468453,27.8219892 26.9526065,27.90819 26.9526065,28.0145197 L26.9526065,32.1281111 C26.9526065,32.2342545 26.8468453,32.3205484 26.7166922,32.3205484 L24.377421,32.3205484 C24.2469854,32.3205484 24.1410359,32.2342545 24.1410359,32.1281111 L24.1410359,28.0145197 Z M24.1410359,21.3765986 C24.1410359,21.2704552 24.2469854,21.1842545 24.377421,21.1842545 L26.7166922,21.1842545 C26.8468453,21.1842545 26.9526065,21.2704552 26.9526065,21.3765986 L26.9526065,25.4900036 C26.9526065,25.5966129 26.8468453,25.6825341 26.7166922,25.6825341 L24.377421,25.6825341 C24.2469854,25.6825341 24.1410359,25.5966129 24.1410359,25.4900036 L24.1410359,21.3765986 Z M24.1410359,14.7387706 C24.1410359,14.6324409 24.2469854,14.5463333 24.377421,14.5463333 L26.7166922,14.5463333 C26.8468453,14.5463333 26.9526065,14.6324409 26.9526065,14.7387706 L26.9526065,18.8524552 C26.9526065,18.9585986 26.8468453,19.0447061 26.7166922,19.0447061 L24.377421,19.0447061 C24.2469854,19.0447061 24.1410359,18.9585986 24.1410359,18.8524552 L24.1410359,14.7387706 Z M29.2406452,34.6522545 C29.2406452,34.5462043 29.3465947,34.4600968 29.4770304,34.4600968 L31.8163958,34.4600968 C31.9469256,34.4600968 32.0526867,34.5462043 32.0526867,34.6522545 L32.0526867,38.7658459 C32.0526867,38.872362 31.9469256,38.9583763 31.8163958,38.9583763 L29.4770304,38.9583763 C29.3465947,38.9583763 29.2406452,38.872362 29.2406452,38.7658459 L29.2406452,34.6522545 Z M29.2406452,28.0145197 C29.2406452,27.90819 29.3465947,27.8219892 29.4770304,27.8219892 L31.8163958,27.8219892 C31.9469256,27.8219892 32.0526867,27.90819 32.0526867,28.0145197 L32.0526867,32.1281111 C32.0526867,32.2342545 31.9469256,32.3205484 31.8163958,32.3205484 L29.4770304,32.3205484 C29.3465947,32.3205484 29.2406452,32.2342545 29.2406452,32.1281111 L29.2406452,28.0145197 Z M29.2406452,21.3765986 C29.2406452,21.2704552 29.3465947,21.1842545 29.4770304,21.1842545 L31.8163958,21.1842545 C31.9469256,21.1842545 32.0526867,21.2704552 32.0526867,21.3765986 L32.0526867,25.4900036 C32.0526867,25.5966129 31.9469256,25.6825341 31.8163958,25.6825341 L29.4770304,25.6825341 C29.3465947,25.6825341 29.2406452,25.5966129 29.2406452,25.4900036 L29.2406452,21.3765986 Z M29.2406452,14.7387706 C29.2406452,14.6324409 29.3465947,14.5463333 29.4770304,14.5463333 L31.8163958,14.5463333 C31.9469256,14.5463333 32.0526867,14.6324409 32.0526867,14.7387706 L32.0526867,18.8524552 C32.0526867,18.9585986 31.9469256,19.0447061 31.8163958,19.0447061 L29.4770304,19.0447061 C29.3465947,19.0447061 29.2406452,18.9585986 29.2406452,18.8524552 L29.2406452,14.7387706 Z M34.341008,34.6522545 C34.341008,34.5462043 34.4462983,34.4600968 34.5768281,34.4600968 L36.9162876,34.4600968 C37.0466291,34.4600968 37.1522961,34.5462043 37.1522961,34.6522545 L37.1522961,38.7658459 C37.1522961,38.872362 37.0466291,38.9583763 36.9162876,38.9583763 L34.5768281,38.9583763 C34.4462983,38.9583763 34.341008,38.872362 34.341008,38.7658459 L34.341008,34.6522545 Z M34.341008,28.0145197 C34.341008,27.90819 34.4462983,27.8219892 34.5768281,27.8219892 L36.9162876,27.8219892 C37.0466291,27.8219892 37.1522961,27.90819 37.1522961,28.0145197 L37.1522961,32.1281111 C37.1522961,32.2342545 37.0466291,32.3205484 36.9162876,32.3205484 L34.5768281,32.3205484 C34.4462983,32.3205484 34.341008,32.2342545 34.341008,32.1281111 L34.341008,28.0145197 Z M34.341008,21.3765986 C34.341008,21.2704552 34.4462983,21.1842545 34.5768281,21.1842545 L36.9162876,21.1842545 C37.0466291,21.1842545 37.1522961,21.2704552 37.1522961,21.3765986 L37.1522961,25.4900036 C37.1522961,25.5966129 37.0466291,25.6825341 36.9162876,25.6825341 L34.5768281,25.6825341 C34.4462983,25.6825341 34.341008,25.5966129 34.341008,25.4900036 L34.341008,21.3765986 Z M34.341008,14.7387706 C34.341008,14.6324409 34.4462983,14.5463333 34.5768281,14.5463333 L36.9162876,14.5463333 C37.0466291,14.5463333 37.1522961,14.6324409 37.1522961,14.7387706 L37.1522961,18.8524552 C37.1522961,18.9585986 37.0466291,19.0447061 36.9162876,19.0447061 L34.5768281,19.0447061 C34.4462983,19.0447061 34.341008,18.9585986 34.341008,18.8524552 L34.341008,14.7387706 Z M39.3015174,42.792957 L39.3015174,13.7119104 C39.3015174,12.9170932 38.6504694,12.2730573 37.8474191,12.2730573 L23.4459129,12.2730573 C22.6428626,12.2730573 21.9917204,12.9170932 21.9917204,13.7119104 L21.9917204,42.792957 L18.4454723,42.792957 L18.4454723,44.0000466 L21.9917204,44.0000466 L39.3015174,44.0000466 L42.8483306,44.0000466 L42.8483306,42.792957 L39.3015174,42.792957 Z" id="Fill-25" fill="#343A4A"></path>
        <path d="M10.7101857,3.66666667 L7.65430828,3.66666667 C7.48402582,3.66666667 7.34583333,3.78403414 7.34583333,3.92835199 L7.34583333,9.51655236 C7.34583333,9.66077822 7.48402582,9.77777778 7.65430828,9.77777778 L10.7101857,9.77777778 C10.8806469,9.77777778 11.01875,9.66077822 11.01875,9.51655236 L11.01875,3.92835199 C11.01875,3.78403414 10.8806469,3.66666667 10.7101857,3.66666667" id="Fill-28" fill="#FFFFFF"></path>
        <path d="M18.0558628,3.66666667 L15.0002085,3.66666667 C14.8299384,3.66666667 14.6916667,3.78403414 14.6916667,3.92835199 L14.6916667,9.51655236 C14.6916667,9.66077822 14.8299384,9.77777778 15.0002085,9.77777778 L18.0558628,9.77777778 C18.2264009,9.77777778 18.3645833,9.66077822 18.3645833,9.51655236 L18.3645833,3.92835199 C18.3645833,3.78403414 18.2264009,3.66666667 18.0558628,3.66666667" id="Fill-30" fill="#FFFFFF"></path>
        <path d="M25.4016811,3.66666667 L22.3458781,3.66666667 C22.175421,3.66666667 22.0375,3.78403414 22.0375,3.92835199 L22.0375,9.51655236 C22.0375,9.66077822 22.175421,9.77777778 22.3458781,9.77777778 L25.4016811,9.77777778 C25.5721382,9.77777778 25.7104167,9.66077822 25.7104167,9.51655236 L25.7104167,3.92835199 C25.7104167,3.78403414 25.5721382,3.66666667 25.4016811,3.66666667" id="Fill-32" fill="#FFFFFF"></path>
        <path d="M10.7101857,12.2222222 L7.65430828,12.2222222 C7.48402582,12.2222222 7.34583333,12.3392253 7.34583333,12.4834555 L7.34583333,18.0718241 C7.34583333,18.2163303 7.48402582,18.3333333 7.65430828,18.3333333 L10.7101857,18.3333333 C10.8806469,18.3333333 11.01875,18.2163303 11.01875,18.0718241 L11.01875,12.4834555 C11.01875,12.3392253 10.8806469,12.2222222 10.7101857,12.2222222" id="Fill-34" fill="#FFFFFF"></path>
        <path d="M18.0558628,12.2222222 L15.0002085,12.2222222 C14.8299384,12.2222222 14.6916667,12.3392253 14.6916667,12.4834555 L14.6916667,18.0718241 C14.6916667,18.2163303 14.8299384,18.3333333 15.0002085,18.3333333 L18.0558628,18.3333333 C18.2264009,18.3333333 18.3645833,18.2163303 18.3645833,18.0718241 L18.3645833,12.4834555 C18.3645833,12.3392253 18.2264009,12.2222222 18.0558628,12.2222222" id="Fill-36" fill="#FFFFFF"></path>
        <path d="M25.4016811,12.2222222 L22.3458781,12.2222222 C22.175421,12.2222222 22.0375,12.3392253 22.0375,12.4834555 L22.0375,18.0718241 C22.0375,18.2163303 22.175421,18.3333333 22.3458781,18.3333333 L25.4016811,18.3333333 C25.5721382,18.3333333 25.7104167,18.2163303 25.7104167,18.0718241 L25.7104167,12.4834555 C25.7104167,12.3392253 25.5721382,12.2222222 25.4016811,12.2222222" id="Fill-38" fill="#FFFFFF"></path>
        <path d="M10.7101857,22 L7.65430828,22 C7.48402582,22 7.34583333,22.1171835 7.34583333,22.2614094 L7.34583333,27.8493338 C7.34583333,27.9937436 7.48402582,28.1111111 7.65430828,28.1111111 L10.7101857,28.1111111 C10.8806469,28.1111111 11.01875,27.9937436 11.01875,27.8493338 L11.01875,22.2614094 C11.01875,22.1171835 10.8806469,22 10.7101857,22" id="Fill-40" fill="#FFFFFF"></path>
        <path d="M18.0558628,22 L15.0002085,22 C14.8299384,22 14.6916667,22.1171835 14.6916667,22.2614094 L14.6916667,27.8493338 C14.6916667,27.9937436 14.8299384,28.1111111 15.0002085,28.1111111 L18.0558628,28.1111111 C18.2264009,28.1111111 18.3645833,27.9937436 18.3645833,27.8493338 L18.3645833,22.2614094 C18.3645833,22.1171835 18.2264009,22 18.0558628,22" id="Fill-42" fill="#FFFFFF"></path>
        <path d="M25.4016811,22 L22.3458781,22 C22.175421,22 22.0375,22.1171835 22.0375,22.2614094 L22.0375,27.8493338 C22.0375,27.9937436 22.175421,28.1111111 22.3458781,28.1111111 L25.4016811,28.1111111 C25.5721382,28.1111111 25.7104167,27.9937436 25.7104167,27.8493338 L25.7104167,22.2614094 C25.7104167,22.1171835 25.5721382,22 25.4016811,22" id="Fill-44" fill="#FFFFFF"></path>
        <path d="M10.7101857,30.5555556 L7.65430828,30.5555556 C7.48402582,30.5555556 7.34583333,30.6729213 7.34583333,30.817145 L7.34583333,36.4050773 C7.34583333,36.5493929 7.48402582,36.6666667 7.65430828,36.6666667 L10.7101857,36.6666667 C10.8806469,36.6666667 11.01875,36.5493929 11.01875,36.4050773 L11.01875,30.817145 C11.01875,30.6729213 10.8806469,30.5555556 10.7101857,30.5555556" id="Fill-46" fill="#FFFFFF"></path>
        <path d="M18.0558628,30.5555556 L15.0002085,30.5555556 C14.8299384,30.5555556 14.6916667,30.6729213 14.6916667,30.817145 L14.6916667,36.4050773 C14.6916667,36.5493929 14.8299384,36.6666667 15.0002085,36.6666667 L18.0558628,36.6666667 C18.2264009,36.6666667 18.3645833,36.5493929 18.3645833,36.4050773 L18.3645833,30.817145 C18.3645833,30.6729213 18.2264009,30.5555556 18.0558628,30.5555556" id="Fill-48" fill="#FFFFFF"></path>
        <path d="M25.4016811,30.5555556 L22.3458781,30.5555556 C22.175421,30.5555556 22.0375,30.6729213 22.0375,30.817145 L22.0375,36.4050773 C22.0375,36.5493929 22.175421,36.6666667 22.3458781,36.6666667 L25.4016811,36.6666667 C25.5721382,36.6666667 25.7104167,36.5493929 25.7104167,36.4050773 L25.7104167,30.817145 C25.7104167,30.6729213 25.5721382,30.5555556 25.4016811,30.5555556" id="Fill-50" fill="#FFFFFF"></path>
        <path d="M7.70731932,31.0480887 C7.70731932,30.901078 7.85047048,30.7812742 8.02695567,30.7812742 L11.1923925,30.7812742 C11.3689703,30.7812742 11.5120289,30.901078 11.5120289,31.0480887 L11.5120289,36.7476367 C11.5120289,36.894835 11.3689703,37.014545 11.1923925,37.014545 L8.02695567,37.014545 C7.85047048,37.014545 7.70731932,36.894835 7.70731932,36.7476367 L7.70731932,31.0480887 Z M7.70731932,21.8505876 C7.70731932,21.703577 7.85047048,21.5840546 8.02695567,21.5840546 L11.1923925,21.5840546 C11.3689703,21.5840546 11.5120289,21.703577 11.5120289,21.8505876 L11.5120289,27.5501356 C11.5120289,27.6973339 11.3689703,27.8171377 11.1923925,27.8171377 L8.02695567,27.8171377 C7.85047048,27.8171377 7.70731932,27.6973339 7.70731932,27.5501356 L7.70731932,21.8505876 Z M7.70731932,12.6530866 C7.70731932,12.5059821 7.85047048,12.3866473 8.02695567,12.3866473 L11.1923925,12.3866473 C11.3689703,12.3866473 11.5120289,12.5059821 11.5120289,12.6530866 L11.5120289,18.3528222 C11.5120289,18.5003019 11.3689703,18.6195429 11.1923925,18.6195429 L8.02695567,18.6195429 C7.85047048,18.6195429 7.70731932,18.5003019 7.70731932,18.3528222 L7.70731932,12.6530866 Z M7.70731932,3.45596077 C7.70731932,3.30885629 7.85047048,3.18914627 8.02695567,3.18914627 L11.1923925,3.18914627 C11.3689703,3.18914627 11.5120289,3.30885629 11.5120289,3.45596077 L11.5120289,9.15569638 C11.5120289,9.30289467 11.3689703,9.42222942 11.1923925,9.42222942 L8.02695567,9.42222942 C7.85047048,9.42222942 7.70731932,9.30289467 7.70731932,9.15569638 L7.70731932,3.45596077 Z M14.6082976,31.0480887 C14.6082976,30.901078 14.7515414,30.7812742 14.9278414,30.7812742 L18.0934634,30.7812742 C18.2701338,30.7812742 18.413285,30.901078 18.413285,31.0480887 L18.413285,36.7476367 C18.413285,36.894835 18.2701338,37.014545 18.0934634,37.014545 L14.9278414,37.014545 C14.7515414,37.014545 14.6082976,36.894835 14.6082976,36.7476367 L14.6082976,31.0480887 Z M14.6082976,21.8505876 C14.6082976,21.703577 14.7515414,21.5840546 14.9278414,21.5840546 L18.0934634,21.5840546 C18.2701338,21.5840546 18.413285,21.703577 18.413285,21.8505876 L18.413285,27.5501356 C18.413285,27.6973339 18.2701338,27.8171377 18.0934634,27.8171377 L14.9278414,27.8171377 C14.7515414,27.8171377 14.6082976,27.6973339 14.6082976,27.5501356 L14.6082976,21.8505876 Z M14.6082976,12.6530866 C14.6082976,12.5059821 14.7515414,12.3866473 14.9278414,12.3866473 L18.0934634,12.3866473 C18.2701338,12.3866473 18.413285,12.5059821 18.413285,12.6530866 L18.413285,18.3528222 C18.413285,18.5003019 18.2701338,18.6195429 18.0934634,18.6195429 L14.9278414,18.6195429 C14.7515414,18.6195429 14.6082976,18.5003019 14.6082976,18.3528222 L14.6082976,12.6530866 Z M14.6082976,3.45596077 C14.6082976,3.30885629 14.7515414,3.18914627 14.9278414,3.18914627 L18.0934634,3.18914627 C18.2701338,3.18914627 18.413285,3.30885629 18.413285,3.45596077 L18.413285,9.15569638 C18.413285,9.30289467 18.2701338,9.42222942 18.0934634,9.42222942 L14.9278414,9.42222942 C14.7515414,9.42222942 14.6082976,9.30289467 14.6082976,9.15569638 L14.6082976,3.45596077 Z M21.5096463,31.0480887 C21.5096463,30.901078 21.6525197,30.7812742 21.8290049,30.7812742 L24.9945343,30.7812742 C25.1711121,30.7812742 25.3143559,30.901078 25.3143559,31.0480887 L25.3143559,36.7476367 C25.3143559,36.894835 25.1711121,37.014545 24.9945343,37.014545 L21.8290049,37.014545 C21.6525197,37.014545 21.5096463,36.894835 21.5096463,36.7476367 L21.5096463,31.0480887 Z M21.5096463,21.8505876 C21.5096463,21.703577 21.6525197,21.5840546 21.8290049,21.5840546 L24.9945343,21.5840546 C25.1711121,21.5840546 25.3143559,21.703577 25.3143559,21.8505876 L25.3143559,27.5501356 C25.3143559,27.6973339 25.1711121,27.8171377 24.9945343,27.8171377 L21.8290049,27.8171377 C21.6525197,27.8171377 21.5096463,27.6973339 21.5096463,27.5501356 L21.5096463,21.8505876 Z M21.5096463,12.6530866 C21.5096463,12.5059821 21.6525197,12.3866473 21.8290049,12.3866473 L24.9945343,12.3866473 C25.1711121,12.3866473 25.3143559,12.5059821 25.3143559,12.6530866 L25.3143559,18.3528222 C25.3143559,18.5003019 25.1711121,18.6195429 24.9945343,18.6195429 L21.8290049,18.6195429 C21.6525197,18.6195429 21.5096463,18.5003019 21.5096463,18.3528222 L21.5096463,12.6530866 Z M21.5096463,3.45596077 C21.5096463,3.30885629 21.6525197,3.18914627 21.8290049,3.18914627 L24.9945343,3.18914627 C25.1711121,3.18914627 25.3143559,3.30885629 25.3143559,3.45596077 L25.3143559,9.15569638 C25.3143559,9.30289467 25.1711121,9.42222942 24.9945343,9.42222942 L21.8290049,9.42222942 C21.6525197,9.42222942 21.5096463,9.30289467 21.5096463,9.15569638 L21.5096463,3.45596077 Z M28.2223799,42.327287 L28.2223799,2.03304392 C28.2223799,0.93201194 27.3415281,0.0393466951 26.2549312,0.0393466951 L6.76674401,0.0393466951 C5.67996192,0.0393466951 4.79901748,0.93201194 4.79901748,2.03304392 L4.79901748,42.327287 L2.77783618e-05,42.327287 L2.77783618e-05,44.0000375 L4.79901748,44.0000375 L28.2223799,44.0000375 L33.0216474,44.0000375 L33.0216474,42.327287 L28.2223799,42.327287 Z" id="Fill-52" fill="#5CC83B"></path>
      </g>
    </g>
  </g>
</svg>