<svg xmlns="http://www.w3.org/2000/svg" width="64" height="65" viewBox="0 0 64 65">
    <g fill="none" fill-rule="evenodd">
        <path fill="#5CC83B" d="M53 63V23h8v40h3v2H0v-2h3V51h8v12h25V42h8v21h9zm.593-56.903a4 4 0 1 1 1.443 1.389L43.941 20.286A3.987 3.987 0 0 1 45 23c0 2.21-1.787 4-4 4a4.002 4.002 0 0 1-3.93-3.256l-11.386-3.795.632-1.898 10.905 3.635a4.003 4.003 0 0 1 5.02-2.49l11.352-13.1zM9.148 28.624l12.242-9.417 1.22 1.586-12.092 9.3C10.826 30.66 11 31.31 11 32a4 4 0 1 1-1.852-3.376z"/>
        <path fill="#1C242C" d="M19 63V36h8v27h-8zm8-44a4 4 0 1 1-7.998-.002A4 4 0 0 1 27 19z"/>
    </g>
</svg>
