<svg version="1.1" id="Ebene_1" xmlns="http://www.w3.org/2000/svg" xmlns:xlink="http://www.w3.org/1999/xlink" x="0px" y="0px"
	 width="25px" height="25px" viewBox="0 0 25 25" enable-background="new 0 0 25 25" xml:space="preserve">
<path fill="#32465A" d="M22.045,1.911H2.851c-1.07,0-1.94,0.909-1.94,2.025v13.13c0,1.117,0.87,2.025,1.94,2.025h9.097v1.447h-1.69
	c-0.276,0-0.5,0.224-0.5,0.5s0.224,0.5,0.5,0.5h4.381c0.276,0,0.5-0.224,0.5-0.5s-0.224-0.5-0.5-0.5h-1.691v-1.447h9.097
	c1.07,0,1.94-0.908,1.94-2.025V3.936C23.985,2.819,23.115,1.911,22.045,1.911z M2.851,2.911h19.194c0.519,0,0.94,0.46,0.94,1.025
	v11.395H1.911V3.936C1.911,3.371,2.333,2.911,2.851,2.911z M22.045,18.092H2.851c-0.518,0-0.94-0.46-0.94-1.025v-0.735h21.075v0.735
	C22.985,17.632,22.563,18.092,22.045,18.092z M10.548,14.428H6.669V9.589h3.879V14.428z M7.669,13.428h1.879v-2.839H7.669V13.428z
	 M15.348,14.428h-3.879V6.71h3.879V14.428z M12.469,13.428h1.879V7.71h-1.879V13.428z M20.146,14.428h-3.879V4.791h3.879V14.428z
	 M17.268,13.428h1.879V5.791h-1.879V13.428z M5.25,14.666c-0.276,0-0.5-0.224-0.5-0.5V4.81c0-0.276,0.224-0.5,0.5-0.5
	s0.5,0.224,0.5,0.5v9.356C5.75,14.442,5.526,14.666,5.25,14.666z"/>
</svg>
