<svg xmlns="http://www.w3.org/2000/svg" width="65" height="54" viewBox="0 0 65 54">
    <g fill="none" fill-rule="nonzero">
        <path fill="#5CC83B" d="M60.224 53.4c-2.204-.022-3.975-1.959-3.975-4.359 0-.54.1-1.044.265-1.549H35.646V15H64.2v34.09c0 2.373-1.77 4.288-3.976 4.31zM41 21v2h18v-2H41zm0 4v2h18v-2H41zm0 4v2h18v-2H41zm0 4v2h18v-2H41z"/>
        <path fill="#1C242C" d="M56.249 49.041c0-.54.1-1.044.265-1.549H31.708v1.513c0 2.414 1.824 4.395 4.046 4.395h24.508c-2.222 0-4.013-1.945-4.013-4.359zM26.206 8.25H11.033C2.758 8.25 0 15.928 0 22c0 6.076 4.138 11 4.138 11v-6.875c0-2.75 1.379-4.124 6.895-4.124h15.173v8.25L40 15.123 26.206 0v8.25z"/>
    </g>
</svg>
