<svg width="24" height="24" xmlns="http://www.w3.org/2000/svg"><path d="M20.732 19.5H22a2 2 0 0 1 0 4H2a2 2 0 0 1 0-4h1.268A2 2 0 0 1 5 16.5h3.071c0-.135.055-.27.162-.368 1.873-1.719 1.59-2.936-.408-5.227-1.088-1.249-1.099-1.262-1.388-1.713C5.87 8.314 5.5 7.207 5.5 6.395 5.5 2.763 8.361 0 12 0s6.5 2.763 6.5 6.395c0 .812-.37 1.919-.936 2.796-.29.452-.3.465-1.39 1.714-1.996 2.29-2.28 3.508-.407 5.227a.499.499 0 0 1 .162.368H19a2 2 0 0 1 1.732 3zM19 19.5a1 1 0 1 0 0-2H5a1 1 0 1 0 0 2h14zm-4.288-3c-1.96-2.03-1.467-3.756.709-6.252 1.035-1.187 1.051-1.207 1.302-1.598.467-.726.777-1.65.777-2.255C17.5 3.323 15.094 1 12 1S6.5 3.323 6.5 6.395c0 .606.31 1.53.778 2.256.25.39.266.41 1.301 1.597 2.176 2.496 2.67 4.222.71 6.252h5.423zM2 22.5h20a1 1 0 1 0 0-2H2a1 1 0 1 0 0 2z" fill="#32465A" fill-rule="nonzero"/></svg>