<svg xmlns="http://www.w3.org/2000/svg" width="63" height="65" viewBox="0 0 63 65">
    <g fill="none" fill-rule="nonzero">
        <path fill="#5CC83B" d="M18.455 46.065c5.714-5.139 10.277-5.635 16.68-3.697 2.908.88 3.154.945 3.998.945h7.56a3.64 3.64 0 0 1 3.623 3.99l7.097-3.616a3.48 3.48 0 0 1 3.265 6.144l-14.272 7.897a1 1 0 0 1-.484.125H29.85a2.157 2.157 0 0 1-.553 2.105l-3.613 3.613a2.156 2.156 0 0 1-1.527.633v-1 1H2.163c-1.923 0-2.886-2.325-1.527-3.684l14.612-14.611a2.157 2.157 0 0 1 3.05 0l.157.156zm1.416 1.416l8.372 8.372h17.421L59.71 48.08a1.479 1.479 0 0 0-1.389-2.612l-9.36 4.77a1 1 0 0 1-.454.108h-.501c-.408.158-.85.244-1.313.244H40.91a.996.996 0 0 1-.655-.244h-3.924a1 1 0 1 1 0-2h11.222a1.638 1.638 0 0 0-.861-3.034h-7.56c-1.142 0-1.372-.06-4.578-1.03-5.759-1.744-9.6-1.345-14.684 3.198zM48.226 38.4c-2.204-.022-3.975-1.959-3.975-4.359 0-.54.1-1.044.265-1.549H23.648V0h28.554v34.09c0 2.373-1.77 4.288-3.976 4.31zM33.737 19.039l-.416-.784-2.477-.435-3.193 3.805 1.792.198.506 1.73 3.788-4.514zm10.445-1.223l-2.499.439-.407.766 3.803 4.532.506-1.73 1.792-.198-3.195-3.809zm-6.68-.43l1.888.924.984-1.856 2.07-.363-.294-2.08 1.46-1.511-1.46-1.51.294-2.08-2.07-.364-.984-1.856-1.888.923-1.888-.923-.984 1.856-2.07.363.294 2.08-1.46 1.511 1.46 1.51-.294 2.08 2.07.364.984 1.856 1.888-.923z"/>
        <path fill="#1C242C" d="M44.541 33.549c0-.54.1-1.045.265-1.549H20v1.513c0 2.413 1.824 4.395 4.046 4.395h24.508c-2.222 0-4.013-1.946-4.013-4.359z"/>
    </g>
</svg>
