<svg xmlns="http://www.w3.org/2000/svg" width="62" height="62" viewBox="0 0 62 62">
    <g fill="none" fill-rule="nonzero">
        <path fill="#1C242C" d="M1 62a1 1 0 0 1 0-2h60a1 1 0 0 1 0 2H1zm0-5a1 1 0 0 1 0-2h60a1 1 0 0 1 0 2H1z"/>
        <path fill="#5CC83B" d="M4 52a1 1 0 0 1 0-2h13a1 1 0 0 1 0 2H4zm0-21a1 1 0 0 1 0-2h13a1 1 0 0 1 0 2H4zm21 21a1 1 0 0 1 0-2h13a1 1 0 0 1 0 2H25zm0-21a1 1 0 0 1 0-2h13a1 1 0 0 1 0 2H25zm21 21a1 1 0 0 1 0-2h13a1 1 0 0 1 0 2H46zm12-21v20H47V31h-1a1 1 0 0 1 0-2h13a1 1 0 0 1 0 2h-1zM5 30h11v21H5V30zm21 0h11v21H26V30zM1 26c-.946 0-1.363-1.192-.624-1.782l30.082-24a1 1 0 0 1 1.25.002l29.918 24c.737.591.319 1.78-.626 1.78H1z"/>
    </g>
</svg>
