<svg version="1.1" id="Ebene_1" xmlns="http://www.w3.org/2000/svg" xmlns:xlink="http://www.w3.org/1999/xlink" x="0px" y="0px"
	 width="25px" height="25px" viewBox="0 0 25 25" enable-background="new 0 0 25 25" xml:space="preserve">
<path fill="#32465A" d="M12.54,24.5c-0.097,0-0.583-0.031-0.631-0.638c-1.072-2.995-1.618-6.514-1.648-10.68
	c-1.675,2.714-3.08,5.588-4.186,8.564c0,0.124-0.021,0.3-0.16,0.447c-0.115,0.12-0.348,0.187-0.512,0.161
	c-0.06-0.012-0.566-0.125-0.478-0.741c-0.403-2.892-0.091-5.745,0.933-8.47c-1.398,0.927-2.808,1.964-4.285,3.149
	c-0.112,0.101-0.269,0.242-0.522,0.268c-0.144,0.015-0.281-0.032-0.386-0.126C0.56,16.341,0.5,16.206,0.5,16.064v-0.152
	c0-0.133,0.053-0.261,0.147-0.354c0.052-0.052,0.082-0.146,0.125-0.297c0.031-0.107,0.063-0.215,0.107-0.316
	c1.034-1.926,2.291-3.666,3.755-5.211C4.484,9.746,4.331,9.759,4.176,9.773c-0.32,0.029-0.641,0.059-0.962,0.077L2.625,9.889
	C2.187,9.919,1.747,9.95,1.3,9.958C1.069,9.96,0.895,9.832,0.822,9.632c-0.074-0.2-0.013-0.424,0.151-0.56
	c1.247-1.025,2.686-1.819,4.456-2.45c-0.25-0.075-0.505-0.147-0.765-0.22L4.097,6.241c-0.188-0.055-0.355-0.104-0.532-0.2
	c-0.18-0.099-0.281-0.296-0.256-0.5c0.025-0.203,0.171-0.371,0.37-0.422c1.586-0.414,3.179-0.568,4.77-0.455
	C8.121,4.328,7.75,3.985,7.311,3.606c-0.13-0.112-0.193-0.282-0.168-0.452c0.025-0.17,0.135-0.314,0.292-0.384
	c0.283-0.126,0.614-0.066,0.793-0.007c1.034,0.33,2.042,0.779,3.094,1.376c0.205-0.796,0.446-1.559,0.731-2.315
	C12.125,1.629,12.311,1.5,12.519,1.5c0.245,0.031,0.395,0.128,0.468,0.322c0.3,0.789,0.527,1.553,0.72,2.278
	c1.145-0.666,2.37-1.159,3.653-1.471c0.223-0.055,0.452,0.05,0.56,0.25c0.107,0.202,0.064,0.45-0.104,0.604
	c-0.437,0.399-0.841,0.787-1.219,1.171c1.774-0.102,3.303,0.055,4.734,0.481c0.213,0.063,0.358,0.259,0.357,0.481
	c-0.001,0.222-0.148,0.417-0.361,0.479c-0.566,0.164-1.124,0.338-1.678,0.516c1.256,0.477,2.456,1.08,3.581,1.802
	c0.257,0.175,0.577,0.41,0.875,0.742c0.137,0.152,0.167,0.373,0.076,0.556c-0.091,0.184-0.283,0.294-0.488,0.277L20.5,9.731
	c1.837,1.731,3.17,3.794,3.974,6.153c0.071,0.21-0.004,0.442-0.186,0.569c-0.183,0.128-0.426,0.122-0.599-0.017
	c-1.448-1.149-2.958-2.251-4.503-3.283c0.991,2.675,1.306,5.478,0.937,8.352c0.001,0.185,0.002,0.4-0.139,0.595
	c-0.094,0.129-0.309,0.264-0.469,0.264l0,0c-0.251,0-0.484-0.259-0.521-0.512c-1.087-2.998-2.49-5.9-4.179-8.649
	c0,3.606-0.556,7.17-1.659,10.618c-0.021,0.063-0.034,0.119-0.047,0.175l-0.03,0.125c-0.049,0.188-0.201,0.329-0.391,0.365
	C12.658,24.491,12.571,24.5,12.54,24.5z M10.777,10.952c0.05,0,0.101,0.007,0.151,0.023c0.212,0.067,0.354,0.267,0.349,0.489
	c-0.11,4.306,0.294,7.931,1.235,11.036c1.025-3.578,1.449-7.282,1.26-11.021c-0.012-0.215,0.117-0.413,0.317-0.491
	c0.196-0.078,0.428-0.02,0.566,0.146c0.059,0.065,0.096,0.109,0.127,0.156c1.775,2.684,3.277,5.526,4.479,8.471
	c0.089-2.621-0.435-5.161-1.562-7.578c-0.064-0.138-0.062-0.298,0.006-0.434c0.067-0.137,0.194-0.234,0.343-0.266
	c0.034-0.007,0.124-0.017,0.159-0.017c0.239,0,0.405,0.111,0.504,0.177c1.411,0.909,2.784,1.864,4.11,2.858
	c-0.95-1.925-2.331-3.602-4.121-5c-0.174-0.136-0.238-0.37-0.158-0.576c0.08-0.205,0.271-0.333,0.506-0.317l2.982,0.241
	c-1.284-0.75-2.67-1.345-4.122-1.768c-0.211-0.062-0.357-0.253-0.36-0.474c-0.003-0.22,0.139-0.416,0.348-0.483l0.801-0.258
	c0.16-0.052,0.32-0.104,0.48-0.155c-1.108-0.129-2.291-0.118-3.686,0.04c-0.125,0.014-0.255-0.021-0.358-0.099
	c-0.124-0.094-0.236-0.295-0.237-0.451c0-0.122,0.04-0.299,0.235-0.45c0.142-0.157,0.288-0.315,0.44-0.476
	c-0.659,0.285-1.297,0.626-1.906,1.022c-0.134,0.088-0.305,0.106-0.455,0.046c-0.15-0.059-0.263-0.187-0.302-0.343
	c-0.128-0.508-0.253-0.979-0.389-1.439C12.38,4.027,12.256,4.5,12.144,4.987c-0.055,0.241-0.28,0.409-0.523,0.387
	c-0.257-0.019-0.437-0.142-0.556-0.223c-0.541-0.316-1.053-0.585-1.549-0.814c0.01,0.011,0.021,0.022,0.031,0.033
	C9.58,4.406,9.617,4.441,9.655,4.477c0.16,0.149,0.401,0.375,0.46,0.745c0.025,0.158-0.026,0.319-0.14,0.432
	c-0.113,0.113-0.271,0.17-0.433,0.141C8.332,5.602,7.112,5.575,5.889,5.717c0.438,0.135,0.875,0.287,1.303,0.474
	C7.385,6.276,7.504,6.473,7.49,6.684C7.475,6.894,7.33,7.073,7.127,7.13c-1.624,0.46-2.973,1.023-4.136,1.733l0.165-0.011
	c0.311-0.018,0.62-0.046,0.93-0.075C4.613,8.729,5.159,8.68,5.711,8.68l0.194,0.002c0.203,0.004,0.382,0.131,0.455,0.32
	c0.073,0.189,0.025,0.403-0.123,0.542c-1.527,1.446-2.846,3.093-3.93,4.905c1.341-1.021,2.641-1.928,3.94-2.749
	c0.163-0.114,0.352-0.247,0.625-0.247c0.169,0,0.339,0.085,0.431,0.227s0.12,0.32,0.052,0.475l-0.125,0.285
	c-1.065,2.349-1.555,4.814-1.462,7.348c1.239-3.006,2.78-5.896,4.592-8.612C10.456,11.033,10.613,10.952,10.777,10.952z"/>
</svg>
