<svg version="1.1" id="Ebene_1" xmlns="http://www.w3.org/2000/svg" xmlns:xlink="http://www.w3.org/1999/xlink" x="0px" y="0px"
	 width="25px" height="25px" viewBox="0 0 25 25" enable-background="new 0 0 25 25" xml:space="preserve">
<path fill="#32465A" d="M20,2.5H5C4.724,2.5,4.5,2.724,4.5,3v16.5H3c-0.276,0-0.5,0.224-0.5,0.5v0.769
	c0,1.506,1.178,2.731,2.625,2.731H18c0.043,0,0.081-0.015,0.12-0.024c1.33-0.123,2.38-1.289,2.38-2.721V3
	C20.5,2.724,20.276,2.5,20,2.5z M5.125,22.5c-0.896,0-1.625-0.776-1.625-1.731V20.5h11.908c-0.011,0.096-0.016,0.191-0.016,0.287
	c0,0.649,0.22,1.245,0.587,1.713H5.125z M19.5,20.755c0,0.942-0.692,1.708-1.555,1.739c-0.86-0.031-1.553-0.782-1.553-1.707
	c0-0.202,0.035-0.401,0.112-0.626c0.052-0.153,0.026-0.321-0.067-0.452S16.192,19.5,16.031,19.5H5.5v-16h14V20.755z M18,8H7V7h11V8z
	 M18,9H7v1h11V9z M18,11H7v1h11V11z M14,13H7v1h7V13z"/>
</svg>