<svg version="1.1" id="Ebene_1" xmlns="http://www.w3.org/2000/svg" xmlns:xlink="http://www.w3.org/1999/xlink" x="0px" y="0px"
	 width="25px" height="25px" viewBox="0 0 25 25" enable-background="new 0 0 25 25" xml:space="preserve">
<path fill="#32465A" d="M23.396,20.586h-2.374v-8.582h2.374c0.216,0,0.407-0.139,0.475-0.344c0.067-0.205-0.004-0.43-0.178-0.558
	l-2.67-1.974V4.795c0-0.276-0.224-0.5-0.5-0.5h-2.875c-0.276,0-0.5,0.224-0.5,0.5v1.469l-4.473-3.307
	c-0.177-0.131-0.418-0.131-0.595,0L1.062,11.102c-0.173,0.128-0.245,0.354-0.178,0.558c0.068,0.205,0.259,0.344,0.475,0.344h2.375
	v8.582H1.359c-0.276,0-0.5,0.224-0.5,0.5s0.224,0.5,0.5,0.5h2.875h2.399h3.825h10.064h2.874c0.276,0,0.5-0.224,0.5-0.5
	S23.673,20.586,23.396,20.586z M18.148,5.295h1.875v3.094l-1.875-1.386V5.295z M12.378,3.981l4.91,3.63
	c0.023,0.024,0.053,0.04,0.081,0.059l2.801,2.07c0.001,0.001,0.003,0.002,0.004,0.003l1.705,1.26h-1.356H4.234H2.877L12.378,3.981z
	 M7.133,20.586v-5.708h2.825v5.708H7.133z M10.958,20.586v-6.208c0-0.276-0.224-0.5-0.5-0.5H6.633c-0.276,0-0.5,0.224-0.5,0.5v6.208
	H4.734v-8.582h15.289v8.582H10.958z M17.648,13.878h-4.791c-0.276,0-0.5,0.224-0.5,0.5v2.874c0,0.276,0.224,0.5,0.5,0.5h4.791
	c0.276,0,0.5-0.224,0.5-0.5v-2.874C18.148,14.102,17.925,13.878,17.648,13.878z M17.148,16.752h-3.791v-1.874h3.791V16.752z"/>
</svg>
