<svg xmlns="http://www.w3.org/2000/svg" width="64" height="53" viewBox="0 0 64 53">
    <g fill="none" fill-rule="nonzero">
        <path fill="#5CC83B" d="M41 0h19v49H33V8a8 8 0 0 1 8-8zM4 0h19a8 8 0 0 1 8 8v41H4V0zm16.935 5.743l-7.278 7.278-3.743-3.743-1.207 1.207 4.95 4.95 8.485-8.485-1.207-1.207zM9 23v2h16v-2H9zm0 4v2h16v-2H9zm0 4v2h16v-2H9zm0 4v2h12v-2H9zm29-12v2h16v-2H38zm4.95-13.464L39.414 6 38 7.414l3.536 3.536L38 14.485l1.414 1.414 3.536-3.535 3.535 3.535 1.414-1.414-3.535-3.535 3.535-3.536L46.485 6 42.95 9.536zM38 27v2h16v-2H38zm0 4v2h16v-2H38zm0 4v2h12v-2H38z"/>
        <path fill="#1C242C" d="M2 7v44h60V7h2v46H0V7h2zm2 35h20a7 7 0 0 1 7 7H4v-7zm36 0h20v7H33a7 7 0 0 1 7-7z"/>
    </g>
</svg>
