<svg width="23" height="17" xmlns="http://www.w3.org/2000/svg"><path d="M11 12.764V3a2 2 0 0 0-2-2H3v11h6c.768 0 1.47.289 2 .764zM21 15H2V4H1v12h21V4h-1v11zM11.5 1.341A2.997 2.997 0 0 1 14 0h7v3h2v14H0V3h2V0h7c1.043 0 1.963.533 2.5 1.341zm.5 11.423A2.989 2.989 0 0 1 14 12h6V1h-6a2 2 0 0 0-2 2v9.764zM20 14v-1h-6a2 2 0 0 0-1.732 1H20zM16.121 3.414l.707.707-.707.707-.707-.707-.707.707L14 4.121l.707-.707L14 2.707 14.707 2l.707.707.707-.707.707.707-.707.707zM14.5 6h4a.5.5 0 0 1 0 1h-4a.5.5 0 0 1 0-1zm0 2h3a.5.5 0 0 1 0 1h-3a.5.5 0 0 1 0-1zM3 14h7.732A2 2 0 0 0 9 13H3v1zM6.732 2l.707.707L5.366 4.78 4 3.414l.707-.707.66.66L6.731 2zM4.5 6h4a.5.5 0 0 1 0 1h-4a.5.5 0 0 1 0-1zm0 2h3a.5.5 0 0 1 0 1h-3a.5.5 0 0 1 0-1z" fill="#32465A" fill-rule="nonzero"/></svg>