<svg version="1.1" id="Ebene_1" xmlns="http://www.w3.org/2000/svg" xmlns:xlink="http://www.w3.org/1999/xlink" x="0px" y="0px"
	 width="25px" height="25px" viewBox="0 0 25 25" enable-background="new 0 0 25 25" xml:space="preserve">
<path fill="#32465A" d="M6.176,23.58c-0.439,0-0.861-0.139-1.22-0.399c-0.644-0.469-0.96-1.247-0.826-2.031l0.91-5.307
	c0.011-0.063-0.011-0.129-0.057-0.174l-3.855-3.757c-0.57-0.556-0.771-1.372-0.526-2.13c0.247-0.758,0.89-1.3,1.678-1.414
	l5.328-0.774c0.064-0.01,0.119-0.049,0.147-0.107l2.383-4.828C10.49,1.944,11.204,1.5,12.001,1.5s1.511,0.444,1.863,1.158
	l2.382,4.828c0.028,0.058,0.084,0.098,0.148,0.107l5.328,0.774c0.787,0.115,1.43,0.657,1.677,1.414
	c0.246,0.757,0.046,1.574-0.524,2.13l-3.856,3.757c-0.046,0.045-0.068,0.11-0.058,0.174l0.911,5.306
	c0.135,0.785-0.182,1.563-0.826,2.032c-0.63,0.461-1.504,0.521-2.19,0.157l-4.763-2.504l-0.416-0.442l0.233,0.442l-4.764,2.505
	C6.846,23.497,6.511,23.58,6.176,23.58z M12.001,2.5c-0.413,0-0.783,0.23-0.966,0.601L8.652,7.928
	c-0.173,0.353-0.51,0.597-0.9,0.654L2.424,9.357c-0.409,0.06-0.742,0.341-0.87,0.734c-0.127,0.393-0.023,0.816,0.273,1.105
	l3.854,3.756c0.282,0.275,0.411,0.671,0.345,1.06l-0.91,5.307c-0.069,0.406,0.095,0.811,0.429,1.054
	c0.329,0.239,0.774,0.272,1.135,0.082l4.764-2.505c0.344-0.18,0.771-0.18,1.113,0l4.765,2.505c0.359,0.189,0.805,0.16,1.136-0.082
	c0.334-0.243,0.498-0.646,0.428-1.054l-0.91-5.306c-0.066-0.386,0.062-0.782,0.344-1.059l3.857-3.758
	c0.295-0.289,0.399-0.712,0.271-1.105c-0.128-0.393-0.461-0.675-0.87-0.734L16.25,8.583c-0.39-0.057-0.727-0.302-0.9-0.654
	l-2.382-4.828C12.785,2.73,12.415,2.5,12.001,2.5z"/>
</svg>
