<svg xmlns="http://www.w3.org/2000/svg" width="17.591" height="12.448" viewBox="0 0 17.591 12.448">
  <path id="email" d="M142.615,1450.694H129.906a2.444,2.444,0,0,0-2.441,2.441v7.566a2.444,2.444,0,0,0,2.441,2.441h12.709a2.444,2.444,0,0,0,2.441-2.441v-7.566A2.444,2.444,0,0,0,142.615,1450.694Zm1.441,2.441v7.566a1.412,1.412,0,0,1-.161.647l-4.194-4.194,4.322-4.322A1.442,1.442,0,0,1,144.056,1453.135Zm-1.441-1.441a1.424,1.424,0,0,1,.849.283l-6.629,6.628a.813.813,0,0,1-1.149,0l-6.629-6.628a1.426,1.426,0,0,1,.849-.283Zm-13.989,9.654a1.424,1.424,0,0,1-.161-.647v-7.566a1.443,1.443,0,0,1,.034-.3l4.322,4.322Zm1.28.794a1.416,1.416,0,0,1-.549-.111l4.171-4.17,1.451,1.452a1.812,1.812,0,0,0,2.563,0l1.452-1.452,4.171,4.17a1.421,1.421,0,0,1-.55.111Z" transform="translate(-127.465 -1450.694)" fill="#bf9b2e"/>
</svg>
