<svg xmlns="http://www.w3.org/2000/svg" width="16.714" height="15.133" viewBox="0 0 16.714 15.133">
  <path id="flag" d="M146.033,1474.018c-4.277,1.425-5.913.335-7.808-.93a9,9,0,0,0-7.236-1.756v-.953h-1v15.133h1v-4.028a7.892,7.892,0,0,1,6.522,1.62c1.936,1.292,3.937,2.628,8.679,1.047l.336-.112.177-10.244Zm-.494,9.293c-4.029,1.26-5.628.192-7.473-1.039a8.965,8.965,0,0,0-5.463-1.916,11.549,11.549,0,0,0-1.614.119v-8.15a7.925,7.925,0,0,1,6.68,1.6c1.842,1.228,3.742,2.5,8.01,1.256Z" transform="translate(-129.989 -1470.379)" fill="#bf9b2e"/>
</svg>
