<svg xmlns="http://www.w3.org/2000/svg" width="58.949" height="56.51" viewBox="0 0 58.949 56.51">
  <g id="Icon-1" transform="translate(0.72 -2.967)">
    <g id="Group_1539" data-name="Group 1539" transform="translate(31.781 9.91)">
      <g id="Group_1549" data-name="Group 1549" transform="translate(0 0)">
        <path id="Path_2498" data-name="Path 2498" d="M215.508,56.543V50.809h-6.8v3.517" transform="translate(-206.874 -50.809)" fill="none" stroke="#fff" stroke-miterlimit="10" stroke-width="0.5"/>
        <path id="Path_2499" data-name="Path 2499" d="M215.508,92.811v2.335h-6.8V93.7" transform="translate(-206.874 -85.755)" fill="none" stroke="#fff" stroke-miterlimit="10" stroke-width="0.5"/>
        <path id="Path_2500" data-name="Path 2500" d="M230.023,55.976h1.768a.407.407,0,0,1,.394.419v.121a.407.407,0,0,1-.394.419h-1.768a.407.407,0,0,1-.394-.419v-.121A.407.407,0,0,1,230.023,55.976Z" transform="translate(-224.442 -55.108)" fill="none" stroke="#fff" stroke-miterlimit="10" stroke-width="0.5"/>
        <path id="Path_2501" data-name="Path 2501" d="M214.637,57.434a.2.2,0,0,1-.217.192.206.206,0,0,1-.181-.192.2.2,0,0,1,.217-.192A.206.206,0,0,1,214.637,57.434Z" transform="translate(-211.522 -56.161)" fill="none" stroke="#fff" stroke-miterlimit="10" stroke-width="0.5"/>
        <path id="Path_2502" data-name="Path 2502" d="M218.779,56.288a.2.2,0,0,1-.217.192.206.206,0,0,1-.181-.192.2.2,0,0,1,.217-.192A.206.206,0,0,1,218.779,56.288Z" transform="translate(-214.999 -55.207)" fill="none" stroke="#fff" stroke-miterlimit="10" stroke-width="0.5"/>
        <path id="Path_2503" data-name="Path 2503" d="M222.927,57.434a.2.2,0,0,1-.217.192.206.206,0,0,1-.181-.192.2.2,0,0,1,.217-.192A.206.206,0,0,1,222.927,57.434Z" transform="translate(-218.481 -56.161)" fill="none" stroke="#fff" stroke-miterlimit="10" stroke-width="0.5"/>
        <path id="Path_2504" data-name="Path 2504" d="M215.369,61.489l-.3-.825a1.159,1.159,0,0,1,1.466,0l-.235.825Z" transform="translate(-212.216 -58.791)" fill="none" stroke="#fff" stroke-miterlimit="10" stroke-width="0.5"/>
        <path id="Path_2505" data-name="Path 2505" d="M204.736,78.768a.819.819,0,1,1,.064,0l-.064,0" transform="translate(-202.907 -72.749)" fill="none" stroke="#fff" stroke-miterlimit="10" stroke-width="0.5"/>
        <path id="Path_2506" data-name="Path 2506" d="M199.641,72.05l.126.248a.565.565,0,0,0,.426.3l.284.04a.543.543,0,0,1,.314.933l-.2.193a.536.536,0,0,0-.162.484l.048.273a.562.562,0,0,1-.821.577l-.254-.129a.583.583,0,0,0-.527,0l-.254.129a.562.562,0,0,1-.821-.577l.048-.273a.536.536,0,0,0-.162-.484l-.206-.193a.543.543,0,0,1,.314-.933l.283-.04a.565.565,0,0,0,.426-.3l.127-.248a.573.573,0,0,1,.812-.215A.612.612,0,0,1,199.641,72.05Z" transform="translate(-197.306 -68.228)" fill="none" stroke="#fff" stroke-miterlimit="10" stroke-width="0.5"/>
        <path id="Path_2507" data-name="Path 2507" d="M208.7,93.025l.887.573V92.087" transform="translate(-206.872 -85.153)" fill="none" stroke="#fff" stroke-miterlimit="10" stroke-width="0.5"/>
        <path id="Path_2508" data-name="Path 2508" d="M204.126,91.971V93.5l.734-.573" transform="translate(-203.032 -85.056)" fill="none" stroke="#fff" stroke-miterlimit="10" stroke-width="0.5"/>
        <path id="Path_2509" data-name="Path 2509" d="M250.1,87.7a.184.184,0,1,1-.19.184A.187.187,0,0,1,250.1,87.7Z" transform="translate(-241.469 -81.501)" fill="none" stroke="#fff" stroke-miterlimit="10" stroke-width="0.5"/>
        <line id="Line_483" data-name="Line 483" y1="0.093" transform="translate(1.829 7.865)" fill="none" stroke="#fff" stroke-miterlimit="10" stroke-width="0.5"/>
        <path id="Path_2510" data-name="Path 2510" d="M208.555,97.686l.022-.022.011.011-.022.022Z" transform="translate(-206.75 -89.793)" fill="none" stroke="#fff" stroke-miterlimit="3.999" stroke-width="0.5"/>
      </g>
    </g>
    <line id="Line_484" data-name="Line 484" x2="2.647" transform="translate(36.941 12.356)" fill="none" stroke="#fff" stroke-miterlimit="10" stroke-width="1"/>
    <line id="Line_485" data-name="Line 485" x2="3.524" transform="translate(36.101 13.793)" fill="none" stroke="#fff" stroke-miterlimit="10" stroke-width="1"/>
    <line id="Line_486" data-name="Line 486" x2="3.524" transform="translate(36.135 15.451)" fill="none" stroke="#fff" stroke-miterlimit="10" stroke-width="1"/>
    <line id="Line_487" data-name="Line 487" x2="3.524" transform="translate(36.101 16.281)" fill="none" stroke="#fff" stroke-miterlimit="10" stroke-width="1"/>
    <line id="Line_488" data-name="Line 488" x2="2.57" transform="translate(37.09 17.592)" fill="none" stroke="#fff" stroke-miterlimit="10" stroke-width="1"/>
    <line id="Line_489" data-name="Line 489" x2="3.524" transform="translate(36.101 14.628)" fill="none" stroke="#fff" stroke-miterlimit="10" stroke-width="1"/>
    <g id="Group_1541" data-name="Group 1541" transform="translate(43.723 5.304)">
      <g id="Group_1547" data-name="Group 1547" transform="translate(0 0)">
        <path id="Path_2511" data-name="Path 2511" d="M271.724,26.582V23.393h.369l1.224.794.55.356.033.3-.607,2.163-.585-.159-.034-.009-.037-.01Z" transform="translate(-271.724 -23.393)" fill="none" stroke="#fff" stroke-miterlimit="10" stroke-width="0.5"/>
      </g>
    </g>
    <line id="Line_490" data-name="Line 490" x1="0.701" y2="2.897" transform="translate(44.765 5.941)" fill="none" stroke="#fff" stroke-miterlimit="10" stroke-width="0.5"/>
    <g id="Group_1543" data-name="Group 1543" transform="translate(44.857 3.217)">
      <g id="Group_1550" data-name="Group 1550" transform="translate(0)">
        <path id="Path_2512" data-name="Path 2512" d="M284.9,26.718l1.046-.251a2,2,0,0,1,1.5.207l1.534.382,3.125-1.674-.069,2.249-2.581,1.294-.148.1s.03.506-.445.434c0,0,0,.579-.463.465,0,0,.009.563-.457.474,0,0,.028.6-.5.556l-.293-.269-.1-.1" transform="translate(-283.921 -22.961)" fill="none" stroke="#fff" stroke-miterlimit="10" stroke-width="0.5"/>
        <path id="Path_2513" data-name="Path 2513" d="M301.22,53.436l-.333-.236-.174-.133" transform="translate(-297.196 -45.995)" fill="none" stroke="#fff" stroke-miterlimit="10" stroke-width="0.5"/>
        <line id="Line_491" data-name="Line 491" x2="0.952" y2="0.747" transform="translate(3.529 6.22)" fill="none" stroke="#fff" stroke-miterlimit="10" stroke-width="0.5"/>
        <line id="Line_492" data-name="Line 492" x2="0.939" y2="0.799" transform="translate(4.005 5.703)" fill="none" stroke="#fff" stroke-miterlimit="10" stroke-width="0.5"/>
        <path id="Path_2514" data-name="Path 2514" d="M296.124,35.426l-1.365-1.274a.54.54,0,0,0-.854,0l-.329.227a.373.373,0,0,1-.488-.152.422.422,0,0,1,.1-.571l.021-.015,1.057-.572" transform="translate(-290.735 -29.357)" fill="none" stroke="#fff" stroke-miterlimit="10" stroke-width="0.5"/>
        <path id="Path_2515" data-name="Path 2515" d="M281.948,43.4l.535.345.111.072" transform="translate(-281.441 -37.951)" fill="none" stroke="#fff" stroke-miterlimit="10" stroke-width="0.5"/>
        <path id="Path_2516" data-name="Path 2516" d="M286.574,43.153l-.375.391a.316.316,0,0,1-.462.017.353.353,0,0,1-.017-.483l.016-.017.375-.391a.316.316,0,0,1,.462,0,.353.353,0,0,1,0,.484Z" transform="translate(-284.535 -37.261)" fill="none" stroke="#fff" stroke-miterlimit="10" stroke-width="0.5"/>
        <path id="Path_2517" data-name="Path 2517" d="M289.541,46.055l-.375.391a.316.316,0,0,1-.462-.005.353.353,0,0,1,0-.478l.375-.392a.316.316,0,0,1,.462,0,.353.353,0,0,1,0,.484Z" transform="translate(-287.036 -39.675)" fill="none" stroke="#fff" stroke-miterlimit="10" stroke-width="0.5"/>
        <path id="Path_2518" data-name="Path 2518" d="M292.41,48.917l-.374.391a.316.316,0,0,1-.462-.005.353.353,0,0,1,0-.478l.375-.391a.316.316,0,0,1,.462,0,.353.353,0,0,1,0,.483Z" transform="translate(-289.444 -42.057)" fill="none" stroke="#fff" stroke-miterlimit="10" stroke-width="0.5"/>
        <path id="Path_2519" data-name="Path 2519" d="M295.261,51.763l-.375.391a.316.316,0,0,1-.462-.006.353.353,0,0,1,0-.477l.375-.391a.316.316,0,0,1,.462,0,.353.353,0,0,1,0,.484Z" transform="translate(-291.838 -44.425)" fill="none" stroke="#fff" stroke-miterlimit="10" stroke-width="0.5"/>
        <ellipse id="Ellipse_168" data-name="Ellipse 168" cx="1.038" cy="1.079" rx="1.038" ry="1.079" fill="none" stroke="#fff" stroke-miterlimit="10" stroke-width="0.5"/>
        <ellipse id="Ellipse_169" data-name="Ellipse 169" cx="1.038" cy="1.079" rx="1.038" ry="1.079" transform="translate(2.491)" fill="none" stroke="#fff" stroke-miterlimit="10" stroke-width="0.5"/>
        <ellipse id="Ellipse_170" data-name="Ellipse 170" cx="1.038" cy="1.079" rx="1.038" ry="1.079" transform="translate(4.978)" fill="none" stroke="#fff" stroke-miterlimit="10" stroke-width="0.5"/>
        <path id="Path_2520" data-name="Path 2520" d="M279.247,23.7l.49-.179V23.1" transform="translate(-279.174 -21.066)" fill="none" stroke="#fff" stroke-miterlimit="10" stroke-width="0.5"/>
        <path id="Path_2521" data-name="Path 2521" d="M288.219,23.1v.45l.564.16s-.014.013-.035.036a.716.716,0,0,0-.142.853" transform="translate(-286.706 -21.066)" fill="none" stroke="#fff" stroke-miterlimit="10" stroke-width="0.5"/>
        <path id="Path_2522" data-name="Path 2522" d="M320.565,23.672l-1.02-.264v-.486" transform="translate(-313.005 -20.914)" fill="none" stroke="#fff" stroke-miterlimit="10" stroke-width="0.5"/>
        <path id="Path_2523" data-name="Path 2523" d="M310.226,23.128v.317l-.6.255a.971.971,0,0,1,.3.682v.7" transform="translate(-304.677 -21.085)" fill="none" stroke="#fff" stroke-miterlimit="10" stroke-width="0.5"/>
        <path id="Path_2524" data-name="Path 2524" d="M303.743,23.1v.4l.944.176" transform="translate(-299.739 -21.066)" fill="none" stroke="#fff" stroke-miterlimit="10" stroke-width="0.5"/>
        <path id="Path_2525" data-name="Path 2525" d="M292.73,23.168v.32l-1,.279" transform="translate(-289.655 -21.119)" fill="none" stroke="#fff" stroke-miterlimit="10" stroke-width="0.5"/>
      </g>
    </g>
    <g id="Group_1551" data-name="Group 1551" transform="translate(44.109 17.335)">
      <path id="Path_2526" data-name="Path 2526" d="M274.128,100.672l2.294-2.327,1.792,1.887,3.534-3.957-.922-.976,2.356-.289-.236,2.348-1.168-1.04" transform="translate(-274.128 -95.01)" fill="none" stroke="#fff" stroke-width="0.5"/>
      <path id="Path_2527" data-name="Path 2527" d="M278.22,129.435h-1.475v-1.859l1.475-1.067Z" transform="translate(-276.326 -121.219)" fill="none" stroke="#fff" stroke-width="0.5"/>
      <path id="Path_2528" data-name="Path 2528" d="M291.268,128.984h-1.5v-3.017l1.5,1.072Z" transform="translate(-287.256 -120.768)" fill="none" stroke="#fff" stroke-width="0.5"/>
      <path id="Path_2529" data-name="Path 2529" d="M304.1,127.024h-1.424v-2.118l1.424-1.323Z" transform="translate(-298.099 -118.784)" fill="none" stroke="#fff" stroke-width="0.5"/>
      <path id="Path_2530" data-name="Path 2530" d="M317.542,116.011h-1.393v-4.062l1.393-1.471Z" transform="translate(-309.406 -107.88)" fill="none" stroke="#fff" stroke-width="0.5"/>
    </g>
    <g id="Group_1545" data-name="Group 1545" transform="translate(0.28 4.436)">
      <g id="Group_1548" data-name="Group 1548">
        <path id="Path_2531" data-name="Path 2531" d="M66.915,39.754h-.164a7.721,7.721,0,0,1-7.539-7.892V22.941a4.616,4.616,0,0,1,4.507-4.718H74.7V31.6A7.973,7.973,0,0,1,66.915,39.754Z" transform="translate(-49.872 -18.223)" fill="none" stroke="#fff" stroke-miterlimit="10" stroke-width="2"/>
        <path id="Path_2532" data-name="Path 2532" d="M59.468,49.939h3.141V45.314s8.023,3.2,12.3-.665" transform="translate(-50.086 -40.21)" fill="none" stroke="#fff" stroke-miterlimit="10" stroke-width="2"/>
        <path id="Path_2533" data-name="Path 2533" d="M48.563,80.294h-.057a2.091,2.091,0,0,1,0-4.178h.045" transform="translate(-39.208 -66.392)" fill="none" stroke="#fff" stroke-miterlimit="10" stroke-width="2"/>
        <path id="Path_2534" data-name="Path 2534" d="M88.157,140.616v2.673a2.99,2.99,0,0,1-2.919,3.056h0a2.99,2.99,0,0,1-2.919-3.056v-3.513" transform="translate(-69.27 -119.357)" fill="none" stroke="#fff" stroke-miterlimit="10" stroke-width="2"/>
        <path id="Path_2535" data-name="Path 2535" d="M31.636,157.138a11.108,11.108,0,0,1,10.55,11.333v7.706H15.042v-6.5a12.343,12.343,0,0,1,10.814-12.486" transform="translate(-12.789 -133.802)" fill="none" stroke="#fff" stroke-miterlimit="10" stroke-width="2"/>
        <rect id="Rectangle_1213" data-name="Rectangle 1213" width="56.949" height="4.718" transform="translate(0 42.375)" fill="none" stroke="#fff" stroke-miterlimit="10" stroke-width="2"/>
        <rect id="Rectangle_1214" data-name="Rectangle 1214" width="50.148" height="6.991" transform="translate(3.441 47.05)" fill="none" stroke="#fff" stroke-miterlimit="10" stroke-width="2"/>
        <path id="Path_2536" data-name="Path 2536" d="M196.064,182.154l2.622-15.526s.546-2.709,4.452-2.255H217.4s2.131-.146,1.857,2.656l-3,15.126" transform="translate(-164.762 -139.779)" fill="none" stroke="#fff" stroke-miterlimit="10" stroke-width="2"/>
        <line id="Line_493" data-name="Line 493" y1="17.781" x2="3.503" transform="translate(35.399 24.594)" fill="none" stroke="#fff" stroke-miterlimit="10" stroke-width="2"/>
        <path id="Path_2537" data-name="Path 2537" d="M269.423,204.586a2.789,2.789,0,1,1-2.786-2.917A2.853,2.853,0,0,1,269.423,204.586Z" transform="translate(-221.672 -170.853)" fill="none" stroke="#fff" stroke-miterlimit="10" stroke-width="2"/>
        <path id="Path_2538" data-name="Path 2538" d="M48.338,217.328v-4.75h-3.1v-5.929" transform="translate(-38.136 -174.996)" fill="none" stroke="#fff" stroke-miterlimit="10" stroke-width="2"/>
        <path id="Path_2539" data-name="Path 2539" d="M64.83,242s4.63-.547,5.067,4.771" transform="translate(-54.587 -204.392)" fill="none" stroke="#fff" stroke-miterlimit="10" stroke-width="2"/>
        <path id="Path_2540" data-name="Path 2540" d="M140.037,249.159H131.6s.983,3.453,3.954,3.581" transform="translate(-110.639 -210.365)" fill="none" stroke="#fff" stroke-miterlimit="10" stroke-width="2"/>
        <line id="Line_494" data-name="Line 494" y1="7.013" transform="translate(24.623 31.674)" fill="none" stroke="#fff" stroke-miterlimit="10" stroke-width="2"/>
        <rect id="Rectangle_1215" data-name="Rectangle 1215" width="1.929" height="1.98" transform="translate(14.131 9.486)" fill="none" stroke="#fff" stroke-miterlimit="10" stroke-width="2"/>
        <rect id="Rectangle_1216" data-name="Rectangle 1216" width="1.929" height="1.98" transform="translate(19.929 9.486)" fill="none" stroke="#fff" stroke-miterlimit="10" stroke-width="2"/>
        <path id="Path_2541" data-name="Path 2541" d="M95.075,110.776a4.546,4.546,0,0,0,5.8,0" transform="translate(-79.979 -95.229)" fill="none" stroke="#fff" stroke-miterlimit="10" stroke-width="2"/>
      </g>
      <path id="Path_2542" data-name="Path 2542" d="M286.656,90.968h-2.7s-.031-.434-.389-.453l.015-1.2a.54.54,0,0,0,.428-.439h2.65s.061.4.4.432v1.252A.4.4,0,0,0,286.656,90.968Z" transform="translate(-238.22 -77.004)" fill="none" stroke="#fff" stroke-miterlimit="10" stroke-width="0.5"/>
      <path id="Path_2543" data-name="Path 2543" d="M287.234,93.574h.44s.282-.182-.133-.418c0,0-.4-.139-.169-.359h.435" transform="translate(-241.302 -80.27)" fill="none" stroke="#fff" stroke-miterlimit="10" stroke-width="0.5"/>
      <path id="Path_2544" data-name="Path 2544" d="M292.085,94.019l.343-.733.3.733" transform="translate(-245.375 -80.677)" fill="none" stroke="#fff" stroke-miterlimit="10" stroke-width="0.5"/>
      <line id="Line_495" data-name="Line 495" x2="0.343" transform="translate(46.854 13.061)" fill="none" stroke="#fff" stroke-miterlimit="10" stroke-width="0.5"/>
      <path id="Path_2545" data-name="Path 2545" d="M298.069,93.141v-.815a.254.254,0,0,1,.4.013c.177.236,0,.346,0,.346l-.343.019" transform="translate(-250.398 -79.799)" fill="none" stroke="#fff" stroke-miterlimit="10" stroke-width="0.5"/>
      <line id="Line_496" data-name="Line 496" x2="0.225" y2="0.41" transform="translate(48.006 12.932)" fill="none" stroke="#fff" stroke-miterlimit="10" stroke-width="0.5"/>
      <rect id="Rectangle_1217" data-name="Rectangle 1217" width="4.773" height="3.381" transform="translate(44.703 11.209)" fill="none" stroke="#fff" stroke-miterlimit="10" stroke-width="0.5"/>
    </g>
  </g>
</svg>
