<svg xmlns="http://www.w3.org/2000/svg" width="10.165" height="16.523" viewBox="0 0 10.165 16.523">
  <g id="Mobile" transform="translate(-158.589 -1407.491)">
    <g id="Group_603" data-name="Group 603" transform="translate(30.624 -18.742)">
      <path id="Path_524" data-name="Path 524" d="M136.059,1426.233h-6.022a2.074,2.074,0,0,0-2.072,2.072v12.38a2.074,2.074,0,0,0,2.072,2.071h6.022a2.073,2.073,0,0,0,2.071-2.071v-12.38A2.073,2.073,0,0,0,136.059,1426.233Zm-6.022,1h6.022a1.073,1.073,0,0,1,1.071,1.072v.339h-8.165v-.339A1.073,1.073,0,0,1,130.037,1427.233Zm7.093,2.411v8h-8.165v-8Zm-1.071,12.112h-6.022a1.073,1.073,0,0,1-1.072-1.071v-2.038h8.165v2.038A1.073,1.073,0,0,1,136.059,1441.756Z" fill="#bf9b2e"/>
      <circle id="Ellipse_53" data-name="Ellipse 53" cx="0.618" cy="0.618" r="0.618" transform="translate(132.429 1440.161)" fill="#bf9b2e"/>
    </g>
  </g>
</svg>
