<svg id="icon-2" xmlns="http://www.w3.org/2000/svg" xmlns:xlink="http://www.w3.org/1999/xlink" width="55" height="55" viewBox="0 0 55 55">
  <defs>
    <clipPath id="clip-path">
      <rect id="Rectangle_1222" data-name="Rectangle 1222" width="55" height="55" fill="none" stroke="#fff" stroke-width="2"/>
    </clipPath>
  </defs>
  <g id="Group_1552" data-name="Group 1552" clip-path="url(#clip-path)">
    <path id="Path_2546" data-name="Path 2546" d="M17.282,264.811a10.465,10.465,0,0,1,8.888,10.343v4.276H.5v-4.9a9.837,9.837,0,0,1,8.7-9.769" transform="translate(-0.424 -224.506)" fill="none" stroke="#fff" stroke-miterlimit="10" stroke-width="2"/>
    <path id="Path_2547" data-name="Path 2547" d="M38.85,154.094h0a8.221,8.221,0,0,1-8.223-8.219v-7.382a5.568,5.568,0,0,1,5.57-5.567h9.89a.89.89,0,0,1,.89.89v12.156A8.124,8.124,0,0,1,38.85,154.094Z" transform="translate(-25.969 -112.717)" fill="none" stroke="#fff" stroke-miterlimit="10" stroke-width="2"/>
    <path id="Path_2548" data-name="Path 2548" d="M15.2,194.461a3.122,3.122,0,0,1-.188-6.225" transform="translate(-10.355 -159.618)" fill="none" stroke="#fff" stroke-miterlimit="10" stroke-width="2"/>
    <path id="Path_2549" data-name="Path 2549" d="M30.628,173.106a3.634,3.634,0,0,0,3.68-1.921v-2.174s4.592,1.562,6.107,1.184,6.563-.883,6.563-.883" transform="translate(-25.969 -143.316)" fill="none" stroke="#fff" stroke-miterlimit="10" stroke-width="2"/>
    <path id="Path_2550" data-name="Path 2550" d="M71.351,235.785a4.4,4.4,0,0,0,5.534-.136" transform="translate(-60.498 -199.823)" fill="none" stroke="#fff" stroke-miterlimit="10" stroke-width="2"/>
    <rect id="Rectangle_1218" data-name="Rectangle 1218" width="1.816" height="1.815" transform="translate(10.047 30.372)" fill="none" stroke="#fff" stroke-miterlimit="10" stroke-width="2"/>
    <rect id="Rectangle_1219" data-name="Rectangle 1219" width="1.816" height="1.815" transform="translate(15.494 30.372)" fill="none" stroke="#fff" stroke-miterlimit="10" stroke-width="2"/>
    <line id="Line_497" data-name="Line 497" y2="4.449" transform="translate(5.416 50.436)" fill="none" stroke="#fff" stroke-miterlimit="10" stroke-width="2"/>
    <line id="Line_498" data-name="Line 498" y2="4.451" transform="translate(20.044 50.434)" fill="none" stroke="#fff" stroke-miterlimit="10" stroke-width="2"/>
    <path id="Path_2551" data-name="Path 2551" d="M71.617,337.051l-.83-4.3H68.3l-1.5,4.335" transform="translate(-56.638 -282.166)" fill="none" stroke="#fff" stroke-miterlimit="10" stroke-width="2"/>
    <path id="Path_2552" data-name="Path 2552" d="M56.435,276.074l-1.044-3.438-2.55,1.514v-8.2" transform="translate(-44.803 -225.514)" fill="none" stroke="#fff" stroke-miterlimit="10" stroke-width="2"/>
    <path id="Path_2553" data-name="Path 2553" d="M92.67,276.033l.884-3.377,2.417,1.689.194-8.4" transform="translate(-78.575 -225.515)" fill="none" stroke="#fff" stroke-miterlimit="10" stroke-width="2"/>
    <path id="Path_2554" data-name="Path 2554" d="M69.675,300.409l2.087-1.7,2.27,1.7" transform="translate(-59.078 -253.299)" fill="none" stroke="#fff" stroke-miterlimit="10" stroke-width="2"/>
    <path id="Path_2555" data-name="Path 2555" d="M66.181,269.351l2.6,4.406,2.8-4.4" transform="translate(-56.115 -228.401)" fill="none" stroke="#fff" stroke-miterlimit="10" stroke-width="2"/>
    <path id="Path_2556" data-name="Path 2556" d="M15.264,32.9l-2.1-3.726H7.924a1.775,1.775,0,0,1-1.709-1.941c.117-1.844,0-7.8,0-7.8A2.01,2.01,0,0,1,7.9,17.939c1.4-.175,10.913,0,10.913,0s2.1.466,1.981,1.9v7.4s-.3,2.187-2.175,1.85H16.849Z" transform="translate(-5.265 -15.146)" fill="none" stroke="#fff" stroke-miterlimit="10" stroke-width="2"/>
    <line id="Line_499" data-name="Line 499" x2="9.223" transform="translate(3.571 10.236)" fill="none" stroke="#fff" stroke-miterlimit="10" stroke-width="2"/>
    <line id="Line_500" data-name="Line 500" x2="9.223" transform="translate(3.571 6.694)" fill="none" stroke="#fff" stroke-miterlimit="10" stroke-width="2"/>
    <path id="Path_2557" data-name="Path 2557" d="M146.481,40.981l-1.456-2.348s-.88-.356-.764-1.168l-.919-1.624-.673-.867-.288-.44-.126-.291-.172-.194-.2-.1-.084-.443.019-.23.12-.152.278-.036h.272L142.8,33l.246-.091c.01,0,.217-.262.217-.262a1.622,1.622,0,0,0,.068-.165c0-.01.013-.172.013-.172l0-.171-.026-.2-.1-.1-.162.023.146-.152.324-.126.269-.123.272-.075h.589l.359.084.24.126.43.21.612.469.379.349.142.125.184.107.2.078.248.107.257.044s.3.049.311.049h.311l.238.029c.034.005.3.054.3.054l.282.107.146.165.315.233.2.277.194.311.151.247.131.2.175.335.228.417.17.281.214.248.286.432.451.286.243.111.442.092.578-.01.194.083.17.131v.165l-.034.277-.073.325-.107.412-.165.208-.306.151-.306.111-.311.068-.515.136-.447.1-.549.077-.519.136-.388.2-.165.155-.218.2-.228.257-.165.165-.248.019-.311-.068s-.209-.087-.243-.107-.335-.1-.335-.1l-.369.024-.3.024-.306.015-.117.078-.126.17-.082.155Z" transform="translate(-120.23 -26.62)" fill="none" stroke="#fff" stroke-miterlimit="10" stroke-width="2"/>
    <path id="Path_2558" data-name="Path 2558" d="M139.387,9.7a9.2,9.2,0,1,1-9.2-9.2A9.2,9.2,0,0,1,139.387,9.7Z" transform="translate(-102.578 -0.424)" fill="none" stroke="#fff" stroke-miterlimit="10" stroke-width="2"/>
    <path id="Path_2559" data-name="Path 2559" d="M264.323,32.9l2.1-3.726h5.243a1.775,1.775,0,0,0,1.709-1.941c-.117-1.844,0-7.8,0-7.8a2.01,2.01,0,0,0-1.689-1.494c-1.4-.175-10.913,0-10.913,0s-2.1.466-1.981,1.9v7.4s.3,2.187,2.175,1.85h1.773Z" transform="translate(-219.422 -15.146)" fill="none" stroke="#fff" stroke-miterlimit="10" stroke-width="2"/>
    <line id="Line_501" data-name="Line 501" x1="9.223" transform="translate(42.105 10.236)" fill="none" stroke="#fff" stroke-miterlimit="10" stroke-width="2"/>
    <line id="Line_502" data-name="Line 502" x1="9.223" transform="translate(42.105 6.694)" fill="none" stroke="#fff" stroke-miterlimit="10" stroke-width="2"/>
    <path id="Path_2560" data-name="Path 2560" d="M201.218,264.428a10.465,10.465,0,0,0-8.888,10.343v4.276H218v-4.9a9.837,9.837,0,0,0-8.7-9.769" transform="translate(-163.076 -224.182)" fill="none" stroke="#fff" stroke-miterlimit="10" stroke-width="2"/>
    <path id="Path_2561" data-name="Path 2561" d="M231.605,153.711h0a8.221,8.221,0,0,0,8.223-8.219V138.11a5.568,5.568,0,0,0-5.57-5.567h-9.89a.89.89,0,0,0-.89.89v12.156A8.124,8.124,0,0,0,231.605,153.711Z" transform="translate(-189.487 -112.392)" fill="none" stroke="#fff" stroke-miterlimit="10" stroke-width="2"/>
    <path id="Path_2562" data-name="Path 2562" d="M329.734,194.078a3.122,3.122,0,0,0,.188-6.225" transform="translate(-279.58 -159.293)" fill="none" stroke="#fff" stroke-miterlimit="10" stroke-width="2"/>
    <path id="Path_2563" data-name="Path 2563" d="M239.828,172.723a3.633,3.633,0,0,1-3.68-1.921v-2.174s-4.592,1.562-6.107,1.184-6.563-.883-6.563-.883" transform="translate(-189.487 -142.991)" fill="none" stroke="#fff" stroke-miterlimit="10" stroke-width="2"/>
    <path id="Path_2564" data-name="Path 2564" d="M259.4,235.4a4.4,4.4,0,0,1-5.534-.136" transform="translate(-215.249 -199.498)" fill="none" stroke="#fff" stroke-miterlimit="10" stroke-width="2"/>
    <rect id="Rectangle_1220" data-name="Rectangle 1220" width="1.816" height="1.815" transform="translate(43.137 30.314)" fill="none" stroke="#fff" stroke-miterlimit="10" stroke-width="2"/>
    <rect id="Rectangle_1221" data-name="Rectangle 1221" width="1.816" height="1.815" transform="translate(37.691 30.314)" fill="none" stroke="#fff" stroke-miterlimit="10" stroke-width="2"/>
    <line id="Line_503" data-name="Line 503" y2="4.449" transform="translate(49.584 50.378)" fill="none" stroke="#fff" stroke-miterlimit="10" stroke-width="2"/>
    <line id="Line_504" data-name="Line 504" y2="4.451" transform="translate(34.956 50.376)" fill="none" stroke="#fff" stroke-miterlimit="10" stroke-width="2"/>
    <path id="Path_2565" data-name="Path 2565" d="M263.117,336.668l.83-4.3h2.488l1.5,4.335" transform="translate(-223.096 -281.841)" fill="none" stroke="#fff" stroke-miterlimit="10" stroke-width="2"/>
    <path id="Path_2566" data-name="Path 2566" d="M285.122,275.691l1.044-3.438,2.55,1.514v-8.2" transform="translate(-241.754 -225.189)" fill="none" stroke="#fff" stroke-miterlimit="10" stroke-width="2"/>
    <path id="Path_2567" data-name="Path 2567" d="M249.442,275.65l-.884-3.377-2.417,1.689-.194-8.4" transform="translate(-208.537 -225.19)" fill="none" stroke="#fff" stroke-miterlimit="10" stroke-width="2"/>
    <path id="Path_2568" data-name="Path 2568" d="M267.633,300.026l-2.087-1.7-2.27,1.7" transform="translate(-223.231 -252.974)" fill="none" stroke="#fff" stroke-miterlimit="10" stroke-width="2"/>
    <path id="Path_2569" data-name="Path 2569" d="M265.326,268.968l-2.6,4.406-2.8-4.4" transform="translate(-220.393 -228.076)" fill="none" stroke="#fff" stroke-miterlimit="10" stroke-width="2"/>
  </g>
</svg>
