<?xml version="1.0" encoding="utf-8"?>
<!-- Generated by IcoMoon.io -->
<svg version="1.1" xmlns="http://www.w3.org/2000/svg" xmlns:xlink="http://www.w3.org/1999/xlink" width="752" height="80" viewBox="0 0 752 80">
<svg id="icon-airports" width="19" height="32" viewBox="0 0 19 32" x="0" y="0">
<path fill="#343a4a" d="M8.889 4.183h0.523v-4.183h-0.523z"></path>
<path fill="#343a4a" d="M9.935 13.595h2.275l0.863-6.274h-3.137z"></path>
<path fill="#343a4a" d="M13.072 13.595h2.071l1.589-6.274h-2.863z"></path>
<path fill="#343a4a" d="M8.889 13.595v-6.274h-3.137l0.862 6.274z"></path>
<path fill="#343a4a" d="M1.569 7.32l1.589 6.274h2.071l-0.797-6.274z"></path>
<path fill="#343a4a" d="M0 6.797h18.301v-1.569h-18.301z"></path>
<path fill="#5cc83b" d="M5.020 15.059h8.157c0.347 0 0.627 0.281 0.627 0.627v15.686c0 0.347-0.281 0.627-0.627 0.627h-8.157c-0.347 0-0.627-0.281-0.627-0.627v-15.686c0-0.347 0.281-0.627 0.627-0.627z"></path>
</svg>
<svg id="icon-approx" width="34" height="32" viewBox="0 0 34 32" x="48" y="0">
<path d="M31.235 11.035l-1.31-5.36-4.822 12.221-0.506-0.887-0.875 0.498 1.548 2.71 4.43-11.227 0.746 3.050h2.451v-1.006z"></path>
<path d="M20.613 10.421l-2.040 2.548-1.176-2.056-0.874 0.499 1.911 3.341 2.072-2.587 1.206 1.958 0.858-0.527z"></path>
<path d="M14.47 5.74l-1.464 1.964-2.761-7.69-5.202 16.692-2.669-5.671h-2.376v1.006h1.736l3.499 7.436 5.078-16.295 2.379 6.628 1.62-2.175 0.218 0.423 0.896-0.46z"></path>
<path d="M22.925 9.187c-1.8-1.798-4.728-1.798-6.527 0s-1.799 4.723 0 6.521c0.872 0.871 2.031 1.351 3.264 1.351s2.392-0.48 3.264-1.351c0.872-0.871 1.352-2.029 1.352-3.261s-0.48-2.39-1.352-3.261zM22.213 14.997c-0.682 0.681-1.588 1.056-2.552 1.056s-1.87-0.375-2.552-1.056c-1.407-1.406-1.407-3.693 0-5.098 0.704-0.703 1.627-1.054 2.552-1.054s1.848 0.351 2.552 1.054c1.407 1.406 1.407 3.693 0 5.098z"></path>
<path d="M24.016 8.098c-1.163-1.162-2.709-1.802-4.354-1.802s-3.191 0.64-4.354 1.802c-1.163 1.162-1.803 2.707-1.803 4.35 0 1.474 0.517 2.868 1.463 3.979l-0.75 0.749 0.712 0.711 0.75-0.749c1.111 0.945 2.507 1.461 3.982 1.461 1.645 0 3.191-0.64 4.354-1.802 2.401-2.399 2.401-6.301 0-8.7zM23.304 16.086c-0.973 0.972-2.266 1.507-3.642 1.507s-2.669-0.535-3.642-1.507c-0.973-0.972-1.509-2.264-1.509-3.639s0.536-2.667 1.509-3.639c0.973-0.972 2.266-1.507 3.642-1.507s2.669 0.535 3.642 1.507c2.008 2.006 2.008 5.271 0 7.277z"></path>
<path d="M12.4 17.524l0.712-0.712 2.179 2.179-0.712 0.712-2.179-2.179z"></path>
<path d="M11.658 17.538l-0.712 0.711 0.371 0.37-7.632 7.625 2.166 2.164 7.632-7.625 0.371 0.37 0.712-0.711-2.907-2.905zM5.851 26.987l-0.742-0.741 1.105-1.104 0.742 0.741-1.105 1.104zM7.668 25.171l-0.742-0.741 5.103-5.098 0.742 0.741-5.103 5.098z"></path>
<path d="M21.721 23.115l-4.235-2.418v10.613h15.399v-8.195h-11.164zM31.878 30.304h-13.385v-7.873l2.961 1.69h10.424l0 6.183z"></path>
<path d="M20.073 25.456h5.639v1.006h-5.639v-1.006z"></path>
<path d="M20.073 26.999h2.014v1.006h-2.014v-1.006z"></path>
<path d="M23.161 26.999h4.565v1.006h-4.565v-1.006z"></path>
<path d="M20.073 28.474h1.007v1.006h-1.007v-1.006z"></path>
<path d="M22.087 28.474h1.074v1.006h-1.074v-1.006z"></path>
<path d="M24.168 28.474h1.007v1.006h-1.007v-1.006z"></path>
<path d="M26.182 28.474h1.074v1.006h-1.074v-1.006z"></path>
<path d="M28.263 28.474h1.007v1.006h-1.007v-1.006z"></path>
</svg>
<svg id="icon-bulidings" width="31" height="32" viewBox="0 0 31 32" x="96" y="0">
<path fill="#fff" d="M19.394 10.667h-1.478c-0.082 0-0.149 0.068-0.149 0.152v3.251c0 0.084 0.067 0.152 0.149 0.152h1.478c0.082 0 0.149-0.068 0.149-0.152v-3.251c0-0.084-0.067-0.152-0.149-0.152z"></path>
<path fill="#fff" d="M22.947 10.667h-1.478c-0.082 0-0.149 0.068-0.149 0.152v3.251c0 0.084 0.067 0.152 0.149 0.152h1.478c0.082 0 0.149-0.068 0.149-0.152v-3.251c0-0.084-0.067-0.152-0.149-0.152z"></path>
<path fill="#fff" d="M26.501 10.667h-1.479c-0.082 0-0.149 0.068-0.149 0.152v3.251c0 0.084 0.067 0.152 0.149 0.152h1.479c0.082 0 0.149-0.068 0.149-0.152v-3.251c0-0.084-0.067-0.152-0.149-0.152z"></path>
<path fill="#fff" d="M19.394 15.111h-1.478c-0.082 0-0.149 0.068-0.149 0.152v3.251c0 0.084 0.067 0.152 0.149 0.152h1.478c0.082 0 0.149-0.068 0.149-0.152v-3.251c0-0.084-0.067-0.152-0.149-0.152z"></path>
<path fill="#fff" d="M22.947 15.111h-1.478c-0.082 0-0.149 0.068-0.149 0.152v3.251c0 0.084 0.067 0.152 0.149 0.152h1.478c0.082 0 0.149-0.068 0.149-0.152v-3.251c0-0.084-0.067-0.152-0.149-0.152z"></path>
<path fill="#fff" d="M26.501 15.111h-1.479c-0.082 0-0.149 0.068-0.149 0.152v3.251c0 0.084 0.067 0.152 0.149 0.152h1.479c0.082 0 0.149-0.068 0.149-0.152v-3.251c0-0.084-0.067-0.152-0.149-0.152z"></path>
<path fill="#fff" d="M19.394 20.444h-1.478c-0.082 0-0.149 0.068-0.149 0.152v3.251c0 0.084 0.067 0.152 0.149 0.152h1.478c0.082 0 0.149-0.068 0.149-0.152v-3.251c0-0.084-0.067-0.152-0.149-0.152z"></path>
<path fill="#fff" d="M22.947 20.444h-1.478c-0.082 0-0.149 0.068-0.149 0.152v3.251c0 0.084 0.067 0.152 0.149 0.152h1.478c0.082 0 0.149-0.068 0.149-0.152v-3.251c0-0.084-0.067-0.152-0.149-0.152z"></path>
<path fill="#fff" d="M26.501 20.444h-1.479c-0.082 0-0.149 0.068-0.149 0.152v3.251c0 0.084 0.067 0.152 0.149 0.152h1.479c0.082 0 0.149-0.068 0.149-0.152v-3.251c0-0.084-0.067-0.152-0.149-0.152z"></path>
<path fill="#fff" d="M19.394 24.889h-1.478c-0.082 0-0.149 0.068-0.149 0.152v3.251c0 0.084 0.067 0.152 0.149 0.152h1.478c0.082 0 0.149-0.068 0.149-0.152v-3.251c0-0.084-0.067-0.152-0.149-0.152z"></path>
<path fill="#fff" d="M22.947 24.889h-1.478c-0.082 0-0.149 0.068-0.149 0.152v3.251c0 0.084 0.067 0.152 0.149 0.152h1.478c0.082 0 0.149-0.068 0.149-0.152v-3.251c0-0.084-0.067-0.152-0.149-0.152z"></path>
<path fill="#fff" d="M26.501 24.889h-1.479c-0.082 0-0.149 0.068-0.149 0.152v3.251c0 0.084 0.067 0.152 0.149 0.152h1.479c0.082 0 0.149-0.068 0.149-0.152v-3.251c0-0.084-0.067-0.152-0.149-0.152z"></path>
<path fill="#343a4a" d="M17.516 25.202c0-0.077 0.077-0.14 0.172-0.14h1.697c0.094 0 0.171 0.063 0.171 0.14v2.992c0 0.077-0.077 0.14-0.171 0.14h-1.697c-0.095 0-0.172-0.063-0.172-0.14v-2.992zM17.516 20.374c0-0.077 0.077-0.14 0.172-0.14h1.697c0.094 0 0.171 0.063 0.171 0.14v2.992c0 0.077-0.077 0.14-0.171 0.14h-1.697c-0.095 0-0.172-0.063-0.172-0.14v-2.992zM17.516 15.547c0-0.077 0.077-0.14 0.172-0.14h1.697c0.094 0 0.171 0.063 0.171 0.14v2.992c0 0.078-0.077 0.14-0.171 0.14h-1.697c-0.095 0-0.172-0.063-0.172-0.14v-2.992zM17.516 10.719c0-0.077 0.077-0.14 0.172-0.14h1.697c0.094 0 0.171 0.063 0.171 0.14v2.992c0 0.077-0.077 0.14-0.171 0.14h-1.697c-0.095 0-0.172-0.063-0.172-0.14v-2.992zM21.216 25.202c0-0.077 0.077-0.14 0.172-0.14h1.697c0.095 0 0.171 0.063 0.171 0.14v2.992c0 0.077-0.077 0.14-0.171 0.14h-1.697c-0.095 0-0.172-0.063-0.172-0.14v-2.992zM21.216 20.374c0-0.077 0.077-0.14 0.172-0.14h1.697c0.095 0 0.171 0.063 0.171 0.14v2.992c0 0.077-0.077 0.14-0.171 0.14h-1.697c-0.095 0-0.172-0.063-0.172-0.14v-2.992zM21.216 15.547c0-0.077 0.077-0.14 0.172-0.14h1.697c0.095 0 0.171 0.063 0.171 0.14v2.992c0 0.078-0.077 0.14-0.171 0.14h-1.697c-0.095 0-0.172-0.063-0.172-0.14v-2.992zM21.216 10.719c0-0.077 0.077-0.14 0.172-0.14h1.697c0.095 0 0.171 0.063 0.171 0.14v2.992c0 0.077-0.077 0.14-0.171 0.14h-1.697c-0.095 0-0.172-0.063-0.172-0.14v-2.992zM24.917 25.202c0-0.077 0.076-0.14 0.171-0.14h1.697c0.095 0 0.171 0.063 0.171 0.14v2.992c0 0.077-0.077 0.14-0.171 0.14h-1.697c-0.095 0-0.171-0.063-0.171-0.14v-2.992zM24.917 20.374c0-0.077 0.076-0.14 0.171-0.14h1.697c0.095 0 0.171 0.063 0.171 0.14v2.992c0 0.077-0.077 0.14-0.171 0.14h-1.697c-0.095 0-0.171-0.063-0.171-0.14v-2.992zM24.917 15.547c0-0.077 0.076-0.14 0.171-0.14h1.697c0.095 0 0.171 0.063 0.171 0.14v2.992c0 0.078-0.077 0.14-0.171 0.14h-1.697c-0.095 0-0.171-0.063-0.171-0.14v-2.992zM24.917 10.719c0-0.077 0.076-0.14 0.171-0.14h1.697c0.095 0 0.171 0.063 0.171 0.14v2.992c0 0.077-0.077 0.14-0.171 0.14h-1.697c-0.095 0-0.171-0.063-0.171-0.14v-2.992zM28.516 31.122v-21.15c0-0.578-0.472-1.046-1.055-1.046h-10.449c-0.583 0-1.055 0.468-1.055 1.046v21.15h-2.573v0.878h17.706v-0.878h-2.573z"></path>
<path fill="#fff" d="M7.771 2.667h-2.217c-0.124 0-0.224 0.085-0.224 0.19v4.064c0 0.105 0.1 0.19 0.224 0.19h2.217c0.124 0 0.224-0.085 0.224-0.19v-4.064c0-0.105-0.1-0.19-0.224-0.19z"></path>
<path fill="#fff" d="M13.101 2.667h-2.217c-0.124 0-0.224 0.085-0.224 0.19v4.064c0 0.105 0.1 0.19 0.224 0.19h2.217c0.124 0 0.224-0.085 0.224-0.19v-4.064c0-0.105-0.1-0.19-0.224-0.19z"></path>
<path fill="#fff" d="M18.431 2.667h-2.217c-0.124 0-0.224 0.085-0.224 0.19v4.064c0 0.105 0.1 0.19 0.224 0.19h2.217c0.124 0 0.224-0.085 0.224-0.19v-4.064c0-0.105-0.1-0.19-0.224-0.19z"></path>
<path fill="#fff" d="M7.771 8.889h-2.217c-0.124 0-0.224 0.085-0.224 0.19v4.064c0 0.105 0.1 0.19 0.224 0.19h2.217c0.124 0 0.224-0.085 0.224-0.19v-4.064c0-0.105-0.1-0.19-0.224-0.19z"></path>
<path fill="#fff" d="M13.101 8.889h-2.217c-0.124 0-0.224 0.085-0.224 0.19v4.064c0 0.105 0.1 0.19 0.224 0.19h2.217c0.124 0 0.224-0.085 0.224-0.19v-4.064c0-0.105-0.1-0.19-0.224-0.19z"></path>
<path fill="#fff" d="M18.431 8.889h-2.217c-0.124 0-0.224 0.085-0.224 0.19v4.064c0 0.105 0.1 0.19 0.224 0.19h2.217c0.124 0 0.224-0.085 0.224-0.19v-4.064c0-0.105-0.1-0.19-0.224-0.19z"></path>
<path fill="#fff" d="M7.771 16h-2.217c-0.124 0-0.224 0.085-0.224 0.19v4.064c0 0.105 0.1 0.19 0.224 0.19h2.217c0.124 0 0.224-0.085 0.224-0.19v-4.064c0-0.105-0.1-0.19-0.224-0.19z"></path>
<path fill="#fff" d="M13.101 16h-2.217c-0.124 0-0.224 0.085-0.224 0.19v4.064c0 0.105 0.1 0.19 0.224 0.19h2.217c0.124 0 0.224-0.085 0.224-0.19v-4.064c0-0.105-0.1-0.19-0.224-0.19z"></path>
<path fill="#fff" d="M18.431 16h-2.217c-0.124 0-0.224 0.085-0.224 0.19v4.064c0 0.105 0.1 0.19 0.224 0.19h2.217c0.124 0 0.224-0.085 0.224-0.19v-4.064c0-0.105-0.1-0.19-0.224-0.19z"></path>
<path fill="#fff" d="M7.771 22.222h-2.217c-0.124 0-0.224 0.085-0.224 0.19v4.064c0 0.105 0.1 0.19 0.224 0.19h2.217c0.124 0 0.224-0.085 0.224-0.19v-4.064c0-0.105-0.1-0.19-0.224-0.19z"></path>
<path fill="#fff" d="M13.101 22.222h-2.217c-0.124 0-0.224 0.085-0.224 0.19v4.064c0 0.105 0.1 0.19 0.224 0.19h2.217c0.124 0 0.224-0.085 0.224-0.19v-4.064c0-0.105-0.1-0.19-0.224-0.19z"></path>
<path fill="#fff" d="M18.431 22.222h-2.217c-0.124 0-0.224 0.085-0.224 0.19v4.064c0 0.105 0.1 0.19 0.224 0.19h2.217c0.124 0 0.224-0.085 0.224-0.19v-4.064c0-0.105-0.1-0.19-0.224-0.19z"></path>
<path fill="#5cc83b" d="M5.592 22.58c0-0.107 0.104-0.194 0.232-0.194h2.297c0.128 0 0.232 0.087 0.232 0.194v4.145c0 0.107-0.104 0.194-0.232 0.194h-2.297c-0.128 0-0.232-0.087-0.232-0.194v-4.145zM5.592 15.891c0-0.107 0.104-0.194 0.232-0.194h2.297c0.128 0 0.232 0.087 0.232 0.194v4.145c0 0.107-0.104 0.194-0.232 0.194h-2.297c-0.128 0-0.232-0.087-0.232-0.194v-4.145zM5.592 9.202c0-0.107 0.104-0.194 0.232-0.194h2.297c0.128 0 0.232 0.087 0.232 0.194v4.145c0 0.107-0.104 0.194-0.232 0.194h-2.297c-0.128 0-0.232-0.087-0.232-0.194v-4.145zM5.592 2.513c0-0.107 0.104-0.194 0.232-0.194h2.297c0.128 0 0.232 0.087 0.232 0.194v4.145c0 0.107-0.104 0.194-0.232 0.194h-2.297c-0.128 0-0.232-0.087-0.232-0.194v-4.145zM10.6 22.58c0-0.107 0.104-0.194 0.232-0.194h2.297c0.128 0 0.232 0.087 0.232 0.194v4.145c0 0.107-0.104 0.194-0.232 0.194h-2.297c-0.128 0-0.232-0.087-0.232-0.194v-4.145zM10.6 15.891c0-0.107 0.104-0.194 0.232-0.194h2.297c0.128 0 0.232 0.087 0.232 0.194v4.145c0 0.107-0.104 0.194-0.232 0.194h-2.297c-0.128 0-0.232-0.087-0.232-0.194v-4.145zM10.6 9.202c0-0.107 0.104-0.194 0.232-0.194h2.297c0.128 0 0.232 0.087 0.232 0.194v4.145c0 0.107-0.104 0.194-0.232 0.194h-2.297c-0.128 0-0.232-0.087-0.232-0.194v-4.145zM10.6 2.513c0-0.107 0.104-0.194 0.232-0.194h2.297c0.128 0 0.232 0.087 0.232 0.194v4.145c0 0.107-0.104 0.194-0.232 0.194h-2.297c-0.128 0-0.232-0.087-0.232-0.194v-4.145zM15.607 22.58c0-0.107 0.104-0.194 0.232-0.194h2.297c0.128 0 0.232 0.087 0.232 0.194v4.145c0 0.107-0.104 0.194-0.232 0.194h-2.297c-0.128 0-0.232-0.087-0.232-0.194v-4.145zM15.607 15.891c0-0.107 0.104-0.194 0.232-0.194h2.297c0.128 0 0.232 0.087 0.232 0.194v4.145c0 0.107-0.104 0.194-0.232 0.194h-2.297c-0.128 0-0.232-0.087-0.232-0.194v-4.145zM15.607 9.202c0-0.107 0.104-0.194 0.232-0.194h2.297c0.128 0 0.232 0.087 0.232 0.194v4.145c0 0.107-0.104 0.194-0.232 0.194h-2.297c-0.128 0-0.232-0.087-0.232-0.194v-4.145zM15.607 2.513c0-0.107 0.104-0.194 0.232-0.194h2.297c0.128 0 0.232 0.087 0.232 0.194v4.145c0 0.107-0.104 0.194-0.232 0.194h-2.297c-0.128 0-0.232-0.087-0.232-0.194v-4.145zM20.478 30.783v-29.305c0-0.801-0.639-1.45-1.428-1.45h-14.14c-0.789 0-1.428 0.649-1.428 1.45v29.305h-3.482v1.217h23.96v-1.217h-3.482z"></path>
</svg>
<svg id="icon-chemical" width="18" height="32" viewBox="0 0 18 32" x="144" y="0">
<path fill="#5cc83b" d="M14.444 18.543c-1.707-1.636-4.446-3.562-7.26-5.672-1.41-1.055-2.538-2.033-3.252-2.987-0.717-0.961-1.055-1.825-1.062-2.937 0-0.38 0.044-0.797 0.145-1.26 0.172-0.79-0.316-1.571-1.088-1.745-0.773-0.177-1.541 0.319-1.711 1.108-0.143 0.648-0.216 1.281-0.216 1.897-0.009 1.809 0.652 3.411 1.66 4.724 1.007 1.325 2.331 2.433 3.824 3.553 2.839 2.123 5.583 4.080 6.99 5.442 0.878 0.811 2.529 2.868 2.478 4.82 0 0.341-0.041 0.691-0.138 1.058-0.207 0.78 0.247 1.583 1.012 1.792 0.127 0.033 0.252 0.051 0.376 0.051 0.633 0 1.211-0.429 1.383-1.082 0.162-0.614 0.238-1.225 0.237-1.819-0.048-3.445-2.3-5.872-3.378-6.944zM10.322 13.444c0.845 0.627 1.665 1.238 2.428 1.831 0.74-0.556 1.497-1.19 2.279-1.972 1.9-1.921 2.743-4.001 2.735-5.925-0.039-3.273-2.139-5.598-3.438-6.952-0.561-0.569-1.468-0.569-2.028 0.003-0.561 0.571-0.561 1.495 0 2.068 1.192 1.186 2.636 3.062 2.596 4.881-0.011 1.080-0.398 2.314-1.896 3.86-0.865 0.903-1.753 1.587-2.676 2.207zM7.652 18.595c-0.449-0.335-0.91-0.677-1.378-1.024l-1.058-0.786c-0.787 0.6-1.601 1.292-2.453 2.148-1.847 1.863-2.644 3.938-2.631 5.833 0.035 3.224 1.993 5.572 3.178 6.806 0.28 0.284 0.647 0.429 1.014 0.429 0.368 0 0.735-0.145 1.015-0.429 0.561-0.572 0.561-1.498 0-2.068-0.982-0.975-2.371-2.88-2.337-4.738 0.011-1.102 0.38-2.307 1.79-3.764 0.965-1.001 1.912-1.752 2.861-2.407z"></path>
<path fill="#343a4a" d="M12.456 23.568c-0.084-0.401-0.479-0.658-0.883-0.573l-7.143 1.514c-0.403 0.085-0.66 0.481-0.575 0.884 0.074 0.349 0.383 0.589 0.727 0.589 0.052 0 0.103-0.004 0.156-0.015l7.143-1.516c0.402-0.085 0.66-0.48 0.573-0.883zM11.545 10.171c-0.047-0.409-0.416-0.703-0.824-0.657l-3.607 0.404c-0.409 0.047-0.702 0.416-0.658 0.823 0.043 0.382 0.368 0.663 0.743 0.663 0.028 0 0.055-0.001 0.081-0.004l3.608-0.406c0.409-0.047 0.703-0.416 0.657-0.823zM4.213 8.438c0.070 0.355 0.382 0.603 0.73 0.603 0.047 0 0.095-0.004 0.142-0.014l7.055-1.349c0.404-0.077 0.669-0.468 0.592-0.871-0.078-0.405-0.468-0.67-0.872-0.592l-7.055 1.351c-0.403 0.076-0.668 0.468-0.592 0.872zM12.85 26.484c-0.097-0.401-0.5-0.645-0.899-0.549l-5.724 1.382c-0.399 0.097-0.646 0.498-0.548 0.9 0.082 0.34 0.388 0.569 0.723 0.569 0.057 0 0.116-0.007 0.175-0.020l5.724-1.383c0.399-0.097 0.647-0.5 0.55-0.899zM5.76 21.13c-0.406 0.064-0.684 0.444-0.62 0.851 0.057 0.368 0.375 0.63 0.735 0.63 0.039 0 0.077-0.003 0.114-0.009l3.679-0.571c0.407-0.063 0.684-0.445 0.621-0.852-0.063-0.405-0.445-0.684-0.851-0.621l-3.678 0.572zM4.585 6.207c0.064 0 0.129-0.009 0.194-0.026l5.624-1.516c0.396-0.108 0.632-0.516 0.524-0.913s-0.516-0.632-0.912-0.525l-5.625 1.516c-0.396 0.108-0.633 0.516-0.524 0.913 0.089 0.332 0.391 0.552 0.719 0.552z"></path>
</svg>
<svg id="icon-clock" width="27" height="32" viewBox="0 0 27 32" x="192" y="0">
<path fill="#d0021b" d="M13.329 29.5c-5.989 0-10.861-4.934-10.861-11s4.872-11 10.861-11c5.989 0 10.861 4.935 10.861 11s-4.872 11-10.861 11zM23.65 9.958l0.695-0.704 0.176 0.178c0.192 0.194 0.507 0.194 0.698 0l1.294-1.311c0.192-0.194 0.192-0.512 0-0.707l-2.094-2.121c-0.192-0.194-0.506-0.194-0.699-0l-1.294 1.31c-0.192 0.195-0.192 0.513 0 0.708l0.172 0.174-0.684 0.692c-1.904-1.627-4.265-2.721-6.859-3.061v-1.617h0.741c0.271 0 0.494-0.225 0.494-0.5v-2.5c0-0.275-0.222-0.5-0.494-0.5h-4.937c-0.271 0-0.494 0.225-0.494 0.5v2.5c0 0.275 0.222 0.5 0.494 0.5h0.741v1.617c-2.596 0.341-4.957 1.436-6.862 3.063l-0.683-0.692 0.174-0.176c0.192-0.195 0.192-0.513 0-0.707l-1.294-1.311c-0.192-0.195-0.506-0.195-0.698 0l-2.094 2.121c-0.192 0.195-0.192 0.512-0 0.707l1.294 1.31c0.192 0.194 0.506 0.194 0.698 0l0.174-0.176 0.696 0.705c-1.879 2.327-3.006 5.299-3.006 8.539 0 7.456 5.968 13.5 13.329 13.5s13.329-6.044 13.329-13.5c0-3.241-1.129-6.214-3.008-8.542z"></path>
<path fill="#d0021b" d="M15.979 10.668c-0.195-0.075-2.385 4.145-3.658 6.636-0.941 0.173-1.654 1-1.654 1.997 0 1.122 0.904 2.032 2.019 2.032s2.019-0.91 2.019-2.032c0-0.466-0.158-0.894-0.42-1.237 0.71-2.709 1.888-7.322 1.694-7.396z"></path>
</svg>
<svg id="icon-energy" width="29" height="32" viewBox="0 0 29 32" x="240" y="0">
<path fill="#343a4a" d="M7.872 25.74c-2.936-2.101-4.858-5.527-4.858-9.399 0-4.741 2.875-8.82 6.973-10.606l1.555-3.56c-6.549 1.406-11.46 7.211-11.46 14.166 0 5.171 2.722 9.696 6.804 12.262l0.986-2.864z"></path>
<path fill="#5cc83b" d="M14.664 12.776l8.25-12.593h-8.104l-7.33 16.784h5.74l-5.152 14.953 13.547-19.144z"></path>
<path fill="#343a4a" d="M22.798 4.37l-1.608 2.455c3.026 2.090 5.016 5.574 5.016 9.516 0 6.38-5.203 11.571-11.596 11.571-0.331 0-0.656-0.022-0.979-0.049l-1.901 2.688c0.931 0.187 1.894 0.287 2.88 0.287 8.023 0 14.528-6.49 14.528-14.496 0-4.974-2.513-9.361-6.339-11.971z"></path>
</svg>
<svg id="icon-growth" width="34" height="32" viewBox="0 0 34 32" x="288" y="0">
<path d="M33.215 30.119v-21.956h-6.756v21.956h-1.689v-17.452h-6.756v17.452h-1.689v-12.948h-6.756v12.948h-1.689v-7.881h-6.756v7.881h-0.563c-0.311 0-0.563 0.252-0.563 0.563s0.252 0.563 0.563 0.563h32.652c0.311 0 0.563-0.252 0.563-0.563s-0.252-0.563-0.563-0.563zM2.252 30.119v-6.756h4.504v6.756h-4.504zM10.696 30.119v-11.822h4.504v11.822h-4.504zM19.141 30.119v-16.326h4.504v16.326h-4.504zM27.585 30.119v-20.83h4.504v20.83h-4.504z"></path>
<path d="M4.521 14.541c0.095 0 0.193-0.024 0.281-0.075l20.418-11.788-1.278 2.809c-0.129 0.283-0.004 0.617 0.279 0.745 0.075 0.035 0.155 0.051 0.233 0.051 0.214 0 0.418-0.123 0.513-0.33l2.005-4.408c0.006-0.014 0.005-0.029 0.010-0.044 0.011-0.030 0.019-0.059 0.025-0.090 0.003-0.016 0.012-0.029 0.013-0.045 0.001-0.007-0.002-0.012-0.002-0.019 0.001-0.021-0.001-0.041-0.002-0.063-0.002-0.031-0.007-0.060-0.014-0.091-0.005-0.021-0.006-0.043-0.013-0.064s-0.019-0.037-0.028-0.057c-0.007-0.013-0.007-0.028-0.015-0.042s-0.021-0.021-0.030-0.034c-0.012-0.017-0.021-0.036-0.035-0.052-0.015-0.017-0.033-0.029-0.050-0.044-0.023-0.021-0.046-0.040-0.072-0.057-0.017-0.011-0.033-0.024-0.052-0.033-0.006-0.003-0.010-0.008-0.016-0.011-0.014-0.006-0.029-0.005-0.043-0.010-0.031-0.011-0.061-0.019-0.093-0.025-0.015-0.003-0.026-0.011-0.042-0.012l-4.82-0.467c-0.312-0.032-0.585 0.197-0.615 0.506-0.030 0.31 0.196 0.585 0.506 0.615l3.072 0.298-20.416 11.788c-0.27 0.155-0.361 0.5-0.206 0.769 0.104 0.181 0.293 0.281 0.488 0.281z"></path>
</svg>
<svg id="icon-haj" width="28" height="32" viewBox="0 0 28 32" x="336" y="0">
<path fill="#343a4a" d="M0 13.941l13.545 8.213 13.545-8.213v-1.633l-13.545 8.213-13.545-8.213z"></path>
<path fill="#5cc83b" d="M13.545 0l-13.545 7.854v1.522l13.545 7.854 13.545-7.854v-1.522z"></path>
<path fill="#343a4a" d="M0 24.004l13.545 7.996 13.545-7.996v-8.003l-13.545 7.996-13.545-7.997z"></path>
</svg>
<svg id="icon-healthcare" width="25" height="32" viewBox="0 0 25 32" x="384" y="0">
<path fill="#343a4a" d="M21.922 20.592c0.599 0 1.083 0.474 1.083 1.060s-0.484 1.061-1.083 1.061c-0.597 0-1.082-0.475-1.082-1.061s0.484-1.060 1.082-1.060zM21.795 31.33c-1.72-1.369-4.023-2.37-6.639-2.812-0.278-0.047-0.281-0.12-0.005-0.184 5.836-1.337 10.182-6.464 10.182-12.586 0-2.609-0.79-5.038-2.146-7.070-0.216 1.245-1.322 2.193-2.654 2.193-0.009 0-0.018-0.001-0.026-0.001 0.87 1.427 1.37 3.095 1.37 4.877 0 5.27-4.363 9.544-9.746 9.544-2.044 0-3.939-0.617-5.507-1.671 0.026 0.126 0.041 0.256 0.041 0.39 0 1.049-0.869 1.9-1.94 1.9-0.559 0 2.242 1.934 4.382 2.425 0.276 0.063 0.275 0.136-0.005 0.183-2.615 0.442-4.917 1.443-6.636 2.812-0.442 0.35-0.305 0.67 0.261 0.67h18.807c0.567 0 0.702-0.321 0.262-0.67z"></path>
<path fill="#5cc83b" d="M22.58 8.407c0 1.049-0.862 1.898-1.928 1.898-1.064 0-1.928-0.849-1.928-1.898 0-1.048 0.864-1.899 1.928-1.899 1.065 0 1.928 0.851 1.928 1.899z"></path>
<path fill="#5cc83b" d="M9.122 15.981c0.113 0.113 0.288 0.29 0.414 0.29 0.075 0 0.15-0.027 0.207-0.085l1.003-0.997c0.115-0.115 0.298-0.112 0.41 0.005l0.495 0.516c0.11 0.117 0.297 0.121 0.413 0.010l0.532-0.504c0.094-0.089 0.095-0.235 0.004-0.327l-3.454-3.435c-0.093-0.091-0.233-0.084-0.316 0.015l-0.397 0.466c-0.103 0.124-0.097 0.318 0.014 0.434l0.403 0.422c0.113 0.116 0.11 0.303-0.004 0.416l-1.048 1.043c-0.116 0.113-0.116 0.298 0 0.412l1.325 1.319z"></path>
<path fill="#5cc83b" d="M3.193 18.599c-0.015 0-0.027 0.117-0.027 0.261v4.942c0.343-0.428 0.859-0.701 1.436-0.701 0.333 0 0.644 0.092 0.914 0.251v-2.933c0-0.143 0.094-0.196 0.208-0.118l5.192 3.526c0.115 0.077 0.251 0.034 0.305-0.099l0.322-0.8c0.053-0.132 0.003-0.302-0.112-0.38l-10.785-7.323c-0.113-0.078-0.25-0.034-0.302 0.099l-0.323 0.8c-0.053 0.131-0.004 0.301 0.111 0.38l2.881 1.955c0.113 0.077 0.194 0.139 0.18 0.139z"></path>
<path fill="#5cc83b" d="M4.957 22.78c-0.609 0-1.102 0.485-1.102 1.085 0 0.598 0.493 1.084 1.102 1.084s1.101-0.486 1.101-1.084c0-0.6-0.493-1.085-1.101-1.085z"></path>
<path fill="#5cc83b" d="M23.669 4.463l-0.125-0.771c-0.057-0.355-0.189-0.732-0.294-0.843l-0.191-0.199 0.31-0.324c0.076-0.076 0.076-0.201 0-0.277l-1.633-1.706c-0.073-0.077-0.192-0.077-0.265 0l-0.31 0.323c0 0-0.069-0.072-0.155-0.161-0.085-0.090-0.429-0.224-0.766-0.298l-0.854-0.189c-0.339-0.074-0.792 0.089-1.014 0.364l-8.398 10.44c-0.087 0.11-0.080 0.283 0.017 0.384l3.733 3.903c0.098 0.102 0.257 0.104 0.358 0.004l3.912-3.905 0.426-0.446c-0.529-0.499-0.861-1.221-0.861-2.024 0-1.504 1.168-2.723 2.606-2.723 0.769 0 1.46 0.348 1.937 0.901l0.529-0.552 0.71-0.782c0.237-0.261 0.383-0.762 0.326-1.117z"></path>
</svg>
<svg id="icon-industrial" width="22" height="32" viewBox="0 0 22 32" x="432" y="0">
<path fill="#343a4a" d="M3.798 9.412h3.165v-1.255h-3.165z"></path>
<path fill="#343a4a" d="M4.431 6.902h1.899v-0.627h-1.899z"></path>
<path fill="#343a4a" d="M3.798 8.784h3.165v-1.255h-3.165z"></path>
<path fill="#343a4a" d="M1.899 18.824h6.33v-2.51h-6.33z"></path>
<path fill="#343a4a" d="M3.798 28.235h3.165v-18.824h-3.165z"></path>
<path fill="#5cc83b" d="M0 17.569v14.431h22.154v-10.051l-5.264-1.269v1.269l-4.939-1.269v1.269h-1.229v-4.38z"></path>
<path fill="#fff" d="M12.659 25.098h1.899v-1.255h-1.899z"></path>
<path fill="#fff" d="M15.824 25.098h1.899v-1.255h-1.899z"></path>
<path fill="#fff" d="M18.989 25.098h1.899v-1.255h-1.899z"></path>
<path fill="#fff" d="M12.659 27.608h1.899v-1.882h-1.899z"></path>
<path fill="#fff" d="M15.824 27.608h1.899v-1.882h-1.899z"></path>
<path fill="#fff" d="M18.989 27.608h1.899v-1.882h-1.899z"></path>
<path fill="#fff" d="M2.141 29.783h6.506v-10.016h-6.506z"></path>
<path fill="#5cc83b" d="M2.026 23.337h6.722v-0.897h-6.722z"></path>
<path fill="#5cc83b" d="M2.026 26.891h6.722v-0.898h-6.722z"></path>
<path fill="#5cc83b" d="M4.939 29.904h0.911v-10.257h-0.911z"></path>
<path fill="#343a4a" d="M11.347 0.103c-1.010 0-1.885 0.471-2.315 1.159-0.225-0.087-0.47-0.135-0.728-0.135-1.066 0-1.93 0.819-1.93 1.828 0 0.025 0.001 0.050 0.002 0.075-0.025-0.001-0.051-0.002-0.076-0.002-0.861 0-1.51 0.544-1.51 1.271s0.532 1.361 1.393 1.361c0.707 0 1.421-0.398 1.612-0.943 0.162 0.042 0.333 0.065 0.509 0.065 0.663 0 1.247-0.316 1.595-0.799 0.414 0.227 0.912 0.36 1.448 0.36 1.435 0 2.598-0.95 2.598-2.121s-1.163-2.121-2.598-2.121z"></path>
</svg>
<svg id="icon-it" width="31" height="32" viewBox="0 0 31 32" x="480" y="0">
<path fill="#5cc83b" d="M9.279 27.146l-1.401-1.417 6.168-6.166v-8.371l6.857-6.838 1.398 1.419-6.269 6.251v8.37z"></path>
<path fill="#343a4a" d="M10.593 10.742c-1.112 1.118-2.915 1.118-4.026 0s-1.112-2.931 0-4.049c1.112-1.118 2.915-1.118 4.026 0s1.112 2.931 0 4.049z"></path>
<path fill="#5cc83b" d="M10.592 19.602c-1.112 1.118-2.915 1.118-4.026 0s-1.112-2.931 0-4.049c1.112-1.118 2.915-1.118 4.026 0s1.112 2.931 0 4.049z"></path>
<path fill="#5cc83b" d="M10.592 28.462c-1.112 1.118-2.915 1.118-4.026 0s-1.112-2.931 0-4.049c1.112-1.118 2.915-1.118 4.026 0s1.112 2.931 0 4.049z"></path>
<path fill="#5cc83b" d="M23.616 7.089c-1.112 1.118-2.915 1.118-4.026 0s-1.112-2.931 0-4.049c1.112-1.118 2.915-1.118 4.026 0s1.112 2.931 0 4.049z"></path>
<path fill="#5cc83b" d="M23.616 15.949c-1.112 1.118-2.915 1.118-4.026 0s-1.112-2.931 0-4.049c1.112-1.118 2.915-1.118 4.026 0s1.112 2.931 0 4.049z"></path>
<path fill="#343a4a" d="M23.616 24.809c-1.112 1.118-2.915 1.118-4.026 0s-1.112-2.931 0-4.049c1.112-1.118 2.915-1.118 4.026 0s1.112 2.931 0 4.049z"></path>
<path fill="#343a4a" d="M9.281 9.423l-1.404-1.412 7.966-8.011 1.404 1.412z"></path>
<path fill="#343a4a" d="M14.099 31.744l-1.404-1.412 8.207-8.253 1.404 1.412z"></path>
<path fill="#5cc83b" d="M1.404 26.205l-1.404-1.412 7.877-7.922 1.404 1.412z"></path>
<path fill="#5cc83b" d="M22.305 14.63l-1.404-1.412 7.625-7.668 1.404 1.412z"></path>
</svg>
<svg id="icon-labor" width="39" height="32" viewBox="0 0 39 32" x="528" y="0">
<path d="M25.221 2.288c0 0.57-0.462 1.032-1.032 1.032s-1.032-0.462-1.032-1.032c0-0.57 0.462-1.032 1.032-1.032s1.032 0.462 1.032 1.032z"></path>
<path d="M25.221 6.211c0 0.57-0.462 1.032-1.032 1.032s-1.032-0.462-1.032-1.032c0-0.57 0.462-1.032 1.032-1.032s1.032 0.462 1.032 1.032z"></path>
<path d="M27.183 4.249c0 0.57-0.462 1.032-1.032 1.032s-1.032-0.462-1.032-1.032c0-0.57 0.462-1.032 1.032-1.032s1.032 0.462 1.032 1.032z"></path>
<path d="M27.183 8.172c0 0.57-0.462 1.032-1.032 1.032s-1.032-0.462-1.032-1.032c0-0.57 0.462-1.032 1.032-1.032s1.032 0.462 1.032 1.032z"></path>
<path d="M23.26 4.249c0 0.57-0.462 1.032-1.032 1.032s-1.032-0.462-1.032-1.032c0-0.57 0.462-1.032 1.032-1.032s1.032 0.462 1.032 1.032z"></path>
<path d="M23.26 8.172c0 0.57-0.462 1.032-1.032 1.032s-1.032-0.462-1.032-1.032c0-0.57 0.462-1.032 1.032-1.032s1.032 0.462 1.032 1.032z"></path>
<path d="M25.221 10.133c0 0.57-0.462 1.032-1.032 1.032s-1.032-0.462-1.032-1.032c0-0.57 0.462-1.032 1.032-1.032s1.032 0.462 1.032 1.032z"></path>
<path d="M25.221 14.056c0 0.57-0.462 1.032-1.032 1.032s-1.032-0.462-1.032-1.032c0-0.57 0.462-1.032 1.032-1.032s1.032 0.462 1.032 1.032z"></path>
<path d="M27.183 12.095c0 0.57-0.462 1.032-1.032 1.032s-1.032-0.462-1.032-1.032c0-0.57 0.462-1.032 1.032-1.032s1.032 0.462 1.032 1.032z"></path>
<path d="M27.183 16.017c0 0.57-0.462 1.032-1.032 1.032s-1.032-0.462-1.032-1.032c0-0.57 0.462-1.032 1.032-1.032s1.032 0.462 1.032 1.032z"></path>
<path d="M23.26 12.095c0 0.57-0.462 1.032-1.032 1.032s-1.032-0.462-1.032-1.032c0-0.57 0.462-1.032 1.032-1.032s1.032 0.462 1.032 1.032z"></path>
<path d="M23.26 16.017c0 0.57-0.462 1.032-1.032 1.032s-1.032-0.462-1.032-1.032c0-0.57 0.462-1.032 1.032-1.032s1.032 0.462 1.032 1.032z"></path>
<path d="M25.221 17.979c0 0.57-0.462 1.032-1.032 1.032s-1.032-0.462-1.032-1.032c0-0.57 0.462-1.032 1.032-1.032s1.032 0.462 1.032 1.032z"></path>
<path d="M25.221 21.901c0 0.57-0.462 1.032-1.032 1.032s-1.032-0.462-1.032-1.032c0-0.57 0.462-1.032 1.032-1.032s1.032 0.462 1.032 1.032z"></path>
<path d="M27.183 19.94c0 0.57-0.462 1.032-1.032 1.032s-1.032-0.462-1.032-1.032c0-0.57 0.462-1.032 1.032-1.032s1.032 0.462 1.032 1.032z"></path>
<path d="M27.183 23.862c0 0.57-0.462 1.032-1.032 1.032s-1.032-0.462-1.032-1.032c0-0.57 0.462-1.032 1.032-1.032s1.032 0.462 1.032 1.032z"></path>
<path d="M23.26 19.94c0 0.57-0.462 1.032-1.032 1.032s-1.032-0.462-1.032-1.032c0-0.57 0.462-1.032 1.032-1.032s1.032 0.462 1.032 1.032z"></path>
<path d="M23.26 23.862c0 0.57-0.462 1.032-1.032 1.032s-1.032-0.462-1.032-1.032c0-0.57 0.462-1.032 1.032-1.032s1.032 0.462 1.032 1.032z"></path>
<path d="M25.221 25.824c0 0.57-0.462 1.032-1.032 1.032s-1.032-0.462-1.032-1.032c0-0.57 0.462-1.032 1.032-1.032s1.032 0.462 1.032 1.032z"></path>
<path d="M27.183 27.785c0 0.57-0.462 1.032-1.032 1.032s-1.032-0.462-1.032-1.032c0-0.57 0.462-1.032 1.032-1.032s1.032 0.462 1.032 1.032z"></path>
<path d="M23.26 27.785c0 0.57-0.462 1.032-1.032 1.032s-1.032-0.462-1.032-1.032c0-0.57 0.462-1.032 1.032-1.032s1.032 0.462 1.032 1.032z"></path>
<path d="M38.572 29.746h-0.654v-24.189h-7.845v24.189h-1.961v-29.419h-7.845v29.419h-1.961v-9.153h-7.845v9.153h-1.961v-15.037h-7.845v15.037c-0.361 0-0.654 0.292-0.654 0.654s0.293 0.654 0.654 0.654h37.918c0.361 0 0.654-0.292 0.654-0.654s-0.293-0.654-0.654-0.654zM1.961 29.746v-13.729h5.23v13.729h-5.23zM11.768 29.746v-7.845h5.23v7.845h-5.23zM24.843 29.746c0-0.361-0.293-0.654-0.654-0.654s-0.654 0.293-0.654 0.654h-1.961v-28.112h5.23v28.112h-1.961zM31.381 29.746v-22.882h5.23v22.882h-5.23z"></path>
</svg>
<svg id="icon-linked-in" width="35" height="32" viewBox="0 0 35 32" x="576" y="0">
<path fill="#3c4253" d="M7.433 10.165v21.086h-7.018v-21.086h7.018zM7.895 3.642c0 2.025-1.524 3.645-3.971 3.645h-0.045c-2.356 0-3.879-1.62-3.879-3.645 0-2.067 1.57-3.642 3.97-3.642s3.879 1.575 3.925 3.642zM32.742 19.161l-0 12.090h-7.018v-11.281c0-2.834-1.016-4.767-3.556-4.767-1.939 0-3.094 1.303-3.601 2.562-0.186 0.451-0.231 1.080-0.231 1.71v11.776h-7.019c0 0 0.092-19.107 0-21.086h7.019v2.987c0.931-1.436 2.6-3.482 6.326-3.482 4.618 0 8.080 3.014 8.080 9.491z"></path>
</svg>
<svg id="icon-people" width="29" height="32" viewBox="0 0 29 32" x="624" y="0">
<path d="M14.213 21.568c1.115 0 2.022-0.907 2.022-2.022s-0.907-2.022-2.022-2.022c-1.115 0-2.022 0.907-2.022 2.022s0.907 2.022 2.022 2.022zM14.213 18.452c0.603 0 1.094 0.491 1.094 1.094s-0.491 1.094-1.094 1.094c-0.603 0-1.094-0.491-1.094-1.094s0.491-1.094 1.094-1.094z"></path>
<path d="M23.161 6.703c1.848 0 3.352-1.503 3.352-3.351s-1.503-3.352-3.352-3.352c-1.848 0-3.351 1.503-3.351 3.351s1.503 3.351 3.351 3.351zM23.161 0.928c1.336 0 2.423 1.087 2.423 2.423s-1.087 2.423-2.423 2.423c-1.336 0-2.423-1.087-2.423-2.423s1.087-2.423 2.423-2.423z"></path>
<path d="M27.919 11.628c-0.256 0-0.464 0.208-0.464 0.464v6.349c0 0.165-0.134 0.3-0.3 0.3h-1.132v-8.19c0-0.256-0.208-0.464-0.464-0.464s-0.464 0.208-0.464 0.464v19.663c0 0.165-0.134 0.3-0.3 0.3h-1.078c-0.165 0-0.3-0.134-0.3-0.3v-7.382c0-0.256-0.208-0.464-0.464-0.464s-0.464 0.208-0.464 0.464v7.382c0 0.165-0.134 0.3-0.3 0.3h-1.078c-0.165 0-0.3-0.134-0.3-0.3v-19.663c0-0.256-0.208-0.464-0.464-0.464s-0.464 0.208-0.464 0.464v8.19h-1.132c-0.165 0-0.3-0.134-0.3-0.299v-7.893c0-1.524 1.24-2.764 2.764-2.764h3.475c1.524 0 2.764 1.24 2.764 2.764 0 0.256 0.208 0.464 0.464 0.464s0.464-0.208 0.464-0.464c0-2.036-1.656-3.692-3.692-3.692h-3.476c-2.036 0-3.692 1.656-3.692 3.692v7.893c0 0.677 0.551 1.227 1.228 1.227h1.132v10.545c0 0.677 0.551 1.228 1.228 1.228h1.078c0.289 0 0.554-0.101 0.764-0.268 0.21 0.167 0.475 0.268 0.764 0.268h1.078c0.677 0 1.228-0.551 1.228-1.228v-10.545h1.132c0.677 0 1.228-0.551 1.228-1.228v-6.349c0-0.256-0.208-0.464-0.464-0.464z"></path>
<path d="M4.875 9.75c1.848 0 3.352-1.503 3.352-3.351s-1.503-3.351-3.351-3.351c-1.848 0-3.351 1.503-3.351 3.351s1.503 3.351 3.351 3.351zM4.875 3.976c1.336 0 2.423 1.087 2.423 2.423s-1.087 2.423-2.423 2.423c-1.336 0-2.423-1.087-2.423-2.423s1.087-2.423 2.423-2.423z"></path>
<path d="M6.35 9.905h-3.052c-1.819 0-3.298 1.48-3.298 3.298v6.93c0 0.625 0.509 1.134 1.135 1.134h0.014l-0.321 2.923c-0.014 0.131 0.028 0.262 0.116 0.36s0.214 0.154 0.346 0.154h0.784v5.765c0 0.626 0.509 1.135 1.135 1.135h0.947c0.251 0 0.482-0.083 0.671-0.221 0.188 0.139 0.42 0.221 0.671 0.221h0.947c0.626 0 1.135-0.509 1.135-1.135v-2.562c0-0.256-0.208-0.464-0.464-0.464s-0.464 0.208-0.464 0.464v2.562c0 0.114-0.093 0.206-0.207 0.206h-0.947c-0.114 0-0.207-0.093-0.207-0.206v-4.956c0-0.256-0.208-0.464-0.464-0.464s-0.464 0.208-0.464 0.464v4.956c0 0.114-0.093 0.206-0.207 0.206h-0.947c-0.114 0-0.207-0.093-0.207-0.206v-5.765h3.648v1.717c0 0.256 0.208 0.464 0.464 0.464s0.464-0.208 0.464-0.464v-1.717h0.783c0.132 0 0.258-0.056 0.345-0.154s0.13-0.229 0.116-0.36l-0.321-2.923h0.014c0.626 0 1.135-0.509 1.135-1.134v-6.93c0-1.819-1.48-3.298-3.298-3.298zM8.72 20.133c-0 0.114-0.093 0.206-0.207 0.206h-0.116l-0.849-7.73c-0.028-0.255-0.257-0.438-0.512-0.411s-0.439 0.257-0.411 0.512l1.216 11.067h-6.035l1.216-11.067c0.028-0.255-0.156-0.484-0.411-0.512s-0.484 0.156-0.512 0.411l-0.849 7.73h-0.116c-0.114 0-0.206-0.093-0.207-0.206v-6.93c0-1.307 1.063-2.37 2.37-2.37h3.052c1.307 0 2.37 1.063 2.37 2.37v6.93z"></path>
<path d="M18.174 19.81c-0.332 0.010-0.64 0.15-0.868 0.392l-1.73 1.843h-1.791l-1.731-1.843c-0.47-0.5-1.258-0.525-1.758-0.055s-0.525 1.258-0.055 1.758l2.006 2.137v6.14c0 0.669 0.544 1.213 1.213 1.213h2.441c0.669 0 1.212-0.544 1.212-1.213v-2.546c0-0.256-0.208-0.464-0.464-0.464s-0.464 0.208-0.464 0.464v2.546c0 0.157-0.128 0.285-0.284 0.285h-0.778v-3.87c0-0.256-0.208-0.464-0.464-0.464s-0.464 0.208-0.464 0.464v3.87h-0.735c-0.157 0-0.285-0.128-0.285-0.285v-6.324c0-0.118-0.045-0.232-0.126-0.318l-2.132-2.27c-0.119-0.127-0.113-0.327 0.014-0.446s0.327-0.113 0.446 0.014l1.868 1.989c0.088 0.093 0.21 0.146 0.338 0.146h2.193c0.128 0 0.251-0.053 0.338-0.146l1.868-1.989c0.119-0.127 0.319-0.133 0.446-0.014s0.133 0.319 0.014 0.446l-2.132 2.27c-0.081 0.086-0.126 0.2-0.126 0.318v2.231c0 0.256 0.208 0.464 0.464 0.464s0.464-0.208 0.464-0.464v-2.047l2.006-2.136c0.469-0.5 0.445-1.288-0.055-1.758-0.242-0.227-0.558-0.346-0.89-0.336z"></path>
</svg>
<svg id="icon-railways" width="29" height="32" viewBox="0 0 29 32" x="672" y="0">
<path fill="#5cc83b" d="M13.822 6.118h-5.989c-0.55 0-0.998 0.458-0.998 1.020v4.077c0 0.562 0.448 1.020 0.998 1.020h5.989v-6.118zM15.319 6.118v6.118h5.989c0.551 0 0.999-0.458 0.999-1.020v-4.077c0-0.562-0.448-1.020-0.999-1.020h-5.989zM24.802 20.393c0 2.245-1.794 4.077-3.992 4.077h-12.477c-2.199 0-3.992-1.832-3.992-4.077v-14.275c0-3.377 4.581-6.118 10.231-6.118s10.231 2.74 10.231 6.118v14.275zM8.332 16.824c-0.827 0-1.497 0.685-1.497 1.529s0.67 1.529 1.497 1.529c0.827 0 1.497-0.684 1.497-1.529s-0.67-1.529-1.497-1.529zM22.306 18.353c0-0.845-0.67-1.529-1.497-1.529s-1.497 0.685-1.497 1.529c0 0.845 0.67 1.529 1.497 1.529s1.497-0.684 1.497-1.529z"></path>
<path fill="#343a4a" d="M0 32l5.005-5.647h4.104l-1.664 1.882h13.63l-1.666-1.882h4.105l5.007 5.647h-4.116l-1.666-1.882h-16.959l-1.665 1.882z"></path>
</svg>
<svg id="icon-sfeneh" width="31" height="32" viewBox="0 0 31 32" x="720" y="0">
<path fill="#fff" d="M27.034 13.32c0 0-1.078-0.228-2.764-0.809-0.118-0.041-0.239-0.083-0.362-0.127-0.015-0.005-0.030-0.011-0.045-0.016-0.047-0.017-0.094-0.034-0.142-0.051-0.064-0.023-0.128-0.047-0.193-0.071-0.133-0.049-0.268-0.1-0.406-0.152-0.007-0.003-0.015-0.005-0.022-0.008-2.062-0.783-4.704-1.889-7.347-1.965h-0.001c-0.008-0-0.015-0.001-0.022-0.001v15.253c0 0 2.303 0.145 5.948-0.944 0 0-0.516-1.901 1.253-3.994 2.149-2.543 3.62-6.012 4.103-7.115z"></path>
<path fill="#fff" d="M11.685 15.587c-0.582 0-1.054-0.472-1.054-1.055s0.472-1.055 1.054-1.055 1.054 0.473 1.054 1.055c0 0.583-0.472 1.055-1.054 1.055zM15.143 10.12c-2.643 0.076-5.285 1.181-7.347 1.965-0.007 0.003-0.015 0.005-0.022 0.008-0.138 0.052-0.273 0.103-0.406 0.152-0.105 0.039-0.208 0.076-0.31 0.113-0.009 0.003-0.018 0.007-0.027 0.010-0.103 0.037-0.205 0.073-0.304 0.107-1.743 0.607-2.865 0.845-2.865 0.845 0.483 1.103 1.953 4.572 4.103 7.115 1.769 2.093 1.253 3.994 1.253 3.994 3.645 1.089 5.948 0.944 5.948 0.944v-15.253c-0.008 0-0.015 0.001-0.022 0.001h-0.001z"></path>
<path fill="#fff" d="M15.781 7.347c0-0.26 0.214-0.471 0.478-0.471h0.542c0.264 0 0.478 0.211 0.478 0.471v0.534c0 0.26-0.214 0.471-0.478 0.471h-0.542c-0.264 0-0.478-0.211-0.478-0.471v-0.534zM17.908 7.347c0-0.26 0.214-0.471 0.478-0.471h0.542c0.264 0 0.478 0.211 0.478 0.471v0.534c0 0.26-0.214 0.471-0.478 0.471h-0.542c-0.264 0-0.478-0.211-0.478-0.471v-0.534zM20.035 7.347c0-0.26 0.214-0.471 0.478-0.471h0.542c0.264 0 0.478 0.211 0.478 0.471v0.534c0 0.26-0.214 0.471-0.478 0.471h-0.542c-0.264 0-0.478-0.211-0.478-0.471v-0.534zM15.151 7.881c0 0.26-0.214 0.471-0.478 0.471h-0.542c-0.264 0-0.478-0.211-0.478-0.471v-0.534c0-0.26 0.214-0.471 0.478-0.471h0.542c0.264 0 0.478 0.211 0.478 0.471v0.534zM13.024 7.881c0 0.26-0.214 0.471-0.478 0.471h-0.542c-0.264 0-0.478-0.211-0.478-0.471v-0.534c0-0.26 0.214-0.471 0.478-0.471h0.542c0.264 0 0.478 0.211 0.478 0.471v0.534zM10.896 7.881c0 0.26-0.214 0.471-0.478 0.471h-0.542c-0.264 0-0.478-0.211-0.478-0.471v-0.534c0-0.26 0.214-0.471 0.478-0.471h0.542c0.264 0 0.478 0.211 0.478 0.471v0.534zM15.648 9.481c2.524 0.068 5.027 1.014 7.039 1.775 0.349 0.132 0.678 0.256 0.993 0.371 0.182 0.066 0.358 0.129 0.529 0.188l-0.208-1.909c-0.064-0.59-0.628-1.062-1.259-1.062h-0.716v-2.442h1.399c0.254 0 0.46-0.203 0.46-0.454v-0.54c0-0.251-0.206-0.454-0.46-0.454h-7.008v-0.992h1.541c0.131 0 0.237-0.105 0.237-0.234v-0.468c0-0.129-0.106-0.234-0.237-0.234h-1.541v-0.35c0-0.26-0.214-0.471-0.478-0.471h-0.985c-0.264 0-0.478 0.211-0.478 0.471v0.35h-1.541c-0.131 0-0.237 0.105-0.237 0.234v0.468c0 0.129 0.106 0.234 0.237 0.234h1.541v0.992h-7.008c-0.254 0-0.46 0.203-0.46 0.454v0.54c0 0.251 0.206 0.454 0.46 0.454h1.399v2.442h-0.715c-0.632 0-1.195 0.472-1.26 1.062l-0.204 1.873c0.139-0.049 0.281-0.099 0.427-0.152 0.315-0.115 0.645-0.239 0.993-0.371 2.011-0.761 4.514-1.707 7.039-1.775v-0.013l0.25 0.006 0.25-0.006v0.013z"></path>
</svg>
<svg id="icon-transport" width="28" height="32" viewBox="0 0 28 32" x="0" y="48">
<path fill="#fff" d="M14.081 6.867h-4.327c-0.397 0-0.721 0.324-0.721 0.722v2.884c0 0.397 0.324 0.722 0.721 0.722h4.327v-4.327zM15.162 6.867v4.327h4.327c0.398 0 0.722-0.324 0.722-0.722v-2.884c0-0.397-0.324-0.722-0.722-0.722h-4.327zM22.014 16.965c0 1.588-1.296 2.884-2.884 2.884h-9.016c-1.589 0-2.885-1.296-2.885-2.884v-10.098c0-2.389 3.31-4.327 7.392-4.327s7.392 1.938 7.392 4.327v10.098zM10.114 14.44c-0.598 0-1.082 0.484-1.082 1.082s0.484 1.082 1.082 1.082c0.597 0 1.081-0.484 1.081-1.082s-0.484-1.082-1.081-1.082zM20.211 15.522c0-0.597-0.484-1.082-1.082-1.082s-1.082 0.484-1.082 1.082c0 0.598 0.484 1.082 1.082 1.082s1.082-0.484 1.082-1.082z"></path>
<path fill="#fff" d="M4.063 25.1l3.611-3.939h2.961l-1.2 1.313h9.832l-1.202-1.313h2.961l3.612 3.939h-2.969l-1.202-1.313h-12.234l-1.201 1.313z"></path>
</svg>
<svg id="icon-twitter" width="37" height="32" viewBox="0 0 37 32" x="48" y="48">
<path fill="#3c4253" d="M31.961 8.577c0 10.158-7.344 21.876-20.769 21.876-4.123 0-7.962-1.278-11.192-3.454 0.57 0.068 1.15 0.107 1.739 0.107 3.42 0 6.575-1.229 9.073-3.288-3.202-0.068-5.89-2.283-6.822-5.337 0.447 0.088 0.903 0.137 1.368 0.137 0.675 0 1.397-0.098 2.005-0.273-3.344-0.703-5.786-3.815-5.786-7.543 0.95 0.478 2.043 0.829 3.24 0.868-1.967-1.376-3.287-3.737-3.287-6.401 0-1.405 0.342-2.732 0.969-3.864 3.601 4.654 8.969 7.708 15.040 8.030-0.133-0.566-0.195-1.151-0.195-1.747 0-4.245 3.265-7.689 7.295-7.689 2.1 0 3.998 0.927 5.328 2.42 1.663-0.341 3.221-0.976 4.636-1.864-0.542 1.795-1.702 3.308-3.212 4.254 1.482-0.185 2.888-0.595 4.19-1.21-0.969 1.542-2.214 2.898-3.639 3.981 0.009 0.332 0.019 0.663 0.019 0.995z"></path>
</svg>
<svg id="icon-youth" width="31" height="32" viewBox="0 0 31 32" x="96" y="48" stroke="#3D3D3B">
<path d="M14.666 1.988c-3.916 0-7.597 1.525-10.366 4.294s-4.294 6.45-4.294 10.366 1.525 7.597 4.294 10.366c2.769 2.769 6.45 4.294 10.366 4.294 0.353 0 0.639-0.286 0.639-0.639v-28.042c0-0.353-0.286-0.639-0.639-0.639zM14.027 30.014c-7.083-0.335-12.743-6.202-12.743-13.367s5.66-13.032 12.743-13.367v26.734z"></path>
<path d="M18.242 13.43c0.111 0.080 0.242 0.122 0.376 0.122 0.066 0 0.133-0.010 0.197-0.031l11.674-3.793c0.161-0.052 0.295-0.167 0.372-0.318s0.091-0.326 0.038-0.488c-1.762-5.42-6.583-8.923-12.281-8.923-0.353 0-0.639 0.286-0.639 0.639v12.274c0 0.205 0.098 0.397 0.263 0.517zM19.257 1.294c4.642 0.239 8.551 3.079 10.214 7.421l-10.214 3.319v-10.74z"></path>
<path d="M30.522 13.78c-0.109-0.335-0.469-0.519-0.805-0.41l-11.91 3.87c-0.263 0.086-0.442 0.331-0.442 0.608v12.523c0 0.353 0.286 0.639 0.639 0.639 6.491 0 10.132-4.055 11.728-7.187s1.877-6.699 0.789-10.043zM28.594 23.242c-1.441 2.828-4.663 6.055-9.951 6.475v-11.406l10.845-3.524c0.76 2.838 0.45 5.817-0.895 8.455z"></path>
</svg>
<svg id="icon-youtube" width="40" height="32" viewBox="0 0 45 32" x="144" y="48">
<path fill="#3c4253" d="M44.077 6.903c0 0 0.445 3.682 0.445 7.363v3.452c0 3.682-0.445 7.363-0.445 7.363s-0.435 3.135-1.77 4.516c-1.693 1.813-3.591 1.821-4.46 1.928-6.23 0.461-15.585 0.475-15.585 0.475s-11.576-0.108-15.137-0.458c-0.991-0.189-3.215-0.132-4.91-1.945-1.334-1.381-1.768-4.516-1.768-4.516s-0.445-3.681-0.445-7.363v-3.452c0-3.681 0.445-7.363 0.445-7.363s0.434-3.135 1.768-4.516c1.695-1.813 3.591-1.821 4.462-1.927 6.23-0.461 15.576-0.461 15.576-0.461h0.020c0 0 9.345 0 15.576 0.461 0.87 0.105 2.767 0.114 4.461 1.927 1.334 1.381 1.77 4.516 1.77 4.516zM17.664 21.901l12.028-6.37-12.029-6.414 0.001 12.783z"></path>
</svg>
</svg>
