<svg xmlns="http://www.w3.org/2000/svg" width="17.405" height="13.799" viewBox="0 0 17.405 13.799">
  <g id="Telephone" transform="translate(-105.833 -1405.772)">
    <g id="Group_601" data-name="Group 601">
      <path id="Path_520" data-name="Path 520" d="M114.535,1405.772c-4.723,0-8.7,2.078-8.7,4.547a5.557,5.557,0,0,0,.372,1.8,1.551,1.551,0,0,0,1.431.98.527.527,0,0,0,.176-.02l.138-.02a7.57,7.57,0,0,0-.706,3.156v1.744a1.615,1.615,0,0,0,1.607,1.608h11.368a1.616,1.616,0,0,0,1.608-1.608v-1.744a7.352,7.352,0,0,0-.706-3.156l.137.02a1.543,1.543,0,0,0,1.607-.96,5.562,5.562,0,0,0,.373-1.8C123.238,1407.85,119.259,1405.772,114.535,1405.772Zm6.194,12.191a.519.519,0,0,1-.51.51H108.851a.519.519,0,0,1-.509-.51v-1.744a6.464,6.464,0,0,1,.784-3.077l.137-.235,1.1-.138a1.539,1.539,0,0,0,1.353-1.646c-.039-.588-.059-.9-.059-.98,0-.039.078-.471,2.881-.471s2.882.432,2.882.471c0,.059-.02.392-.059.98a1.539,1.539,0,0,0,1.352,1.646l1.1.138.137.235a6.464,6.464,0,0,1,.784,3.077Zm1.117-6.252a.449.449,0,0,1-.451.274l-2.548-.294a.421.421,0,0,1-.372-.47c.02-.2.059-.863.059-1.059,0-1.568-2.49-1.568-3.979-1.568s-3.979,0-3.979,1.568c0,.2.059.863.059,1.059a.45.45,0,0,1-.373.47l-2.548.294a.447.447,0,0,1-.45-.274,4.221,4.221,0,0,1-.294-1.392c0-.764.784-1.627,2.077-2.273a12.631,12.631,0,0,1,5.527-1.176,12.414,12.414,0,0,1,5.528,1.176c1.313.666,2.077,1.509,2.077,2.273A6.944,6.944,0,0,1,121.846,1411.711Z" fill="#bf9b2e"/>
      <path id="Path_521" data-name="Path 521" d="M114.535,1411.868a2.753,2.753,0,1,0,2.764,2.744A2.773,2.773,0,0,0,114.535,1411.868Zm0,4.41a1.646,1.646,0,1,1,1.647-1.647A1.644,1.644,0,0,1,114.535,1416.278Z" fill="#bf9b2e"/>
    </g>
  </g>
</svg>
