<svg id="Layer_1" data-name="Layer 1" xmlns="http://www.w3.org/2000/svg" viewBox="0 0 372.41 249.14"><defs><style>.cls-1{fill:#a6a6a8;}.cls-2{fill:#273877;}.cls-3{fill:#aaaaad;}.cls-4{fill:#ccd533;}.cls-5{fill:#71b645;}.cls-6{fill:#26b4bb;}.cls-7{fill:#59b25a;}.cls-8{fill:#2885c7;}.cls-9{fill:#1d3a6d;}.cls-10{fill:#70777f;}</style></defs><rect class="cls-1" x="219.38" y="4.51" width="4.19" height="4.18"/><rect class="cls-1" x="306.47" y="56.48" width="4.19" height="4.18"/><path class="cls-1" d="M475.53,260.09A6.09,6.09,0,0,0,478,258a9,9,0,0,0,1.34-3.34,22.78,22.78,0,0,0,.39-4.42V221h-4.19v29.25a21.22,21.22,0,0,1-.18,3,5.43,5.43,0,0,1-.63,2,2.6,2.6,0,0,1-1.2,1.1,4.79,4.79,0,0,1-2,.34,9.37,9.37,0,0,1-1-.05,9.24,9.24,0,0,1-1.15-.27l-1.1,4a13.07,13.07,0,0,0,3.4.47A9,9,0,0,0,475.53,260.09Z" transform="translate(-118.15 -208.08)"/><path class="cls-1" d="M461.13,213.55h-5.75v-1a1.9,1.9,0,0,1,.34-1.23A1.67,1.67,0,0,1,457,211h2.87v-2.92h-2.95a5.07,5.07,0,0,0-3.69,1.26,5.46,5.46,0,0,0-1.29,4v3.41h9.18Z" transform="translate(-118.15 -208.08)"/><rect class="cls-1" x="298.1" y="56.48" width="4.19" height="4.18"/><rect class="cls-1" x="227.76" y="4.51" width="4.19" height="4.18"/><path class="cls-1" d="M442.26,246a16.8,16.8,0,0,0,5.52,2.51,26.52,26.52,0,0,0,6.65.8h1.1l1.41-2.94v4.15q0,3.28-1.88,4.7a8.69,8.69,0,0,1-5.29,1.41,14.8,14.8,0,0,1-3.48-.37,20.33,20.33,0,0,1-3.54-1.25l-1.3,4a36.91,36.91,0,0,0,4.26,1.33,15.87,15.87,0,0,0,3.74.45c4.09,0,7.05-1,8.9-2.9a10.84,10.84,0,0,0,2.78-7.81V221h-6.7a21.71,21.71,0,0,0-7.07,1.09,17.26,17.26,0,0,0-5.47,3,13.32,13.32,0,0,0-3.53,4.54,13.12,13.12,0,0,0-1.26,5.72,13.53,13.53,0,0,0,1.39,6.35A12.16,12.16,0,0,0,442.26,246Zm0-14.81a10.19,10.19,0,0,1,2.56-3.22,12,12,0,0,1,3.64-2.06,12.7,12.7,0,0,1,4.11-.73h6.76l-2.39,1.19v18.77H452.7a14.45,14.45,0,0,1-4.42-.66,11,11,0,0,1-3.64-1.91,8.7,8.7,0,0,1-2.46-3.08,9.48,9.48,0,0,1-.89-4.18A8.81,8.81,0,0,1,442.26,231.2Z" transform="translate(-118.15 -208.08)"/><path class="cls-1" d="M338.67,260.24h8.7v-3.13a4.5,4.5,0,0,0,.27.43,6,6,0,0,0,2.48,2.12,8.82,8.82,0,0,0,3.8.73h76.35V221h-4.19v35.25h-72a4.79,4.79,0,0,1-2-.34,2.6,2.6,0,0,1-1.21-1.09,5.69,5.69,0,0,1-.62-2,21.16,21.16,0,0,1-.18-3V221H338.78c-11.58,0-19.46,9.16-19.46,19.64v.11C319.32,251.18,327.09,260.24,338.67,260.24Zm-14.89-19.75c0-8.63,6.19-15.57,14.89-15.57h9.8l-2.56,1.27v23.6a22.75,22.75,0,0,0,.39,4.41,9.74,9.74,0,0,0,.65,2.08h-8.17c-8.7,0-15-7.06-15-15.68Z" transform="translate(-118.15 -208.08)"/><polygon class="cls-1" points="180.23 41.77 182.05 46.59 155.46 12.83 151.3 12.83 151.3 52.07 155.63 52.07 155.63 22.49 153.16 16.77 181.01 52.07 184.55 52.07 184.55 12.83 180.23 12.83 180.23 41.77"/><path class="cls-1" d="M358,322.86l24.15-23v-15.8H317.64v18h33.08L363,294.15,332.37,324.9l3.27,13.35h8.73c11.73,0,18.69,4.35,18.69,12.11v.27c0,7.08-5.59,11.57-13.5,11.57-9.69,0-16.51-4.08-23.05-11.43l-14.46,13.75c8.18,9.67,20.05,16.47,37.23,16.47,21.28,0,34.38-13.2,34.38-31.17v-.28C383.66,331.85,371,325,358,322.86Z" transform="translate(-118.15 -208.08)"/><path class="cls-1" d="M242.19,220.24c-12,0-20.11,9.47-20.11,20.29v.12c0,10.82,8,20.18,20,20.18s20.11-9.48,20.11-20.3v-.11C262.18,229.6,254.15,220.24,242.19,220.24Zm15.39,20.41c0,8.91-6.41,16.09-15.39,16.09s-15.51-7.29-15.51-16.21v-.11c0-8.91,6.41-16.09,15.39-16.09s15.51,7.29,15.51,16.2Z" transform="translate(-118.15 -208.08)"/><path class="cls-1" d="M440,282.43c-29.46,0-50.88,22.19-50.88,49.28V332c0,27.1,21.14,49,50.61,49s50.88-22.19,50.88-49.28v-.27C490.56,304.35,469.41,282.43,440,282.43ZM468.6,332c0,16.34-11.73,29.68-28.65,29.68S411,348.05,411,331.71v-.27c0-16.34,11.74-29.68,28.65-29.68s28.92,13.62,28.92,29.95Z" transform="translate(-118.15 -208.08)"/><rect class="cls-1" x="91.84" y="12.83" width="4.44" height="39.24"/><path class="cls-1" d="M138.7,368.47l4.05-3.12,20.87-16.08c16.91-13.07,25.09-21,25.09-36.89v-.27c0-17.84-13.09-29.41-32.87-29.41-17.05,0-26.19,6.94-35.6,19.74L135,314.28c7.09-8.71,12.14-12.79,19.51-12.79s12.82,4.35,12.82,12.39c0,7.89-4.64,13.07-16.51,22.87l-31.78,26v16.61h70.66V361.25H153.26Z" transform="translate(-118.15 -208.08)"/><polygon class="cls-1" points="20.84 52.35 37.75 12.83 32.98 12.83 19.61 45 20.04 49.31 18.93 46.63 7.36 18.67 4.94 12.83 0 12.83 16.91 52.35 20.84 52.35"/><rect class="cls-1" x="43.78" y="12.83" width="4.44" height="39.24"/><path class="cls-1" d="M189.86,238.4c-8.66-1.85-10.68-3.92-10.68-7.62v-.11c0-3.54,3.26-6.34,8.37-6.34a17.29,17.29,0,0,1,11.35,4.26l2.58-3.42a20.55,20.55,0,0,0-13.81-4.82c-7.48,0-12.92,4.54-12.92,10.71v.11c0,6.45,4.15,9.36,13.2,11.33,8.25,1.73,10.22,3.81,10.22,7.45v.11c0,3.87-3.48,6.67-8.76,6.67-5.45,0-9.38-1.84-13.49-5.54l-2.75,3.25a23.06,23.06,0,0,0,16.07,6.28c7.8,0,13.42-4.38,13.42-11.1v-.12C202.66,243.51,198.62,240.31,189.86,238.4Z" transform="translate(-118.15 -208.08)"/><polygon class="cls-2" points="128.59 68.08 133.43 72.71 128.79 77.53 123.96 72.9 128.59 68.08"/><polygon class="cls-3" points="139.66 72.9 144.5 77.53 149.14 72.71 144.3 68.08 139.66 72.9"/><polygon class="cls-4" points="132.85 78.98 136.62 82.59 140.23 78.83 136.47 75.23 132.85 78.98"/><polygon class="cls-5" points="146.66 81.05 150.42 84.65 154.03 80.9 150.27 77.29 146.66 81.05"/><polygon class="cls-4" points="126.7 84.73 130.46 88.34 134.07 84.58 130.31 80.97 126.7 84.73"/><polygon class="cls-6" points="139.33 85.17 143.09 88.77 146.71 85.02 142.94 81.41 139.33 85.17"/><polygon class="cls-5" points="134.39 89.49 137.04 92.03 139.58 89.38 136.93 86.84 134.39 89.49"/><polygon class="cls-7" points="144.38 91.48 147.03 94.02 149.57 91.37 146.92 88.84 144.38 91.48"/><rect class="cls-8" x="285.03" y="278.64" width="8.35" height="8.34" transform="translate(-164.39 -151.31) rotate(-10.39)"/><rect class="cls-9" x="274.17" y="282.23" width="6.7" height="6.69" transform="translate(-165.05 -153.43) rotate(-10.38)"/><rect class="cls-6" x="286.91" y="291.41" width="6.7" height="6.69" transform="translate(-166.55 -150.89) rotate(-10.39)"/><rect class="cls-4" x="277.7" y="292.51" width="5.22" height="5.21" transform="translate(-166.74 -152.74) rotate(-10.38)"/><rect class="cls-3" x="287.69" y="302.24" width="5.22" height="5.21" transform="translate(-168.33 -150.78) rotate(-10.38)"/><rect class="cls-6" x="270.01" y="294.59" width="5.22" height="5.21" transform="translate(-167.24 -154.09) rotate(-10.38)"/><rect class="cls-5" x="279.33" y="301.3" width="5.22" height="5.21" transform="translate(-168.3 -152.3) rotate(-10.38)"/><rect class="cls-3" x="272.66" y="302.08" width="3.67" height="3.66" transform="translate(-168.45 -153.61) rotate(-10.39)"/><rect class="cls-7" x="279.6" y="309.53" width="3.67" height="3.66" transform="translate(-169.55 -152.4) rotate(-10.36)"/><polygon class="cls-2" points="190.63 98.24 187.04 105.77 194.59 109.35 198.17 101.82 190.63 98.24"/><polygon class="cls-6" points="179.93 94.76 177.05 100.8 183.1 103.67 185.98 97.63 179.93 94.76"/><polygon class="cls-5" points="184.88 109.64 182 115.68 188.05 118.55 190.93 112.51 184.88 109.64"/><polygon class="cls-4" points="176.95 105.11 174.71 109.81 179.42 112.05 181.66 107.34 176.95 105.11"/><polygon class="cls-4" points="179.34 118.83 177.1 123.53 181.81 125.77 184.05 121.07 179.34 118.83"/><polygon class="cls-8" points="169.49 102.31 167.25 107.01 171.96 109.25 174.2 104.54 169.49 102.31"/><polygon class="cls-3" points="173.11 113.19 170.87 117.89 175.58 120.13 177.82 115.42 173.11 113.19"/><polygon class="cls-5" points="167.44 109.87 165.87 113.18 169.18 114.75 170.76 111.45 167.44 109.87"/><rect class="cls-6" x="285.88" y="328.65" width="3.66" height="3.67" transform="translate(-252.49 240.18) rotate(-64.55)"/><polygon class="cls-8" points="194.7 134.29 187.37 138.3 191.39 145.61 198.72 141.6 194.7 134.29"/><polygon class="cls-6" points="188.05 125.22 182.18 128.43 185.4 134.3 191.28 131.08 188.05 125.22"/><polygon class="cls-6" points="183.35 140.17 177.47 143.39 180.7 149.25 186.57 146.04 183.35 140.17"/><polygon class="cls-2" points="179.57 131.87 175 134.37 177.51 138.94 182.08 136.44 179.57 131.87"/><polygon class="cls-7" points="173.47 144.39 168.89 146.9 171.4 151.47 175.98 148.96 173.47 144.39"/><polygon class="cls-9" points="175.16 125.24 170.59 127.75 173.1 132.31 177.68 129.81 175.16 125.24"/><polygon class="cls-4" points="171.72 136.18 167.15 138.69 169.66 143.25 174.23 140.75 171.72 136.18"/><polygon class="cls-3" points="169.07 130.18 165.85 131.95 167.62 135.16 170.84 133.4 169.07 130.18"/><polygon class="cls-6" points="164.18 139.1 160.96 140.86 162.72 144.07 165.94 142.31 164.18 139.1"/><rect class="cls-5" x="286.18" y="373.43" width="8.34" height="8.35" transform="translate(-238.17 411.36) rotate(-82.95)"/><rect class="cls-9" x="287.86" y="362.3" width="6.69" height="6.7" transform="translate(-225.63 401.6) rotate(-82.94)"/><rect class="cls-6" x="275.27" y="371.68" width="6.69" height="6.7" transform="translate(-245.98 397.34) rotate(-82.94)"/><rect class="cls-5" x="278.64" y="362.84" width="5.21" height="5.22" transform="translate(-234.09 391.67) rotate(-82.95)"/><rect class="cls-3" x="266.35" y="369.44" width="5.21" height="5.22" transform="translate(-251.42 385.25) rotate(-82.95)"/><rect class="cls-3" x="278.95" y="354.9" width="5.21" height="5.22" transform="translate(-226 384.88) rotate(-82.94)"/><rect class="cls-5" x="269.75" y="361.76" width="5.21" height="5.22" transform="translate(-240.88 381.77) rotate(-82.94)"/><rect class="cls-3" x="272.75" y="355.45" width="3.66" height="3.67" transform="translate(-231.85 377.84) rotate(-82.95)"/><rect class="cls-3" x="263.55" y="359.82" width="3.66" height="3.67" transform="translate(-244.25 372.57) rotate(-82.95)"/><polygon class="cls-4" points="143.86 181.12 137.74 175.44 132.06 181.56 138.18 187.23 143.86 181.12"/><polygon class="cls-5" points="142.73 64.34 136.61 58.66 130.93 64.77 137.05 70.44 142.73 64.34"/><polygon class="cls-6" points="150.4 171.96 145.48 167.41 140.92 172.31 145.84 176.87 150.4 171.96"/><polygon class="cls-5" points="134.69 172.22 129.78 167.67 125.22 172.57 130.13 177.13 134.69 172.22"/><polygon class="cls-8" points="141.39 166.03 137.57 162.49 134.02 166.3 137.84 169.84 141.39 166.03"/><polygon class="cls-4" points="127.56 164.19 123.73 160.65 120.19 164.47 124.01 168.01 127.56 164.19"/><polygon class="cls-4" points="146.31 159.77 142.48 156.22 138.93 160.04 142.75 163.58 146.31 159.77"/><polygon class="cls-3" points="134.82 159.96 130.99 156.41 127.44 160.23 131.27 163.77 134.82 159.96"/><polygon class="cls-9" points="139.68 155.55 137 153.06 134.5 155.74 137.19 158.24 139.68 155.55"/><polygon class="cls-3" points="129.66 153.72 126.97 151.23 124.48 153.92 127.17 156.41 129.66 153.72"/><rect class="cls-8" x="217.24" y="374.84" width="8.35" height="8.34" transform="translate(-188.31 -157.19) rotate(-11.33)"/><rect class="cls-6" x="229.7" y="372.7" width="6.7" height="6.69" transform="translate(-187.46 -154.99) rotate(-11.33)"/><rect class="cls-5" x="216.81" y="363.74" width="6.7" height="6.69" transform="translate(-186.04 -157.62) rotate(-11.34)"/><rect class="cls-4" x="227.49" y="363.95" width="5.22" height="5.21" transform="translate(-185.66 -155.75) rotate(-11.33)"/><rect class="cls-2" x="235.15" y="361.74" width="5.22" height="5.21" transform="translate(-185.07 -154.29) rotate(-11.33)"/><rect class="cls-8" x="225.72" y="355.18" width="5.22" height="5.21" transform="translate(-183.97 -156.27) rotate(-11.33)"/><rect class="cls-5" x="233.93" y="355.83" width="3.67" height="3.66" transform="translate(-183.75 -154.87) rotate(-11.32)"/><rect class="cls-3" x="226.88" y="348.5" width="3.67" height="3.66" transform="translate(-182.59 -156.25) rotate(-11.34)"/><polygon class="cls-6" points="83.31 147.73 86.77 140.15 79.17 136.69 75.7 144.28 83.31 147.73"/><polygon class="cls-4" points="94.07 151.04 96.85 144.95 90.75 142.18 87.97 148.26 94.07 151.04"/><polygon class="cls-8" points="88.87 136.24 91.65 130.16 85.55 127.38 82.77 133.47 88.87 136.24"/><rect class="cls-6" x="211.12" y="342.67" width="5.21" height="5.22" transform="translate(-307.25 188.38) rotate(-65.48)"/><polygon class="cls-3" points="103.23 152.49 105.39 147.75 100.64 145.59 98.48 150.33 103.23 152.49"/><rect class="cls-2" x="208.51" y="328.99" width="5.21" height="5.22" transform="translate(-296.34 177.94) rotate(-65.48)"/><rect class="cls-7" x="218.63" y="345.34" width="5.21" height="5.22" transform="translate(-305.3 196.72) rotate(-65.48)"/><rect class="cls-4" x="214.82" y="334.52" width="5.21" height="5.22" transform="translate(-297.7 186.79) rotate(-65.46)"/><polygon class="cls-9" points="106.3 135.72 107.82 132.38 104.48 130.86 102.96 134.2 106.3 135.72"/><polygon class="cls-5" points="104.88 125.65 106.4 122.31 103.06 120.8 101.53 124.13 104.88 125.65"/><polygon class="cls-6" points="78.64 111.75 85.9 107.63 81.76 100.38 74.5 104.51 78.64 111.75"/><polygon class="cls-5" points="85.44 120.72 91.26 117.4 87.94 111.59 82.12 114.91 85.44 120.72"/><polygon class="cls-9" points="89.89 105.68 95.72 102.37 92.39 96.56 86.57 99.87 89.89 105.68"/><polygon class="cls-8" points="93.81 113.92 98.34 111.34 95.75 106.82 91.22 109.4 93.81 113.92"/><polygon class="cls-5" points="99.7 101.3 104.24 98.72 101.65 94.2 97.12 96.78 99.7 101.3"/><polygon class="cls-6" points="98.32 120.48 102.86 117.9 100.27 113.37 95.74 115.95 98.32 120.48"/><polygon class="cls-4" points="101.58 109.48 106.11 106.9 103.53 102.38 99 104.96 101.58 109.48"/><polygon class="cls-3" points="104.33 115.44 107.52 113.62 105.7 110.44 102.52 112.25 104.33 115.44"/><polygon class="cls-5" points="109.08 106.44 112.27 104.63 110.45 101.44 107.26 103.26 109.08 106.44"/><rect class="cls-5" x="214.53" y="280.06" width="8.34" height="8.35" transform="translate(-205.32 263.4) rotate(-83.9)"/><rect class="cls-3" x="214.7" y="292.85" width="6.69" height="6.7" transform="translate(-217.83 273.41) rotate(-83.89)"/><rect class="cls-6" x="227.13" y="283.26" width="6.69" height="6.7" transform="translate(-197.19 277.2) rotate(-83.89)"/><rect class="cls-4" x="225.39" y="293.63" width="5.21" height="5.22" transform="translate(-208.98 283.32) rotate(-83.89)"/><rect class="cls-8" x="237.58" y="286.84" width="5.21" height="5.22" transform="translate(-191.27 289.47) rotate(-83.91)"/><rect class="cls-6" x="225.21" y="301.58" width="5.21" height="5.22" transform="translate(-217.05 290.24) rotate(-83.89)"/><rect class="cls-5" x="234.3" y="294.57" width="5.21" height="5.22" transform="translate(-201.96 293.01) rotate(-83.89)"/><rect class="cls-9" x="232.96" y="302.46" width="3.66" height="3.67" transform="translate(-210.9 297.3) rotate(-83.89)"/><rect class="cls-3" x="242.09" y="297.94" width="3.66" height="3.67" transform="translate(-198.12 302.54) rotate(-83.93)"/><path class="cls-10" d="M281.32,336.15a17.44,17.44,0,0,0-3.31-1.43,19.73,19.73,0,0,0-9.12-.67,22,22,0,0,0-3.94,1l-.39.14a20.23,20.23,0,0,0-2.09.93c-.6.3-1.19.63-1.78,1a42.47,42.47,0,0,0-4,2.73,84.51,84.51,0,0,1-.41-21.19s0,0,.05,0c3.14,2,2.26,7.51,1.6,9.1,0,0,0,.05.06,0a9.77,9.77,0,0,0,1.2-11s0-.06,0,0a9.65,9.65,0,0,1,1.42,1.45,8.62,8.62,0,0,1,1.78,4.7,15,15,0,0,1,0,2.12c0,.17,0,.33,0,.48s0,0,0,0h0a9,9,0,0,0,0-8.27,10.52,10.52,0,0,0-1.78-2.44c-.22-.23-.46-.45-.71-.67,0,0,0-.07,0-.06l.69.2a7,7,0,0,1,1.78.94,7.36,7.36,0,0,1,2.48,3.35,8.56,8.56,0,0,1,.58,3.05,0,0,0,0,0,.06,0,7.67,7.67,0,0,0-.64-6.26,7.31,7.31,0,0,0-2.48-2.39,7.56,7.56,0,0,0-1.78-.8,5.93,5.93,0,0,0-.86-.19s0-.05,0-.06a8.45,8.45,0,0,1,.85,0,8.19,8.19,0,0,1,1.78.14,6.72,6.72,0,0,1,2.48,1,5.25,5.25,0,0,1,1.67,1.78s.06,0,.06,0a5,5,0,0,0-1.73-3.35,6.52,6.52,0,0,0-2.48-1.31,7.35,7.35,0,0,0-1.78-.25,5.57,5.57,0,0,0-2.23.4s0,0,0-.05a4.21,4.21,0,0,1,2.26-1.6,5.23,5.23,0,0,1,1.78-.21,4,4,0,0,1,1.46.34s.05,0,0,0a5.33,5.33,0,0,0-1.49-1.22,4.9,4.9,0,0,0-1.78-.58A4.47,4.47,0,0,0,256.4,309a0,0,0,0,1,0,0c-.21-.37-.41-.78-.6-1.21a14.47,14.47,0,0,1-1-3.24,0,0,0,0,0-.05,0,14.66,14.66,0,0,1-1,3.26,11,11,0,0,1-.59,1.19s0,0,0,0c-1.88-2.85-5.41-2.79-7.56-.33,0,0,0,.06,0,0a4.68,4.68,0,0,1,5.5,1.47s0,.06,0,.05a6.55,6.55,0,0,0-7.06,1.74,5,5,0,0,0-1.15,2.77s0,.05.06,0a5,5,0,0,1,1.09-1.34,7.24,7.24,0,0,1,5.68-1.52s0,.06,0,.06a7.55,7.55,0,0,0-5.69,4.55,8.13,8.13,0,0,0-.06,5.09s.06,0,.06,0v-.14c0-2.76,1.61-6.46,5.52-7.4,0,0,.05,0,0,.06A9.21,9.21,0,0,0,247,325.44s.07,0,.06,0c-.19-2.12-.34-5.9,3.17-8.75,0,0,.06,0,0,0a9.76,9.76,0,0,0,1.21,11s.07,0,.05,0c-.66-1.59-1.54-7.12,1.61-9.1a0,0,0,0,1,.05,0,85.49,85.49,0,0,1-.41,21.19,32.3,32.3,0,0,0-7.84-4.64l-1-.34a20.75,20.75,0,0,0-7.41-1.05,19.16,19.16,0,0,0-7.64,1.93c-.3.15-.55.29-.75.4a.07.07,0,0,0,.07.13l.68-.2a21.31,21.31,0,0,1,7.64-.75,22.85,22.85,0,0,1,7.41,2,39,39,0,0,1,8.82,5.74c-3.74,3.25-6.9,6.42-8.82,7.53l-.28.16a2.06,2.06,0,0,0-2.13-.8,2,2,0,0,0-1.55,1.53,2,2,0,0,0,.4,1.77,3,3,0,0,0,3.56.52c2.59-1.08,5.81-4.51,9.76-8.12.33-.31.66-.61,1-.91l1,.9c1.8,1.64,3.44,3.24,4.94,4.6.61.56,1.21,1.08,1.78,1.54a15.13,15.13,0,0,0,2.48,1.72c1.51.8,2.82.9,3.94-.08a1.54,1.54,0,0,0,.19-.17,2.29,2.29,0,0,0,.4-1.77,2,2,0,0,0-.59-1,1.93,1.93,0,0,0-1-.52,2.06,2.06,0,0,0-2.13.8,8.92,8.92,0,0,1-.85-.52,29.85,29.85,0,0,1-2.48-2c-.56-.49-1.16-1-1.78-1.6-1.22-1.11-2.56-2.33-4-3.57,1.27-1.05,2.59-2.07,4-3,.58-.4,1.17-.78,1.78-1.14.8-.48,1.63-.92,2.48-1.33a26,26,0,0,1,3.94-1.51,20.94,20.94,0,0,1,9.12-.56,24,24,0,0,1,3.24.76.07.07,0,0,0,.07-.13" transform="translate(-118.15 -208.08)"/><rect class="cls-1" x="19.4" y="218.88" width="2.46" height="2.46"/><path class="cls-1" d="M303.17,424.12V407.89h-2.4v13.84h-9V407.89h-2.39v13.84H279.8V407.89H276a12.7,12.7,0,0,0-4.07.61,9.54,9.54,0,0,0-3.12,1.7,7.59,7.59,0,0,0-2,2.59,7.47,7.47,0,0,0-.7,3.23,7.71,7.71,0,0,0,.81,3.65,7.25,7.25,0,0,0,2.15,2.51,9.13,9.13,0,0,0,3.15,1.46,14.59,14.59,0,0,0,3.77.48Zm-30.67-2.78a6.11,6.11,0,0,1-2.06-1.12,5.34,5.34,0,0,1-1.4-1.79,5.53,5.53,0,0,1-.51-2.41,5,5,0,0,1,.56-2.35,5.9,5.9,0,0,1,1.47-1.82,6.54,6.54,0,0,1,2.08-1.17,7.27,7.27,0,0,1,2.39-.4h2.37v11.45H275A8.07,8.07,0,0,1,272.5,421.34Z" transform="translate(-118.15 -208.08)"/><rect class="cls-1" x="133.75" y="194.57" width="2.4" height="21.46"/><rect class="cls-1" x="159.18" y="194.57" width="2.46" height="2.46"/><rect class="cls-1" x="182.59" y="218.85" width="2.46" height="2.46"/><rect class="cls-1" x="23.59" y="218.88" width="2.46" height="2.46"/><path class="cls-1" d="M242.52,421.73H238.6a7.48,7.48,0,0,1-3.3-.6,4.41,4.41,0,0,1-1.89-1.79,10.34,10.34,0,0,0,.21-2.24v-7.72h-2.4v8.1a4.83,4.83,0,0,1-1.1,3.31,4.27,4.27,0,0,1-3.36,1.24,5.37,5.37,0,0,1-1.92-.33,4.69,4.69,0,0,1-1.5-.9,4.32,4.32,0,0,1-1-1.33,4.1,4.1,0,0,1-.38-1.63v-8.46h-2.4v8.28a4.71,4.71,0,0,1-.33,1.87,3.45,3.45,0,0,1-.9,1.26,3.57,3.57,0,0,1-1.29.72,5.1,5.1,0,0,1-1.53.22h-4.64V409.38h-2.4v12.35H195.9l4.19-10a21.06,21.06,0,0,0-2-1.57,17.68,17.68,0,0,0-2.22-1.28,13,13,0,0,0-2.31-.87,8.83,8.83,0,0,0-2.3-.31,9,9,0,0,0-2.34.31,14.13,14.13,0,0,0-2.32.85,14.56,14.56,0,0,0-2.22,1.29,20.92,20.92,0,0,0-2,1.58l4.22,10h-8.3V407.89h-3.83a12.38,12.38,0,0,0-4,.62,9.92,9.92,0,0,0-3.13,1.72,7.72,7.72,0,0,0-2,2.6,7.53,7.53,0,0,0-.72,3.28,7.69,7.69,0,0,0,.79,3.63,6.91,6.91,0,0,0,2.16,2.48,9.43,9.43,0,0,0,3.16,1.44,15.18,15.18,0,0,0,3.81.46h1.43v.69a3.16,3.16,0,0,1-1.07,2.69,5,5,0,0,1-3,.81,8.62,8.62,0,0,1-2-.21,11.34,11.34,0,0,1-2-.72l-.75,2.3a21.32,21.32,0,0,0,2.44.77,9.13,9.13,0,0,0,2.14.25c2.34,0,4-.55,5.09-1.66a6.17,6.17,0,0,0,1.59-4.47v-.45h37.24a6.47,6.47,0,0,0,3.11-.74,6.25,6.25,0,0,0,2.2-2,6.15,6.15,0,0,0,2.36,2.25,7.53,7.53,0,0,0,3.57.8,8.2,8.2,0,0,0,3.67-.75,5.07,5.07,0,0,0,2.32-2.3,6.6,6.6,0,0,0,.74,1,4.05,4.05,0,0,0,1.12.88,6.54,6.54,0,0,0,1.66.63,8,8,0,0,0,1.73.21v0h6.92V402.66h-2.4Zm-66.64,0h-2.42a8.28,8.28,0,0,1-2.53-.37,6.6,6.6,0,0,1-2.09-1.09,4.94,4.94,0,0,1-1.4-1.77,5.38,5.38,0,0,1-.51-2.39,5.1,5.1,0,0,1,.55-2.37,5.82,5.82,0,0,1,1.47-1.83,6.57,6.57,0,0,1,2.08-1.18,7.14,7.14,0,0,1,2.43-.42h2.42Zm13.22,0-3.75-9.18a9.31,9.31,0,0,1,2.84-1.7,8.56,8.56,0,0,1,6.24.1,9.6,9.6,0,0,1,2.7,1.6l-3.75,9.18Z" transform="translate(-118.15 -208.08)"/><rect class="cls-1" x="11.19" y="194.57" width="2.46" height="2.46"/><rect class="cls-1" x="253.62" y="194.57" width="2.46" height="2.46"/><rect class="cls-1" x="232.39" y="194.57" width="2.4" height="21.46"/><rect class="cls-1" x="154.98" y="194.57" width="2.46" height="2.46"/><path class="cls-1" d="M160.72,414.7a9,9,0,0,0-.37-2.63A5.58,5.58,0,0,0,159.2,410a6.43,6.43,0,0,0-2.15-1.57,7.11,7.11,0,0,0-2.89-.52h-1.77v2.39h2.1a3.76,3.76,0,0,1,1.65.37,3.85,3.85,0,0,1,1.29,1,3.61,3.61,0,0,1,.7,1.38,7.13,7.13,0,0,1,.2,1.79v6.94H147.09v2.39h13.63Z" transform="translate(-118.15 -208.08)"/><rect class="cls-1" x="359.2" y="194.57" width="2.4" height="21.46"/><rect class="cls-1" x="257.82" y="194.57" width="2.46" height="2.46"/><path class="cls-1" d="M470.36,402.66H468v19.07h-8.24a8.41,8.41,0,0,0,.75-3.53,8.81,8.81,0,0,0-.68-3.45,8.41,8.41,0,0,0-4.61-4.61,8.82,8.82,0,0,0-3.46-.67,8.21,8.21,0,0,0-3.36.69,8.59,8.59,0,0,0-4.52,4.63,8.82,8.82,0,0,0-.66,3.41,8.51,8.51,0,0,0,.19,1.84,10.39,10.39,0,0,0,.53,1.69h-7.43a8.4,8.4,0,0,0,.74-3.53,8.8,8.8,0,0,0-.67-3.45,8.41,8.41,0,0,0-4.61-4.61,8.85,8.85,0,0,0-3.46-.67,8.21,8.21,0,0,0-3.36.69,8.59,8.59,0,0,0-4.52,4.63,8.82,8.82,0,0,0-.66,3.41,8.51,8.51,0,0,0,.19,1.84,10.39,10.39,0,0,0,.53,1.69h-7.61V402.66h-2.4v19.07H403v-3.66a9.37,9.37,0,0,0-.36-2.62,5.31,5.31,0,0,0-1.14-2.11,6.1,6.1,0,0,0-2.1-1.55,7.39,7.39,0,0,0-3-.51H385.84l4.51-8.62h-2.6l-4.61,8.59a5.07,5.07,0,0,0,.38,1.34,4.24,4.24,0,0,0,.7,1.08h12.23a4.87,4.87,0,0,1,2,.35,3.34,3.34,0,0,1,1.33.94,3.18,3.18,0,0,1,.69,1.37,7.75,7.75,0,0,1,.18,1.74v3.66H378.44V407.89h-3.78a12.74,12.74,0,0,0-4.07.61,9.54,9.54,0,0,0-3.12,1.7,7.59,7.59,0,0,0-2,2.59,7.47,7.47,0,0,0-.7,3.23,7.71,7.71,0,0,0,.81,3.65,7.47,7.47,0,0,0,2.15,2.51,9.13,9.13,0,0,0,3.15,1.46,14.59,14.59,0,0,0,3.77.48h47.55a8.68,8.68,0,0,0,2.78,2,8.24,8.24,0,0,0,3.49.74,8.94,8.94,0,0,0,3.58-.72,8.42,8.42,0,0,0,2.86-2h10.54a8.68,8.68,0,0,0,2.78,2,8.24,8.24,0,0,0,3.49.74,8.91,8.91,0,0,0,3.58-.72,8.42,8.42,0,0,0,2.86-2h12.19ZM376,421.73h-2.36a8.09,8.09,0,0,1-2.54-.39,6.31,6.31,0,0,1-2.06-1.12,5.34,5.34,0,0,1-1.4-1.79,5.53,5.53,0,0,1-.51-2.41,5,5,0,0,1,.56-2.35,5.9,5.9,0,0,1,1.47-1.82,6.54,6.54,0,0,1,2.08-1.17,7.28,7.28,0,0,1,2.4-.4H376Zm58.29-1.06a6,6,0,0,1-1.35,2,5.91,5.91,0,0,1-2,1.3,6.62,6.62,0,0,1-2.5.46,5.94,5.94,0,0,1-2.44-.49,6.08,6.08,0,0,1-2-1.35,6.21,6.21,0,0,1-1.29-2,6.29,6.29,0,0,1-.47-2.42,6.46,6.46,0,0,1,.47-2.44,6.38,6.38,0,0,1,1.27-2,6.07,6.07,0,0,1,1.93-1.36,6,6,0,0,1,2.48-.51,6.55,6.55,0,0,1,2.53.48,6.25,6.25,0,0,1,2,1.31,5.92,5.92,0,0,1,1.34,2,6.52,6.52,0,0,1,.48,2.53A6.27,6.27,0,0,1,434.33,420.67Zm23.25,0a6,6,0,0,1-1.34,2,6.06,6.06,0,0,1-2,1.3,6.62,6.62,0,0,1-2.5.46,5.94,5.94,0,0,1-2.44-.49,6.08,6.08,0,0,1-2-1.35,6.21,6.21,0,0,1-1.29-2,6.29,6.29,0,0,1-.47-2.42,6.46,6.46,0,0,1,.47-2.44,6.38,6.38,0,0,1,1.27-2,6.11,6.11,0,0,1,1.94-1.36,5.87,5.87,0,0,1,2.47-.51,6.55,6.55,0,0,1,2.53.48,6.41,6.41,0,0,1,2,1.31,6,6,0,0,1,1.33,2,6.52,6.52,0,0,1,.48,2.53A6.27,6.27,0,0,1,457.58,420.67Z" transform="translate(-118.15 -208.08)"/><path class="cls-1" d="M124.26,423.64a14.59,14.59,0,0,0,3.77.48h15.7V407.89h-2.39v13.84h-9.53V407.89H128a12.74,12.74,0,0,0-4.07.61,9.54,9.54,0,0,0-3.12,1.7,7.72,7.72,0,0,0-2,2.59,7.47,7.47,0,0,0-.7,3.23,7.71,7.71,0,0,0,.81,3.65,7.36,7.36,0,0,0,2.15,2.51A9.13,9.13,0,0,0,124.26,423.64ZM120.54,416a5,5,0,0,1,.56-2.35,5.9,5.9,0,0,1,1.47-1.82,6.54,6.54,0,0,1,2.08-1.17,7.28,7.28,0,0,1,2.4-.4h2.36v11.45h-2.36a8.09,8.09,0,0,1-2.54-.39,6.21,6.21,0,0,1-2.06-1.12,5.34,5.34,0,0,1-1.4-1.79A5.53,5.53,0,0,1,120.54,416Z" transform="translate(-118.15 -208.08)"/><rect class="cls-1" x="173.83" y="218.88" width="2.46" height="2.46"/><rect class="cls-1" x="169.63" y="218.88" width="2.46" height="2.46"/><path class="cls-1" d="M312.5,427.16a12.91,12.91,0,0,0,.23-2.53v-.51h30.83V402.66h-2.4v19.07H331l4.2-10a21.2,21.2,0,0,0-2-1.57,17.68,17.68,0,0,0-2.22-1.28,13.18,13.18,0,0,0-2.3-.87,8.85,8.85,0,0,0-2.31-.31A9,9,0,0,0,324,408a14.13,14.13,0,0,0-2.32.85,14.56,14.56,0,0,0-2.22,1.29,20.92,20.92,0,0,0-2,1.58l4.22,10h-8.92V407.89h-2.4v16.74a12,12,0,0,1-.1,1.72,3.4,3.4,0,0,1-.36,1.14,1.5,1.5,0,0,1-.7.62,2.71,2.71,0,0,1-1.12.2,3.65,3.65,0,0,1-1.23-.18l-.62,2.3a7.26,7.26,0,0,0,1.94.27,5.11,5.11,0,0,0,2.18-.42,3.55,3.55,0,0,0,1.42-1.21A5.14,5.14,0,0,0,312.5,427.16Zm7.93-14.61a9.16,9.16,0,0,1,2.83-1.7,8.56,8.56,0,0,1,6.24.1,9.6,9.6,0,0,1,2.7,1.6l-3.74,9.18h-4.29Z" transform="translate(-118.15 -208.08)"/><rect class="cls-1" x="6.99" y="194.57" width="2.46" height="2.46"/><polygon class="cls-1" points="17.19 231.76 13.5 231.76 5.36 240.35 5.36 231.76 2.35 231.76 2.35 248.84 5.36 248.84 5.36 243.89 8.02 241.16 13.87 248.84 17.51 248.84 10.08 239.11 17.19 231.76"/><rect class="cls-1" x="20.25" y="231.76" width="3.01" height="17.09"/><polygon class="cls-1" points="39.85 243.57 30.68 231.76 27.9 231.76 27.9 248.84 30.86 248.84 30.86 236.69 40.3 248.84 42.81 248.84 42.81 231.76 39.85 231.76 39.85 243.57"/><path class="cls-1" d="M173.42,450h4.38v3.19a7,7,0,0,1-4.14,1.3c-3.5,0-5.82-2.59-5.82-6.1v-.05a5.79,5.79,0,0,1,5.55-6,6.73,6.73,0,0,1,4.8,1.83l1.9-2.27a9.24,9.24,0,0,0-6.58-2.32,8.71,8.71,0,0,0-8.82,8.84v0a8.49,8.49,0,0,0,8.87,8.79,10.94,10.94,0,0,0,7.15-2.66v-7.17h-7.29Z" transform="translate(-118.15 -208.08)"/><path class="cls-1" d="M191.24,439.84h-6.38v17.09h6.38c5.38,0,9.1-3.74,9.1-8.55v0C200.34,443.53,196.62,439.84,191.24,439.84Zm5.95,8.59a5.57,5.57,0,0,1-5.95,5.76h-3.37V442.58h3.37a5.61,5.61,0,0,1,5.95,5.8Z" transform="translate(-118.15 -208.08)"/><path class="cls-1" d="M212.14,439.55a8.77,8.77,0,0,0-9,8.84v0a9,9,0,0,0,17.9,0v-.05A8.68,8.68,0,0,0,212.14,439.55Zm5.77,8.88a5.78,5.78,0,0,1-5.77,6,5.85,5.85,0,0,1-5.82-6.07v-.05a5.78,5.78,0,0,1,5.77-6,5.86,5.86,0,0,1,5.82,6.08Z" transform="translate(-118.15 -208.08)"/><polygon class="cls-1" points="115.07 239.84 109.86 231.76 106.66 231.76 106.66 248.84 109.61 248.84 109.61 236.64 114.97 244.65 115.07 244.65 120.47 236.59 120.47 248.84 123.48 248.84 123.48 231.76 120.28 231.76 115.07 239.84"/><path class="cls-1" d="M261.59,439.55a8.76,8.76,0,0,0-9,8.84v0a9,9,0,0,0,17.9,0v-.05A8.68,8.68,0,0,0,261.59,439.55Zm5.77,8.88a5.78,5.78,0,0,1-5.77,6,5.85,5.85,0,0,1-5.82-6.07v-.05a5.78,5.78,0,0,1,5.77-6,5.86,5.86,0,0,1,5.82,6.08Z" transform="translate(-118.15 -208.08)"/><polygon class="cls-1" points="156.11 248.84 159.12 248.84 159.12 241.89 167.75 241.89 167.75 239.15 159.12 239.15 159.12 234.49 168.85 234.49 168.85 231.76 156.11 231.76 156.11 248.84"/><path class="cls-1" d="M304.25,447c-3.28-.78-4.06-1.37-4.06-2.69v0c0-1.13,1-2,2.79-2a7.76,7.76,0,0,1,4.64,1.76l1.62-2.27A9.52,9.52,0,0,0,303,439.6c-3.4,0-5.85,2-5.85,4.95v.05c0,3.15,2.05,4.23,5.7,5.1,3.18.74,3.86,1.39,3.86,2.62v0c0,1.3-1.17,2.15-3,2.15a7.88,7.88,0,0,1-5.41-2.22l-1.8,2.15a10.54,10.54,0,0,0,7.14,2.73c3.59,0,6.11-1.9,6.11-5.1V452C309.75,449.19,307.87,447.9,304.25,447Z" transform="translate(-118.15 -208.08)"/><path class="cls-1" d="M319,439.72l-7.53,17.21h3.08l1.76-4.13h8.1l1.73,4.13h3.18l-7.53-17.21Zm-1.59,10.42,2.94-6.83,3,6.83Z" transform="translate(-118.15 -208.08)"/><path class="cls-1" d="M342.7,449.68c0,3.15-1.64,4.76-4.3,4.76s-4.33-1.71-4.33-4.88v-9.72h-3v9.84c0,4.95,2.84,7.52,7.29,7.52s7.36-2.57,7.36-7.67v-9.69h-3Z" transform="translate(-118.15 -208.08)"/><path class="cls-1" d="M356.5,439.84h-6.39v17.09h6.39c5.38,0,9.1-3.74,9.1-8.55v0C365.6,443.53,361.88,439.84,356.5,439.84Zm5.94,8.59a5.57,5.57,0,0,1-5.94,5.76h-3.38V442.58h3.38a5.61,5.61,0,0,1,5.94,5.8Z" transform="translate(-118.15 -208.08)"/><rect class="cls-1" x="251.26" y="231.76" width="3.01" height="17.09"/><path class="cls-1" d="M390.39,439.72l-7.53,17.21h3.08l1.76-4.13h8.1l1.73,4.13h3.18l-7.53-17.21Zm-1.59,10.42,2.94-6.83,3,6.83Z" transform="translate(-118.15 -208.08)"/><path class="cls-1" d="M417.55,445.29v-.05a5.19,5.19,0,0,0-1.42-3.69,6.93,6.93,0,0,0-4.94-1.71h-7.63v17.09h3v-6h3.76l4.21,6h3.54l-4.62-6.47A5.13,5.13,0,0,0,417.55,445.29Zm-11,3v-5.73h4.37c2.23,0,3.55,1,3.55,2.83v0c0,1.73-1.37,2.85-3.52,2.85Z" transform="translate(-118.15 -208.08)"/><path class="cls-1" d="M427.83,439.72l-7.53,17.21h3.08l1.76-4.13h8.1l1.73,4.13h3.18l-7.53-17.21Zm-1.59,10.42,2.94-6.83,3,6.83Z" transform="translate(-118.15 -208.08)"/><path class="cls-1" d="M451.85,448a4.05,4.05,0,0,0,2.45-3.8v-.05a3.8,3.8,0,0,0-1.15-2.83,6.18,6.18,0,0,0-4.48-1.52H441v17.09h7.93c3.81,0,6.33-1.64,6.33-4.69v-.05C455.25,449.88,453.86,448.73,451.85,448ZM444,442.5h4.33c1.93,0,3,.83,3,2.17v.05c0,1.57-1.3,2.32-3.23,2.32H444Zm8.29,9.43c0,1.53-1.24,2.34-3.3,2.34h-5v-4.69h4.77c2.37,0,3.52.86,3.52,2.3Z" transform="translate(-118.15 -208.08)"/><rect class="cls-1" x="340.83" y="231.76" width="3.01" height="17.09"/><path class="cls-1" d="M475.18,439.72h-2.79l-7.53,17.21h3.08l1.76-4.13h8.1l1.73,4.13h3.18Zm-4.38,10.42,2.94-6.83,3,6.83Z" transform="translate(-118.15 -208.08)"/></svg>