<svg xmlns="http://www.w3.org/2000/svg" width="18.71" height="18.71" viewBox="0 0 18.71 18.71">
  <path id="User-icon" d="M100.152,1104.569a9.355,9.355,0,1,0,9.354,9.355A9.367,9.367,0,0,0,100.152,1104.569Zm-5.042,16h.006a5.035,5.035,0,0,1,10.071,0h.006a8.294,8.294,0,0,1-10.083,0Zm11.015-.817a6.044,6.044,0,0,0-3.86-4.829,4.056,4.056,0,1,0-4.227,0,6.044,6.044,0,0,0-3.86,4.829,8.355,8.355,0,1,1,11.947,0Zm-5.973-5.218a3.055,3.055,0,1,1,3.055-3.056A3.06,3.06,0,0,1,100.152,1114.536Z" transform="translate(-90.796 -1104.569)" fill="#fff"/>
</svg>
