<svg id="download" xmlns="http://www.w3.org/2000/svg" width="43" height="43" viewBox="0 0 43 43">
  <g id="Ellipse_3" data-name="Ellipse 3" fill="#00a6be" stroke="#00a6be" stroke-width="1">
    <circle cx="21.5" cy="21.5" r="21.5" stroke="none"/>
    <circle cx="21.5" cy="21.5" r="21" fill="none"/>
  </g>
  <path id="Icon_awesome-download" data-name="Icon awesome-download" d="M7.943,0h2.942a.88.88,0,0,1,.883.883V7.06h3.225a.734.734,0,0,1,.518,1.254l-5.593,5.6a.712.712,0,0,1-1,0l-5.6-5.6A.734.734,0,0,1,3.832,7.06H7.06V.883A.88.88,0,0,1,7.943,0ZM18.827,13.826v4.118a.88.88,0,0,1-.883.883H.883A.88.88,0,0,1,0,17.945V13.826a.88.88,0,0,1,.883-.883H6.277l1.8,1.8a1.884,1.884,0,0,0,2.67,0l1.8-1.8h5.394A.88.88,0,0,1,18.827,13.826Zm-4.56,3.236a.735.735,0,1,0-.735.735A.738.738,0,0,0,14.268,17.062Zm2.353,0a.735.735,0,1,0-.735.735A.738.738,0,0,0,16.621,17.062Z" transform="translate(12.5 12.5)" fill="none" stroke="#fff" stroke-width="1"/>
</svg>
