<svg id="like" xmlns="http://www.w3.org/2000/svg" width="43" height="43" viewBox="0 0 43 43">
  <g id="Ellipse_2" data-name="Ellipse 2" fill="#00a6be" stroke="#00a6be" stroke-width="1">
    <circle cx="21.5" cy="21.5" r="21.5" stroke="none"/>
    <circle cx="21.5" cy="21.5" r="21" fill="none"/>
  </g>
  <path id="Icon_awesome-thumbs-up" data-name="Icon awesome-thumbs-up" d="M4.027,8.674H.929A.929.929,0,0,0,0,9.6V18.9a.929.929,0,0,0,.929.929h3.1a.929.929,0,0,0,.929-.929V9.6A.929.929,0,0,0,4.027,8.674Zm-1.549,9.6a.929.929,0,1,1,.929-.929A.929.929,0,0,1,2.478,18.278ZM14.87,3.154c0,1.643-1.006,2.564-1.289,3.661h3.939a2.314,2.314,0,0,1,2.306,2.25,2.8,2.8,0,0,1-.753,1.905l0,0a3.235,3.235,0,0,1-.36,3.077,3.062,3.062,0,0,1-.634,2.895,2.056,2.056,0,0,1-.238,1.728c-.79,1.136-2.749,1.152-4.406,1.152h-.11A11.117,11.117,0,0,1,8.691,18.6a6.1,6.1,0,0,0-2.039-.626.465.465,0,0,1-.456-.465V9.229a.464.464,0,0,1,.138-.33c1.534-1.516,2.194-3.121,3.451-4.38a4.69,4.69,0,0,0,.983-2.281C10.94,1.522,11.3,0,12.082,0,13.012,0,14.87.31,14.87,3.154Z" transform="translate(11.586 11.5)" fill="none" stroke="#fff" stroke-width="1"/>
</svg>
