<svg baseProfile="tiny" xmlns="http://www.w3.org/2000/svg" width="28" height="28" viewBox="0 0 28 28"><path fill="#0286E0" d="M21.492 14.89c-.274 0-.499.224-.499.501v3.605c0 .75-.27.997-1 .997h-11.985c-.76 0-.999-.18-.999-.939v-9.39c.144-.874.848-1.551 1.728-1.658h7.74c.277 0 .5-.224.5-.5 0-.275-.223-.5-.5-.5h-7.741c-1.43.122-2.574 1.24-2.726 2.667v9.391c-.105.966.594 1.824 1.56 1.928.145.016.438 0 .438 0h11.985c1.022.003 1.907-.651 2-1.662v-3.952c-.007-.271-.228-.488-.501-.488zm-7.991 2.748c.276 0 .5-.225.5-.499v-3.639c.129-.832.824-1.458 1.667-1.497l4.565.006-1.213 1.072c-.22.21-.198.565-.046.739.151.175.556.175.774-.046l2.071-2.103c.037-.038.141-.137.141-.32 0-.186-.104-.281-.141-.32l-2.097-2.238c-.193-.195-.511-.197-.707-.002l-.003.002c-.195.241-.235.543-.039.784l1.393 1.422-4.7.002c-1.391.039-2.536 1.11-2.665 2.497v3.639c.002.276.225.501.5.501z"/></svg>