<svg xmlns="http://www.w3.org/2000/svg" width="102.815" height="102" viewBox="0 0 102.815 102">
                  <g id="_01" data-name="01" transform="translate(-0.953 -1.178)">
                    <path id="Path_286" data-name="Path 286" d="M58.6,12.088,56.884,10.1,39.673,25a4.76,4.76,0,0,0-5.684-.033l-3.606-3.528L41.64,10.127a4.768,4.768,0,0,0,6.89-2.864h5.833V4.636H48.53a4.771,4.771,0,1,0-8.753,3.637L28.5,19.6,18.358,9.677A4.772,4.772,0,1,0,9.64,9.47L1.014,17.178l1.751,1.96,8.52-7.612a4.753,4.753,0,0,0,5.334.127l10.031,9.814L21.19,26.952l-2.982-3.007a4.772,4.772,0,1,0-8.314.018L.953,33.051l1.874,1.844,8.939-9.088a4.762,4.762,0,0,0,4.576-.01l4.845,4.884L28.528,23.3l3.843,3.76a4.772,4.772,0,1,0,8.889.04ZM43.943,3.807A2.143,2.143,0,1,1,41.8,5.95,2.146,2.146,0,0,1,43.943,3.807ZM14.046,9.78a2.144,2.144,0,1,1,2.143-2.144A2.146,2.146,0,0,1,14.046,9.78Zm0,13.98a2.144,2.144,0,1,1,2.143-2.143A2.146,2.146,0,0,1,14.046,23.76Zm22.762,7.2a2.143,2.143,0,1,1,2.143-2.143A2.146,2.146,0,0,1,36.809,30.961Z" transform="translate(0 0)" fill="#bf9b2e"/>
                    <rect id="Rectangle_267" data-name="Rectangle 267" width="3.565" height="3.432" transform="translate(73.673 56.871)" fill="#bf9b2e"/>
                    <path id="Path_287" data-name="Path 287" d="M35.431,95.792A5.871,5.871,0,0,0,38.4,96.6h9.656V93.969H42.539l.72,1.823Z" transform="translate(-2.192 -5.9)" fill="#bf9b2e"/>
                    <path id="Path_288" data-name="Path 288" d="M98.894,38.879c-2.206-5.668-7.067-14.046-17.7-22.045a6.97,6.97,0,0,0,.333-1.07L83.3,7.784a5.4,5.4,0,0,0-.976-4.645,5.4,5.4,0,0,0-4.322-1.962H65.455A5.4,5.4,0,0,0,61.133,3.14a5.4,5.4,0,0,0-.976,4.645l1.775,7.981a6.869,6.869,0,0,0,.28.92,57.611,57.611,0,0,0-9.354,8.549c-5.283,6.011-8.652,12.5-9.913,19.012H37.916v-3.1a5.632,5.632,0,0,0-5.626-5.626H21.024A5.632,5.632,0,0,0,15.4,41.144v3.1H13.813a5.632,5.632,0,0,0-5.626,5.626v30.84a5.6,5.6,0,0,0,1.148,3.4H7.022L.5,100.632H52.537l-.017-.043h40.9l.086-.012a8.676,8.676,0,0,0,7.641-8.987c-.2-6.6,0-40.715.005-41.811A29.035,29.035,0,0,0,98.894,38.879ZM63.083,4.7a2.951,2.951,0,0,1,2.371-1.025H78.006A2.949,2.949,0,0,1,80.378,4.7a2.952,2.952,0,0,1,.486,2.538l-1.775,7.981a4.476,4.476,0,0,1-.3.869l-14.152-.066a4.406,4.406,0,0,1-.267-.8L62.6,7.243A2.948,2.948,0,0,1,63.083,4.7ZM42.322,84.114H39.915L37.1,76.987h5.2C42.309,79.472,42.315,81.87,42.322,84.114ZM42.306,64.5H31.319V57.006H42.332C42.319,59.442,42.31,61.958,42.306,64.5Zm0,2.5c0,2.518,0,5.034,0,7.489H36.113L34.38,70.1H31.318V67Zm-9.623,5.6,4.548,11.518H16.088L20.635,72.6Zm9.885-25.848q-.136,1.235-.172,2.467c-.018,1.683-.033,3.456-.045,5.292H31.318V49.874a3.129,3.129,0,0,1,3.126-3.126ZM17.9,41.145a3.129,3.129,0,0,1,3.126-3.126H32.291a3.129,3.129,0,0,1,3.126,3.126v3.1h-.973a5.618,5.618,0,0,0-4.376,2.1,5.618,5.618,0,0,0-4.376-2.1H17.9v-3.1Zm-7.211,8.728a3.129,3.129,0,0,1,3.126-3.126H25.692a3.129,3.129,0,0,1,3.126,3.126v4.633H10.687Zm0,7.134h18.13V64.5H10.687Zm0,9.99h18.13v3.1H18.935L17.2,74.485H10.687Zm0,9.99h5.526l-2.7,6.837a3.129,3.129,0,0,1-2.827-3.111ZM25.034,98.132H4.176L8.723,86.614H20.767l4.408,11.164ZM23.455,86.614h6.126l-3.064,7.759ZM28,98.132l-.14-.355L32.27,86.614H44.313l4.548,11.518H28Zm70.656-48.45,0,.059c0,.351-.211,35.21,0,41.928.161,5.252-4.71,6.3-5.413,6.421H51.532L49.9,93.957H94.935V80.9H92.92v-19.3l1.793-4.584L71.815,45.9,48.36,56.917l2.1,5.729V80.9H48.678v9.96l-2.664-6.745H44.822c-.033-10.521-.043-24.44.069-34.852.258-9.506,5.471-17.387,9.8-22.326a55.276,55.276,0,0,1,9.255-8.413l4.665.022L65.4,38.589l2.468.4,3.277-20.429,2.306.011,4.341,20.479,2.446-.518L76.007,18.579l3.374.016C89.7,26.264,94.388,34.261,96.508,39.643A27.068,27.068,0,0,1,98.658,49.682ZM52.484,60.9,51.5,58.206l20.3-9.538,19.747,9.583L90.51,60.9H52.484Zm37.937,2.5v17.92H82.989V63.4Zm-9.933,0v17.92H73.057V63.4Zm-9.932,0v17.92H62.985V63.4Zm-10.072,0v17.92H52.962V63.4Zm31.95,20.42v7.641H51.178V83.816Z" transform="translate(2.605 2.546)" fill="#bf9b2e"/>
                  </g>
                </svg>