<svg xmlns="http://www.w3.org/2000/svg" width="153" height="153"><defs><clipPath id="a"><path d="M0 0h153v153H0z"/></clipPath></defs><g data-name="Foreign company branch" clip-path="url(#a)"><g data-name="Group 962" transform="translate(-535.956 -2096.082)"><ellipse data-name="Ellipse 20" cx="77" cy="76.5" rx="77" ry="76.5" transform="translate(535.956 2096.082)" fill="#bf9b2e"/><g data-name="Group 960"><g data-name="Group 959" fill="none" stroke="#fff" stroke-linecap="round" stroke-miterlimit="10" stroke-width="1.5"><path data-name="Path 847" d="M578.026 2211.9H566.1v-9.524a9.355 9.355 0 0 1 9.355-9.356h2.072"/><path data-name="Line 243" d="M577.529 2203.023h-11.427"/><path data-name="Line 244" d="m619.264 2135.466-32.261 10.754"/><path data-name="Line 245" d="m619.264 2145.759-32.261 10.754"/><path data-name="Line 246" d="m619.264 2156.053-32.261 10.754"/><path data-name="Line 247" d="m619.264 2166.346-32.261 10.754"/><path data-name="Line 248" d="m614.291 2178.297-27.288 9.096"/><path data-name="Path 848" d="M594 2132.815v-6.942a2.873 2.873 0 0 0-2.873-2.873h0a2.872 2.872 0 0 0-2.872 2.873v8.857"/><path data-name="Path 849" d="M605.01 2212.049v-16.644a1.542 1.542 0 0 0-1.954-1.485l-14.153 3.932a1.541 1.541 0 0 0-1.129 1.485v12.712"/><path data-name="Line 249" d="M596.392 2195.771v16.128"/></g></g><path data-name="Path 850" d="M634 2165.625v-25.571a2.544 2.544 0 0 0-.745-1.8L619 2124l-39.33 14.389a2.544 2.544 0 0 0-1.67 2.389V2212h36.29" fill="none" stroke="#fff" stroke-linecap="round" stroke-miterlimit="10" stroke-width="1.5"/><path data-name="Line 250" fill="none" stroke="#fff" stroke-linecap="round" stroke-miterlimit="10" stroke-width="1.5" d="M619.372 2124.455V2170"/><g data-name="Group 887"><g data-name="Ellipse 46"><circle data-name="Ellipse 69" cx="23.921" cy="23.921" r="23.921" transform="translate(611.968 2170.161)" fill="#fff"/></g><g data-name="Group 967" fill="none" stroke="#bf9b2e" stroke-miterlimit="10" stroke-width="1.5"><path data-name="Path 851" d="M630.889 2204.293c-2.987.417-5 1.2-5 2.087 0 1.333 4.477 2.413 10 2.413s10-1.08 10-2.413c0-.892-2.014-1.67-5-2.087" stroke-linecap="round"/><g data-name="Group 500"><path data-name="Path 52" d="M636.059 2179.374a9.26 9.26 0 0 1 9.035 7.943 11.563 11.563 0 0 1-.525 5.036 36.532 36.532 0 0 1-3.724 8 68.379 68.379 0 0 1-4.461 6.6c-.365.48-.625.478-.976-.017a71.926 71.926 0 0 1-6.967-11.668 18.583 18.583 0 0 1-1.7-5.19 9.011 9.011 0 0 1 4.056-9.175 8.9 8.9 0 0 1 5.262-1.529Z"/><path data-name="Path 54" d="M635.871 2193.118a4.458 4.458 0 1 0-4.432-4.506 4.458 4.458 0 0 0 4.432 4.506Z"/></g></g></g></g></g></svg>