<svg xmlns="http://www.w3.org/2000/svg" width="91.436" height="101.298" viewBox="0 0 91.436 101.298">
                  <g id="_02" data-name="02" transform="translate(-2.095 -0.5)">
                    <path id="Path_289" data-name="Path 289" d="M109.056,49.064a16.739,16.739,0,0,0-6.343-4.344V42.232a6.439,6.439,0,0,0,1.943-4.613v-1.7a6.461,6.461,0,1,0-12.921,0v1.7a6.439,6.439,0,0,0,1.951,4.619V44.72a16.752,16.752,0,0,0-6.343,4.344l-.277.344V69.024l3.223,3.463L93.652,104.8h9.1l3.363-32.308,3.223-3.463V49.408Zm-2.233,18.974L103.7,71.393l-3.215,30.894H95.913L92.7,71.393l-3.121-3.355V50.314a16.2,16.2,0,0,1,5.769-3.544l.852-.289V43.762l.016,0V41.032a3.949,3.949,0,0,1-1.967-3.411v-1.7a3.951,3.951,0,0,1,7.9,0v1.7a3.95,3.95,0,0,1-1.963,3.409v2.736l.02-.005v2.722l.852.289a16.094,16.094,0,0,1,5.769,3.544V68.038Z" transform="translate(-15.802 -2.999)" fill="#bf9b2e"/>
                    <path id="Path_290" data-name="Path 290" d="M73.165,53.509v-1.9a6.439,6.439,0,0,0,1.943-4.613v-1.7a6.461,6.461,0,1,0-12.921,0v1.7a6.439,6.439,0,0,0,1.951,4.619v1.9a17,17,0,0,0-6.284,3.739l-.336.361V74.8L60.754,77.8l3.368,27.964h9.06L76.55,77.8,79.786,74.8V57.609l-.336-.361A17.008,17.008,0,0,0,73.165,53.509ZM77.276,73.7,74.168,76.59l-3.211,26.667h-4.61L63.136,76.59,60.028,73.7V58.623a17.126,17.126,0,0,1,5.718-3.006l.9-.264V53.135l.016,0V50.4A3.949,3.949,0,0,1,64.7,46.992v-1.7a3.951,3.951,0,1,1,7.9,0v1.7A3.95,3.95,0,0,1,70.637,50.4v2.736l.02-.005v2.219l.9.265a17.147,17.147,0,0,1,5.719,3.007V73.7Z" transform="translate(-10.307 -3.97)" fill="#bf9b2e"/>
                    <path id="Path_291" data-name="Path 291" d="M6.165,45.441,36,13.71,56.052,35,78.639,11v5.69a1.178,1.178,0,1,0,2.35,0V6.729h-9a1.258,1.258,0,0,0,0,2.51h4.977L56.052,31.458,35.995,10.171,4.507,43.664Z" transform="translate(-0.25 -0.645)" fill="#bf9b2e"/>
                    <path id="Path_292" data-name="Path 292" d="M3.525,18.543H8.789v5.264a1.255,1.255,0,1,0,2.51,0V18.543h5.264a1.255,1.255,0,0,0,0-2.51H11.3V10.769a1.255,1.255,0,1,0-2.51,0v5.264H3.525a1.255,1.255,0,0,0,0,2.51Z" transform="translate(-0.018 -0.934)" fill="#bf9b2e"/>
                    <path id="Path_293" data-name="Path 293" d="M58.772,9.528h5.264v5.264a1.255,1.255,0,1,0,2.51,0V9.528H71.81a1.255,1.255,0,0,0,0-2.51H66.546V1.755a1.255,1.255,0,1,0-2.51,0V7.019H58.772a1.255,1.255,0,1,0,0,2.509Z" transform="translate(-9.937)" fill="#bf9b2e"/>
                    <path id="Path_294" data-name="Path 294" d="M41.3,41.641a1.255,1.255,0,0,0,1.255-1.255V35.122h5.264a1.255,1.255,0,1,0,0-2.51H42.554V27.348a1.255,1.255,0,0,0-2.51,0v5.264H34.78a1.255,1.255,0,1,0,0,2.51h5.264v5.264A1.255,1.255,0,0,0,41.3,41.641Z" transform="translate(-5.635 -2.651)" fill="#bf9b2e"/>
                    <path id="Path_295" data-name="Path 295" d="M43.731,62.881v-1.9a6.439,6.439,0,0,0,1.943-4.613v-1.7a6.461,6.461,0,0,0-12.921,0v1.7A6.439,6.439,0,0,0,34.7,60.985v1.9A17.014,17.014,0,0,0,28.42,66.62l-.336.361V83.264l4.9,3.134,1.661,20.172h9.146L45.452,86.4l4.9-3.134V66.982l-.336-.361A17.038,17.038,0,0,0,43.731,62.881Zm4.11,19.008-4.79,3.063L41.479,104.06H36.955L35.382,84.952l-4.79-3.063V67.995a17.153,17.153,0,0,1,5.718-3.006l.9-.264V62.507l.016,0V59.776a3.949,3.949,0,0,1-1.967-3.411v-1.7a3.951,3.951,0,0,1,7.9,0v1.7A3.95,3.95,0,0,1,41.2,59.774V62.51l.02-.005v2.219l.9.265A17.147,17.147,0,0,1,47.84,68V81.889Z" transform="translate(-4.833 -4.941)" fill="#bf9b2e"/>
                    <path id="Path_296" data-name="Path 296" d="M16.278,74.081V71.889a6.439,6.439,0,0,0,1.943-4.614v-1.7a6.461,6.461,0,1,0-12.921,0v1.7A6.443,6.443,0,0,0,7.251,71.9v2.186a16.179,16.179,0,0,0-4.82,3.45l-.336.361V89.206l3.439,3.363,1.691,15.293h9.082L18,92.568l3.438-3.363V77.893l-.336-.361A16.163,16.163,0,0,0,16.278,74.081ZM18.926,88.15,15.6,91.4l-1.543,13.95H9.471L7.928,91.4,4.6,88.15V78.9a14.021,14.021,0,0,1,4.336-2.813l.82-.3V73.418l.016,0V70.687a3.95,3.95,0,0,1-1.967-3.412v-1.7a3.951,3.951,0,1,1,7.9,0v1.7a3.95,3.95,0,0,1-1.963,3.409V73.42l.02-.005v2.364l.82.3a13.838,13.838,0,0,1,4.336,2.813V88.15Z" transform="translate(0 -6.071)" fill="#bf9b2e"/>
                  </g>
                </svg>