<svg xmlns="http://www.w3.org/2000/svg" width="119.859" height="101.634" viewBox="0 0 119.859 101.634">
                  <g id="_03" data-name="03" transform="translate(-0.846 -17.357)">
                    <path id="Path_297" data-name="Path 297" d="M77.881,58.168A6.829,6.829,0,0,0,84.7,64.989h21.632a6.821,6.821,0,0,0,0-13.642H84.7A6.828,6.828,0,0,0,77.881,58.168Zm32.448,0a4,4,0,0,1-4,3.995H84.7a3.995,3.995,0,1,1,0-7.99h21.632A4,4,0,0,1,110.329,58.168Z" transform="translate(7.55 11.571)" fill="#bf9b2e"/>
                    <path id="Path_298" data-name="Path 298" d="M106.333,67.175H84.7a6.821,6.821,0,0,0,0,13.642h21.632a6.821,6.821,0,0,0,0-13.642Zm0,10.816H84.7A4,4,0,0,1,84.7,70h21.632a4,4,0,0,1,0,7.991Z" transform="translate(7.55 16.959)" fill="#bf9b2e"/>
                    <path id="Path_299" data-name="Path 299" d="M106.333,83H84.7a6.821,6.821,0,0,0,0,13.642h21.632a6.821,6.821,0,0,0,0-13.642Zm0,10.816H84.7a4,4,0,0,1,0-7.99h21.632a4,4,0,0,1,0,7.99Z" transform="translate(7.55 22.347)" fill="#bf9b2e"/>
                    <path id="Path_300" data-name="Path 300" d="M67.867,67.175H46.235a6.821,6.821,0,0,0,0,13.642H67.867a6.821,6.821,0,1,0,0-13.642Zm0,10.816H46.235a4,4,0,0,1,0-7.991H67.867a4,4,0,0,1,0,7.991Z" transform="translate(3.78 16.959)" fill="#bf9b2e"/>
                    <path id="Path_301" data-name="Path 301" d="M67.816,83H46.184a6.821,6.821,0,0,0,0,13.642H67.816a6.821,6.821,0,0,0,0-13.642Zm0,10.816H46.184a4,4,0,0,1,0-7.99H67.816a4,4,0,0,1,0,7.99Z" transform="translate(3.775 22.347)" fill="#bf9b2e"/>
                    <path id="Path_302" data-name="Path 302" d="M29.3,83H7.667a6.821,6.821,0,1,0,0,13.642H29.3A6.821,6.821,0,1,0,29.3,83Zm0,10.816H7.667a4,4,0,0,1,0-7.99H29.3a4,4,0,0,1,0,7.99Z" transform="translate(0 22.347)" fill="#bf9b2e"/>
                    <path id="Path_303" data-name="Path 303" d="M18.926,79.4a5.371,5.371,0,0,0,5.573-5.13,4.824,4.824,0,0,0-.953-2.866L51,41.325a5.987,5.987,0,0,0,4.943-.183l9,8.39a4.787,4.787,0,0,0-.718,2.514,5.592,5.592,0,0,0,11.146,0,4.784,4.784,0,0,0-.667-2.431L99.965,26.94a5.909,5.909,0,0,0,2.762.677,5.372,5.372,0,0,0,5.573-5.13,5.592,5.592,0,0,0-11.146,0,4.788,4.788,0,0,0,.667,2.432L72.566,47.592a5.977,5.977,0,0,0-5.434-.047l-9-8.39a4.787,4.787,0,0,0,.718-2.514,5.592,5.592,0,0,0-11.146,0,4.824,4.824,0,0,0,.953,2.866L21.2,69.588a5.953,5.953,0,0,0-2.271-.447,5.148,5.148,0,1,0,0,10.261Zm83.8-59.22a2.313,2.313,0,1,1-2.5,2.305A2.413,2.413,0,0,1,102.727,20.182ZM69.8,49.74a2.313,2.313,0,1,1-2.5,2.305A2.413,2.413,0,0,1,69.8,49.74Zm-16.532-15.4a2.313,2.313,0,1,1-2.5,2.305A2.413,2.413,0,0,1,53.272,34.336ZM18.926,71.967a2.313,2.313,0,1,1-2.5,2.305A2.413,2.413,0,0,1,18.926,71.967Z" fill="#bf9b2e"/>
                  </g>
                </svg>