<svg xmlns="http://www.w3.org/2000/svg" width="153" height="153"><defs><clipPath id="a"><path d="M0 0h153v153H0z"/></clipPath></defs><g data-name="Joint stock company" clip-path="url(#a)"><g data-name="Group 958" transform="translate(-966.956 -2100.082)"><ellipse data-name="Ellipse 20" cx="77" cy="76.5" rx="77" ry="76.5" transform="translate(966.956 2100.082)" fill="#bf9b2e"/><g data-name="Group 957"><g data-name="Group 955" fill="none" stroke="#fff" stroke-linecap="round" stroke-miterlimit="10" stroke-width="1.5"><path data-name="Path 843" d="M1009.026 2215.9H997.1v-9.524a9.355 9.355 0 0 1 9.355-9.356h2.072"/><path data-name="Line 232" d="M1008.529 2207.023h-11.427"/><path data-name="Line 233" d="m1050.264 2139.466-32.261 10.754"/><path data-name="Line 234" d="m1050.264 2149.759-32.261 10.754"/><path data-name="Line 235" d="m1050.264 2160.053-32.261 10.754"/><path data-name="Line 236" d="m1050.264 2170.346-32.261 10.754"/><path data-name="Line 237" d="m1045.291 2182.297-27.288 9.096"/><path data-name="Path 844" d="M1025 2136.815v-6.942a2.873 2.873 0 0 0-2.873-2.873h0a2.872 2.872 0 0 0-2.872 2.873v8.857"/><path data-name="Path 845" d="M1036.01 2216.049v-16.644a1.542 1.542 0 0 0-1.954-1.485l-14.153 3.932a1.541 1.541 0 0 0-1.129 1.485v12.712"/><path data-name="Line 238" d="M1027.392 2199.771v16.128"/></g><g data-name="Group 887"><g data-name="Ellipse 46"><circle data-name="Ellipse 64" cx="23.921" cy="23.921" r="23.921" transform="translate(1042.968 2174.161)" fill="#fff"/></g></g><g data-name="Group 956" fill="none" stroke="#bf9b2e" stroke-miterlimit="10" stroke-width="1.5"><rect data-name="Rectangle 752" width="4.208" height="19.461" rx=".621" transform="translate(1074.812 2190.928)"/><rect data-name="Rectangle 753" width="4.208" height="11.211" rx=".621" transform="translate(1067.429 2199.178)"/><rect data-name="Rectangle 754" width="4.208" height="13.378" rx=".621" transform="translate(1060.062 2197.012)"/><rect data-name="Rectangle 755" width="4.208" height="6.064" rx=".621" transform="translate(1052.681 2204.325)"/><circle data-name="Ellipse 65" cx="1.944" cy="1.944" r="1.944" transform="translate(1052.841 2193.232)" stroke-linecap="round"/><circle data-name="Ellipse 66" cx="1.944" cy="1.944" r="1.944" transform="translate(1060.213 2185.348)" stroke-linecap="round"/><circle data-name="Ellipse 67" cx="1.944" cy="1.944" r="1.944" transform="translate(1067.568 2191.622)" stroke-linecap="round"/><circle data-name="Ellipse 68" cx="1.944" cy="1.944" r="1.944" transform="translate(1074.972 2183)" stroke-linecap="round"/><path data-name="Line 239" stroke-linecap="round" d="m1056.08 2193.729 4.712-5.053"/><path data-name="Line 240" stroke-linecap="round" d="m1063.701 2188.472 4.382 3.779"/><path data-name="Line 241" stroke-linecap="round" d="m1070.741 2192.059 4.906-5.643"/></g></g><path data-name="Path 846" d="M1065 2169.625v-25.571a2.544 2.544 0 0 0-.745-1.8L1050 2128l-39.33 14.389a2.544 2.544 0 0 0-1.67 2.389V2216h36.29" fill="none" stroke="#fff" stroke-linecap="round" stroke-miterlimit="10" stroke-width="1.5"/><path data-name="Line 242" fill="none" stroke="#fff" stroke-linecap="round" stroke-miterlimit="10" stroke-width="1.5" d="M1050.372 2128.455V2174"/></g></g></svg>