<svg xmlns="http://www.w3.org/2000/svg" width="153" height="153"><defs><clipPath id="a"><path d="M0 0h153v153H0z"/></clipPath></defs><g data-name="Limited liability company" clip-path="url(#a)"><g data-name="Group 948" transform="translate(-335.955 -2096.082)"><ellipse data-name="Ellipse 20" cx="77" cy="76.5" rx="77" ry="76.5" transform="translate(335.955 2096.082)" fill="#bf9b2e"/><g data-name="Group 943" fill="none" stroke="#fff" stroke-linecap="round" stroke-miterlimit="10" stroke-width="1.5"><path data-name="Path 823" d="M378.026 2211.9H366.1v-9.524a9.355 9.355 0 0 1 9.355-9.356h2.072"/><path data-name="Line 208" d="M377.529 2203.023h-11.427"/><path data-name="Line 209" d="m419.264 2135.466-32.261 10.754"/><path data-name="Line 210" d="m419.264 2145.759-32.261 10.754"/><path data-name="Line 211" d="m419.264 2156.053-32.261 10.754"/><path data-name="Line 212" d="m419.264 2166.346-32.261 10.754"/><path data-name="Line 213" d="m414.291 2178.297-27.288 9.096"/><path data-name="Path 824" d="M394 2132.815v-6.942a2.873 2.873 0 0 0-2.873-2.873h0a2.872 2.872 0 0 0-2.872 2.873v8.857"/><path data-name="Path 825" d="M405.01 2212.049v-16.644a1.542 1.542 0 0 0-1.954-1.485l-14.153 3.932a1.541 1.541 0 0 0-1.129 1.485v12.712"/><path data-name="Line 214" d="M396.392 2195.771v16.128"/></g><g data-name="Group 887"><g data-name="Ellipse 46"><circle data-name="Ellipse 56" cx="23.921" cy="23.921" r="23.921" transform="translate(411.968 2170.161)" fill="#fff"/></g></g><path data-name="Path 826" d="M434 2165.625v-25.571a2.544 2.544 0 0 0-.745-1.8L419 2124l-39.33 14.389a2.544 2.544 0 0 0-1.67 2.389V2212h36.29" fill="none" stroke="#fff" stroke-linecap="round" stroke-miterlimit="10" stroke-width="1.5"/><path data-name="Line 215" fill="none" stroke="#fff" stroke-linecap="round" stroke-miterlimit="10" stroke-width="1.5" d="M419.372 2124.455V2170"/><g data-name="Group 947" fill="none" stroke="#bf9b2e" stroke-linecap="round" stroke-miterlimit="10"><g data-name="Group 944"><circle data-name="Ellipse 57" cx="5.154" cy="5.154" r="5.154" transform="translate(430.735 2184.256)"/><path data-name="Path 827" d="M438.152 2194.564h-4.527a6.327 6.327 0 0 0-6.326 6.327v3.875h17.179v-3.875a6.327 6.327 0 0 0-6.326-6.327Z"/><path data-name="Path 828" d="m435.534 2194.822-1.665 1.21.771 2.374h2.5l.771-2.374-1.665-1.21a.6.6 0 0 0-.712 0Z"/><path data-name="Line 216" d="m433.819 2204.377.769-6.335"/><path data-name="Line 217" d="m438.024 2204.377-.769-6.335"/></g><g data-name="Group 945"><circle data-name="Ellipse 58" cx="4.188" cy="4.188" r="4.188" transform="translate(443.19 2183.397)"/><path data-name="Path 829" d="m447.023 2192.03-1.286.935.626 1.929h2.029l.626-1.929-1.286-.935a.6.6 0 0 0-.709 0Z"/><path data-name="Path 830" d="m446.321 2194.6-.625 5.147.286.316h8.375v-3.148a5.141 5.141 0 0 0-5.141-5.14h-3.678a5.131 5.131 0 0 0-1.589.25"/><path data-name="Line 218" d="m449.112 2199.745-.625-5.147"/></g><g data-name="Group 946"><circle data-name="Ellipse 59" cx="4.188" cy="4.188" r="4.188" transform="translate(420.212 2183.397)"/><path data-name="Path 831" d="m424.754 2192.03 1.287.935-.627 1.929h-2.028l-.627-1.929 1.286-.935a.6.6 0 0 1 .709 0Z"/><path data-name="Path 832" d="m425.456 2194.6.626 5.147-.286.316h-8.375v-3.148a5.14 5.14 0 0 1 5.14-5.14h3.678a5.127 5.127 0 0 1 1.589.25"/><path data-name="Line 219" d="m422.665 2199.745.625-5.147"/></g></g></g></g></svg>