<svg xmlns="http://www.w3.org/2000/svg" xmlns:xlink="http://www.w3.org/1999/xlink" width="150" height="150" viewBox="0 0 150 150">
  <defs>
    <filter id="Path_731" x="3" y="3" width="144" height="144" filterUnits="userSpaceOnUse">
      <feOffset input="SourceAlpha"/>
      <feGaussianBlur stdDeviation="5" result="blur"/>
      <feFlood flood-opacity="0.49"/>
      <feComposite operator="in" in2="blur"/>
      <feComposite in="SourceGraphic"/>
    </filter>
    <clipPath id="clip-play_button">
      <rect width="150" height="150"/>
    </clipPath>
  </defs>
  <g id="play_button" data-name="play button" clip-path="url(#clip-play_button)">
    <g id="Group_556" data-name="Group 556" transform="translate(-1208 -461)">
      <g transform="matrix(1, 0, 0, 1, 1208, 461)" filter="url(#Path_731)">
        <g id="Path_731-2" data-name="Path 731" transform="translate(18 18)" fill="#fff">
          <path d="M 57 113.5 C 49.37232971191406 113.5 41.97308731079102 112.006217956543 35.0078010559082 109.0601577758789 C 31.66005706787109 107.644172668457 28.43111419677734 105.8915557861328 25.41065788269043 103.8509826660156 C 22.41878509521484 101.8297119140625 19.6053295135498 99.50839996337891 17.04847145080566 96.95153045654297 C 14.49160003662109 94.39466857910156 12.17028617858887 91.58121490478516 10.14901447296143 88.58934020996094 C 8.108443260192871 85.56888580322266 6.355828762054443 82.33994293212891 4.939842700958252 78.99220275878906 C 1.993785738945007 72.02691650390625 0.5 64.62767028808594 0.5 57 C 0.5 49.37232971191406 1.993785738945007 41.97308731079102 4.939842700958252 35.0078010559082 C 6.355828762054443 31.66005706787109 8.108443260192871 28.43111419677734 10.14901447296143 25.41065788269043 C 12.17028617858887 22.41878509521484 14.49160003662109 19.6053295135498 17.04847145080566 17.04847145080566 C 19.6053295135498 14.49160003662109 22.41878509521484 12.17028617858887 25.41065788269043 10.14901447296143 C 28.43111419677734 8.108443260192871 31.66005706787109 6.355828762054443 35.0078010559082 4.939842700958252 C 41.97308731079102 1.993785738945007 49.37232971191406 0.5 57 0.5 C 64.62767028808594 0.5 72.02691650390625 1.993785738945007 78.99220275878906 4.939842700958252 C 82.33994293212891 6.355828762054443 85.56888580322266 8.108443260192871 88.58934020996094 10.14901447296143 C 91.58121490478516 12.17028617858887 94.39466857910156 14.49160003662109 96.95153045654297 17.04847145080566 C 99.50839996337891 19.6053295135498 101.8297119140625 22.41878509521484 103.8509826660156 25.41065788269043 C 105.8915557861328 28.43111419677734 107.644172668457 31.66005706787109 109.0601577758789 35.0078010559082 C 112.006217956543 41.97308731079102 113.5 49.37232971191406 113.5 57 C 113.5 64.62767028808594 112.006217956543 72.02691650390625 109.0601577758789 78.99220275878906 C 107.644172668457 82.33994293212891 105.8915557861328 85.56888580322266 103.8509826660156 88.58934020996094 C 101.8297119140625 91.58121490478516 99.50839996337891 94.39466857910156 96.95153045654297 96.95153045654297 C 94.39466857910156 99.50839996337891 91.58121490478516 101.8297119140625 88.58934020996094 103.8509826660156 C 85.56888580322266 105.8915557861328 82.33994293212891 107.644172668457 78.99220275878906 109.0601577758789 C 72.02691650390625 112.006217956543 64.62767028808594 113.5 57 113.5 Z" stroke="none"/>
          <path d="M 57 1 C 49.43959808349609 1 42.10589599609375 2.480491638183594 35.20258331298828 5.400352478027344 C 31.88456726074219 6.803756713867188 28.68426513671875 8.54083251953125 25.69056701660156 10.56332397460938 C 22.72504425048828 12.56678771972656 19.93638610839844 14.86766052246094 17.40201568603516 17.40201568603516 C 14.86766052246094 19.93638610839844 12.56678771972656 22.72504425048828 10.56332397460938 25.69056701660156 C 8.54083251953125 28.68426513671875 6.803756713867188 31.88456726074219 5.400352478027344 35.20258331298828 C 2.480491638183594 42.10589599609375 1 49.43959808349609 1 57 C 1 64.56039428710938 2.480491638183594 71.89410400390625 5.400352478027344 78.79741668701172 C 6.803756713867188 82.11543273925781 8.54083251953125 85.31573486328125 10.56332397460938 88.30943298339844 C 12.56678771972656 91.27495574951172 14.86766052246094 94.06361389160156 17.40201568603516 96.59798431396484 C 19.93638610839844 99.13233947753906 22.72504425048828 101.4332122802734 25.69056701660156 103.4366760253906 C 28.68426513671875 105.4591674804688 31.88456726074219 107.1962432861328 35.20258331298828 108.5996475219727 C 42.10589599609375 111.5195083618164 49.43959808349609 113 57 113 C 64.56039428710938 113 71.89410400390625 111.5195083618164 78.79741668701172 108.5996475219727 C 82.11543273925781 107.1962432861328 85.31573486328125 105.4591674804688 88.30943298339844 103.4366760253906 C 91.27495574951172 101.4332122802734 94.06361389160156 99.13233947753906 96.59798431396484 96.59798431396484 C 99.13233947753906 94.06361389160156 101.4332122802734 91.27495574951172 103.4366760253906 88.30943298339844 C 105.4591674804688 85.31573486328125 107.1962432861328 82.11543273925781 108.5996475219727 78.79741668701172 C 111.5195083618164 71.89410400390625 113 64.56039428710938 113 57 C 113 49.43959808349609 111.5195083618164 42.10589599609375 108.5996475219727 35.20258331298828 C 107.1962432861328 31.88456726074219 105.4591674804688 28.68426513671875 103.4366760253906 25.69056701660156 C 101.4332122802734 22.72504425048828 99.13233947753906 19.93638610839844 96.59798431396484 17.40201568603516 C 94.06361389160156 14.86766052246094 91.27495574951172 12.56678771972656 88.30943298339844 10.56332397460938 C 85.31573486328125 8.54083251953125 82.11543273925781 6.803756713867188 78.79741668701172 5.400352478027344 C 71.89410400390625 2.480491638183594 64.56039428710938 1 57 1 M 57 0 C 88.48023223876953 0 114 25.51976776123047 114 57 C 114 88.48023223876953 88.48023223876953 114 57 114 C 25.51976776123047 114 0 88.48023223876953 0 57 C 0 25.51976776123047 25.51976776123047 0 57 0 Z" stroke="none" fill="#fff"/>
        </g>
      </g>
      <path id="Polygon_2" data-name="Polygon 2" d="M20.5,0,41,36H0Z" transform="translate(1301 516) rotate(90)" fill="#00a6be"/>
    </g>
  </g>
</svg>
