<svg xmlns="http://www.w3.org/2000/svg" width="106" height="104.406" viewBox="0 0 106 104.406">
                  <path id="Union_9" data-name="Union 9" d="M-633,145.186V131.635l.018-.136a15.24,15.24,0,0,1,2.375-5.845,13.026,13.026,0,0,1,5.227-4.513q-.324-.273-.627-.575a10.171,10.171,0,0,1-3.024-7.261,10.17,10.17,0,0,1,3.024-7.26,10.285,10.285,0,0,1,7.3-3.008,10.443,10.443,0,0,1,2.557.316,10.329,10.329,0,0,1-.175-1.9A10.172,10.172,0,0,1-613.3,94.2a10.282,10.282,0,0,1,7.3-3.008,10.354,10.354,0,0,1,3.987.791,10.16,10.16,0,0,1-1.62-5.53,10.169,10.169,0,0,1,3.024-7.26,10.281,10.281,0,0,1,7.3-3.008,10.378,10.378,0,0,1,1.621.128,10.163,10.163,0,0,1,3.008-6.669,10.281,10.281,0,0,1,7.3-3.008,10.285,10.285,0,0,1,7.3,3.007,10.167,10.167,0,0,1,3.007,6.665,10.338,10.338,0,0,1,1.59-.123,10.282,10.282,0,0,1,7.3,3.008,10.172,10.172,0,0,1,3.024,7.26A10.159,10.159,0,0,1-560.794,92a10.354,10.354,0,0,1,4.032-.809,10.282,10.282,0,0,1,7.3,3.008,10.172,10.172,0,0,1,3.024,7.26,10.325,10.325,0,0,1-.225,2.148,10.385,10.385,0,0,1,3.4-.568,10.285,10.285,0,0,1,7.3,3.008,10.17,10.17,0,0,1,3.024,7.26,10.172,10.172,0,0,1-3.024,7.261c-.223.223-.455.433-.695.633a13.319,13.319,0,0,1,5.161,4.436,15.469,15.469,0,0,1,2.472,5.831l.024.153v13.568Zm81.206-17.436a11.551,11.551,0,0,0-1.792,4.19v9.3h20.616v-9.278a11.817,11.817,0,0,0-1.869-4.188,9.86,9.86,0,0,0-8.527-4.05C-547.089,123.72-549.925,125.076-551.793,127.751Zm-25.413,0A11.543,11.543,0,0,0-579,131.94v9.3h20.616v-9.278a11.824,11.824,0,0,0-1.869-4.188,9.859,9.859,0,0,0-8.527-4.05C-572.5,123.72-575.338,125.076-577.206,127.751Zm-24.7.113a11.5,11.5,0,0,0-1.715,4.074v9.3H-583v-9.278a11.818,11.818,0,0,0-1.869-4.188,9.859,9.859,0,0,0-8.527-4.05C-597.174,123.72-600.036,125.114-601.9,127.864Zm-25.413,0a11.5,11.5,0,0,0-1.715,4.074v9.3h20.616v-9.278a11.823,11.823,0,0,0-1.869-4.188,9.859,9.859,0,0,0-8.527-4.05C-622.587,123.72-625.449,125.114-627.315,127.864Zm68.964-14.558a10.171,10.171,0,0,1-3.024,7.261q-.335.334-.695.633a13.319,13.319,0,0,1,5.161,4.436,15.113,15.113,0,0,1,.891,1.45,14.61,14.61,0,0,1,.855-1.43,13.022,13.022,0,0,1,5.227-4.513q-.324-.273-.627-.575a10.171,10.171,0,0,1-3.024-7.261,10.31,10.31,0,0,1,.225-2.147,10.385,10.385,0,0,1-3.4.568,10.511,10.511,0,0,1-1.733-.143A10.34,10.34,0,0,1-558.351,113.306Zm-50.031,0a10.171,10.171,0,0,1-3.024,7.261q-.335.334-.695.633a13.317,13.317,0,0,1,5.161,4.436,15.089,15.089,0,0,1,.891,1.45,14.655,14.655,0,0,1,.855-1.43,13.027,13.027,0,0,1,5.228-4.513q-.324-.273-.627-.575a10.17,10.17,0,0,1-3.024-7.261,10.314,10.314,0,0,1,.174-1.9,10.44,10.44,0,0,1-2.557.316,10.445,10.445,0,0,1-2.557-.316A10.322,10.322,0,0,1-608.382,113.306Zm25.413,0a10.17,10.17,0,0,1-3.024,7.261q-.335.334-.695.633a13.317,13.317,0,0,1,5.161,4.436q.262.375.488.748.215-.363.462-.728a13.024,13.024,0,0,1,5.227-4.513q-.324-.273-.627-.575A10.171,10.171,0,0,1-579,113.306a10.333,10.333,0,0,1,.174-1.9,10.442,10.442,0,0,1-2.557.316,10.508,10.508,0,0,1-1.731-.143A10.337,10.337,0,0,1-582.968,113.306Zm33.353,0a6.344,6.344,0,0,0,6.353,6.319,6.344,6.344,0,0,0,6.354-6.319,6.343,6.343,0,0,0-6.354-6.318A6.343,6.343,0,0,0-549.615,113.306Zm-25.413,0a6.344,6.344,0,0,0,6.354,6.319,6.344,6.344,0,0,0,6.353-6.319,6.343,6.343,0,0,0-6.353-6.318A6.343,6.343,0,0,0-575.029,113.306Zm-24.617,0a6.344,6.344,0,0,0,6.354,6.319,6.344,6.344,0,0,0,6.353-6.319,6.343,6.343,0,0,0-6.353-6.318A6.343,6.343,0,0,0-599.646,113.306Zm-25.413,0a6.344,6.344,0,0,0,6.353,6.319,6.344,6.344,0,0,0,6.354-6.319,6.343,6.343,0,0,0-6.354-6.318A6.343,6.343,0,0,0-625.059,113.306Zm61.944-11.848a6.343,6.343,0,0,0,6.353,6.319,6.343,6.343,0,0,0,6.352-6.319,6.343,6.343,0,0,0-6.352-6.319A6.343,6.343,0,0,0-563.115,101.458Zm-24.619,0a6.343,6.343,0,0,0,6.353,6.319,6.343,6.343,0,0,0,6.353-6.319,6.344,6.344,0,0,0-6.353-6.319A6.344,6.344,0,0,0-587.734,101.458Zm-24.618,0A6.343,6.343,0,0,0-606,107.777a6.343,6.343,0,0,0,6.353-6.319A6.344,6.344,0,0,0-606,95.139,6.343,6.343,0,0,0-612.353,101.458Zm16.677,0a10.343,10.343,0,0,1-.175,1.9,10.445,10.445,0,0,1,2.558-.316,10.51,10.51,0,0,1,1.731.143,10.345,10.345,0,0,1-.144-1.723,10.162,10.162,0,0,1,1.4-5.179,10.411,10.411,0,0,1-3.009.441,10.355,10.355,0,0,1-3.987-.791A10.156,10.156,0,0,1-595.676,101.458Zm24.619,0a10.329,10.329,0,0,1-.175,1.9,10.443,10.443,0,0,1,2.557-.316,10.5,10.5,0,0,1,1.732.143,10.346,10.346,0,0,1-.144-1.723,10.156,10.156,0,0,1,1.633-5.548,10.352,10.352,0,0,1-4.031.809,10.416,10.416,0,0,1-2.971-.429A10.161,10.161,0,0,1-571.057,101.458Zm-1.362-20.613-2.466,1.28-.73,2.656a6.3,6.3,0,0,0-.224,1.671,6.343,6.343,0,0,0,6.353,6.319,6.343,6.343,0,0,0,6.353-6.319,6.342,6.342,0,0,0-6.353-6.318A6.312,6.312,0,0,0-572.418,80.845Zm-27.244,5.606a6.343,6.343,0,0,0,6.353,6.319,6.344,6.344,0,0,0,6.353-6.319,6.3,6.3,0,0,0-.228-1.685l-.729-2.627-2.434-1.279a6.311,6.311,0,0,0-2.963-.726A6.342,6.342,0,0,0-599.662,86.451Zm15.272,5.18a10.412,10.412,0,0,1,3.009-.441,10.415,10.415,0,0,1,2.97.429,10.138,10.138,0,0,1-1.381-4.572,10.414,10.414,0,0,1-3.211,0A10.142,10.142,0,0,1-584.39,91.631ZM-587.734,76.9a6.3,6.3,0,0,0,.228,1.686l.729,2.627,2.434,1.279a6.308,6.308,0,0,0,2.962.726,6.305,6.305,0,0,0,2.934-.712l2.465-1.28.73-2.656a6.277,6.277,0,0,0,.224-1.671,6.343,6.343,0,0,0-6.353-6.318A6.342,6.342,0,0,0-587.734,76.9Zm38.523,8.4V68.9l-4.439,4.28a1.994,1.994,0,0,1-2.808-.043,1.967,1.967,0,0,1,.021-2.77l.022-.022,9.332-9,9.068,9.018a1.967,1.967,0,0,1,0,2.793,1.993,1.993,0,0,1-2.807,0l-4.418-4.394V85.305a1.98,1.98,0,0,1-1.985,1.975A1.98,1.98,0,0,1-549.21,85.305Zm-69.09,0V68.9l-4.44,4.28a1.993,1.993,0,0,1-2.807-.043,1.968,1.968,0,0,1,.022-2.77l.022-.022,9.332-9,9.068,9.018a1.969,1.969,0,0,1,0,2.793,1.994,1.994,0,0,1-2.808,0l-4.418-4.394V85.305a1.98,1.98,0,0,1-1.985,1.975A1.98,1.98,0,0,1-618.3,85.305Zm34.141-23.441V50.732l-4.44,4.28a1.993,1.993,0,0,1-2.807-.043,1.967,1.967,0,0,1,.021-2.77l.022-.022,9.332-9,9.067,9.018a1.967,1.967,0,0,1,0,2.792,1.993,1.993,0,0,1-2.808,0l-4.418-4.394V61.865a1.98,1.98,0,0,1-1.985,1.975A1.98,1.98,0,0,1-584.16,61.865Z" transform="translate(634 -41.781)" fill="#bf9b2e" stroke="#fff" stroke-width="2"/>
                </svg>