<svg xmlns="http://www.w3.org/2000/svg" width="103.011" height="98.295" viewBox="0 0 103.011 98.295">
                  <path id="Union_4" data-name="Union 4" d="M-585.526,139.425c-.982-.288-1.952-.577-2.89-.858-6.564-1.961-12.233-3.654-17.39-3.442-3.975.164-7.018.123-8.753.069v4.819H-633V106.506h18.44V110.7c2.926-.159,8.741-.49,14.655-.906,6.467-.455,11.307-.9,14-1.289,5.4-.779,9.237-.263,11.406,1.533a4.723,4.723,0,0,1,1.785,3.435c.089,1.616-.518,3.96-3.913,5.954a20.336,20.336,0,0,1-3.9,1.7c3.455.99,7.279,1.826,9.5,1.553,4.877-.6,27.357-7.387,28.7-7.794a15.451,15.451,0,0,1,3.937-.88,8.493,8.493,0,0,1,3.57.4,5.526,5.526,0,0,1,3.16,2.851,5.977,5.977,0,0,1,.3,4.777c-.839,2.236-3.061,4.126-6.6,5.616-3.064,1.29-27.8,10.2-28.855,10.58a39.445,39.445,0,0,1-6.139,1.529,35.835,35.835,0,0,1-5.976.533A23.474,23.474,0,0,1-585.526,139.425Zm-1.837-4.457c.934.279,1.9.567,2.872.853,7.233,2.121,16.334-1.091,16.424-1.124.255-.091,25.7-9.255,28.672-10.508,2.452-1.033,4.114-2.3,4.558-3.484a2.162,2.162,0,0,0-.169-1.811c-.159-.332-.642-1.34-3.1-1.148a11.738,11.738,0,0,0-2.948.663l-.071.029-.074.022c-.98.3-24.069,7.289-29.384,7.944-2.411.3-6.134-.274-11.062-1.7-2.644-.763-4.908-1.562-5.951-1.943q-2.316.375-4.986.652a1.868,1.868,0,0,1-.191.01,1.865,1.865,0,0,1-1.845-1.685,1.872,1.872,0,0,1,1.659-2.058c8.531-.882,12.575-2.39,14.465-3.5.976-.573,2.127-1.472,2.07-2.5a1,1,0,0,0-.431-.741,5.125,5.125,0,0,0-2.591-.908,21.918,21.918,0,0,0-5.935.188c-2.817.406-7.616.85-14.264,1.317-6.074.427-12.044.764-14.913.92v16.981c1.645.053,4.669.1,8.6-.063q.523-.022,1.05-.021C-599.464,131.355-593.828,133.038-587.363,134.969Zm-41.923,1.293h11.011V112.7c0-.018,0-.035,0-.053v-2.391h-11.011Zm55.619-42.68a18.668,18.668,0,0,1,18.572-18.763,18.668,18.668,0,0,1,18.571,18.763,18.668,18.668,0,0,1-18.571,18.763A18.668,18.668,0,0,1-573.666,93.581Zm8.065-10.614a14.99,14.99,0,0,0-4.351,10.614,14.99,14.99,0,0,0,4.351,10.614,14.685,14.685,0,0,0,10.506,4.4,14.685,14.685,0,0,0,10.506-4.4,14.99,14.99,0,0,0,4.351-10.614,14.99,14.99,0,0,0-4.351-10.614,14.685,14.685,0,0,0-10.506-4.4A14.685,14.685,0,0,0-565.6,82.967ZM-629,102.584a1.888,1.888,0,0,1,.462-2.612l12.429-8.749h13.815l24.25-24.5h17.5l19.767-19.971h-6.717a1.867,1.867,0,0,1-1.858-1.877A1.867,1.867,0,0,1-547.495,43h13.058V55.42a1.867,1.867,0,0,1-1.858,1.877,1.867,1.867,0,0,1-1.857-1.877V49.406l-20.856,21.07h-17.5l-24.251,24.5H-614.94l-11.473,8.075a1.836,1.836,0,0,1-1.06.337A1.847,1.847,0,0,1-629,102.584Zm78.3-1.358c-2.366-1.006-2.078-1.142-1.366-.987s2.847.445,3.789-.329a19.654,19.654,0,0,0,2.135-2.244,2.216,2.216,0,0,0-.173-2.631,15.486,15.486,0,0,1-1.519-1.934.66.66,0,0,1,.154-.928c.519-.484,1.366.6,1.366.6l1.347,1.741a2.737,2.737,0,0,1,.442,2.747,8.014,8.014,0,0,1-2.424,3.365,3.094,3.094,0,0,1-2.231.931A3.863,3.863,0,0,1-550.7,101.226Zm-1.94-2.642h-.237l-.919.933-1.129-1.206s1.068-1.083,1.129-1.083.919,1,.919,1h.237l.971-.889,1.043,1.2-1.043.977Zm-11.655-.173c-1.943-.948-.856-3.1-.606-3.99s.674-1.547,1-1.528.346.561-.288,1.877a1.574,1.574,0,0,0,.539,2.205,7.444,7.444,0,0,0,3.789.135,2,2,0,0,0,1.6-2.554l-.5-3.946s-.5-3.134-.6-4.063.442-.735.442-.735,1.289,1.006,1.6,1.335-.769,1.432-.769,1.432.241,2.558.769,5.977-1.586,3.854-1.586,3.854a13.415,13.415,0,0,1-3.127.422A5.266,5.266,0,0,1-564.3,98.411Zm8.738-2.66c-.173-1.083-.635-4.643-.962-6.112a3.273,3.273,0,0,1,.366-2.631c.154-.135.807.929.9,2.5s.27,4.391.27,4.391a1,1,0,0,0,1.038,1.2h3.559a2.828,2.828,0,0,0-.384-1.78,1.75,1.75,0,0,1,0-1.992c.25-.29.923.774,1.058,1.664s.154,3.25.154,3.346V96.8h-5.012C-554.665,96.8-555.4,96.763-555.558,95.751Z" transform="translate(633.5 -42.5)" fill="#bf9b2e" stroke="#fff" stroke-width="1"/>
                </svg>