<svg xmlns="http://www.w3.org/2000/svg" xmlns:xlink="http://www.w3.org/1999/xlink" width="173.484" height="249.666" viewBox="0 0 173.484 249.666">
  <defs>
    <filter id="Path_846" x="104.445" y="67.022" width="66.267" height="57.684" filterUnits="userSpaceOnUse">
      <feOffset dy="10" input="SourceAlpha"/>
      <feGaussianBlur stdDeviation="4.5" result="blur"/>
      <feFlood flood-opacity="0.251"/>
      <feComposite operator="in" in2="blur"/>
      <feComposite in="SourceGraphic"/>
    </filter>
  </defs>
  <g id="riyadh_city-map-arabic" transform="translate(-156.171 -6343.167)">
    <path id="Path_845" data-name="Path 845" d="M3667.218,6055.833l-4.937-2.924-2.754-1.917-3.185-2.321-2.969-2.213-2.362-2.173-1.215-1.323-1.728-2.079-2.7-2.888-1.755-2-2.564-3.375-1.04-1.4-.4-1.08a5.451,5.451,0,0,0,0-.944,5.511,5.511,0,0,1,.189-1.108l.216-.863.567-1.4.891-2.106.81-1.782,1-1.835.641-1.458v-.863l-.216-.972-.7-1.161-.722-1.079-1.059-1.323-1.424-1.458-1.492-1.539-1.4-1.377-1.377-1.484-1.9-1.728-1.647-2.375-1.3-2.295-1.647-2.861-1.323-1.809s-.419-.506-.553-.641-.81-1.269-.81-1.269l-.756-.432-.675-.189-1.025-.432v-.351l-.162-.513v-.27l.162-.459h.243l.135-.243.4-.216.243-.189.432-.243s.379-.243.405-.432,0-1,0-1v-.947l.239-.383v-2.061l.26-2.2v-1.038l-.26-1.086-.044-1.278.265-1.41.249-.726s.186-.52.249-.624a8.407,8.407,0,0,0,.582-1c.062-.208.29-1.516.29-1.516a4.154,4.154,0,0,1,0-1.017,10.746,10.746,0,0,0,0-1.641l-.29-.914-.582-1.288a4.232,4.232,0,0,1-.249-.728c.021-.083,0-.768,0-.851s-.249-1.245-.249-1.245l.249-1.288v-1.225l-.249-1.371.249-1.8v-.686l-.109-1.079-.14-.706v-.436l-.338-.52h0l-1.537-.29-.328-.069h-.48l-.8.069h-.467l-1.535-.171H3616.1l-2.072-.785v-9.015l-.653-.771-1.364-1.067h-1.423l-2.313-.771h-9.46l-1.423-.623-1.483-1.482V5942.1l-1.423-2.906v-1.779l-.771-2.194-.534-1.9-.771-2.313-.831-2.669s.237-1.067,0-1.363-1.246-1.839-1.246-1.839l-1.245-1.6-.949-.889-1.78-.712-.652-1.453a5.137,5.137,0,0,1,0-1.66c.178-.237.89-1.6.652-1.839s0-2.017,0-2.017-.356-1.008,0-1.482a4.4,4.4,0,0,0,.356-2.017,3.932,3.932,0,0,1,0-1.186c.118-.474-.415-.771,0-1.6a5.556,5.556,0,0,0,.415-2.076,6.654,6.654,0,0,0,0-1.9c-.178-.356-.771-1.958-.771-1.958v-.949s0,.652.771-.89,1.008-2.075,1.008-2.075l.949-2.966,1.245-2.135a3,3,0,0,1,.475-1.127c.3-.3-.178-.771.771-.949a11.3,11.3,0,0,0,1.6-.415h1.3l.949.415h.474l1.068.949,1.3.578,1.779.549h2.194s1.126.016,1.661,0,1.957.016,2.372,0,2.135,0,2.135,0h1.364s.474.312.712,0,1.423.133,1.957,0a2.718,2.718,0,0,1,1.542,0,1.107,1.107,0,0,0,.771,0l1.3.4.534-.4s.178-.935.594-1.127a1.418,1.418,0,0,0,.593-.489s.771-.208.771-.46-.415-1.913-.415-1.913l-.949-1.424-.594-1.364v-1.008l.594-1.008,2.016-1.483,1.127-1.009a6.02,6.02,0,0,0,1.008-1.245,5.518,5.518,0,0,1,.889-1.186l1.186-.653,1.364-.474h3.2l2.075-.475s1.364.357,1.6,0,1.008-.534,1.423-.652,1.127-.534,1.661-.652a6.712,6.712,0,0,0,1.423-.653l1.127-1.364.593-1.661,2.135-2.729.949-1.779,1.483-1.72h5.368s1.66.222,2.372.4,2.609-.178,3.2,0a8.674,8.674,0,0,0,2.491,0,8.711,8.711,0,0,1,2.076-.4,8.453,8.453,0,0,0,1.957-.312h1.423l.771-.831v-1.008l-1.245-1.008a14.375,14.375,0,0,1-.3-1.542v-2.55a5.547,5.547,0,0,0,0-1.008,8.765,8.765,0,0,1,0-1.246v-1.779a7.825,7.825,0,0,1-1.008-1.009c-.178-.3-.786-2.535-.786-2.535l-.474-.949-1.6-2.017-2.669-2.312-1.483-1.839-.356-1.3a14.341,14.341,0,0,0,0-2.787,2.707,2.707,0,0,1,0-1.543c.119-.3.356-2.194.356-2.194l-.356-2.075a1.009,1.009,0,0,1,.356-1.186c.653-.475,1.483-1.009,1.483-1.009l1.186-.534a3.613,3.613,0,0,0,1.068-.711c.178-.3.534-1.068.771-1.364a20.879,20.879,0,0,1,2.506-1.483,3.151,3.151,0,0,1,1.008-1.067c.519-.236,1.884-.711,2.18-.831s1.245-.474,1.245-.474l1.038-2.312v-3.026l-1.038-1.066-.8-.357h-1.423l-1.2-.949-1.008-.652-1.26-.831-.682-.948s-.771-1.839-.563-2.135a8.94,8.94,0,0,0,.563-1.246,9.931,9.931,0,0,0,1.156-1.245,7.584,7.584,0,0,1,.786-1.008,5.875,5.875,0,0,0,.489-.593c.237-.356.326-1.067.519-1.3s-.4-.534.727-1.068a10.442,10.442,0,0,1,1.9-.711,1.054,1.054,0,0,1,.8.711c.148.594-.327,1.186,0,1.543a2.157,2.157,0,0,1,.445.83H3666l.415-.534a.989.989,0,0,0,.356-.771,5.338,5.338,0,0,0,0-1.068h.652s.119-1.066.534-.711.711.771.948.711a2.7,2.7,0,0,1,.712,0l.415,1.068,1.067,1.3.653.593h0a6.5,6.5,0,0,1,.415,1.008v.592a5.337,5.337,0,0,1,.356.653c.06.178-.3.533,0,.771s.356-.058.475.475.3,1.186.3,1.186-.593,0,0,.533a5.331,5.331,0,0,1,.89,1.009l.415.355.416.831,2.372.652s.059,0,.475.416,1.008.356,1.661.89a7.069,7.069,0,0,0,1.719,1.066c.237.06.416-.237.652,0a1.523,1.523,0,0,0,.949.416,7.165,7.165,0,0,1,1.127,0,7.776,7.776,0,0,0,1.187,0h1.6s.653-.474.712,0a3.567,3.567,0,0,0,.474,1.127l.652,1.483a.328.328,0,0,0,0,.474,7.859,7.859,0,0,0,.711.83,2.045,2.045,0,0,0,.949.356s.415-.593.534,0a6.108,6.108,0,0,0,.355,1.126l.475.831,2.09,1.067a2.679,2.679,0,0,0,1.6,0,6.092,6.092,0,0,1,1.6-.355c.237-.06.89.119,1.246,0a4.368,4.368,0,0,1,1.6,0c1.008.059,2.016,0,2.253.355a4.283,4.283,0,0,0,.475.593l.415.534,1.127.948.83.771,1.067.593,2.135,1.008,1.6,1.186h0a7.777,7.777,0,0,0,1.067.593c.237.06.534-.356.83,0a1.883,1.883,0,0,0,.949.474,2.388,2.388,0,0,1,1.187,0c.534.178,1.364-.177,1.6,0s1.364,0,1.364,0l1.719.534h.356s1.542.3,1.838.415,1.068,1.72,1.068,1.72h2.016l.475.771v1.246l.356.474.356.474a3.761,3.761,0,0,0,.653.416.786.786,0,0,1,.474.356c.178.3,0,.579,0,.771s.594.3.89.416a.878.878,0,0,0,.593,0h1.246l.83.416h0l.356.592a2.95,2.95,0,0,0,1.186.474,3.316,3.316,0,0,0,.89,0h2.075l.416,1.246h.415s.119-.119.416,0a1.081,1.081,0,0,0,.653,0,.854.854,0,0,1,.355.416c.06.237.3,1.423.3,1.423v29.831l.623,7.532v1.839l.83,4.151.593.831,1.3,1.66,1.186.534,2.135,1.067,1.424,1.068.712.889a8.874,8.874,0,0,1,1.067,1.067c.119.238.771.711.949,1.008s.771.653.949.95,2.535,3.232,2.535,3.232.949,1.838,1.187,2.313,1.542,1.66,1.661,1.9.771.652,1.008,1.245,1.067,1.542,1.186,1.9.534,1.008.712,1.542a11.969,11.969,0,0,1,.356,1.364c.06.3-.356.831,0,1.246a3.527,3.527,0,0,1,.475,1.839c.059.652.237,1.066.3,1.838s-.178,1.067,0,1.482-.178-2.312,0,1.009,0,2.3,0,2.3v1.779l.341,1.068v4.151l-.637,2.712-.475,2.55v1.186a10.9,10.9,0,0,0,0,2.432,5.7,5.7,0,0,1,0,1.779v1.6a4.388,4.388,0,0,0,0,1.3,2.283,2.283,0,0,1-.356,1.306v.83l-.638,3.692-.415,2.431v2.492c0,.3-.356,2.313-.416,2.787s.118,1.187,0,1.9-.83,3.855-.83,3.855l-.415,3.914-.593,1.482a14.065,14.065,0,0,1-.475,1.958,30.669,30.669,0,0,0,0,4.686l-.146,3.267-.128,1.31v.4l-.523,8.045v2.823l-1.211,5.014v6.965l-1.694,8.5v10.149l-2.2,7.263v3.421l-1.355,3.375-1.186,4.885v7.789l-7.284,2.321-8.977.954-11.349,1.864-12.874,2.023h-36.72Z" transform="translate(-3428.961 536.5)" fill="#fff" stroke="#707070" stroke-width="1"/>
    <g transform="matrix(1, 0, 0, 1, 156.17, 6343.17)" filter="url(#Path_846)">
      <path id="Path_846-2" data-name="Path 846" d="M3774.573,5942.243l-.114-1.357a5.72,5.72,0,0,1,0-.8,4.968,4.968,0,0,0-.074-.725c0-.073-.16-.7-.16-.7a4.154,4.154,0,0,0-.11-.491c-.037-.074-.246-.688-.246-.688s-.381-.614-.406-.664-.6-.738-.6-.738l-.639-.43-1-.7-.486-.486-.756-.324a4.648,4.648,0,0,0-.675-.243h-1.485s-1.43-.243-1.727-.243a11.737,11.737,0,0,1-1.4-.135c-.27-.054-1.269-.377-1.269-.377l-.243-.459a1.262,1.262,0,0,1,.243-.756,5.525,5.525,0,0,1,.594-.567c.189-.135.594-.3.675-.432a2.744,2.744,0,0,1,.756-.567c.189-.081.4-.217.648-.352a7.479,7.479,0,0,1,.783-.4c.162-.054.377-.243.729-.377a7.322,7.322,0,0,0,.945-.513,1.788,1.788,0,0,0,.459-.4c.081-.162.3-.946.3-.946v-2.639a1.268,1.268,0,0,1,0-.54,2.469,2.469,0,0,0,0-.891,3.357,3.357,0,0,0-.3-.756c-.115-.135-.459-.648-.459-.648l-.3-.512-.425-.647-.546-.487-.594-.459-.587-.4-.844-.324-.561-.377a1.8,1.8,0,0,1-.331-.325c-.054-.107-.344-.648-.344-.648l-.142-.378.142-1v-.7l.344-.594.331-.432.264-.485.3-.216s.27.162.378,0a1.936,1.936,0,0,1,.647-.35h.6l.634-.188.095-.028a2.426,2.426,0,0,0,.641,0h.763a2.969,2.969,0,0,1,.7.217c.108.053.621.35.621.35l.412.216a2.322,2.322,0,0,1,.486.485c.155.243.479.729.479.729a.567.567,0,0,1,.243.3,1.738,1.738,0,0,0,.277.459s.637.648.639.783.272.458.272.458.512.46.7.648.621.566.783.7.594.081.783.377.81.405.972.729.458.135.648.459a3.219,3.219,0,0,0,.917.729l.945.54a3.652,3.652,0,0,1,.864.377,5.172,5.172,0,0,0,.755.486,4.711,4.711,0,0,0,.891.622c.27.08,1.565.3,1.565.3a4.219,4.219,0,0,0,.405.216c.135.054,1.026.243,1.214.27s.783.135.945.162a8.076,8.076,0,0,0,1.323.243,9.167,9.167,0,0,1,1.215,0,6.961,6.961,0,0,1,.755,0c.243.027,1.431-.3,1.728-.243a16.45,16.45,0,0,0,2.281-.432l1.026-.216a5.576,5.576,0,0,1,.864,0c.351.04.647-.2.918,0s.324-.123.755.216a4.4,4.4,0,0,1,.837.675,6.834,6.834,0,0,1,.162,1.687s-.162.729,0,.837.325.621.513.891.351.46.486.622a4.646,4.646,0,0,0,.432.54c.135.108.378.215.513.324a4.618,4.618,0,0,0,.486.3,2.725,2.725,0,0,1,.54.324c.135.135.243.135.378.27a1.485,1.485,0,0,0,.378.244l.27.351s-.135.4,0,.513,0,.594,0,.594a.37.37,0,0,1,0,.323l-.432,1.053h0l-.432.567-1.553,2.033-.148.43-.689.54-.742.351s-.283.189-.418.27-.513.05-.581.241-.229.187-.229.688.135.745,0,.879-.3.138-.526.312a2.142,2.142,0,0,1-.688.336c-.135.027-.836-.027-1.093,0s-1.026,0-1.026,0h-.526s-1.107-.189-1.269,0-.729.108-.891.216-.433-.059-.837.172a8.2,8.2,0,0,1-1.566.475.637.637,0,0,0-.3.163,3.3,3.3,0,0,1-.594.432c-.351.243-.621.3-.7.4a2.419,2.419,0,0,1-.377.351,5.333,5.333,0,0,1-.864.331s-.566.183-.756.264a8.562,8.562,0,0,1-1.188.27,5.776,5.776,0,0,0-.972,0c-.324.08-1.3.108-1.485.162s-.431-.054-.755,0a6.177,6.177,0,0,1-1.026,0,2.037,2.037,0,0,0-.594,0c-.216.054-.621-.135-.972,0a.991.991,0,0,1-.675,0h-.54l-.415-.131-.1-.03Z" transform="translate(-3644.73 -5842.3)" fill="#025635" stroke="#707070" stroke-width="1"/>
    </g>
    <text id="الرياض" transform="translate(260 6493)" fill="#025635" font-size="23" font-family="SegoeUI-Semibold, Segoe UI" font-weight="600"><tspan x="-34.573" y="0">الرياض</tspan></text>
    <text id="مقاطعة" transform="translate(262 6521)" fill="#025635" font-size="23" font-family="SegoeUI-Semibold, Segoe UI" font-weight="600"><tspan x="-37.454" y="0">مقاطعة</tspan></text>
    <text id="الرياض-2" data-name="الرياض" transform="translate(242 6429)" fill="#025635" font-size="16" font-family="SegoeUI-Semibold, Segoe UI" font-weight="600"><tspan x="-24.051" y="0">الرياض</tspan></text>
    <text id="مدينة" transform="translate(248 6450)" fill="#025635" font-size="16" font-family="SegoeUI-Semibold, Segoe UI" font-weight="600"><tspan x="-18.039" y="0">مدينة</tspan></text>
  </g>
</svg>
