<svg xmlns="http://www.w3.org/2000/svg" width="153" height="153"><defs><clipPath id="a"><path d="M0 0h153v153H0z"/></clipPath></defs><g data-name="Solidarity professional company" clip-path="url(#a)"><g data-name="Group 966" transform="translate(-735.956 -2096.082)"><ellipse data-name="Ellipse 20" cx="77" cy="76.5" rx="77" ry="76.5" transform="translate(735.956 2096.082)" fill="#bf9b2e"/><g data-name="Group 965"><g data-name="Group 963" fill="none" stroke="#fff" stroke-linecap="round" stroke-miterlimit="10" stroke-width="1.5"><path data-name="Path 852" d="M778.026 2211.9H766.1v-9.524a9.355 9.355 0 0 1 9.355-9.356h2.072"/><path data-name="Line 251" d="M777.529 2203.023h-11.427"/><path data-name="Line 252" d="m819.264 2135.466-32.261 10.754"/><path data-name="Line 253" d="m819.264 2145.759-32.261 10.754"/><path data-name="Line 254" d="m819.264 2156.053-32.261 10.754"/><path data-name="Line 255" d="m819.264 2166.346-32.261 10.754"/><path data-name="Line 256" d="m814.291 2178.297-27.288 9.096"/><path data-name="Path 853" d="M794 2132.815v-6.942a2.873 2.873 0 0 0-2.873-2.873h0a2.872 2.872 0 0 0-2.872 2.873v8.857"/><path data-name="Path 854" d="M805.01 2212.049v-16.644a1.542 1.542 0 0 0-1.954-1.485l-14.153 3.932a1.541 1.541 0 0 0-1.129 1.485v12.712"/><path data-name="Line 257" d="M796.392 2195.771v16.128"/></g><g data-name="Group 887"><g data-name="Ellipse 46"><circle data-name="Ellipse 70" cx="23.921" cy="23.921" r="23.921" transform="translate(811.968 2170.161)" fill="#fff"/></g></g><g data-name="Group 964" fill="none" stroke="#bf9b2e" stroke-linecap="round" stroke-miterlimit="10" stroke-width="1.5"><rect data-name="Rectangle 756" width="10.466" height="3.613" rx="1.806" transform="rotate(-4.718 27001.867 -8843.374)"/><rect data-name="Rectangle 757" width="13.425" height="3.613" rx="1.806" transform="rotate(-4.718 27045.494 -8857.078)"/><rect data-name="Rectangle 758" width="15.679" height="3.613" rx="1.806" transform="rotate(-4.7 27171.319 -8906.202)"/><rect data-name="Rectangle 759" width="10.849" height="3.613" rx="1.806" transform="rotate(-4.718 27132.962 -8889.645)"/><path data-name="Line 258" d="m817.611 2187.883 3.435 2.919"/><path data-name="Path 855" d="m827.033 2176.832 3.449 3.025a2.239 2.239 0 0 0 1.309.55c1.681.124 5.943.705 8.844 3.438"/><path data-name="Path 856" d="m840.21 2196.526.594 6.058a2.676 2.676 0 0 1-.667 2.043l-3.878 4.345a1.834 1.834 0 0 1-2.624.179h0a1.835 1.835 0 0 1-.146-2.585l3.6-4.019"/><path data-name="Path 857" d="M837.48 2207.653a1.835 1.835 0 0 0 .164 2.583h0a1.834 1.834 0 0 0 2.623-.2l3.5-4.285a2.026 2.026 0 0 0 .457-1.341l-.258-8.972a1.9 1.9 0 0 0-.022-.238l-.5-3.169a.827.827 0 0 0-.876-.7l-4.13.3-3.114.34a2.034 2.034 0 0 1-2.048-1.128l-.475-.97a1.034 1.034 0 0 1 .615-1.44l7.093-2.264a5.944 5.944 0 0 1 3.518-.031 8.111 8.111 0 0 1 4.329 3.155c1.912 2.621 2.975 6.659 3.542 8.147a5.475 5.475 0 0 0 2.267 2.9"/><path data-name="Path 858" d="m833.965 2206.035-1.691 1.942a1.752 1.752 0 0 1-2.45.19h0a1.751 1.751 0 0 1-.6-1.636"/><path data-name="Line 259" d="m842.902 2209.844 1.7 1.488"/></g></g><path data-name="Path 859" d="M834 2165.625v-25.571a2.544 2.544 0 0 0-.745-1.8L819 2124l-39.33 14.389a2.544 2.544 0 0 0-1.67 2.389V2212h36.29" fill="none" stroke="#fff" stroke-linecap="round" stroke-miterlimit="10" stroke-width="1.5"/><path data-name="Line 260" fill="none" stroke="#fff" stroke-linecap="round" stroke-miterlimit="10" stroke-width="1.5" d="M819.372 2124.455V2170"/></g></g></svg>