<svg xmlns="http://www.w3.org/2000/svg" width="117.608" height="104" viewBox="0 0 117.608 104">
                  <path id="Union_5" data-name="Union 5" d="M-594.486,145v-4.718h.059a42.293,42.293,0,0,1,1.031-7.638H-633v-4.718h.059a37.044,37.044,0,0,1,3.871-15.434,29.4,29.4,0,0,1,8.752-10.239,30.836,30.836,0,0,1,12.8-5.557l1.608-.223.776,1.4a16.25,16.25,0,0,0,2.932,3.5,11.642,11.642,0,0,0,7.863,3.285h.006v.033a11.341,11.341,0,0,0,7.791-3.364,15.731,15.731,0,0,0,2.764-3.414l.781-1.436,1.622.224a27.647,27.647,0,0,1,6.3,1.866,24.882,24.882,0,0,1-1.059-2.531l-.04-.119-.011-.054a4.422,4.422,0,0,0-.8-1.451,3.392,3.392,0,0,0-2.768-1.213h-1.481l.63.5c-2.305,2.918-6.645,6.4-14.226,6.4-5.922,0-11.247-2.881-15.4-8.333a31.14,31.14,0,0,1-4.421-8.079l-.04-.119-.011-.053a4.418,4.418,0,0,0-.8-1.451,3.392,3.392,0,0,0-2.768-1.213h-6.1V66.667h1.282a31.47,31.47,0,0,1,3-9.156,21.9,21.9,0,0,1,17-12.057V43h15.949v2.461A22.077,22.077,0,0,1-575.294,50.8a22.767,22.767,0,0,1,4.355,5.321A26.358,26.358,0,0,1-569.455,59a24.522,24.522,0,0,1,4.881-1.194V55.356h15.95v2.461a21.9,21.9,0,0,1,16.947,12.05,31.451,31.451,0,0,1,3,9.156h1.53V93.2h-6.9a3.717,3.717,0,0,0-1.311.374,3.8,3.8,0,0,0-1.87,2.423c-.042.131-.084.268-.129.412a27.954,27.954,0,0,1-4.71,9.62,16.931,16.931,0,0,1-5.631,4.543,19.239,19.239,0,0,1-8.614,1.876,18.28,18.28,0,0,1-13.2-5.79l-.245,2.531c.435-.088.7-.125.747-.132l1.608-.223.775,1.4a16.249,16.249,0,0,0,2.932,3.5,11.642,11.642,0,0,0,7.863,3.285h.006v.032a11.3,11.3,0,0,0,7.689-3.269,15.962,15.962,0,0,0,2.869-3.511l.774-1.45,1.627.241a30.836,30.836,0,0,1,12.8,5.557,29.387,29.387,0,0,1,8.752,10.239,38.3,38.3,0,0,1,3.926,17.771h-.066V145Zm61.131-4.718h11.175c-.446-8.769-3.448-15.637-8.947-20.468Zm-42.975-23.6,2.569,23.6h35.649l2.568-23.6c-.577-.327-1.144-.619-1.692-.881l-5.834,15.765H-568.8l-5.832-15.76C-575.186,116.068-575.752,116.36-576.331,116.686Zm-13.364,23.6h11.176l-2.229-20.468C-586.245,124.646-589.247,131.514-589.694,140.282Zm-25.149-35.952,2.568,23.6h20.331a31.428,31.428,0,0,1,1.389-3.078,29.586,29.586,0,0,1,3.79-5.637h-20.552l-5.833-15.759C-613.7,103.713-614.266,104-614.844,104.33Zm-13.364,23.6h11.175l-2.228-20.468C-624.759,112.29-627.761,119.158-628.208,127.926Zm58-13.777,4.7,12.7h19.144l4.7-12.705c-.15-.042-.293-.079-.427-.113a21.425,21.425,0,0,1-2.7,3.084,16.112,16.112,0,0,1-11.108,4.648v-.034A16.5,16.5,0,0,1-567,117.1a21.847,21.847,0,0,1-2.758-3.074C-569.9,114.065-570.05,114.1-570.209,114.149Zm-38.513-12.355,4.7,12.7h19.143l4.7-12.7c-.15-.042-.293-.079-.428-.113a21.419,21.419,0,0,1-2.7,3.083,16.112,16.112,0,0,1-11.108,4.648v-.033a16.5,16.5,0,0,1-11.1-4.626,21.819,21.819,0,0,1-2.757-3.074Q-608.483,101.728-608.722,101.793Zm29.465,11.13a32.368,32.368,0,0,1,4.606-2.259l.614-6.34c-.581-.33-1.154-.626-1.709-.89Zm7.623-18.345a26.962,26.962,0,0,0,3.762,6.776c3.255,4.226,7.143,6.369,11.557,6.369,10.461,0,13.05-8.278,14.44-12.725.047-.15.091-.291.135-.427A10.243,10.243,0,0,1-541.2,93.2H-572.18A8.509,8.509,0,0,1-571.634,94.579Zm-38.514-12.356A26.962,26.962,0,0,0-606.386,89c3.255,4.226,7.143,6.369,11.557,6.369a13.264,13.264,0,0,0,8.972-2.983V80.839h-24.836A8.574,8.574,0,0,1-610.148,82.223Zm76.992,6.253h1.28V83.741h-49.25v4.735h46.914c.2-.013.377-.017.54-.017C-533.471,88.458-533.3,88.466-533.156,88.476Zm-15.468-9.453h15.137a26.367,26.367,0,0,0-2.459-7.117A17.065,17.065,0,0,0-548.625,62.6Zm-11.22,0h6.49V73.531h-6.49Zm-17.461-7.117a26.373,26.373,0,0,0-2.46,7.117h15.192V62.588A17.07,17.07,0,0,0-577.306,71.906Zm-42.335,4.214h35.272l1.86-4.735h-37.132Zm59.8-7.308h6.49V60.075h-6.49Zm-27.294-2.145h7.537a21.657,21.657,0,0,1,5.9-5.587,17.32,17.32,0,0,0-13.434-10.838Zm-11.22,0h6.49V61.175h-6.49ZM-615.82,59.55a26.37,26.37,0,0,0-2.459,7.117h15.191V50.232A17.071,17.071,0,0,0-615.82,59.55Zm17.461-3.094h6.49V47.719h-6.49Z" transform="translate(634 -42)" fill="#bf9b2e" stroke="#fff" stroke-width="2"/>
                </svg>