<svg width="45px" height="53px" viewBox="0 0 45 49" version="1.1" xmlns="http://www.w3.org/2000/svg" xmlns:xlink="http://www.w3.org/1999/xlink">
  <!-- Generator: Sketch 48.2 (47327) - http://www.bohemiancoding.com/sketch -->
  <desc>Created with Sketch.</desc>
  <defs></defs>
  <g id="Page-1" stroke="none" stroke-width="1" fill="none" fill-rule="evenodd">
    <g id="1--Sectors-&amp;-Industries" transform="translate(-1058.000000, -416.000000)">
      <g id="Group-4" transform="translate(1058.000000, 416.000000)">
        <g>
          <path d="M12.1235111,39.414256 C7.60218711,36.196496 4.64103031,30.951816 4.64103031,25.022816 C4.64103031,17.763536 9.06865401,11.517016 15.3812916,8.781696 L17.7757307,3.330376 C7.68939617,5.482736 0.125350871,14.371616 0.125350871,25.022816 C0.125350871,32.940376 4.31703031,39.870376 10.6042672,43.799056 L12.1235111,39.414256 Z" id="Fill-1" fill="#343A4A"></path>
          <polygon id="Fill-4" fill="#5CC83B" points="22.5858606 19.562676 35.2918537 0.279916 22.809669 0.279916 11.5204704 25.980836 20.3610418 25.980836 12.4255819 48.877276 33.2897143 19.562676"></polygon>
          <path d="M35.1131174,6.69144 L32.635985,10.45072 C37.295884,13.65084 40.3609014,18.98624 40.3609014,25.02276 C40.3609014,34.79196 32.3481105,42.74032 22.5008247,42.74032 C21.9916819,42.74032 21.4910059,42.70644 20.99287,42.665 L18.0647341,46.78072 C19.4978979,47.06716 20.9818631,47.22032 22.5008247,47.22032 C34.8574171,47.22032 44.8765808,37.28256 44.8765808,25.02276 C44.8765808,17.40592 41.0057969,10.689 35.1131174,6.69144" id="Fill-7" fill="#343A4A"></path>
        </g>
      </g>
    </g>
  </g>
</svg>