<svg version="1.1" id="Layer_1" xmlns="http://www.w3.org/2000/svg" xmlns:xlink="http://www.w3.org/1999/xlink" x="0px" y="0px"
	 viewBox="0 0 410.1 159.6" style="enable-background:new 0 0 410.1 159.6;" xml:space="preserve">
<style type="text/css">
	.st0{fill:#FFFFFF;}
</style>
<g>
	<g>
		<rect x="279.2" y="18.1" class="st0" width="8.2" height="63.9"/>
		<g>
			<path class="st0" d="M260.9,33.9c0,0,0,23.6,0,26c0,2.4-2.3,4.5-4.9,4.5c-2.6,0-4.9-2-4.9-4.5l0-22.8H243l0,23.6
				c0,2.2-1.8,3.9-3.9,3.9h-2c-2.2,0-3.9-1.7-3.9-3.9l0-22.5h-8.2l0,22.5c0,2.2-1.8,3.9-3.9,3.9h-8.9V33.9h-8.2v30.7h-18V33.9H178
				v30.7h-13.8V33.9l-17.6,0c-9.3,0-16.8,8.5-16.8,19c0,2.5,0.4,4.9,1.2,7.1v0.7c0,2.2-1.8,3.9-3.9,3.9h-6.8V33.9h-8.2
				c0,0,0,35.1,0,38c0,3-2.4,5.7-5.4,6.1v8.2c7.6-0.4,13.6-6.6,13.6-14.3h6.8c3.6,0,6.9-1.6,9.1-4.1c2.9,2.6,6.5,4.1,10.4,4.1
				l74.6,0c3.1,0,5.9-1.1,8-3c2.1,1.9,4.9,3,8,3h2c3.1,0,5.8-1.1,8-3c2.3,2.4,5.6,3.8,9.1,3.8c7.1,0,12.9-5.8,12.9-12.9l0-26H260.9z
				 M156,64.6l-7.8,0c-5.6,0-10.1-5.2-10.1-11.6c0-6.5,4.5-11.7,10.1-11.7h7.8V64.6z"/>
			<rect x="178.3" y="8.9" class="st0" width="7.4" height="7.4"/>
			<rect x="184" y="20.2" class="st0" width="7.4" height="7.4"/>
			<rect x="172.7" y="20.2" class="st0" width="7.4" height="7.4"/>
			<rect x="210.2" y="20.2" class="st0" width="7.4" height="7.4"/>
			<rect x="198.8" y="20.2" class="st0" width="7.4" height="7.4"/>
		</g>
		<g>
			<path class="st0" d="M75.3,33.9c-9.3,0-16.8,8.5-16.8,19c0,4.4,1.3,8.5,3.5,11.7H51.7V33.9h-5.3c-12,0-19.1,7.9-19.1,17.7v13
				h-7.4C8.4,64.6,8.3,54.3,8.3,54.3l0-8.9H0v8.9C0,54.2,0,72,19.1,72l16.5,0V51.6c0-5.7,3.9-8.9,7.9-9.9V72l45.6,0v-38L75.3,33.9z
				 M81,64.6h-4.7c-5.2,0-9.5-5.3-9.5-11.6c0-6.5,4.5-11.7,10.1-11.7H81V64.6z"/>
			<rect x="81.6" y="19.2" class="st0" width="7.4" height="7.4"/>
			<rect x="28.5" y="80.4" class="st0" width="7.4" height="7.4"/>
			<rect x="17.2" y="80.4" class="st0" width="7.4" height="7.4"/>
		</g>
		<rect x="279.2" y="89.9" class="st0" width="8.2" height="53.9"/>
		<path class="st0" d="M260.9,89.9v46.5h-7.8c-2.2,0-3.9-1.8-3.9-3.9l0-26.8H241c0,0,0,25.4,0,26c0,2.3-2.3,4.5-4.9,4.5
			c-2.6,0-4.9-2.1-4.9-4.5l0-22.8h-8.2l0,23.6c0,2.2-1.8,3.9-3.9,3.9h-2c-2.2,0-3.9-1.7-3.9-3.9l0-22.5h-8.2l0,22.5
			c0,2.2-1.8,3.9-3.9,3.9l-15.4,0c-5,0-8.7-5.7-8.7-11.6c0-6.5,4.5-11.7,10.1-11.7h7v-7.4l-8.5,0c-9.3,0-16.8,8.5-16.8,19
			c0,4.4,1.3,8.5,3.6,11.7h-13.2l0-30.7l-13.3,0c-9.3,0-16.8,8.5-16.8,19c0,10.5,7.5,19,16.8,19h5.2c0,3.1-2.6,6.1-5.4,6.1h-8.2v8.2
			h8.2c7.6-0.4,13.6-6.6,13.6-14.3c0,0,41.2,0,42.1,0c3.1,0,5.9-1.1,8-3c2.1,1.9,4.9,3,8,3h2c3.1,0,5.8-1.1,8-3
			c2.3,2.4,5.6,3.8,9.1,3.8c3.5,0,6.7-1.4,9-3.7c2.1,1.8,4.8,2.8,7.8,2.8l16,0V89.9H260.9z M151,136.4h-3.6
			c-5.6,0-10.1-5.2-10.1-11.6s4.5-11.7,10.1-11.7h3.6V136.4z"/>
		<rect x="81.6" y="152.2" class="st0" width="7.4" height="7.4"/>
		<rect x="70.3" y="152.2" class="st0" width="7.4" height="7.4"/>
		<rect x="81.6" y="152.2" class="st0" width="7.4" height="7.4"/>
		<rect x="70.3" y="152.2" class="st0" width="7.4" height="7.4"/>
		<path class="st0" d="M80.8,105.7l0,30.7H66.8v-30.7l-16.3,0c-9.3,0-16.8,8.5-16.8,19c0,10.5,7.5,19,16.8,19l38.5,0l0-38H80.8z
			 M58.6,136.4H52c-5.6,0-10.1-5.2-10.1-11.6s4.5-11.7,10.1-11.7h6.6V136.4z"/>
		<rect x="59.4" y="92" class="st0" width="7.4" height="7.4"/>
		<rect x="48.1" y="92" class="st0" width="7.4" height="7.4"/>
		<rect x="59.4" y="92" class="st0" width="7.4" height="7.4"/>
		<rect x="48.1" y="92" class="st0" width="7.4" height="7.4"/>
		<path class="st0" d="M122.7,117.8v26H94.9v-7.3h19.6V117c0-2.2-1.7-3.9-3.9-3.9h-11v-7.3h11C117.3,105.7,122.7,111.1,122.7,117.8z
			"/>
	</g>
	<g>
		<path class="st0" d="M365.6,76.1c-1.6,0-3.1,0.1-4.6,0.2v26.6l4.6,3.5l4.6-3.5V76.3C368.7,76.1,367.1,76.1,365.6,76.1z"/>
		<path class="st0" d="M357.9,122.8c2-1.9,4.1-3.7,6.3-5.5c-12-9.7-25.6-17.6-40.3-23.1c-1,1-1.9,2.1-2.8,3.2
			C334.9,103.5,347.3,112.2,357.9,122.8z"/>
		<path class="st0" d="M372,124.1c10.8-11.2,23.7-20.4,38.1-26.8c-0.9-1.1-1.8-2.2-2.8-3.2c-26.4,10-49.2,27.3-65.7,49.6h15.1
			c2.7-4.3,5.7-8.4,8.9-12.4c3.2,3.9,6.2,8.1,8.9,12.4h15.1C384.3,136.7,378.4,130.1,372,124.1z"/>
		<path class="st0" d="M336,59.5l13.2,10.2c5.2-1.3,10.7-2.1,16.3-2.1s11.1,0.7,16.3,2.1l13.2-10.2c-9.1-3.7-19.1-5.7-29.5-5.7
			C355.1,53.8,345.2,55.8,336,59.5z"/>
		<path class="st0" d="M365.6,51.9c8.6,0,16.9,1.3,25,3.9c-8.3-6.2-17.5-11.2-27.4-14.8c-9.6,1.9-19.1,4.4-28.4,7.5
			c6.8,0.4,13.5,1.8,20,4.1C358.3,52.2,361.9,51.9,365.6,51.9z"/>
		<path class="st0" d="M395.1,10.2L381.9,0c-5.2,1.3-10.7,2.1-16.3,2.1S354.5,1.3,349.2,0L336,10.2c9.1,3.7,19.1,5.7,29.6,5.7
			C376,15.8,386,13.8,395.1,10.2z"/>
		<path class="st0" d="M401.6,21.2L401.6,21.2c-0.1,0-0.3,0-0.4,0c-8.6,0-16.9-1.4-24.8-4.2c-3.6,0.5-7.2,0.7-10.8,0.7
			c-8.6,0-16.9-1.3-25-3.9c17.6,13.2,39.4,21,63.1,21c0.1,0,0.3,0,0.4,0L401.6,21.2z"/>
		<path class="st0" d="M369.3,31c-3.9-1.3-7.8-2.9-11.5-4.7c-10.5,2.2-20.7,5-30.6,8.5l0,0l2.5,13.6c18.6-6.7,38.4-11.1,58.9-12.8
			C381.9,34.7,375.5,33.2,369.3,31z"/>
	</g>
</g>
</svg>
