<svg width="59px" height="53px" viewBox="0 0 59 50" version="1.1" xmlns="http://www.w3.org/2000/svg" xmlns:xlink="http://www.w3.org/1999/xlink">
  <!-- Generator: Sketch 48.2 (47327) - http://www.bohemiancoding.com/sketch -->
  <desc>Created with Sketch.</desc>
  <defs></defs>
  <g id="Page-1" stroke="none" stroke-width="1" fill="none" fill-rule="evenodd">
    <g id="1--Sectors-&amp;-Industries" transform="translate(-808.000000, -415.000000)">
      <g id="Group-2-Copy" transform="translate(808.000000, 415.000000)">
        <path d="M32.8507214,17.2774212 C34.2613136,29.6603639 25.3273187,38.0865146 20.7010017,38.9099642 C16.071018,39.7367565 4.83138149,34.9089726 1.97206313,22.783056 C-0.887255236,10.6575109 -0.919522486,3.41063502 3.75702873,4.25228439 C8.91318862,5.18047581 14.6387921,4.10334291 14.6387921,4.10334291 C14.6387921,4.10334291 20.3805293,3.13503757 24.9118779,0.479719242 C29.0226522,-1.92860136 31.4397626,4.89410703 32.8507214,17.2774212" id="Path" fill="#fff"></path>
        <path d="M55.6262121,17.0237634 C50.4970835,17.6013933 44.9825333,16.0187902 44.9825333,16.0187902 C44.9825333,16.0187902 39.3729173,14.8741865 35.0890632,12 C35.3049878,13.3239189 35.5046995,14.7595424 35.6918832,16.2918049 C39.4790372,18.2220147 43.2717183,19.1049948 44.1262046,19.312971 C45.2526232,19.5892926 50.4340748,20.9459145 55.6497943,20.4935847 C55.8421366,21.7102085 55.8314509,25.2017094 53.0410134,34.262268 C49.8780507,44.5394505 40.0907006,47.1479712 37.555614,46.5273498 C35.7062536,46.07502 31.2389005,42.3038904 29.6916871,36.1928453 C28.8191457,37.1544595 27.9141787,37.997755 27,38.7190575 C29.1338207,44.9447468 33.7633014,49.0928791 36.7512399,49.8248376 C41.2491762,50.9264498 52.6036372,46.9219901 56.1932903,35.2525432 C59.7825749,23.5794219 60.2774327,16.499781 55.6262121,17.0237634 M39.6426388,28.4238701 C40.3209955,28.1618789 40.8265389,26.9742836 40.4451705,25.8726714 C39.9683679,24.4984119 37.8813432,23.4791083 35.5640235,24.4263919 C35.3392556,25.6393412 35.0065255,26.7876195 34.6196301,27.8929062 C35.7044113,28.312533 38.3795171,28.9191914 39.6426388,28.4238701 M44.9467915,42.2248889 C44.9394221,42.318221 44.8819405,42.404204 44.7971919,42.4328651 C44.7109695,42.4615261 44.6229047,42.4291906 44.5742664,42.3505565 C44.0668807,41.5539269 42.6921121,40.100666 39.2376882,39.2573704 C35.7781057,38.4067258 33.8944774,39.0670318 33.0794176,39.5369991 C32.9965114,39.5803581 32.9047619,39.5693346 32.8421217,39.5046636 C32.7809554,39.4366855 32.7662165,39.3360045 32.8041691,39.2500214 C33.5923305,37.5384437 36.1793715,34.9942265 40.2329307,35.9201981 C44.2559067,36.9714699 45.0366987,40.3409776 44.9467915,42.2248889" id="Fill-1" fill="#fff"></path>
        <path d="M23.9621984,12.085217 C21.0730877,11.5920714 19.0655672,13.3339774 19.0018422,14.8727612 C18.9552319,16.0077731 19.8018644,16.9597984 20.546901,16.9975968 C22.0278707,17.0700143 24.7411003,15.4867203 25.509078,14.8208325 C26.2737783,14.1584773 26.4052339,12.5027658 23.9621984,12.085217" id="Path" fill="#5CC83B"></path>
        <path d="M25.9998451,25.2483433 C26.0035674,25.1479877 25.9399166,25.0509404 25.8397876,25.0152829 C25.7400309,24.9792578 25.6291073,25.0079309 25.5617343,25.0906416 C24.8675315,25.9306149 23.0681877,27.2624412 18.800981,28.0053672 C14.5334021,28.7449849 12.3175366,28.113075 11.3743142,27.5568914 C11.285352,27.5028537 11.168845,27.5138818 11.0873274,27.5818884 C11.0054375,27.6465865 10.978265,27.7542943 11.0180932,27.8546499 C11.8034915,29.757364 14.4641679,32.6614292 19.4587056,31.8648331 C24.4256985,30.9278126 25.9216775,27.3054508 25.9998451,25.2483433" id="Path" fill="#5CC83B"></path>
        <path d="M7.88982859,18.2878023 C8.81603972,18.7023264 11.8252563,19.375177 13.1474077,18.7375709 C13.8155349,18.4207704 14.2611881,17.0910895 13.8289327,15.8939762 C13.2471861,14.2787342 10.8232418,13.1797449 8.36333508,14.7873772 C6.28209248,16.1523027 6.97066893,17.8652682 7.88982859,18.2878023" id="Path" fill="#5CC83B"></path>
        <path d="M49.4345588,28.088018 C47.9064299,25.6966242 45.784667,25.5704896 44.7049842,26.6511163 C43.911151,27.4577139 43.8192335,28.7507778 44.2715095,29.2980987 C45.1778024,30.3931092 47.6446042,30.9478064 48.5860625,30.998334 C49.527869,31.0451734 50.7266268,30.105065 49.4345588,28.088018" id="Path" fill="#fff"></path>
      </g>
    </g>
  </g>
</svg>