<svg width="41px" height="53px" viewBox="0 0 41 46" version="1.1" xmlns="http://www.w3.org/2000/svg" xmlns:xlink="http://www.w3.org/1999/xlink">
  <!-- Generator: Sketch 48.2 (47327) - http://www.bohemiancoding.com/sketch -->
  <desc>Created with Sketch.</desc>
  <defs></defs>
  <g id="Page-1" stroke="none" stroke-width="1" fill="none" fill-rule="evenodd">
    <g id="1--Sectors-&amp;-Industries" transform="translate(-337.000000, -417.000000)">
      <g id="Group-2" transform="translate(337.000000, 417.000000)">
        <path d="M19.8695158,8.79411765 L19.8695158,17.5882353 L11.2604251,17.5882353 C10.4697737,17.5882353 9.82591411,16.9295038 9.82591411,16.1218596 L9.82591411,10.2604933 C9.82591411,9.45284918 10.4697737,8.79411765 11.2604251,8.79411765 L19.8695158,8.79411765 Z M22.0207762,8.79411765 L30.6298669,8.79411765 C31.4215307,8.79411765 32.0653902,9.45284918 32.0653902,10.2604933 L32.0653902,16.1218596 C32.0653902,16.9295038 31.4215307,17.5882353 30.6298669,17.5882353 L22.0207762,17.5882353 L22.0207762,8.79411765 Z M35.6521739,29.3151043 C35.6521739,32.5425786 33.0736986,35.1764706 29.9141299,35.1764706 L11.9781868,35.1764706 C8.81659339,35.1764706 6.23913043,32.5425786 6.23913043,29.3151043 L6.23913043,8.79411765 C6.23913043,3.93894569 12.8245179,0 20.9456522,0 C29.0657741,0 35.6521739,3.93894569 35.6521739,8.79411765 L35.6521739,29.3151043 Z M11.9771744,24.1838235 C10.787654,24.1838235 9.82490176,25.1683014 9.82490176,26.3823529 C9.82490176,27.5974386 10.787654,28.5808824 11.9771744,28.5808824 C13.1656825,28.5808824 14.1284348,27.5974386 14.1284348,26.3823529 C14.1284348,25.1683014 13.1656825,24.1838235 11.9771744,24.1838235 Z M32.0653902,26.3823529 C32.0653902,27.5974386 31.1016256,28.5808824 29.9131176,28.5808824 C28.7246095,28.5808824 27.7608449,27.5974386 27.7608449,26.3823529 C27.7608449,25.1683014 28.7246095,24.1838235 29.9131176,24.1838235 C31.1016256,24.1838235 32.0653902,25.1683014 32.0653902,26.3823529 Z" id="Fill-1" fill="#fff"></path>
        <polygon id="Path" fill="#fff" points="0 46 7.19525011 37.8823529 13.0954783 37.8823529 10.703627 40.5873867 30.296373 40.5873867 27.9020597 37.8823529 33.8022879 37.8823529 41 46 35.0837687 46 32.6882243 43.2949663 8.30931364 43.2949663 5.91623131 46"></polygon>
      </g>
    </g>
  </g>
</svg>