<?xml version="1.0" encoding="utf-8"?>
<!-- Generated by IcoMoon.io -->
<svg version="1.1" xmlns="http://www.w3.org/2000/svg" xmlns:xlink="http://www.w3.org/1999/xlink" width="752" height="32" viewBox="0 0 752 32"  style="fill:#5CC83B">
<svg id="icon-international-calling-service-symbol" width="32" height="32" viewBox="0 0 32 32" x="0" y="0">
<path d="M16.356 0.356c-5.852 0-10.96 3.232-13.643 8.002 0.327-0.103 0.673-0.166 1.045-0.166 1.048 0 2.058 0.495 3.012 1.46 0.596 0.202 1.223 0.389 1.886 0.551-0.109 0.513-0.199 1.046-0.279 1.586 1.292 2.266 0.724 3.713-0.343 4.96h0.043c0.018 0.745 0.071 1.469 0.142 2.18 0.406 0.525 0.992 1.201 1.825 2.052-0.26-1.333-0.427-2.752-0.467-4.232h6.031v4.341c-1.729 0.035-3.396 0.195-4.988 0.466 0.538 0.529 1.007 0.958 1.412 1.307 1.159-0.147 2.36-0.238 3.577-0.263v0.457c0.516-0.32 1.113-0.542 1.849-0.542 0.327 0 0.658 0.049 0.998 0.139 1.278 0.075 2.529 0.218 3.71 0.431-0.153 0.514-0.323 1.005-0.506 1.475 0.47 0.412 0.845 0.83 1.128 1.257 0.331-0.752 0.626-1.563 0.876-2.428 1.253 0.304 2.384 0.686 3.344 1.129-0.995 1.241-2.203 2.304-3.566 3.136 0.002 0.031 0.009 0.061 0.010 0.092 0.044 1.053-0.398 1.922-0.965 2.647 5.589-2.389 9.516-7.94 9.516-14.393 0-8.626-7.018-15.644-15.644-15.644zM9.014 8.749c-1.279-0.313-2.426-0.706-3.392-1.159 1.566-1.994 3.671-3.544 6.097-4.424-1.138 1.403-2.068 3.318-2.706 5.582zM15.607 15.251h-6.031c0.046-1.666 0.244-3.264 0.564-4.738 1.723 0.325 3.554 0.508 5.467 0.546l-0 4.192zM15.607 9.548c-1.764-0.036-3.5-0.201-5.099-0.493 0.957-3.303 2.561-5.776 4.425-6.627 0.223-0.023 0.447-0.041 0.673-0.053v7.173zM27.96 8.831c1.169 1.885 1.892 4.074 2.020 6.419h-5.344c-0.044-1.787-0.246-3.483-0.579-5.047 1.475-0.361 2.797-0.828 3.904-1.372zM17.105 2.376c0.226 0.012 0.451 0.030 0.674 0.053 1.864 0.851 3.468 3.324 4.426 6.627-1.596 0.292-3.333 0.456-5.099 0.493v-7.173zM22.541 21.631c-1.711-0.317-3.558-0.501-5.435-0.54v-4.342h6.031c-0.047 1.721-0.257 3.368-0.596 4.881zM17.105 15.251v-4.192c1.901-0.039 3.759-0.225 5.467-0.546 0.32 1.474 0.518 3.072 0.564 4.739h-6.031zM20.993 3.167c2.426 0.879 4.531 2.43 6.097 4.423-0.966 0.453-2.113 0.846-3.391 1.159-0.637-2.264-1.568-4.179-2.706-5.582zM27.888 23.281c-1.102-0.535-2.409-0.992-3.861-1.345 0.351-1.602 0.563-3.347 0.609-5.187h5.344c-0.13 2.392-0.881 4.621-2.092 6.532zM20.414 25.466c-3.139-2.522-4.016-1.282-5.44 0.141-0.994 0.995-3.51-1.082-5.683-3.255s-4.249-4.688-3.255-5.683c1.424-1.424 2.664-2.302 0.141-5.44-2.522-3.139-4.204-0.729-5.583 0.65-1.593 1.592-0.084 7.525 5.78 13.39s11.798 7.372 13.389 5.78c1.379-1.38 3.79-3.061 0.651-5.584z"></path>
</svg>
<svg id="icon-call" width="32" height="32" viewBox="0 0 32 32" x="48" y="0" style="fill:#5CC83B">
<path d="M22.111 16.778c-0.062 0.093-0.062 0.187-0.093 0.311-0.031 0.404 0.28 0.777 0.684 0.809s0.777-0.28 0.809-0.684c0-0.093 0-0.187 0.031-0.342 0-0.155 0-0.249 0-0.342 0-0.902-0.155-1.773-0.435-2.612-0.373-1.088-1.026-2.053-1.804-2.861-0.964-0.964-2.146-1.648-3.483-2.021-0.622-0.155-1.306-0.249-1.959-0.249-0.218 0-0.435 0-0.684 0.031-0.218 0.031-0.435 0.062-0.653 0.093-0.404 0.062-0.684 0.466-0.591 0.84 0.062 0.404 0.466 0.684 0.84 0.591 0.187-0.031 0.342-0.062 0.529-0.062 0.031 0 0.062 0 0.093 0 0.155 0 0.311-0.031 0.466-0.031 1.71 0 3.296 0.684 4.416 1.835 1.12 1.12 1.804 2.643 1.835 4.354v0.062c0 0.124 0 0.218 0 0.28z"></path>
<path d="M26.216 17.462c-0.031 0.404 0.28 0.777 0.684 0.809s0.777-0.28 0.809-0.684c0.031-0.342 0.031-0.684 0.031-1.026 0-0.684-0.062-1.337-0.155-1.99-0.404-2.488-1.617-4.727-3.328-6.437-1.959-1.959-4.571-3.234-7.464-3.452-0.311-0.031-0.653-0.031-0.964-0.031-0.342 0-0.684 0-1.026 0.031s-0.684 0.062-1.026 0.124c-0.404 0.062-0.684 0.466-0.591 0.84 0.062 0.404 0.466 0.684 0.84 0.591 0.218-0.031 0.404-0.062 0.622-0.093 0.093 0 0.187-0.031 0.28-0.031 0.311-0.031 0.622-0.031 0.902-0.031 1.057 0 2.053 0.155 3.017 0.435 1.679 0.498 3.172 1.399 4.385 2.612 0.995 0.995 1.804 2.208 2.332 3.514 0.466 1.182 0.746 2.488 0.746 3.856 0 0.093 0 0.218 0 0.311-0.062 0.249-0.093 0.435-0.093 0.653z"></path>
<path d="M27.273 5.147c-2.954-2.954-6.997-4.758-11.475-4.758-0.466 0-0.933 0.031-1.399 0.062s-0.933 0.093-1.399 0.187c-0.404 0.062-0.684 0.466-0.591 0.84 0.062 0.404 0.466 0.684 0.84 0.591 0.218-0.031 0.404-0.062 0.622-0.093s0.435-0.062 0.653-0.062 0.84-0.062 1.275-0.062c4.043 0 7.712 1.648 10.387 4.292 2.643 2.643 4.292 6.313 4.292 10.387 0 0.218 0 0.466 0 0.684 0 0.187-0.031 0.373-0.031 0.591-0.031 0.404 0.28 0.777 0.684 0.809s0.777-0.28 0.809-0.684c0.031-0.466 0.062-0.933 0.062-1.368 0-4.447-1.804-8.49-4.727-11.413z"></path>
<path d="M30.849 23.993l-5.504-2.954c-1.835-0.995-1.897-0.342-3.825 1.71-0.466 0.498-1.337 1.804-2.364 1.555-2.146-0.529-6.157-3.67-7.464-5.1-0.622-0.684-3.296-3.95-3.328-5.007-0.062-1.617 3.483-2.426 2.332-5.504l-2.457-5.504c-2.301-5.287-8.739 3.172-8.21 7.122 1.368 9.734 18.441 25.47 27.958 20.276 2.115-1.182 4.976-5.318 2.861-6.593z"></path>
</svg>
<svg id="icon-email-filled-closed-envelope" width="32" height="32" viewBox="0 0 32 32" x="96" y="0" style="fill:#5CC83B">
<path d="M16.040 18.134h0.007c0.241 0 0.48-0.070 0.673-0.198l0.052-0.034c0.011-0.007 0.023-0.014 0.035-0.022l0.61-0.504 14.549-12.006c-0.030-0.042-0.081-0.070-0.136-0.070h-31.661c-0.039 0-0.076 0.014-0.105 0.038l15.222 12.547c0.192 0.159 0.466 0.249 0.754 0.249zM0 7.001v17.797l10.905-8.809-10.905-8.988zM21.107 16.049l10.893 8.754v-17.742l-10.893 8.989zM17.643 18.906c-0.434 0.356-1.002 0.553-1.599 0.553-0.599 0-1.166-0.195-1.599-0.55l-2.498-2.060-11.948 9.65v0.031c0 0.092 0.079 0.17 0.171 0.17h31.66c0.091 0 0.169-0.078 0.169-0.17v-0.028l-11.938-9.592-2.419 1.997z"></path>
</svg>
</svg>
