<?xml version="1.0" encoding="utf-8"?>
<!-- Generator: Adobe Illustrator 24.1.0, SVG Export Plug-In . SVG Version: 6.00 Build 0)  -->
<svg version="1.1" id="Layer_1" xmlns="http://www.w3.org/2000/svg" xmlns:xlink="http://www.w3.org/1999/xlink" x="0px" y="0px"
	 viewBox="0 0 500 202" style="enable-background:new 0 0 500 202;" xml:space="preserve">
<style type="text/css">
	.st0{fill:#FFFFFF;}
</style>
<g>
	<rect y="25.69" class="st0" width="11.38" height="75"/>
	<polygon class="st0" points="78.35,100.69 42.21,47.92 42.21,100.69 30.84,100.69 30.84,25.69 41.27,25.69 77.4,78.36 77.4,25.69 
		88.78,25.69 88.78,100.69 	"/>
	<polygon class="st0" points="176.52,100.69 176.52,25.69 230.35,25.69 230.35,35.91 187.9,35.91 187.9,57.82 224.97,57.82 
		224.97,67.93 187.9,67.93 187.9,90.47 230.35,90.47 230.35,100.69 	"/>
	<path class="st0" d="M267.62,101.32c-11.27,0-19.38-2.63-26.55-9.9l7.59-7.48c5.48,5.48,11.48,7.16,19.17,7.16
		c9.8,0,15.49-4.21,15.49-11.48c0-3.27-0.95-6-2.95-7.79c-1.9-1.79-3.79-2.53-8.21-3.16l-8.85-1.27c-6.11-0.84-10.95-2.95-14.22-6
		c-3.69-3.48-5.47-8.22-5.47-14.32c0-13.06,9.48-22.02,25.07-22.02c9.9,0,16.85,2.53,23.28,8.53l-7.27,7.16
		c-4.64-4.43-10.01-5.79-16.33-5.79c-8.85,0-13.69,5.06-13.69,11.69c0,2.74,0.84,5.16,2.84,6.95c1.9,1.69,4.95,2.95,8.43,3.48
		l8.53,1.27c6.95,1.05,10.85,2.74,14.01,5.58c4.11,3.58,6.11,8.96,6.11,15.38C294.59,93.11,283.32,101.32,267.62,101.32"/>
	<polygon class="st0" points="329.22,35.91 329.22,100.69 317.85,100.69 317.85,35.91 297.2,35.91 297.2,25.69 349.87,25.69 
		349.87,35.91 	"/>
	<path class="st0" d="M68.35,201.31c-11.27,0-19.38-2.63-26.54-9.9l7.58-7.48c5.48,5.48,11.48,7.16,19.17,7.16
		c9.79,0,15.48-4.21,15.48-11.48c0-3.26-0.95-6-2.95-7.79c-1.9-1.79-3.79-2.53-8.22-3.16l-8.85-1.27c-6.11-0.84-10.95-2.95-14.22-6
		c-3.69-3.48-5.48-8.22-5.48-14.32c0-13.06,9.48-22.02,25.07-22.02c9.9,0,16.85,2.53,23.28,8.53l-7.27,7.16
		c-4.63-4.42-10-5.79-16.33-5.79c-8.85,0-13.69,5.06-13.69,11.69c0,2.74,0.84,5.16,2.85,6.95c1.9,1.69,4.95,2.95,8.43,3.48
		l8.53,1.27c6.95,1.05,10.85,2.74,14.01,5.58c4.11,3.58,6.11,8.96,6.11,15.38C95.31,193.09,84.04,201.31,68.35,201.31"/>
	<path class="st0" d="M201.9,201.31c-15.27,0-26.86-10.43-26.86-25.91v-49.72h11.38v49.19c0,10,6.11,16.22,15.49,16.22
		c9.37,0,15.59-6.22,15.59-16.22v-49.19h11.38v49.72C228.86,190.88,217.17,201.31,201.9,201.31"/>
	<path class="st0" d="M284.42,140.95c-3.16-3.48-7.37-5.06-12.75-5.06h-13.8v54.56h13.8c5.37,0,9.59-1.58,12.75-5.05
		c3.89-4.32,4-12.43,4-22.75C288.42,152.33,288.31,145.27,284.42,140.95 M292.21,193.62c-4.74,4.74-11.59,7.06-19.38,7.06H246.5v-75
		h26.33c7.79,0,14.64,2.32,19.38,7.06c8.11,8.11,7.58,19.07,7.58,29.91C299.8,173.5,300.32,185.51,292.21,193.62"/>
	<rect x="317.85" y="125.68" class="st0" width="11.38" height="75"/>
	<polygon class="st0" points="140,125.68 127.88,125.68 101.87,200.67 113.98,200.67 133.94,143.13 153.9,200.67 166.01,200.67 	"/>
	<polygon class="st0" points="140,100.69 127.88,100.69 101.87,25.69 113.98,25.69 133.94,83.23 153.9,25.7 166.01,25.7 	"/>
	<path class="st0" d="M438.04,106.54c-2.17,0-4.32,0.09-6.45,0.26v37.02l6.45,4.92l6.45-4.92V106.8
		C442.36,106.63,440.21,106.54,438.04,106.54"/>
	<path class="st0" d="M427.28,171.52c2.83-2.64,5.73-5.2,8.71-7.68c-16.7-13.5-35.58-24.42-56.03-32.14
		c-1.35,1.44-2.65,2.93-3.89,4.46C395.32,144.7,412.66,156.76,427.28,171.52"/>
	<path class="st0" d="M446.98,173.38c14.99-15.6,32.97-28.32,53.02-37.22c-1.24-1.54-2.54-3.03-3.89-4.46
		c-36.72,13.87-68.38,38.04-91.47,68.98h21.03c3.76-6.01,7.9-11.76,12.37-17.22c4.47,5.46,8.61,11.21,12.37,17.22h21.02
		C464.11,190.85,455.92,181.72,446.98,173.38"/>
	<path class="st0" d="M396.93,83.46l18.36,14.16c7.27-1.86,14.89-2.85,22.75-2.85c7.85,0,15.48,0.99,22.75,2.85l18.36-14.16
		c-12.71-5.09-26.58-7.89-41.1-7.89C423.51,75.56,409.64,78.37,396.93,83.46"/>
	<path class="st0" d="M438.04,72.97c11.91,0,23.56,1.83,34.75,5.43c-11.5-8.64-24.31-15.62-38.08-20.59
		c-13.37,2.64-26.55,6.14-39.46,10.46c9.53,0.61,18.83,2.51,27.77,5.68C427.96,73.3,432.98,72.97,438.04,72.97"/>
	<path class="st0" d="M479.15,14.85L460.79,0.69c-7.27,1.86-14.9,2.85-22.75,2.85c-7.85,0-15.48-0.99-22.75-2.85l-18.37,14.16
		c12.71,5.09,26.59,7.89,41.11,7.89C452.57,22.74,466.44,19.94,479.15,14.85"/>
	<path class="st0" d="M488.14,30.25L488.14,30.25c-0.18,0-0.36,0-0.55,0c-11.9,0-23.49-1.98-34.53-5.9
		c-4.95,0.65-9.96,0.98-15.02,0.98c-11.92,0-23.57-1.82-34.75-5.43c24.45,18.36,54.82,29.24,87.74,29.24c0.18,0,0.36-0.01,0.54-0.01
		L488.14,30.25z"/>
	<path class="st0" d="M443.15,43.88c-5.49-1.86-10.84-4.04-16.05-6.52c-14.56,3.03-28.78,6.98-42.59,11.8l0,0l3.44,18.9
		c25.93-9.31,53.38-15.4,81.89-17.8C460.76,48.95,451.84,46.83,443.15,43.88"/>
</g>
</svg>
