<?xml version="1.0" encoding="UTF-8"?>
<svg width="85px" height="57px" viewBox="0 0 85 57" version="1.1" xmlns="http://www.w3.org/2000/svg" xmlns:xlink="http://www.w3.org/1999/xlink">
    <!-- Generator: Sketch 48.2 (47327) - http://www.bohemiancoding.com/sketch -->
    <title>Group 60@3x</title>
    <desc>Created with Sketch.</desc>
    <defs></defs>
    <g id="Page-1" stroke="none" stroke-width="1" fill="none" fill-rule="evenodd">
        <g id="Group-60" fill="#FFFFFF">
            <path d="M29,37 C28.6,37.2 28.3,37.3 27.9,37.5 C28.1,37.9 28.3,38.2 28.5,38.6 C28.9,38.4 29.3,38.2 29.6,38 C29.4,37.7 29.2,37.3 29,37" id="Shape"></path>
            <path d="M4.8,24.2 L1.5,21.6 C1.5,21.6 4.6,16.7 10.1,17.2 C10.1,17.2 14.8,17.4 16.3,21.2 C16.3,21.2 17.9,26.3 14.2,29.6 C14.2,29.6 8.2,34.8 5.9,36.1 L8.7,34.9 L17,34.9 L17,39 L1.3,39 L1.3,35.1 L10,28.1 C11.8,26.6 13.2,23.6 11,21.8 C10.4,21.3 9.7,21.1 8.8,21.3 C7.1,21.6 5.6,23.2 4.8,24.2" id="Shape"></path>
            <path d="M45.9,21.4 L45.9,17.5 L60.3,17.5 L60.3,21 L54.9,26.3 C54.9,26.3 59.4,26.8 60.5,31 C61.7,35.8 57.5,39.8 52.5,39.4 C52.5,39.4 48.2,39.6 44.8,35.6 L47.8,32.7 C47.8,32.7 50,35.6 53.2,35.2 C53.2,35.2 56,35.2 56.1,32.7 C56.3,29.5 52.4,29.3 50,29.6 L49.3,26.7 L56.2,19.8 L53.5,21.4 L45.9,21.4 L45.9,21.4 Z" id="Shape"></path>
            <path d="M73.6,17 C79.8,17 84.9,22 84.9,28.2 C84.9,34.4 79.8,39.4 73.6,39.4 C67.4,39.4 62.3,34.4 62.3,28.2 C62.4,22 67.4,17 73.6,17 M73.6,21.3 C77.2,21.3 80.1,24.4 80.1,28.2 C80.1,32 77.2,35.1 73.6,35.1 C70,35.1 67.1,32 67.1,28.2 C67.1,24.4 70.1,21.3 73.6,21.3" id="Shape"></path>
            <path d="M31.7,18.9 C32,18.6 32.2,18.4 32.5,18.1 C32.2,17.8 32,17.5 31.7,17.2 C31.4,17.5 31.1,17.8 30.9,18.1 C31.1,18.3 31.4,18.6 31.7,18.9" id="Shape"></path>
            <path d="M31.7,15.7 C32.1,15.3 32.4,15 32.8,14.6 C32.4,14.2 32.1,13.7 31.7,13.3 C31.3,13.7 30.9,14.1 30.6,14.6 C31,15 31.3,15.3 31.7,15.7" id="Shape"></path>
            <path d="M33.3,17.5 C33.7,17.2 34,17 34.4,16.7 C34.1,16.3 33.9,15.9 33.6,15.5 C33.2,15.8 32.8,16.1 32.5,16.4 C32.7,16.8 33,17.2 33.3,17.5" id="Shape"></path>
            <path d="M35.5,21.1 C35.4,20.8 35.2,20.5 35.1,20.2 C35.4,20.1 35.8,20 36.1,19.9 C36.2,20.2 36.4,20.5 36.5,20.9 C36.2,20.9 35.8,21 35.5,21.1" id="Shape"></path>
            <path d="M34.1,21.6 C34,21.4 33.8,21.1 33.6,20.9 C33.9,20.8 34.1,20.6 34.4,20.5 C34.6,20.8 34.7,21 34.8,21.3 C34.6,21.4 34.3,21.5 34.1,21.6" id="Shape"></path>
            <path d="M34.6,19.3 C34.4,19 34.2,18.6 34,18.3 C34.4,18.1 34.7,17.9 35.1,17.7 C35.3,18.1 35.5,18.5 35.7,18.8 C35.3,19 35,19.2 34.6,19.3" id="Shape"></path>
            <path d="M33,20.1 C32.8,19.8 32.5,19.6 32.3,19.3 C32.6,19.1 32.9,18.9 33.2,18.7 C33.4,19 33.6,19.3 33.9,19.6 C33.6,19.8 33.3,20 33,20.1" id="Shape"></path>
            <path d="M30.1,17.5 C30.4,17.2 30.6,16.8 30.9,16.5 C30.5,16.2 30.2,15.9 29.8,15.6 C29.5,16 29.3,16.4 29,16.8 C29.4,17 29.8,17.3 30.1,17.5" id="Shape"></path>
            <path d="M31.7,37.5 C32,37.8 32.2,38 32.5,38.3 C32.2,38.6 32,38.9 31.7,39.2 C31.4,38.9 31.1,38.6 30.9,38.3 C31.1,38 31.4,37.7 31.7,37.5" id="Shape"></path>
            <path d="M31.7,40.7 C32.1,41.1 32.4,41.4 32.8,41.8 C32.4,42.2 32.1,42.7 31.7,43.1 C31.3,42.7 30.9,42.3 30.6,41.8 C31,41.4 31.3,41 31.7,40.7" id="Shape"></path>
            <path d="M33.3,38.8 C33.7,39.1 34,39.3 34.4,39.6 C34.1,40 33.9,40.4 33.6,40.8 C33.2,40.5 32.8,40.2 32.5,39.9 C32.7,39.5 33,39.2 33.3,38.8" id="Shape"></path>
            <path d="M30.1,38.8 C30.4,39.1 30.6,39.5 30.9,39.8 C30.5,40.1 30.2,40.4 29.8,40.7 C29.5,40.3 29.3,39.9 29,39.5 C29.4,39.3 29.8,39.1 30.1,38.8" id="Shape"></path>
            <path d="M37.1,20.5 C37.5,20.4 37.8,20.4 38.2,20.4 C38.2,20 38.1,19.6 38,19.2 C37.6,19.3 37.2,19.3 36.8,19.4 C37,19.8 37,20.2 37.1,20.5" id="Shape"></path>
            <path d="M39,18 C39.5,17.9 40,17.8 40.6,17.8 C40.6,17.2 40.5,16.7 40.4,16.1 C39.8,16.2 39.3,16.3 38.7,16.5 C38.8,16.9 38.9,17.5 39,18" id="Shape"></path>
            <path d="M39.2,20.4 L40.5,20.4 L40.5,19 C40,19 39.5,19 39,19.1 C39.1,19.5 39.2,19.9 39.2,20.4" id="Shape"></path>
            <path d="M39.2,22.6 C39.2,22.2 39.3,21.8 39.3,21.4 C39.7,21.4 40.1,21.5 40.5,21.6 C40.4,22 40.4,22.4 40.3,22.9 C40,22.8 39.6,22.7 39.2,22.6" id="Shape"></path>
            <path d="M37.5,22.4 C37.5,22.1 37.4,21.7 37.4,21.4 C37.8,21.4 38.1,21.4 38.5,21.5 L38.5,22.6 C38.1,22.4 37.8,22.4 37.5,22.4" id="Shape"></path>
            <path d="M35.9,22.4 C35.8,22.1 35.7,21.9 35.6,21.6 C35.9,21.5 36.2,21.5 36.5,21.5 C36.6,21.8 36.6,22.1 36.7,22.4 C36.5,22.3 36.2,22.3 35.9,22.4" id="Shape"></path>
            <path d="M36.6,18.6 C37,18.5 37.4,18.4 37.9,18.3 C37.8,17.8 37.7,17.4 37.5,16.9 C37.1,17.1 36.6,17.2 36.2,17.4 C36.3,17.7 36.5,18.1 36.6,18.6" id="Shape"></path>
            <path d="M26.3,35.7 C26.4,36.1 26.4,36.4 26.5,36.8 C26.1,36.9 25.7,37 25.3,37 C25.2,36.6 25.2,36.2 25.1,35.8 C25.6,35.8 25.9,35.8 26.3,35.7" id="Shape"></path>
            <path d="M26.1,34 C26.1,34.3 26.2,34.7 26.2,35 C25.8,35 25.5,35 25.1,34.9 L25.1,33.8 C25.4,33.9 25.8,33.9 26.1,34" id="Shape"></path>
            <path d="M24.5,38.3 C24.6,38.8 24.7,39.3 24.8,39.8 C24.2,40 23.7,40.1 23.1,40.2 C23,39.6 23,39.1 22.9,38.5 C23.4,38.5 24,38.4 24.5,38.3" id="Shape"></path>
            <path d="M26.8,37.7 C26.9,38.1 27.1,38.5 27.3,39 C26.9,39.2 26.4,39.3 26,39.5 C25.9,39 25.7,38.6 25.6,38.1 C26,38 26.4,37.9 26.8,37.7" id="Shape"></path>
            <path d="M30.7,36.1 C30.4,36.3 30.1,36.4 29.9,36.6 C30.1,36.9 30.3,37.2 30.5,37.5 C30.8,37.3 31.1,37.1 31.4,36.9 C31.2,36.6 30.9,36.3 30.7,36.1" id="Shape"></path>
            <path d="M29.8,34.9 C29.5,35 29.3,35.1 29,35.2 C29.1,35.5 29.3,35.7 29.5,36 C29.8,35.9 30.1,35.7 30.3,35.6 C30.1,35.3 30,35.1 29.8,34.9" id="Shape"></path>
            <path d="M28.1,35.4 C27.8,35.5 27.4,35.6 27.1,35.6 C27.2,35.9 27.4,36.3 27.5,36.6 C27.9,36.5 28.2,36.4 28.6,36.2 C28.4,36 28.3,35.7 28.1,35.4" id="Shape"></path>
            <path d="M27.6,34 L26.8,34 C26.8,34.3 26.9,34.6 27,34.9 C27.3,34.9 27.6,34.8 27.9,34.8 C27.8,34.5 27.7,34.3 27.6,34" id="Shape"></path>
            <path d="M24.3,35.9 C24.3,36.3 24.3,36.8 24.4,37.2 C23.9,37.3 23.4,37.3 22.9,37.3 L22.9,35.9 C23.4,35.9 23.8,35.9 24.3,35.9" id="Shape"></path>
            <path d="M40.6,25.1 C40.9,25.3 41.3,25.5 41.6,25.7 C41.8,25.3 42,25 42.2,24.6 C41.8,24.4 41.5,24.2 41.1,24.1 C40.9,24.5 40.7,24.8 40.6,25.1" id="Shape"></path>
            <path d="M37.3,23.9 C37.6,24 37.8,24 38.1,24.1 C38.1,23.8 38.2,23.5 38.2,23.2 C37.9,23.1 37.6,23.1 37.3,23 L37.3,23.9" id="Shape"></path>
            <path d="M39,24.4 C39.3,24.5 39.6,24.7 40,24.8 C40.1,24.5 40.2,24.1 40.3,23.8 C39.9,23.7 39.6,23.6 39.2,23.5 C39.1,23.8 39.1,24.1 39,24.4" id="Shape"></path>
            <path d="M43.6,24.2 C44.1,24.4 44.5,24.7 45,24.9 C45.3,24.4 45.6,23.9 45.9,23.4 C45.4,23.2 44.9,22.9 44.3,22.7 C44.1,23.2 43.8,23.7 43.6,24.2" id="Shape"></path>
            <path d="M42.4,26.2 C42.8,26.5 43.1,26.7 43.5,27 C43.8,26.6 44.1,26.3 44.4,25.9 C44,25.6 43.6,25.4 43.2,25.1 C42.9,25.5 42.6,25.9 42.4,26.2" id="Shape"></path>
            <path d="M41.4,23.2 C41.8,23.3 42.2,23.5 42.6,23.7 C42.8,23.3 43,22.8 43.1,22.3 C42.7,22.2 42.2,22 41.7,21.9 C41.6,22.4 41.5,22.8 41.4,23.2" id="Shape"></path>
            <path d="M22.9,31 C22.7,31.3 22.6,31.7 22.4,32 C22,31.8 21.7,31.7 21.3,31.5 C21.5,31.1 21.7,30.8 21.9,30.4 C22.2,30.7 22.6,30.9 22.9,31" id="Shape"></path>
            <path d="M24.8,28.1 C24.6,28.3 24.4,28.5 24.3,28.8 C24.1,28.6 23.9,28.4 23.7,28.1 C23.9,27.9 24.1,27.6 24.3,27.4 C24.4,27.6 24.6,27.9 24.8,28.1" id="Shape"></path>
            <path d="M23.8,29.5 C23.6,29.8 23.4,30.1 23.3,30.4 C23,30.2 22.7,30 22.5,29.7 C22.7,29.4 22.9,29.1 23.2,28.8 C23.3,29.1 23.5,29.3 23.8,29.5" id="Shape"></path>
            <path d="M19.9,32.1 C19.7,32.6 19.4,33 19.2,33.5 C18.7,33.3 18.1,33.1 17.6,32.8 C17.9,32.3 18.2,31.8 18.5,31.3 C19,31.6 19.4,31.8 19.9,32.1" id="Shape"></path>
            <path d="M22.1,33 C22,33.4 21.8,33.9 21.7,34.3 C21.2,34.2 20.8,34.1 20.3,33.9 C20.5,33.4 20.6,33 20.8,32.5 C21.3,32.7 21.7,32.8 22.1,33" id="Shape"></path>
            <path d="M26.3,32.4 C26,32.3 25.8,32.3 25.5,32.2 C25.5,32.5 25.4,32.8 25.4,33.1 C25.7,33.2 26,33.2 26.3,33.3 C26.2,33 26.2,32.7 26.3,32.4" id="Shape"></path>
            <path d="M24.3,33.7 C23.9,33.6 23.5,33.5 23.2,33.4 C23.1,33.8 23.1,34.2 23,34.6 C23.4,34.7 23.8,34.7 24.3,34.8 C24.2,34.4 24.3,34 24.3,33.7" id="Shape"></path>
            <path d="M24.6,31.9 C24.3,31.8 23.9,31.6 23.6,31.5 C23.5,31.8 23.4,32.2 23.3,32.5 C23.7,32.6 24,32.7 24.4,32.8 C24.4,32.6 24.5,32.2 24.6,31.9" id="Shape"></path>
            <path d="M25,30.4 C24.8,30.2 24.5,30.1 24.3,29.9 C24.2,30.2 24,30.4 23.9,30.7 C24.2,30.9 24.4,31 24.7,31.2 C24.8,31 24.9,30.7 25,30.4" id="Shape"></path>
            <path d="M21.2,30 C21,30.4 20.7,30.7 20.5,31.1 C20.1,30.9 19.7,30.6 19.3,30.3 C19.6,29.9 19.9,29.5 20.2,29.2 C20.4,29.5 20.8,29.7 21.2,30" id="Shape"></path>
            <path d="M40.7,30.9 C40.9,31.2 41,31.6 41.2,31.9 C41.6,31.7 41.9,31.6 42.3,31.4 C42.1,31 41.9,30.7 41.7,30.3 C41.3,30.6 41,30.7 40.7,30.9" id="Shape"></path>
            <path d="M39.6,26.8 C39.8,27 40.1,27.2 40.3,27.5 C40.5,27.2 40.7,26.9 40.9,26.6 C40.6,26.4 40.4,26.2 40.1,25.9 C40,26.2 39.8,26.5 39.6,26.8" id="Shape"></path>
            <path d="M38.7,28 C38.9,28.2 39.1,28.4 39.2,28.7 C39.4,28.5 39.6,28.3 39.8,28 C39.6,27.8 39.4,27.6 39.2,27.3 C39.1,27.5 38.9,27.8 38.7,28" id="Shape"></path>
            <path d="M41,28.2 C41.3,28.5 41.5,28.8 41.8,29.1 C42.1,28.8 42.4,28.5 42.7,28.2 C42.4,27.9 42.1,27.6 41.8,27.3 C41.6,27.6 41.3,27.9 41,28.2" id="Shape"></path>
            <path d="M39.8,29.4 C40,29.7 40.2,30 40.3,30.3 C40.6,30.1 40.9,29.9 41.1,29.6 C40.9,29.3 40.7,29 40.4,28.7 C40.3,29 40,29.2 39.8,29.4" id="Shape"></path>
            <path d="M43.7,31.9 C43.9,32.4 44.2,32.8 44.4,33.3 C44.9,33.1 45.5,32.9 46,32.6 C45.7,32.1 45.4,31.6 45.1,31.1 C44.6,31.4 44.2,31.7 43.7,31.9" id="Shape"></path>
            <path d="M38.5,26 C38.7,26.1 39,26.3 39.2,26.4 C39.3,26.1 39.4,25.8 39.5,25.6 C39.2,25.5 39,25.3 38.7,25.2 C38.7,25.4 38.6,25.7 38.5,26" id="Shape"></path>
            <path d="M41.5,32.8 C41.6,33.2 41.8,33.6 41.9,34.1 C42.4,34 42.8,33.9 43.3,33.7 C43.1,33.2 43,32.8 42.8,32.3 C42.3,32.5 41.9,32.7 41.5,32.8" id="Shape"></path>
            <path d="M42.4,29.8 C42.7,30.2 42.9,30.5 43.1,30.9 C43.5,30.7 43.9,30.4 44.3,30.1 C44,29.7 43.7,29.4 43.4,29 C43.1,29.3 42.8,29.6 42.4,29.8" id="Shape"></path>
            <path d="M22.9,25.3 C22.6,25.5 22.2,25.7 21.9,25.9 C21.7,25.6 21.5,25.2 21.3,24.8 C21.7,24.6 22,24.4 22.4,24.3 C22.6,24.6 22.8,24.9 22.9,25.3" id="Shape"></path>
            <path d="M19.9,24.3 C19.4,24.5 19,24.8 18.5,25.1 C18.2,24.6 17.9,24.1 17.6,23.6 C18.1,23.3 18.6,23.1 19.2,22.9 C19.4,23.4 19.7,23.9 19.9,24.3" id="Shape"></path>
            <path d="M21.2,26.4 C20.8,26.7 20.5,26.9 20.1,27.2 C19.8,26.8 19.5,26.5 19.2,26.1 C19.6,25.8 20,25.5 20.4,25.3 C20.7,25.6 20.9,26 21.2,26.4" id="Shape"></path>
            <path d="M22.5,28.2 C22.2,27.9 22,27.6 21.7,27.3 C21.4,27.6 21.1,27.9 20.8,28.2 C21.1,28.5 21.4,28.8 21.7,29.1 C22,28.8 22.2,28.5 22.5,28.2" id="Shape"></path>
            <path d="M23.7,26.9 C23.5,26.6 23.3,26.3 23.2,26 C22.9,26.2 22.6,26.4 22.4,26.7 C22.6,27 22.8,27.3 23.1,27.6 C23.3,27.4 23.5,27.2 23.7,26.9" id="Shape"></path>
            <path d="M22.1,23.4 C21.7,23.5 21.3,23.7 20.9,23.9 C20.7,23.5 20.5,23 20.4,22.5 C20.8,22.4 21.3,22.2 21.8,22.1 C21.9,22.5 22,23 22.1,23.4" id="Shape"></path>
            <path d="M37.3,35.6 C37.2,36 37.2,36.3 37.1,36.7 C37.5,36.8 37.9,36.9 38.3,36.9 C38.4,36.5 38.4,36.1 38.4,35.7 C38.1,35.7 37.7,35.7 37.3,35.6" id="Shape"></path>
            <path d="M39,31.7 C39.1,32 39.1,32.3 39.2,32.6 C39.5,32.5 39.9,32.4 40.2,32.3 C40.1,32 40,31.6 39.9,31.3 C39.6,31.4 39.3,31.5 39,31.7" id="Shape"></path>
            <path d="M37.5,32.1 L37.5,32.9 C37.8,32.8 38.1,32.8 38.4,32.7 C38.4,32.4 38.3,32.1 38.3,31.8 C38.1,32 37.8,32 37.5,32.1" id="Shape"></path>
            <path d="M39.3,33.6 C39.3,34 39.4,34.4 39.4,34.8 C39.8,34.7 40.2,34.7 40.6,34.6 C40.5,34.2 40.5,33.8 40.4,33.3 C40,33.4 39.7,33.5 39.3,33.6" id="Shape"></path>
            <path d="M37.5,33.9 C37.5,34.2 37.5,34.6 37.4,34.9 C37.8,34.9 38.1,34.9 38.5,34.8 L38.5,33.7 C38.2,33.8 37.9,33.9 37.5,33.9" id="Shape"></path>
            <path d="M39.2,38.2 C39.1,38.7 39,39.2 38.9,39.7 C39.5,39.8 40,40 40.6,40.1 C40.7,39.5 40.7,39 40.8,38.4 C40.2,38.3 39.7,38.3 39.2,38.2" id="Shape"></path>
            <path d="M38.5,30.3 C38.6,30.6 38.7,30.8 38.8,31.1 C39.1,31 39.3,30.8 39.6,30.6 C39.5,30.3 39.3,30.1 39.2,29.8 C39,30 38.7,30.2 38.5,30.3" id="Shape"></path>
            <path d="M36.9,37.7 C36.8,38.1 36.6,38.5 36.5,39 C36.9,39.2 37.4,39.3 37.8,39.5 C37.9,39 38.1,38.6 38.2,38.1 C37.7,37.9 37.3,37.8 36.9,37.7" id="Shape"></path>
            <path d="M32.9,36.1 C33.2,36.3 33.5,36.4 33.7,36.6 C33.5,36.9 33.3,37.2 33.1,37.5 C32.8,37.3 32.5,37.1 32.2,36.9 C32.5,36.6 32.7,36.3 32.9,36.1" id="Shape"></path>
            <path d="M33.8,34.8 C34.1,34.9 34.3,35 34.6,35.1 C34.5,35.4 34.3,35.6 34.2,35.9 C33.9,35.8 33.6,35.7 33.4,35.5 C33.5,35.3 33.7,35.1 33.8,34.8" id="Shape"></path>
            <path d="M34.7,37 C35.1,37.2 35.4,37.3 35.8,37.4 C35.6,37.8 35.4,38.2 35.2,38.5 C34.8,38.3 34.4,38.1 34.1,37.9 C34.3,37.6 34.5,37.3 34.7,37" id="Shape"></path>
            <path d="M35.5,35.4 C35.8,35.5 36.2,35.6 36.5,35.6 C36.4,35.9 36.3,36.3 36.1,36.6 C35.7,36.5 35.4,36.4 35,36.3 C35.2,36 35.4,35.7 35.5,35.4" id="Shape"></path>
            <path d="M31.8,35.2 C32,35.4 32.2,35.6 32.5,35.7 C32.3,35.9 32.1,36.1 31.8,36.3 C31.6,36.1 31.4,35.9 31.2,35.7 C31.4,35.6 31.6,35.4 31.8,35.2" id="Shape"></path>
            <path d="M36,33.9 L36.8,33.9 C36.8,34.2 36.7,34.5 36.6,34.8 C36.3,34.8 36,34.7 35.7,34.7 C35.8,34.5 35.9,34.2 36,33.9" id="Shape"></path>
            <path d="M39.4,35.8 C39.4,36.2 39.4,36.7 39.3,37.1 C39.8,37.1 40.3,37.2 40.8,37.2 C40.8,36.7 40.8,36.3 40.7,35.8 C40.3,35.8 39.8,35.8 39.4,35.8" id="Shape"></path>
            <path d="M26.3,20.6 C25.9,20.5 25.6,20.5 25.2,20.5 C25.2,20.1 25.3,19.7 25.3,19.3 C25.7,19.4 26.1,19.4 26.5,19.5 C26.5,19.9 26.4,20.2 26.3,20.6" id="Shape"></path>
            <path d="M30.6,20.3 C30.3,20.1 30,20 29.8,19.8 C30,19.5 30.2,19.2 30.4,18.9 C30.7,19.1 31,19.3 31.3,19.5 C31.1,19.7 30.8,20 30.6,20.3" id="Shape"></path>
            <path d="M29.7,21.5 C29.4,21.4 29.2,21.3 28.9,21.2 C29,20.9 29.2,20.7 29.3,20.4 C29.6,20.5 29.9,20.6 30.1,20.8 C30,21 29.9,21.3 29.7,21.5" id="Shape"></path>
            <path d="M28.9,19.4 C28.5,19.2 28.2,19.1 27.8,19 C28,18.6 28.2,18.2 28.4,17.9 C28.8,18.1 29.2,18.3 29.5,18.5 C29.2,18.7 29,19 28.9,19.4" id="Shape"></path>
            <path d="M28.1,20.9 C27.8,20.8 27.4,20.7 27.1,20.7 C27.2,20.4 27.3,20 27.5,19.7 C27.9,19.8 28.2,19.9 28.6,20 C28.3,20.3 28.2,20.6 28.1,20.9" id="Shape"></path>
            <path d="M24.5,18.1 C24,18 23.5,18 22.9,17.9 C22.9,17.3 23,16.8 23.1,16.2 C23.7,16.3 24.2,16.4 24.8,16.6 C24.6,17 24.5,17.5 24.5,18.1" id="Shape"></path>
            <path d="M31.7,21.1 C31.5,20.9 31.3,20.7 31,20.6 C31.2,20.4 31.4,20.2 31.7,20 C31.9,20.2 32.1,20.4 32.3,20.6 C32.2,20.8 32,20.9 31.7,21.1" id="Shape"></path>
            <path d="M24.3,20.4 L23,20.4 C23,19.9 22.9,19.5 22.9,19 C23.4,19 23.9,19 24.4,19.1 C24.3,19.6 24.3,20 24.3,20.4" id="Shape"></path>
            <path d="M24.6,24.7 C24.5,24.4 24.5,24.1 24.4,23.8 C24.1,23.9 23.7,24 23.4,24.1 C23.5,24.4 23.6,24.8 23.7,25.1 C24,24.9 24.3,24.8 24.6,24.7" id="Shape"></path>
            <path d="M26,24.2 L26,23.4 C25.7,23.5 25.4,23.5 25.1,23.6 C25.1,23.9 25.2,24.2 25.2,24.5 C25.5,24.4 25.8,24.3 26,24.2" id="Shape"></path>
            <path d="M24.3,22.7 C24.3,22.3 24.2,21.9 24.2,21.5 C23.8,21.6 23.4,21.6 23,21.7 C23.1,22.1 23.1,22.5 23.2,23 C23.5,22.9 23.9,22.8 24.3,22.7" id="Shape"></path>
            <path d="M26,22.4 C26,22.1 26,21.7 26.1,21.4 C25.7,21.4 25.4,21.4 25,21.5 L25,22.6 C25.4,22.5 25.7,22.5 26,22.4" id="Shape"></path>
            <path d="M25.1,26 C25,25.7 24.9,25.5 24.8,25.2 C24.5,25.3 24.3,25.5 24,25.7 C24.1,26 24.3,26.2 24.4,26.5 C24.6,26.3 24.8,26.2 25.1,26" id="Shape"></path>
            <path d="M27.6,22.4 C27.7,22.1 27.8,21.9 27.8,21.6 C27.5,21.6 27.2,21.5 26.9,21.5 C26.8,21.8 26.8,22.1 26.7,22.4 C27,22.4 27.3,22.4 27.6,22.4" id="Shape"></path>
            <path d="M26.8,18.6 C26.4,18.5 26,18.4 25.5,18.3 C25.6,17.8 25.7,17.4 25.9,16.9 C26.3,17 26.8,17.2 27.2,17.4 C27.1,17.8 26.9,18.2 26.8,18.6" id="Shape"></path>
            <path d="M1.4,56.5 L1.4,52.2 L2,52.2 L2,54.4 L4.2,52.2 L5,52.2 L3,54 L4.9,56.6 L4.1,56.6 L2.6,54.4 L1.9,55.1 L1.9,56.6 L1.4,56.6 L1.4,56.5 Z M79.9,56.5 L81.6,52.2 L82.2,52.2 L84,56.5 L83.3,56.5 L82.8,55.2 L81,55.2 L80.5,56.5 L79.9,56.5 Z M81.1,54.8 L82.6,54.8 L82.1,53.6 C82,53.2 81.9,52.9 81.8,52.7 C81.7,53 81.7,53.3 81.6,53.5 L81.1,54.8 Z M78.8,52.2 L79.4,52.2 L79.4,56.5 L78.8,56.5 L78.8,52.2 Z M74.6,56.5 L74.6,52.2 L76.2,52.2 C76.5,52.2 76.8,52.2 77,52.3 C77.2,52.4 77.4,52.5 77.5,52.7 C77.6,52.9 77.7,53.1 77.7,53.3 C77.7,53.5 77.7,53.7 77.5,53.8 C77.4,54 77.2,54.1 77,54.2 C77.3,54.3 77.5,54.4 77.6,54.6 C77.7,54.8 77.8,55 77.8,55.3 C77.8,55.5 77.8,55.7 77.7,55.9 C77.6,56.1 77.5,56.2 77.4,56.3 C77.3,56.4 77.1,56.5 76.9,56.5 C76.7,56.5 76.5,56.6 76.2,56.6 L74.6,56.6 L74.6,56.5 Z M75.2,54 L76.1,54 C76.4,54 76.5,54 76.6,53.9 C76.7,53.9 76.9,53.8 76.9,53.7 C77,53.6 77,53.5 77,53.3 C77,53.2 77,53 76.9,52.9 C76.8,52.8 76.7,52.7 76.6,52.7 C76.5,52.7 76.3,52.6 75.9,52.6 L75,52.6 L75,54 L75.2,54 Z M75.2,56 L76.3,56 L76.7,56 C76.8,56 76.9,55.9 77,55.9 C77.1,55.8 77.2,55.8 77.2,55.7 C77.3,55.6 77.3,55.5 77.3,55.3 C77.3,55.1 77.3,55 77.2,54.9 C77.1,54.8 77,54.7 76.9,54.6 C76.8,54.6 76.5,54.5 76.3,54.5 L75.3,54.5 L75.3,56 L75.2,56 Z M70.1,56.5 L71.8,52.2 L72.4,52.2 L74.2,56.5 L73.5,56.5 L73,55.2 L71.2,55.2 L70.7,56.5 L70.1,56.5 Z M71.3,54.8 L72.8,54.8 L72.3,53.6 C72.2,53.2 72.1,52.9 72,52.7 C71.9,53 71.9,53.3 71.8,53.5 L71.3,54.8 Z M66.2,56.5 L66.2,52.2 L68.1,52.2 C68.5,52.2 68.8,52.2 69,52.3 C69.2,52.4 69.4,52.5 69.5,52.7 C69.6,52.9 69.7,53.1 69.7,53.4 C69.7,53.7 69.6,54 69.4,54.2 C69.2,54.4 68.9,54.5 68.5,54.6 C68.7,54.7 68.8,54.7 68.8,54.8 C69,55 69.1,55.1 69.3,55.4 L70.1,56.6 L69.4,56.6 L68.8,55.7 C68.6,55.4 68.5,55.2 68.4,55.1 C68.3,55 68.2,54.9 68.1,54.8 C68,54.7 67.9,54.7 67.8,54.7 L67.5,54.7 L66.8,54.7 L66.8,56.6 L66.2,56.6 L66.2,56.5 Z M66.8,54.1 L68,54.1 C68.3,54.1 68.5,54.1 68.6,54 C68.7,53.9 68.9,53.9 68.9,53.7 C69,53.6 69,53.5 69,53.3 C69,53.1 68.9,52.9 68.8,52.8 C68.7,52.7 68.4,52.6 68.1,52.6 L66.7,52.6 L66.7,54.1 L66.8,54.1 Z M61.7,56.5 L63.4,52.2 L64,52.2 L65.8,56.5 L65.1,56.5 L64.6,55.2 L62.8,55.2 L62.3,56.5 L61.7,56.5 Z M62.9,54.8 L64.4,54.8 L63.9,53.6 C63.8,53.2 63.7,52.9 63.6,52.7 C63.5,53 63.5,53.3 63.4,53.5 L62.9,54.8 Z M59.2,52.2 L59.8,52.2 L59.8,56.5 L59.2,56.5 L59.2,52.2 Z M54.7,56.5 L54.7,52.2 L56.2,52.2 C56.5,52.2 56.8,52.2 57,52.3 C57.2,52.4 57.5,52.5 57.6,52.6 C57.8,52.8 58,53 58.1,53.3 C58.2,53.6 58.3,53.9 58.3,54.3 C58.3,54.6 58.3,54.9 58.2,55.2 C58.1,55.5 58,55.7 57.9,55.8 C57.8,56 57.6,56.1 57.5,56.2 C57.4,56.3 57.2,56.4 57,56.4 C56.8,56.4 56.6,56.5 56.3,56.5 L54.7,56.5 Z M55.3,56 L56.2,56 C56.5,56 56.7,56 56.9,55.9 C57.1,55.8 57.2,55.8 57.3,55.7 C57.4,55.6 57.5,55.4 57.6,55.1 C57.7,54.9 57.7,54.6 57.7,54.3 C57.7,53.8 57.6,53.5 57.5,53.3 C57.4,53.1 57.2,52.9 57,52.8 C56.8,52.7 56.6,52.7 56.3,52.7 L55.4,52.7 L55.4,56 L55.3,56 Z M53.2,52.2 L53.8,52.2 L53.8,54.7 C53.8,55.1 53.8,55.5 53.7,55.7 C53.6,56 53.4,56.2 53.2,56.3 C52.9,56.5 52.6,56.5 52.2,56.5 C51.8,56.5 51.5,56.4 51.2,56.3 C50.9,56.2 50.8,56 50.6,55.7 C50.5,55.4 50.4,55.1 50.4,54.6 L50.4,52.1 L51,52.1 L51,54.6 C51,55 51,55.3 51.1,55.4 C51.2,55.6 51.3,55.7 51.5,55.8 C51.7,55.9 51.9,55.9 52.1,55.9 C52.5,55.9 52.8,55.8 53,55.6 C53.2,55.4 53.3,55 53.3,54.5 L53.3,52.2 L53.2,52.2 Z M45.8,56.5 L47.5,52.2 L48.1,52.2 L49.9,56.5 L49.2,56.5 L48.7,55.2 L46.9,55.2 L46.4,56.5 L45.8,56.5 Z M47,54.8 L48.5,54.8 L48,53.6 C47.9,53.2 47.8,52.9 47.7,52.7 C47.6,53 47.6,53.3 47.5,53.5 L47,54.8 Z M42,55.1 L42.5,55.1 C42.5,55.3 42.6,55.5 42.7,55.6 C42.8,55.7 42.9,55.9 43.1,55.9 C43.3,56 43.5,56 43.8,56 C44,56 44.2,56 44.4,55.9 C44.6,55.8 44.7,55.7 44.8,55.6 C44.9,55.5 44.9,55.4 44.9,55.2 C44.9,55.1 44.9,54.9 44.8,54.8 C44.7,54.7 44.6,54.6 44.4,54.5 C44.3,54.5 44,54.4 43.6,54.3 C43.2,54.2 42.9,54.1 42.8,54 C42.6,53.9 42.4,53.8 42.3,53.6 C42.2,53.4 42.1,53.3 42.1,53.1 C42.1,52.9 42.2,52.7 42.3,52.5 C42.4,52.3 42.6,52.2 42.8,52.1 C43,52 43.3,52 43.6,52 C43.9,52 44.2,52.1 44.5,52.2 C44.7,52.3 44.9,52.5 45.1,52.7 C45.2,52.9 45.3,53.1 45.3,53.4 L44.7,53.4 C44.7,53.1 44.6,52.9 44.4,52.8 C44.2,52.7 44,52.6 43.6,52.6 C43.3,52.6 43,52.7 42.8,52.8 C42.6,52.9 42.6,53.1 42.6,53.3 C42.6,53.5 42.7,53.6 42.8,53.7 C42.9,53.8 43.2,53.9 43.7,54 C44.2,54.1 44.5,54.2 44.7,54.3 C45,54.4 45.1,54.6 45.3,54.7 C45.4,54.9 45.5,55.1 45.5,55.3 C45.5,55.5 45.4,55.7 45.3,56 C45.2,56.2 45,56.4 44.7,56.5 C44.5,56.6 44.2,56.7 43.9,56.7 C43.5,56.7 43.2,56.6 42.9,56.5 C42.6,56.4 42.4,56.2 42.3,56 C42.1,55.7 42,55.4 42,55.1 L42,55.1 Z M36.8,56.5 L36.8,52.2 L39.7,52.2 L39.7,52.7 L37.3,52.7 L37.3,54 L39.3,54 L39.3,54.5 L37.3,54.5 L37.3,56.5 L36.8,56.5 Z M31.9,54.4 C31.9,53.7 32.1,53.1 32.5,52.7 C32.9,52.3 33.4,52.1 34,52.1 C34.4,52.1 34.8,52.2 35.1,52.4 C35.4,52.6 35.7,52.9 35.8,53.2 C36,53.5 36.1,53.9 36.1,54.4 C36.1,54.8 36,55.2 35.8,55.6 C35.6,55.9 35.4,56.2 35,56.4 C34.7,56.6 34.3,56.7 33.9,56.7 C33.5,56.7 33.1,56.6 32.8,56.4 C32.5,56.2 32.2,55.9 32.1,55.6 C32,55.2 31.9,54.8 31.9,54.4 L31.9,54.4 Z M32.5,54.4 C32.5,54.9 32.6,55.3 32.9,55.6 C33.2,55.9 33.5,56.1 34,56.1 C34.4,56.1 34.8,55.9 35.1,55.6 C35.4,55.3 35.5,54.9 35.5,54.3 C35.5,53.9 35.4,53.6 35.3,53.4 C35.2,53.1 35,52.9 34.8,52.8 C34.6,52.7 34.3,52.6 34,52.6 C33.6,52.6 33.2,52.7 32.9,53 C32.7,53.3 32.5,53.8 32.5,54.4 L32.5,54.4 Z M25.3,56.5 L25.3,52.2 L26.2,52.2 L27.2,55.3 C27.3,55.6 27.4,55.8 27.4,55.9 C27.4,55.7 27.5,55.5 27.6,55.2 L28.6,52.2 L29.4,52.2 L29.4,56.5 L28.8,56.5 L28.8,52.9 L27.5,56.5 L27,56.5 L25.7,52.8 L25.7,56.5 L25.3,56.5 L25.3,56.5 Z M20.4,54.4 C20.4,53.7 20.6,53.1 21,52.7 C21.4,52.3 21.9,52.1 22.5,52.1 C22.9,52.1 23.3,52.2 23.6,52.4 C23.9,52.6 24.2,52.9 24.3,53.2 C24.5,53.5 24.6,53.9 24.6,54.4 C24.6,54.8 24.5,55.2 24.3,55.6 C24.1,55.9 23.9,56.2 23.5,56.4 C23.2,56.6 22.8,56.7 22.4,56.7 C22,56.7 21.6,56.6 21.3,56.4 C21,56.2 20.7,55.9 20.6,55.6 C20.5,55.2 20.4,54.8 20.4,54.4 L20.4,54.4 Z M21,54.4 C21,54.9 21.1,55.3 21.4,55.6 C21.7,55.9 22,56.1 22.5,56.1 C22.9,56.1 23.3,55.9 23.6,55.6 C23.9,55.3 24,54.9 24,54.3 C24,53.9 23.9,53.6 23.8,53.4 C23.7,53.1 23.5,52.9 23.3,52.8 C23.1,52.7 22.8,52.6 22.5,52.6 C22.1,52.6 21.7,52.7 21.4,53 C21.2,53.3 21,53.8 21,54.4 L21,54.4 Z M16.2,56.5 L16.2,52.2 L17.7,52.2 C18,52.2 18.3,52.2 18.5,52.3 C18.7,52.4 19,52.5 19.1,52.6 C19.3,52.8 19.5,53 19.6,53.3 C19.7,53.6 19.8,53.9 19.8,54.3 C19.8,54.6 19.8,54.9 19.7,55.2 C19.6,55.5 19.5,55.7 19.4,55.8 C19.3,56 19.1,56.1 19,56.2 C18.9,56.3 18.7,56.4 18.5,56.4 C18.3,56.4 18.1,56.5 17.8,56.5 L16.2,56.5 Z M16.8,56 L17.7,56 C18,56 18.2,56 18.4,55.9 C18.6,55.8 18.7,55.8 18.8,55.7 C18.9,55.6 19,55.4 19.1,55.1 C19.2,54.9 19.2,54.6 19.2,54.3 C19.2,53.8 19.1,53.5 19,53.3 C18.9,53.1 18.7,52.9 18.5,52.8 C18.3,52.7 18.1,52.7 17.8,52.7 L16.9,52.7 L16.9,56 L16.8,56 Z M13.5,54.8 L13.5,54.3 L15.3,54.3 L15.3,55.9 C15,56.1 14.7,56.3 14.4,56.4 C14.1,56.5 13.8,56.6 13.5,56.6 C13.1,56.6 12.7,56.5 12.3,56.3 C12,56.1 11.7,55.9 11.5,55.5 C11.3,55.2 11.2,54.8 11.2,54.3 C11.2,53.9 11.3,53.5 11.5,53.1 C11.7,52.7 11.9,52.5 12.3,52.3 C12.6,52.1 13,52 13.4,52 C13.7,52 14,52.1 14.3,52.2 C14.6,52.3 14.8,52.4 14.9,52.6 C15,52.8 15.2,53 15.2,53.3 L14.7,53.4 C14.6,53.2 14.6,53 14.5,52.9 C14.4,52.8 14.3,52.7 14.1,52.6 C13.9,52.5 13.7,52.5 13.5,52.5 C13.2,52.5 13,52.5 12.8,52.6 C12.6,52.7 12.5,52.8 12.3,52.9 C12.2,53 12.1,53.2 12,53.3 C11.9,53.6 11.8,53.9 11.8,54.2 C11.8,54.6 11.9,54.9 12,55.2 C12.1,55.5 12.3,55.7 12.6,55.8 C12.9,55.9 13.1,56 13.4,56 C13.6,56 13.9,56 14.1,55.9 C14.3,55.8 14.5,55.7 14.6,55.6 L14.6,54.8 L13.5,54.8 L13.5,54.8 Z M7.1,56.5 L7.1,52.2 L7.7,52.2 L10,55.6 L10,52.2 L10.6,52.2 L10.6,56.5 L10,56.5 L7.7,53.1 L7.7,56.5 L7.1,56.5 Z M5.5,52.2 L6.1,52.2 L6.1,56.5 L5.5,56.5 L5.5,52.2 Z" id="Shape"></path>
            <path d="M31.8,22.2 C31.9,22.4 32.1,22.8 32.1,23.1 C32.1,23.1 32.7,22.1 33.9,22.9 C33.9,22.9 32.9,22.8 32.6,23.3 C32.6,23.3 34.2,22.9 34.5,24.4 C34.5,24.4 33.8,23.6 33.1,23.7 C33.1,23.7 34.6,24.2 34.2,25.8 C34.2,25.8 34.1,24.4 33,24.2 C33,24.2 34,25 33.6,26.6 C33.6,26.6 33.6,25.4 32.9,24.9 C32.9,24.9 33.4,26.1 32.6,27.2 C32.6,27.2 33,25.8 32.3,25.3 C32.3,25.3 32,25.1 32,25.6 C32,25.6 31.9,28.5 32.1,30 C32.1,30 35,27.5 37.6,29.2 C37.6,29.2 35.1,28 32.2,30.7 L34.1,32.4 C34.2,32.3 34.3,32.2 34.5,32.2 C34.8,32.2 35,32.4 35,32.7 C35,33.3 34.1,33.3 33.8,32.9 L31.8,31 L31.8,31 L31.8,31 L29.8,32.9 C29.5,33.3 28.6,33.3 28.6,32.7 C28.6,32.4 28.8,32.2 29.1,32.2 C29.3,32.2 29.4,32.3 29.5,32.4 L31.4,30.7 C28.5,28 26,29.2 26,29.2 C28.5,27.5 31.5,30 31.5,30 C31.6,28.6 31.6,25.6 31.6,25.6 C31.6,25.1 31.3,25.3 31.3,25.3 C30.6,25.8 31,27.2 31,27.2 C30.2,26.1 30.7,24.9 30.7,24.9 C30,25.5 30,26.6 30,26.6 C29.6,25 30.6,24.2 30.6,24.2 C29.6,24.4 29.4,25.8 29.4,25.8 C29,24.2 30.5,23.7 30.5,23.7 C29.8,23.6 29.1,24.4 29.1,24.4 C29.4,22.9 31,23.3 31,23.3 C30.8,22.8 29.7,22.9 29.7,22.9 C30.9,22.1 31.5,23.1 31.5,23.1 C31.5,22.8 31.7,22.4 31.8,22.2" id="Shape"></path>
            <path d="M5.3,50.4 L5.9,50.4 L5.9,49.8 L5.3,49.8 L5.3,50.4 Z M4,44.3 L3.4,44.3 L3.4,44.9 L4,44.9 L4,44.3 Z M6.3,50.4 L6.9,50.4 L6.9,49.8 L6.3,49.8 L6.3,50.4 Z M3.1,44.3 L2.5,44.3 L2.5,44.9 L3.1,44.9 L3.1,44.3 Z M10.2,46 C10.1,45.8 9.9,45.7 9.7,45.6 C9.5,45.5 9.3,45.5 9.1,45.5 L8.7,45.5 L8.7,46 L9.2,46 C9.3,46 9.4,46 9.6,46.1 C9.7,46.2 9.8,46.2 9.9,46.3 C10,46.4 10,46.5 10.1,46.6 L10.1,47 L10.1,48.6 L7.6,48.6 L7.6,49.1 L10.7,49.1 L10.7,47 C10.7,46.8 10.7,46.6 10.6,46.4 C10.4,46.3 10.3,46.1 10.2,46 L10.2,46 Z M31.3,49.2 L31.8,49.2 L31.8,44.3 L31.3,44.3 L31.3,49.2 Z M29.1,48.7 L29.1,48.7 L28.2,48.7 C27.9,48.7 27.6,48.7 27.4,48.6 C27.2,48.5 27.1,48.4 27,48.2 C27,48.1 27.1,47.9 27.1,47.7 L27.1,46 L26.6,46 L26.6,47.8 C26.6,48.1 26.5,48.4 26.3,48.6 C26.1,48.8 25.9,48.9 25.5,48.9 C25.3,48.9 25.2,48.9 25.1,48.8 C25,48.8 24.9,48.7 24.8,48.6 C24.7,48.5 24.6,48.4 24.6,48.3 C24.5,48.2 24.5,48.1 24.5,47.9 L24.5,46 L24,46 L24,47.9 C24,48.1 24,48.2 23.9,48.3 C23.9,48.4 23.8,48.5 23.7,48.6 C23.6,48.7 23.5,48.7 23.4,48.8 C23.3,48.8 23.2,48.9 23.1,48.9 L22,48.9 L22,46.1 L21.5,46.1 L21.5,48.9 L18.7,48.9 L19.6,46.6 C19.5,46.5 19.3,46.4 19.1,46.2 C18.9,46.1 18.8,46 18.6,45.9 C18.4,45.8 18.2,45.7 18.1,45.7 C17.9,45.7 17.7,45.6 17.6,45.6 C17.4,45.6 17.2,45.6 17.1,45.7 C17,45.8 16.7,45.8 16.6,45.9 C16.4,46 16.3,46.1 16.1,46.2 C15.9,46.3 15.8,46.4 15.6,46.6 L16.6,48.9 L14.7,48.9 L14.7,45.8 L13.8,45.8 C13.5,45.8 13.2,45.8 12.9,45.9 C12.6,46 12.4,46.1 12.2,46.3 C12,46.5 11.8,46.7 11.7,46.9 C11.6,47.1 11.5,47.4 11.5,47.6 C11.5,47.9 11.6,48.2 11.7,48.4 C11.8,48.6 12,48.8 12.2,49 C12.4,49.1 12.6,49.3 12.9,49.3 C13.2,49.4 13.5,49.4 13.8,49.4 L14.1,49.4 L14.1,49.5 C14.1,49.8 14,50 13.9,50.1 C13.7,50.2 13.5,50.3 13.2,50.3 L12.7,50.3 C12.6,50.3 12.4,50.2 12.2,50.1 L12,50.6 C12.2,50.7 12.4,50.7 12.5,50.8 C12.7,50.8 12.8,50.9 13,50.9 C13.5,50.9 13.9,50.8 14.2,50.5 C14.4,50.3 14.6,49.9 14.6,49.5 L14.6,49.4 L23.1,49.4 C23.4,49.4 23.6,49.3 23.8,49.2 C24,49.1 24.2,48.9 24.3,48.7 C24.4,48.9 24.6,49.1 24.8,49.2 C25,49.3 25.3,49.4 25.6,49.4 C25.9,49.4 26.2,49.3 26.4,49.2 C26.6,49.1 26.8,48.9 26.9,48.7 C26.9,48.8 27,48.9 27.1,48.9 C27.2,49 27.2,49 27.3,49.1 C27.4,49.2 27.5,49.2 27.7,49.2 L28.1,49.2 L28.1,49.2 L29.7,49.2 L29.7,44.3 L29.2,44.3 L29.2,48.7 L29.1,48.7 Z M42.3,50.4 L42.9,50.4 L42.9,49.8 L42.3,49.8 L42.3,50.4 Z M47.6,48.7 L46.8,46.6 C47,46.4 47.2,46.3 47.4,46.2 C47.6,46.1 47.9,46.1 48.1,46.1 C48.3,46.1 48.6,46.1 48.8,46.2 C49.1,46.3 49.3,46.4 49.4,46.6 L48.5,48.7 L47.6,48.7 Z M51.5,48.7 L49.2,48.7 L50.2,46.4 C50.1,46.3 49.9,46.2 49.7,46 C49.5,45.9 49.4,45.8 49.2,45.7 C49,45.6 48.9,45.6 48.7,45.5 C48.5,45.5 48.3,45.4 48.2,45.4 C48,45.4 47.8,45.4 47.7,45.5 C47.5,45.5 47.3,45.6 47.2,45.7 C47,45.8 46.9,45.9 46.7,46 C46.5,46.1 46.4,46.2 46.2,46.4 C47.2,48.6 47.2,48.7 47.2,48.7 L45.2,48.7 L45.2,45.5 L44.7,45.5 L44.7,49.3 L44.7,49.7 C44.7,49.8 44.7,49.9 44.6,49.9 C44.6,50 44.5,50 44.4,50 L44.2,50 L44.1,50 L44,50 L43.9,50.5 C44.1,50.5 44.2,50.6 44.3,50.6 C44.5,50.6 44.7,50.6 44.8,50.5 C44.9,50.4 45,50.4 45.1,50.2 C45.2,50.1 45.2,49.9 45.3,49.8 L45.3,49.2 L45.3,49.1 L52.3,49.1 L52.3,44.2 L51.8,44.2 L51.8,48.7 L51.5,48.7 Z M40.3,50.4 L40.9,50.4 L40.9,49.8 L40.3,49.8 L40.3,50.4 Z M37,48.7 L36.5,48.7 C36.3,48.7 36.1,48.7 35.9,48.6 C35.7,48.5 35.6,48.5 35.4,48.3 C35.3,48.2 35.2,48.1 35.1,47.9 C35,47.7 35,47.5 35,47.4 C35,47.2 35,47 35.1,46.9 C35.2,46.8 35.3,46.6 35.4,46.5 C35.5,46.4 35.7,46.3 35.9,46.2 C36.1,46.1 36.3,46.1 36.4,46.1 L36.9,46.1 L36.9,48.7 L37,48.7 Z M42.8,45.5 L42.3,45.5 L42.3,48.7 L40.3,48.7 L40.3,45.5 L39.8,45.5 L39.8,48.7 L37.6,48.7 L37.6,45.5 L36.7,45.5 C36.4,45.5 36.1,45.6 35.8,45.6 C35.5,45.7 35.3,45.8 35.1,46 C34.9,46.2 34.7,46.4 34.6,46.6 C34.5,46.8 34.4,47.1 34.4,47.3 C34.4,47.6 34.5,47.9 34.6,48.1 C34.7,48.3 34.9,48.5 35.1,48.7 C35.3,48.8 35.5,48.9 35.8,49 C36.1,49.1 36.3,49.1 36.7,49.1 L42.9,49.1 L42.9,45.5 L42.8,45.5 Z M39.4,50.4 L40,50.4 L40,49.8 L39.4,49.8 L39.4,50.4 Z M37.5,44.4 L37,44.4 L37,45 L37.6,45 L37.6,44.4 L37.5,44.4 Z M36.6,44.4 L36,44.4 L36,45 L36.6,45 L36.6,44.4 Z M53.6,49.2 L54.1,49.2 L54.1,44.3 L53.6,44.3 L53.6,49.2 Z M77.9,48.7 C77.8,48.9 77.7,49 77.6,49.2 C77.5,49.3 77.3,49.4 77.2,49.5 C77,49.6 76.8,49.6 76.6,49.6 C76.4,49.6 76.2,49.6 76,49.5 C75.8,49.4 75.7,49.3 75.6,49.2 C75.5,49.1 75.4,48.9 75.3,48.7 C75.2,48.5 75.2,48.3 75.2,48.2 C75.2,48 75.2,47.8 75.3,47.6 C75.4,47.4 75.5,47.3 75.6,47.1 C75.7,47 75.9,46.9 76,46.8 C76.2,46.7 76.4,46.7 76.6,46.7 C76.8,46.7 77,46.7 77.2,46.8 C77.4,46.9 77.5,47 77.7,47.1 C77.8,47.2 77.9,47.4 78,47.6 C78.1,47.8 78.1,48 78.1,48.2 C78,48.4 78,48.6 77.9,48.7 L77.9,48.7 Z M72.6,48.7 C72.5,48.9 72.4,49 72.3,49.2 C72.2,49.3 72,49.4 71.8,49.5 C71.6,49.6 71.4,49.6 71.2,49.6 C71,49.6 70.8,49.6 70.6,49.5 C70.4,49.4 70.3,49.3 70.2,49.2 C70.1,49.1 70,48.9 69.9,48.7 C69.8,48.5 69.8,48.3 69.8,48.2 C69.8,48 69.8,47.8 69.9,47.6 C70,47.4 70.1,47.3 70.2,47.1 C70.3,47 70.5,46.9 70.6,46.8 C70.8,46.7 71,46.7 71.2,46.7 C71.4,46.7 71.6,46.7 71.8,46.8 C72,46.9 72.1,47 72.3,47.1 C72.4,47.2 72.5,47.4 72.6,47.6 C72.7,47.8 72.7,48 72.7,48.2 C72.7,48.4 72.7,48.6 72.6,48.7 L72.6,48.7 Z M59.4,49 L58.9,49 C58.7,49 58.5,49 58.3,48.9 C58.1,48.8 58,48.8 57.8,48.6 C57.7,48.5 57.6,48.4 57.5,48.2 C57.4,48 57.4,47.8 57.4,47.7 C57.4,47.5 57.4,47.3 57.5,47.2 C57.6,47.1 57.7,46.9 57.8,46.8 C57.9,46.7 58.1,46.6 58.3,46.5 C58.5,46.4 58.7,46.4 58.8,46.4 L59.3,46.4 L59.3,49 L59.4,49 Z M80.3,49 L78.4,49 C78.5,48.7 78.6,48.5 78.6,48.2 C78.6,47.9 78.5,47.7 78.4,47.4 C78.3,47.2 78.2,46.9 78,46.8 C77.8,46.6 77.6,46.5 77.4,46.4 C77.2,46.3 76.9,46.3 76.6,46.3 C76.3,46.3 76.1,46.3 75.8,46.4 C75.6,46.5 75.4,46.6 75.2,46.8 C75,47 74.9,47.2 74.8,47.4 C74.7,47.6 74.6,47.9 74.6,48.2 L74.6,48.6 C74.6,48.7 74.7,48.8 74.7,49 L73,49 C73.1,48.7 73.2,48.5 73.2,48.2 C73.2,47.9 73.1,47.7 73,47.4 C72.9,47.2 72.8,46.9 72.6,46.8 C72.4,46.6 72.2,46.5 72,46.4 C71.8,46.3 71.5,46.3 71.2,46.3 C70.9,46.3 70.7,46.3 70.4,46.4 C70.2,46.5 70,46.6 69.8,46.8 C69.6,47 69.5,47.2 69.4,47.4 C69.3,47.6 69.3,47.9 69.3,48.2 L69.3,48.6 C69.3,48.7 69.4,48.8 69.4,49 L67.7,49 L67.7,44.7 L67.2,44.7 L67.2,49 L65.5,49 L65.5,48.2 C65.5,48 65.5,47.8 65.4,47.6 C65.3,47.4 65.3,47.2 65.1,47.1 C65,47 64.8,46.8 64.6,46.7 C64.4,46.6 64.2,46.6 63.9,46.6 L61.5,46.6 L62.5,44.6 L61.9,44.6 L60.9,46.5 C60.9,46.6 60.9,46.7 61,46.8 C61,46.9 61.1,47 61.2,47 L64,47 C64.2,47 64.3,47 64.4,47.1 C64.5,47.1 64.6,47.2 64.7,47.3 C64.8,47.4 64.8,47.5 64.9,47.6 L64.9,48 L64.9,48.8 L59.9,48.8 L59.9,45.6 L59,45.6 C58.7,45.6 58.4,45.7 58.1,45.7 C57.8,45.8 57.6,45.9 57.4,46.1 C57.2,46.3 57.1,46.5 57,46.7 C56.9,46.9 56.8,47.2 56.8,47.4 C56.8,47.7 56.9,48 57,48.2 C57.1,48.4 57.3,48.6 57.5,48.8 C57.7,48.9 57.9,49 58.2,49.1 C58.5,49.2 58.8,49.2 59.1,49.2 L69.9,49.2 C70.1,49.4 70.3,49.6 70.5,49.7 C70.8,49.8 71,49.9 71.3,49.9 C71.6,49.9 71.9,49.9 72.1,49.7 C72.4,49.6 72.6,49.5 72.7,49.2 L75.1,49.2 C75.3,49.4 75.5,49.6 75.7,49.7 C76,49.8 76.2,49.9 76.5,49.9 C76.8,49.9 77.1,49.9 77.3,49.7 C77.6,49.6 77.8,49.5 77.9,49.2 L80.7,49.2 L80.7,44.3 L80.2,44.3 L80.2,49 L80.3,49 Z M82.4,49.5 L82.9,49.5 L82.9,44.6 L82.4,44.6 L82.4,49.5 Z M59,44.7 L58.4,44.7 L58.4,45.3 L59,45.3 L59,44.7 Z M59.9,44.7 L59.3,44.7 L59.3,45.3 L59.9,45.3 L59.9,44.7 Z M6.7,45.5 L6.2,45.5 L6.2,48.6 L4,48.6 L4,45.5 L3.1,45.5 C2.8,45.5 2.5,45.5 2.2,45.6 C1.9,45.7 1.7,45.8 1.5,46 C1.3,46.2 1.2,46.4 1.1,46.6 C1,46.8 0.9,47.1 0.9,47.3 C0.9,47.6 1,47.9 1.1,48.1 C1.2,48.3 1.4,48.5 1.6,48.7 C1.8,48.8 2,49 2.3,49 C2.6,49.1 2.9,49.1 3.2,49.1 L6.8,49.1 L6.8,45.5 L6.7,45.5 Z M3.5,48.7 L3,48.7 C2.8,48.7 2.6,48.7 2.4,48.6 C2.2,48.5 2.1,48.5 1.9,48.3 C1.8,48.2 1.7,48.1 1.6,47.9 C1.5,47.7 1.5,47.6 1.5,47.4 C1.5,47.2 1.5,47 1.6,46.9 C1.7,46.7 1.8,46.6 1.9,46.5 C2,46.4 2.2,46.3 2.4,46.2 C2.6,46.1 2.8,46.1 2.9,46.1 L3.4,46.1 L3.4,48.7 L3.5,48.7 Z M14,48.7 L13.5,48.7 C13.3,48.7 13.1,48.7 12.9,48.6 C12.7,48.5 12.6,48.5 12.4,48.3 C12.3,48.2 12.1,48.1 12.1,47.9 C12,47.7 12,47.6 12,47.4 C12,47.2 12,47 12.1,46.9 C12.2,46.7 12.3,46.6 12.4,46.5 C12.5,46.4 12.7,46.3 12.9,46.2 C13.1,46.1 13.3,46.1 13.5,46.1 L14,46.1 L14,48.7 Z M17,48.7 L16.1,46.6 C16.3,46.4 16.5,46.3 16.7,46.2 C16.9,46.1 17.1,46.1 17.4,46.1 C17.6,46.1 17.9,46.1 18.1,46.2 C18.3,46.3 18.5,46.4 18.7,46.6 L17.9,48.7 L17,48.7 Z" id="Shape"></path>
            <path d="M68.1,12.9 L69,12.9 L69,13.8 L68.1,13.8 L68.1,12.9 Z M70,12.9 L70.9,12.9 L70.9,13.8 L70,13.8 L70,12.9 Z M51.4,2.2 L50.5,2.2 L50.5,1.3 L51.4,1.3 L51.4,2.2 Z M74,8.8 C74.4,9.1 74.8,9.2 75.2,9.4 C75.7,9.5 76.2,9.6 76.7,9.6 L76.9,9.6 L77.2,8.9 L77.2,9.8 C77.2,10.3 77,10.6 76.8,10.9 C76.5,11.1 76.1,11.2 75.6,11.2 C75.3,11.2 75.1,11.2 74.8,11.1 C74.6,11 74.3,11 74,10.8 L73.7,11.7 C74.1,11.8 74.4,11.9 74.7,12 C75,12.1 75.3,12.1 75.5,12.1 C76.4,12.1 77.1,11.9 77.5,11.5 C77.9,11.1 78.1,10.5 78.1,9.8 L78.1,3.3 L76.6,3.3 C76,3.3 75.5,3.4 75,3.5 C74.5,3.7 74.1,3.9 73.8,4.2 C73.4,4.5 73.2,4.8 73,5.2 C72.8,5.6 72.7,6 72.7,6.5 C72.7,7 72.8,7.5 73,7.9 C73.3,8.2 73.6,8.5 74,8.8 L74,8.8 Z M74,5.4 C74.1,5.1 74.3,4.9 74.6,4.7 C74.8,4.5 75.1,4.3 75.4,4.2 C75.7,4.1 76,4 76.3,4 L77.8,4 L77.3,4.3 L77.3,8.5 L76.3,8.5 C75.9,8.5 75.6,8.5 75.3,8.4 C75,8.3 74.7,8.1 74.5,8 C74.3,7.8 74.1,7.6 74,7.3 C73.9,7 73.8,6.7 73.8,6.4 C73.7,6 73.8,5.7 74,5.4 L74,5.4 Z M53.3,2.2 L52.4,2.2 L52.4,1.3 L53.3,1.3 L53.3,2.2 Z M80.6,12.1 C80.3,12.1 80.1,12.1 79.8,12 L80,11.1 C80.1,11.1 80.2,11.1 80.3,11.2 L80.5,11.2 C80.7,11.2 80.8,11.2 80.9,11.1 C81,11.1 81.1,11 81.2,10.9 C81.3,10.8 81.3,10.6 81.3,10.4 L81.3,9.7 L81.3,3.2 L82.2,3.2 L82.2,9.7 C82.2,10.1 82.2,10.4 82.1,10.7 C82,11 81.9,11.2 81.8,11.5 C81.7,11.7 81.5,11.9 81.3,12 C81.2,12 80.9,12.1 80.6,12.1 L80.6,12.1 Z M50.7,12 L52.6,12 L52.6,11.3 C52.6,11.3 52.6,11.4 52.7,11.4 C52.8,11.6 53,11.8 53.3,11.9 C53.5,12 53.8,12.1 54.1,12.1 L71.2,12.1 L71.2,3.3 L70.3,3.3 L70.3,11.2 L69.3,11.2 L54.1,11.2 C53.9,11.2 53.8,11.2 53.6,11.1 C53.5,11 53.4,11 53.3,10.8 C53.2,10.7 53.2,10.5 53.1,10.3 L53.1,9.6 L53.1,3.1 L50.6,3.1 C48,3.1 46.2,5.1 46.2,7.5 L46.2,7.5 C46.4,9.9 48.1,12 50.7,12 L50.7,12 Z M47.4,7.5 C47.4,5.6 48.8,4 50.7,4 L52.9,4 L52.3,4.3 L52.3,9.6 C52.3,10 52.3,10.3 52.4,10.6 C52.4,10.8 52.5,10.9 52.5,11.1 L50.7,11.1 C48.8,11 47.4,9.5 47.4,7.5 L47.4,7.5 Z M77.1,0.2 L77.9,0.2 L77.9,0.9 L77.2,0.9 C77,0.9 76.9,1 76.9,1.2 L76.9,1.5 L78.1,1.5 L78.1,2.2 L76.1,2.2 L76.1,1.2 C76.1,0.7 76.6,0.2 77.1,0.2 L77.1,0.2 Z" id="Shape"></path>
            <path d="M41.5,3.1 L42.5,3.1 L42.5,11.9 L41.7,11.9 L35.5,4 L36,5.3 L36,11.9 L35,11.9 L35,3.1 L35.9,3.1 L41.9,10.7 L41.5,9.6 L41.5,3.1 Z M4.9,11.9 L1.1,3 L2.2,3 L2.7,4.3 L5.3,10.5 L5.6,11.1 L5.5,10.1 L8.5,2.9 L9.6,2.9 L5.8,11.8 L4.9,11.8 L4.9,11.9 Z M21.7,3.1 L22.7,3.1 L22.7,11.9 L21.7,11.9 L21.7,3.1 Z M32.4,7.5 C32.4,9.5 31,11.1 29,11.1 C27,11.1 25.5,9.5 25.5,7.5 L25.5,7.5 C25.5,5.5 26.9,3.9 28.9,3.9 C30.9,3.8 32.4,5.5 32.4,7.5 L32.4,7.5 Z M28.9,2.9 C26.2,2.9 24.4,5 24.4,7.4 L24.4,7.4 C24.4,9.8 26.2,11.9 28.9,11.9 C31.6,11.9 33.4,9.8 33.4,7.4 L33.4,7.4 C33.4,5 31.6,2.9 28.9,2.9 L28.9,2.9 Z M20.1,9.5 L20.1,9.5 C20.1,11 18.8,12 17.1,12 C15.7,12 14.6,11.5 13.5,10.6 L14.1,9.9 C15,10.7 15.9,11.1 17.1,11.1 C18.3,11.1 19.1,10.5 19.1,9.6 L19.1,9.6 C19.1,8.8 18.7,8.3 16.8,7.9 C14.8,7.5 13.9,6.8 13.9,5.4 L13.9,5.4 C13.9,4 15.1,3 16.8,3 C18.1,3 19,3.4 19.9,4.1 L19.3,4.9 C18.5,4.2 17.7,3.9 16.8,3.9 C15.7,3.9 14.9,4.5 14.9,5.3 L14.9,5.3 C14.9,6.1 15.4,6.6 17.3,7 C19.2,7.4 20.1,8.1 20.1,9.5 L20.1,9.5 Z M12,11.9 L11,11.9 L11,3.1 L12,3.1 L12,11.9 Z" id="Shape"></path>
        </g>
    </g>
</svg>