<svg xmlns="http://www.w3.org/2000/svg" width="24" height="24" viewBox="0 0 24 24">
    <g fill="none" fill-rule="evenodd">
        <path class="iconElement-colorSecondary_fill" d="M23 21.818C23 23.023 22.01 24 20.79 24H4.21C2.99 24 2 23.023 2 21.818V2.182h21v19.636z"/>
        <path class="iconElement-colorPrimary_fill" d="M2 2h21v5H2z"/>
        <path class="iconElement-colorSecondary_stroke" stroke-linecap="round" stroke-linejoin="round" d="M5.316 2.182C5.316.976 6.306 0 7.526 0c1.221 0 2.21.976 2.21 2.182 0 1.205-.989 2.182-2.21 2.182M15.263 2.182c0-1.206.99-2.182 2.21-2.182 1.221 0 2.211.976 2.211 2.182 0 1.205-.99 2.182-2.21 2.182"/>
        <path fill="#FFF" fill-rule="nonzero" d="M7.33 16.629c0-.237.06-.4.18-.49.119-.09.323-.136.614-.136.332 0 .557.043.677.129.119.086.179.231.179.435 0 .278.119.496.358.656.238.16.562.239.97.239.478 0 .825-.105 1.042-.313.218-.209.326-.545.326-1.011v-.233c0-.777-.468-1.166-1.406-1.166-.324 0-.485-.208-.485-.625 0-.416.164-.625.494-.625.372 0 .66-.08.862-.238.203-.159.305-.478.305-.957 0-.716-.375-1.074-1.125-1.074-.758 0-1.137.273-1.137.817 0 .407-.264.61-.793.61-.358 0-.59-.046-.696-.14-.106-.094-.16-.274-.16-.543 0-.238.047-.474.141-.707.093-.234.24-.462.44-.684.201-.221.493-.402.876-.542.384-.14.831-.209 1.342-.209 1.806 0 2.71.734 2.71 2.203 0 .488-.089.914-.265 1.276-.177.363-.424.613-.742.751.867.327 1.3.945 1.3 1.852v.233c0 .932-.283 1.619-.85 2.06-.567.441-1.306.662-2.217.662-.963 0-1.693-.23-2.191-.687-.499-.457-.748-.971-.748-1.543zM14.947 12.043a.696.696 0 0 1-.153-.441c0-.254.106-.446.32-.576l1.507-1.104a.54.54 0 0 1 .346-.123c.187 0 .358.05.51.148.154.098.23.22.23.367v7.97c0 .155-.082.278-.249.367a1.2 1.2 0 0 1-.581.135c-.23 0-.426-.045-.588-.135-.162-.09-.243-.212-.243-.367v-6.547l-.41.392a.45.45 0 0 1-.306.11.467.467 0 0 1-.383-.196z"/>
        <path class="iconElement-colorPrimary_fill" d="M3 2h5v1H3zM13 2h5v1h-5z"/>
    </g>
</svg>
