<svg width="18" height="18" viewBox="0 0 18 18" xmlns="http://www.w3.org/2000/svg"><g fill="none" stroke="currentColor"><path d="M9.864 9.157l2.303 2.303c.195.195.195.512 0 .707-.195.195-.512.195-.707 0l-2.303-2.303-2.303 2.303c-.195.195-.512.195-.707 0-.195-.195-.195-.512 0-.707l2.303-2.303-2.303-2.303c-.195-.195-.195-.512 0-.707.195-.195.512-.195.707 0l2.303 2.303 2.303-2.303c.195-.195.512-.195.707 0 .195.195.195.512 0 .707l-2.303 2.303zM17 9c0 4.419-3.583 8-8 8-4.419 0-8-3.581-8-8 0-4.419 3.581-8 8-8 4.417 0 8 3.581 8 8z"/></g></svg>