<svg xmlns="http://www.w3.org/2000/svg" width="18" height="18" viewBox="0 0 18 18"><path fill="#5CC83B" d="M15.934 16.434h-14.934c-.276 0-.5-.224-.5-.5s.224-.5.5-.5h14.934c.276 0 .5.224.5.5s-.224.5-.5.5zm-12.141-1.648l4.53-1.521c.262-.088.403-.371.315-.633s-.372-.405-.633-.314l-3.588 1.205 1.178-3.623c.085-.263-.059-.544-.321-.63-.264-.084-.545.059-.63.322l-1.485 4.566c-.058.18-.01.377.124.51.095.094.222.145.352.145l.158-.027zm12.303-9.22c.502-.501.778-1.168.778-1.878 0-.709-.276-1.376-.778-1.877-1.002-1.002-2.75-1.003-3.754.001-.094.094-.146.221-.146.354 0 .132.053.26.146.354l3.047 3.047c.098.098.226.146.354.146s.255-.049.353-.147zm-.707-3.048c.312.312.485.729.485 1.17 0 .271-.064.53-.186.763l-2.232-2.231c.617-.321 1.431-.204 1.933.298zm-6.871 10.627l7.577-7.579c.195-.195.195-.512 0-.707l-3.046-3.047c-.188-.188-.52-.188-.707 0l-7.577 7.58c-.195.195-.195.512 0 .707l3.046 3.046c.094.094.221.146.354.146.132 0 .259-.053.353-.146zm4.177-10.273l2.339 2.34-6.87 6.872-2.339-2.339 6.87-6.873z"/></svg>