<svg xmlns="http://www.w3.org/2000/svg" width="24" height="24" viewBox="0 0 24 24"><path class="iconElement-colorPrimary_fill" d="M12 0c6.627 0 12 5.373 12 12s-5.373 12-12 12-12-5.373-12-12 5.373-12 12-12z"/><path class="iconElement-colorSecondary_fill" d="M21.086 19.824c-2.201 2.553-5.451 4.176-9.086 4.176-3.567 0-6.761-1.565-8.959-4.036.846-.884 3.309-2.132 6.244-3.323v-1.8c-.166-.118-.343-.292-.512-.533-.39-.555-.63-1.336-.674-2.375-.441-.247-.715-.847-.765-1.503-.051-.676.158-1.267.616-1.538l-.174-.42c-.093-.231-.167-.44-.227-.642-.186-.62-.011-1.034.186-1.436.226-.459.395-.961 1.033-.912 1.205-2.449 6.619-2.044 7.297.671.204.815.776 1.56.44 2.416l-.125.296c.424.312.615.901.56 1.568-.056.656-.329 1.252-.769 1.499-.043 1.04-.284 1.821-.674 2.375-.168.241-.346.415-.512.533v1.8c2.786 1.131 5.143 2.311 6.101 3.184z"/></svg>