<?xml version="1.0" encoding="utf-8"?>
<!-- Generator: Adobe Illustrator 16.0.4, SVG Export Plug-In . SVG Version: 6.00 Build 0)  -->
<!DOCTYPE svg PUBLIC "-//W3C//DTD SVG 1.0//EN" "http://www.w3.org/TR/2001/REC-SVG-20010904/DTD/svg10.dtd">
<svg version="1.0" id="Ebene_1" xmlns="http://www.w3.org/2000/svg" xmlns:xlink="http://www.w3.org/1999/xlink" x="0px" y="0px"
	 width="52px" height="72px" viewBox="-0.5 0 52 72" enable-background="new -0.5 0 52 72" xml:space="preserve">
<path id="path-1_2_" fill="none" stroke="#666666" stroke-miterlimit="10" d="M32.12,61.097h4.593H50.5V46.643
	c0-0.639-9.63-5.736-18.475-9.274c-0.521-0.208-0.863-0.712-0.863-1.272v-7.032c0-0.583,0.368-1.102,0.919-1.293
	c0.181-0.063,0.604-0.362,1.089-1.054c0.926-1.32,1.509-3.403,1.509-6.444c0-0.757,0.613-1.371,1.37-1.371
	c0.203,0,0.774-0.962,0.884-2.26c0.112-1.338-0.245-2.031-0.771-2.031c-0.757,0-1.371-0.614-1.371-1.37
	c0-0.42,0.097-0.686,0.412-1.403c0.143-0.323,0.232-0.526,0.301-0.681c0.123-0.283,0.228-0.534,0.326-0.785
	c0.805-2.042,1.085-3.845,0.648-5.591c-1.412-5.647-17.025-5.647-18.438,0c-0.178,0.712-0.886,1.157-1.604,1.01
	c-1.411-0.289-1.93-0.14-2.069,0.143c-0.189,0.384-0.125,1.266,0.238,2.479c0.151,0.506,0.347,1.049,0.592,1.663
	c0.173,0.435,0.777,1.864,0.7,1.68c0.322,0.777,0.427,1.077,0.427,1.485c0,0.756-0.613,1.37-1.371,1.37
	c-0.595,0-0.973,0.699-0.87,2.042c0.098,1.288,0.665,2.249,0.87,2.249c0.758,0,1.371,0.613,1.371,1.371
	c0,3.041,0.582,5.124,1.51,6.444c0.484,0.691,0.906,0.99,1.088,1.054c0.55,0.192,0.918,0.711,0.918,1.293v7.032
	c0,0.561-0.342,1.064-0.861,1.272C10.13,40.906,0.5,46.005,0.5,46.643v14.454h15.479h3.109"/>
<path id="Rectangle-2" fill="none" stroke="#666666" d="M23.199,38.429c-0.029,0-0.059,0.002-0.088,0.008
	c-0.272,0.049-0.453,0.309-0.404,0.58l0.899,5c0.043,0.238,0.25,0.412,0.492,0.412h3.362c0.242,0,0.45-0.174,0.492-0.412l0.9-5
	c0.005-0.029,0.008-0.059,0.008-0.088c0-0.276-0.225-0.5-0.5-0.5H23.199z"/>
<path id="Rectangle-2-Copy" fill="none" stroke="#666666" d="M24.805,44.429l-2.602,22.787c-0.018,0.146,0.031,0.293,0.133,0.4
	l3.376,3.584l3.376-3.584c0.101-0.107,0.148-0.254,0.133-0.4l-2.604-22.787H24.805z"/>
</svg>
