<svg version="1" xmlns="http://www.w3.org/2000/svg" width="44" height="44" viewBox="0.5 1 44 44" enable-background="new 0.5 1 44 44"><path stroke="#5CC83B" stroke-linecap="round" stroke-linejoin="round" d="M15.63 12.035c0-1.234 1.014-2.235 2.263-2.235 1.251 0 2.265 1 2.265 2.235 0 1.235-1.014 2.235-2.265 2.235m7.926-2.235c0-1.234 1.014-2.235 2.265-2.235 1.25 0 2.263 1 2.263 2.235 0 1.235-1.013 2.235-2.263 2.235" fill="none"/><path fill="#5CC83B" d="M33.465 11.535h-21.232c-.276 0-.5.224-.5.5v19.468999999999998c0 1.27 1.202 2.264 2.735 2.264h16.763c1.533 0 2.733-.994 2.733-2.264v-19.47c.001-.276-.223-.499-.499-.499zm-9.618 14.795c0 .954-.291 1.658-.871 2.109-.581.453-1.337.679-2.271.679-.987 0-1.735-.235-2.245-.703-.51-.47-.766-.996-.766-1.581 0-.243.061-.411.183-.503.122-.091.333-.138.629-.138.34 0 .571.044.694.131.121.088.183.237.183.446 0 .285.122.508.367.673.245.163.576.244.995.244.489 0 .844-.108 1.067-.321.222-.214.334-.559.334-1.036v-.239c0-.794-.48-1.191-1.44-1.191-.333 0-.498-.215-.498-.642s.169-.641.506-.641c.381 0 .676-.08.884-.243.207-.163.312-.489.312-.98 0-.733-.384-1.1-1.152-1.1-.777 0-1.166.28-1.166.837 0 .417-.271.626-.812.626-.367 0-.604-.049-.714-.145-.108-.095-.163-.28-.163-.556 0-.244.048-.485.144-.723.096-.241.247-.474.452-.702.206-.227.504-.412.896-.554.393-.144.852-.215 1.375-.215 1.85 0 2.774.753 2.774 2.257 0 .5-.09.936-.271 1.307-.181.372-.434.628-.76.77.888.334 1.332.969 1.332 1.896v.238zm4.475 2.199c0 .159-.084.285-.254.377-.184.095-.39.143-.597.137-.233 0-.437-.046-.603-.137-.166-.092-.248-.218-.248-.377v-6.708l-.419.403c-.087.075-.2.115-.314.112-.154.001-.302-.074-.392-.201-.103-.128-.158-.287-.156-.452 0-.26.106-.457.326-.59l1.545-1.131c.1-.081.224-.125.354-.125.191 0 .367.051.522.151.157.101.235.226.235.376v8.165zm4.643-12.524h-20.232v-3.471h20.231v3.471z"/></svg>