<svg xmlns="http://www.w3.org/2000/svg" xmlns:xlink="http://www.w3.org/1999/xlink" width="20" height="20" viewBox="0 0 20 20">
  <defs>
    <clipPath id="clip-reset_icon">
      <rect width="20" height="20"/>
    </clipPath>
  </defs>
  <g id="reset_icon" clip-path="url(#clip-reset_icon)">
    <g id="noun_reset_3324723" transform="translate(1 1)">
      <g id="Group_1147" data-name="Group 1147" transform="translate(0 0)">
        <path id="Path_1979" data-name="Path 1979" d="M25.683,10.8a.724.724,0,0,1-.717.629.739.739,0,0,1-.1-.006l-1.258-.167A8.867,8.867,0,1,1,16.368,7.5a.724.724,0,0,1,0,1.448,7.429,7.429,0,1,0,6.061,3.144l-.069,1.595a.724.724,0,0,1-.723.693h-.032a.724.724,0,0,1-.692-.755l.145-3.372c0-.011,0-.02,0-.031s0-.014,0-.022,0-.007,0-.011h0c0-.014.007-.029.01-.043s.009-.043.015-.064,0-.022.008-.033.012-.026.018-.039.016-.039.026-.057.01-.023.016-.033.018-.025.027-.038.021-.03.033-.045l.01-.014c.005-.006.009-.013.014-.02s.024-.021.035-.033l.034-.031c.012-.01.021-.021.033-.03s.031-.02.046-.03l.032-.019c.014-.008.027-.018.041-.025s.034-.013.05-.02l.037-.013c.015-.005.029-.012.045-.016s.033-.006.049-.009l.049-.008c.014,0,.027-.005.042-.006s.03,0,.045,0,.022,0,.033,0,.021,0,.032,0h.035l3.18.421a.724.724,0,0,1,.623.813Z" transform="translate(-7.497 -7.5)" fill="#00a6be"/>
      </g>
    </g>
  </g>
</svg>
