<svg xmlns="http://www.w3.org/2000/svg" width="117" height="118" viewBox="0 0 117 118">
  <g id="inverted_commas" data-name="inverted commas" transform="translate(34.113 39.436)">
    <ellipse id="Ellipse_28" data-name="Ellipse 28" cx="58.5" cy="59" rx="58.5" ry="59" transform="translate(-34.113 -39.436)" fill="#bf9b2e"/>
    <path id="Union_35" data-name="Union 35" d="M0,34.039a47.719,47.719,0,0,0,7.742-7.053,12.712,12.712,0,0,0,2.847-6.376A10.3,10.3,0,1,1,20.837,9.219l.008-.008s2.042,10.071-2.9,17.775S4.907,40.019,4.907,40.019Z" transform="translate(0 0)" fill="#fff"/>
    <path id="Union_36" data-name="Union 36" d="M0,34.039a47.719,47.719,0,0,0,7.742-7.053,12.712,12.712,0,0,0,2.847-6.376A10.3,10.3,0,1,1,20.837,9.219l.008-.008s2.042,10.071-2.9,17.775S4.907,40.019,4.907,40.019Z" transform="translate(27.234 0)" fill="#fff"/>
  </g>
</svg>
