<svg xmlns="http://www.w3.org/2000/svg" width="117" height="118" viewBox="0 0 117 118">
  <g id="inverted-commas-on-hover" transform="translate(34.113 39.436)">
    <ellipse id="Ellipse_28" data-name="Ellipse 28" cx="58.5" cy="59" rx="58.5" ry="59" transform="translate(-34.113 -39.436)" fill="#bf9b2e"/>
    <path id="Union_35" data-name="Union 35" d="M0,5.98a47.719,47.719,0,0,1,7.742,7.053,12.712,12.712,0,0,1,2.847,6.376A10.3,10.3,0,1,0,20.837,30.8l.008.008s2.042-10.071-2.9-17.775S4.907,0,4.907,0Z" transform="translate(48.497 40.019) rotate(180)" fill="#fff"/>
    <path id="Union_36" data-name="Union 36" d="M0,5.98a47.719,47.719,0,0,1,7.742,7.053,12.712,12.712,0,0,1,2.847,6.376A10.3,10.3,0,1,0,20.837,30.8l.008.008s2.042-10.071-2.9-17.775S4.907,0,4.907,0Z" transform="translate(21.262 40.019) rotate(180)" fill="#fff"/>
  </g>
</svg>
