<svg xmlns="http://www.w3.org/2000/svg" xmlns:xlink="http://www.w3.org/1999/xlink" width="72" height="72" viewBox="0 0 72 72">
  <defs>
    <clipPath id="clip-quotation_02">
      <rect width="72" height="72"/>
    </clipPath>
  </defs>
  <g id="quotation_02" clip-path="url(#clip-quotation_02)">
    <g id="Group_1" data-name="Group 1" transform="translate(1 1)">
      <circle id="Ellipse_71" data-name="Ellipse 71" cx="35.215" cy="35.215" r="35.215" transform="translate(0)" fill="#bf9b2e"/>
      <g id="Group_467" data-name="Group 467" transform="translate(20.702 23.739)">
        <path id="Union_35" data-name="Union 35" d="M0,20.491a28.726,28.726,0,0,0,4.661-4.246,7.653,7.653,0,0,0,1.714-3.838A6.2,6.2,0,1,1,12.543,5.55l0-.005s1.229,6.062-1.749,10.7A30.613,30.613,0,0,1,2.954,24.09Z" fill="#fff"/>
        <path id="Union_36" data-name="Union 36" d="M0,20.491a28.726,28.726,0,0,0,4.661-4.246,7.653,7.653,0,0,0,1.714-3.838A6.2,6.2,0,1,1,12.543,5.55l0-.005s1.229,6.062-1.749,10.7A30.613,30.613,0,0,1,2.954,24.09Z" transform="translate(16.394)" fill="#fff"/>
      </g>
    </g>
  </g>
</svg>
