<?xml version="1.0" standalone="no"?>
<!DOCTYPE svg PUBLIC "-//W3C//DTD SVG 1.1//EN" "http://www.w3.org/Graphics/SVG/1.1/DTD/svg11.dtd" >
<svg xmlns="http://www.w3.org/2000/svg" xmlns:xlink="http://www.w3.org/1999/xlink" version="1.1">
<metadata>
Created by FontForge 20201107 at Tue May  1 10:27:03 2007
 By Jimmy Wärting
Copyright Copr. 1999, Luc[as] de Groot &#60;www.FontFabrik.com&#62;. All rights reserved. Published by FontShop International &#60;www.fontfont.de&#62;
</metadata>
<defs>
<font id="TheSans-B6SemiBold" horiz-adv-x="550" >
  <font-face 
    font-family="TheSans"
    font-weight="500"
    font-stretch="normal"
    units-per-em="1000"
    panose-1="0 0 0 0 0 0 0 0 0 0"
    ascent="800"
    descent="-200"
    x-height="497"
    cap-height="675"
    bbox="-60 -254 1024.66 860"
    underline-thickness="86"
    underline-position="-248"
    stemh="84"
    stemv="109"
    unicode-range="U+0020-FB02"
  />
<missing-glyph 
 />
    <glyph glyph-name=".notdef" 
 />
    <glyph glyph-name="space" unicode=" " horiz-adv-x="218" 
 />
    <glyph glyph-name="exclam" unicode="!" horiz-adv-x="320" 
d="M232 705l-17 -528h-91l-18 528h126zM237 57c0 -38 -30 -67 -68 -67c-39 0 -69 29 -69 67c0 37 30 66 69 66c38 0 68 -29 68 -66z" />
    <glyph glyph-name="quotedbl" unicode="&#x22;" horiz-adv-x="383" 
d="M335 701l-15 -241h-80l-15 241h110zM158 701l-15 -241h-79l-16 241h110z" />
    <glyph glyph-name="numbersign" unicode="#" 
d="M521 405h-90l-15 -154h81v-74h-89l-19 -177h-79l19 177h-138l-18 -177h-80l19 177h-83v74h91l15 154h-82v73h90l18 172h80l-19 -172h138l18 172h79l-18 -172h82v-73zM352 405h-137l-16 -154h138z" />
    <glyph glyph-name="dollar" unicode="$" 
d="M466 204c0 -88 -62 -163 -167 -183v-106h-78v101c-46 0 -85 5 -123 13l9 97c38 -13 88 -21 127 -21c69 0 120 27 120 87c0 120 -276 72 -276 270c0 86 63 156 159 172v96h78v-91c37 -1 74 -5 105 -12l-10 -92c-38 12 -77 17 -111 17c-83 0 -112 -39 -112 -78
c0 -114 279 -76 279 -270z" />
    <glyph glyph-name="percent" unicode="%" horiz-adv-x="755" 
d="M713 153c0 -96 -64 -163 -153 -163c-97 0 -144 58 -144 154c0 94 63 161 153 161c92 0 144 -52 144 -152zM659 621l-498 -642l-69 48l499 642zM338 509c0 -97 -63 -164 -153 -164c-96 0 -143 58 -143 154c0 94 62 161 152 161c93 0 144 -52 144 -151zM629 147
c0 63 -20 89 -65 89c-37 0 -64 -33 -64 -87c0 -63 22 -90 66 -90c36 0 63 34 63 88zM255 502c0 63 -21 89 -65 89c-37 0 -64 -33 -64 -86c0 -64 22 -91 66 -91c36 0 63 34 63 88z" />
    <glyph glyph-name="ampersand" unicode="&#x26;" horiz-adv-x="796" 
d="M746 61l-70 -82c-46 32 -102 73 -139 103c-65 -53 -154 -92 -262 -92c-150 0 -223 88 -223 196c0 89 54 151 134 213c-66 77 -90 124 -90 180c0 85 67 158 187 158c109 0 168 -58 168 -141c0 -68 -36 -127 -122 -195c54 -54 132 -127 204 -183v-1c42 61 68 145 64 235
h106c3 -109 -30 -213 -91 -293c47 -37 98 -74 134 -98zM346 587c0 38 -22 69 -71 69c-43 0 -73 -29 -73 -71c0 -31 17 -67 66 -123c50 42 78 78 78 125zM460 141c-76 61 -161 141 -212 195c-61 -50 -86 -91 -86 -136c0 -64 50 -119 131 -119c71 0 127 27 167 60z" />
    <glyph glyph-name="quoteright" unicode="&#x2019;" horiz-adv-x="254" 
d="M130 745c83 0 121 -141 -47 -292l-45 40c65 71 68 115 42 148c-33 39 -8 104 50 104z" />
    <glyph glyph-name="parenleft" unicode="(" horiz-adv-x="304" 
d="M290 -174l-81 -37c-115 181 -147 343 -147 495c0 151 36 324 148 500l77 -37c-78 -136 -120 -295 -120 -458c0 -170 40 -323 123 -463z" />
    <glyph glyph-name="parenright" unicode=")" horiz-adv-x="304" 
d="M246 288c0 -151 -36 -323 -148 -499l-77 36c79 137 121 295 121 458c0 170 -41 324 -122 463l81 38c114 -182 145 -343 145 -496z" />
    <glyph glyph-name="asterisk" unicode="*" horiz-adv-x="378" 
d="M339 534l-39 -68l-88 67l14 -110h-78l13 110l-88 -67l-38 67l102 43l-102 43l39 67l88 -66l-14 110h78l-13 -110l88 66l38 -66l-102 -43z" />
    <glyph glyph-name="plus" unicode="+" 
d="M509 253h-184v-195h-101v195h-183v89h183v194h101v-194h184v-89z" />
    <glyph glyph-name="comma" unicode="," horiz-adv-x="242" 
d="M119 129c83 0 121 -141 -48 -292l-45 40c66 71 69 116 43 148c-33 40 -8 104 50 104z" />
    <glyph glyph-name="hyphen" unicode="-" horiz-adv-x="332" 
d="M286 240h-240v86h240v-86z" />
    <glyph glyph-name="period" unicode="." horiz-adv-x="242" 
d="M192 61c0 -39 -32 -71 -71 -71s-71 32 -71 71s32 71 71 71s71 -32 71 -71z" />
    <glyph glyph-name="slash" unicode="/" horiz-adv-x="449" 
d="M451 757l-350 -918h-105l351 918h104z" />
    <glyph glyph-name="zero" unicode="0" 
d="M507 331c0 -245 -115 -341 -238 -341c-144 0 -227 83 -227 338c0 227 99 332 239 332c137 0 226 -80 226 -329zM392 326c0 189 -38 244 -118 244c-67 0 -117 -57 -117 -237c0 -183 31 -252 117 -252c74 0 118 72 118 245z" />
    <glyph glyph-name="one" unicode="1" 
d="M499 0h-428v96h169v444l-153 -60l-18 101l198 69h84v-554h148v-96z" />
    <glyph glyph-name="two" unicode="2" 
d="M488 0h-433v87l123 120c144 142 169 187 169 245c0 63 -43 111 -120 111c-57 0 -110 -23 -143 -48l-24 94c50 29 115 51 188 51c147 0 216 -90 216 -189c0 -86 -32 -151 -161 -273l-102 -96v-2c44 2 113 3 196 3h91v-103z" />
    <glyph glyph-name="three" unicode="3" 
d="M478 202c0 -132 -111 -212 -280 -212c-47 0 -94 6 -126 16l11 93c37 -12 78 -19 124 -19c104 0 156 45 156 110c0 64 -51 105 -154 105c-36 0 -65 -2 -99 -5v84h25c132 0 215 34 215 110c0 54 -43 88 -116 88c-55 0 -102 -15 -142 -35l-10 91c48 19 105 32 172 32
c140 0 208 -67 208 -157c0 -76 -44 -128 -119 -150l-1 -2c79 -8 136 -72 136 -149z" />
    <glyph glyph-name="four" unicode="4" 
d="M529 146h-100v-146h-106v146h-293l-9 88l263 416h145v-408h100v-96zM325 242v301h-1l-195 -303c53 2 160 2 196 2z" />
    <glyph glyph-name="five" unicode="5" 
d="M481 215c0 -136 -111 -225 -277 -225c-45 0 -83 4 -122 13v98c38 -12 79 -19 130 -19c98 0 152 47 152 121c0 73 -62 111 -159 111c-43 0 -84 -3 -111 -8v344h361v-101h-260v-151c14 1 34 1 47 1c156 0 239 -79 239 -184z" />
    <glyph glyph-name="six" unicode="6" 
d="M509 221c0 -141 -92 -231 -230 -231c-144 0 -232 96 -232 278c0 270 136 391 336 391c22 0 48 -1 66 -3v-93c-23 4 -45 6 -73 6c-124 0 -188 -69 -215 -188c-2 -10 -5 -25 -8 -45h1c32 48 87 75 153 75c131 0 202 -85 202 -190zM401 204c0 72 -40 119 -119 119
c-76 0 -120 -60 -120 -112c0 -74 42 -134 124 -134c73 0 115 53 115 127z" />
    <glyph glyph-name="seven" unicode="7" 
d="M497 558c-97 -182 -184 -393 -238 -558h-123c62 178 150 387 237 548c-26 -1 -146 -3 -233 -3h-87v105h444v-92z" />
    <glyph glyph-name="eight" unicode="8" 
d="M502 172c0 -115 -104 -182 -233 -182c-135 0 -221 64 -221 166c0 80 61 130 130 170c-70 38 -114 83 -114 158c0 103 89 176 217 176c129 0 205 -67 205 -160c0 -73 -54 -119 -116 -158c68 -36 132 -81 132 -170zM377 491c0 52 -39 85 -104 85c-64 0 -100 -38 -100 -83
c0 -50 35 -76 107 -111c53 30 97 61 97 109zM390 162c0 64 -57 94 -124 123c-56 -32 -107 -65 -107 -121c0 -51 42 -88 119 -88c64 0 112 32 112 86z" />
    <glyph glyph-name="nine" unicode="9" 
d="M500 382c0 -275 -138 -391 -336 -391c-27 0 -57 1 -85 7v95c30 -7 63 -11 94 -11c119 0 185 60 208 177c3 17 6 28 9 44h-1c-31 -41 -83 -66 -148 -66c-130 0 -201 84 -201 195c0 140 96 228 230 228c140 0 230 -85 230 -278zM384 440c0 77 -43 133 -122 133
c-72 0 -114 -55 -114 -125c0 -75 42 -122 115 -122c78 0 121 53 121 114z" />
    <glyph glyph-name="colon" unicode=":" horiz-adv-x="292" 
d="M230 349c0 -39 -32 -71 -71 -71s-71 32 -71 71s32 71 71 71s71 -32 71 -71zM230 61c0 -39 -32 -71 -71 -71s-71 32 -71 71s32 71 71 71s71 -32 71 -71z" />
    <glyph glyph-name="semicolon" unicode=";" horiz-adv-x="292" 
d="M230 349c0 -39 -32 -71 -71 -71s-71 32 -71 71s32 71 71 71s71 -32 71 -71zM159 129c82 0 121 -141 -48 -292l-45 40c66 71 69 116 42 148c-32 40 -7 104 51 104z" />
    <glyph glyph-name="less" unicode="&#x3c;" 
d="M455 86l-69 -73l-318 289l317 288l69 -70l-249 -217z" />
    <glyph glyph-name="equal" unicode="=" 
d="M495 343h-440v87h440v-87zM495 164h-440v87h440v-87z" />
    <glyph glyph-name="greater" unicode="&#x3e;" 
d="M482 302l-317 -289l-69 70l249 218l-250 216l69 73z" />
    <glyph glyph-name="question" unicode="?" horiz-adv-x="448" 
d="M394 515c0 -167 -202 -165 -151 -338h-104c-64 194 137 215 137 326c0 63 -76 108 -200 113l14 97c201 -6 304 -98 304 -198zM260 57c0 -38 -29 -67 -68 -67c-38 0 -68 29 -68 67c0 37 30 66 68 66c39 0 68 -29 68 -66z" />
    <glyph glyph-name="at" unicode="@" horiz-adv-x="975" 
d="M882 409c0 -182 -100 -280 -233 -280c-78 0 -110 49 -105 104h-3c-18 -42 -77 -104 -146 -104c-64 0 -99 48 -99 139c0 147 74 268 229 268c46 0 92 -8 123 -17l-37 -206c-13 -70 6 -98 52 -98c69 0 123 61 123 189c0 123 -73 245 -269 245c-186 0 -336 -145 -336 -356
c0 -178 99 -289 298 -289c58 0 115 10 171 27l16 -84c-63 -21 -141 -31 -200 -31c-246 0 -383 142 -383 365c0 264 198 454 441 454c240 0 358 -150 358 -326zM553 456c-14 5 -32 7 -52 7c-81 0 -119 -105 -119 -177c0 -48 12 -71 38 -71c44 0 98 61 124 193z" />
    <glyph glyph-name="A" unicode="A" horiz-adv-x="620" 
d="M614 0h-121l-52 149h-273l-52 -149h-110l242 675h121zM413 236l-80 223c-11 33 -21 63 -28 92h-2c-7 -29 -16 -59 -27 -91l-80 -224h217z" />
    <glyph glyph-name="B" unicode="B" horiz-adv-x="574" 
d="M528 204c0 -88 -58 -207 -265 -207c-41 0 -110 2 -185 3v675c53 1 128 3 210 3c144 0 220 -60 220 -164c0 -69 -40 -128 -110 -154v-2c88 -17 130 -84 130 -154zM393 497c0 55 -30 94 -124 94c-29 0 -56 -1 -82 -2v-200c18 -1 35 -1 58 -1c101 0 148 41 148 109zM412 202
c0 77 -69 105 -164 105c-11 0 -46 0 -61 -1v-215c17 -3 45 -5 80 -5c99 0 145 48 145 116z" />
    <glyph glyph-name="C" unicode="C" horiz-adv-x="575" 
d="M533 26c-51 -21 -116 -34 -181 -34c-226 0 -309 146 -309 327c0 210 106 362 333 362c50 0 104 -7 150 -21l-16 -100c-45 16 -94 25 -143 25c-141 0 -205 -108 -205 -248c0 -157 67 -247 214 -247c46 0 101 13 139 32z" />
    <glyph glyph-name="D" unicode="D" horiz-adv-x="673" 
d="M631 347c0 -232 -154 -351 -374 -351c-69 0 -126 3 -179 4v674c53 1 131 4 209 4c213 0 344 -97 344 -331zM515 339c0 160 -71 249 -236 249c-33 0 -68 -1 -92 -3v-491c22 -3 55 -5 81 -5c145 0 247 77 247 250z" />
    <glyph glyph-name="E" unicode="E" horiz-adv-x="498" 
d="M434 0h-356v675h356v-91h-247v-192h235v-89h-235v-210h247v-93z" />
    <glyph glyph-name="F" unicode="F" horiz-adv-x="467" 
d="M430 583h-243v-198h230v-89h-230v-296h-109v675h352v-92z" />
    <glyph glyph-name="G" unicode="G" horiz-adv-x="679" 
d="M604 31c-67 -26 -149 -41 -226 -41c-209 0 -338 125 -338 333c0 209 140 361 368 361c68 0 133 -11 189 -28l-23 -100c-53 21 -111 33 -174 33c-136 0 -243 -88 -243 -255c0 -156 89 -247 234 -247c39 0 73 6 104 16v245h109v-317z" />
    <glyph glyph-name="H" unicode="H" horiz-adv-x="693" 
d="M614 0h-108v303h-319v-303h-109v675h109v-279h319v279h108v-675z" />
    <glyph glyph-name="I" unicode="I" horiz-adv-x="266" 
d="M187 0h-109v675h109v-675z" />
    <glyph glyph-name="J" unicode="J" horiz-adv-x="332" 
d="M254 182c0 -112 -45 -190 -175 -190c-32 0 -57 4 -78 8v95c17 -6 41 -11 65 -11c51 0 79 21 79 103v488h109v-493z" />
    <glyph glyph-name="K" unicode="K" horiz-adv-x="590" 
d="M577 0h-145l-245 330v-330h-109v675h109v-313l246 313h134l-268 -326z" />
    <glyph glyph-name="L" unicode="L" horiz-adv-x="427" 
d="M419 0h-341v675h109v-580h232v-95z" />
    <glyph glyph-name="M" unicode="M" horiz-adv-x="886" 
d="M845 0h-115l-53 359c-10 68 -16 121 -21 165h-2c-8 -38 -18 -81 -35 -132l-127 -392h-113l-121 365c-19 56 -33 108 -43 159h-2c-4 -58 -11 -111 -18 -175l-43 -349h-111l101 675h130l130 -390c12 -38 26 -87 38 -138h1c12 50 22 88 38 134l132 394h131z" />
    <glyph glyph-name="N" unicode="N" horiz-adv-x="704" 
d="M625 0h-141l-231 384c-30 49 -54 97 -75 142c4 -66 6 -203 6 -299v-227h-106v675h143l223 -368c30 -50 57 -104 82 -153c-4 77 -7 222 -7 321v200h106v-675z" />
    <glyph glyph-name="O" unicode="O" horiz-adv-x="704" 
d="M666 346c0 -224 -145 -356 -324 -356c-205 0 -304 133 -304 340c0 224 146 355 324 355c182 0 304 -113 304 -339zM550 335c0 163 -72 254 -198 254c-104 0 -198 -84 -198 -246c0 -153 63 -256 196 -256c100 0 200 80 200 248z" />
    <glyph glyph-name="P" unicode="P" horiz-adv-x="527" 
d="M499 476c0 -131 -105 -229 -262 -229c-15 0 -33 0 -50 2v-249h-109v675c52 2 110 4 173 4c160 0 248 -78 248 -203zM386 467c0 77 -45 123 -143 123c-21 0 -38 0 -56 -2v-247c15 -2 32 -4 48 -4c91 1 151 51 151 130z" />
    <glyph glyph-name="Q" unicode="Q" horiz-adv-x="703" 
d="M666 346c0 -224 -145 -356 -324 -356c-205 0 -304 133 -304 340c0 224 146 355 324 355c182 0 304 -113 304 -339zM702 -193c-178 -27 -244 49 -390 29v97c168 20 228 -52 390 -30v-96zM550 335c0 163 -72 254 -198 254c-104 0 -198 -84 -198 -246
c0 -153 63 -256 196 -256c100 0 200 80 200 248z" />
    <glyph glyph-name="R" unicode="R" horiz-adv-x="559" 
d="M539 0h-137l-203 292h-12v-292h-109v675c49 3 105 4 181 4c140 0 236 -49 236 -183c0 -108 -83 -177 -184 -189c19 -24 40 -49 56 -72zM381 484c0 74 -46 106 -137 106c-21 0 -41 -1 -57 -2v-214c10 -1 29 -2 53 -2c88 0 141 45 141 112z" />
    <glyph glyph-name="S" unicode="S" horiz-adv-x="503" 
d="M460 202c0 -123 -101 -212 -254 -212c-58 0 -109 7 -152 19l12 104c44 -17 93 -28 144 -28c71 0 132 29 132 103c0 142 -296 82 -296 300c0 116 88 197 244 197c38 0 85 -5 122 -13l-11 -96c-36 12 -76 19 -116 19c-85 0 -124 -38 -124 -94c0 -135 299 -86 299 -299z" />
    <glyph glyph-name="T" unicode="T" horiz-adv-x="514" 
d="M497 583h-186v-583h-109v583h-185v92h480v-92z" />
    <glyph glyph-name="U" unicode="U" horiz-adv-x="687" 
d="M609 260c0 -180 -97 -270 -274 -270c-212 0 -257 116 -257 240v445h109v-437c0 -90 30 -158 155 -158c110 0 160 46 160 172v423h107v-415z" />
    <glyph glyph-name="V" unicode="V" horiz-adv-x="622" 
d="M614 675l-243 -675h-124l-240 675h120l142 -416c14 -39 30 -91 42 -135h1c12 45 28 95 45 142l145 409h112z" />
    <glyph glyph-name="W" unicode="W" horiz-adv-x="952" 
d="M922 675l-175 -675h-134l-115 417c-12 41 -19 84 -26 127h-1c-5 -42 -13 -83 -24 -125l-114 -419h-128l-175 675h116l104 -410c12 -45 20 -88 26 -133h1c7 44 15 87 27 128l115 415h119l118 -416c10 -36 20 -81 27 -124h1c7 42 14 81 24 118l105 422h109z" />
    <glyph glyph-name="X" unicode="X" horiz-adv-x="612" 
d="M598 0h-137l-160 265l-159 -265h-128l219 347l-206 328h126l150 -247l148 247h123l-202 -326z" />
    <glyph glyph-name="Y" unicode="Y" horiz-adv-x="548" 
d="M541 675l-215 -434v-241h-109v241l-211 434h119l100 -213c18 -40 34 -78 48 -114h2c15 40 35 83 56 126l95 201h115z" />
    <glyph glyph-name="Z" unicode="Z" horiz-adv-x="538" 
d="M494 0h-449v83l266 423c16 26 32 49 50 73c-29 -1 -68 -1 -137 -1h-169v97h435v-86l-280 -437c-11 -19 -22 -35 -35 -54c18 2 72 2 158 2h161v-100z" />
    <glyph glyph-name="bracketleft" unicode="[" horiz-adv-x="324" 
d="M287 -201h-208v975h208v-84h-108v-806h108v-85z" />
    <glyph glyph-name="backslash" unicode="\" horiz-adv-x="459" 
d="M464 -161h-105l-350 918h104z" />
    <glyph glyph-name="bracketright" unicode="]" horiz-adv-x="324" 
d="M245 -201h-208v85h108v806h-108v84h208v-975z" />
    <glyph glyph-name="asciicircum" unicode="^" 
d="M481 380l-78 -40l-139 257l-132 -257l-72 38l165 297h84z" />
    <glyph glyph-name="underscore" unicode="_" 
d="M550 -248h-550v86h550v-86z" />
    <glyph glyph-name="quoteleft" unicode="&#x2018;" horiz-adv-x="254" 
d="M215 712c-66 -70 -69 -115 -42 -148c32 -39 7 -104 -50 -104c-83 0 -122 141 47 292z" />
    <glyph glyph-name="a" unicode="a" horiz-adv-x="523" 
d="M446 0h-103c0 32 1 65 5 92l-1 1c-24 -59 -86 -103 -165 -103c-85 0 -139 57 -139 138c0 112 111 173 293 173v29c0 61 -26 94 -104 94c-46 0 -102 -15 -142 -36l-21 86c50 19 117 33 181 33c151 0 193 -66 193 -165v-206c0 -43 1 -94 3 -136zM336 215v14
c-149 0 -190 -41 -190 -88c0 -38 26 -67 68 -67c73 0 122 70 122 141z" />
    <glyph glyph-name="b" unicode="b" horiz-adv-x="558" 
d="M519 273c0 -172 -99 -281 -264 -281c-70 0 -123 7 -177 21v717h107v-229c0 -29 -3 -69 -9 -95h2c26 62 85 101 158 101c118 0 183 -84 183 -234zM406 263c0 100 -31 155 -98 155c-80 0 -123 -93 -123 -177v-154c22 -7 47 -10 78 -10c85 0 143 52 143 186z" />
    <glyph glyph-name="c" unicode="c" horiz-adv-x="431" 
d="M403 17c-41 -17 -94 -25 -144 -25c-128 0 -221 63 -221 240c0 158 81 273 247 273c42 0 83 -6 116 -19l-18 -91c-30 12 -67 21 -104 21c-84 0 -129 -70 -129 -172c0 -91 32 -160 130 -160c39 0 76 7 107 22z" />
    <glyph glyph-name="d" unicode="d" horiz-adv-x="557" 
d="M479 0h-101c0 26 2 65 7 93h-2c-27 -61 -85 -103 -162 -103c-122 0 -183 90 -183 234c0 171 99 281 260 281c24 0 48 -2 75 -4v229h106v-730zM373 257v154c-27 6 -53 9 -79 9c-85 0 -143 -52 -143 -186c0 -100 31 -156 99 -156c79 0 123 94 123 179z" />
    <glyph glyph-name="e" unicode="e" horiz-adv-x="511" 
d="M468 292c0 -14 -1 -31 -3 -52h-317c-3 -113 48 -164 147 -164c48 0 98 10 143 30l14 -84c-52 -21 -114 -32 -176 -32c-153 0 -238 80 -238 255c0 150 82 262 227 262c142 0 203 -97 203 -215zM361 314c2 71 -37 114 -100 114c-60 0 -102 -44 -111 -114h211z" />
    <glyph glyph-name="f" unicode="f" horiz-adv-x="352" 
d="M378 728l-8 -88c-22 7 -46 10 -68 10c-64 0 -93 -35 -93 -113v-40h129v-83h-129v-414h-106v414h-95v83h95v38c0 136 65 202 194 202c28 0 55 -3 81 -9z" />
    <glyph glyph-name="g" unicode="g" horiz-adv-x="543" 
d="M515 -60c0 -107 -107 -194 -267 -194c-130 0 -211 52 -211 149c0 55 38 104 81 128c-30 13 -49 41 -49 75c0 36 23 70 57 86c-46 26 -74 71 -74 136c0 100 74 187 215 187c29 0 49 -4 75 -10h169v-84h-76c21 -18 33 -46 33 -79c0 -104 -70 -180 -211 -180
c-18 0 -31 2 -47 6c-19 -9 -29 -24 -29 -37c0 -26 23 -33 82 -36l84 -3c108 -4 168 -52 168 -144zM365 328c0 61 -37 100 -103 100c-67 0 -106 -43 -106 -100c0 -62 37 -99 104 -99c65 0 105 37 105 99zM409 -75c0 43 -28 71 -92 74l-91 3h-27c-34 -24 -56 -54 -56 -88
c0 -53 50 -85 122 -85c93 0 144 42 144 96z" />
    <glyph glyph-name="h" unicode="h" horiz-adv-x="573" 
d="M495 0h-106v319c0 62 -17 99 -74 99c-75 0 -130 -79 -130 -179v-239h-107v730h107v-226c0 -31 -2 -72 -9 -100l2 -1c29 63 88 104 169 104c113 0 148 -72 148 -159v-348z" />
    <glyph glyph-name="i" unicode="i" horiz-adv-x="263" 
d="M200 652c0 -37 -31 -67 -68 -67c-38 0 -69 29 -69 67c0 37 31 67 69 67c37 0 68 -30 68 -67zM185 0h-107v497h107v-497z" />
    <glyph glyph-name="j" unicode="j" horiz-adv-x="268" 
d="M205 652c0 -37 -30 -67 -68 -67s-69 29 -69 67c0 37 31 67 69 67s68 -30 68 -67zM190 -47c0 -133 -44 -204 -181 -204c-22 0 -49 3 -69 9l7 92c19 -7 42 -11 62 -11c58 0 75 25 75 104v554h106v-544z" />
    <glyph glyph-name="k" unicode="k" horiz-adv-x="507" 
d="M491 0h-136l-170 252v-252h-107v730h107v-446l161 213h131l-184 -227z" />
    <glyph glyph-name="l" unicode="l" horiz-adv-x="263" 
d="M185 0h-107v730h107v-730z" />
    <glyph glyph-name="m" unicode="m" horiz-adv-x="873" 
d="M795 0h-106v317c0 61 -15 101 -72 101c-64 0 -128 -71 -128 -181v-237h-105v317c0 57 -12 101 -72 101c-68 0 -127 -76 -127 -181v-237h-107v497h102c0 -27 -2 -68 -7 -98l2 -1c29 66 91 109 168 109c98 0 130 -63 138 -107c21 47 76 107 166 107c95 0 148 -52 148 -164
v-343z" />
    <glyph glyph-name="n" unicode="n" horiz-adv-x="573" 
d="M495 0h-106v319c0 62 -17 99 -74 99c-75 0 -130 -79 -130 -179v-239h-107v497h102c0 -27 -2 -70 -7 -98h1c29 64 89 108 173 108c113 0 148 -72 148 -159v-348z" />
    <glyph glyph-name="o" unicode="o" horiz-adv-x="549" 
d="M511 258c0 -153 -100 -268 -247 -268c-138 0 -228 77 -228 252c0 150 97 265 248 265c133 0 227 -74 227 -249zM401 251c0 106 -41 166 -126 166c-65 0 -128 -50 -128 -164c0 -112 44 -171 127 -171c69 0 127 54 127 169z" />
    <glyph glyph-name="p" unicode="p" horiz-adv-x="558" 
d="M519 273c0 -175 -93 -280 -259 -280c-28 0 -49 1 -75 6v-243h-107v741h101c0 -26 -1 -66 -6 -93h2c28 63 85 103 161 103c118 0 183 -84 183 -234zM406 263c0 100 -31 156 -98 156c-80 0 -123 -94 -123 -179v-153c23 -7 48 -10 78 -10c85 0 143 52 143 186z" />
    <glyph glyph-name="q" unicode="q" horiz-adv-x="558" 
d="M480 -244h-106v243c0 25 1 61 7 92l-2 1c-26 -63 -85 -102 -155 -102c-118 0 -184 79 -184 233c0 172 97 282 266 282c64 0 122 -5 174 -14v-735zM374 259v153c-26 6 -51 9 -79 9c-85 0 -143 -53 -143 -187c0 -100 31 -156 98 -156c80 0 124 94 124 181z" />
    <glyph glyph-name="r" unicode="r" horiz-adv-x="355" 
d="M337 506l-5 -105c-99 19 -147 -50 -147 -199v-202h-107v497h102c0 -28 -3 -72 -10 -110h2c22 67 72 129 165 119z" />
    <glyph glyph-name="s" unicode="s" horiz-adv-x="421" 
d="M376 152c0 -94 -82 -162 -214 -162c-38 0 -79 5 -110 14l8 91c31 -12 71 -19 109 -19c56 0 95 25 95 65c0 102 -218 40 -218 212c0 87 66 154 203 154c30 0 65 -4 94 -10l-6 -86c-29 9 -62 14 -94 14c-59 0 -87 -24 -87 -62c0 -98 220 -44 220 -211z" />
    <glyph glyph-name="t" unicode="t" horiz-adv-x="373" 
d="M341 3c-30 -7 -71 -12 -104 -12c-106 0 -138 41 -138 152v271h-95v83h95v158l107 29v-187h130v-83h-130v-238c0 -74 15 -94 65 -94c22 0 43 3 61 7z" />
    <glyph glyph-name="u" unicode="u" horiz-adv-x="573" 
d="M495 0h-102c0 27 2 70 7 98h-1c-29 -64 -89 -108 -173 -108c-113 0 -148 72 -148 159v348h106v-319c0 -62 17 -99 74 -99c75 0 130 79 130 179v239h107v-497z" />
    <glyph glyph-name="v" unicode="v" horiz-adv-x="495" 
d="M489 497l-188 -497h-109l-186 497h118l93 -263c12 -34 23 -69 32 -102h1c8 31 18 66 29 98l95 267h115z" />
    <glyph glyph-name="w" unicode="w" horiz-adv-x="794" 
d="M781 497l-159 -497h-118l-86 260c-11 33 -20 67 -29 105h-1c-10 -44 -21 -83 -34 -125l-75 -240h-113l-153 497h117l66 -231c13 -47 27 -94 37 -139h1c10 49 22 93 35 136l74 234h108l75 -230c19 -60 29 -97 39 -140h1c10 46 20 86 35 135l69 235h111z" />
    <glyph glyph-name="x" unicode="x" horiz-adv-x="523" 
d="M506 0h-136l-112 180l-113 -180h-129l178 250l-168 247h129l111 -177l113 177h119l-164 -245z" />
    <glyph glyph-name="y" unicode="y" horiz-adv-x="490" 
d="M484 497l-201 -532c-62 -166 -128 -217 -241 -217c-19 0 -46 3 -63 6l12 93c17 -5 41 -8 61 -8c47 0 91 23 124 112l18 49l-186 497h120l81 -227c16 -44 28 -88 39 -130h1c10 40 31 105 49 155l71 202h115z" />
    <glyph glyph-name="z" unicode="z" horiz-adv-x="449" 
d="M399 0h-352v76l221 327c-25 -1 -69 -2 -120 -2h-96v96h343v-75l-218 -326c25 1 84 2 125 2h97v-98z" />
    <glyph glyph-name="braceleft" unicode="{" horiz-adv-x="350" 
d="M318 -201h-19c-121 0 -168 66 -168 207v157c0 81 -30 107 -103 111v82c74 4 103 25 103 108v104c0 128 43 206 168 206h19v-84c-67 0 -88 -25 -88 -120v-103c0 -96 -33 -140 -92 -151v-1c58 -9 92 -59 92 -155v-156c0 -95 21 -120 88 -120v-85z" />
    <glyph glyph-name="bar" unicode="|" horiz-adv-x="286" 
d="M184 -244h-85v1000h85v-1000z" />
    <glyph glyph-name="braceright" unicode="}" horiz-adv-x="348" 
d="M327 274c-72 -4 -103 -30 -103 -111v-157c0 -141 -47 -207 -168 -207h-19v85c67 0 88 25 88 120v156c0 96 34 146 92 155v1c-59 8 -92 55 -92 148v106c0 95 -21 120 -88 120v84h19c125 0 168 -78 168 -206v-101c0 -86 29 -107 103 -111v-82z" />
    <glyph glyph-name="asciitilde" unicode="~" 
d="M502 565c0 -91 -54 -153 -141 -153c-112 0 -114 108 -178 108c-38 0 -54 -32 -55 -85h-79v13c0 91 54 153 141 153c112 0 114 -108 178 -108c38 0 54 33 55 86h79v-14z" />
    <glyph glyph-name="exclamdown" unicode="&#xa1;" horiz-adv-x="320" 
d="M220 440c0 -37 -30 -66 -68 -66c-39 0 -68 29 -68 66c0 38 29 67 68 67c38 0 68 -29 68 -67zM214 -208h-126l17 528h91z" />
    <glyph glyph-name="cent" unicode="&#xa2;" 
d="M472 132c-35 -16 -77 -28 -117 -31v-101h-82v101c-128 10 -196 93 -196 227c0 125 72 210 196 234v88h82v-85c34 -2 75 -10 109 -22l-21 -88c-31 14 -69 24 -109 24c-89 0 -146 -51 -146 -147c0 -84 45 -142 145 -142c40 0 81 10 113 28z" />
    <glyph glyph-name="sterling" unicode="&#xa3;" 
d="M485 0h-414v73c57 48 87 93 87 146c0 20 -2 41 -6 62h-101v83h90c-5 34 -10 68 -10 99c0 143 81 197 208 197c33 0 83 -6 121 -16l-23 -90c-30 10 -68 19 -105 19c-62 0 -93 -35 -93 -100c0 -35 6 -73 11 -109h155v-83h-145c4 -19 5 -39 5 -58c0 -56 -22 -93 -67 -133
c22 1 49 2 77 2h210v-92z" />
    <glyph glyph-name="fraction" unicode="&#x2044;" horiz-adv-x="426" 
d="M505 644l-485 -674l-77 55l485 675z" />
    <glyph glyph-name="yen" unicode="&#xa5;" 
d="M523 650l-169 -343h134v-70h-160v-66h160v-70h-160v-101h-108v101h-160v70h160v66h-160v70h134l-167 343h119l85 -186c18 -38 32 -77 43 -108h2c13 35 31 77 48 113l84 181h115z" />
    <glyph glyph-name="florin" unicode="&#x192;" 
d="M517 690l-13 -91c-30 10 -62 16 -87 16c-61 0 -89 -33 -97 -113l-13 -138h146v-83h-154l-22 -232c-13 -146 -87 -209 -214 -209c-27 0 -62 4 -92 12l14 90c28 -8 62 -15 89 -15c58 0 88 32 95 112l23 242h-114v83h122l13 129c15 146 87 209 214 209c28 0 62 -5 90 -12z
" />
    <glyph glyph-name="section" unicode="&#xa7;" horiz-adv-x="524" 
d="M444 240c0 -56 -29 -107 -77 -143c22 -29 38 -63 38 -104c0 -80 -61 -159 -206 -159c-22 0 -54 4 -80 10l7 90c28 -8 51 -12 76 -12c59 0 89 30 89 70c0 99 -224 168 -224 341c0 56 28 106 77 143c-24 31 -38 63 -38 104c0 85 57 157 194 157c24 0 54 -3 78 -8l-7 -90
c-25 8 -46 11 -70 11c-55 0 -81 -24 -81 -65c0 -97 224 -174 224 -345zM346 226c0 72 -72 122 -142 194c-27 -20 -38 -48 -38 -73c0 -67 61 -117 142 -193c27 19 38 46 38 72z" />
    <glyph glyph-name="currency" unicode="&#xa4;" 
d="M507 113l-80 -59l-79 106c-24 -13 -52 -20 -82 -20c-23 0 -44 4 -62 11l-70 -96l-82 58l71 88c-23 29 -37 71 -37 127c0 50 15 92 42 124l-75 94l80 58l73 -100c23 11 49 16 77 16c23 0 50 -3 72 -14l73 98l79 -59l-74 -93c19 -27 31 -64 31 -116c0 -48 -14 -90 -39 -121
zM369 334c0 64 -27 107 -96 107c-50 0 -92 -40 -92 -110c0 -63 26 -113 95 -113c48 0 93 40 93 116z" />
    <glyph glyph-name="quotesingle" unicode="'" horiz-adv-x="207" 
d="M158 701l-15 -241h-79l-16 241h110z" />
    <glyph glyph-name="quotedblleft" unicode="&#x201c;" horiz-adv-x="457" 
d="M418 712c-66 -70 -69 -115 -42 -148c32 -39 7 -104 -51 -104c-83 0 -121 141 48 292zM215 712c-66 -70 -69 -115 -42 -148c32 -39 7 -104 -50 -104c-83 0 -122 141 47 292z" />
    <glyph glyph-name="guillemotleft" unicode="&#xab;" horiz-adv-x="520" 
d="M455 151l-83 -41l-120 183l122 185l80 -40l-97 -145zM244 147l-85 -40l-110 186l112 188l81 -39l-89 -149z" />
    <glyph glyph-name="guilsinglleft" unicode="&#x2039;" horiz-adv-x="313" 
d="M247 150l-83 -42l-116 185l117 187l81 -41l-94 -146z" />
    <glyph glyph-name="guilsinglright" unicode="&#x203a;" horiz-adv-x="313" 
d="M265 295l-118 -187l-80 41l94 146l-94 143l83 42z" />
    <glyph glyph-name="fi" unicode="&#xfb01;" horiz-adv-x="592" 
d="M514 0h-106v414h-199v-414h-106v414h-95v83h95v20c0 143 75 220 237 220c54 0 100 -7 147 -19l-19 -89c-38 12 -85 20 -122 20c-97 0 -137 -44 -137 -123v-29h305v-497z" />
    <glyph glyph-name="fl" unicode="&#xfb02;" horiz-adv-x="592" 
d="M514 0h-106v643c-27 5 -52 7 -79 7c-80 0 -120 -32 -120 -107v-46h124v-83h-124v-414h-106v414h-95v83h95v53c0 113 70 187 236 187c51 0 115 -6 175 -16v-721z" />
    <glyph glyph-name="endash" unicode="&#x2013;" 
d="M550 251h-550v93h550v-93z" />
    <glyph glyph-name="dagger" unicode="&#x2020;" horiz-adv-x="452" 
d="M407 546h-138l19 -93l-21 -253h-82l-21 253l19 93h-138v83h138l-19 137h124l-19 -137h138v-83z" />
    <glyph glyph-name="daggerdbl" unicode="&#x2021;" horiz-adv-x="452" 
d="M407 292h-137l19 -127h-126l19 127h-137v82h137l-18 91l18 92h-137v82h137l-18 127h124l-18 -127h137v-82h-137l18 -92l-18 -91h137v-82z" />
    <glyph glyph-name="periodcentered" unicode="&#xb7;" horiz-adv-x="250" 
d="M198 297c0 -40 -33 -72 -73 -72s-73 32 -73 72c0 41 33 73 73 73s73 -32 73 -73z" />
    <glyph glyph-name="paragraph" unicode="&#xb6;" horiz-adv-x="585" 
d="M528 591h-68v-687h-165v84h72v687h161v-84zM290 240c-158 -1 -229 100 -229 219c0 128 93 216 229 216v-435z" />
    <glyph glyph-name="bullet" unicode="&#x2022;" horiz-adv-x="421" 
d="M344 297c0 -73 -60 -133 -133 -133c-74 0 -133 60 -133 133s59 133 133 133c73 0 133 -60 133 -133z" />
    <glyph glyph-name="quotesinglbase" unicode="&#x201a;" horiz-adv-x="254" 
d="M130 129c83 0 121 -141 -47 -292l-45 40c65 71 68 116 42 148c-33 40 -8 104 50 104z" />
    <glyph glyph-name="quotedblbase" unicode="&#x201e;" horiz-adv-x="457" 
d="M333 129c83 0 121 -141 -48 -292l-45 40c66 71 69 116 42 148c-32 40 -7 104 51 104zM130 129c83 0 121 -141 -47 -292l-45 40c65 71 68 116 42 148c-33 40 -8 104 50 104z" />
    <glyph glyph-name="quotedblright" unicode="&#x201d;" horiz-adv-x="457" 
d="M333 745c83 0 121 -141 -48 -292l-45 40c66 71 69 115 42 148c-32 39 -7 104 51 104zM130 745c83 0 121 -141 -47 -292l-45 40c65 71 68 115 42 148c-33 39 -8 104 50 104z" />
    <glyph glyph-name="guillemotright" unicode="&#xbb;" horiz-adv-x="520" 
d="M472 295l-113 -188l-82 39l90 149l-90 146l85 40zM268 295l-123 -185l-79 40l97 145l-97 142l82 41z" />
    <glyph glyph-name="ellipsis" unicode="&#x2026;" horiz-adv-x="691" 
d="M633 58c0 -37 -31 -68 -68 -68c-38 0 -69 31 -69 68c0 38 31 69 69 69c37 0 68 -31 68 -69zM410 58c0 -37 -31 -68 -69 -68c-37 0 -68 31 -68 68c0 38 31 69 68 69c38 0 69 -31 69 -69zM187 58c0 -37 -31 -68 -69 -68c-37 0 -68 31 -68 68c0 38 31 69 68 69
c38 0 69 -31 69 -69z" />
    <glyph glyph-name="perthousand" unicode="&#x2030;" horiz-adv-x="1037" 
d="M905 145c0 59 -19 85 -59 85c-36 0 -60 -33 -60 -86c0 -60 19 -85 58 -85c37 0 61 32 61 86zM985 152c0 -102 -67 -162 -145 -162c-81 0 -135 48 -135 149c0 100 67 160 144 160c78 0 136 -42 136 -147zM582 145c0 59 -18 85 -58 85c-37 0 -61 -33 -61 -86
c0 -60 19 -85 59 -85c36 0 60 32 60 86zM662 152c0 -102 -67 -162 -144 -162c-82 0 -136 48 -136 149c0 100 67 160 144 160c78 0 136 -42 136 -147zM647 617l-524 -635l-65 50l524 635zM244 507c0 59 -18 84 -58 84c-37 0 -61 -32 -61 -85c0 -60 20 -86 59 -86
c36 0 60 33 60 87zM324 513c0 -102 -67 -162 -144 -162c-82 0 -136 49 -136 150c0 100 67 159 144 159c78 0 136 -42 136 -147z" />
    <glyph glyph-name="questiondown" unicode="&#xbf;" horiz-adv-x="448" 
d="M324 440c0 -37 -30 -66 -68 -66c-39 0 -69 29 -69 66c0 38 30 67 69 67c38 0 68 -29 68 -67zM372 -119l-14 -97c-201 6 -304 98 -304 198c0 167 202 165 151 338h104c64 -194 -138 -215 -138 -326c0 -63 77 -108 201 -113z" />
    <glyph glyph-name="grave" unicode="`" horiz-adv-x="371" 
d="M296 623l-43 -57l-164 111l54 71z" />
    <glyph glyph-name="acute" unicode="&#xb4;" horiz-adv-x="391" 
d="M300 677l-164 -111l-43 57l153 125z" />
    <glyph glyph-name="circumflex" unicode="&#x2c6;" horiz-adv-x="430" 
d="M359 616l-45 -50l-101 83l-102 -83l-43 49l146 133z" />
    <glyph glyph-name="tilde" unicode="&#x2dc;" horiz-adv-x="483" 
d="M415 670c-28 -53 -67 -82 -115 -82c-66 0 -85 52 -125 52c-23 0 -41 -15 -58 -46l-52 41c27 53 66 83 115 83c65 0 85 -53 125 -53c22 0 41 16 58 46z" />
    <glyph glyph-name="macron" unicode="&#xaf;" horiz-adv-x="395" 
d="M327 609h-259v78h259v-78z" />
    <glyph glyph-name="breve" unicode="&#x2d8;" horiz-adv-x="388" 
d="M324 721c0 -75 -40 -142 -132 -142s-129 69 -129 142h72c0 -35 20 -62 58 -62c36 0 58 22 58 62h73z" />
    <glyph glyph-name="dotaccent" unicode="&#x2d9;" horiz-adv-x="285" 
d="M208 652c0 -37 -31 -67 -69 -67s-68 29 -68 67c0 37 30 67 68 67s69 -30 69 -67z" />
    <glyph glyph-name="dieresis" unicode="&#xa8;" horiz-adv-x="546" 
d="M423 652c0 -34 -27 -61 -60 -61c-34 0 -61 27 -61 61c0 33 27 60 61 60c33 0 60 -27 60 -60zM227 652c0 -34 -27 -61 -61 -61s-60 27 -60 61c0 33 26 60 60 60s61 -27 61 -60z" />
    <glyph glyph-name="ring" unicode="&#x2da;" horiz-adv-x="375" 
d="M307 648c0 -64 -54 -115 -119 -115c-67 0 -120 48 -120 115c0 66 54 115 120 115c67 0 119 -49 119 -115zM241 648c0 31 -23 55 -53 55c-31 0 -54 -24 -54 -55c0 -30 23 -55 54 -55c30 0 53 25 53 55z" />
    <glyph glyph-name="cedilla" unicode="&#xb8;" horiz-adv-x="400" 
d="M257 -40c52 -69 36 -133 -21 -195h-83c51 62 62 105 14 164z" />
    <glyph glyph-name="hungarumlaut" unicode="&#x2dd;" horiz-adv-x="498" 
d="M448 693l-146 -127l-49 44l135 140zM257 703l-136 -137l-51 44l123 147z" />
    <glyph glyph-name="ogonek" unicode="&#x2db;" horiz-adv-x="302" 
d="M260 -154c-32 -38 -76 -63 -132 -63c-69 0 -100 37 -100 86c0 43 28 94 81 131h114c-64 -34 -89 -74 -89 -104c0 -20 13 -30 30 -30c19 0 38 11 53 29z" />
    <glyph glyph-name="caron" unicode="&#x2c7;" horiz-adv-x="430" 
d="M357 699l-146 -133l-145 132l45 50l101 -83l101 83z" />
    <glyph glyph-name="emdash" unicode="&#x2014;" horiz-adv-x="1000" 
d="M885 251h-770v93h770v-93z" />
    <glyph glyph-name="AE" unicode="&#xc6;" horiz-adv-x="783" 
d="M719 0h-356v157h-212l-79 -157h-113l348 675h404v-91h-242v-192h233v-89h-233v-210h250v-93zM363 243v340h-2c-18 -41 -34 -80 -65 -138l-107 -202h174z" />
    <glyph glyph-name="ordfeminine" unicode="&#xaa;" horiz-adv-x="395" 
d="M329 335h-84c0 15 1 35 5 51l-2 1c-13 -32 -56 -60 -101 -60c-71 0 -102 38 -102 91c0 82 80 126 197 125v17c0 23 -7 54 -62 54c-39 0 -76 -11 -107 -27l-8 75c35 14 80 22 129 22c104 0 134 -55 134 -114v-149c0 -41 0 -66 1 -86zM352 195h-298v84h298v-84zM242 476v10
c-80 0 -114 -19 -114 -55c0 -21 15 -35 40 -35c52 0 74 53 74 80z" />
    <glyph glyph-name="Lslash" unicode="&#x141;" horiz-adv-x="440" 
d="M432 0h-340v273l-82 -28l-17 81l99 33v316h109v-284l110 36l16 -82l-126 -41v-209h231v-95z" />
    <glyph glyph-name="Oslash" unicode="&#xd8;" horiz-adv-x="704" 
d="M666 344c0 -224 -142 -354 -327 -354c-26 0 -48 2 -69 7l-36 -101l-81 26l36 99c-104 53 -151 167 -151 310c0 223 145 354 324 354c21 0 42 -2 62 -6l34 96l81 -26l-34 -92c99 -46 161 -149 161 -313zM554 334c0 100 -29 180 -86 218l-166 -460c18 -6 39 -7 58 -6
c106 5 194 87 194 248zM392 585c-20 3 -39 4 -63 2c-97 -10 -179 -94 -179 -246c0 -95 23 -171 77 -211z" />
    <glyph glyph-name="OE" unicode="&#x152;" horiz-adv-x="862" 
d="M799 0h-348c-35 -6 -72 -10 -109 -10c-205 0 -304 133 -304 340c0 224 146 355 321 355c37 0 71 -3 103 -10h337v-91h-247v-192h234v-89h-234v-210h247v-93zM443 102v473c-28 9 -56 14 -90 14c-105 0 -199 -84 -199 -246c0 -153 63 -256 196 -256c30 0 64 6 93 15z" />
    <glyph glyph-name="ordmasculine" unicode="&#xba;" horiz-adv-x="422" 
d="M376 511c0 -111 -74 -183 -175 -183c-91 0 -158 48 -158 177c0 109 74 180 172 180c85 0 161 -42 161 -174zM362 195h-304v84h304v-84zM285 510c0 53 -18 98 -75 98c-38 0 -76 -28 -76 -101c0 -52 16 -102 73 -102c44 0 78 30 78 105z" />
    <glyph glyph-name="ae" unicode="&#xe6;" horiz-adv-x="804" 
d="M761 292c0 -14 -1 -31 -3 -52h-317c-3 -113 48 -164 147 -164c49 0 99 10 143 30l14 -84c-52 -21 -114 -32 -176 -32c-109 0 -174 46 -199 109h-1c-29 -59 -93 -109 -185 -109c-87 0 -141 57 -141 138c0 112 111 173 293 173v29c0 61 -26 94 -104 94
c-46 0 -102 -15 -142 -36l-21 86c50 19 117 33 181 33c70 0 126 -18 155 -70h1c30 40 85 70 152 70c143 0 203 -97 203 -215zM654 314c2 71 -37 114 -100 114c-59 0 -101 -44 -111 -114h211zM336 215v14c-149 0 -190 -41 -190 -88c0 -38 26 -67 68 -67c73 0 122 70 122 141z
" />
    <glyph glyph-name="dotlessi" unicode="&#x131;" horiz-adv-x="263" 
d="M185 0h-107v497h107v-497z" />
    <glyph glyph-name="lslash" unicode="&#x142;" horiz-adv-x="297" 
d="M300 339l-99 -32v-307h-106v277l-86 -29l-12 81l98 33v368h106v-338l87 29z" />
    <glyph glyph-name="oslash" unicode="&#xf8;" horiz-adv-x="549" 
d="M511 258c0 -154 -100 -268 -247 -268c-20 0 -41 3 -58 8l-40 -103l-65 20l40 103c-71 41 -105 122 -105 224c0 153 98 265 248 265c14 0 29 -2 44 -4l36 94l65 -21l-36 -91c67 -32 118 -100 118 -227zM409 251c0 66 -17 113 -53 141l-118 -308c14 -5 30 -7 47 -6
c65 3 124 56 124 173zM295 419c-11 1 -23 2 -34 1c-60 -5 -122 -49 -122 -167c0 -57 13 -107 41 -135z" />
    <glyph glyph-name="oe" unicode="&#x153;" horiz-adv-x="867" 
d="M824 292c0 -14 -1 -31 -3 -52h-317c-3 -113 48 -164 147 -164c48 0 98 10 143 30l14 -84c-52 -21 -114 -32 -176 -32c-95 0 -154 35 -188 93c-36 -54 -97 -93 -180 -93c-138 0 -228 76 -228 252c0 151 97 265 248 265c68 0 135 -27 172 -85c35 51 90 85 165 85
c142 0 203 -97 203 -215zM717 314c2 71 -37 114 -100 114c-59 0 -102 -44 -111 -114h211zM401 251c0 106 -41 166 -126 166c-65 0 -128 -50 -128 -164c0 -112 44 -171 127 -171c69 0 127 54 127 169z" />
    <glyph glyph-name="germandbls" unicode="&#xdf;" horiz-adv-x="599" 
d="M563 153c0 -97 -80 -163 -203 -163c-40 0 -77 5 -102 12l7 91c27 -12 60 -19 91 -19c69 0 97 32 97 67c0 98 -189 82 -189 238c0 118 125 119 125 208c0 44 -34 66 -86 66c-74 0 -118 -45 -118 -150v-503h-107v497c0 175 104 239 230 239c119 0 192 -56 192 -141
c0 -132 -127 -121 -127 -204c0 -95 190 -85 190 -238z" />
    <glyph glyph-name="eth" unicode="&#xf0;" 
d="M510 275c0 -193 -108 -285 -243 -285c-136 0 -230 80 -230 252c0 153 96 263 237 263c37 0 76 -11 94 -39c-10 19 -22 37 -28 47c-15 25 -33 51 -59 78l-98 -43l-44 52l90 40c-23 20 -49 40 -79 62l106 45c25 -20 49 -41 72 -64l95 41l44 -53l-92 -40
c86 -103 135 -226 135 -356zM399 261c0 95 -41 156 -125 156c-66 0 -126 -52 -126 -166c0 -109 49 -169 130 -169c68 0 121 52 121 179z" />
    <glyph glyph-name="Scaron" unicode="&#x160;" horiz-adv-x="503" 
d="M420 806l-161 -86l-162 84l28 56l136 -61l133 61zM460 202c0 -123 -101 -212 -254 -212c-58 0 -109 7 -152 19l12 104c44 -17 93 -28 144 -28c71 0 132 29 132 103c0 142 -296 82 -296 300c0 116 88 197 244 197c38 0 85 -5 122 -13l-11 -96c-36 12 -76 19 -116 19
c-85 0 -124 -38 -124 -94c0 -135 299 -86 299 -299z" />
    <glyph glyph-name="scaron" unicode="&#x161;" horiz-adv-x="421" 
d="M376 152c0 -94 -82 -162 -214 -162c-38 0 -79 5 -110 14l8 91c31 -12 71 -19 109 -19c56 0 95 25 95 65c0 102 -218 40 -218 212c0 87 66 154 203 154c30 0 65 -4 94 -10l-6 -86c-29 9 -62 14 -94 14c-59 0 -87 -24 -87 -62c0 -98 220 -44 220 -211zM363 699l-146 -133
l-145 132l45 50l101 -83l101 83z" />
    <glyph glyph-name="Yacute" unicode="&#xdd;" horiz-adv-x="548" 
d="M431 776l-202 -55l-19 60l193 74zM541 675l-215 -434v-241h-109v241l-211 434h119l100 -213c18 -40 34 -78 48 -114h2c15 40 35 83 56 126l95 201h115z" />
    <glyph glyph-name="yacute" unicode="&#xfd;" horiz-adv-x="490" 
d="M484 497l-201 -532c-62 -166 -128 -217 -241 -217c-19 0 -46 3 -63 6l12 93c17 -5 41 -8 61 -8c47 0 91 23 124 112l18 49l-186 497h120l81 -227c16 -44 28 -88 39 -130h1c10 40 31 105 49 155l71 202h115zM400 677l-164 -111l-43 57l153 125z" />
    <glyph glyph-name="HT" horiz-adv-x="704" 
 />
    <glyph glyph-name="Thorn" unicode="&#xde;" horiz-adv-x="537" 
d="M519 366c0 -139 -111 -236 -276 -236c-21 0 -38 0 -56 2v-132h-109v675h109v-99c25 2 49 3 79 3c157 0 253 -73 253 -213zM407 359c0 77 -46 131 -159 131c-20 0 -40 -2 -61 -5v-262c19 -3 41 -4 64 -4c95 0 156 48 156 140z" />
    <glyph glyph-name="thorn" unicode="&#xfe;" horiz-adv-x="558" 
d="M519 273c0 -175 -93 -280 -259 -280c-28 0 -49 1 -75 6v-243h-107v974h107v-212c0 -34 -2 -79 -6 -107h2c26 57 80 96 155 96c118 0 183 -84 183 -234zM406 263c0 100 -31 156 -98 156c-80 0 -123 -94 -123 -179v-153c23 -7 48 -10 78 -10c85 0 143 52 143 186z" />
    <glyph glyph-name="Zcaron" unicode="&#x17d;" horiz-adv-x="538" 
d="M444 806l-161 -86l-163 84l29 56l136 -61l133 61zM494 0h-449v83l266 423c16 26 32 49 50 73c-29 -1 -68 -1 -137 -1h-169v97h435v-86l-280 -437c-11 -19 -22 -35 -35 -54c18 2 72 2 158 2h161v-100z" />
    <glyph glyph-name="zcaron" unicode="&#x17e;" horiz-adv-x="449" 
d="M399 0h-352v76l221 327c-25 -1 -69 -2 -120 -2h-96v96h343v-75l-218 -326c25 1 84 2 125 2h97v-98zM371 699l-146 -133l-145 132l45 50l101 -83l101 83z" />
    <glyph glyph-name="onehalf" unicode="&#xbd;" horiz-adv-x="718" 
d="M658 0h-227v60l67 58c43 37 55 55 55 78c0 22 -15 39 -44 39c-18 0 -40 -7 -55 -18l-19 65c27 12 63 22 98 22c83 0 116 -44 116 -92c0 -36 -17 -67 -65 -107l-41 -36h115v-69zM621 621l-499 -642l-68 48l499 642zM216 355h-88v224l-68 -31l-18 64l93 38h81v-295z" />
    <glyph glyph-name="onequarter" unicode="&#xbc;" horiz-adv-x="715" 
d="M534 114v127l-75 -127h75zM662 52h-49v-52h-79v52h-143l-5 57l109 186h118v-180h49v-63zM622 621l-499 -642l-68 48l499 642zM216 355h-88v224l-68 -31l-18 64l93 38h81v-295z" />
    <glyph glyph-name="onesuperior" unicode="&#xb9;" horiz-adv-x="312" 
d="M216 355h-88v224l-68 -31l-18 64l93 38h81v-295z" />
    <glyph glyph-name="threequarters" unicode="&#xbe;" horiz-adv-x="718" 
d="M537 114v127l-75 -127h75zM665 52h-49v-52h-79v52h-143l-5 57l109 186h118v-180h49v-63zM625 621l-499 -642l-68 48l499 642zM262 443c0 -63 -53 -97 -145 -97c-23 0 -55 4 -70 7l10 59c14 -4 35 -8 53 -8c40 0 57 15 57 38c0 31 -24 43 -98 35v52h18c57 0 74 18 74 40
c0 18 -12 32 -44 32c-18 0 -38 -5 -53 -12l-14 54c22 9 57 16 91 16c80 0 110 -38 110 -79c0 -33 -14 -56 -46 -71c37 -4 57 -34 57 -66z" />
    <glyph glyph-name="threesuperior" unicode="&#xb3;" horiz-adv-x="308" 
d="M259 443c0 -63 -53 -97 -146 -97c-23 0 -54 4 -69 8l10 59c14 -4 34 -8 52 -8c41 0 58 14 58 37c0 31 -24 43 -98 35v52h18c57 0 74 18 74 40c0 18 -12 32 -44 32c-19 0 -39 -5 -53 -12l-14 54c22 9 57 16 90 16c81 0 111 -38 111 -79c0 -33 -14 -56 -46 -71
c37 -4 57 -34 57 -66z" />
    <glyph glyph-name="twosuperior" unicode="&#xb2;" horiz-adv-x="319" 
d="M271 355h-227v60l67 58c42 37 55 56 55 78c0 23 -16 39 -44 39c-18 0 -40 -7 -56 -18l-19 65c28 12 63 22 98 22c84 0 117 -44 117 -91c0 -37 -18 -67 -65 -108l-41 -35h115v-70z" />
    <glyph glyph-name="brokenbar" unicode="&#xa6;" horiz-adv-x="286" 
d="M184 388h-85v368h85v-368zM184 -244h-85v378h85v-378z" />
    <glyph glyph-name="minus" unicode="&#x2212;" 
d="M509 251h-468v93h468v-93z" />
    <glyph glyph-name="multiply" unicode="&#xd7;" 
d="M499 139l-66 -66l-161 162l-162 -162l-59 59l162 162l-162 161l66 66l161 -162l162 162l59 -59l-162 -162z" />
    <glyph glyph-name="Adieresis" unicode="&#xc4;" horiz-adv-x="620" 
d="M468 783c0 -30 -25 -55 -55 -55c-31 0 -56 25 -56 55c0 31 25 56 56 56c30 0 55 -25 55 -56zM253 783c0 -30 -24 -55 -55 -55s-55 25 -55 55c0 31 24 56 55 56s55 -25 55 -56zM614 0h-121l-52 149h-273l-52 -149h-110l242 675h121zM413 236l-80 223c-11 33 -21 63 -28 92
h-2c-7 -29 -16 -59 -27 -91l-80 -224h217z" />
    <glyph glyph-name="Aring" unicode="&#xc5;" horiz-adv-x="620" 
d="M614 0h-121l-52 149h-273l-52 -149h-110l230 642c-28 17 -46 47 -46 85c0 66 54 115 120 115c67 0 119 -49 119 -115c0 -36 -19 -69 -48 -86zM363 727c0 30 -23 55 -53 55c-31 0 -54 -25 -54 -55s23 -55 54 -55c30 0 53 25 53 55zM412 236l-76 213c-15 34 -23 68 -31 101
h-2c-7 -32 -18 -68 -31 -104l-76 -210h216z" />
    <glyph glyph-name="Ccedilla" unicode="&#xc7;" horiz-adv-x="575" 
d="M533 26c-51 -21 -116 -34 -181 -34c-226 0 -309 146 -309 327c0 210 106 362 333 362c50 0 104 -7 150 -21l-16 -100c-45 16 -94 25 -143 25c-141 0 -205 -108 -205 -248c0 -157 67 -247 214 -247c46 0 101 13 139 32zM360 -40c52 -69 36 -133 -21 -195h-83
c51 62 62 105 14 164z" />
    <glyph glyph-name="Eacute" unicode="&#xc9;" horiz-adv-x="498" 
d="M410 776l-201 -55l-19 60l193 74zM434 0h-356v675h356v-91h-247v-192h235v-89h-235v-210h247v-93z" />
    <glyph glyph-name="Ntilde" unicode="&#xd1;" horiz-adv-x="704" 
d="M524 809c-28 -50 -68 -77 -118 -77c-68 0 -88 50 -130 50c-23 0 -43 -15 -60 -44l-54 37c28 50 68 78 118 78c68 0 88 -50 130 -50c23 0 43 15 60 44zM625 0h-141l-231 384c-30 49 -54 97 -75 142c4 -66 6 -203 6 -299v-227h-106v675h143l223 -368
c30 -50 57 -104 82 -153c-4 77 -7 222 -7 321v200h106v-675z" />
    <glyph glyph-name="Odieresis" unicode="&#xd6;" horiz-adv-x="704" 
d="M516 783c0 -30 -25 -55 -55 -55c-31 0 -56 25 -56 55c0 31 25 56 56 56c30 0 55 -25 55 -56zM301 783c0 -30 -24 -55 -55 -55s-55 25 -55 55c0 31 24 56 55 56s55 -25 55 -56zM666 346c0 -224 -145 -356 -324 -356c-205 0 -304 133 -304 340c0 224 146 355 324 355
c182 0 304 -113 304 -339zM550 335c0 163 -72 254 -198 254c-104 0 -198 -84 -198 -246c0 -153 63 -256 196 -256c100 0 200 80 200 248z" />
    <glyph glyph-name="Udieresis" unicode="&#xdc;" horiz-adv-x="687" 
d="M507 783c0 -30 -24 -55 -55 -55s-55 25 -55 55c0 31 24 56 55 56s55 -25 55 -56zM293 783c0 -30 -25 -55 -56 -55c-30 0 -55 25 -55 55c0 31 25 56 55 56c31 0 56 -25 56 -56zM609 260c0 -180 -97 -270 -274 -270c-212 0 -257 116 -257 240v445h109v-437
c0 -90 30 -158 155 -158c110 0 160 46 160 172v423h107v-415z" />
    <glyph glyph-name="aacute" unicode="&#xe1;" horiz-adv-x="523" 
d="M446 0h-103c0 32 1 65 5 92l-1 1c-24 -59 -86 -103 -165 -103c-85 0 -139 57 -139 138c0 112 111 173 293 173v29c0 61 -26 94 -104 94c-46 0 -102 -15 -142 -36l-21 86c50 19 117 33 181 33c151 0 193 -66 193 -165v-206c0 -43 1 -94 3 -136zM336 215v14
c-149 0 -190 -41 -190 -88c0 -38 26 -67 68 -67c73 0 122 70 122 141zM392 677l-164 -111l-43 57l153 125z" />
    <glyph glyph-name="agrave" unicode="&#xe0;" horiz-adv-x="523" 
d="M446 0h-103c0 32 1 65 5 92l-1 1c-24 -59 -86 -103 -165 -103c-85 0 -139 57 -139 138c0 112 111 173 293 173v29c0 61 -26 94 -104 94c-46 0 -102 -15 -142 -36l-21 86c50 19 117 33 181 33c151 0 193 -66 193 -165v-206c0 -43 1 -94 3 -136zM336 215v14
c-149 0 -190 -41 -190 -88c0 -38 26 -67 68 -67c73 0 122 70 122 141zM338 623l-43 -57l-164 111l54 71z" />
    <glyph glyph-name="acircumflex" unicode="&#xe2;" horiz-adv-x="523" 
d="M446 0h-103c0 32 1 65 5 92l-1 1c-24 -59 -86 -103 -165 -103c-85 0 -139 57 -139 138c0 112 111 173 293 173v29c0 61 -26 94 -104 94c-46 0 -102 -15 -142 -36l-21 86c50 19 117 33 181 33c151 0 193 -66 193 -165v-206c0 -43 1 -94 3 -136zM336 215v14
c-149 0 -190 -41 -190 -88c0 -38 26 -67 68 -67c73 0 122 70 122 141zM405 616l-45 -50l-101 83l-102 -83l-43 49l146 133z" />
    <glyph glyph-name="adieresis" unicode="&#xe4;" horiz-adv-x="523" 
d="M446 0h-103c0 32 1 65 5 92l-1 1c-24 -59 -86 -103 -165 -103c-85 0 -139 57 -139 138c0 112 111 173 293 173v29c0 61 -26 94 -104 94c-46 0 -102 -15 -142 -36l-21 86c50 19 117 33 181 33c151 0 193 -66 193 -165v-206c0 -43 1 -94 3 -136zM336 215v14
c-149 0 -190 -41 -190 -88c0 -38 26 -67 68 -67c73 0 122 70 122 141zM416 652c0 -34 -27 -61 -60 -61c-34 0 -61 27 -61 61c0 33 27 60 61 60c33 0 60 -27 60 -60zM220 652c0 -34 -27 -61 -61 -61s-60 27 -60 61c0 33 26 60 60 60s61 -27 61 -60z" />
    <glyph glyph-name="atilde" unicode="&#xe3;" horiz-adv-x="523" 
d="M446 0h-103c0 32 1 65 5 92l-1 1c-24 -59 -86 -103 -165 -103c-85 0 -139 57 -139 138c0 112 111 173 293 173v29c0 61 -26 94 -104 94c-46 0 -102 -15 -142 -36l-21 86c50 19 117 33 181 33c151 0 193 -66 193 -165v-206c0 -43 1 -94 3 -136zM336 215v14
c-149 0 -190 -41 -190 -88c0 -38 26 -67 68 -67c73 0 122 70 122 141zM430 670c-28 -53 -67 -82 -115 -82c-66 0 -85 52 -125 52c-23 0 -41 -15 -58 -46l-52 41c27 53 66 83 115 83c65 0 85 -53 125 -53c22 0 41 16 58 46z" />
    <glyph glyph-name="aring" unicode="&#xe5;" horiz-adv-x="523" 
d="M446 0h-103c0 32 1 65 5 92l-1 1c-24 -59 -86 -103 -165 -103c-85 0 -139 57 -139 138c0 112 111 173 293 173v29c0 61 -26 94 -104 94c-46 0 -102 -15 -142 -36l-21 86c50 19 117 33 181 33c151 0 193 -66 193 -165v-206c0 -43 1 -94 3 -136zM336 215v14
c-149 0 -190 -41 -190 -88c0 -38 26 -67 68 -67c73 0 122 70 122 141zM378 664c0 -64 -54 -115 -119 -115c-67 0 -120 48 -120 115c0 66 54 115 120 115c67 0 119 -49 119 -115zM312 664c0 31 -23 55 -53 55c-31 0 -54 -24 -54 -55c0 -30 23 -55 54 -55c30 0 53 25 53 55z
" />
    <glyph glyph-name="ccedilla" unicode="&#xe7;" horiz-adv-x="431" 
d="M403 17c-41 -17 -94 -25 -144 -25c-128 0 -221 63 -221 240c0 158 81 273 247 273c42 0 83 -6 116 -19l-18 -91c-30 12 -67 21 -104 21c-84 0 -129 -70 -129 -172c0 -91 32 -160 130 -160c39 0 76 7 107 22zM270 -40c52 -69 36 -133 -21 -195h-83c51 62 62 105 14 164z
" />
    <glyph glyph-name="eacute" unicode="&#xe9;" horiz-adv-x="511" 
d="M468 292c0 -14 -1 -31 -3 -52h-317c-3 -113 48 -164 147 -164c48 0 98 10 143 30l14 -84c-52 -21 -114 -32 -176 -32c-153 0 -238 80 -238 255c0 150 82 262 227 262c142 0 203 -97 203 -215zM361 314c2 71 -37 114 -100 114c-60 0 -102 -44 -111 -114h211zM397 677
l-164 -111l-43 57l153 125z" />
    <glyph glyph-name="egrave" unicode="&#xe8;" horiz-adv-x="511" 
d="M468 292c0 -14 -1 -31 -3 -52h-317c-3 -113 48 -164 147 -164c48 0 98 10 143 30l14 -84c-52 -21 -114 -32 -176 -32c-153 0 -238 80 -238 255c0 150 82 262 227 262c142 0 203 -97 203 -215zM361 314c2 71 -37 114 -100 114c-60 0 -102 -44 -111 -114h211zM343 623
l-43 -57l-164 111l54 71z" />
    <glyph glyph-name="ecircumflex" unicode="&#xea;" horiz-adv-x="511" 
d="M468 292c0 -14 -1 -31 -3 -52h-317c-3 -113 48 -164 147 -164c48 0 98 10 143 30l14 -84c-52 -21 -114 -32 -176 -32c-153 0 -238 80 -238 255c0 150 82 262 227 262c142 0 203 -97 203 -215zM361 314c2 71 -37 114 -100 114c-60 0 -102 -44 -111 -114h211zM407 616
l-45 -50l-101 83l-102 -83l-43 49l146 133z" />
    <glyph glyph-name="edieresis" unicode="&#xeb;" horiz-adv-x="511" 
d="M468 292c0 -14 -1 -31 -3 -52h-317c-3 -113 48 -164 147 -164c48 0 98 10 143 30l14 -84c-52 -21 -114 -32 -176 -32c-153 0 -238 80 -238 255c0 150 82 262 227 262c142 0 203 -97 203 -215zM361 314c2 71 -37 114 -100 114c-60 0 -102 -44 -111 -114h211zM423 652
c0 -34 -27 -61 -60 -61c-34 0 -61 27 -61 61c0 33 27 60 61 60c33 0 60 -27 60 -60zM227 652c0 -34 -27 -61 -61 -61s-60 27 -60 61c0 33 26 60 60 60s61 -27 61 -60z" />
    <glyph glyph-name="iacute" unicode="&#xed;" horiz-adv-x="263" 
d="M185 0h-107v497h107v-497zM233 677l-164 -111l-43 57l153 125z" />
    <glyph glyph-name="igrave" unicode="&#xec;" horiz-adv-x="263" 
d="M185 0h-107v497h107v-497zM229 623l-43 -57l-164 111l54 71z" />
    <glyph glyph-name="icircumflex" unicode="&#xee;" horiz-adv-x="263" 
d="M185 0h-107v497h107v-497zM278 616l-45 -50l-101 83l-102 -83l-43 49l146 133z" />
    <glyph glyph-name="idieresis" unicode="&#xef;" horiz-adv-x="263" 
d="M185 0h-107v497h107v-497zM290 652c0 -34 -27 -61 -60 -61c-34 0 -61 27 -61 61c0 33 27 60 61 60c33 0 60 -27 60 -60zM94 652c0 -34 -27 -61 -61 -61s-60 27 -60 61c0 33 26 60 60 60s61 -27 61 -60z" />
    <glyph glyph-name="ntilde" unicode="&#xf1;" horiz-adv-x="573" 
d="M495 0h-106v319c0 62 -17 99 -74 99c-75 0 -130 -79 -130 -179v-239h-107v497h102c0 -27 -2 -70 -7 -98h1c29 64 89 108 173 108c113 0 148 -72 148 -159v-348zM465 670c-28 -53 -67 -82 -115 -82c-66 0 -85 52 -125 52c-23 0 -41 -15 -58 -46l-52 41c27 53 66 83 115 83
c65 0 85 -53 125 -53c22 0 41 16 58 46z" />
    <glyph glyph-name="oacute" unicode="&#xf3;" horiz-adv-x="549" 
d="M511 258c0 -153 -100 -268 -247 -268c-138 0 -228 77 -228 252c0 150 97 265 248 265c133 0 227 -74 227 -249zM401 251c0 106 -41 166 -126 166c-65 0 -128 -50 -128 -164c0 -112 44 -171 127 -171c69 0 127 54 127 169zM411 677l-164 -111l-43 57l153 125z" />
    <glyph glyph-name="ograve" unicode="&#xf2;" horiz-adv-x="549" 
d="M511 258c0 -153 -100 -268 -247 -268c-138 0 -228 77 -228 252c0 150 97 265 248 265c133 0 227 -74 227 -249zM401 251c0 106 -41 166 -126 166c-65 0 -128 -50 -128 -164c0 -112 44 -171 127 -171c69 0 127 54 127 169zM359 623l-43 -57l-164 111l54 71z" />
    <glyph glyph-name="ocircumflex" unicode="&#xf4;" horiz-adv-x="549" 
d="M511 258c0 -153 -100 -268 -247 -268c-138 0 -228 77 -228 252c0 150 97 265 248 265c133 0 227 -74 227 -249zM401 251c0 106 -41 166 -126 166c-65 0 -128 -50 -128 -164c0 -112 44 -171 127 -171c69 0 127 54 127 169zM421 616l-45 -50l-101 83l-102 -83l-43 49
l146 133z" />
    <glyph glyph-name="odieresis" unicode="&#xf6;" horiz-adv-x="549" 
d="M511 258c0 -153 -100 -268 -247 -268c-138 0 -228 77 -228 252c0 150 97 265 248 265c133 0 227 -74 227 -249zM401 251c0 106 -41 166 -126 166c-65 0 -128 -50 -128 -164c0 -112 44 -171 127 -171c69 0 127 54 127 169zM434 652c0 -34 -27 -61 -60 -61
c-34 0 -61 27 -61 61c0 33 27 60 61 60c33 0 60 -27 60 -60zM238 652c0 -34 -27 -61 -61 -61s-60 27 -60 61c0 33 26 60 60 60s61 -27 61 -60z" />
    <glyph glyph-name="otilde" unicode="&#xf5;" horiz-adv-x="549" 
d="M511 258c0 -153 -100 -268 -247 -268c-138 0 -228 77 -228 252c0 150 97 265 248 265c133 0 227 -74 227 -249zM401 251c0 106 -41 166 -126 166c-65 0 -128 -50 -128 -164c0 -112 44 -171 127 -171c69 0 127 54 127 169zM444 670c-28 -53 -67 -82 -115 -82
c-66 0 -85 52 -125 52c-23 0 -41 -15 -58 -46l-52 41c27 53 66 83 115 83c65 0 85 -53 125 -53c22 0 41 16 58 46z" />
    <glyph glyph-name="uacute" unicode="&#xfa;" horiz-adv-x="573" 
d="M495 0h-102c0 27 2 70 7 98h-1c-29 -64 -89 -108 -173 -108c-113 0 -148 72 -148 159v348h106v-319c0 -62 17 -99 74 -99c75 0 130 79 130 179v239h107v-497zM448 677l-164 -111l-43 57l153 125z" />
    <glyph glyph-name="ugrave" unicode="&#xf9;" horiz-adv-x="573" 
d="M495 0h-102c0 27 2 70 7 98h-1c-29 -64 -89 -108 -173 -108c-113 0 -148 72 -148 159v348h106v-319c0 -62 17 -99 74 -99c75 0 130 79 130 179v239h107v-497zM341 623l-43 -57l-164 111l54 71z" />
    <glyph glyph-name="ucircumflex" unicode="&#xfb;" horiz-adv-x="573" 
d="M495 0h-102c0 27 2 70 7 98h-1c-29 -64 -89 -108 -173 -108c-113 0 -148 72 -148 159v348h106v-319c0 -62 17 -99 74 -99c75 0 130 79 130 179v239h107v-497zM429 616l-45 -50l-101 83l-102 -83l-43 49l146 133z" />
    <glyph glyph-name="udieresis" unicode="&#xfc;" horiz-adv-x="573" 
d="M495 0h-102c0 27 2 70 7 98h-1c-29 -64 -89 -108 -173 -108c-113 0 -148 72 -148 159v348h106v-319c0 -62 17 -99 74 -99c75 0 130 79 130 179v239h107v-497zM440 652c0 -34 -27 -61 -60 -61c-34 0 -61 27 -61 61c0 33 27 60 61 60c33 0 60 -27 60 -60zM244 652
c0 -34 -27 -61 -61 -61s-60 27 -60 61c0 33 26 60 60 60s61 -27 61 -60z" />
    <glyph glyph-name="degree" unicode="&#xb0;" horiz-adv-x="381" 
d="M328 605c0 -85 -71 -134 -144 -134c-84 0 -136 50 -136 131c0 85 72 134 142 134c97 0 138 -60 138 -131zM247 605c0 29 -15 63 -58 63c-34 0 -59 -26 -59 -64c0 -41 23 -65 58 -65s59 28 59 66z" />
    <glyph glyph-name="registered" unicode="&#xae;" horiz-adv-x="563" 
d="M508 529c0 -123 -103 -224 -227 -224c-127 0 -226 99 -226 224s101 225 226 225c127 0 227 -98 227 -225zM440 528c0 88 -71 162 -159 162c-87 0 -158 -72 -158 -159c0 -88 71 -162 158 -162c88 0 159 72 159 159zM375 418h-65l-47 90h-5v-90h-54v225h85
c56 0 79 -24 79 -61c0 -36 -20 -57 -50 -64c5 -5 12 -16 18 -28zM309 576c0 18 -9 26 -32 26h-19v-58h12c28 0 39 16 39 32z" />
    <glyph glyph-name="copyright" unicode="&#xa9;" horiz-adv-x="758" 
d="M716 335c0 -187 -151 -338 -338 -338c-191 0 -339 149 -339 337c0 187 151 338 339 338s338 -150 338 -337zM634 334c0 141 -114 258 -256 258s-256 -115 -256 -257s114 -258 256 -258s256 115 256 257zM477 176c-30 -12 -64 -19 -100 -19c-107 0 -159 71 -159 173
c0 96 50 183 174 183c32 0 59 -6 81 -14l-11 -74c-18 10 -43 17 -68 17c-63 0 -86 -46 -86 -109c0 -65 26 -101 82 -101c27 0 51 5 74 15z" />
    <glyph glyph-name="trademark" unicode="&#x2122;" horiz-adv-x="694" 
d="M650 394h-81l-20 136l-6 50l-10 -45l-40 -141h-76l-39 144l-10 42l-3 -36l-21 -150h-74l44 281h97l39 -140l10 -44l8 41l41 143h96zM257 610h-70v-216h-78v216h-72v65h220v-65z" />
    <glyph glyph-name="notequal" unicode="&#x2260;" 
d="M500 164h-231l-52 -131h-95l52 131h-124v87h158l37 92h-195v87h229l53 133h96l-53 -133h125v-87h-160l-37 -92h197v-87z" />
    <glyph glyph-name="infinity" unicode="&#x221e;" horiz-adv-x="979" 
d="M928 304c0 -98 -70 -180 -195 -180c-78 0 -158 44 -247 111c-75 -56 -160 -111 -250 -111c-124 0 -185 78 -185 170c0 102 76 180 191 180c83 0 164 -47 251 -112c72 54 160 112 248 112c121 0 187 -75 187 -170zM824 299c0 47 -32 82 -88 82c-47 0 -102 -35 -163 -81
c65 -49 118 -83 166 -83c55 0 85 38 85 82zM406 297c-65 49 -118 84 -165 84c-56 0 -85 -38 -85 -82c0 -47 31 -82 87 -82c47 0 101 34 163 80z" />
    <glyph glyph-name="plusminus" unicode="&#xb1;" 
d="M509 340h-183v-190h-102v190h-183v89h183v189h102v-189h183v-89zM507 0h-464v89h464v-89z" />
    <glyph glyph-name="lessequal" unicode="&#x2264;" 
d="M469 211l-64 -76l-349 252l348 252l65 -73l-266 -178zM481 0h-412v89h412v-89z" />
    <glyph glyph-name="greaterequal" unicode="&#x2265;" 
d="M494 388l-348 -253l-65 73l266 179l-266 176l64 76zM481 0h-412v89h412v-89z" />
    <glyph glyph-name="mu" unicode="&#xb5;" horiz-adv-x="631" 
d="M613 64c-21 -42 -61 -74 -123 -74c-69 0 -86 53 -81 102h-1c-24 -59 -79 -100 -148 -100c-35 0 -62 9 -81 25l16 -261h-112v741h106v-314c0 -64 19 -103 80 -103c71 0 124 74 124 165v252h107v-344c0 -64 8 -78 29 -78c18 0 33 16 41 34z" />
    <glyph glyph-name="partialdiff" unicode="&#x2202;" horiz-adv-x="636" 
d="M568 404c0 -119 -28 -240 -97 -322c-46 -54 -116 -90 -195 -90c-136 0 -207 83 -207 210c0 138 97 242 243 242c69 0 120 -32 145 -81c-2 32 -2 54 -4 76c-11 139 -99 209 -213 208l13 89c190 -2 315 -126 315 -332zM428 238c0 66 -41 116 -121 116
c-78 0 -132 -62 -132 -143c0 -84 46 -126 115 -126c79 0 138 66 138 153z" />
    <glyph glyph-name="summation" unicode="&#x2211;" horiz-adv-x="608" 
d="M555 -244h-519v83l301 413l-283 395v83h486v-91h-353l274 -383l-298 -406h392v-94z" />
    <glyph glyph-name="product" unicode="&#x220f;" horiz-adv-x="784" 
d="M740 639h-101v-883h-101v883h-291v-883h-102v883h-102v91h697v-91z" />
    <glyph glyph-name="pi" unicode="&#x3c0;" horiz-adv-x="670" 
d="M623 1c-27 -7 -64 -11 -100 -11c-87 0 -113 45 -113 136v285h-166v-411h-100v411h-104v86h575v-86h-104v-216c0 -110 9 -126 54 -126c18 0 36 4 51 8z" />
    <glyph glyph-name="integral" unicode="&#x222b;" horiz-adv-x="341" 
d="M321 638c-13 4 -32 7 -48 7c-47 0 -66 -24 -66 -148c0 -159 12 -283 12 -488c0 -190 -52 -263 -160 -263c-17 0 -38 3 -54 6v94c13 -4 31 -7 46 -7c47 0 68 24 68 147c0 152 -12 281 -12 488c0 193 58 263 162 263c16 0 36 -3 52 -7v-92z" />
    <glyph glyph-name="Omega" unicode="&#x3a9;" horiz-adv-x="749" 
d="M683 0h-245v79c82 54 133 141 133 269c0 141 -67 251 -196 251c-123 0 -202 -101 -202 -247c0 -128 40 -209 135 -272v-80h-246v80h138c-85 57 -133 152 -133 270c0 194 125 335 314 335c175 0 299 -115 299 -325c0 -123 -56 -225 -138 -280h141v-80z" />
    <glyph glyph-name="logicalnot" unicode="&#xac;" 
d="M485 100h-94v153h-350v89h444v-242z" />
    <glyph glyph-name="radical" unicode="&#x221a;" horiz-adv-x="612" 
d="M591 758l-233 -758h-124l-143 416h-89v81h177l88 -275c11 -35 22 -70 31 -106h2c7 35 15 68 24 99l150 543h117z" />
    <glyph glyph-name="approxequal" unicode="&#x2248;" 
d="M507 374c-32 -33 -78 -61 -133 -61c-90 0 -119 59 -199 59c-39 0 -73 -21 -98 -42l-35 73c34 31 84 59 137 59c90 0 129 -60 197 -60c35 0 66 18 96 45zM508 185c-34 -30 -84 -56 -135 -56c-94 0 -123 59 -198 59c-39 0 -72 -22 -97 -43l-36 73c31 28 78 60 132 60
c92 0 123 -60 204 -60c33 0 65 13 95 40z" />
    <glyph glyph-name="Delta" unicode="&#x394;" horiz-adv-x="740" 
d="M711 0h-681l284 700h110zM553 97l-189 471l-185 -471h374z" />
    <glyph glyph-name="nbspace" unicode="&#xa0;" horiz-adv-x="218" 
 />
    <glyph glyph-name="Agrave" unicode="&#xc0;" horiz-adv-x="620" 
d="M366 781l-19 -60l-202 55l28 79zM614 0h-121l-52 149h-273l-52 -149h-110l242 675h121zM413 236l-80 223c-11 33 -21 63 -28 92h-2c-7 -29 -16 -59 -27 -91l-80 -224h217z" />
    <glyph glyph-name="Atilde" unicode="&#xc3;" horiz-adv-x="620" 
d="M486 809c-29 -50 -69 -77 -118 -77c-69 0 -89 50 -131 50c-23 0 -43 -15 -60 -44l-54 37c28 50 68 78 118 78c68 0 89 -50 130 -50c24 0 43 15 61 44zM614 0h-121l-52 149h-273l-52 -149h-110l242 675h121zM413 236l-80 223c-11 33 -21 63 -28 92h-2
c-7 -29 -16 -59 -27 -91l-80 -224h217z" />
    <glyph glyph-name="Otilde" unicode="&#xd5;" horiz-adv-x="704" 
d="M530 809c-28 -50 -68 -77 -118 -77c-68 0 -89 50 -130 50c-24 0 -44 -15 -61 -44l-54 37c28 50 69 78 118 78c69 0 89 -50 131 -50c23 0 43 15 60 44zM666 346c0 -224 -145 -356 -324 -356c-205 0 -304 133 -304 340c0 224 146 355 324 355c182 0 304 -113 304 -339z
M550 335c0 163 -72 254 -198 254c-104 0 -198 -84 -198 -246c0 -153 63 -256 196 -256c100 0 200 80 200 248z" />
    <glyph glyph-name="divide" unicode="&#xf7;" 
d="M342 498c0 -38 -30 -68 -68 -68s-69 30 -69 68s31 68 69 68s68 -30 68 -68zM509 253h-468v89h468v-89zM342 96c0 -37 -30 -68 -68 -68s-69 31 -69 68c0 38 31 69 69 69s68 -31 68 -69z" />
    <glyph glyph-name="lozenge" unicode="&#x25ca;" horiz-adv-x="622" 
d="M594 335l-247 -344h-67l-252 349l249 344h65zM477 331l-171 236l-160 -224l170 -235z" />
    <glyph glyph-name="ydieresis" unicode="&#xff;" horiz-adv-x="490" 
d="M484 497l-201 -532c-62 -166 -128 -217 -241 -217c-19 0 -46 3 -63 6l12 93c17 -5 41 -8 61 -8c47 0 91 23 124 112l18 49l-186 497h120l81 -227c16 -44 28 -88 39 -130h1c10 40 31 105 49 155l71 202h115zM404 652c0 -34 -27 -61 -60 -61c-34 0 -61 27 -61 61
c0 33 27 60 61 60c33 0 60 -27 60 -60zM208 652c0 -34 -27 -61 -61 -61s-60 27 -60 61c0 33 26 60 60 60s61 -27 61 -60z" />
    <glyph glyph-name="Ydieresis" unicode="&#x178;" horiz-adv-x="548" 
d="M433 783c0 -30 -25 -55 -56 -55c-30 0 -55 25 -55 55c0 31 25 56 55 56c31 0 56 -25 56 -56zM218 783c0 -30 -24 -55 -55 -55s-55 25 -55 55c0 31 24 56 55 56s55 -25 55 -56zM541 675l-215 -434v-241h-109v241l-211 434h119l100 -213c18 -40 34 -78 48 -114h2
c15 40 35 83 56 126l95 201h115z" />
    <glyph glyph-name="Euro" unicode="&#x20ac;" 
d="M517 23c-50 -22 -111 -33 -166 -33c-144 0 -232 67 -255 227h-85v68h79c-1 9 -1 19 -1 30c0 18 1 35 2 53h-80v68h90c27 131 110 224 271 224c47 0 100 -11 138 -26l-26 -85c-32 15 -79 26 -123 26c-88 0 -131 -60 -149 -139h178v-68h-190c-1 -14 -1 -28 -1 -43v-40h191
v-68h-181c17 -95 66 -140 160 -140c41 0 85 11 123 28z" />
    <glyph glyph-name="Acircumflex" unicode="&#xc2;" horiz-adv-x="620" 
d="M468 776l-28 -56l-136 61l-133 -61l-26 54l161 86zM614 0h-121l-52 149h-273l-52 -149h-110l242 675h121zM413 236l-80 223c-11 33 -21 63 -28 92h-2c-7 -29 -16 -59 -27 -91l-80 -224h217z" />
    <glyph glyph-name="Ecircumflex" unicode="&#xca;" horiz-adv-x="498" 
d="M415 776l-28 -56l-136 61l-133 -61l-26 54l160 86zM434 0h-356v675h356v-91h-247v-192h235v-89h-235v-210h247v-93z" />
    <glyph glyph-name="Aacute" unicode="&#xc1;" horiz-adv-x="620" 
d="M453 776l-201 -55l-19 60l193 74zM614 0h-121l-52 149h-273l-52 -149h-110l242 675h121zM413 236l-80 223c-11 33 -21 63 -28 92h-2c-7 -29 -16 -59 -27 -91l-80 -224h217z" />
    <glyph glyph-name="Edieresis" unicode="&#xcb;" horiz-adv-x="498" 
d="M414 783c0 -30 -25 -55 -56 -55c-30 0 -55 25 -55 55c0 31 25 56 55 56c31 0 56 -25 56 -56zM199 783c0 -30 -24 -55 -55 -55s-55 25 -55 55c0 31 24 56 55 56s55 -25 55 -56zM434 0h-356v675h356v-91h-247v-192h235v-89h-235v-210h247v-93z" />
    <glyph glyph-name="Egrave" unicode="&#xc8;" horiz-adv-x="498" 
d="M325 781l-19 -60l-201 55l27 79zM434 0h-356v675h356v-91h-247v-192h235v-89h-235v-210h247v-93z" />
    <glyph glyph-name="Iacute" unicode="&#xcd;" horiz-adv-x="266" 
d="M273 776l-201 -55l-19 60l193 74zM187 0h-109v675h109v-675z" />
    <glyph glyph-name="Icircumflex" unicode="&#xce;" horiz-adv-x="266" 
d="M295 776l-28 -56l-136 61l-133 -61l-26 54l161 86zM187 0h-109v675h109v-675z" />
    <glyph glyph-name="Idieresis" unicode="&#xcf;" horiz-adv-x="266" 
d="M294 783c0 -30 -24 -55 -55 -55s-55 25 -55 55c0 31 24 56 55 56s55 -25 55 -56zM80 783c0 -30 -25 -55 -56 -55c-30 0 -55 25 -55 55c0 31 25 56 55 56c31 0 56 -25 56 -56zM187 0h-109v675h109v-675z" />
    <glyph glyph-name="Igrave" unicode="&#xcc;" horiz-adv-x="266" 
d="M208 781l-19 -60l-201 55l27 79zM187 0h-109v675h109v-675z" />
    <glyph glyph-name="Oacute" unicode="&#xd3;" horiz-adv-x="704" 
d="M507 776l-202 -55l-19 60l193 74zM666 346c0 -224 -145 -356 -324 -356c-205 0 -304 133 -304 340c0 224 146 355 324 355c182 0 304 -113 304 -339zM550 335c0 163 -72 254 -198 254c-104 0 -198 -84 -198 -246c0 -153 63 -256 196 -256c100 0 200 80 200 248z" />
    <glyph glyph-name="Ocircumflex" unicode="&#xd4;" horiz-adv-x="704" 
d="M524 776l-28 -56l-136 61l-133 -61l-26 54l161 86zM666 346c0 -224 -145 -356 -324 -356c-205 0 -304 133 -304 340c0 224 146 355 324 355c182 0 304 -113 304 -339zM550 335c0 163 -72 254 -198 254c-104 0 -198 -84 -198 -246c0 -153 63 -256 196 -256
c100 0 200 80 200 248z" />
    <glyph glyph-name="apple" unicode="&#xf8ff;" horiz-adv-x="1042" 
d="M145 663c16 18 33 36 52 51l88 -105c-12 -9 -25 -23 -36 -35zM547 691c-17 2 -34 1 -51 0l-11 133c24 3 50 2 73 0zM759 610l87 103c18 -16 36 -32 51 -52l-102 -86c-11 12 -25 26 -36 35zM1023 373c2 -25 2 -48 1 -72l-136 11c1 15 1 35 0 50zM770 337
c0 -68 -28 -130 -67 -170v-78l-16 -5l32 -75l-31 -8l31 -72l-32 -8l10 -25l-30 -69h-54c-4 -26 -43 -46 -91 -46c-51 0 -89 20 -92 46h-54l-52 125l31 9l-32 75l35 9l-19 45v78c-39 42 -66 103 -66 169c0 137 110 248 249 248c136 0 248 -111 248 -248zM398 192h54l-15 134
c-18 -4 -29 -10 -38 -13c-19 -6 -21 49 -8 53c39 11 86 20 131 20c46 0 91 -9 131 -20c12 -3 11 -59 -9 -52c-9 4 -22 8 -39 12l-14 -134h55c35 32 66 83 66 145c0 105 -86 191 -190 191c-106 0 -191 -86 -191 -191c0 -56 24 -109 67 -145zM563 333c-16 2 -28 2 -41 2
s-27 0 -43 -2l14 -141h56zM645 145h-248v-51l15 -36l233 59v28zM647 34l-15 37l-238 -61l15 -36zM648 -46l-15 34l-238 -61l24 -59h205l13 30l-6 12l-72 -19l-13 37zM510 357v1h-2v6h-1v-7h3zM514 362h-1v-3c0 -2 -1 -1 -1 0v3h-1v-3c0 -3 3 -2 3 0v3zM518 357v1
c-2 -1 -2 4 0 3v1c-3 1 -4 -6 0 -5zM522 355c-2 3 -2 7 0 10c-3 0 -3 -10 0 -10zM525 358v-1h1v3c0 2 -2 3 -4 1c1 0 2 1 3 -1c-3 0 -5 -5 0 -2zM525 359c-2 1 -3 -3 0 0zM528 357c6 0 -1 4 2 4v1c-6 0 2 -4 -2 -4v-1zM531 355c3 0 3 10 0 10c2 -3 2 -7 0 -10zM19 374
l138 -12c-1 -16 -1 -35 0 -50l-138 -12c-2 24 -2 50 0 74z" />
    <glyph glyph-name="Ograve" unicode="&#xd2;" horiz-adv-x="704" 
d="M427 781l-19 -60l-201 55l27 79zM666 346c0 -224 -145 -356 -324 -356c-205 0 -304 133 -304 340c0 224 146 355 324 355c182 0 304 -113 304 -339zM550 335c0 163 -72 254 -198 254c-104 0 -198 -84 -198 -246c0 -153 63 -256 196 -256c100 0 200 80 200 248z" />
    <glyph glyph-name="Uacute" unicode="&#xda;" horiz-adv-x="687" 
d="M496 776l-201 -55l-19 60l193 74zM609 260c0 -180 -97 -270 -274 -270c-212 0 -257 116 -257 240v445h109v-437c0 -90 30 -158 155 -158c110 0 160 46 160 172v423h107v-415z" />
    <glyph glyph-name="Ucircumflex" unicode="&#xdb;" horiz-adv-x="687" 
d="M506 776l-28 -56l-136 61l-133 -61l-26 54l160 86zM609 260c0 -180 -97 -270 -274 -270c-212 0 -257 116 -257 240v445h109v-437c0 -90 30 -158 155 -158c110 0 160 46 160 172v423h107v-415z" />
    <glyph glyph-name="Ugrave" unicode="&#xd9;" horiz-adv-x="687" 
d="M412 781l-19 -60l-202 55l27 79zM609 260c0 -180 -97 -270 -274 -270c-212 0 -257 116 -257 240v445h109v-437c0 -90 30 -158 155 -158c110 0 160 46 160 172v423h107v-415z" />
    <glyph glyph-name="Eth" unicode="&#xd0;" horiz-adv-x="682" 
d="M639 346c0 -231 -153 -350 -374 -350c-68 0 -124 3 -177 4v304h-86v82h86v288c53 1 130 4 208 4c213 0 343 -98 343 -332zM524 338c0 160 -71 250 -236 250c-34 0 -68 -1 -92 -3v-199h131v-82h-131v-211c8 -1 54 -4 81 -4c145 0 247 77 247 249z" />
    <glyph glyph-name="Grave" unicode="&#xf6ce;" horiz-adv-x="371" 
d="M292 781l-19 -60l-201 55l27 79z" />
    <glyph glyph-name="Acute" unicode="&#xf6c9;" horiz-adv-x="391" 
d="M303 776l-201 -55l-19 60l193 74z" />
    <glyph glyph-name="Dieresis" unicode="&#xf6cb;" horiz-adv-x="546" 
d="M425 783c0 -30 -25 -55 -55 -55c-31 0 -55 25 -55 55c0 31 24 56 55 56c30 0 55 -25 55 -56zM210 783c0 -30 -24 -55 -55 -55c-30 0 -55 25 -55 55c0 31 25 56 55 56c31 0 55 -25 55 -56z" />
    <glyph glyph-name="Circumflex" horiz-adv-x="430" 
d="M375 776l-28 -56l-137 61l-133 -61l-26 54l161 86z" />
    <glyph glyph-name="Tilde" horiz-adv-x="483" 
d="M431 809c-29 -50 -68 -77 -118 -77c-68 0 -89 50 -131 50c-23 0 -43 -15 -60 -44l-54 37c28 50 68 78 118 78c68 0 89 -50 130 -50c24 0 43 15 61 44z" />
    <glyph glyph-name="Caron" unicode="&#xf6ca;" horiz-adv-x="430" 
d="M373 806l-161 -86l-162 84l28 56l136 -61l133 61z" />
    <glyph glyph-name="uni20AC" 
d="M517 23c-50 -22 -111 -33 -166 -33c-144 0 -232 67 -255 227h-85v68h79c-1 9 -1 19 -1 30c0 18 1 35 2 53h-80v68h90c27 131 110 224 271 224c47 0 100 -11 138 -26l-26 -85c-32 15 -79 26 -123 26c-88 0 -131 -60 -149 -139h178v-68h-190c-1 -14 -1 -28 -1 -43v-40h191
v-68h-181c17 -95 66 -140 160 -140c41 0 85 11 123 28z" />
    </font>
</defs>
</svg>
