<svg width="47px" height="40px" viewBox="0 0 47 33" version="1.1" xmlns="http://www.w3.org/2000/svg" xmlns:xlink="http://www.w3.org/1999/xlink">
  <!-- Generator: Sketch 48.2 (47327) - http://www.bohemiancoding.com/sketch -->
  <desc>Created with Sketch.</desc>
  <defs></defs>
  <g id="Page-1" stroke="none" stroke-width="1" fill="none" fill-rule="evenodd">
    <g id="Group-49" transform="translate(1.000000, 1.000000)" stroke="#343A4A" stroke-width="1.6">
      <g id="Group-48">
        <polygon id="Stroke-1" points="0 31 44.5625 31 44.5625 7.75 0 7.75"></polygon>
        <path d="M2.90625,3.875 L41.65625,3.875" id="Stroke-3"></path>
        <path d="M37.78125,0 L6.78125,0" id="Stroke-4"></path>
        <path d="M36.8125,27.125 L7.75,27.125 C7.75,25.5197813 6.44896875,24.21875 4.84375,24.21875 L4.84375,14.53125 C6.44896875,14.53125 7.75,13.5625 7.75,11.625 L36.8125,11.625 C36.8125,13.5625 38.1135313,14.53125 39.71875,14.53125 L39.71875,24.21875 C38.1135313,24.21875 36.8125,25.5197813 36.8125,27.125 Z" id="Stroke-6"></path>
        <path d="M11.625,19.375 L13.5625,19.375" id="Stroke-8"></path>
        <path d="M31,19.375 L32.9375,19.375" id="Stroke-10"></path>
        <path d="M26.15625,19.3659906 C26.15625,21.5059594 24.4212188,23.2409906 22.28125,23.2409906 C20.1412812,23.2409906 18.40625,21.5059594 18.40625,19.3659906 C18.40625,17.2260219 20.1412812,15.4909906 22.28125,15.4909906 C24.4212188,15.4909906 26.15625,17.2260219 26.15625,19.3659906 Z" id="Stroke-12"></path>
      </g>
    </g>
  </g>
</svg>