<svg width="43px" height="40px" viewBox="0 0 43 41" version="1.1" xmlns="http://www.w3.org/2000/svg" xmlns:xlink="http://www.w3.org/1999/xlink">
  <!-- Generator: Sketch 48.2 (47327) - http://www.bohemiancoding.com/sketch -->
  <desc>Created with Sketch.</desc>
  <defs></defs>
  <g id="Page-1" stroke="none" stroke-width="1" fill="none" fill-rule="evenodd">
    <g id="1--Saudi-Arabia-at-A-Glance" transform="translate(-1018.000000, -556.000000)" fill="#3D3D3B" fill-rule="nonzero">
      <g id="Group-8" transform="translate(1018.000000, 556.000000)">
        <polygon id="Shape" points="40.1855514 14.1391954 38.4996946 7.27179065 32.2957913 22.9300854 31.6441802 21.7934955 30.5187603 22.4321899 32.5097989 25.904793 38.209061 11.520433 39.1683338 15.4282628 42.3220721 15.4282628 42.3220721 14.1391954"></polygon>
        <polygon id="Shape" points="26.5204817 13.3521357 23.8957693 16.6166654 22.3827552 13.9821947 21.2578312 14.6217116 23.7165618 18.9027574 26.3821084 15.587813 27.9339728 18.0966996 29.0372398 17.4211606"></polygon>
        <polygon id="Shape" points="18.6170001 7.35386856 16.7339158 9.87040372 13.1822509 0.0181755701 6.4899079 21.4049001 3.05636448 14.1391954 0 14.1391954 0 15.4282628 2.23389453 15.4282628 6.73573962 24.95514 13.2690442 4.07708467 16.330203 12.5686123 18.414813 9.78248659 18.6949487 10.3246285 19.8472333 9.7353617"></polygon>
        <path d="M29.4948472,11.7707788 C27.1795323,9.46733372 23.4124545,9.46733372 21.0972223,11.7707788 C18.7820727,14.0744707 18.7820727,17.8225035 21.0972223,20.1261131 C22.2187572,21.2419779 23.709949,21.8565754 25.2961174,21.8565754 C26.8822858,21.8565754 28.3733949,21.2418957 29.4949298,20.1260308 C30.6164648,19.010166 31.2341852,17.5265131 31.2341852,15.9483637 C31.2341025,14.3702966 30.6164648,12.8866437 29.4948472,11.7707788 Z M28.5788058,19.2144561 C27.7019453,20.0868834 26.5361045,20.5674258 25.2961174,20.5674258 C24.0561303,20.5674258 22.8902068,20.0868834 22.013429,19.2144561 C20.2033338,17.413512 20.2033338,14.4832154 22.013429,12.6821891 C22.9186419,11.7817171 24.1071317,11.3314399 25.2961174,11.3314399 C26.4848551,11.3314399 27.6739235,11.7817171 28.5788058,12.6821891 C30.388901,14.4831331 30.388901,17.413512 28.5788058,19.2144561 Z" id="Shape"></path>
        <path d="M30.8976751,10.3750431 C29.401441,8.88637342 27.4120557,8.06658119 25.2960347,8.06658119 C23.1800138,8.06658119 21.1906284,8.88637342 19.6943944,10.3750431 C18.1980777,11.863795 17.3741198,13.8430405 17.3741198,15.9483637 C17.3741198,17.8372249 18.0392873,19.6234475 19.2562122,21.0460765 L18.2916491,22.0057631 L19.2076906,22.9172556 L20.1722536,21.957569 C21.6021114,23.1683416 23.397493,23.830064 25.2958694,23.830064 C27.411973,23.8301462 29.4013584,23.010354 30.8975924,21.5216843 C33.9864424,18.4485326 33.9864424,13.4481948 30.8976751,10.3750431 Z M29.9817163,20.6101096 C28.7301568,21.855424 27.0661223,22.5411611 25.2961174,22.5411611 C23.5261125,22.5411611 21.8621607,21.8555062 20.6105185,20.6101096 C19.3588762,19.3648774 18.6696547,17.7093379 18.6696547,15.9482815 C18.6696547,14.1873072 19.3588762,12.5316855 20.6105185,11.2864533 C21.862078,10.0411389 23.5261125,9.35540182 25.2961174,9.35540182 C27.0661223,9.35540182 28.7300741,10.0410567 29.9817163,11.2864533 C32.5652639,13.8570217 32.5652639,18.0396234 29.9817163,20.6101096 Z" id="Shape"></path>
        <rect id="Rectangle-path" transform="translate(17.813094, 23.391742) rotate(-45.000000) translate(-17.813094, -23.391742) " x="17.1653736" y="21.417943" width="1.29543975" height="3.94759728"></rect>
        <path d="M14.9993722,22.4710083 L14.0833308,23.3825831 L14.560446,23.857204 L4.74089868,33.6271897 L7.52729463,36.399581 L17.3467593,26.6297597 L17.8239572,27.1044628 L18.7399986,26.1929703 L14.9993722,22.4710083 Z M7.52737729,34.5766782 L6.57314682,33.6271897 L7.99498659,32.2125382 L8.94921706,33.1620267 L7.52737729,34.5766782 Z M9.86534113,32.2505342 L8.91111066,31.301128 L15.4765701,24.768861 L16.4307179,25.7182672 L9.86534113,32.2505342 Z" id="Shape"></path>
        <path d="M27.9459585,29.6159812 L22.4971571,26.5180745 L22.4971571,40.1160327 L42.3085984,40.1160327 L42.3085984,29.6159812 L27.9459585,29.6159812 Z M41.0130636,38.8272121 L23.7926919,38.8272121 L23.7926919,28.7393595 L27.6019264,30.9049663 L41.0129809,30.9049663 L41.0130636,38.8272121 Z" id="Shape"></path>
        <rect id="Rectangle-path" x="25.8250606" y="32.6154437" width="7.25517693" height="1.28898511"></rect>
        <rect id="Rectangle-path" x="25.8250606" y="34.5918931" width="2.59115233" height="1.28898511"></rect>
        <rect id="Rectangle-path" x="29.7982105" y="34.5918931" width="5.87326208" height="1.28898511"></rect>
        <rect id="Rectangle-path" x="25.8250606" y="36.4824813" width="1.29553484" height="1.28898511"></rect>
        <rect id="Rectangle-path" x="28.416213" y="36.4824813" width="1.38191485" height="1.28898511"></rect>
        <rect id="Rectangle-path" x="31.0937453" y="36.4824813" width="1.29553484" height="1.28898511"></rect>
        <rect id="Rectangle-path" x="33.6848976" y="36.4824813" width="1.38191485" height="1.28898511"></rect>
        <rect id="Rectangle-path" x="36.36243" y="36.4824813" width="1.29553484" height="1.28898511"></rect>
      </g>
    </g>
  </g>
</svg>