<svg width="40px" height="40px" viewBox="0 0 43 46" version="1.1" xmlns="http://www.w3.org/2000/svg" xmlns:xlink="http://www.w3.org/1999/xlink">
  <!-- Generator: Sketch 48.2 (47327) - http://www.bohemiancoding.com/sketch -->
  <desc>Created with Sketch.</desc>
  <defs></defs>
  <g id="Page-1" stroke="none" stroke-width="1" fill="none" fill-rule="evenodd">
    <g id="Home" transform="translate(-858.000000, -610.000000)">
      <g id="Group-12" transform="translate(325.000000, 597.000000)">
        <g id="Group-19" transform="translate(534.000000, 14.000000)">
          <polygon id="Stroke-1" stroke="#343A4A" stroke-linecap="round" stroke-linejoin="round" points="15.3462222 27.7037037 26.2101481 27.7037037 26.2101481 18.1434815 15.3462222 18.1434815"></polygon>
          <path d="M0.407407407,44 L41.1481481,44 L41.1481481,40.0815556 C41.1481481,33.3625926 35.7907407,27.7631852 29.0717778,27.7045185 C29.0237037,27.7037037 28.9748148,27.7037037 28.9259259,27.7037037 L12.6296296,27.7037037 C12.5807407,27.7037037 12.5326667,27.7037037 12.4837778,27.7045185 C5.76481481,27.7631852 0.407407407,33.3625926 0.407407407,40.0815556 L0.407407407,44 Z" id="Fill-2" fill="#E6E6ED"></path>
          <path d="M0.407407407,44 L41.1481481,44 L41.1481481,40.0815556 C41.1481481,33.3625926 35.7907407,27.7631852 29.0717778,27.7045185 C29.0237037,27.7037037 28.9748148,27.7037037 28.9259259,27.7037037 L12.6296296,27.7037037 C12.5807407,27.7037037 12.5326667,27.7037037 12.4837778,27.7045185 C5.76481481,27.7631852 0.407407407,33.3625926 0.407407407,40.0815556 L0.407407407,44 Z" id="Stroke-4" stroke="#343A4A" stroke-linecap="round" stroke-linejoin="round"></path>
          <path d="M28.2740741,7.25511111 L13.2814815,7.25511111 L13.2814815,14.4808889 C13.2814815,18.2094815 15.144963,21.6911852 18.246963,23.7591852 C18.6755556,24.0443704 19.1782963,24.1967407 19.6932593,24.1967407 L21.8622963,24.1967407 C22.3772593,24.1967407 22.8808148,24.0443704 23.3094074,23.7591852 C26.4105926,21.6911852 28.2740741,18.2094815 28.2740741,14.4808889 L28.2740741,7.25511111 Z" id="Fill-6" fill="#E6E6ED"></path>
          <path d="M28.2740741,7.25511111 L13.2814815,7.25511111 L13.2814815,14.4808889 C13.2814815,18.2094815 15.144963,21.6911852 18.246963,23.7591852 C18.6755556,24.0443704 19.1782963,24.1967407 19.6932593,24.1967407 L21.8622963,24.1967407 C22.3772593,24.1967407 22.8808148,24.0443704 23.3094074,23.7591852 C26.4105926,21.6911852 28.2740741,18.2094815 28.2740741,14.4808889 L28.2740741,7.25511111 Z" id="Stroke-8" stroke="#343A4A" stroke-linecap="round" stroke-linejoin="round"></path>
          <path d="M21.7962963,1.42592593 C21.7962963,0.863703704 21.34,0.407407407 20.7777778,0.407407407 C20.2155556,0.407407407 19.7592593,0.863703704 19.7592593,1.42592593 C19.7592593,1.98814815 20.2155556,2.44444444 20.7777778,2.44444444 C21.34,2.44444444 21.7962963,1.98814815 21.7962963,1.42592593" id="Fill-10" fill="#E6E6ED"></path>
          <path d="M21.7962963,1.42592593 C21.7962963,0.863703704 21.34,0.407407407 20.7777778,0.407407407 C20.2155556,0.407407407 19.7592593,0.863703704 19.7592593,1.42592593 C19.7592593,1.98814815 20.2155556,2.44444444 20.7777778,2.44444444 C21.34,2.44444444 21.7962963,1.98814815 21.7962963,1.42592593 Z" id="Stroke-12" stroke="#343A4A" stroke-linecap="round" stroke-linejoin="round"></path>
          <polygon id="Fill-14" fill="#E6E6ED" points="12.6296296 44 28.9259259 44 28.9259259 39.9259259 12.6296296 39.9259259"></polygon>
          <polygon id="Stroke-16" stroke="#343A4A" stroke-linecap="round" stroke-linejoin="round" points="12.6296296 44 28.9259259 44 28.9259259 39.9259259 12.6296296 39.9259259"></polygon>
          <path d="M8.55555556,28.2171185 L8.55555556,44.0000815 L12.6296296,44.0000815 L12.6296296,27.7037852 C11.2224444,27.7037852 9.85762963,27.8822296 8.55555556,28.2171185" id="Fill-17" fill="#E6E6ED"></path>
          <path d="M8.55555556,28.2171185 L8.55555556,44.0000815 L12.6296296,44.0000815 L12.6296296,27.7037852 C11.2224444,27.7037852 9.85762963,27.8822296 8.55555556,28.2171185 Z" id="Stroke-18" stroke="#343A4A" stroke-linecap="round" stroke-linejoin="round"></path>
          <path d="M33,28.2171185 C31.6979259,27.8822296 30.3331111,27.7037852 28.9259259,27.7037852 L28.9259259,44.0000815 L33,44.0000815 L33,28.2171185 Z" id="Fill-19" fill="#E6E6ED"></path>
          <path d="M33,28.2171185 C31.6979259,27.8822296 30.3331111,27.7037852 28.9259259,27.7037852 L28.9259259,44.0000815 L33,44.0000815 L33,28.2171185 Z" id="Stroke-20" stroke="#343A4A" stroke-linecap="round" stroke-linejoin="round"></path>
          <polygon id="Fill-21" fill="#E6E6ED" points="15.3457333 24.9876815 12.6299556 27.7034593 18.0615111 30.4200519 20.7781037 27.7034593"></polygon>
          <polygon id="Stroke-22" stroke="#343A4A" stroke-linecap="round" stroke-linejoin="round" points="15.3457333 24.9876815 12.6299556 27.7034593 18.0615111 30.4200519 20.7781037 27.7034593"></polygon>
          <polygon id="Fill-23" fill="#E6E6ED" points="26.2099037 24.9876815 28.9256815 27.7034593 23.4941259 30.4200519 20.7775333 27.7034593"></polygon>
          <polygon id="Stroke-24" stroke="#343A4A" stroke-linecap="round" stroke-linejoin="round" points="26.2099037 24.9876815 28.9256815 27.7034593 23.4941259 30.4200519 20.7775333 27.7034593"></polygon>
          <path d="M20.7777778,27.7037037 L20.7777778,39.9259259" id="Stroke-25" stroke="#343A4A" stroke-linecap="round" stroke-linejoin="round"></path>
          <path d="M24.9643778,2.59005185 L23.8268963,2.37331111 C21.8126741,1.98953333 19.7430444,1.98953333 17.7288222,2.37331111 L16.5913407,2.59005185 C14.9918593,2.89479259 13.7484519,4.15775556 13.4697852,5.76212593 L12.6297111,10.5923481 C18.0620815,8.34264444 23.8912667,8.50723704 28.9260074,10.5923481 L28.0859333,5.76212593 C27.8064519,4.15775556 26.5638593,2.89479259 24.9643778,2.59005185" id="Fill-26" fill="#E6E6ED"></path>
          <path d="M24.9643778,2.59005185 L23.8268963,2.37331111 C21.8126741,1.98953333 19.7430444,1.98953333 17.7288222,2.37331111 L16.5913407,2.59005185 C14.9918593,2.89479259 13.7484519,4.15775556 13.4697852,5.76212593 L12.6297111,10.5923481 C18.0620815,8.34264444 23.8912667,8.50723704 28.9260074,10.5923481 L28.0859333,5.76212593 C27.8064519,4.15775556 26.5638593,2.89479259 24.9643778,2.59005185 Z" id="Stroke-27" stroke="#343A4A" stroke-linecap="round" stroke-linejoin="round"></path>
          <path d="M14.5851852,9.7099037 C16.4242222,9.21205185 19.588963,8.96842222 21.4296296,8.96923704 C21.4679259,8.96923704 21.5054074,8.96679259 21.5437037,8.96760741 C23.3900741,8.9782 25.2128148,9.23486667 26.9703704,9.7099037 L26.004,4.73627407 C25.7375556,3.36575556 24.6277778,2.3179037 23.2442222,2.12886667 C21.6072593,1.90560741 19.9482963,1.90560741 18.3113333,2.12886667 C16.9277778,2.3179037 15.8188148,3.36575556 15.5523704,4.73627407 L14.5851852,9.7099037 Z" id="Fill-28" fill="#E6E6ED"></path>
          <path d="M14.5851852,9.7099037 C16.4242222,9.21205185 19.588963,8.96842222 21.4296296,8.96923704 C21.4679259,8.96923704 21.5054074,8.96679259 21.5437037,8.96760741 C23.3900741,8.9782 25.2128148,9.23486667 26.9703704,9.7099037 L26.004,4.73627407 C25.7375556,3.36575556 24.6277778,2.3179037 23.2442222,2.12886667 C21.6072593,1.90560741 19.9482963,1.90560741 18.3113333,2.12886667 C16.9277778,2.3179037 15.8188148,3.36575556 15.5523704,4.73627407 L14.5851852,9.7099037 Z" id="Stroke-29" stroke="#343A4A" stroke-linecap="round" stroke-linejoin="round"></path>
          <path d="M12.8083185,9.47580741 L11.9380963,11.9243259 C11.6064667,12.8572889 12.392763,13.8065481 13.3705407,13.6484741 C15.7563185,13.2622519 17.0836519,12.7065481 20.7780222,12.7065481 C24.4715778,12.7065481 25.7989111,13.2622519 28.1846889,13.6476593 C29.1632815,13.8065481 29.9495778,12.8572889 29.6179481,11.9243259 L28.7469111,9.47499259 C23.5842444,7.49254815 17.9718,7.49254815 12.8083185,9.47580741" id="Fill-30" fill="#E6E6ED"></path>
          <path d="M12.8083185,9.47580741 L11.9380963,11.9243259 C11.6064667,12.8572889 12.392763,13.8065481 13.3705407,13.6484741 C15.7563185,13.2622519 17.0836519,12.7065481 20.7780222,12.7065481 C24.4715778,12.7065481 25.7989111,13.2622519 28.1846889,13.6476593 C29.1632815,13.8065481 29.9495778,12.8572889 29.6179481,11.9243259 L28.7469111,9.47499259 C23.5842444,7.49254815 17.9718,7.49254815 12.8083185,9.47580741 Z" id="Stroke-31" stroke="#343A4A" stroke-linecap="round" stroke-linejoin="round"></path>
        </g>
      </g>
    </g>
  </g>
</svg>