<svg width="46px" height="53px" viewBox="0 0 46 48" version="1.1" xmlns="http://www.w3.org/2000/svg" xmlns:xlink="http://www.w3.org/1999/xlink">
  <!-- Generator: Sketch 48.2 (47327) - http://www.bohemiancoding.com/sketch -->
  <desc>Created with Sketch.</desc>
  <defs></defs>
  <g id="Page-1" stroke="none" stroke-width="1" fill="none" fill-rule="evenodd">
    <g id="1--Sectors-&amp;-Industries" transform="translate(-576.000000, -273.000000)">
      <g id="Group-6" transform="translate(576.000000, 273.000000)">
        <g>
          <polygon id="Fill-1" fill="#fff" points="13.9743208 40.718496 11.8650292 38.593056 21.1531958 29.344416 21.1531958 16.788576 31.4801958 6.531936 33.5856542 8.660256 24.1441542 18.036576 24.1441542 30.591456"></polygon>
          <path d="M15.9518417,16.112544 C14.2776333,17.789664 11.562675,17.789664 9.88846667,16.112544 C8.21425833,14.435424 8.21425833,11.715744 9.88846667,10.038624 C11.562675,8.361504 14.2776333,8.361504 15.9518417,10.038624 C17.62605,11.715744 17.62605,14.435424 15.9518417,16.112544" id="Fill-2" fill="#fff"></path>
          <path d="M15.9517458,29.402688 C14.2775375,31.079808 11.5625792,31.079808 9.88837083,29.402688 C8.2141625,27.725568 8.2141625,25.005888 9.88837083,23.328768 C11.5625792,21.651648 14.2775375,21.651648 15.9517458,23.328768 C17.6259542,25.005888 17.6259542,27.725568 15.9517458,29.402688" id="Fill-4" fill="#fff"></path>
          <path d="M15.9517458,42.692832 C14.2775375,44.369952 11.5625792,44.369952 9.88837083,42.692832 C8.2141625,41.015712 8.2141625,38.296032 9.88837083,36.618912 C11.5625792,34.941792 14.2775375,34.941792 15.9517458,36.618912 C17.6259542,38.296032 17.6259542,41.015712 15.9517458,42.692832" id="Fill-6" fill="#fff"></path>
          <path d="M35.5647083,10.633344 C33.8905,12.310464 31.1755417,12.310464 29.5013333,10.633344 C27.827125,8.956224 27.827125,6.236544 29.5013333,4.559424 C31.1755417,2.882304 33.8905,2.882304 35.5647083,4.559424 C37.2389167,6.236544 37.2389167,8.956224 35.5647083,10.633344" id="Fill-8" fill="#fff"></path>
          <path d="M35.5646125,23.923488 C33.8904042,25.600608 31.1754458,25.600608 29.5012375,23.923488 C27.8270292,22.246368 27.8270292,19.526688 29.5012375,17.849568 C31.1754458,16.172448 33.8904042,16.172448 35.5646125,17.849568 C37.2388208,19.526688 37.2388208,22.246368 35.5646125,23.923488" id="Fill-10" fill="#fff"></path>
          <path d="M35.5646125,37.213728 C33.8904042,38.890848 31.1754458,38.890848 29.5012375,37.213728 C27.8270292,35.536608 27.8270292,32.816928 29.5012375,31.139808 C31.1754458,29.462688 33.8904042,29.462688 35.5646125,31.139808 C37.2388208,32.816928 37.2388208,35.536608 35.5646125,37.213728" id="Fill-12" fill="#fff"></path>
          <polygon id="Fill-14" fill="#fff" points="13.9771958 14.134656 11.8621542 12.015936 23.8585708 -0.000384 25.9726542 2.118336"></polygon>
          <polygon id="Fill-17" fill="#fff" points="21.2320667 47.615904 19.117025 45.497184 31.4756917 33.117024 33.589775 35.235744"></polygon>
          <polygon id="Fill-19" fill="#fff" points="2.11485 39.30816 -0.000191666667 37.18944 11.8620583 25.30656 13.9771 27.42432"></polygon>
          <polygon id="Fill-22" fill="#fff" points="33.5900625 21.945504 31.4750208 19.826784 42.9577708 8.325024 45.0728125 10.443744"></polygon>
        </g>
      </g>
    </g>
  </g>
</svg>