<svg width="29px" height="53px" viewBox="0 0 29 53" version="1.1" xmlns="http://www.w3.org/2000/svg" xmlns:xlink="http://www.w3.org/1999/xlink">
  <!-- Generator: Sketch 48.2 (47327) - http://www.bohemiancoding.com/sketch -->
  <desc>Created with Sketch.</desc>
  <defs></defs>
  <g id="Page-1" stroke="none" stroke-width="1" fill="none" fill-rule="evenodd">
    <g id="1--Sectors-&amp;-Industries" transform="translate(-345.000000, -272.000000)">
      <g id="Group-10" transform="translate(345.000000, 272.000000)">
        <path d="M23.5029826,30.7110914 C20.7254842,28.0008642 16.2687058,24.8112279 11.6900346,21.3168416 C9.39537364,19.5702507 7.55988153,17.9489326 6.39775821,16.3697735 C5.2309012,14.7773645 4.68179202,13.347569 4.66995777,11.5058191 C4.66995777,10.8770464 4.74096327,10.1856373 4.90664276,9.41834186 C5.18711448,8.11020552 4.39303633,6.81652373 3.13623902,6.52743283 C1.87825829,6.23352374 0.628561528,7.05622827 0.351640087,8.36316006 C0.119688795,9.43641004 0.000162873421,10.4843646 0.000162873421,11.5058191 C-0.0152216511,14.5027281 1.06051164,17.1551371 2.70192206,19.3305462 C4.34096563,21.525228 6.49479906,23.3609552 8.92437051,25.2159551 C13.5444616,28.7320233 18.0083405,31.973455 20.2982678,34.2295686 C21.7266617,35.5726367 24.4130364,38.9790912 24.3301967,42.2120911 C24.3301967,42.7770229 24.2627414,43.3564093 24.1053459,43.9647047 C23.7680698,45.257182 24.5077104,46.5857956 25.7526735,46.9327047 C25.9585894,46.9881138 26.1621385,47.0170229 26.3645042,47.0170229 C27.3940839,47.0170229 28.3349067,46.3063411 28.614195,45.2246593 C28.8780988,44.2080229 29.001175,43.1962048 28.9999915,42.2120911 C28.9218855,36.5061594 25.2568184,32.4865914 23.5029826,30.7110914 M16.7965133,22.2672279 C18.1716532,23.3055461 19.5053731,24.3173643 20.7479693,25.3002733 C21.9515125,24.3800006 23.1834579,23.329637 24.4568231,22.0335461 C27.5491125,18.8511371 28.9195187,15.4061372 28.906501,12.2201145 C28.8437795,6.7996601 25.4260482,2.94872836 23.3124512,0.705864773 C22.3988471,-0.236089752 20.9231162,-0.236089752 20.011879,0.710682955 C19.0982749,1.65625112 19.0982749,3.18722836 20.011879,4.13520561 C21.9515125,6.0998192 24.300611,9.20634186 24.2367061,12.2201145 C24.2189547,14.0088645 23.5893726,16.0529781 21.1515172,18.6126371 C19.7444249,20.107478 18.299463,21.2409552 16.7965133,22.2672279 M12.4521603,30.7978187 C11.7208037,30.2425232 10.9716957,29.6763869 10.20957,29.1018187 L8.4876867,27.7997051 C7.20722089,28.7934551 5.88178493,29.9401823 4.4959943,31.3567277 C1.49127832,34.4415686 0.194244567,37.8793412 0.214362791,41.0171821 C0.27116719,46.356932 3.45813061,50.2464092 5.38592987,52.2893182 C5.84154848,52.7602955 6.43917809,53 7.03562427,53 C7.6344373,53 8.2320669,52.7602955 8.68650209,52.2893182 C9.59892273,51.3425455 9.59892273,49.8079546 8.68650209,48.8647955 C7.08887839,47.2507047 4.82853672,44.0947956 4.88415769,41.0171821 C4.90190906,39.1922958 5.50190552,37.196364 7.79656652,34.7836595 C9.36697144,33.126205 10.9077907,31.8819096 12.4521603,30.7978187" id="Fill-1" fill="#5CC83B"></path>
        <path d="M20.4041896,39.0538153 C20.2658421,38.3885388 19.6113981,37.9630992 18.9437209,38.1041089 L7.12884151,40.6133585 C6.4623673,40.7543682 6.03770052,41.4100031 6.1784541,42.07769 C6.30116235,42.6561914 6.81244671,43.0539111 7.38147613,43.0539111 C7.4668907,43.0539111 7.55230526,43.0466798 7.64012587,43.0286016 L19.4562083,40.5169416 C20.1214795,40.3759319 20.5473493,39.7215023 20.4041896,39.0538153 Z M18.896803,16.8514157 C18.8198096,16.1740871 18.2086744,15.6871818 17.5337791,15.7619049 L11.5667898,16.4320022 C10.8894884,16.5091358 10.4058735,17.121383 10.4780548,17.7963013 C10.5490331,18.4290371 11.086784,18.8954538 11.7063403,18.8954538 C11.7520552,18.8954538 11.796567,18.8930434 11.8410788,18.8882225 L17.8092711,18.2157147 C18.4853695,18.1385812 18.9725934,17.526334 18.896803,16.8514157 Z M6.7679349,13.9793976 C6.88342501,14.5675406 7.39952146,14.9785176 7.97576902,14.9785176 C8.05276243,14.9785176 8.13216188,14.9724916 8.21035831,14.9556186 L19.879672,12.7199519 C20.5485523,12.5921996 20.9864523,11.9450012 20.858932,11.2773142 C20.7302086,10.6060116 20.0853888,10.1673148 19.4165086,10.2962723 L7.74719483,12.5343494 C7.08072062,12.6608966 6.6428206,13.3093002 6.7679349,13.9793976 Z M21.0562276,43.8855067 C20.8962257,43.2214354 20.2297515,42.8164845 19.5692924,42.9755723 L10.1003059,45.2654735 C9.44104985,45.4269718 9.03202236,46.0910431 9.19322732,46.7563197 C9.32916881,47.3191533 9.83443806,47.7 10.3890312,47.7 C10.48407,47.7 10.5815147,47.6891531 10.6777565,47.6662541 L20.1467429,45.3751477 C20.807202,45.2148546 21.2162295,44.5471677 21.0562276,43.8855067 Z M9.32676276,35.0127424 C8.65547647,35.1188009 8.19471903,35.7479211 8.30058497,36.4228394 C8.39562371,37.0326762 8.92014131,37.4665522 9.51684024,37.4665522 C9.58060041,37.4665522 9.64436058,37.4617314 9.7057147,37.4520897 L15.7906001,36.505999 C16.4630895,36.4011456 16.9226439,35.7684097 16.817981,35.0946967 C16.7145211,34.4233941 16.0817315,33.9617982 15.4104452,34.0654464 L9.32676276,35.0127424 Z M7.38388218,10.283015 C7.48974812,10.283015 7.5980201,10.2673473 7.70508906,10.2396274 L17.0080584,7.7267622 C17.6625024,7.54839095 18.0534846,6.87106229 17.8754373,6.21301701 C17.6985931,5.55376652 17.0224947,5.16568853 16.3668477,5.34285457 L7.06267529,7.85571979 C6.40823131,8.03409104 6.01604612,8.71021449 6.19529641,9.36825977 C6.34326812,9.91783605 6.84131924,10.283015 7.38388218,10.283015 Z" id="Fill-4" fill="#343A4A"></path>
      </g>
    </g>
  </g>
</svg>